G04 #@! TF.GenerationSoftware,KiCad,Pcbnew,(5.1.2)-2*
G04 #@! TF.CreationDate,2019-10-17T08:09:51+02:00*
G04 #@! TF.ProjectId,StepperClock,53746570-7065-4724-936c-6f636b2e6b69,rev?*
G04 #@! TF.SameCoordinates,Original*
G04 #@! TF.FileFunction,Soldermask,Bot*
G04 #@! TF.FilePolarity,Negative*
%FSLAX46Y46*%
G04 Gerber Fmt 4.6, Leading zero omitted, Abs format (unit mm)*
G04 Created by KiCad (PCBNEW (5.1.2)-2) date 2019-10-17 08:09:51*
%MOMM*%
%LPD*%
G04 APERTURE LIST*
%ADD10C,0.100000*%
G04 APERTURE END LIST*
D10*
G36*
X202704233Y-142215633D02*
G01*
X202794457Y-142233579D01*
X202900067Y-142277325D01*
X203049421Y-142339189D01*
X203049422Y-142339190D01*
X203278886Y-142492512D01*
X203474028Y-142687654D01*
X203576475Y-142840977D01*
X203627351Y-142917119D01*
X203732961Y-143172084D01*
X203786800Y-143442752D01*
X203786800Y-143718728D01*
X203732961Y-143989396D01*
X203627351Y-144244361D01*
X203627350Y-144244362D01*
X203474028Y-144473826D01*
X203278886Y-144668968D01*
X203125563Y-144771415D01*
X203049421Y-144822291D01*
X202900067Y-144884155D01*
X202794457Y-144927901D01*
X202704233Y-144945847D01*
X202523788Y-144981740D01*
X202247812Y-144981740D01*
X202067367Y-144945847D01*
X201977143Y-144927901D01*
X201871533Y-144884155D01*
X201722179Y-144822291D01*
X201646037Y-144771415D01*
X201492714Y-144668968D01*
X201297572Y-144473826D01*
X201144250Y-144244362D01*
X201144249Y-144244361D01*
X201038639Y-143989396D01*
X200984800Y-143718728D01*
X200984800Y-143442752D01*
X201038639Y-143172084D01*
X201144249Y-142917119D01*
X201195125Y-142840977D01*
X201297572Y-142687654D01*
X201492714Y-142492512D01*
X201722178Y-142339190D01*
X201722179Y-142339189D01*
X201871533Y-142277325D01*
X201977143Y-142233579D01*
X202067367Y-142215633D01*
X202247812Y-142179740D01*
X202523788Y-142179740D01*
X202704233Y-142215633D01*
X202704233Y-142215633D01*
G37*
G36*
X75904233Y-142215633D02*
G01*
X75994457Y-142233579D01*
X76100067Y-142277325D01*
X76249421Y-142339189D01*
X76249422Y-142339190D01*
X76478886Y-142492512D01*
X76674028Y-142687654D01*
X76776475Y-142840977D01*
X76827351Y-142917119D01*
X76932961Y-143172084D01*
X76986800Y-143442752D01*
X76986800Y-143718728D01*
X76932961Y-143989396D01*
X76827351Y-144244361D01*
X76827350Y-144244362D01*
X76674028Y-144473826D01*
X76478886Y-144668968D01*
X76325563Y-144771415D01*
X76249421Y-144822291D01*
X76100067Y-144884155D01*
X75994457Y-144927901D01*
X75904233Y-144945847D01*
X75723788Y-144981740D01*
X75447812Y-144981740D01*
X75267367Y-144945847D01*
X75177143Y-144927901D01*
X75071533Y-144884155D01*
X74922179Y-144822291D01*
X74846037Y-144771415D01*
X74692714Y-144668968D01*
X74497572Y-144473826D01*
X74344250Y-144244362D01*
X74344249Y-144244361D01*
X74238639Y-143989396D01*
X74184800Y-143718728D01*
X74184800Y-143442752D01*
X74238639Y-143172084D01*
X74344249Y-142917119D01*
X74395125Y-142840977D01*
X74497572Y-142687654D01*
X74692714Y-142492512D01*
X74922178Y-142339190D01*
X74922179Y-142339189D01*
X75071533Y-142277325D01*
X75177143Y-142233579D01*
X75267367Y-142215633D01*
X75447812Y-142179740D01*
X75723788Y-142179740D01*
X75904233Y-142215633D01*
X75904233Y-142215633D01*
G37*
G36*
X191572942Y-139298982D02*
G01*
X191720901Y-139360269D01*
X191854055Y-139449239D01*
X191967301Y-139562485D01*
X192056271Y-139695639D01*
X192117558Y-139843598D01*
X192148800Y-140000665D01*
X192148800Y-140160815D01*
X192117558Y-140317882D01*
X192056271Y-140465841D01*
X191967301Y-140598995D01*
X191854055Y-140712241D01*
X191720901Y-140801211D01*
X191572942Y-140862498D01*
X191415875Y-140893740D01*
X191255725Y-140893740D01*
X191098658Y-140862498D01*
X190950699Y-140801211D01*
X190817545Y-140712241D01*
X190704299Y-140598995D01*
X190615329Y-140465841D01*
X190554042Y-140317882D01*
X190522800Y-140160815D01*
X190522800Y-140000665D01*
X190554042Y-139843598D01*
X190615329Y-139695639D01*
X190704299Y-139562485D01*
X190817545Y-139449239D01*
X190950699Y-139360269D01*
X191098658Y-139298982D01*
X191255725Y-139267740D01*
X191415875Y-139267740D01*
X191572942Y-139298982D01*
X191572942Y-139298982D01*
G37*
G36*
X152572942Y-139298982D02*
G01*
X152720901Y-139360269D01*
X152854055Y-139449239D01*
X152967301Y-139562485D01*
X153056271Y-139695639D01*
X153117558Y-139843598D01*
X153148800Y-140000665D01*
X153148800Y-140160815D01*
X153117558Y-140317882D01*
X153056271Y-140465841D01*
X152967301Y-140598995D01*
X152854055Y-140712241D01*
X152720901Y-140801211D01*
X152572942Y-140862498D01*
X152415875Y-140893740D01*
X152255725Y-140893740D01*
X152098658Y-140862498D01*
X151950699Y-140801211D01*
X151817545Y-140712241D01*
X151704299Y-140598995D01*
X151615329Y-140465841D01*
X151554042Y-140317882D01*
X151522800Y-140160815D01*
X151522800Y-140000665D01*
X151554042Y-139843598D01*
X151615329Y-139695639D01*
X151704299Y-139562485D01*
X151817545Y-139449239D01*
X151950699Y-139360269D01*
X152098658Y-139298982D01*
X152255725Y-139267740D01*
X152415875Y-139267740D01*
X152572942Y-139298982D01*
X152572942Y-139298982D01*
G37*
G36*
X86572942Y-139298982D02*
G01*
X86720901Y-139360269D01*
X86854055Y-139449239D01*
X86967301Y-139562485D01*
X87056271Y-139695639D01*
X87117558Y-139843598D01*
X87148800Y-140000665D01*
X87148800Y-140160815D01*
X87117558Y-140317882D01*
X87056271Y-140465841D01*
X86967301Y-140598995D01*
X86854055Y-140712241D01*
X86720901Y-140801211D01*
X86572942Y-140862498D01*
X86415875Y-140893740D01*
X86255725Y-140893740D01*
X86098658Y-140862498D01*
X85950699Y-140801211D01*
X85817545Y-140712241D01*
X85704299Y-140598995D01*
X85615329Y-140465841D01*
X85554042Y-140317882D01*
X85522800Y-140160815D01*
X85522800Y-140000665D01*
X85554042Y-139843598D01*
X85615329Y-139695639D01*
X85704299Y-139562485D01*
X85817545Y-139449239D01*
X85950699Y-139360269D01*
X86098658Y-139298982D01*
X86255725Y-139267740D01*
X86415875Y-139267740D01*
X86572942Y-139298982D01*
X86572942Y-139298982D01*
G37*
G36*
X94572942Y-139298982D02*
G01*
X94720901Y-139360269D01*
X94854055Y-139449239D01*
X94967301Y-139562485D01*
X95056271Y-139695639D01*
X95117558Y-139843598D01*
X95148800Y-140000665D01*
X95148800Y-140160815D01*
X95117558Y-140317882D01*
X95056271Y-140465841D01*
X94967301Y-140598995D01*
X94854055Y-140712241D01*
X94720901Y-140801211D01*
X94572942Y-140862498D01*
X94415875Y-140893740D01*
X94255725Y-140893740D01*
X94098658Y-140862498D01*
X93950699Y-140801211D01*
X93817545Y-140712241D01*
X93704299Y-140598995D01*
X93615329Y-140465841D01*
X93554042Y-140317882D01*
X93522800Y-140160815D01*
X93522800Y-140000665D01*
X93554042Y-139843598D01*
X93615329Y-139695639D01*
X93704299Y-139562485D01*
X93817545Y-139449239D01*
X93950699Y-139360269D01*
X94098658Y-139298982D01*
X94255725Y-139267740D01*
X94415875Y-139267740D01*
X94572942Y-139298982D01*
X94572942Y-139298982D01*
G37*
G36*
X117572942Y-139298982D02*
G01*
X117720901Y-139360269D01*
X117854055Y-139449239D01*
X117967301Y-139562485D01*
X118056271Y-139695639D01*
X118117558Y-139843598D01*
X118148800Y-140000665D01*
X118148800Y-140160815D01*
X118117558Y-140317882D01*
X118056271Y-140465841D01*
X117967301Y-140598995D01*
X117854055Y-140712241D01*
X117720901Y-140801211D01*
X117572942Y-140862498D01*
X117415875Y-140893740D01*
X117255725Y-140893740D01*
X117098658Y-140862498D01*
X116950699Y-140801211D01*
X116817545Y-140712241D01*
X116704299Y-140598995D01*
X116615329Y-140465841D01*
X116554042Y-140317882D01*
X116522800Y-140160815D01*
X116522800Y-140000665D01*
X116554042Y-139843598D01*
X116615329Y-139695639D01*
X116704299Y-139562485D01*
X116817545Y-139449239D01*
X116950699Y-139360269D01*
X117098658Y-139298982D01*
X117255725Y-139267740D01*
X117415875Y-139267740D01*
X117572942Y-139298982D01*
X117572942Y-139298982D01*
G37*
G36*
X183572942Y-139298982D02*
G01*
X183720901Y-139360269D01*
X183854055Y-139449239D01*
X183967301Y-139562485D01*
X184056271Y-139695639D01*
X184117558Y-139843598D01*
X184148800Y-140000665D01*
X184148800Y-140160815D01*
X184117558Y-140317882D01*
X184056271Y-140465841D01*
X183967301Y-140598995D01*
X183854055Y-140712241D01*
X183720901Y-140801211D01*
X183572942Y-140862498D01*
X183415875Y-140893740D01*
X183255725Y-140893740D01*
X183098658Y-140862498D01*
X182950699Y-140801211D01*
X182817545Y-140712241D01*
X182704299Y-140598995D01*
X182615329Y-140465841D01*
X182554042Y-140317882D01*
X182522800Y-140160815D01*
X182522800Y-140000665D01*
X182554042Y-139843598D01*
X182615329Y-139695639D01*
X182704299Y-139562485D01*
X182817545Y-139449239D01*
X182950699Y-139360269D01*
X183098658Y-139298982D01*
X183255725Y-139267740D01*
X183415875Y-139267740D01*
X183572942Y-139298982D01*
X183572942Y-139298982D01*
G37*
G36*
X125572942Y-139298982D02*
G01*
X125720901Y-139360269D01*
X125854055Y-139449239D01*
X125967301Y-139562485D01*
X126056271Y-139695639D01*
X126117558Y-139843598D01*
X126148800Y-140000665D01*
X126148800Y-140160815D01*
X126117558Y-140317882D01*
X126056271Y-140465841D01*
X125967301Y-140598995D01*
X125854055Y-140712241D01*
X125720901Y-140801211D01*
X125572942Y-140862498D01*
X125415875Y-140893740D01*
X125255725Y-140893740D01*
X125098658Y-140862498D01*
X124950699Y-140801211D01*
X124817545Y-140712241D01*
X124704299Y-140598995D01*
X124615329Y-140465841D01*
X124554042Y-140317882D01*
X124522800Y-140160815D01*
X124522800Y-140000665D01*
X124554042Y-139843598D01*
X124615329Y-139695639D01*
X124704299Y-139562485D01*
X124817545Y-139449239D01*
X124950699Y-139360269D01*
X125098658Y-139298982D01*
X125255725Y-139267740D01*
X125415875Y-139267740D01*
X125572942Y-139298982D01*
X125572942Y-139298982D01*
G37*
G36*
X160572942Y-139298982D02*
G01*
X160720901Y-139360269D01*
X160854055Y-139449239D01*
X160967301Y-139562485D01*
X161056271Y-139695639D01*
X161117558Y-139843598D01*
X161148800Y-140000665D01*
X161148800Y-140160815D01*
X161117558Y-140317882D01*
X161056271Y-140465841D01*
X160967301Y-140598995D01*
X160854055Y-140712241D01*
X160720901Y-140801211D01*
X160572942Y-140862498D01*
X160415875Y-140893740D01*
X160255725Y-140893740D01*
X160098658Y-140862498D01*
X159950699Y-140801211D01*
X159817545Y-140712241D01*
X159704299Y-140598995D01*
X159615329Y-140465841D01*
X159554042Y-140317882D01*
X159522800Y-140160815D01*
X159522800Y-140000665D01*
X159554042Y-139843598D01*
X159615329Y-139695639D01*
X159704299Y-139562485D01*
X159817545Y-139449239D01*
X159950699Y-139360269D01*
X160098658Y-139298982D01*
X160255725Y-139267740D01*
X160415875Y-139267740D01*
X160572942Y-139298982D01*
X160572942Y-139298982D01*
G37*
G36*
X147351131Y-136408951D02*
G01*
X147678892Y-136544714D01*
X147973870Y-136741812D01*
X148224728Y-136992670D01*
X148421826Y-137287648D01*
X148557589Y-137615409D01*
X148626800Y-137963356D01*
X148626800Y-138318124D01*
X148557589Y-138666071D01*
X148421826Y-138993832D01*
X148224728Y-139288810D01*
X147973870Y-139539668D01*
X147678892Y-139736766D01*
X147351131Y-139872529D01*
X147003184Y-139941740D01*
X146648416Y-139941740D01*
X146300469Y-139872529D01*
X145972708Y-139736766D01*
X145677730Y-139539668D01*
X145426872Y-139288810D01*
X145229774Y-138993832D01*
X145094011Y-138666071D01*
X145024800Y-138318124D01*
X145024800Y-137963356D01*
X145094011Y-137615409D01*
X145229774Y-137287648D01*
X145426872Y-136992670D01*
X145677730Y-136741812D01*
X145972708Y-136544714D01*
X146300469Y-136408951D01*
X146648416Y-136339740D01*
X147003184Y-136339740D01*
X147351131Y-136408951D01*
X147351131Y-136408951D01*
G37*
G36*
X197351131Y-136408951D02*
G01*
X197678892Y-136544714D01*
X197973870Y-136741812D01*
X198224728Y-136992670D01*
X198421826Y-137287648D01*
X198557589Y-137615409D01*
X198626800Y-137963356D01*
X198626800Y-138318124D01*
X198557589Y-138666071D01*
X198421826Y-138993832D01*
X198224728Y-139288810D01*
X197973870Y-139539668D01*
X197678892Y-139736766D01*
X197351131Y-139872529D01*
X197003184Y-139941740D01*
X196648416Y-139941740D01*
X196300469Y-139872529D01*
X195972708Y-139736766D01*
X195677730Y-139539668D01*
X195426872Y-139288810D01*
X195229774Y-138993832D01*
X195094011Y-138666071D01*
X195024800Y-138318124D01*
X195024800Y-137963356D01*
X195094011Y-137615409D01*
X195229774Y-137287648D01*
X195426872Y-136992670D01*
X195677730Y-136741812D01*
X195972708Y-136544714D01*
X196300469Y-136408951D01*
X196648416Y-136339740D01*
X197003184Y-136339740D01*
X197351131Y-136408951D01*
X197351131Y-136408951D01*
G37*
G36*
X131351131Y-136408951D02*
G01*
X131678892Y-136544714D01*
X131973870Y-136741812D01*
X132224728Y-136992670D01*
X132421826Y-137287648D01*
X132557589Y-137615409D01*
X132626800Y-137963356D01*
X132626800Y-138318124D01*
X132557589Y-138666071D01*
X132421826Y-138993832D01*
X132224728Y-139288810D01*
X131973870Y-139539668D01*
X131678892Y-139736766D01*
X131351131Y-139872529D01*
X131003184Y-139941740D01*
X130648416Y-139941740D01*
X130300469Y-139872529D01*
X129972708Y-139736766D01*
X129677730Y-139539668D01*
X129426872Y-139288810D01*
X129229774Y-138993832D01*
X129094011Y-138666071D01*
X129024800Y-138318124D01*
X129024800Y-137963356D01*
X129094011Y-137615409D01*
X129229774Y-137287648D01*
X129426872Y-136992670D01*
X129677730Y-136741812D01*
X129972708Y-136544714D01*
X130300469Y-136408951D01*
X130648416Y-136339740D01*
X131003184Y-136339740D01*
X131351131Y-136408951D01*
X131351131Y-136408951D01*
G37*
G36*
X81351131Y-136408951D02*
G01*
X81678892Y-136544714D01*
X81973870Y-136741812D01*
X82224728Y-136992670D01*
X82421826Y-137287648D01*
X82557589Y-137615409D01*
X82626800Y-137963356D01*
X82626800Y-138318124D01*
X82557589Y-138666071D01*
X82421826Y-138993832D01*
X82224728Y-139288810D01*
X81973870Y-139539668D01*
X81678892Y-139736766D01*
X81351131Y-139872529D01*
X81003184Y-139941740D01*
X80648416Y-139941740D01*
X80300469Y-139872529D01*
X79972708Y-139736766D01*
X79677730Y-139539668D01*
X79426872Y-139288810D01*
X79229774Y-138993832D01*
X79094011Y-138666071D01*
X79024800Y-138318124D01*
X79024800Y-137963356D01*
X79094011Y-137615409D01*
X79229774Y-137287648D01*
X79426872Y-136992670D01*
X79677730Y-136741812D01*
X79972708Y-136544714D01*
X80300469Y-136408951D01*
X80648416Y-136339740D01*
X81003184Y-136339740D01*
X81351131Y-136408951D01*
X81351131Y-136408951D01*
G37*
G36*
X75833564Y-136735142D02*
G01*
X75956245Y-136759545D01*
X76187371Y-136855281D01*
X76292079Y-136925245D01*
X76395377Y-136994266D01*
X76572274Y-137171163D01*
X76603044Y-137217214D01*
X76711259Y-137379169D01*
X76761616Y-137500740D01*
X76806995Y-137610296D01*
X76855800Y-137855655D01*
X76855800Y-138105825D01*
X76806995Y-138351184D01*
X76711260Y-138582309D01*
X76572274Y-138790317D01*
X76395377Y-138967214D01*
X76292079Y-139036235D01*
X76187371Y-139106199D01*
X75956245Y-139201935D01*
X75833564Y-139226338D01*
X75710885Y-139250740D01*
X75460715Y-139250740D01*
X75338036Y-139226338D01*
X75215355Y-139201935D01*
X74984229Y-139106199D01*
X74879521Y-139036235D01*
X74776223Y-138967214D01*
X74599326Y-138790317D01*
X74460340Y-138582309D01*
X74364605Y-138351184D01*
X74315800Y-138105825D01*
X74315800Y-137855655D01*
X74364605Y-137610296D01*
X74409985Y-137500740D01*
X74460341Y-137379169D01*
X74568556Y-137217214D01*
X74599326Y-137171163D01*
X74776223Y-136994266D01*
X74879521Y-136925245D01*
X74984229Y-136855281D01*
X75215355Y-136759545D01*
X75338036Y-136735142D01*
X75460715Y-136710740D01*
X75710885Y-136710740D01*
X75833564Y-136735142D01*
X75833564Y-136735142D01*
G37*
G36*
X200933564Y-134985142D02*
G01*
X201056245Y-135009545D01*
X201287371Y-135105281D01*
X201392079Y-135175245D01*
X201495377Y-135244266D01*
X201672274Y-135421163D01*
X201811260Y-135629171D01*
X201906995Y-135860296D01*
X201955800Y-136105655D01*
X201955800Y-136355825D01*
X201945232Y-136408952D01*
X201906995Y-136601185D01*
X201811259Y-136832311D01*
X201795911Y-136855281D01*
X201703044Y-136994267D01*
X201672273Y-137040318D01*
X201495378Y-137217213D01*
X201287371Y-137356199D01*
X201056245Y-137451935D01*
X200933564Y-137476338D01*
X200810885Y-137500740D01*
X200560715Y-137500740D01*
X200438036Y-137476338D01*
X200315355Y-137451935D01*
X200084229Y-137356199D01*
X199876222Y-137217213D01*
X199699327Y-137040318D01*
X199668557Y-136994267D01*
X199575689Y-136855281D01*
X199560341Y-136832311D01*
X199464605Y-136601185D01*
X199426368Y-136408952D01*
X199415800Y-136355825D01*
X199415800Y-136105655D01*
X199464605Y-135860296D01*
X199560340Y-135629171D01*
X199699326Y-135421163D01*
X199876223Y-135244266D01*
X199979521Y-135175245D01*
X200084229Y-135105281D01*
X200315355Y-135009545D01*
X200438036Y-134985142D01*
X200560715Y-134960740D01*
X200810885Y-134960740D01*
X200933564Y-134985142D01*
X200933564Y-134985142D01*
G37*
G36*
X199516360Y-132081740D02*
G01*
X198914360Y-132081740D01*
X198914360Y-131079740D01*
X199516360Y-131079740D01*
X199516360Y-132081740D01*
X199516360Y-132081740D01*
G37*
G36*
X201016360Y-132081740D02*
G01*
X200414360Y-132081740D01*
X200414360Y-131079740D01*
X201016360Y-131079740D01*
X201016360Y-132081740D01*
X201016360Y-132081740D01*
G37*
G36*
X134961280Y-131987160D02*
G01*
X134359280Y-131987160D01*
X134359280Y-130985160D01*
X134961280Y-130985160D01*
X134961280Y-131987160D01*
X134961280Y-131987160D01*
G37*
G36*
X133461280Y-131987160D02*
G01*
X132859280Y-131987160D01*
X132859280Y-130985160D01*
X133461280Y-130985160D01*
X133461280Y-131987160D01*
X133461280Y-131987160D01*
G37*
G36*
X190745260Y-131839280D02*
G01*
X190143260Y-131839280D01*
X190143260Y-130837280D01*
X190745260Y-130837280D01*
X190745260Y-131839280D01*
X190745260Y-131839280D01*
G37*
G36*
X189245260Y-131839280D02*
G01*
X188643260Y-131839280D01*
X188643260Y-130837280D01*
X189245260Y-130837280D01*
X189245260Y-131839280D01*
X189245260Y-131839280D01*
G37*
G36*
X125308580Y-131510300D02*
G01*
X124706580Y-131510300D01*
X124706580Y-130508300D01*
X125308580Y-130508300D01*
X125308580Y-131510300D01*
X125308580Y-131510300D01*
G37*
G36*
X123808580Y-131510300D02*
G01*
X123206580Y-131510300D01*
X123206580Y-130508300D01*
X123808580Y-130508300D01*
X123808580Y-131510300D01*
X123808580Y-131510300D01*
G37*
G36*
X182152821Y-125447380D02*
G01*
X182662569Y-125658525D01*
X182662571Y-125658526D01*
X183121334Y-125965061D01*
X183511479Y-126355206D01*
X183818014Y-126813969D01*
X183818015Y-126813971D01*
X184029160Y-127323719D01*
X184136800Y-127864864D01*
X184136800Y-128416616D01*
X184029160Y-128957761D01*
X183818015Y-129467509D01*
X183818014Y-129467511D01*
X183511479Y-129926274D01*
X183121334Y-130316419D01*
X182662571Y-130622954D01*
X182662570Y-130622955D01*
X182662569Y-130622955D01*
X182152821Y-130834100D01*
X181611676Y-130941740D01*
X181059924Y-130941740D01*
X180518779Y-130834100D01*
X180009031Y-130622955D01*
X180009030Y-130622955D01*
X180009029Y-130622954D01*
X179550266Y-130316419D01*
X179160121Y-129926274D01*
X178853586Y-129467511D01*
X178853585Y-129467509D01*
X178642440Y-128957761D01*
X178534800Y-128416616D01*
X178534800Y-127864864D01*
X178642440Y-127323719D01*
X178853585Y-126813971D01*
X178853586Y-126813969D01*
X179160121Y-126355206D01*
X179550266Y-125965061D01*
X180009029Y-125658526D01*
X180009031Y-125658525D01*
X180518779Y-125447380D01*
X181059924Y-125339740D01*
X181611676Y-125339740D01*
X182152821Y-125447380D01*
X182152821Y-125447380D01*
G37*
G36*
X116152821Y-125447380D02*
G01*
X116662569Y-125658525D01*
X116662571Y-125658526D01*
X117121334Y-125965061D01*
X117511479Y-126355206D01*
X117818014Y-126813969D01*
X117818015Y-126813971D01*
X118029160Y-127323719D01*
X118136800Y-127864864D01*
X118136800Y-128416616D01*
X118029160Y-128957761D01*
X117818015Y-129467509D01*
X117818014Y-129467511D01*
X117511479Y-129926274D01*
X117121334Y-130316419D01*
X116662571Y-130622954D01*
X116662570Y-130622955D01*
X116662569Y-130622955D01*
X116152821Y-130834100D01*
X115611676Y-130941740D01*
X115059924Y-130941740D01*
X114518779Y-130834100D01*
X114009031Y-130622955D01*
X114009030Y-130622955D01*
X114009029Y-130622954D01*
X113550266Y-130316419D01*
X113160121Y-129926274D01*
X112853586Y-129467511D01*
X112853585Y-129467509D01*
X112642440Y-128957761D01*
X112534800Y-128416616D01*
X112534800Y-127864864D01*
X112642440Y-127323719D01*
X112853585Y-126813971D01*
X112853586Y-126813969D01*
X113160121Y-126355206D01*
X113550266Y-125965061D01*
X114009029Y-125658526D01*
X114009031Y-125658525D01*
X114518779Y-125447380D01*
X115059924Y-125339740D01*
X115611676Y-125339740D01*
X116152821Y-125447380D01*
X116152821Y-125447380D01*
G37*
G36*
X199321580Y-129863340D02*
G01*
X198319580Y-129863340D01*
X198319580Y-128961340D01*
X199321580Y-128961340D01*
X199321580Y-129863340D01*
X199321580Y-129863340D01*
G37*
G36*
X133401120Y-129762960D02*
G01*
X132399120Y-129762960D01*
X132399120Y-128860960D01*
X133401120Y-128860960D01*
X133401120Y-129762960D01*
X133401120Y-129762960D01*
G37*
G36*
X189192720Y-129673500D02*
G01*
X188190720Y-129673500D01*
X188190720Y-128771500D01*
X189192720Y-128771500D01*
X189192720Y-129673500D01*
X189192720Y-129673500D01*
G37*
G36*
X123641740Y-129626460D02*
G01*
X122639740Y-129626460D01*
X122639740Y-128724460D01*
X123641740Y-128724460D01*
X123641740Y-129626460D01*
X123641740Y-129626460D01*
G37*
G36*
X197018240Y-129615080D02*
G01*
X196166240Y-129615080D01*
X196166240Y-128713080D01*
X197018240Y-128713080D01*
X197018240Y-129615080D01*
X197018240Y-129615080D01*
G37*
G36*
X131521960Y-129585820D02*
G01*
X130669960Y-129585820D01*
X130669960Y-128683820D01*
X131521960Y-128683820D01*
X131521960Y-129585820D01*
X131521960Y-129585820D01*
G37*
G36*
X187184020Y-129559860D02*
G01*
X186332020Y-129559860D01*
X186332020Y-128657860D01*
X187184020Y-128657860D01*
X187184020Y-129559860D01*
X187184020Y-129559860D01*
G37*
G36*
X121584780Y-129477260D02*
G01*
X120732780Y-129477260D01*
X120732780Y-128575260D01*
X121584780Y-128575260D01*
X121584780Y-129477260D01*
X121584780Y-129477260D01*
G37*
G36*
X201321580Y-128913340D02*
G01*
X200319580Y-128913340D01*
X200319580Y-128011340D01*
X201321580Y-128011340D01*
X201321580Y-128913340D01*
X201321580Y-128913340D01*
G37*
G36*
X135401120Y-128812960D02*
G01*
X134399120Y-128812960D01*
X134399120Y-127910960D01*
X135401120Y-127910960D01*
X135401120Y-128812960D01*
X135401120Y-128812960D01*
G37*
G36*
X191192720Y-128723500D02*
G01*
X190190720Y-128723500D01*
X190190720Y-127821500D01*
X191192720Y-127821500D01*
X191192720Y-128723500D01*
X191192720Y-128723500D01*
G37*
G36*
X125641740Y-128676460D02*
G01*
X124639740Y-128676460D01*
X124639740Y-127774460D01*
X125641740Y-127774460D01*
X125641740Y-128676460D01*
X125641740Y-128676460D01*
G37*
G36*
X197018240Y-128115080D02*
G01*
X196166240Y-128115080D01*
X196166240Y-127213080D01*
X197018240Y-127213080D01*
X197018240Y-128115080D01*
X197018240Y-128115080D01*
G37*
G36*
X131521960Y-128085820D02*
G01*
X130669960Y-128085820D01*
X130669960Y-127183820D01*
X131521960Y-127183820D01*
X131521960Y-128085820D01*
X131521960Y-128085820D01*
G37*
G36*
X187184020Y-128059860D02*
G01*
X186332020Y-128059860D01*
X186332020Y-127157860D01*
X187184020Y-127157860D01*
X187184020Y-128059860D01*
X187184020Y-128059860D01*
G37*
G36*
X121584780Y-127977260D02*
G01*
X120732780Y-127977260D01*
X120732780Y-127075260D01*
X121584780Y-127075260D01*
X121584780Y-127977260D01*
X121584780Y-127977260D01*
G37*
G36*
X199321580Y-127963340D02*
G01*
X198319580Y-127963340D01*
X198319580Y-127061340D01*
X199321580Y-127061340D01*
X199321580Y-127963340D01*
X199321580Y-127963340D01*
G37*
G36*
X133401120Y-127862960D02*
G01*
X132399120Y-127862960D01*
X132399120Y-126960960D01*
X133401120Y-126960960D01*
X133401120Y-127862960D01*
X133401120Y-127862960D01*
G37*
G36*
X189192720Y-127773500D02*
G01*
X188190720Y-127773500D01*
X188190720Y-126871500D01*
X189192720Y-126871500D01*
X189192720Y-127773500D01*
X189192720Y-127773500D01*
G37*
G36*
X123641740Y-127726460D02*
G01*
X122639740Y-127726460D01*
X122639740Y-126824460D01*
X123641740Y-126824460D01*
X123641740Y-127726460D01*
X123641740Y-127726460D01*
G37*
G36*
X199286800Y-122344882D02*
G01*
X199289202Y-122369268D01*
X199296315Y-122392717D01*
X199307866Y-122414328D01*
X199323411Y-122433270D01*
X199342353Y-122448815D01*
X199363964Y-122460366D01*
X199387413Y-122467479D01*
X199411799Y-122469881D01*
X199436185Y-122467479D01*
X199459634Y-122460366D01*
X199481245Y-122448815D01*
X199500187Y-122433270D01*
X199515732Y-122414328D01*
X199527283Y-122392717D01*
X199557509Y-122319745D01*
X199617809Y-122229500D01*
X199617810Y-122229498D01*
X199694558Y-122152750D01*
X199784804Y-122092450D01*
X199784805Y-122092449D01*
X199885079Y-122050914D01*
X199991530Y-122029740D01*
X200100070Y-122029740D01*
X200206521Y-122050914D01*
X200306795Y-122092449D01*
X200306796Y-122092450D01*
X200397042Y-122152750D01*
X200473790Y-122229498D01*
X200473791Y-122229500D01*
X200534091Y-122319745D01*
X200565316Y-122395129D01*
X200576867Y-122416740D01*
X200592412Y-122435681D01*
X200611354Y-122451227D01*
X200632965Y-122462778D01*
X200656414Y-122469891D01*
X200680800Y-122472293D01*
X200705186Y-122469891D01*
X200728635Y-122462778D01*
X200750246Y-122451227D01*
X200769187Y-122435682D01*
X200784733Y-122416740D01*
X200796284Y-122395129D01*
X200827509Y-122319745D01*
X200887809Y-122229500D01*
X200887810Y-122229498D01*
X200964558Y-122152750D01*
X201054804Y-122092450D01*
X201054805Y-122092449D01*
X201155079Y-122050914D01*
X201261530Y-122029740D01*
X201370070Y-122029740D01*
X201476521Y-122050914D01*
X201576795Y-122092449D01*
X201576796Y-122092450D01*
X201667042Y-122152750D01*
X201743790Y-122229498D01*
X201743791Y-122229500D01*
X201804091Y-122319745D01*
X201845626Y-122420019D01*
X201866800Y-122526470D01*
X201866800Y-122635010D01*
X201845626Y-122741461D01*
X201804091Y-122841735D01*
X201804090Y-122841736D01*
X201743790Y-122931982D01*
X201667042Y-123008730D01*
X201621612Y-123039085D01*
X201576795Y-123069031D01*
X201476521Y-123110566D01*
X201370070Y-123131740D01*
X201261530Y-123131740D01*
X201155079Y-123110566D01*
X201054805Y-123069031D01*
X201009988Y-123039085D01*
X200964558Y-123008730D01*
X200887810Y-122931982D01*
X200827510Y-122841736D01*
X200827509Y-122841735D01*
X200796284Y-122766351D01*
X200784733Y-122744740D01*
X200769188Y-122725799D01*
X200750246Y-122710253D01*
X200728635Y-122698702D01*
X200705186Y-122691589D01*
X200680800Y-122689187D01*
X200656414Y-122691589D01*
X200632965Y-122698702D01*
X200611354Y-122710253D01*
X200592413Y-122725798D01*
X200576867Y-122744740D01*
X200565316Y-122766351D01*
X200534091Y-122841735D01*
X200534090Y-122841736D01*
X200473790Y-122931982D01*
X200397042Y-123008730D01*
X200351612Y-123039085D01*
X200306795Y-123069031D01*
X200206521Y-123110566D01*
X200100070Y-123131740D01*
X199991530Y-123131740D01*
X199885079Y-123110566D01*
X199784805Y-123069031D01*
X199739988Y-123039085D01*
X199694558Y-123008730D01*
X199617810Y-122931982D01*
X199557510Y-122841736D01*
X199557509Y-122841735D01*
X199527283Y-122768763D01*
X199515732Y-122747152D01*
X199500187Y-122728210D01*
X199481245Y-122712665D01*
X199459634Y-122701114D01*
X199436185Y-122694001D01*
X199411799Y-122691599D01*
X199387413Y-122694001D01*
X199363964Y-122701114D01*
X199342353Y-122712665D01*
X199323411Y-122728210D01*
X199307866Y-122747152D01*
X199296315Y-122768763D01*
X199289202Y-122792212D01*
X199286800Y-122816598D01*
X199286800Y-123131740D01*
X198184800Y-123131740D01*
X198184800Y-122029740D01*
X199286800Y-122029740D01*
X199286800Y-122344882D01*
X199286800Y-122344882D01*
G37*
G36*
X188286800Y-122344882D02*
G01*
X188289202Y-122369268D01*
X188296315Y-122392717D01*
X188307866Y-122414328D01*
X188323411Y-122433270D01*
X188342353Y-122448815D01*
X188363964Y-122460366D01*
X188387413Y-122467479D01*
X188411799Y-122469881D01*
X188436185Y-122467479D01*
X188459634Y-122460366D01*
X188481245Y-122448815D01*
X188500187Y-122433270D01*
X188515732Y-122414328D01*
X188527283Y-122392717D01*
X188557509Y-122319745D01*
X188617809Y-122229500D01*
X188617810Y-122229498D01*
X188694558Y-122152750D01*
X188784804Y-122092450D01*
X188784805Y-122092449D01*
X188885079Y-122050914D01*
X188991530Y-122029740D01*
X189100070Y-122029740D01*
X189206521Y-122050914D01*
X189306795Y-122092449D01*
X189306796Y-122092450D01*
X189397042Y-122152750D01*
X189473790Y-122229498D01*
X189473791Y-122229500D01*
X189534091Y-122319745D01*
X189565316Y-122395129D01*
X189576867Y-122416740D01*
X189592412Y-122435681D01*
X189611354Y-122451227D01*
X189632965Y-122462778D01*
X189656414Y-122469891D01*
X189680800Y-122472293D01*
X189705186Y-122469891D01*
X189728635Y-122462778D01*
X189750246Y-122451227D01*
X189769187Y-122435682D01*
X189784733Y-122416740D01*
X189796284Y-122395129D01*
X189827509Y-122319745D01*
X189887809Y-122229500D01*
X189887810Y-122229498D01*
X189964558Y-122152750D01*
X190054804Y-122092450D01*
X190054805Y-122092449D01*
X190155079Y-122050914D01*
X190261530Y-122029740D01*
X190370070Y-122029740D01*
X190476521Y-122050914D01*
X190576795Y-122092449D01*
X190576796Y-122092450D01*
X190667042Y-122152750D01*
X190743790Y-122229498D01*
X190743791Y-122229500D01*
X190804091Y-122319745D01*
X190845626Y-122420019D01*
X190866800Y-122526470D01*
X190866800Y-122635010D01*
X190845626Y-122741461D01*
X190804091Y-122841735D01*
X190804090Y-122841736D01*
X190743790Y-122931982D01*
X190667042Y-123008730D01*
X190621612Y-123039085D01*
X190576795Y-123069031D01*
X190476521Y-123110566D01*
X190370070Y-123131740D01*
X190261530Y-123131740D01*
X190155079Y-123110566D01*
X190054805Y-123069031D01*
X190009988Y-123039085D01*
X189964558Y-123008730D01*
X189887810Y-122931982D01*
X189827510Y-122841736D01*
X189827509Y-122841735D01*
X189796284Y-122766351D01*
X189784733Y-122744740D01*
X189769188Y-122725799D01*
X189750246Y-122710253D01*
X189728635Y-122698702D01*
X189705186Y-122691589D01*
X189680800Y-122689187D01*
X189656414Y-122691589D01*
X189632965Y-122698702D01*
X189611354Y-122710253D01*
X189592413Y-122725798D01*
X189576867Y-122744740D01*
X189565316Y-122766351D01*
X189534091Y-122841735D01*
X189534090Y-122841736D01*
X189473790Y-122931982D01*
X189397042Y-123008730D01*
X189351612Y-123039085D01*
X189306795Y-123069031D01*
X189206521Y-123110566D01*
X189100070Y-123131740D01*
X188991530Y-123131740D01*
X188885079Y-123110566D01*
X188784805Y-123069031D01*
X188739988Y-123039085D01*
X188694558Y-123008730D01*
X188617810Y-122931982D01*
X188557510Y-122841736D01*
X188557509Y-122841735D01*
X188527283Y-122768763D01*
X188515732Y-122747152D01*
X188500187Y-122728210D01*
X188481245Y-122712665D01*
X188459634Y-122701114D01*
X188436185Y-122694001D01*
X188411799Y-122691599D01*
X188387413Y-122694001D01*
X188363964Y-122701114D01*
X188342353Y-122712665D01*
X188323411Y-122728210D01*
X188307866Y-122747152D01*
X188296315Y-122768763D01*
X188289202Y-122792212D01*
X188286800Y-122816598D01*
X188286800Y-123131740D01*
X187184800Y-123131740D01*
X187184800Y-122029740D01*
X188286800Y-122029740D01*
X188286800Y-122344882D01*
X188286800Y-122344882D01*
G37*
G36*
X132886800Y-121344882D02*
G01*
X132889202Y-121369268D01*
X132896315Y-121392717D01*
X132907866Y-121414328D01*
X132923411Y-121433270D01*
X132942353Y-121448815D01*
X132963964Y-121460366D01*
X132987413Y-121467479D01*
X133011799Y-121469881D01*
X133036185Y-121467479D01*
X133059634Y-121460366D01*
X133081245Y-121448815D01*
X133100187Y-121433270D01*
X133115732Y-121414328D01*
X133127283Y-121392717D01*
X133157509Y-121319745D01*
X133217809Y-121229500D01*
X133217810Y-121229498D01*
X133294558Y-121152750D01*
X133384804Y-121092450D01*
X133384805Y-121092449D01*
X133485079Y-121050914D01*
X133591530Y-121029740D01*
X133700070Y-121029740D01*
X133806521Y-121050914D01*
X133906795Y-121092449D01*
X133906796Y-121092450D01*
X133997042Y-121152750D01*
X134073790Y-121229498D01*
X134073791Y-121229500D01*
X134134091Y-121319745D01*
X134165316Y-121395129D01*
X134176867Y-121416740D01*
X134192412Y-121435681D01*
X134211354Y-121451227D01*
X134232965Y-121462778D01*
X134256414Y-121469891D01*
X134280800Y-121472293D01*
X134305186Y-121469891D01*
X134328635Y-121462778D01*
X134350246Y-121451227D01*
X134369187Y-121435682D01*
X134384733Y-121416740D01*
X134396284Y-121395129D01*
X134427509Y-121319745D01*
X134487809Y-121229500D01*
X134487810Y-121229498D01*
X134564558Y-121152750D01*
X134654804Y-121092450D01*
X134654805Y-121092449D01*
X134755079Y-121050914D01*
X134861530Y-121029740D01*
X134970070Y-121029740D01*
X135076521Y-121050914D01*
X135176795Y-121092449D01*
X135176796Y-121092450D01*
X135267042Y-121152750D01*
X135343790Y-121229498D01*
X135343791Y-121229500D01*
X135404091Y-121319745D01*
X135445626Y-121420019D01*
X135466800Y-121526470D01*
X135466800Y-121635010D01*
X135445626Y-121741461D01*
X135404091Y-121841735D01*
X135404090Y-121841736D01*
X135343790Y-121931982D01*
X135267042Y-122008730D01*
X135235598Y-122029740D01*
X135176795Y-122069031D01*
X135076521Y-122110566D01*
X134970070Y-122131740D01*
X134861530Y-122131740D01*
X134755079Y-122110566D01*
X134654805Y-122069031D01*
X134596002Y-122029740D01*
X134564558Y-122008730D01*
X134487810Y-121931982D01*
X134427510Y-121841736D01*
X134427509Y-121841735D01*
X134396284Y-121766351D01*
X134384733Y-121744740D01*
X134369188Y-121725799D01*
X134350246Y-121710253D01*
X134328635Y-121698702D01*
X134305186Y-121691589D01*
X134280800Y-121689187D01*
X134256414Y-121691589D01*
X134232965Y-121698702D01*
X134211354Y-121710253D01*
X134192413Y-121725798D01*
X134176867Y-121744740D01*
X134165316Y-121766351D01*
X134134091Y-121841735D01*
X134134090Y-121841736D01*
X134073790Y-121931982D01*
X133997042Y-122008730D01*
X133965598Y-122029740D01*
X133906795Y-122069031D01*
X133806521Y-122110566D01*
X133700070Y-122131740D01*
X133591530Y-122131740D01*
X133485079Y-122110566D01*
X133384805Y-122069031D01*
X133326002Y-122029740D01*
X133294558Y-122008730D01*
X133217810Y-121931982D01*
X133157510Y-121841736D01*
X133157509Y-121841735D01*
X133127283Y-121768763D01*
X133115732Y-121747152D01*
X133100187Y-121728210D01*
X133081245Y-121712665D01*
X133059634Y-121701114D01*
X133036185Y-121694001D01*
X133011799Y-121691599D01*
X132987413Y-121694001D01*
X132963964Y-121701114D01*
X132942353Y-121712665D01*
X132923411Y-121728210D01*
X132907866Y-121747152D01*
X132896315Y-121768763D01*
X132889202Y-121792212D01*
X132886800Y-121816598D01*
X132886800Y-122131740D01*
X131784800Y-122131740D01*
X131784800Y-121029740D01*
X132886800Y-121029740D01*
X132886800Y-121344882D01*
X132886800Y-121344882D01*
G37*
G36*
X123486800Y-121344882D02*
G01*
X123489202Y-121369268D01*
X123496315Y-121392717D01*
X123507866Y-121414328D01*
X123523411Y-121433270D01*
X123542353Y-121448815D01*
X123563964Y-121460366D01*
X123587413Y-121467479D01*
X123611799Y-121469881D01*
X123636185Y-121467479D01*
X123659634Y-121460366D01*
X123681245Y-121448815D01*
X123700187Y-121433270D01*
X123715732Y-121414328D01*
X123727283Y-121392717D01*
X123757509Y-121319745D01*
X123817809Y-121229500D01*
X123817810Y-121229498D01*
X123894558Y-121152750D01*
X123984804Y-121092450D01*
X123984805Y-121092449D01*
X124085079Y-121050914D01*
X124191530Y-121029740D01*
X124300070Y-121029740D01*
X124406521Y-121050914D01*
X124506795Y-121092449D01*
X124506796Y-121092450D01*
X124597042Y-121152750D01*
X124673790Y-121229498D01*
X124673791Y-121229500D01*
X124734091Y-121319745D01*
X124765316Y-121395129D01*
X124776867Y-121416740D01*
X124792412Y-121435681D01*
X124811354Y-121451227D01*
X124832965Y-121462778D01*
X124856414Y-121469891D01*
X124880800Y-121472293D01*
X124905186Y-121469891D01*
X124928635Y-121462778D01*
X124950246Y-121451227D01*
X124969187Y-121435682D01*
X124984733Y-121416740D01*
X124996284Y-121395129D01*
X125027509Y-121319745D01*
X125087809Y-121229500D01*
X125087810Y-121229498D01*
X125164558Y-121152750D01*
X125254804Y-121092450D01*
X125254805Y-121092449D01*
X125355079Y-121050914D01*
X125461530Y-121029740D01*
X125570070Y-121029740D01*
X125676521Y-121050914D01*
X125776795Y-121092449D01*
X125776796Y-121092450D01*
X125867042Y-121152750D01*
X125943790Y-121229498D01*
X125943791Y-121229500D01*
X126004091Y-121319745D01*
X126045626Y-121420019D01*
X126066800Y-121526470D01*
X126066800Y-121635010D01*
X126045626Y-121741461D01*
X126004091Y-121841735D01*
X126004090Y-121841736D01*
X125943790Y-121931982D01*
X125867042Y-122008730D01*
X125835598Y-122029740D01*
X125776795Y-122069031D01*
X125676521Y-122110566D01*
X125570070Y-122131740D01*
X125461530Y-122131740D01*
X125355079Y-122110566D01*
X125254805Y-122069031D01*
X125196002Y-122029740D01*
X125164558Y-122008730D01*
X125087810Y-121931982D01*
X125027510Y-121841736D01*
X125027509Y-121841735D01*
X124996284Y-121766351D01*
X124984733Y-121744740D01*
X124969188Y-121725799D01*
X124950246Y-121710253D01*
X124928635Y-121698702D01*
X124905186Y-121691589D01*
X124880800Y-121689187D01*
X124856414Y-121691589D01*
X124832965Y-121698702D01*
X124811354Y-121710253D01*
X124792413Y-121725798D01*
X124776867Y-121744740D01*
X124765316Y-121766351D01*
X124734091Y-121841735D01*
X124734090Y-121841736D01*
X124673790Y-121931982D01*
X124597042Y-122008730D01*
X124565598Y-122029740D01*
X124506795Y-122069031D01*
X124406521Y-122110566D01*
X124300070Y-122131740D01*
X124191530Y-122131740D01*
X124085079Y-122110566D01*
X123984805Y-122069031D01*
X123926002Y-122029740D01*
X123894558Y-122008730D01*
X123817810Y-121931982D01*
X123757510Y-121841736D01*
X123757509Y-121841735D01*
X123727283Y-121768763D01*
X123715732Y-121747152D01*
X123700187Y-121728210D01*
X123681245Y-121712665D01*
X123659634Y-121701114D01*
X123636185Y-121694001D01*
X123611799Y-121691599D01*
X123587413Y-121694001D01*
X123563964Y-121701114D01*
X123542353Y-121712665D01*
X123523411Y-121728210D01*
X123507866Y-121747152D01*
X123496315Y-121768763D01*
X123489202Y-121792212D01*
X123486800Y-121816598D01*
X123486800Y-122131740D01*
X122384800Y-122131740D01*
X122384800Y-121029740D01*
X123486800Y-121029740D01*
X123486800Y-121344882D01*
X123486800Y-121344882D01*
G37*
G36*
X139254233Y-116890633D02*
G01*
X139344457Y-116908579D01*
X139450067Y-116952325D01*
X139599421Y-117014189D01*
X139599422Y-117014190D01*
X139828886Y-117167512D01*
X140024028Y-117362654D01*
X140092974Y-117465840D01*
X140177351Y-117592119D01*
X140227106Y-117712239D01*
X140282961Y-117847083D01*
X140300907Y-117937307D01*
X140336800Y-118117752D01*
X140336800Y-118393728D01*
X140282961Y-118664396D01*
X140177351Y-118919361D01*
X140177350Y-118919362D01*
X140024028Y-119148826D01*
X139828886Y-119343968D01*
X139675563Y-119446415D01*
X139599421Y-119497291D01*
X139450067Y-119559155D01*
X139344457Y-119602901D01*
X139254233Y-119620847D01*
X139073788Y-119656740D01*
X138797812Y-119656740D01*
X138617367Y-119620847D01*
X138527143Y-119602901D01*
X138421533Y-119559155D01*
X138272179Y-119497291D01*
X138196037Y-119446415D01*
X138042714Y-119343968D01*
X137847572Y-119148826D01*
X137694250Y-118919362D01*
X137694249Y-118919361D01*
X137588639Y-118664396D01*
X137534800Y-118393728D01*
X137534800Y-118117752D01*
X137570693Y-117937307D01*
X137588639Y-117847083D01*
X137644494Y-117712239D01*
X137694249Y-117592119D01*
X137778626Y-117465840D01*
X137847572Y-117362654D01*
X138042714Y-117167512D01*
X138272178Y-117014190D01*
X138272179Y-117014189D01*
X138421533Y-116952325D01*
X138527143Y-116908579D01*
X138617367Y-116890633D01*
X138797812Y-116854740D01*
X139073788Y-116854740D01*
X139254233Y-116890633D01*
X139254233Y-116890633D01*
G37*
G36*
X106351131Y-114408951D02*
G01*
X106678892Y-114544714D01*
X106973870Y-114741812D01*
X107224728Y-114992670D01*
X107421826Y-115287648D01*
X107557589Y-115615409D01*
X107626800Y-115963356D01*
X107626800Y-116318124D01*
X107557589Y-116666071D01*
X107421826Y-116993832D01*
X107224728Y-117288810D01*
X106973870Y-117539668D01*
X106678892Y-117736766D01*
X106351131Y-117872529D01*
X106003184Y-117941740D01*
X105648416Y-117941740D01*
X105300469Y-117872529D01*
X104972708Y-117736766D01*
X104677730Y-117539668D01*
X104426872Y-117288810D01*
X104229774Y-116993832D01*
X104094011Y-116666071D01*
X104024800Y-116318124D01*
X104024800Y-115963356D01*
X104094011Y-115615409D01*
X104229774Y-115287648D01*
X104426872Y-114992670D01*
X104677730Y-114741812D01*
X104972708Y-114544714D01*
X105300469Y-114408951D01*
X105648416Y-114339740D01*
X106003184Y-114339740D01*
X106351131Y-114408951D01*
X106351131Y-114408951D01*
G37*
G36*
X172351131Y-114408951D02*
G01*
X172678892Y-114544714D01*
X172973870Y-114741812D01*
X173224728Y-114992670D01*
X173421826Y-115287648D01*
X173557589Y-115615409D01*
X173626800Y-115963356D01*
X173626800Y-116318124D01*
X173557589Y-116666071D01*
X173421826Y-116993832D01*
X173224728Y-117288810D01*
X172973870Y-117539668D01*
X172678892Y-117736766D01*
X172351131Y-117872529D01*
X172003184Y-117941740D01*
X171648416Y-117941740D01*
X171300469Y-117872529D01*
X170972708Y-117736766D01*
X170677730Y-117539668D01*
X170426872Y-117288810D01*
X170229774Y-116993832D01*
X170094011Y-116666071D01*
X170024800Y-116318124D01*
X170024800Y-115963356D01*
X170094011Y-115615409D01*
X170229774Y-115287648D01*
X170426872Y-114992670D01*
X170677730Y-114741812D01*
X170972708Y-114544714D01*
X171300469Y-114408951D01*
X171648416Y-114339740D01*
X172003184Y-114339740D01*
X172351131Y-114408951D01*
X172351131Y-114408951D01*
G37*
G36*
X86572942Y-116298982D02*
G01*
X86720901Y-116360269D01*
X86854055Y-116449239D01*
X86967301Y-116562485D01*
X87056271Y-116695639D01*
X87117558Y-116843598D01*
X87148800Y-117000665D01*
X87148800Y-117160815D01*
X87117558Y-117317882D01*
X87056271Y-117465841D01*
X86967301Y-117598995D01*
X86854055Y-117712241D01*
X86720901Y-117801211D01*
X86572942Y-117862498D01*
X86415875Y-117893740D01*
X86255725Y-117893740D01*
X86098658Y-117862498D01*
X85950699Y-117801211D01*
X85817545Y-117712241D01*
X85704299Y-117598995D01*
X85615329Y-117465841D01*
X85554042Y-117317882D01*
X85522800Y-117160815D01*
X85522800Y-117000665D01*
X85554042Y-116843598D01*
X85615329Y-116695639D01*
X85704299Y-116562485D01*
X85817545Y-116449239D01*
X85950699Y-116360269D01*
X86098658Y-116298982D01*
X86255725Y-116267740D01*
X86415875Y-116267740D01*
X86572942Y-116298982D01*
X86572942Y-116298982D01*
G37*
G36*
X183572942Y-116298982D02*
G01*
X183720901Y-116360269D01*
X183854055Y-116449239D01*
X183967301Y-116562485D01*
X184056271Y-116695639D01*
X184117558Y-116843598D01*
X184148800Y-117000665D01*
X184148800Y-117160815D01*
X184117558Y-117317882D01*
X184056271Y-117465841D01*
X183967301Y-117598995D01*
X183854055Y-117712241D01*
X183720901Y-117801211D01*
X183572942Y-117862498D01*
X183415875Y-117893740D01*
X183255725Y-117893740D01*
X183098658Y-117862498D01*
X182950699Y-117801211D01*
X182817545Y-117712241D01*
X182704299Y-117598995D01*
X182615329Y-117465841D01*
X182554042Y-117317882D01*
X182522800Y-117160815D01*
X182522800Y-117000665D01*
X182554042Y-116843598D01*
X182615329Y-116695639D01*
X182704299Y-116562485D01*
X182817545Y-116449239D01*
X182950699Y-116360269D01*
X183098658Y-116298982D01*
X183255725Y-116267740D01*
X183415875Y-116267740D01*
X183572942Y-116298982D01*
X183572942Y-116298982D01*
G37*
G36*
X191572942Y-116298982D02*
G01*
X191720901Y-116360269D01*
X191854055Y-116449239D01*
X191967301Y-116562485D01*
X192056271Y-116695639D01*
X192117558Y-116843598D01*
X192148800Y-117000665D01*
X192148800Y-117160815D01*
X192117558Y-117317882D01*
X192056271Y-117465841D01*
X191967301Y-117598995D01*
X191854055Y-117712241D01*
X191720901Y-117801211D01*
X191572942Y-117862498D01*
X191415875Y-117893740D01*
X191255725Y-117893740D01*
X191098658Y-117862498D01*
X190950699Y-117801211D01*
X190817545Y-117712241D01*
X190704299Y-117598995D01*
X190615329Y-117465841D01*
X190554042Y-117317882D01*
X190522800Y-117160815D01*
X190522800Y-117000665D01*
X190554042Y-116843598D01*
X190615329Y-116695639D01*
X190704299Y-116562485D01*
X190817545Y-116449239D01*
X190950699Y-116360269D01*
X191098658Y-116298982D01*
X191255725Y-116267740D01*
X191415875Y-116267740D01*
X191572942Y-116298982D01*
X191572942Y-116298982D01*
G37*
G36*
X125572942Y-116298982D02*
G01*
X125720901Y-116360269D01*
X125854055Y-116449239D01*
X125967301Y-116562485D01*
X126056271Y-116695639D01*
X126117558Y-116843598D01*
X126148800Y-117000665D01*
X126148800Y-117160815D01*
X126117558Y-117317882D01*
X126056271Y-117465841D01*
X125967301Y-117598995D01*
X125854055Y-117712241D01*
X125720901Y-117801211D01*
X125572942Y-117862498D01*
X125415875Y-117893740D01*
X125255725Y-117893740D01*
X125098658Y-117862498D01*
X124950699Y-117801211D01*
X124817545Y-117712241D01*
X124704299Y-117598995D01*
X124615329Y-117465841D01*
X124554042Y-117317882D01*
X124522800Y-117160815D01*
X124522800Y-117000665D01*
X124554042Y-116843598D01*
X124615329Y-116695639D01*
X124704299Y-116562485D01*
X124817545Y-116449239D01*
X124950699Y-116360269D01*
X125098658Y-116298982D01*
X125255725Y-116267740D01*
X125415875Y-116267740D01*
X125572942Y-116298982D01*
X125572942Y-116298982D01*
G37*
G36*
X117572942Y-116298982D02*
G01*
X117720901Y-116360269D01*
X117854055Y-116449239D01*
X117967301Y-116562485D01*
X118056271Y-116695639D01*
X118117558Y-116843598D01*
X118148800Y-117000665D01*
X118148800Y-117160815D01*
X118117558Y-117317882D01*
X118056271Y-117465841D01*
X117967301Y-117598995D01*
X117854055Y-117712241D01*
X117720901Y-117801211D01*
X117572942Y-117862498D01*
X117415875Y-117893740D01*
X117255725Y-117893740D01*
X117098658Y-117862498D01*
X116950699Y-117801211D01*
X116817545Y-117712241D01*
X116704299Y-117598995D01*
X116615329Y-117465841D01*
X116554042Y-117317882D01*
X116522800Y-117160815D01*
X116522800Y-117000665D01*
X116554042Y-116843598D01*
X116615329Y-116695639D01*
X116704299Y-116562485D01*
X116817545Y-116449239D01*
X116950699Y-116360269D01*
X117098658Y-116298982D01*
X117255725Y-116267740D01*
X117415875Y-116267740D01*
X117572942Y-116298982D01*
X117572942Y-116298982D01*
G37*
G36*
X94572942Y-116298982D02*
G01*
X94720901Y-116360269D01*
X94854055Y-116449239D01*
X94967301Y-116562485D01*
X95056271Y-116695639D01*
X95117558Y-116843598D01*
X95148800Y-117000665D01*
X95148800Y-117160815D01*
X95117558Y-117317882D01*
X95056271Y-117465841D01*
X94967301Y-117598995D01*
X94854055Y-117712241D01*
X94720901Y-117801211D01*
X94572942Y-117862498D01*
X94415875Y-117893740D01*
X94255725Y-117893740D01*
X94098658Y-117862498D01*
X93950699Y-117801211D01*
X93817545Y-117712241D01*
X93704299Y-117598995D01*
X93615329Y-117465841D01*
X93554042Y-117317882D01*
X93522800Y-117160815D01*
X93522800Y-117000665D01*
X93554042Y-116843598D01*
X93615329Y-116695639D01*
X93704299Y-116562485D01*
X93817545Y-116449239D01*
X93950699Y-116360269D01*
X94098658Y-116298982D01*
X94255725Y-116267740D01*
X94415875Y-116267740D01*
X94572942Y-116298982D01*
X94572942Y-116298982D01*
G37*
G36*
X152572942Y-116298982D02*
G01*
X152720901Y-116360269D01*
X152854055Y-116449239D01*
X152967301Y-116562485D01*
X153056271Y-116695639D01*
X153117558Y-116843598D01*
X153148800Y-117000665D01*
X153148800Y-117160815D01*
X153117558Y-117317882D01*
X153056271Y-117465841D01*
X152967301Y-117598995D01*
X152854055Y-117712241D01*
X152720901Y-117801211D01*
X152572942Y-117862498D01*
X152415875Y-117893740D01*
X152255725Y-117893740D01*
X152098658Y-117862498D01*
X151950699Y-117801211D01*
X151817545Y-117712241D01*
X151704299Y-117598995D01*
X151615329Y-117465841D01*
X151554042Y-117317882D01*
X151522800Y-117160815D01*
X151522800Y-117000665D01*
X151554042Y-116843598D01*
X151615329Y-116695639D01*
X151704299Y-116562485D01*
X151817545Y-116449239D01*
X151950699Y-116360269D01*
X152098658Y-116298982D01*
X152255725Y-116267740D01*
X152415875Y-116267740D01*
X152572942Y-116298982D01*
X152572942Y-116298982D01*
G37*
G36*
X160572942Y-116298982D02*
G01*
X160720901Y-116360269D01*
X160854055Y-116449239D01*
X160967301Y-116562485D01*
X161056271Y-116695639D01*
X161117558Y-116843598D01*
X161148800Y-117000665D01*
X161148800Y-117160815D01*
X161117558Y-117317882D01*
X161056271Y-117465841D01*
X160967301Y-117598995D01*
X160854055Y-117712241D01*
X160720901Y-117801211D01*
X160572942Y-117862498D01*
X160415875Y-117893740D01*
X160255725Y-117893740D01*
X160098658Y-117862498D01*
X159950699Y-117801211D01*
X159817545Y-117712241D01*
X159704299Y-117598995D01*
X159615329Y-117465841D01*
X159554042Y-117317882D01*
X159522800Y-117160815D01*
X159522800Y-117000665D01*
X159554042Y-116843598D01*
X159615329Y-116695639D01*
X159704299Y-116562485D01*
X159817545Y-116449239D01*
X159950699Y-116360269D01*
X160098658Y-116298982D01*
X160255725Y-116267740D01*
X160415875Y-116267740D01*
X160572942Y-116298982D01*
X160572942Y-116298982D01*
G37*
G36*
X202704233Y-108890633D02*
G01*
X202794457Y-108908579D01*
X202900067Y-108952325D01*
X203049421Y-109014189D01*
X203049422Y-109014190D01*
X203278886Y-109167512D01*
X203474028Y-109362654D01*
X203576475Y-109515977D01*
X203627351Y-109592119D01*
X203732961Y-109847084D01*
X203786800Y-110117752D01*
X203786800Y-110393728D01*
X203732961Y-110664396D01*
X203627351Y-110919361D01*
X203627350Y-110919362D01*
X203474028Y-111148826D01*
X203278886Y-111343968D01*
X203125563Y-111446415D01*
X203049421Y-111497291D01*
X202900067Y-111559155D01*
X202794457Y-111602901D01*
X202704233Y-111620847D01*
X202523788Y-111656740D01*
X202247812Y-111656740D01*
X202067367Y-111620847D01*
X201977143Y-111602901D01*
X201871533Y-111559155D01*
X201722179Y-111497291D01*
X201646037Y-111446415D01*
X201492714Y-111343968D01*
X201297572Y-111148826D01*
X201144250Y-110919362D01*
X201144249Y-110919361D01*
X201038639Y-110664396D01*
X200984800Y-110393728D01*
X200984800Y-110117752D01*
X201038639Y-109847084D01*
X201144249Y-109592119D01*
X201195125Y-109515977D01*
X201297572Y-109362654D01*
X201492714Y-109167512D01*
X201722178Y-109014190D01*
X201722179Y-109014189D01*
X201871533Y-108952325D01*
X201977143Y-108908579D01*
X202067367Y-108890633D01*
X202247812Y-108854740D01*
X202523788Y-108854740D01*
X202704233Y-108890633D01*
X202704233Y-108890633D01*
G37*
G36*
X75904233Y-108890633D02*
G01*
X75994457Y-108908579D01*
X76100067Y-108952325D01*
X76249421Y-109014189D01*
X76249422Y-109014190D01*
X76478886Y-109167512D01*
X76674028Y-109362654D01*
X76776475Y-109515977D01*
X76827351Y-109592119D01*
X76932961Y-109847084D01*
X76986800Y-110117752D01*
X76986800Y-110393728D01*
X76932961Y-110664396D01*
X76827351Y-110919361D01*
X76827350Y-110919362D01*
X76674028Y-111148826D01*
X76478886Y-111343968D01*
X76325563Y-111446415D01*
X76249421Y-111497291D01*
X76100067Y-111559155D01*
X75994457Y-111602901D01*
X75904233Y-111620847D01*
X75723788Y-111656740D01*
X75447812Y-111656740D01*
X75267367Y-111620847D01*
X75177143Y-111602901D01*
X75071533Y-111559155D01*
X74922179Y-111497291D01*
X74846037Y-111446415D01*
X74692714Y-111343968D01*
X74497572Y-111148826D01*
X74344250Y-110919362D01*
X74344249Y-110919361D01*
X74238639Y-110664396D01*
X74184800Y-110393728D01*
X74184800Y-110117752D01*
X74238639Y-109847084D01*
X74344249Y-109592119D01*
X74395125Y-109515977D01*
X74497572Y-109362654D01*
X74692714Y-109167512D01*
X74922178Y-109014190D01*
X74922179Y-109014189D01*
X75071533Y-108952325D01*
X75177143Y-108908579D01*
X75267367Y-108890633D01*
X75447812Y-108854740D01*
X75723788Y-108854740D01*
X75904233Y-108890633D01*
X75904233Y-108890633D01*
G37*
G36*
X198013800Y-102741740D02*
G01*
X195711800Y-102741740D01*
X195711800Y-100439740D01*
X198013800Y-100439740D01*
X198013800Y-102741740D01*
X198013800Y-102741740D01*
G37*
G36*
X197087349Y-96651856D02*
G01*
X197198534Y-96673972D01*
X197408003Y-96760737D01*
X197596520Y-96886700D01*
X197756840Y-97047020D01*
X197882803Y-97235537D01*
X197969568Y-97445006D01*
X198013800Y-97667376D01*
X198013800Y-97894104D01*
X197969568Y-98116474D01*
X197882803Y-98325943D01*
X197756840Y-98514460D01*
X197596520Y-98674780D01*
X197408003Y-98800743D01*
X197198534Y-98887508D01*
X197087349Y-98909624D01*
X196976165Y-98931740D01*
X196749435Y-98931740D01*
X196638251Y-98909624D01*
X196527066Y-98887508D01*
X196317597Y-98800743D01*
X196129080Y-98674780D01*
X195968760Y-98514460D01*
X195842797Y-98325943D01*
X195756032Y-98116474D01*
X195711800Y-97894104D01*
X195711800Y-97667376D01*
X195756032Y-97445006D01*
X195842797Y-97235537D01*
X195968760Y-97047020D01*
X196129080Y-96886700D01*
X196317597Y-96760737D01*
X196527066Y-96673972D01*
X196638251Y-96651856D01*
X196749435Y-96629740D01*
X196976165Y-96629740D01*
X197087349Y-96651856D01*
X197087349Y-96651856D01*
G37*
G36*
X197087349Y-92841856D02*
G01*
X197198534Y-92863972D01*
X197408003Y-92950737D01*
X197596520Y-93076700D01*
X197756840Y-93237020D01*
X197882803Y-93425537D01*
X197969568Y-93635006D01*
X198013800Y-93857376D01*
X198013800Y-94084104D01*
X197969568Y-94306474D01*
X197882803Y-94515943D01*
X197756840Y-94704460D01*
X197596520Y-94864780D01*
X197408003Y-94990743D01*
X197198534Y-95077508D01*
X197087349Y-95099624D01*
X196976165Y-95121740D01*
X196749435Y-95121740D01*
X196638251Y-95099624D01*
X196527066Y-95077508D01*
X196317597Y-94990743D01*
X196129080Y-94864780D01*
X195968760Y-94704460D01*
X195842797Y-94515943D01*
X195756032Y-94306474D01*
X195711800Y-94084104D01*
X195711800Y-93857376D01*
X195756032Y-93635006D01*
X195842797Y-93425537D01*
X195968760Y-93237020D01*
X196129080Y-93076700D01*
X196317597Y-92950737D01*
X196527066Y-92863972D01*
X196638251Y-92841856D01*
X196749435Y-92819740D01*
X196976165Y-92819740D01*
X197087349Y-92841856D01*
X197087349Y-92841856D01*
G37*
G36*
X197087349Y-89031856D02*
G01*
X197198534Y-89053972D01*
X197408003Y-89140737D01*
X197596520Y-89266700D01*
X197756840Y-89427020D01*
X197882803Y-89615537D01*
X197969568Y-89825006D01*
X198013800Y-90047376D01*
X198013800Y-90274104D01*
X197969568Y-90496474D01*
X197882803Y-90705943D01*
X197756840Y-90894460D01*
X197596520Y-91054780D01*
X197408003Y-91180743D01*
X197198534Y-91267508D01*
X197087349Y-91289624D01*
X196976165Y-91311740D01*
X196749435Y-91311740D01*
X196638251Y-91289624D01*
X196527066Y-91267508D01*
X196317597Y-91180743D01*
X196129080Y-91054780D01*
X195968760Y-90894460D01*
X195842797Y-90705943D01*
X195756032Y-90496474D01*
X195711800Y-90274104D01*
X195711800Y-90047376D01*
X195756032Y-89825006D01*
X195842797Y-89615537D01*
X195968760Y-89427020D01*
X196129080Y-89266700D01*
X196317597Y-89140737D01*
X196527066Y-89053972D01*
X196638251Y-89031856D01*
X196749435Y-89009740D01*
X196976165Y-89009740D01*
X197087349Y-89031856D01*
X197087349Y-89031856D01*
G37*
G36*
X202704233Y-77890633D02*
G01*
X202794457Y-77908579D01*
X202900067Y-77952325D01*
X203049421Y-78014189D01*
X203049422Y-78014190D01*
X203278886Y-78167512D01*
X203474028Y-78362654D01*
X203576475Y-78515977D01*
X203627351Y-78592119D01*
X203732961Y-78847084D01*
X203786800Y-79117752D01*
X203786800Y-79393728D01*
X203732961Y-79664396D01*
X203627351Y-79919361D01*
X203627350Y-79919362D01*
X203474028Y-80148826D01*
X203278886Y-80343968D01*
X203125563Y-80446415D01*
X203049421Y-80497291D01*
X202900067Y-80559155D01*
X202794457Y-80602901D01*
X202704233Y-80620847D01*
X202523788Y-80656740D01*
X202247812Y-80656740D01*
X202067367Y-80620847D01*
X201977143Y-80602901D01*
X201871533Y-80559155D01*
X201722179Y-80497291D01*
X201646037Y-80446415D01*
X201492714Y-80343968D01*
X201297572Y-80148826D01*
X201144250Y-79919362D01*
X201144249Y-79919361D01*
X201038639Y-79664396D01*
X200984800Y-79393728D01*
X200984800Y-79117752D01*
X201038639Y-78847084D01*
X201144249Y-78592119D01*
X201195125Y-78515977D01*
X201297572Y-78362654D01*
X201492714Y-78167512D01*
X201722178Y-78014190D01*
X201722179Y-78014189D01*
X201871533Y-77952325D01*
X201977143Y-77908579D01*
X202067367Y-77890633D01*
X202247812Y-77854740D01*
X202523788Y-77854740D01*
X202704233Y-77890633D01*
X202704233Y-77890633D01*
G37*
G36*
X75904233Y-77890633D02*
G01*
X75994457Y-77908579D01*
X76100067Y-77952325D01*
X76249421Y-78014189D01*
X76249422Y-78014190D01*
X76478886Y-78167512D01*
X76674028Y-78362654D01*
X76776475Y-78515977D01*
X76827351Y-78592119D01*
X76932961Y-78847084D01*
X76986800Y-79117752D01*
X76986800Y-79393728D01*
X76932961Y-79664396D01*
X76827351Y-79919361D01*
X76827350Y-79919362D01*
X76674028Y-80148826D01*
X76478886Y-80343968D01*
X76325563Y-80446415D01*
X76249421Y-80497291D01*
X76100067Y-80559155D01*
X75994457Y-80602901D01*
X75904233Y-80620847D01*
X75723788Y-80656740D01*
X75447812Y-80656740D01*
X75267367Y-80620847D01*
X75177143Y-80602901D01*
X75071533Y-80559155D01*
X74922179Y-80497291D01*
X74846037Y-80446415D01*
X74692714Y-80343968D01*
X74497572Y-80148826D01*
X74344250Y-79919362D01*
X74344249Y-79919361D01*
X74238639Y-79664396D01*
X74184800Y-79393728D01*
X74184800Y-79117752D01*
X74238639Y-78847084D01*
X74344249Y-78592119D01*
X74395125Y-78515977D01*
X74497572Y-78362654D01*
X74692714Y-78167512D01*
X74922178Y-78014190D01*
X74922179Y-78014189D01*
X75071533Y-77952325D01*
X75177143Y-77908579D01*
X75267367Y-77890633D01*
X75447812Y-77854740D01*
X75723788Y-77854740D01*
X75904233Y-77890633D01*
X75904233Y-77890633D01*
G37*
G36*
X94572942Y-72298982D02*
G01*
X94720901Y-72360269D01*
X94854055Y-72449239D01*
X94967301Y-72562485D01*
X95056271Y-72695639D01*
X95117558Y-72843598D01*
X95148800Y-73000665D01*
X95148800Y-73160815D01*
X95117558Y-73317882D01*
X95056271Y-73465841D01*
X94967301Y-73598995D01*
X94854055Y-73712241D01*
X94720901Y-73801211D01*
X94572942Y-73862498D01*
X94415875Y-73893740D01*
X94255725Y-73893740D01*
X94098658Y-73862498D01*
X93950699Y-73801211D01*
X93817545Y-73712241D01*
X93704299Y-73598995D01*
X93615329Y-73465841D01*
X93554042Y-73317882D01*
X93522800Y-73160815D01*
X93522800Y-73000665D01*
X93554042Y-72843598D01*
X93615329Y-72695639D01*
X93704299Y-72562485D01*
X93817545Y-72449239D01*
X93950699Y-72360269D01*
X94098658Y-72298982D01*
X94255725Y-72267740D01*
X94415875Y-72267740D01*
X94572942Y-72298982D01*
X94572942Y-72298982D01*
G37*
G36*
X191572942Y-72298982D02*
G01*
X191720901Y-72360269D01*
X191854055Y-72449239D01*
X191967301Y-72562485D01*
X192056271Y-72695639D01*
X192117558Y-72843598D01*
X192148800Y-73000665D01*
X192148800Y-73160815D01*
X192117558Y-73317882D01*
X192056271Y-73465841D01*
X191967301Y-73598995D01*
X191854055Y-73712241D01*
X191720901Y-73801211D01*
X191572942Y-73862498D01*
X191415875Y-73893740D01*
X191255725Y-73893740D01*
X191098658Y-73862498D01*
X190950699Y-73801211D01*
X190817545Y-73712241D01*
X190704299Y-73598995D01*
X190615329Y-73465841D01*
X190554042Y-73317882D01*
X190522800Y-73160815D01*
X190522800Y-73000665D01*
X190554042Y-72843598D01*
X190615329Y-72695639D01*
X190704299Y-72562485D01*
X190817545Y-72449239D01*
X190950699Y-72360269D01*
X191098658Y-72298982D01*
X191255725Y-72267740D01*
X191415875Y-72267740D01*
X191572942Y-72298982D01*
X191572942Y-72298982D01*
G37*
G36*
X183572942Y-72298982D02*
G01*
X183720901Y-72360269D01*
X183854055Y-72449239D01*
X183967301Y-72562485D01*
X184056271Y-72695639D01*
X184117558Y-72843598D01*
X184148800Y-73000665D01*
X184148800Y-73160815D01*
X184117558Y-73317882D01*
X184056271Y-73465841D01*
X183967301Y-73598995D01*
X183854055Y-73712241D01*
X183720901Y-73801211D01*
X183572942Y-73862498D01*
X183415875Y-73893740D01*
X183255725Y-73893740D01*
X183098658Y-73862498D01*
X182950699Y-73801211D01*
X182817545Y-73712241D01*
X182704299Y-73598995D01*
X182615329Y-73465841D01*
X182554042Y-73317882D01*
X182522800Y-73160815D01*
X182522800Y-73000665D01*
X182554042Y-72843598D01*
X182615329Y-72695639D01*
X182704299Y-72562485D01*
X182817545Y-72449239D01*
X182950699Y-72360269D01*
X183098658Y-72298982D01*
X183255725Y-72267740D01*
X183415875Y-72267740D01*
X183572942Y-72298982D01*
X183572942Y-72298982D01*
G37*
G36*
X160572942Y-72298982D02*
G01*
X160720901Y-72360269D01*
X160854055Y-72449239D01*
X160967301Y-72562485D01*
X161056271Y-72695639D01*
X161117558Y-72843598D01*
X161148800Y-73000665D01*
X161148800Y-73160815D01*
X161117558Y-73317882D01*
X161056271Y-73465841D01*
X160967301Y-73598995D01*
X160854055Y-73712241D01*
X160720901Y-73801211D01*
X160572942Y-73862498D01*
X160415875Y-73893740D01*
X160255725Y-73893740D01*
X160098658Y-73862498D01*
X159950699Y-73801211D01*
X159817545Y-73712241D01*
X159704299Y-73598995D01*
X159615329Y-73465841D01*
X159554042Y-73317882D01*
X159522800Y-73160815D01*
X159522800Y-73000665D01*
X159554042Y-72843598D01*
X159615329Y-72695639D01*
X159704299Y-72562485D01*
X159817545Y-72449239D01*
X159950699Y-72360269D01*
X160098658Y-72298982D01*
X160255725Y-72267740D01*
X160415875Y-72267740D01*
X160572942Y-72298982D01*
X160572942Y-72298982D01*
G37*
G36*
X152572942Y-72298982D02*
G01*
X152720901Y-72360269D01*
X152854055Y-72449239D01*
X152967301Y-72562485D01*
X153056271Y-72695639D01*
X153117558Y-72843598D01*
X153148800Y-73000665D01*
X153148800Y-73160815D01*
X153117558Y-73317882D01*
X153056271Y-73465841D01*
X152967301Y-73598995D01*
X152854055Y-73712241D01*
X152720901Y-73801211D01*
X152572942Y-73862498D01*
X152415875Y-73893740D01*
X152255725Y-73893740D01*
X152098658Y-73862498D01*
X151950699Y-73801211D01*
X151817545Y-73712241D01*
X151704299Y-73598995D01*
X151615329Y-73465841D01*
X151554042Y-73317882D01*
X151522800Y-73160815D01*
X151522800Y-73000665D01*
X151554042Y-72843598D01*
X151615329Y-72695639D01*
X151704299Y-72562485D01*
X151817545Y-72449239D01*
X151950699Y-72360269D01*
X152098658Y-72298982D01*
X152255725Y-72267740D01*
X152415875Y-72267740D01*
X152572942Y-72298982D01*
X152572942Y-72298982D01*
G37*
G36*
X117572942Y-72298982D02*
G01*
X117720901Y-72360269D01*
X117854055Y-72449239D01*
X117967301Y-72562485D01*
X118056271Y-72695639D01*
X118117558Y-72843598D01*
X118148800Y-73000665D01*
X118148800Y-73160815D01*
X118117558Y-73317882D01*
X118056271Y-73465841D01*
X117967301Y-73598995D01*
X117854055Y-73712241D01*
X117720901Y-73801211D01*
X117572942Y-73862498D01*
X117415875Y-73893740D01*
X117255725Y-73893740D01*
X117098658Y-73862498D01*
X116950699Y-73801211D01*
X116817545Y-73712241D01*
X116704299Y-73598995D01*
X116615329Y-73465841D01*
X116554042Y-73317882D01*
X116522800Y-73160815D01*
X116522800Y-73000665D01*
X116554042Y-72843598D01*
X116615329Y-72695639D01*
X116704299Y-72562485D01*
X116817545Y-72449239D01*
X116950699Y-72360269D01*
X117098658Y-72298982D01*
X117255725Y-72267740D01*
X117415875Y-72267740D01*
X117572942Y-72298982D01*
X117572942Y-72298982D01*
G37*
G36*
X86572942Y-72298982D02*
G01*
X86720901Y-72360269D01*
X86854055Y-72449239D01*
X86967301Y-72562485D01*
X87056271Y-72695639D01*
X87117558Y-72843598D01*
X87148800Y-73000665D01*
X87148800Y-73160815D01*
X87117558Y-73317882D01*
X87056271Y-73465841D01*
X86967301Y-73598995D01*
X86854055Y-73712241D01*
X86720901Y-73801211D01*
X86572942Y-73862498D01*
X86415875Y-73893740D01*
X86255725Y-73893740D01*
X86098658Y-73862498D01*
X85950699Y-73801211D01*
X85817545Y-73712241D01*
X85704299Y-73598995D01*
X85615329Y-73465841D01*
X85554042Y-73317882D01*
X85522800Y-73160815D01*
X85522800Y-73000665D01*
X85554042Y-72843598D01*
X85615329Y-72695639D01*
X85704299Y-72562485D01*
X85817545Y-72449239D01*
X85950699Y-72360269D01*
X86098658Y-72298982D01*
X86255725Y-72267740D01*
X86415875Y-72267740D01*
X86572942Y-72298982D01*
X86572942Y-72298982D01*
G37*
G36*
X125572942Y-72298982D02*
G01*
X125720901Y-72360269D01*
X125854055Y-72449239D01*
X125967301Y-72562485D01*
X126056271Y-72695639D01*
X126117558Y-72843598D01*
X126148800Y-73000665D01*
X126148800Y-73160815D01*
X126117558Y-73317882D01*
X126056271Y-73465841D01*
X125967301Y-73598995D01*
X125854055Y-73712241D01*
X125720901Y-73801211D01*
X125572942Y-73862498D01*
X125415875Y-73893740D01*
X125255725Y-73893740D01*
X125098658Y-73862498D01*
X124950699Y-73801211D01*
X124817545Y-73712241D01*
X124704299Y-73598995D01*
X124615329Y-73465841D01*
X124554042Y-73317882D01*
X124522800Y-73160815D01*
X124522800Y-73000665D01*
X124554042Y-72843598D01*
X124615329Y-72695639D01*
X124704299Y-72562485D01*
X124817545Y-72449239D01*
X124950699Y-72360269D01*
X125098658Y-72298982D01*
X125255725Y-72267740D01*
X125415875Y-72267740D01*
X125572942Y-72298982D01*
X125572942Y-72298982D01*
G37*
G36*
X197351131Y-69408951D02*
G01*
X197678892Y-69544714D01*
X197973870Y-69741812D01*
X198224728Y-69992670D01*
X198421826Y-70287648D01*
X198557589Y-70615409D01*
X198626800Y-70963356D01*
X198626800Y-71318124D01*
X198557589Y-71666071D01*
X198421826Y-71993832D01*
X198224728Y-72288810D01*
X197973870Y-72539668D01*
X197678892Y-72736766D01*
X197351131Y-72872529D01*
X197003184Y-72941740D01*
X196648416Y-72941740D01*
X196300469Y-72872529D01*
X195972708Y-72736766D01*
X195677730Y-72539668D01*
X195426872Y-72288810D01*
X195229774Y-71993832D01*
X195094011Y-71666071D01*
X195024800Y-71318124D01*
X195024800Y-70963356D01*
X195094011Y-70615409D01*
X195229774Y-70287648D01*
X195426872Y-69992670D01*
X195677730Y-69741812D01*
X195972708Y-69544714D01*
X196300469Y-69408951D01*
X196648416Y-69339740D01*
X197003184Y-69339740D01*
X197351131Y-69408951D01*
X197351131Y-69408951D01*
G37*
G36*
X81351131Y-69408951D02*
G01*
X81678892Y-69544714D01*
X81973870Y-69741812D01*
X82224728Y-69992670D01*
X82421826Y-70287648D01*
X82557589Y-70615409D01*
X82626800Y-70963356D01*
X82626800Y-71318124D01*
X82557589Y-71666071D01*
X82421826Y-71993832D01*
X82224728Y-72288810D01*
X81973870Y-72539668D01*
X81678892Y-72736766D01*
X81351131Y-72872529D01*
X81003184Y-72941740D01*
X80648416Y-72941740D01*
X80300469Y-72872529D01*
X79972708Y-72736766D01*
X79677730Y-72539668D01*
X79426872Y-72288810D01*
X79229774Y-71993832D01*
X79094011Y-71666071D01*
X79024800Y-71318124D01*
X79024800Y-70963356D01*
X79094011Y-70615409D01*
X79229774Y-70287648D01*
X79426872Y-69992670D01*
X79677730Y-69741812D01*
X79972708Y-69544714D01*
X80300469Y-69408951D01*
X80648416Y-69339740D01*
X81003184Y-69339740D01*
X81351131Y-69408951D01*
X81351131Y-69408951D01*
G37*
G36*
X147351131Y-69408951D02*
G01*
X147678892Y-69544714D01*
X147973870Y-69741812D01*
X148224728Y-69992670D01*
X148421826Y-70287648D01*
X148557589Y-70615409D01*
X148626800Y-70963356D01*
X148626800Y-71318124D01*
X148557589Y-71666071D01*
X148421826Y-71993832D01*
X148224728Y-72288810D01*
X147973870Y-72539668D01*
X147678892Y-72736766D01*
X147351131Y-72872529D01*
X147003184Y-72941740D01*
X146648416Y-72941740D01*
X146300469Y-72872529D01*
X145972708Y-72736766D01*
X145677730Y-72539668D01*
X145426872Y-72288810D01*
X145229774Y-71993832D01*
X145094011Y-71666071D01*
X145024800Y-71318124D01*
X145024800Y-70963356D01*
X145094011Y-70615409D01*
X145229774Y-70287648D01*
X145426872Y-69992670D01*
X145677730Y-69741812D01*
X145972708Y-69544714D01*
X146300469Y-69408951D01*
X146648416Y-69339740D01*
X147003184Y-69339740D01*
X147351131Y-69408951D01*
X147351131Y-69408951D01*
G37*
G36*
X131351131Y-69408951D02*
G01*
X131678892Y-69544714D01*
X131973870Y-69741812D01*
X132224728Y-69992670D01*
X132421826Y-70287648D01*
X132557589Y-70615409D01*
X132626800Y-70963356D01*
X132626800Y-71318124D01*
X132557589Y-71666071D01*
X132421826Y-71993832D01*
X132224728Y-72288810D01*
X131973870Y-72539668D01*
X131678892Y-72736766D01*
X131351131Y-72872529D01*
X131003184Y-72941740D01*
X130648416Y-72941740D01*
X130300469Y-72872529D01*
X129972708Y-72736766D01*
X129677730Y-72539668D01*
X129426872Y-72288810D01*
X129229774Y-71993832D01*
X129094011Y-71666071D01*
X129024800Y-71318124D01*
X129024800Y-70963356D01*
X129094011Y-70615409D01*
X129229774Y-70287648D01*
X129426872Y-69992670D01*
X129677730Y-69741812D01*
X129972708Y-69544714D01*
X130300469Y-69408951D01*
X130648416Y-69339740D01*
X131003184Y-69339740D01*
X131351131Y-69408951D01*
X131351131Y-69408951D01*
G37*
G36*
X139254233Y-69665633D02*
G01*
X139344457Y-69683579D01*
X139450067Y-69727325D01*
X139599421Y-69789189D01*
X139599422Y-69789190D01*
X139828886Y-69942512D01*
X140024028Y-70137654D01*
X140124250Y-70287648D01*
X140177351Y-70367119D01*
X140239215Y-70516473D01*
X140280197Y-70615409D01*
X140282961Y-70622084D01*
X140336800Y-70892752D01*
X140336800Y-71168728D01*
X140282961Y-71439396D01*
X140177351Y-71694361D01*
X140177350Y-71694362D01*
X140024028Y-71923826D01*
X139828886Y-72118968D01*
X139675563Y-72221415D01*
X139599421Y-72272291D01*
X139450067Y-72334155D01*
X139344457Y-72377901D01*
X139254233Y-72395847D01*
X139073788Y-72431740D01*
X138797812Y-72431740D01*
X138617367Y-72395847D01*
X138527143Y-72377901D01*
X138421533Y-72334155D01*
X138272179Y-72272291D01*
X138196037Y-72221415D01*
X138042714Y-72118968D01*
X137847572Y-71923826D01*
X137694250Y-71694362D01*
X137694249Y-71694361D01*
X137588639Y-71439396D01*
X137534800Y-71168728D01*
X137534800Y-70892752D01*
X137588639Y-70622084D01*
X137591404Y-70615409D01*
X137632385Y-70516473D01*
X137694249Y-70367119D01*
X137747350Y-70287648D01*
X137847572Y-70137654D01*
X138042714Y-69942512D01*
X138272178Y-69789190D01*
X138272179Y-69789189D01*
X138421533Y-69727325D01*
X138527143Y-69683579D01*
X138617367Y-69665633D01*
X138797812Y-69629740D01*
X139073788Y-69629740D01*
X139254233Y-69665633D01*
X139254233Y-69665633D01*
G37*
G36*
X188086800Y-66969882D02*
G01*
X188089202Y-66994268D01*
X188096315Y-67017717D01*
X188107866Y-67039328D01*
X188123411Y-67058270D01*
X188142353Y-67073815D01*
X188163964Y-67085366D01*
X188187413Y-67092479D01*
X188211799Y-67094881D01*
X188236185Y-67092479D01*
X188259634Y-67085366D01*
X188281245Y-67073815D01*
X188300187Y-67058270D01*
X188315732Y-67039328D01*
X188327283Y-67017717D01*
X188357509Y-66944745D01*
X188417809Y-66854500D01*
X188417810Y-66854498D01*
X188494558Y-66777750D01*
X188584804Y-66717450D01*
X188584805Y-66717449D01*
X188685079Y-66675914D01*
X188791530Y-66654740D01*
X188900070Y-66654740D01*
X189006521Y-66675914D01*
X189106795Y-66717449D01*
X189106796Y-66717450D01*
X189197042Y-66777750D01*
X189273790Y-66854498D01*
X189273791Y-66854500D01*
X189334091Y-66944745D01*
X189365316Y-67020129D01*
X189376867Y-67041740D01*
X189392412Y-67060681D01*
X189411354Y-67076227D01*
X189432965Y-67087778D01*
X189456414Y-67094891D01*
X189480800Y-67097293D01*
X189505186Y-67094891D01*
X189528635Y-67087778D01*
X189550246Y-67076227D01*
X189569187Y-67060682D01*
X189584733Y-67041740D01*
X189596284Y-67020129D01*
X189627509Y-66944745D01*
X189687809Y-66854500D01*
X189687810Y-66854498D01*
X189764558Y-66777750D01*
X189854804Y-66717450D01*
X189854805Y-66717449D01*
X189955079Y-66675914D01*
X190061530Y-66654740D01*
X190170070Y-66654740D01*
X190276521Y-66675914D01*
X190376795Y-66717449D01*
X190376796Y-66717450D01*
X190467042Y-66777750D01*
X190543790Y-66854498D01*
X190543791Y-66854500D01*
X190604091Y-66944745D01*
X190645626Y-67045019D01*
X190666800Y-67151470D01*
X190666800Y-67260010D01*
X190645626Y-67366461D01*
X190604091Y-67466735D01*
X190604090Y-67466736D01*
X190543790Y-67556982D01*
X190467042Y-67633730D01*
X190451627Y-67644030D01*
X190376795Y-67694031D01*
X190276521Y-67735566D01*
X190170070Y-67756740D01*
X190061530Y-67756740D01*
X189955079Y-67735566D01*
X189854805Y-67694031D01*
X189779973Y-67644030D01*
X189764558Y-67633730D01*
X189687810Y-67556982D01*
X189627510Y-67466736D01*
X189627509Y-67466735D01*
X189596284Y-67391351D01*
X189584733Y-67369740D01*
X189569188Y-67350799D01*
X189550246Y-67335253D01*
X189528635Y-67323702D01*
X189505186Y-67316589D01*
X189480800Y-67314187D01*
X189456414Y-67316589D01*
X189432965Y-67323702D01*
X189411354Y-67335253D01*
X189392413Y-67350798D01*
X189376867Y-67369740D01*
X189365316Y-67391351D01*
X189334091Y-67466735D01*
X189334090Y-67466736D01*
X189273790Y-67556982D01*
X189197042Y-67633730D01*
X189181627Y-67644030D01*
X189106795Y-67694031D01*
X189006521Y-67735566D01*
X188900070Y-67756740D01*
X188791530Y-67756740D01*
X188685079Y-67735566D01*
X188584805Y-67694031D01*
X188509973Y-67644030D01*
X188494558Y-67633730D01*
X188417810Y-67556982D01*
X188357510Y-67466736D01*
X188357509Y-67466735D01*
X188327283Y-67393763D01*
X188315732Y-67372152D01*
X188300187Y-67353210D01*
X188281245Y-67337665D01*
X188259634Y-67326114D01*
X188236185Y-67319001D01*
X188211799Y-67316599D01*
X188187413Y-67319001D01*
X188163964Y-67326114D01*
X188142353Y-67337665D01*
X188123411Y-67353210D01*
X188107866Y-67372152D01*
X188096315Y-67393763D01*
X188089202Y-67417212D01*
X188086800Y-67441598D01*
X188086800Y-67756740D01*
X186984800Y-67756740D01*
X186984800Y-66654740D01*
X188086800Y-66654740D01*
X188086800Y-66969882D01*
X188086800Y-66969882D01*
G37*
G36*
X198861800Y-66944882D02*
G01*
X198864202Y-66969268D01*
X198871315Y-66992717D01*
X198882866Y-67014328D01*
X198898411Y-67033270D01*
X198917353Y-67048815D01*
X198938964Y-67060366D01*
X198962413Y-67067479D01*
X198986799Y-67069881D01*
X199011185Y-67067479D01*
X199034634Y-67060366D01*
X199056245Y-67048815D01*
X199075187Y-67033270D01*
X199090732Y-67014328D01*
X199102283Y-66992717D01*
X199132509Y-66919745D01*
X199192809Y-66829500D01*
X199192810Y-66829498D01*
X199269558Y-66752750D01*
X199314988Y-66722395D01*
X199359805Y-66692449D01*
X199460079Y-66650914D01*
X199566530Y-66629740D01*
X199675070Y-66629740D01*
X199781521Y-66650914D01*
X199881795Y-66692449D01*
X199926612Y-66722395D01*
X199972042Y-66752750D01*
X200048790Y-66829498D01*
X200048791Y-66829500D01*
X200109091Y-66919745D01*
X200140316Y-66995129D01*
X200151867Y-67016740D01*
X200167412Y-67035681D01*
X200186354Y-67051227D01*
X200207965Y-67062778D01*
X200231414Y-67069891D01*
X200255800Y-67072293D01*
X200280186Y-67069891D01*
X200303635Y-67062778D01*
X200325246Y-67051227D01*
X200344187Y-67035682D01*
X200359733Y-67016740D01*
X200371284Y-66995129D01*
X200402509Y-66919745D01*
X200462809Y-66829500D01*
X200462810Y-66829498D01*
X200539558Y-66752750D01*
X200584988Y-66722395D01*
X200629805Y-66692449D01*
X200730079Y-66650914D01*
X200836530Y-66629740D01*
X200945070Y-66629740D01*
X201051521Y-66650914D01*
X201151795Y-66692449D01*
X201196612Y-66722395D01*
X201242042Y-66752750D01*
X201318790Y-66829498D01*
X201318791Y-66829500D01*
X201379091Y-66919745D01*
X201420626Y-67020019D01*
X201441800Y-67126470D01*
X201441800Y-67235010D01*
X201420626Y-67341461D01*
X201379091Y-67441735D01*
X201379090Y-67441736D01*
X201318790Y-67531982D01*
X201242042Y-67608730D01*
X201204625Y-67633731D01*
X201151795Y-67669031D01*
X201051521Y-67710566D01*
X200945070Y-67731740D01*
X200836530Y-67731740D01*
X200730079Y-67710566D01*
X200629805Y-67669031D01*
X200576975Y-67633731D01*
X200539558Y-67608730D01*
X200462810Y-67531982D01*
X200402510Y-67441736D01*
X200402509Y-67441735D01*
X200371284Y-67366351D01*
X200359733Y-67344740D01*
X200344188Y-67325799D01*
X200325246Y-67310253D01*
X200303635Y-67298702D01*
X200280186Y-67291589D01*
X200255800Y-67289187D01*
X200231414Y-67291589D01*
X200207965Y-67298702D01*
X200186354Y-67310253D01*
X200167413Y-67325798D01*
X200151867Y-67344740D01*
X200140316Y-67366351D01*
X200109091Y-67441735D01*
X200109090Y-67441736D01*
X200048790Y-67531982D01*
X199972042Y-67608730D01*
X199934625Y-67633731D01*
X199881795Y-67669031D01*
X199781521Y-67710566D01*
X199675070Y-67731740D01*
X199566530Y-67731740D01*
X199460079Y-67710566D01*
X199359805Y-67669031D01*
X199306975Y-67633731D01*
X199269558Y-67608730D01*
X199192810Y-67531982D01*
X199132510Y-67441736D01*
X199132509Y-67441735D01*
X199102283Y-67368763D01*
X199090732Y-67347152D01*
X199075187Y-67328210D01*
X199056245Y-67312665D01*
X199034634Y-67301114D01*
X199011185Y-67294001D01*
X198986799Y-67291599D01*
X198962413Y-67294001D01*
X198938964Y-67301114D01*
X198917353Y-67312665D01*
X198898411Y-67328210D01*
X198882866Y-67347152D01*
X198871315Y-67368763D01*
X198864202Y-67392212D01*
X198861800Y-67416598D01*
X198861800Y-67731740D01*
X197759800Y-67731740D01*
X197759800Y-66629740D01*
X198861800Y-66629740D01*
X198861800Y-66944882D01*
X198861800Y-66944882D01*
G37*
G36*
X133061800Y-66919882D02*
G01*
X133064202Y-66944268D01*
X133071315Y-66967717D01*
X133082866Y-66989328D01*
X133098411Y-67008270D01*
X133117353Y-67023815D01*
X133138964Y-67035366D01*
X133162413Y-67042479D01*
X133186799Y-67044881D01*
X133211185Y-67042479D01*
X133234634Y-67035366D01*
X133256245Y-67023815D01*
X133275187Y-67008270D01*
X133290732Y-66989328D01*
X133302283Y-66967717D01*
X133332509Y-66894745D01*
X133392809Y-66804500D01*
X133392810Y-66804498D01*
X133469558Y-66727750D01*
X133514988Y-66697395D01*
X133559805Y-66667449D01*
X133660079Y-66625914D01*
X133766530Y-66604740D01*
X133875070Y-66604740D01*
X133981521Y-66625914D01*
X134081795Y-66667449D01*
X134126612Y-66697395D01*
X134172042Y-66727750D01*
X134248790Y-66804498D01*
X134248791Y-66804500D01*
X134309091Y-66894745D01*
X134340316Y-66970129D01*
X134351867Y-66991740D01*
X134367412Y-67010681D01*
X134386354Y-67026227D01*
X134407965Y-67037778D01*
X134431414Y-67044891D01*
X134455800Y-67047293D01*
X134480186Y-67044891D01*
X134503635Y-67037778D01*
X134525246Y-67026227D01*
X134544187Y-67010682D01*
X134559733Y-66991740D01*
X134571284Y-66970129D01*
X134602509Y-66894745D01*
X134662809Y-66804500D01*
X134662810Y-66804498D01*
X134739558Y-66727750D01*
X134784988Y-66697395D01*
X134829805Y-66667449D01*
X134930079Y-66625914D01*
X135036530Y-66604740D01*
X135145070Y-66604740D01*
X135251521Y-66625914D01*
X135351795Y-66667449D01*
X135396612Y-66697395D01*
X135442042Y-66727750D01*
X135518790Y-66804498D01*
X135518791Y-66804500D01*
X135579091Y-66894745D01*
X135620626Y-66995019D01*
X135641800Y-67101470D01*
X135641800Y-67210010D01*
X135620626Y-67316461D01*
X135579091Y-67416735D01*
X135579090Y-67416736D01*
X135518790Y-67506982D01*
X135442042Y-67583730D01*
X135404625Y-67608731D01*
X135351795Y-67644031D01*
X135251521Y-67685566D01*
X135145070Y-67706740D01*
X135036530Y-67706740D01*
X134930079Y-67685566D01*
X134829805Y-67644031D01*
X134776975Y-67608731D01*
X134739558Y-67583730D01*
X134662810Y-67506982D01*
X134602510Y-67416736D01*
X134602509Y-67416735D01*
X134571284Y-67341351D01*
X134559733Y-67319740D01*
X134544188Y-67300799D01*
X134525246Y-67285253D01*
X134503635Y-67273702D01*
X134480186Y-67266589D01*
X134455800Y-67264187D01*
X134431414Y-67266589D01*
X134407965Y-67273702D01*
X134386354Y-67285253D01*
X134367413Y-67300798D01*
X134351867Y-67319740D01*
X134340316Y-67341351D01*
X134309091Y-67416735D01*
X134309090Y-67416736D01*
X134248790Y-67506982D01*
X134172042Y-67583730D01*
X134134625Y-67608731D01*
X134081795Y-67644031D01*
X133981521Y-67685566D01*
X133875070Y-67706740D01*
X133766530Y-67706740D01*
X133660079Y-67685566D01*
X133559805Y-67644031D01*
X133506975Y-67608731D01*
X133469558Y-67583730D01*
X133392810Y-67506982D01*
X133332510Y-67416736D01*
X133332509Y-67416735D01*
X133302283Y-67343763D01*
X133290732Y-67322152D01*
X133275187Y-67303210D01*
X133256245Y-67287665D01*
X133234634Y-67276114D01*
X133211185Y-67269001D01*
X133186799Y-67266599D01*
X133162413Y-67269001D01*
X133138964Y-67276114D01*
X133117353Y-67287665D01*
X133098411Y-67303210D01*
X133082866Y-67322152D01*
X133071315Y-67343763D01*
X133064202Y-67367212D01*
X133061800Y-67391598D01*
X133061800Y-67706740D01*
X131959800Y-67706740D01*
X131959800Y-66604740D01*
X133061800Y-66604740D01*
X133061800Y-66919882D01*
X133061800Y-66919882D01*
G37*
G36*
X122786800Y-66919882D02*
G01*
X122789202Y-66944268D01*
X122796315Y-66967717D01*
X122807866Y-66989328D01*
X122823411Y-67008270D01*
X122842353Y-67023815D01*
X122863964Y-67035366D01*
X122887413Y-67042479D01*
X122911799Y-67044881D01*
X122936185Y-67042479D01*
X122959634Y-67035366D01*
X122981245Y-67023815D01*
X123000187Y-67008270D01*
X123015732Y-66989328D01*
X123027283Y-66967717D01*
X123057509Y-66894745D01*
X123117809Y-66804500D01*
X123117810Y-66804498D01*
X123194558Y-66727750D01*
X123239988Y-66697395D01*
X123284805Y-66667449D01*
X123385079Y-66625914D01*
X123491530Y-66604740D01*
X123600070Y-66604740D01*
X123706521Y-66625914D01*
X123806795Y-66667449D01*
X123851612Y-66697395D01*
X123897042Y-66727750D01*
X123973790Y-66804498D01*
X123973791Y-66804500D01*
X124034091Y-66894745D01*
X124065316Y-66970129D01*
X124076867Y-66991740D01*
X124092412Y-67010681D01*
X124111354Y-67026227D01*
X124132965Y-67037778D01*
X124156414Y-67044891D01*
X124180800Y-67047293D01*
X124205186Y-67044891D01*
X124228635Y-67037778D01*
X124250246Y-67026227D01*
X124269187Y-67010682D01*
X124284733Y-66991740D01*
X124296284Y-66970129D01*
X124327509Y-66894745D01*
X124387809Y-66804500D01*
X124387810Y-66804498D01*
X124464558Y-66727750D01*
X124509988Y-66697395D01*
X124554805Y-66667449D01*
X124655079Y-66625914D01*
X124761530Y-66604740D01*
X124870070Y-66604740D01*
X124976521Y-66625914D01*
X125076795Y-66667449D01*
X125121612Y-66697395D01*
X125167042Y-66727750D01*
X125243790Y-66804498D01*
X125243791Y-66804500D01*
X125304091Y-66894745D01*
X125345626Y-66995019D01*
X125366800Y-67101470D01*
X125366800Y-67210010D01*
X125345626Y-67316461D01*
X125304091Y-67416735D01*
X125304090Y-67416736D01*
X125243790Y-67506982D01*
X125167042Y-67583730D01*
X125129625Y-67608731D01*
X125076795Y-67644031D01*
X124976521Y-67685566D01*
X124870070Y-67706740D01*
X124761530Y-67706740D01*
X124655079Y-67685566D01*
X124554805Y-67644031D01*
X124501975Y-67608731D01*
X124464558Y-67583730D01*
X124387810Y-67506982D01*
X124327510Y-67416736D01*
X124327509Y-67416735D01*
X124296284Y-67341351D01*
X124284733Y-67319740D01*
X124269188Y-67300799D01*
X124250246Y-67285253D01*
X124228635Y-67273702D01*
X124205186Y-67266589D01*
X124180800Y-67264187D01*
X124156414Y-67266589D01*
X124132965Y-67273702D01*
X124111354Y-67285253D01*
X124092413Y-67300798D01*
X124076867Y-67319740D01*
X124065316Y-67341351D01*
X124034091Y-67416735D01*
X124034090Y-67416736D01*
X123973790Y-67506982D01*
X123897042Y-67583730D01*
X123859625Y-67608731D01*
X123806795Y-67644031D01*
X123706521Y-67685566D01*
X123600070Y-67706740D01*
X123491530Y-67706740D01*
X123385079Y-67685566D01*
X123284805Y-67644031D01*
X123231975Y-67608731D01*
X123194558Y-67583730D01*
X123117810Y-67506982D01*
X123057510Y-67416736D01*
X123057509Y-67416735D01*
X123027283Y-67343763D01*
X123015732Y-67322152D01*
X123000187Y-67303210D01*
X122981245Y-67287665D01*
X122959634Y-67276114D01*
X122936185Y-67269001D01*
X122911799Y-67266599D01*
X122887413Y-67269001D01*
X122863964Y-67276114D01*
X122842353Y-67287665D01*
X122823411Y-67303210D01*
X122807866Y-67322152D01*
X122796315Y-67343763D01*
X122789202Y-67367212D01*
X122786800Y-67391598D01*
X122786800Y-67706740D01*
X121684800Y-67706740D01*
X121684800Y-66604740D01*
X122786800Y-66604740D01*
X122786800Y-66919882D01*
X122786800Y-66919882D01*
G37*
G36*
X200786800Y-65281740D02*
G01*
X200184800Y-65281740D01*
X200184800Y-64279740D01*
X200786800Y-64279740D01*
X200786800Y-65281740D01*
X200786800Y-65281740D01*
G37*
G36*
X199286800Y-65281740D02*
G01*
X198684800Y-65281740D01*
X198684800Y-64279740D01*
X199286800Y-64279740D01*
X199286800Y-65281740D01*
X199286800Y-65281740D01*
G37*
G36*
X188886800Y-64881740D02*
G01*
X188284800Y-64881740D01*
X188284800Y-63879740D01*
X188886800Y-63879740D01*
X188886800Y-64881740D01*
X188886800Y-64881740D01*
G37*
G36*
X190386800Y-64881740D02*
G01*
X189784800Y-64881740D01*
X189784800Y-63879740D01*
X190386800Y-63879740D01*
X190386800Y-64881740D01*
X190386800Y-64881740D01*
G37*
G36*
X134786800Y-64881740D02*
G01*
X134184800Y-64881740D01*
X134184800Y-63879740D01*
X134786800Y-63879740D01*
X134786800Y-64881740D01*
X134786800Y-64881740D01*
G37*
G36*
X133286800Y-64881740D02*
G01*
X132684800Y-64881740D01*
X132684800Y-63879740D01*
X133286800Y-63879740D01*
X133286800Y-64881740D01*
X133286800Y-64881740D01*
G37*
G36*
X123486800Y-64856740D02*
G01*
X122884800Y-64856740D01*
X122884800Y-63854740D01*
X123486800Y-63854740D01*
X123486800Y-64856740D01*
X123486800Y-64856740D01*
G37*
G36*
X124986800Y-64856740D02*
G01*
X124384800Y-64856740D01*
X124384800Y-63854740D01*
X124986800Y-63854740D01*
X124986800Y-64856740D01*
X124986800Y-64856740D01*
G37*
G36*
X116152821Y-58447380D02*
G01*
X116662569Y-58658525D01*
X116662571Y-58658526D01*
X117121334Y-58965061D01*
X117511479Y-59355206D01*
X117800114Y-59787180D01*
X117818015Y-59813971D01*
X118029160Y-60323719D01*
X118136800Y-60864864D01*
X118136800Y-61416616D01*
X118029160Y-61957761D01*
X117992842Y-62045440D01*
X117818014Y-62467511D01*
X117511479Y-62926274D01*
X117121334Y-63316419D01*
X116662571Y-63622954D01*
X116662570Y-63622955D01*
X116662569Y-63622955D01*
X116152821Y-63834100D01*
X115611676Y-63941740D01*
X115059924Y-63941740D01*
X114518779Y-63834100D01*
X114009031Y-63622955D01*
X114009030Y-63622955D01*
X114009029Y-63622954D01*
X113550266Y-63316419D01*
X113160121Y-62926274D01*
X112853586Y-62467511D01*
X112678758Y-62045440D01*
X112642440Y-61957761D01*
X112534800Y-61416616D01*
X112534800Y-60864864D01*
X112642440Y-60323719D01*
X112853585Y-59813971D01*
X112871486Y-59787180D01*
X113160121Y-59355206D01*
X113550266Y-58965061D01*
X114009029Y-58658526D01*
X114009031Y-58658525D01*
X114518779Y-58447380D01*
X115059924Y-58339740D01*
X115611676Y-58339740D01*
X116152821Y-58447380D01*
X116152821Y-58447380D01*
G37*
G36*
X182152821Y-58447380D02*
G01*
X182662569Y-58658525D01*
X182662571Y-58658526D01*
X183121334Y-58965061D01*
X183511479Y-59355206D01*
X183800114Y-59787180D01*
X183818015Y-59813971D01*
X184029160Y-60323719D01*
X184136800Y-60864864D01*
X184136800Y-61416616D01*
X184029160Y-61957761D01*
X183992842Y-62045440D01*
X183818014Y-62467511D01*
X183511479Y-62926274D01*
X183121334Y-63316419D01*
X182662571Y-63622954D01*
X182662570Y-63622955D01*
X182662569Y-63622955D01*
X182152821Y-63834100D01*
X181611676Y-63941740D01*
X181059924Y-63941740D01*
X180518779Y-63834100D01*
X180009031Y-63622955D01*
X180009030Y-63622955D01*
X180009029Y-63622954D01*
X179550266Y-63316419D01*
X179160121Y-62926274D01*
X178853586Y-62467511D01*
X178678758Y-62045440D01*
X178642440Y-61957761D01*
X178534800Y-61416616D01*
X178534800Y-60864864D01*
X178642440Y-60323719D01*
X178853585Y-59813971D01*
X178871486Y-59787180D01*
X179160121Y-59355206D01*
X179550266Y-58965061D01*
X180009029Y-58658526D01*
X180009031Y-58658525D01*
X180518779Y-58447380D01*
X181059924Y-58339740D01*
X181611676Y-58339740D01*
X182152821Y-58447380D01*
X182152821Y-58447380D01*
G37*
G36*
X133095400Y-62947440D02*
G01*
X132093400Y-62947440D01*
X132093400Y-62045440D01*
X133095400Y-62045440D01*
X133095400Y-62947440D01*
X133095400Y-62947440D01*
G37*
G36*
X199239480Y-62911300D02*
G01*
X198237480Y-62911300D01*
X198237480Y-62009300D01*
X199239480Y-62009300D01*
X199239480Y-62911300D01*
X199239480Y-62911300D01*
G37*
G36*
X130961800Y-62711180D02*
G01*
X130109800Y-62711180D01*
X130109800Y-61809180D01*
X130961800Y-61809180D01*
X130961800Y-62711180D01*
X130961800Y-62711180D01*
G37*
G36*
X123453860Y-62706440D02*
G01*
X122451860Y-62706440D01*
X122451860Y-61804440D01*
X123453860Y-61804440D01*
X123453860Y-62706440D01*
X123453860Y-62706440D01*
G37*
G36*
X197361800Y-62665580D02*
G01*
X196509800Y-62665580D01*
X196509800Y-61763580D01*
X197361800Y-61763580D01*
X197361800Y-62665580D01*
X197361800Y-62665580D01*
G37*
G36*
X189065300Y-62589180D02*
G01*
X188063300Y-62589180D01*
X188063300Y-61687180D01*
X189065300Y-61687180D01*
X189065300Y-62589180D01*
X189065300Y-62589180D01*
G37*
G36*
X121361800Y-62556740D02*
G01*
X120509800Y-62556740D01*
X120509800Y-61654740D01*
X121361800Y-61654740D01*
X121361800Y-62556740D01*
X121361800Y-62556740D01*
G37*
G36*
X186961800Y-62381740D02*
G01*
X186109800Y-62381740D01*
X186109800Y-61479740D01*
X186961800Y-61479740D01*
X186961800Y-62381740D01*
X186961800Y-62381740D01*
G37*
G36*
X135095400Y-61997440D02*
G01*
X134093400Y-61997440D01*
X134093400Y-61095440D01*
X135095400Y-61095440D01*
X135095400Y-61997440D01*
X135095400Y-61997440D01*
G37*
G36*
X201239480Y-61961300D02*
G01*
X200237480Y-61961300D01*
X200237480Y-61059300D01*
X201239480Y-61059300D01*
X201239480Y-61961300D01*
X201239480Y-61961300D01*
G37*
G36*
X125453860Y-61756440D02*
G01*
X124451860Y-61756440D01*
X124451860Y-60854440D01*
X125453860Y-60854440D01*
X125453860Y-61756440D01*
X125453860Y-61756440D01*
G37*
G36*
X191065300Y-61639180D02*
G01*
X190063300Y-61639180D01*
X190063300Y-60737180D01*
X191065300Y-60737180D01*
X191065300Y-61639180D01*
X191065300Y-61639180D01*
G37*
G36*
X130961800Y-61211180D02*
G01*
X130109800Y-61211180D01*
X130109800Y-60309180D01*
X130961800Y-60309180D01*
X130961800Y-61211180D01*
X130961800Y-61211180D01*
G37*
G36*
X197361800Y-61165580D02*
G01*
X196509800Y-61165580D01*
X196509800Y-60263580D01*
X197361800Y-60263580D01*
X197361800Y-61165580D01*
X197361800Y-61165580D01*
G37*
G36*
X121361800Y-61056740D02*
G01*
X120509800Y-61056740D01*
X120509800Y-60154740D01*
X121361800Y-60154740D01*
X121361800Y-61056740D01*
X121361800Y-61056740D01*
G37*
G36*
X133095400Y-61047440D02*
G01*
X132093400Y-61047440D01*
X132093400Y-60145440D01*
X133095400Y-60145440D01*
X133095400Y-61047440D01*
X133095400Y-61047440D01*
G37*
G36*
X199239480Y-61011300D02*
G01*
X198237480Y-61011300D01*
X198237480Y-60109300D01*
X199239480Y-60109300D01*
X199239480Y-61011300D01*
X199239480Y-61011300D01*
G37*
G36*
X186961800Y-60881740D02*
G01*
X186109800Y-60881740D01*
X186109800Y-59979740D01*
X186961800Y-59979740D01*
X186961800Y-60881740D01*
X186961800Y-60881740D01*
G37*
G36*
X123453860Y-60806440D02*
G01*
X122451860Y-60806440D01*
X122451860Y-59904440D01*
X123453860Y-59904440D01*
X123453860Y-60806440D01*
X123453860Y-60806440D01*
G37*
G36*
X189065300Y-60689180D02*
G01*
X188063300Y-60689180D01*
X188063300Y-59787180D01*
X189065300Y-59787180D01*
X189065300Y-60689180D01*
X189065300Y-60689180D01*
G37*
G36*
X76208564Y-49810142D02*
G01*
X76331245Y-49834545D01*
X76562371Y-49930281D01*
X76600600Y-49955825D01*
X76770377Y-50069266D01*
X76947274Y-50246163D01*
X77016295Y-50349461D01*
X77071653Y-50432309D01*
X77086260Y-50454171D01*
X77181995Y-50685296D01*
X77217243Y-50862497D01*
X77230800Y-50930656D01*
X77230800Y-51180824D01*
X77181995Y-51426185D01*
X77086259Y-51657311D01*
X76947273Y-51865318D01*
X76770378Y-52042213D01*
X76562371Y-52181199D01*
X76331245Y-52276935D01*
X76208565Y-52301337D01*
X76085885Y-52325740D01*
X75835715Y-52325740D01*
X75713036Y-52301338D01*
X75590355Y-52276935D01*
X75359229Y-52181199D01*
X75151222Y-52042213D01*
X74974327Y-51865318D01*
X74835341Y-51657311D01*
X74739605Y-51426185D01*
X74690800Y-51180824D01*
X74690800Y-50930656D01*
X74704358Y-50862497D01*
X74739605Y-50685296D01*
X74835340Y-50454171D01*
X74849948Y-50432309D01*
X74905305Y-50349461D01*
X74974326Y-50246163D01*
X75151223Y-50069266D01*
X75321000Y-49955825D01*
X75359229Y-49930281D01*
X75590355Y-49834545D01*
X75713035Y-49810143D01*
X75835715Y-49785740D01*
X76085885Y-49785740D01*
X76208564Y-49810142D01*
X76208564Y-49810142D01*
G37*
G36*
X200458564Y-48585142D02*
G01*
X200581245Y-48609545D01*
X200812371Y-48705281D01*
X201020378Y-48844267D01*
X201197273Y-49021162D01*
X201336259Y-49229169D01*
X201373106Y-49318124D01*
X201431995Y-49460296D01*
X201480800Y-49705655D01*
X201480800Y-49955825D01*
X201458235Y-50069266D01*
X201431995Y-50201185D01*
X201336259Y-50432311D01*
X201197273Y-50640318D01*
X201020378Y-50817213D01*
X200812371Y-50956199D01*
X200581245Y-51051935D01*
X200458565Y-51076337D01*
X200335885Y-51100740D01*
X200085715Y-51100740D01*
X199963035Y-51076337D01*
X199840355Y-51051935D01*
X199609229Y-50956199D01*
X199401222Y-50817213D01*
X199224327Y-50640318D01*
X199085341Y-50432311D01*
X198989605Y-50201185D01*
X198963365Y-50069266D01*
X198940800Y-49955825D01*
X198940800Y-49705655D01*
X198989605Y-49460296D01*
X199048495Y-49318124D01*
X199085341Y-49229169D01*
X199224327Y-49021162D01*
X199401222Y-48844267D01*
X199609229Y-48705281D01*
X199840355Y-48609545D01*
X199963035Y-48585143D01*
X200085715Y-48560740D01*
X200335885Y-48560740D01*
X200458564Y-48585142D01*
X200458564Y-48585142D01*
G37*
G36*
X106351131Y-47408951D02*
G01*
X106678892Y-47544714D01*
X106973870Y-47741812D01*
X107224728Y-47992670D01*
X107421826Y-48287648D01*
X107557589Y-48615409D01*
X107626800Y-48963356D01*
X107626800Y-49318124D01*
X107557589Y-49666071D01*
X107421826Y-49993832D01*
X107224728Y-50288810D01*
X106973870Y-50539668D01*
X106678892Y-50736766D01*
X106351131Y-50872529D01*
X106003184Y-50941740D01*
X105648416Y-50941740D01*
X105300469Y-50872529D01*
X104972708Y-50736766D01*
X104677730Y-50539668D01*
X104426872Y-50288810D01*
X104229774Y-49993832D01*
X104094011Y-49666071D01*
X104024800Y-49318124D01*
X104024800Y-48963356D01*
X104094011Y-48615409D01*
X104229774Y-48287648D01*
X104426872Y-47992670D01*
X104677730Y-47741812D01*
X104972708Y-47544714D01*
X105300469Y-47408951D01*
X105648416Y-47339740D01*
X106003184Y-47339740D01*
X106351131Y-47408951D01*
X106351131Y-47408951D01*
G37*
G36*
X172351131Y-47408951D02*
G01*
X172678892Y-47544714D01*
X172973870Y-47741812D01*
X173224728Y-47992670D01*
X173421826Y-48287648D01*
X173557589Y-48615409D01*
X173626800Y-48963356D01*
X173626800Y-49318124D01*
X173557589Y-49666071D01*
X173421826Y-49993832D01*
X173224728Y-50288810D01*
X172973870Y-50539668D01*
X172678892Y-50736766D01*
X172351131Y-50872529D01*
X172003184Y-50941740D01*
X171648416Y-50941740D01*
X171300469Y-50872529D01*
X170972708Y-50736766D01*
X170677730Y-50539668D01*
X170426872Y-50288810D01*
X170229774Y-49993832D01*
X170094011Y-49666071D01*
X170024800Y-49318124D01*
X170024800Y-48963356D01*
X170094011Y-48615409D01*
X170229774Y-48287648D01*
X170426872Y-47992670D01*
X170677730Y-47741812D01*
X170972708Y-47544714D01*
X171300469Y-47408951D01*
X171648416Y-47339740D01*
X172003184Y-47339740D01*
X172351131Y-47408951D01*
X172351131Y-47408951D01*
G37*
G36*
X191572942Y-49298982D02*
G01*
X191720901Y-49360269D01*
X191854055Y-49449239D01*
X191967301Y-49562485D01*
X192056271Y-49695639D01*
X192117558Y-49843598D01*
X192148800Y-50000665D01*
X192148800Y-50160815D01*
X192117558Y-50317882D01*
X192056271Y-50465841D01*
X191967301Y-50598995D01*
X191854055Y-50712241D01*
X191720901Y-50801211D01*
X191572942Y-50862498D01*
X191415875Y-50893740D01*
X191255725Y-50893740D01*
X191098658Y-50862498D01*
X190950699Y-50801211D01*
X190817545Y-50712241D01*
X190704299Y-50598995D01*
X190615329Y-50465841D01*
X190554042Y-50317882D01*
X190522800Y-50160815D01*
X190522800Y-50000665D01*
X190554042Y-49843598D01*
X190615329Y-49695639D01*
X190704299Y-49562485D01*
X190817545Y-49449239D01*
X190950699Y-49360269D01*
X191098658Y-49298982D01*
X191255725Y-49267740D01*
X191415875Y-49267740D01*
X191572942Y-49298982D01*
X191572942Y-49298982D01*
G37*
G36*
X86572942Y-49298982D02*
G01*
X86720901Y-49360269D01*
X86854055Y-49449239D01*
X86967301Y-49562485D01*
X87056271Y-49695639D01*
X87117558Y-49843598D01*
X87148800Y-50000665D01*
X87148800Y-50160815D01*
X87117558Y-50317882D01*
X87056271Y-50465841D01*
X86967301Y-50598995D01*
X86854055Y-50712241D01*
X86720901Y-50801211D01*
X86572942Y-50862498D01*
X86415875Y-50893740D01*
X86255725Y-50893740D01*
X86098658Y-50862498D01*
X85950699Y-50801211D01*
X85817545Y-50712241D01*
X85704299Y-50598995D01*
X85615329Y-50465841D01*
X85554042Y-50317882D01*
X85522800Y-50160815D01*
X85522800Y-50000665D01*
X85554042Y-49843598D01*
X85615329Y-49695639D01*
X85704299Y-49562485D01*
X85817545Y-49449239D01*
X85950699Y-49360269D01*
X86098658Y-49298982D01*
X86255725Y-49267740D01*
X86415875Y-49267740D01*
X86572942Y-49298982D01*
X86572942Y-49298982D01*
G37*
G36*
X94572942Y-49298982D02*
G01*
X94720901Y-49360269D01*
X94854055Y-49449239D01*
X94967301Y-49562485D01*
X95056271Y-49695639D01*
X95117558Y-49843598D01*
X95148800Y-50000665D01*
X95148800Y-50160815D01*
X95117558Y-50317882D01*
X95056271Y-50465841D01*
X94967301Y-50598995D01*
X94854055Y-50712241D01*
X94720901Y-50801211D01*
X94572942Y-50862498D01*
X94415875Y-50893740D01*
X94255725Y-50893740D01*
X94098658Y-50862498D01*
X93950699Y-50801211D01*
X93817545Y-50712241D01*
X93704299Y-50598995D01*
X93615329Y-50465841D01*
X93554042Y-50317882D01*
X93522800Y-50160815D01*
X93522800Y-50000665D01*
X93554042Y-49843598D01*
X93615329Y-49695639D01*
X93704299Y-49562485D01*
X93817545Y-49449239D01*
X93950699Y-49360269D01*
X94098658Y-49298982D01*
X94255725Y-49267740D01*
X94415875Y-49267740D01*
X94572942Y-49298982D01*
X94572942Y-49298982D01*
G37*
G36*
X117572942Y-49298982D02*
G01*
X117720901Y-49360269D01*
X117854055Y-49449239D01*
X117967301Y-49562485D01*
X118056271Y-49695639D01*
X118117558Y-49843598D01*
X118148800Y-50000665D01*
X118148800Y-50160815D01*
X118117558Y-50317882D01*
X118056271Y-50465841D01*
X117967301Y-50598995D01*
X117854055Y-50712241D01*
X117720901Y-50801211D01*
X117572942Y-50862498D01*
X117415875Y-50893740D01*
X117255725Y-50893740D01*
X117098658Y-50862498D01*
X116950699Y-50801211D01*
X116817545Y-50712241D01*
X116704299Y-50598995D01*
X116615329Y-50465841D01*
X116554042Y-50317882D01*
X116522800Y-50160815D01*
X116522800Y-50000665D01*
X116554042Y-49843598D01*
X116615329Y-49695639D01*
X116704299Y-49562485D01*
X116817545Y-49449239D01*
X116950699Y-49360269D01*
X117098658Y-49298982D01*
X117255725Y-49267740D01*
X117415875Y-49267740D01*
X117572942Y-49298982D01*
X117572942Y-49298982D01*
G37*
G36*
X125572942Y-49298982D02*
G01*
X125720901Y-49360269D01*
X125854055Y-49449239D01*
X125967301Y-49562485D01*
X126056271Y-49695639D01*
X126117558Y-49843598D01*
X126148800Y-50000665D01*
X126148800Y-50160815D01*
X126117558Y-50317882D01*
X126056271Y-50465841D01*
X125967301Y-50598995D01*
X125854055Y-50712241D01*
X125720901Y-50801211D01*
X125572942Y-50862498D01*
X125415875Y-50893740D01*
X125255725Y-50893740D01*
X125098658Y-50862498D01*
X124950699Y-50801211D01*
X124817545Y-50712241D01*
X124704299Y-50598995D01*
X124615329Y-50465841D01*
X124554042Y-50317882D01*
X124522800Y-50160815D01*
X124522800Y-50000665D01*
X124554042Y-49843598D01*
X124615329Y-49695639D01*
X124704299Y-49562485D01*
X124817545Y-49449239D01*
X124950699Y-49360269D01*
X125098658Y-49298982D01*
X125255725Y-49267740D01*
X125415875Y-49267740D01*
X125572942Y-49298982D01*
X125572942Y-49298982D01*
G37*
G36*
X152572942Y-49298982D02*
G01*
X152720901Y-49360269D01*
X152854055Y-49449239D01*
X152967301Y-49562485D01*
X153056271Y-49695639D01*
X153117558Y-49843598D01*
X153148800Y-50000665D01*
X153148800Y-50160815D01*
X153117558Y-50317882D01*
X153056271Y-50465841D01*
X152967301Y-50598995D01*
X152854055Y-50712241D01*
X152720901Y-50801211D01*
X152572942Y-50862498D01*
X152415875Y-50893740D01*
X152255725Y-50893740D01*
X152098658Y-50862498D01*
X151950699Y-50801211D01*
X151817545Y-50712241D01*
X151704299Y-50598995D01*
X151615329Y-50465841D01*
X151554042Y-50317882D01*
X151522800Y-50160815D01*
X151522800Y-50000665D01*
X151554042Y-49843598D01*
X151615329Y-49695639D01*
X151704299Y-49562485D01*
X151817545Y-49449239D01*
X151950699Y-49360269D01*
X152098658Y-49298982D01*
X152255725Y-49267740D01*
X152415875Y-49267740D01*
X152572942Y-49298982D01*
X152572942Y-49298982D01*
G37*
G36*
X160572942Y-49298982D02*
G01*
X160720901Y-49360269D01*
X160854055Y-49449239D01*
X160967301Y-49562485D01*
X161056271Y-49695639D01*
X161117558Y-49843598D01*
X161148800Y-50000665D01*
X161148800Y-50160815D01*
X161117558Y-50317882D01*
X161056271Y-50465841D01*
X160967301Y-50598995D01*
X160854055Y-50712241D01*
X160720901Y-50801211D01*
X160572942Y-50862498D01*
X160415875Y-50893740D01*
X160255725Y-50893740D01*
X160098658Y-50862498D01*
X159950699Y-50801211D01*
X159817545Y-50712241D01*
X159704299Y-50598995D01*
X159615329Y-50465841D01*
X159554042Y-50317882D01*
X159522800Y-50160815D01*
X159522800Y-50000665D01*
X159554042Y-49843598D01*
X159615329Y-49695639D01*
X159704299Y-49562485D01*
X159817545Y-49449239D01*
X159950699Y-49360269D01*
X160098658Y-49298982D01*
X160255725Y-49267740D01*
X160415875Y-49267740D01*
X160572942Y-49298982D01*
X160572942Y-49298982D01*
G37*
G36*
X183572942Y-49298982D02*
G01*
X183720901Y-49360269D01*
X183854055Y-49449239D01*
X183967301Y-49562485D01*
X184056271Y-49695639D01*
X184117558Y-49843598D01*
X184148800Y-50000665D01*
X184148800Y-50160815D01*
X184117558Y-50317882D01*
X184056271Y-50465841D01*
X183967301Y-50598995D01*
X183854055Y-50712241D01*
X183720901Y-50801211D01*
X183572942Y-50862498D01*
X183415875Y-50893740D01*
X183255725Y-50893740D01*
X183098658Y-50862498D01*
X182950699Y-50801211D01*
X182817545Y-50712241D01*
X182704299Y-50598995D01*
X182615329Y-50465841D01*
X182554042Y-50317882D01*
X182522800Y-50160815D01*
X182522800Y-50000665D01*
X182554042Y-49843598D01*
X182615329Y-49695639D01*
X182704299Y-49562485D01*
X182817545Y-49449239D01*
X182950699Y-49360269D01*
X183098658Y-49298982D01*
X183255725Y-49267740D01*
X183415875Y-49267740D01*
X183572942Y-49298982D01*
X183572942Y-49298982D01*
G37*
G36*
X75904233Y-44140633D02*
G01*
X75994457Y-44158579D01*
X76100067Y-44202325D01*
X76249421Y-44264189D01*
X76249422Y-44264190D01*
X76478886Y-44417512D01*
X76674028Y-44612654D01*
X76776475Y-44765977D01*
X76827351Y-44842119D01*
X76932961Y-45097084D01*
X76986800Y-45367752D01*
X76986800Y-45643728D01*
X76932961Y-45914396D01*
X76827351Y-46169361D01*
X76827350Y-46169362D01*
X76674028Y-46398826D01*
X76478886Y-46593968D01*
X76325563Y-46696415D01*
X76249421Y-46747291D01*
X76100067Y-46809155D01*
X75994457Y-46852901D01*
X75904233Y-46870847D01*
X75723788Y-46906740D01*
X75447812Y-46906740D01*
X75267367Y-46870847D01*
X75177143Y-46852901D01*
X75071533Y-46809155D01*
X74922179Y-46747291D01*
X74846037Y-46696415D01*
X74692714Y-46593968D01*
X74497572Y-46398826D01*
X74344250Y-46169362D01*
X74344249Y-46169361D01*
X74238639Y-45914396D01*
X74184800Y-45643728D01*
X74184800Y-45367752D01*
X74238639Y-45097084D01*
X74344249Y-44842119D01*
X74395125Y-44765977D01*
X74497572Y-44612654D01*
X74692714Y-44417512D01*
X74922178Y-44264190D01*
X74922179Y-44264189D01*
X75071533Y-44202325D01*
X75177143Y-44158579D01*
X75267367Y-44140633D01*
X75447812Y-44104740D01*
X75723788Y-44104740D01*
X75904233Y-44140633D01*
X75904233Y-44140633D01*
G37*
G36*
X202704233Y-44140633D02*
G01*
X202794457Y-44158579D01*
X202900067Y-44202325D01*
X203049421Y-44264189D01*
X203049422Y-44264190D01*
X203278886Y-44417512D01*
X203474028Y-44612654D01*
X203576475Y-44765977D01*
X203627351Y-44842119D01*
X203732961Y-45097084D01*
X203786800Y-45367752D01*
X203786800Y-45643728D01*
X203732961Y-45914396D01*
X203627351Y-46169361D01*
X203627350Y-46169362D01*
X203474028Y-46398826D01*
X203278886Y-46593968D01*
X203125563Y-46696415D01*
X203049421Y-46747291D01*
X202900067Y-46809155D01*
X202794457Y-46852901D01*
X202704233Y-46870847D01*
X202523788Y-46906740D01*
X202247812Y-46906740D01*
X202067367Y-46870847D01*
X201977143Y-46852901D01*
X201871533Y-46809155D01*
X201722179Y-46747291D01*
X201646037Y-46696415D01*
X201492714Y-46593968D01*
X201297572Y-46398826D01*
X201144250Y-46169362D01*
X201144249Y-46169361D01*
X201038639Y-45914396D01*
X200984800Y-45643728D01*
X200984800Y-45367752D01*
X201038639Y-45097084D01*
X201144249Y-44842119D01*
X201195125Y-44765977D01*
X201297572Y-44612654D01*
X201492714Y-44417512D01*
X201722178Y-44264190D01*
X201722179Y-44264189D01*
X201871533Y-44202325D01*
X201977143Y-44158579D01*
X202067367Y-44140633D01*
X202247812Y-44104740D01*
X202523788Y-44104740D01*
X202704233Y-44140633D01*
X202704233Y-44140633D01*
G37*
M02*
