G04 #@! TF.GenerationSoftware,KiCad,Pcbnew,(5.1.2)-2*
G04 #@! TF.CreationDate,2019-11-13T10:18:59+01:00*
G04 #@! TF.ProjectId,StepperClock,53746570-7065-4724-936c-6f636b2e6b69,v1.0*
G04 #@! TF.SameCoordinates,Original*
G04 #@! TF.FileFunction,Soldermask,Top*
G04 #@! TF.FilePolarity,Negative*
%FSLAX46Y46*%
G04 Gerber Fmt 4.6, Leading zero omitted, Abs format (unit mm)*
G04 Created by KiCad (PCBNEW (5.1.2)-2) date 2019-11-13 10:18:59*
%MOMM*%
%LPD*%
G04 APERTURE LIST*
%ADD10C,0.010000*%
%ADD11C,0.100000*%
G04 APERTURE END LIST*
D10*
G36*
X292109547Y-173359140D02*
G01*
X292654859Y-173359140D01*
X292456079Y-173560527D01*
X292126371Y-173923431D01*
X291911951Y-174197555D01*
X291833503Y-174301140D01*
X291738944Y-174421269D01*
X291638850Y-174544942D01*
X291543798Y-174659159D01*
X291464366Y-174750921D01*
X291439268Y-174778500D01*
X291357836Y-174865952D01*
X291427794Y-174957096D01*
X291563236Y-175146344D01*
X291650778Y-175285790D01*
X291705648Y-175368026D01*
X291766924Y-175447352D01*
X291772073Y-175453347D01*
X291841022Y-175536321D01*
X291921547Y-175638877D01*
X292004742Y-175749028D01*
X292081702Y-175854787D01*
X292143519Y-175944165D01*
X292179176Y-176001287D01*
X292214257Y-176054336D01*
X292272786Y-176132802D01*
X292344620Y-176223992D01*
X292419615Y-176315212D01*
X292487628Y-176393772D01*
X292524000Y-176432760D01*
X292547889Y-176458821D01*
X292590163Y-176506146D01*
X292598277Y-176515310D01*
X292659855Y-176584940D01*
X291533400Y-176584940D01*
X291533400Y-176506663D01*
X291516637Y-176430135D01*
X291469407Y-176324889D01*
X291396293Y-176198979D01*
X291301881Y-176060456D01*
X291214342Y-175946273D01*
X291143068Y-175854053D01*
X291077747Y-175763009D01*
X291030577Y-175690275D01*
X291024471Y-175679573D01*
X290984429Y-175613174D01*
X290949142Y-175565024D01*
X290940499Y-175556240D01*
X290905938Y-175517556D01*
X290865715Y-175460990D01*
X290828026Y-175412833D01*
X290797515Y-175391227D01*
X290796214Y-175391140D01*
X290787338Y-175415831D01*
X290780218Y-175487121D01*
X290775064Y-175600832D01*
X290772083Y-175752784D01*
X290771400Y-175887701D01*
X290772084Y-176067003D01*
X290774495Y-176203010D01*
X290779175Y-176303215D01*
X290786663Y-176375109D01*
X290797498Y-176426183D01*
X290812221Y-176463928D01*
X290813044Y-176465551D01*
X290848517Y-176525231D01*
X290880023Y-176563358D01*
X290882894Y-176565501D01*
X290867397Y-176571063D01*
X290808047Y-176576002D01*
X290711786Y-176580052D01*
X290585559Y-176582947D01*
X290436311Y-176584422D01*
X290384594Y-176584551D01*
X289858089Y-176584940D01*
X289887768Y-176515090D01*
X289915941Y-176456498D01*
X289938024Y-176421110D01*
X289941857Y-176391882D01*
X289945457Y-176316521D01*
X289948759Y-176199691D01*
X289951696Y-176046057D01*
X289954199Y-175860286D01*
X289956204Y-175647042D01*
X289957642Y-175410991D01*
X289958447Y-175156799D01*
X289958599Y-174985030D01*
X289958541Y-174681051D01*
X289958270Y-174423652D01*
X289957646Y-174208614D01*
X289956526Y-174031718D01*
X289954769Y-173888744D01*
X289952233Y-173775473D01*
X289948776Y-173687685D01*
X289944257Y-173621161D01*
X289938533Y-173571681D01*
X289931462Y-173535026D01*
X289922904Y-173506977D01*
X289912716Y-173483314D01*
X289907799Y-173473439D01*
X289877044Y-173411609D01*
X289858990Y-173372400D01*
X289856999Y-173366469D01*
X289881135Y-173364247D01*
X289948488Y-173362296D01*
X290051472Y-173360724D01*
X290182506Y-173359641D01*
X290334005Y-173359155D01*
X290367717Y-173359140D01*
X290540860Y-173359404D01*
X290669429Y-173360571D01*
X290759646Y-173363204D01*
X290817737Y-173367863D01*
X290849924Y-173375112D01*
X290862432Y-173385512D01*
X290861486Y-173399625D01*
X290859964Y-173403590D01*
X290826605Y-173492413D01*
X290802539Y-173580921D01*
X290786380Y-173679881D01*
X290776742Y-173800061D01*
X290772240Y-173952228D01*
X290771400Y-174091828D01*
X290771399Y-174511644D01*
X290847599Y-174438640D01*
X290895213Y-174388297D01*
X290921794Y-174351018D01*
X290923800Y-174344223D01*
X290938937Y-174318290D01*
X290978428Y-174264868D01*
X291033388Y-174194885D01*
X291094932Y-174119269D01*
X291154177Y-174048949D01*
X291202239Y-173994854D01*
X291229039Y-173968740D01*
X291251361Y-173941474D01*
X291289736Y-173885370D01*
X291317602Y-173841740D01*
X291375805Y-173754038D01*
X291438751Y-173667438D01*
X291461099Y-173639102D01*
X291505813Y-173572476D01*
X291531208Y-173511383D01*
X291533400Y-173495130D01*
X291533922Y-173451417D01*
X291539591Y-173418242D01*
X291556562Y-173394152D01*
X291590989Y-173377695D01*
X291649026Y-173367417D01*
X291736828Y-173361867D01*
X291860550Y-173359591D01*
X292026345Y-173359136D01*
X292109547Y-173359140D01*
X292109547Y-173359140D01*
G37*
X292109547Y-173359140D02*
X292654859Y-173359140D01*
X292456079Y-173560527D01*
X292126371Y-173923431D01*
X291911951Y-174197555D01*
X291833503Y-174301140D01*
X291738944Y-174421269D01*
X291638850Y-174544942D01*
X291543798Y-174659159D01*
X291464366Y-174750921D01*
X291439268Y-174778500D01*
X291357836Y-174865952D01*
X291427794Y-174957096D01*
X291563236Y-175146344D01*
X291650778Y-175285790D01*
X291705648Y-175368026D01*
X291766924Y-175447352D01*
X291772073Y-175453347D01*
X291841022Y-175536321D01*
X291921547Y-175638877D01*
X292004742Y-175749028D01*
X292081702Y-175854787D01*
X292143519Y-175944165D01*
X292179176Y-176001287D01*
X292214257Y-176054336D01*
X292272786Y-176132802D01*
X292344620Y-176223992D01*
X292419615Y-176315212D01*
X292487628Y-176393772D01*
X292524000Y-176432760D01*
X292547889Y-176458821D01*
X292590163Y-176506146D01*
X292598277Y-176515310D01*
X292659855Y-176584940D01*
X291533400Y-176584940D01*
X291533400Y-176506663D01*
X291516637Y-176430135D01*
X291469407Y-176324889D01*
X291396293Y-176198979D01*
X291301881Y-176060456D01*
X291214342Y-175946273D01*
X291143068Y-175854053D01*
X291077747Y-175763009D01*
X291030577Y-175690275D01*
X291024471Y-175679573D01*
X290984429Y-175613174D01*
X290949142Y-175565024D01*
X290940499Y-175556240D01*
X290905938Y-175517556D01*
X290865715Y-175460990D01*
X290828026Y-175412833D01*
X290797515Y-175391227D01*
X290796214Y-175391140D01*
X290787338Y-175415831D01*
X290780218Y-175487121D01*
X290775064Y-175600832D01*
X290772083Y-175752784D01*
X290771400Y-175887701D01*
X290772084Y-176067003D01*
X290774495Y-176203010D01*
X290779175Y-176303215D01*
X290786663Y-176375109D01*
X290797498Y-176426183D01*
X290812221Y-176463928D01*
X290813044Y-176465551D01*
X290848517Y-176525231D01*
X290880023Y-176563358D01*
X290882894Y-176565501D01*
X290867397Y-176571063D01*
X290808047Y-176576002D01*
X290711786Y-176580052D01*
X290585559Y-176582947D01*
X290436311Y-176584422D01*
X290384594Y-176584551D01*
X289858089Y-176584940D01*
X289887768Y-176515090D01*
X289915941Y-176456498D01*
X289938024Y-176421110D01*
X289941857Y-176391882D01*
X289945457Y-176316521D01*
X289948759Y-176199691D01*
X289951696Y-176046057D01*
X289954199Y-175860286D01*
X289956204Y-175647042D01*
X289957642Y-175410991D01*
X289958447Y-175156799D01*
X289958599Y-174985030D01*
X289958541Y-174681051D01*
X289958270Y-174423652D01*
X289957646Y-174208614D01*
X289956526Y-174031718D01*
X289954769Y-173888744D01*
X289952233Y-173775473D01*
X289948776Y-173687685D01*
X289944257Y-173621161D01*
X289938533Y-173571681D01*
X289931462Y-173535026D01*
X289922904Y-173506977D01*
X289912716Y-173483314D01*
X289907799Y-173473439D01*
X289877044Y-173411609D01*
X289858990Y-173372400D01*
X289856999Y-173366469D01*
X289881135Y-173364247D01*
X289948488Y-173362296D01*
X290051472Y-173360724D01*
X290182506Y-173359641D01*
X290334005Y-173359155D01*
X290367717Y-173359140D01*
X290540860Y-173359404D01*
X290669429Y-173360571D01*
X290759646Y-173363204D01*
X290817737Y-173367863D01*
X290849924Y-173375112D01*
X290862432Y-173385512D01*
X290861486Y-173399625D01*
X290859964Y-173403590D01*
X290826605Y-173492413D01*
X290802539Y-173580921D01*
X290786380Y-173679881D01*
X290776742Y-173800061D01*
X290772240Y-173952228D01*
X290771400Y-174091828D01*
X290771399Y-174511644D01*
X290847599Y-174438640D01*
X290895213Y-174388297D01*
X290921794Y-174351018D01*
X290923800Y-174344223D01*
X290938937Y-174318290D01*
X290978428Y-174264868D01*
X291033388Y-174194885D01*
X291094932Y-174119269D01*
X291154177Y-174048949D01*
X291202239Y-173994854D01*
X291229039Y-173968740D01*
X291251361Y-173941474D01*
X291289736Y-173885370D01*
X291317602Y-173841740D01*
X291375805Y-173754038D01*
X291438751Y-173667438D01*
X291461099Y-173639102D01*
X291505813Y-173572476D01*
X291531208Y-173511383D01*
X291533400Y-173495130D01*
X291533922Y-173451417D01*
X291539591Y-173418242D01*
X291556562Y-173394152D01*
X291590989Y-173377695D01*
X291649026Y-173367417D01*
X291736828Y-173361867D01*
X291860550Y-173359591D01*
X292026345Y-173359136D01*
X292109547Y-173359140D01*
G36*
X293692400Y-175322785D02*
G01*
X293692621Y-175594268D01*
X293693383Y-175819358D01*
X293694826Y-176002461D01*
X293697094Y-176147980D01*
X293700331Y-176260323D01*
X293704678Y-176343895D01*
X293710280Y-176403099D01*
X293717278Y-176442343D01*
X293725816Y-176466032D01*
X293729692Y-176472135D01*
X293755978Y-176509683D01*
X293766691Y-176537825D01*
X293756510Y-176557914D01*
X293720112Y-176571303D01*
X293652176Y-176579345D01*
X293547378Y-176583393D01*
X293400398Y-176584800D01*
X293286000Y-176584940D01*
X293135718Y-176584255D01*
X293004527Y-176582348D01*
X292900227Y-176579442D01*
X292830619Y-176575757D01*
X292803505Y-176571516D01*
X292803400Y-176571228D01*
X292813955Y-176542194D01*
X292840526Y-176485249D01*
X292854200Y-176457940D01*
X292867066Y-176430500D01*
X292877559Y-176400134D01*
X292885920Y-176361660D01*
X292892391Y-176309895D01*
X292897211Y-176239658D01*
X292900622Y-176145767D01*
X292902865Y-176023041D01*
X292904181Y-175866299D01*
X292904810Y-175670357D01*
X292904995Y-175430036D01*
X292905000Y-175365490D01*
X292904747Y-175108009D01*
X292903871Y-174896489D01*
X292902196Y-174726091D01*
X292899548Y-174591978D01*
X292895750Y-174489311D01*
X292890627Y-174413253D01*
X292884003Y-174358966D01*
X292875703Y-174321612D01*
X292866247Y-174297678D01*
X292827495Y-174222740D01*
X293692400Y-174222740D01*
X293692400Y-175322785D01*
X293692400Y-175322785D01*
G37*
X293692400Y-175322785D02*
X293692621Y-175594268D01*
X293693383Y-175819358D01*
X293694826Y-176002461D01*
X293697094Y-176147980D01*
X293700331Y-176260323D01*
X293704678Y-176343895D01*
X293710280Y-176403099D01*
X293717278Y-176442343D01*
X293725816Y-176466032D01*
X293729692Y-176472135D01*
X293755978Y-176509683D01*
X293766691Y-176537825D01*
X293756510Y-176557914D01*
X293720112Y-176571303D01*
X293652176Y-176579345D01*
X293547378Y-176583393D01*
X293400398Y-176584800D01*
X293286000Y-176584940D01*
X293135718Y-176584255D01*
X293004527Y-176582348D01*
X292900227Y-176579442D01*
X292830619Y-176575757D01*
X292803505Y-176571516D01*
X292803400Y-176571228D01*
X292813955Y-176542194D01*
X292840526Y-176485249D01*
X292854200Y-176457940D01*
X292867066Y-176430500D01*
X292877559Y-176400134D01*
X292885920Y-176361660D01*
X292892391Y-176309895D01*
X292897211Y-176239658D01*
X292900622Y-176145767D01*
X292902865Y-176023041D01*
X292904181Y-175866299D01*
X292904810Y-175670357D01*
X292904995Y-175430036D01*
X292905000Y-175365490D01*
X292904747Y-175108009D01*
X292903871Y-174896489D01*
X292902196Y-174726091D01*
X292899548Y-174591978D01*
X292895750Y-174489311D01*
X292890627Y-174413253D01*
X292884003Y-174358966D01*
X292875703Y-174321612D01*
X292866247Y-174297678D01*
X292827495Y-174222740D01*
X293692400Y-174222740D01*
X293692400Y-175322785D01*
G36*
X293451741Y-172456700D02*
G01*
X293569345Y-172523135D01*
X293662823Y-172625785D01*
X293706612Y-172711864D01*
X293737222Y-172850354D01*
X293728121Y-172988331D01*
X293680773Y-173109824D01*
X293668388Y-173128590D01*
X293577949Y-173216148D01*
X293459071Y-173276293D01*
X293326133Y-173306158D01*
X293193513Y-173302874D01*
X293075590Y-173263572D01*
X293054806Y-173250984D01*
X292972537Y-173172134D01*
X292904714Y-173063510D01*
X292862547Y-172946035D01*
X292854200Y-172876539D01*
X292873474Y-172767315D01*
X292923990Y-172652850D01*
X292994782Y-172553898D01*
X293050442Y-172505035D01*
X293182661Y-172444616D01*
X293319637Y-172429516D01*
X293451741Y-172456700D01*
X293451741Y-172456700D01*
G37*
X293451741Y-172456700D02*
X293569345Y-172523135D01*
X293662823Y-172625785D01*
X293706612Y-172711864D01*
X293737222Y-172850354D01*
X293728121Y-172988331D01*
X293680773Y-173109824D01*
X293668388Y-173128590D01*
X293577949Y-173216148D01*
X293459071Y-173276293D01*
X293326133Y-173306158D01*
X293193513Y-173302874D01*
X293075590Y-173263572D01*
X293054806Y-173250984D01*
X292972537Y-173172134D01*
X292904714Y-173063510D01*
X292862547Y-172946035D01*
X292854200Y-172876539D01*
X292873474Y-172767315D01*
X292923990Y-172652850D01*
X292994782Y-172553898D01*
X293050442Y-172505035D01*
X293182661Y-172444616D01*
X293319637Y-172429516D01*
X293451741Y-172456700D01*
D11*
G36*
X330694233Y-178034893D02*
G01*
X330784457Y-178052839D01*
X330890067Y-178096585D01*
X331039421Y-178158449D01*
X331039422Y-178158450D01*
X331268886Y-178311772D01*
X331464028Y-178506914D01*
X331566475Y-178660237D01*
X331617351Y-178736379D01*
X331722961Y-178991344D01*
X331776800Y-179262012D01*
X331776800Y-179537988D01*
X331722961Y-179808656D01*
X331617351Y-180063621D01*
X331617350Y-180063622D01*
X331464028Y-180293086D01*
X331268886Y-180488228D01*
X331115563Y-180590675D01*
X331039421Y-180641551D01*
X330890067Y-180703415D01*
X330784457Y-180747161D01*
X330694233Y-180765107D01*
X330513788Y-180801000D01*
X330237812Y-180801000D01*
X330057367Y-180765107D01*
X329967143Y-180747161D01*
X329861533Y-180703415D01*
X329712179Y-180641551D01*
X329636037Y-180590675D01*
X329482714Y-180488228D01*
X329287572Y-180293086D01*
X329134250Y-180063622D01*
X329134249Y-180063621D01*
X329028639Y-179808656D01*
X328974800Y-179537988D01*
X328974800Y-179262012D01*
X329028639Y-178991344D01*
X329134249Y-178736379D01*
X329185125Y-178660237D01*
X329287572Y-178506914D01*
X329482714Y-178311772D01*
X329712178Y-178158450D01*
X329712179Y-178158449D01*
X329861533Y-178096585D01*
X329967143Y-178052839D01*
X330057367Y-178034893D01*
X330237812Y-177999000D01*
X330513788Y-177999000D01*
X330694233Y-178034893D01*
X330694233Y-178034893D01*
G37*
G36*
X63124233Y-178034893D02*
G01*
X63214457Y-178052839D01*
X63320067Y-178096585D01*
X63469421Y-178158449D01*
X63469422Y-178158450D01*
X63698886Y-178311772D01*
X63894028Y-178506914D01*
X63996475Y-178660237D01*
X64047351Y-178736379D01*
X64152961Y-178991344D01*
X64206800Y-179262012D01*
X64206800Y-179537988D01*
X64152961Y-179808656D01*
X64047351Y-180063621D01*
X64047350Y-180063622D01*
X63894028Y-180293086D01*
X63698886Y-180488228D01*
X63545563Y-180590675D01*
X63469421Y-180641551D01*
X63320067Y-180703415D01*
X63214457Y-180747161D01*
X63124233Y-180765107D01*
X62943788Y-180801000D01*
X62667812Y-180801000D01*
X62487367Y-180765107D01*
X62397143Y-180747161D01*
X62291533Y-180703415D01*
X62142179Y-180641551D01*
X62066037Y-180590675D01*
X61912714Y-180488228D01*
X61717572Y-180293086D01*
X61564250Y-180063622D01*
X61564249Y-180063621D01*
X61458639Y-179808656D01*
X61404800Y-179537988D01*
X61404800Y-179262012D01*
X61458639Y-178991344D01*
X61564249Y-178736379D01*
X61615125Y-178660237D01*
X61717572Y-178506914D01*
X61912714Y-178311772D01*
X62142178Y-178158450D01*
X62142179Y-178158449D01*
X62291533Y-178096585D01*
X62397143Y-178052839D01*
X62487367Y-178034893D01*
X62667812Y-177999000D01*
X62943788Y-177999000D01*
X63124233Y-178034893D01*
X63124233Y-178034893D01*
G37*
G36*
X263516800Y-179611740D02*
G01*
X260414800Y-179611740D01*
X260414800Y-177909740D01*
X263516800Y-177909740D01*
X263516800Y-179611740D01*
X263516800Y-179611740D01*
G37*
G36*
X267916800Y-179611740D02*
G01*
X264814800Y-179611740D01*
X264814800Y-177909740D01*
X267916800Y-177909740D01*
X267916800Y-179611740D01*
X267916800Y-179611740D01*
G37*
G36*
X127546800Y-179221740D02*
G01*
X124444800Y-179221740D01*
X124444800Y-177519740D01*
X127546800Y-177519740D01*
X127546800Y-179221740D01*
X127546800Y-179221740D01*
G37*
G36*
X123146800Y-179221740D02*
G01*
X120044800Y-179221740D01*
X120044800Y-177519740D01*
X123146800Y-177519740D01*
X123146800Y-179221740D01*
X123146800Y-179221740D01*
G37*
G36*
X241504233Y-176435633D02*
G01*
X241594457Y-176453579D01*
X241680139Y-176489070D01*
X241849421Y-176559189D01*
X241869480Y-176572592D01*
X242078886Y-176712512D01*
X242274028Y-176907654D01*
X242376475Y-177060977D01*
X242427351Y-177137119D01*
X242532961Y-177392084D01*
X242586800Y-177662752D01*
X242586800Y-177938728D01*
X242532961Y-178209396D01*
X242427351Y-178464361D01*
X242427350Y-178464362D01*
X242274028Y-178693826D01*
X242078886Y-178888968D01*
X241925670Y-178991343D01*
X241849421Y-179042291D01*
X241700067Y-179104155D01*
X241594457Y-179147901D01*
X241504233Y-179165847D01*
X241323788Y-179201740D01*
X241047812Y-179201740D01*
X240867367Y-179165847D01*
X240777143Y-179147901D01*
X240671533Y-179104155D01*
X240522179Y-179042291D01*
X240445930Y-178991343D01*
X240292714Y-178888968D01*
X240097572Y-178693826D01*
X239944250Y-178464362D01*
X239944249Y-178464361D01*
X239838639Y-178209396D01*
X239784800Y-177938728D01*
X239784800Y-177662752D01*
X239838639Y-177392084D01*
X239944249Y-177137119D01*
X239995125Y-177060977D01*
X240097572Y-176907654D01*
X240292714Y-176712512D01*
X240502120Y-176572592D01*
X240522179Y-176559189D01*
X240691461Y-176489070D01*
X240777143Y-176453579D01*
X240867367Y-176435633D01*
X241047812Y-176399740D01*
X241323788Y-176399740D01*
X241504233Y-176435633D01*
X241504233Y-176435633D01*
G37*
G36*
X152294233Y-176435633D02*
G01*
X152384457Y-176453579D01*
X152470139Y-176489070D01*
X152639421Y-176559189D01*
X152659480Y-176572592D01*
X152868886Y-176712512D01*
X153064028Y-176907654D01*
X153166475Y-177060977D01*
X153217351Y-177137119D01*
X153322961Y-177392084D01*
X153376800Y-177662752D01*
X153376800Y-177938728D01*
X153322961Y-178209396D01*
X153217351Y-178464361D01*
X153217350Y-178464362D01*
X153064028Y-178693826D01*
X152868886Y-178888968D01*
X152715670Y-178991343D01*
X152639421Y-179042291D01*
X152490067Y-179104155D01*
X152384457Y-179147901D01*
X152294233Y-179165847D01*
X152113788Y-179201740D01*
X151837812Y-179201740D01*
X151657367Y-179165847D01*
X151567143Y-179147901D01*
X151461533Y-179104155D01*
X151312179Y-179042291D01*
X151235930Y-178991343D01*
X151082714Y-178888968D01*
X150887572Y-178693826D01*
X150734250Y-178464362D01*
X150734249Y-178464361D01*
X150628639Y-178209396D01*
X150574800Y-177938728D01*
X150574800Y-177662752D01*
X150628639Y-177392084D01*
X150734249Y-177137119D01*
X150785125Y-177060977D01*
X150887572Y-176907654D01*
X151082714Y-176712512D01*
X151292120Y-176572592D01*
X151312179Y-176559189D01*
X151481461Y-176489070D01*
X151567143Y-176453579D01*
X151657367Y-176435633D01*
X151837812Y-176399740D01*
X152113788Y-176399740D01*
X152294233Y-176435633D01*
X152294233Y-176435633D01*
G37*
G36*
X272376800Y-177556740D02*
G01*
X271474800Y-177556740D01*
X271474800Y-176704740D01*
X272376800Y-176704740D01*
X272376800Y-177556740D01*
X272376800Y-177556740D01*
G37*
G36*
X273876800Y-177556740D02*
G01*
X272974800Y-177556740D01*
X272974800Y-176704740D01*
X273876800Y-176704740D01*
X273876800Y-177556740D01*
X273876800Y-177556740D01*
G37*
G36*
X133536800Y-177356740D02*
G01*
X132634800Y-177356740D01*
X132634800Y-176504740D01*
X133536800Y-176504740D01*
X133536800Y-177356740D01*
X133536800Y-177356740D01*
G37*
G36*
X132036800Y-177356740D02*
G01*
X131134800Y-177356740D01*
X131134800Y-176504740D01*
X132036800Y-176504740D01*
X132036800Y-177356740D01*
X132036800Y-177356740D01*
G37*
G36*
X215496800Y-177321740D02*
G01*
X213794800Y-177321740D01*
X213794800Y-176219740D01*
X215496800Y-176219740D01*
X215496800Y-177321740D01*
X215496800Y-177321740D01*
G37*
G36*
X219566800Y-176711740D02*
G01*
X218564800Y-176711740D01*
X218564800Y-175809740D01*
X219566800Y-175809740D01*
X219566800Y-176711740D01*
X219566800Y-176711740D01*
G37*
G36*
X332308564Y-174125142D02*
G01*
X332431245Y-174149545D01*
X332662371Y-174245281D01*
X332767079Y-174315245D01*
X332856951Y-174375295D01*
X332870378Y-174384267D01*
X333047273Y-174561162D01*
X333186259Y-174769169D01*
X333281995Y-175000295D01*
X333301429Y-175097998D01*
X333330800Y-175245655D01*
X333330800Y-175495825D01*
X333327833Y-175510742D01*
X333281995Y-175741185D01*
X333186259Y-175972311D01*
X333144085Y-176035429D01*
X333047274Y-176180317D01*
X332870377Y-176357214D01*
X332806732Y-176399740D01*
X332662371Y-176496199D01*
X332662370Y-176496200D01*
X332662369Y-176496200D01*
X332603124Y-176520740D01*
X332431245Y-176591935D01*
X332308564Y-176616338D01*
X332185885Y-176640740D01*
X331935715Y-176640740D01*
X331813036Y-176616338D01*
X331690355Y-176591935D01*
X331518476Y-176520740D01*
X331459231Y-176496200D01*
X331459230Y-176496200D01*
X331459229Y-176496199D01*
X331314868Y-176399740D01*
X331251223Y-176357214D01*
X331074326Y-176180317D01*
X330977515Y-176035429D01*
X330935341Y-175972311D01*
X330839605Y-175741185D01*
X330793767Y-175510742D01*
X330790800Y-175495825D01*
X330790800Y-175245655D01*
X330820171Y-175097998D01*
X330839605Y-175000295D01*
X330935341Y-174769169D01*
X331074327Y-174561162D01*
X331251222Y-174384267D01*
X331264650Y-174375295D01*
X331354521Y-174315245D01*
X331459229Y-174245281D01*
X331690355Y-174149545D01*
X331813035Y-174125143D01*
X331935715Y-174100740D01*
X332185885Y-174100740D01*
X332308564Y-174125142D01*
X332308564Y-174125142D01*
G37*
G36*
X193970799Y-174970477D02*
G01*
X193980408Y-174973392D01*
X193989272Y-174978130D01*
X193997037Y-174984503D01*
X194007248Y-174996946D01*
X194014178Y-175007315D01*
X194031505Y-175024642D01*
X194051880Y-175038255D01*
X194074520Y-175047631D01*
X194098553Y-175052411D01*
X194123057Y-175052410D01*
X194147090Y-175047628D01*
X194169729Y-175038250D01*
X194190102Y-175024635D01*
X194207429Y-175007308D01*
X194214358Y-174996938D01*
X194224563Y-174984503D01*
X194232328Y-174978130D01*
X194241192Y-174973392D01*
X194250801Y-174970477D01*
X194266940Y-174968888D01*
X194754661Y-174968888D01*
X194772999Y-174970694D01*
X194785250Y-174971296D01*
X194803669Y-174971296D01*
X194825949Y-174973490D01*
X194910033Y-174990216D01*
X194931460Y-174996716D01*
X195010658Y-175029520D01*
X195016103Y-175032431D01*
X195016109Y-175032433D01*
X195024969Y-175037169D01*
X195024973Y-175037172D01*
X195030414Y-175040080D01*
X195101699Y-175087711D01*
X195119004Y-175101912D01*
X195179628Y-175162536D01*
X195193829Y-175179841D01*
X195241460Y-175251126D01*
X195244368Y-175256567D01*
X195244371Y-175256571D01*
X195249107Y-175265431D01*
X195249109Y-175265437D01*
X195252020Y-175270882D01*
X195284824Y-175350080D01*
X195291324Y-175371507D01*
X195308050Y-175455591D01*
X195310244Y-175477871D01*
X195310244Y-175496290D01*
X195310846Y-175508541D01*
X195312652Y-175526879D01*
X195312652Y-176014602D01*
X195310846Y-176032939D01*
X195310244Y-176045190D01*
X195310244Y-176063609D01*
X195308050Y-176085889D01*
X195291324Y-176169973D01*
X195284824Y-176191400D01*
X195252020Y-176270598D01*
X195249109Y-176276043D01*
X195249107Y-176276049D01*
X195244371Y-176284909D01*
X195244368Y-176284913D01*
X195241460Y-176290354D01*
X195193829Y-176361639D01*
X195179628Y-176378944D01*
X195119004Y-176439568D01*
X195101699Y-176453769D01*
X195030414Y-176501400D01*
X195024973Y-176504308D01*
X195024969Y-176504311D01*
X195016109Y-176509047D01*
X195016103Y-176509049D01*
X195010658Y-176511960D01*
X194931460Y-176544764D01*
X194910033Y-176551264D01*
X194825949Y-176567990D01*
X194803669Y-176570184D01*
X194785250Y-176570184D01*
X194772999Y-176570786D01*
X194754662Y-176572592D01*
X194266940Y-176572592D01*
X194250801Y-176571003D01*
X194241192Y-176568088D01*
X194232328Y-176563350D01*
X194224563Y-176556977D01*
X194214352Y-176544534D01*
X194207422Y-176534165D01*
X194190095Y-176516838D01*
X194169720Y-176503225D01*
X194147080Y-176493849D01*
X194123047Y-176489069D01*
X194098543Y-176489070D01*
X194074510Y-176493852D01*
X194051871Y-176503230D01*
X194031498Y-176516845D01*
X194014171Y-176534172D01*
X194007242Y-176544542D01*
X193997037Y-176556977D01*
X193989272Y-176563350D01*
X193980408Y-176568088D01*
X193970799Y-176571003D01*
X193954660Y-176572592D01*
X193466938Y-176572592D01*
X193448601Y-176570786D01*
X193436350Y-176570184D01*
X193417931Y-176570184D01*
X193395651Y-176567990D01*
X193311567Y-176551264D01*
X193290140Y-176544764D01*
X193210942Y-176511960D01*
X193205497Y-176509049D01*
X193205491Y-176509047D01*
X193196631Y-176504311D01*
X193196627Y-176504308D01*
X193191186Y-176501400D01*
X193119901Y-176453769D01*
X193102596Y-176439568D01*
X193041972Y-176378944D01*
X193027771Y-176361639D01*
X192980140Y-176290354D01*
X192977232Y-176284913D01*
X192977229Y-176284909D01*
X192972493Y-176276049D01*
X192972491Y-176276043D01*
X192969580Y-176270598D01*
X192936776Y-176191400D01*
X192930276Y-176169973D01*
X192913550Y-176085889D01*
X192911356Y-176063609D01*
X192911356Y-176045190D01*
X192910754Y-176032939D01*
X192908948Y-176014602D01*
X192908948Y-175526879D01*
X192910754Y-175508541D01*
X192911356Y-175496290D01*
X192911356Y-175477871D01*
X192913550Y-175455591D01*
X192930276Y-175371507D01*
X192936776Y-175350080D01*
X192969580Y-175270882D01*
X192972491Y-175265437D01*
X192972493Y-175265431D01*
X192977229Y-175256571D01*
X192977232Y-175256567D01*
X192980140Y-175251126D01*
X193027771Y-175179841D01*
X193041972Y-175162536D01*
X193102596Y-175101912D01*
X193119901Y-175087711D01*
X193191186Y-175040080D01*
X193196627Y-175037172D01*
X193196631Y-175037169D01*
X193205491Y-175032433D01*
X193205497Y-175032431D01*
X193210942Y-175029520D01*
X193290140Y-174996716D01*
X193311567Y-174990216D01*
X193395651Y-174973490D01*
X193417931Y-174971296D01*
X193436350Y-174971296D01*
X193448601Y-174970694D01*
X193466939Y-174968888D01*
X193954660Y-174968888D01*
X193970799Y-174970477D01*
X193970799Y-174970477D01*
G37*
G36*
X198436800Y-176246740D02*
G01*
X197834800Y-176246740D01*
X197834800Y-175244740D01*
X198436800Y-175244740D01*
X198436800Y-176246740D01*
X198436800Y-176246740D01*
G37*
G36*
X196936800Y-176246740D02*
G01*
X196334800Y-176246740D01*
X196334800Y-175244740D01*
X196936800Y-175244740D01*
X196936800Y-176246740D01*
X196936800Y-176246740D01*
G37*
G36*
X61608565Y-173500143D02*
G01*
X61731245Y-173524545D01*
X61962371Y-173620281D01*
X62170378Y-173759267D01*
X62347273Y-173936162D01*
X62486259Y-174144169D01*
X62581995Y-174375295D01*
X62630800Y-174620656D01*
X62630800Y-174870824D01*
X62581995Y-175116185D01*
X62486259Y-175347311D01*
X62416295Y-175452019D01*
X62347274Y-175555317D01*
X62170377Y-175732214D01*
X62126188Y-175761740D01*
X61962371Y-175871199D01*
X61731245Y-175966935D01*
X61608564Y-175991338D01*
X61485885Y-176015740D01*
X61235715Y-176015740D01*
X61113036Y-175991338D01*
X60990355Y-175966935D01*
X60759229Y-175871199D01*
X60595412Y-175761740D01*
X60551223Y-175732214D01*
X60374326Y-175555317D01*
X60305305Y-175452019D01*
X60235341Y-175347311D01*
X60139605Y-175116185D01*
X60090800Y-174870824D01*
X60090800Y-174620656D01*
X60139605Y-174375295D01*
X60235341Y-174144169D01*
X60374327Y-173936162D01*
X60551222Y-173759267D01*
X60759229Y-173620281D01*
X60990355Y-173524545D01*
X61113035Y-173500143D01*
X61235715Y-173475740D01*
X61485885Y-173475740D01*
X61608565Y-173500143D01*
X61608565Y-173500143D01*
G37*
G36*
X217566800Y-175761740D02*
G01*
X216564800Y-175761740D01*
X216564800Y-174859740D01*
X217566800Y-174859740D01*
X217566800Y-175761740D01*
X217566800Y-175761740D01*
G37*
G36*
X207096800Y-175151740D02*
G01*
X206254800Y-175151740D01*
X206254800Y-172649740D01*
X207096800Y-172649740D01*
X207096800Y-175151740D01*
X207096800Y-175151740D01*
G37*
G36*
X208366800Y-175151740D02*
G01*
X207524800Y-175151740D01*
X207524800Y-172649740D01*
X208366800Y-172649740D01*
X208366800Y-175151740D01*
X208366800Y-175151740D01*
G37*
G36*
X209636800Y-175151740D02*
G01*
X208794800Y-175151740D01*
X208794800Y-172649740D01*
X209636800Y-172649740D01*
X209636800Y-175151740D01*
X209636800Y-175151740D01*
G37*
G36*
X212176800Y-175151740D02*
G01*
X211334800Y-175151740D01*
X211334800Y-172649740D01*
X212176800Y-172649740D01*
X212176800Y-175151740D01*
X212176800Y-175151740D01*
G37*
G36*
X210906800Y-175151740D02*
G01*
X210064800Y-175151740D01*
X210064800Y-172649740D01*
X210906800Y-172649740D01*
X210906800Y-175151740D01*
X210906800Y-175151740D01*
G37*
G36*
X219566800Y-174811740D02*
G01*
X218564800Y-174811740D01*
X218564800Y-173909740D01*
X219566800Y-173909740D01*
X219566800Y-174811740D01*
X219566800Y-174811740D01*
G37*
G36*
X215496800Y-174321740D02*
G01*
X213794800Y-174321740D01*
X213794800Y-173219740D01*
X215496800Y-173219740D01*
X215496800Y-174321740D01*
X215496800Y-174321740D01*
G37*
G36*
X204501800Y-174261740D02*
G01*
X203649800Y-174261740D01*
X203649800Y-173359740D01*
X204501800Y-173359740D01*
X204501800Y-174261740D01*
X204501800Y-174261740D01*
G37*
G36*
X202971800Y-174261740D02*
G01*
X202119800Y-174261740D01*
X202119800Y-173359740D01*
X202971800Y-173359740D01*
X202971800Y-174261740D01*
X202971800Y-174261740D01*
G37*
G36*
X262976060Y-173902540D02*
G01*
X260874060Y-173902540D01*
X260874060Y-173300540D01*
X262976060Y-173300540D01*
X262976060Y-173902540D01*
X262976060Y-173902540D01*
G37*
G36*
X272976060Y-173902540D02*
G01*
X270874060Y-173902540D01*
X270874060Y-173300540D01*
X272976060Y-173300540D01*
X272976060Y-173902540D01*
X272976060Y-173902540D01*
G37*
G36*
X132587540Y-173680940D02*
G01*
X130485540Y-173680940D01*
X130485540Y-173078940D01*
X132587540Y-173078940D01*
X132587540Y-173680940D01*
X132587540Y-173680940D01*
G37*
G36*
X122587540Y-173680940D02*
G01*
X120485540Y-173680940D01*
X120485540Y-173078940D01*
X122587540Y-173078940D01*
X122587540Y-173680940D01*
X122587540Y-173680940D01*
G37*
G36*
X193661800Y-173626740D02*
G01*
X192009800Y-173626740D01*
X192009800Y-172924740D01*
X193661800Y-172924740D01*
X193661800Y-173626740D01*
X193661800Y-173626740D01*
G37*
G36*
X199061800Y-173626740D02*
G01*
X197409800Y-173626740D01*
X197409800Y-172924740D01*
X199061800Y-172924740D01*
X199061800Y-173626740D01*
X199061800Y-173626740D01*
G37*
G36*
X204501800Y-172761740D02*
G01*
X203649800Y-172761740D01*
X203649800Y-171859740D01*
X204501800Y-171859740D01*
X204501800Y-172761740D01*
X204501800Y-172761740D01*
G37*
G36*
X202971800Y-172761740D02*
G01*
X202119800Y-172761740D01*
X202119800Y-171859740D01*
X202971800Y-171859740D01*
X202971800Y-172761740D01*
X202971800Y-172761740D01*
G37*
G36*
X272976060Y-172632540D02*
G01*
X270874060Y-172632540D01*
X270874060Y-172030540D01*
X272976060Y-172030540D01*
X272976060Y-172632540D01*
X272976060Y-172632540D01*
G37*
G36*
X262976060Y-172632540D02*
G01*
X260874060Y-172632540D01*
X260874060Y-172030540D01*
X262976060Y-172030540D01*
X262976060Y-172632540D01*
X262976060Y-172632540D01*
G37*
G36*
X219226800Y-172536740D02*
G01*
X218324800Y-172536740D01*
X218324800Y-171684740D01*
X219226800Y-171684740D01*
X219226800Y-172536740D01*
X219226800Y-172536740D01*
G37*
G36*
X217726800Y-172536740D02*
G01*
X216824800Y-172536740D01*
X216824800Y-171684740D01*
X217726800Y-171684740D01*
X217726800Y-172536740D01*
X217726800Y-172536740D01*
G37*
G36*
X132587540Y-172410940D02*
G01*
X130485540Y-172410940D01*
X130485540Y-171808940D01*
X132587540Y-171808940D01*
X132587540Y-172410940D01*
X132587540Y-172410940D01*
G37*
G36*
X122587540Y-172410940D02*
G01*
X120485540Y-172410940D01*
X120485540Y-171808940D01*
X122587540Y-171808940D01*
X122587540Y-172410940D01*
X122587540Y-172410940D01*
G37*
G36*
X193661800Y-172356740D02*
G01*
X192009800Y-172356740D01*
X192009800Y-171654740D01*
X193661800Y-171654740D01*
X193661800Y-172356740D01*
X193661800Y-172356740D01*
G37*
G36*
X199061800Y-172356740D02*
G01*
X197409800Y-172356740D01*
X197409800Y-171654740D01*
X199061800Y-171654740D01*
X199061800Y-172356740D01*
X199061800Y-172356740D01*
G37*
G36*
X272976060Y-171362540D02*
G01*
X270874060Y-171362540D01*
X270874060Y-170760540D01*
X272976060Y-170760540D01*
X272976060Y-171362540D01*
X272976060Y-171362540D01*
G37*
G36*
X262976060Y-171362540D02*
G01*
X260874060Y-171362540D01*
X260874060Y-170760540D01*
X262976060Y-170760540D01*
X262976060Y-171362540D01*
X262976060Y-171362540D01*
G37*
G36*
X212176800Y-171251740D02*
G01*
X211334800Y-171251740D01*
X211334800Y-168749740D01*
X212176800Y-168749740D01*
X212176800Y-171251740D01*
X212176800Y-171251740D01*
G37*
G36*
X210906800Y-171251740D02*
G01*
X210064800Y-171251740D01*
X210064800Y-168749740D01*
X210906800Y-168749740D01*
X210906800Y-171251740D01*
X210906800Y-171251740D01*
G37*
G36*
X208366800Y-171251740D02*
G01*
X207524800Y-171251740D01*
X207524800Y-168749740D01*
X208366800Y-168749740D01*
X208366800Y-171251740D01*
X208366800Y-171251740D01*
G37*
G36*
X209636800Y-171251740D02*
G01*
X208794800Y-171251740D01*
X208794800Y-168749740D01*
X209636800Y-168749740D01*
X209636800Y-171251740D01*
X209636800Y-171251740D01*
G37*
G36*
X207096800Y-171251740D02*
G01*
X206254800Y-171251740D01*
X206254800Y-168749740D01*
X207096800Y-168749740D01*
X207096800Y-171251740D01*
X207096800Y-171251740D01*
G37*
G36*
X132587540Y-171140940D02*
G01*
X130485540Y-171140940D01*
X130485540Y-170538940D01*
X132587540Y-170538940D01*
X132587540Y-171140940D01*
X132587540Y-171140940D01*
G37*
G36*
X122587540Y-171140940D02*
G01*
X120485540Y-171140940D01*
X120485540Y-170538940D01*
X122587540Y-170538940D01*
X122587540Y-171140940D01*
X122587540Y-171140940D01*
G37*
G36*
X199061800Y-171086740D02*
G01*
X197409800Y-171086740D01*
X197409800Y-170384740D01*
X199061800Y-170384740D01*
X199061800Y-171086740D01*
X199061800Y-171086740D01*
G37*
G36*
X193661800Y-171086740D02*
G01*
X192009800Y-171086740D01*
X192009800Y-170384740D01*
X193661800Y-170384740D01*
X193661800Y-171086740D01*
X193661800Y-171086740D01*
G37*
G36*
X262976060Y-170092540D02*
G01*
X260874060Y-170092540D01*
X260874060Y-169490540D01*
X262976060Y-169490540D01*
X262976060Y-170092540D01*
X262976060Y-170092540D01*
G37*
G36*
X272976060Y-170092540D02*
G01*
X270874060Y-170092540D01*
X270874060Y-169490540D01*
X272976060Y-169490540D01*
X272976060Y-170092540D01*
X272976060Y-170092540D01*
G37*
G36*
X214736800Y-169871740D02*
G01*
X213734800Y-169871740D01*
X213734800Y-168769740D01*
X214736800Y-168769740D01*
X214736800Y-169871740D01*
X214736800Y-169871740D01*
G37*
G36*
X218836800Y-169871740D02*
G01*
X217834800Y-169871740D01*
X217834800Y-168769740D01*
X218836800Y-168769740D01*
X218836800Y-169871740D01*
X218836800Y-169871740D01*
G37*
G36*
X122587540Y-169870940D02*
G01*
X120485540Y-169870940D01*
X120485540Y-169268940D01*
X122587540Y-169268940D01*
X122587540Y-169870940D01*
X122587540Y-169870940D01*
G37*
G36*
X132587540Y-169870940D02*
G01*
X130485540Y-169870940D01*
X130485540Y-169268940D01*
X132587540Y-169268940D01*
X132587540Y-169870940D01*
X132587540Y-169870940D01*
G37*
G36*
X193661800Y-169816740D02*
G01*
X192009800Y-169816740D01*
X192009800Y-169114740D01*
X193661800Y-169114740D01*
X193661800Y-169816740D01*
X193661800Y-169816740D01*
G37*
G36*
X199061800Y-169816740D02*
G01*
X197409800Y-169816740D01*
X197409800Y-169114740D01*
X199061800Y-169114740D01*
X199061800Y-169816740D01*
X199061800Y-169816740D01*
G37*
G36*
X175732224Y-165758500D02*
G01*
X175732227Y-165758501D01*
X175732228Y-165758501D01*
X175911492Y-165812880D01*
X175911495Y-165812882D01*
X175911496Y-165812882D01*
X176076703Y-165901186D01*
X176221512Y-166020028D01*
X176340354Y-166164837D01*
X176403267Y-166282540D01*
X176428660Y-166330047D01*
X176428660Y-166330048D01*
X176483040Y-166509315D01*
X176496800Y-166649022D01*
X176496800Y-168542458D01*
X176483040Y-168682165D01*
X176483039Y-168682168D01*
X176483039Y-168682169D01*
X176428660Y-168861433D01*
X176428658Y-168861436D01*
X176428658Y-168861437D01*
X176340354Y-169026643D01*
X176221512Y-169171452D01*
X176076703Y-169290294D01*
X175911497Y-169378598D01*
X175911493Y-169378600D01*
X175732229Y-169432979D01*
X175732228Y-169432979D01*
X175732225Y-169432980D01*
X175545800Y-169451341D01*
X175359376Y-169432980D01*
X175359373Y-169432979D01*
X175359372Y-169432979D01*
X175180108Y-169378600D01*
X175180104Y-169378598D01*
X175014898Y-169290294D01*
X174870089Y-169171452D01*
X174751247Y-169026643D01*
X174662943Y-168861437D01*
X174662943Y-168861436D01*
X174662941Y-168861433D01*
X174608562Y-168682169D01*
X174608562Y-168682168D01*
X174608561Y-168682165D01*
X174594800Y-168542457D01*
X174594800Y-166649023D01*
X174608560Y-166509316D01*
X174608561Y-166509312D01*
X174662940Y-166330048D01*
X174662943Y-166330043D01*
X174751246Y-166164837D01*
X174870088Y-166020028D01*
X175014897Y-165901186D01*
X175180103Y-165812882D01*
X175180104Y-165812882D01*
X175180107Y-165812880D01*
X175359371Y-165758501D01*
X175359372Y-165758501D01*
X175359375Y-165758500D01*
X175545800Y-165740139D01*
X175732224Y-165758500D01*
X175732224Y-165758500D01*
G37*
G36*
X179542224Y-165758500D02*
G01*
X179542227Y-165758501D01*
X179542228Y-165758501D01*
X179721492Y-165812880D01*
X179721495Y-165812882D01*
X179721496Y-165812882D01*
X179886703Y-165901186D01*
X180031512Y-166020028D01*
X180150354Y-166164837D01*
X180213267Y-166282540D01*
X180238660Y-166330047D01*
X180238660Y-166330048D01*
X180293040Y-166509315D01*
X180306800Y-166649022D01*
X180306800Y-168542458D01*
X180293040Y-168682165D01*
X180293039Y-168682168D01*
X180293039Y-168682169D01*
X180238660Y-168861433D01*
X180238658Y-168861436D01*
X180238658Y-168861437D01*
X180150354Y-169026643D01*
X180031512Y-169171452D01*
X179886703Y-169290294D01*
X179721497Y-169378598D01*
X179721493Y-169378600D01*
X179542229Y-169432979D01*
X179542228Y-169432979D01*
X179542225Y-169432980D01*
X179355800Y-169451341D01*
X179169376Y-169432980D01*
X179169373Y-169432979D01*
X179169372Y-169432979D01*
X178990108Y-169378600D01*
X178990104Y-169378598D01*
X178824898Y-169290294D01*
X178680089Y-169171452D01*
X178561247Y-169026643D01*
X178472943Y-168861437D01*
X178472943Y-168861436D01*
X178472941Y-168861433D01*
X178418562Y-168682169D01*
X178418562Y-168682168D01*
X178418561Y-168682165D01*
X178404800Y-168542457D01*
X178404800Y-166649023D01*
X178418560Y-166509316D01*
X178418561Y-166509312D01*
X178472940Y-166330048D01*
X178472943Y-166330043D01*
X178561246Y-166164837D01*
X178680088Y-166020028D01*
X178824897Y-165901186D01*
X178990103Y-165812882D01*
X178990104Y-165812882D01*
X178990107Y-165812880D01*
X179169371Y-165758501D01*
X179169372Y-165758501D01*
X179169375Y-165758500D01*
X179355800Y-165740139D01*
X179542224Y-165758500D01*
X179542224Y-165758500D01*
G37*
G36*
X183352224Y-165758500D02*
G01*
X183352227Y-165758501D01*
X183352228Y-165758501D01*
X183531492Y-165812880D01*
X183531495Y-165812882D01*
X183531496Y-165812882D01*
X183696703Y-165901186D01*
X183841512Y-166020028D01*
X183960354Y-166164837D01*
X184023267Y-166282540D01*
X184048660Y-166330047D01*
X184048660Y-166330048D01*
X184103040Y-166509315D01*
X184116800Y-166649022D01*
X184116800Y-168542458D01*
X184103040Y-168682165D01*
X184103039Y-168682168D01*
X184103039Y-168682169D01*
X184048660Y-168861433D01*
X184048658Y-168861436D01*
X184048658Y-168861437D01*
X183960354Y-169026643D01*
X183841512Y-169171452D01*
X183696703Y-169290294D01*
X183531497Y-169378598D01*
X183531493Y-169378600D01*
X183352229Y-169432979D01*
X183352228Y-169432979D01*
X183352225Y-169432980D01*
X183165800Y-169451341D01*
X182979376Y-169432980D01*
X182979373Y-169432979D01*
X182979372Y-169432979D01*
X182800108Y-169378600D01*
X182800104Y-169378598D01*
X182634898Y-169290294D01*
X182490089Y-169171452D01*
X182371247Y-169026643D01*
X182282943Y-168861437D01*
X182282943Y-168861436D01*
X182282941Y-168861433D01*
X182228562Y-168682169D01*
X182228562Y-168682168D01*
X182228561Y-168682165D01*
X182214800Y-168542457D01*
X182214800Y-166649023D01*
X182228560Y-166509316D01*
X182228561Y-166509312D01*
X182282940Y-166330048D01*
X182282943Y-166330043D01*
X182371246Y-166164837D01*
X182490088Y-166020028D01*
X182634897Y-165901186D01*
X182800103Y-165812882D01*
X182800104Y-165812882D01*
X182800107Y-165812880D01*
X182979371Y-165758501D01*
X182979372Y-165758501D01*
X182979375Y-165758500D01*
X183165800Y-165740139D01*
X183352224Y-165758500D01*
X183352224Y-165758500D01*
G37*
G36*
X172686800Y-169446740D02*
G01*
X170784800Y-169446740D01*
X170784800Y-165744740D01*
X172686800Y-165744740D01*
X172686800Y-169446740D01*
X172686800Y-169446740D01*
G37*
G36*
X262976060Y-168822540D02*
G01*
X260874060Y-168822540D01*
X260874060Y-168220540D01*
X262976060Y-168220540D01*
X262976060Y-168822540D01*
X262976060Y-168822540D01*
G37*
G36*
X272976060Y-168822540D02*
G01*
X270874060Y-168822540D01*
X270874060Y-168220540D01*
X272976060Y-168220540D01*
X272976060Y-168822540D01*
X272976060Y-168822540D01*
G37*
G36*
X122587540Y-168600940D02*
G01*
X120485540Y-168600940D01*
X120485540Y-167998940D01*
X122587540Y-167998940D01*
X122587540Y-168600940D01*
X122587540Y-168600940D01*
G37*
G36*
X132587540Y-168600940D02*
G01*
X130485540Y-168600940D01*
X130485540Y-167998940D01*
X132587540Y-167998940D01*
X132587540Y-168600940D01*
X132587540Y-168600940D01*
G37*
G36*
X214736800Y-168271740D02*
G01*
X213734800Y-168271740D01*
X213734800Y-167169740D01*
X214736800Y-167169740D01*
X214736800Y-168271740D01*
X214736800Y-168271740D01*
G37*
G36*
X218836800Y-168271740D02*
G01*
X217834800Y-168271740D01*
X217834800Y-167169740D01*
X218836800Y-167169740D01*
X218836800Y-168271740D01*
X218836800Y-168271740D01*
G37*
G36*
X272976060Y-167552540D02*
G01*
X270874060Y-167552540D01*
X270874060Y-166950540D01*
X272976060Y-166950540D01*
X272976060Y-167552540D01*
X272976060Y-167552540D01*
G37*
G36*
X262976060Y-167552540D02*
G01*
X260874060Y-167552540D01*
X260874060Y-166950540D01*
X262976060Y-166950540D01*
X262976060Y-167552540D01*
X262976060Y-167552540D01*
G37*
G36*
X132587540Y-167330940D02*
G01*
X130485540Y-167330940D01*
X130485540Y-166728940D01*
X132587540Y-166728940D01*
X132587540Y-167330940D01*
X132587540Y-167330940D01*
G37*
G36*
X122587540Y-167330940D02*
G01*
X120485540Y-167330940D01*
X120485540Y-166728940D01*
X122587540Y-166728940D01*
X122587540Y-167330940D01*
X122587540Y-167330940D01*
G37*
G36*
X262976060Y-166282540D02*
G01*
X260874060Y-166282540D01*
X260874060Y-165680540D01*
X262976060Y-165680540D01*
X262976060Y-166282540D01*
X262976060Y-166282540D01*
G37*
G36*
X272976060Y-166282540D02*
G01*
X270874060Y-166282540D01*
X270874060Y-165680540D01*
X272976060Y-165680540D01*
X272976060Y-166282540D01*
X272976060Y-166282540D01*
G37*
G36*
X132587540Y-166060940D02*
G01*
X130485540Y-166060940D01*
X130485540Y-165458940D01*
X132587540Y-165458940D01*
X132587540Y-166060940D01*
X132587540Y-166060940D01*
G37*
G36*
X122587540Y-166060940D02*
G01*
X120485540Y-166060940D01*
X120485540Y-165458940D01*
X122587540Y-165458940D01*
X122587540Y-166060940D01*
X122587540Y-166060940D01*
G37*
G36*
X208786800Y-165111740D02*
G01*
X207784800Y-165111740D01*
X207784800Y-164509740D01*
X208786800Y-164509740D01*
X208786800Y-165111740D01*
X208786800Y-165111740D01*
G37*
G36*
X205876800Y-165081740D02*
G01*
X204874800Y-165081740D01*
X204874800Y-164479740D01*
X205876800Y-164479740D01*
X205876800Y-165081740D01*
X205876800Y-165081740D01*
G37*
G36*
X203961800Y-165071740D02*
G01*
X202959800Y-165071740D01*
X202959800Y-164469740D01*
X203961800Y-164469740D01*
X203961800Y-165071740D01*
X203961800Y-165071740D01*
G37*
G36*
X262976060Y-165012540D02*
G01*
X260874060Y-165012540D01*
X260874060Y-164410540D01*
X262976060Y-164410540D01*
X262976060Y-165012540D01*
X262976060Y-165012540D01*
G37*
G36*
X272976060Y-165012540D02*
G01*
X270874060Y-165012540D01*
X270874060Y-164410540D01*
X272976060Y-164410540D01*
X272976060Y-165012540D01*
X272976060Y-165012540D01*
G37*
G36*
X132587540Y-164790940D02*
G01*
X130485540Y-164790940D01*
X130485540Y-164188940D01*
X132587540Y-164188940D01*
X132587540Y-164790940D01*
X132587540Y-164790940D01*
G37*
G36*
X122587540Y-164790940D02*
G01*
X120485540Y-164790940D01*
X120485540Y-164188940D01*
X122587540Y-164188940D01*
X122587540Y-164790940D01*
X122587540Y-164790940D01*
G37*
G36*
X199221800Y-164731740D02*
G01*
X193369800Y-164731740D01*
X193369800Y-163329740D01*
X199221800Y-163329740D01*
X199221800Y-164731740D01*
X199221800Y-164731740D01*
G37*
G36*
X272976060Y-163742540D02*
G01*
X270874060Y-163742540D01*
X270874060Y-163140540D01*
X272976060Y-163140540D01*
X272976060Y-163742540D01*
X272976060Y-163742540D01*
G37*
G36*
X262976060Y-163742540D02*
G01*
X260874060Y-163742540D01*
X260874060Y-163140540D01*
X262976060Y-163140540D01*
X262976060Y-163742540D01*
X262976060Y-163742540D01*
G37*
G36*
X208786800Y-163611740D02*
G01*
X207784800Y-163611740D01*
X207784800Y-163009740D01*
X208786800Y-163009740D01*
X208786800Y-163611740D01*
X208786800Y-163611740D01*
G37*
G36*
X205876800Y-163581740D02*
G01*
X204874800Y-163581740D01*
X204874800Y-162979740D01*
X205876800Y-162979740D01*
X205876800Y-163581740D01*
X205876800Y-163581740D01*
G37*
G36*
X203961800Y-163571740D02*
G01*
X202959800Y-163571740D01*
X202959800Y-162969740D01*
X203961800Y-162969740D01*
X203961800Y-163571740D01*
X203961800Y-163571740D01*
G37*
G36*
X122587540Y-163520940D02*
G01*
X120485540Y-163520940D01*
X120485540Y-162918940D01*
X122587540Y-162918940D01*
X122587540Y-163520940D01*
X122587540Y-163520940D01*
G37*
G36*
X132587540Y-163520940D02*
G01*
X130485540Y-163520940D01*
X130485540Y-162918940D01*
X132587540Y-162918940D01*
X132587540Y-163520940D01*
X132587540Y-163520940D01*
G37*
G36*
X201346800Y-162606740D02*
G01*
X199944800Y-162606740D01*
X199944800Y-156754740D01*
X201346800Y-156754740D01*
X201346800Y-162606740D01*
X201346800Y-162606740D01*
G37*
G36*
X192646800Y-162606740D02*
G01*
X191244800Y-162606740D01*
X191244800Y-156754740D01*
X192646800Y-156754740D01*
X192646800Y-162606740D01*
X192646800Y-162606740D01*
G37*
G36*
X262976060Y-162472540D02*
G01*
X260874060Y-162472540D01*
X260874060Y-161870540D01*
X262976060Y-161870540D01*
X262976060Y-162472540D01*
X262976060Y-162472540D01*
G37*
G36*
X272976060Y-162472540D02*
G01*
X270874060Y-162472540D01*
X270874060Y-161870540D01*
X272976060Y-161870540D01*
X272976060Y-162472540D01*
X272976060Y-162472540D01*
G37*
G36*
X122587540Y-162250940D02*
G01*
X120485540Y-162250940D01*
X120485540Y-161648940D01*
X122587540Y-161648940D01*
X122587540Y-162250940D01*
X122587540Y-162250940D01*
G37*
G36*
X132587540Y-162250940D02*
G01*
X130485540Y-162250940D01*
X130485540Y-161648940D01*
X132587540Y-161648940D01*
X132587540Y-162250940D01*
X132587540Y-162250940D01*
G37*
G36*
X262976060Y-161202540D02*
G01*
X260874060Y-161202540D01*
X260874060Y-160600540D01*
X262976060Y-160600540D01*
X262976060Y-161202540D01*
X262976060Y-161202540D01*
G37*
G36*
X272976060Y-161202540D02*
G01*
X270874060Y-161202540D01*
X270874060Y-160600540D01*
X272976060Y-160600540D01*
X272976060Y-161202540D01*
X272976060Y-161202540D01*
G37*
G36*
X122587540Y-160980940D02*
G01*
X120485540Y-160980940D01*
X120485540Y-160378940D01*
X122587540Y-160378940D01*
X122587540Y-160980940D01*
X122587540Y-160980940D01*
G37*
G36*
X132587540Y-160980940D02*
G01*
X130485540Y-160980940D01*
X130485540Y-160378940D01*
X132587540Y-160378940D01*
X132587540Y-160980940D01*
X132587540Y-160980940D01*
G37*
G36*
X205591800Y-160881740D02*
G01*
X204739800Y-160881740D01*
X204739800Y-159979740D01*
X205591800Y-159979740D01*
X205591800Y-160881740D01*
X205591800Y-160881740D01*
G37*
G36*
X203891800Y-160881740D02*
G01*
X203039800Y-160881740D01*
X203039800Y-159979740D01*
X203891800Y-159979740D01*
X203891800Y-160881740D01*
X203891800Y-160881740D01*
G37*
G36*
X272976060Y-159932540D02*
G01*
X270874060Y-159932540D01*
X270874060Y-159330540D01*
X272976060Y-159330540D01*
X272976060Y-159932540D01*
X272976060Y-159932540D01*
G37*
G36*
X262976060Y-159932540D02*
G01*
X260874060Y-159932540D01*
X260874060Y-159330540D01*
X262976060Y-159330540D01*
X262976060Y-159932540D01*
X262976060Y-159932540D01*
G37*
G36*
X122587540Y-159710940D02*
G01*
X120485540Y-159710940D01*
X120485540Y-159108940D01*
X122587540Y-159108940D01*
X122587540Y-159710940D01*
X122587540Y-159710940D01*
G37*
G36*
X132587540Y-159710940D02*
G01*
X130485540Y-159710940D01*
X130485540Y-159108940D01*
X132587540Y-159108940D01*
X132587540Y-159710940D01*
X132587540Y-159710940D01*
G37*
G36*
X203891800Y-159381740D02*
G01*
X203039800Y-159381740D01*
X203039800Y-158479740D01*
X203891800Y-158479740D01*
X203891800Y-159381740D01*
X203891800Y-159381740D01*
G37*
G36*
X205591800Y-159381740D02*
G01*
X204739800Y-159381740D01*
X204739800Y-158479740D01*
X205591800Y-158479740D01*
X205591800Y-159381740D01*
X205591800Y-159381740D01*
G37*
G36*
X262976060Y-158662540D02*
G01*
X260874060Y-158662540D01*
X260874060Y-158060540D01*
X262976060Y-158060540D01*
X262976060Y-158662540D01*
X262976060Y-158662540D01*
G37*
G36*
X272976060Y-158662540D02*
G01*
X270874060Y-158662540D01*
X270874060Y-158060540D01*
X272976060Y-158060540D01*
X272976060Y-158662540D01*
X272976060Y-158662540D01*
G37*
G36*
X122587540Y-158440940D02*
G01*
X120485540Y-158440940D01*
X120485540Y-157838940D01*
X122587540Y-157838940D01*
X122587540Y-158440940D01*
X122587540Y-158440940D01*
G37*
G36*
X132587540Y-158440940D02*
G01*
X130485540Y-158440940D01*
X130485540Y-157838940D01*
X132587540Y-157838940D01*
X132587540Y-158440940D01*
X132587540Y-158440940D01*
G37*
G36*
X177072585Y-154798802D02*
G01*
X177222410Y-154828604D01*
X177504674Y-154945521D01*
X177758705Y-155115259D01*
X177974741Y-155331295D01*
X178144479Y-155585326D01*
X178261396Y-155867590D01*
X178321000Y-156167240D01*
X178321000Y-156472760D01*
X178261396Y-156772410D01*
X178144479Y-157054674D01*
X177974741Y-157308705D01*
X177758705Y-157524741D01*
X177504674Y-157694479D01*
X177222410Y-157811396D01*
X177083937Y-157838940D01*
X176922761Y-157871000D01*
X176617239Y-157871000D01*
X176456063Y-157838940D01*
X176317590Y-157811396D01*
X176035326Y-157694479D01*
X175781295Y-157524741D01*
X175565259Y-157308705D01*
X175395521Y-157054674D01*
X175278604Y-156772410D01*
X175219000Y-156472760D01*
X175219000Y-156167240D01*
X175278604Y-155867590D01*
X175395521Y-155585326D01*
X175565259Y-155331295D01*
X175781295Y-155115259D01*
X176035326Y-154945521D01*
X176317590Y-154828604D01*
X176467415Y-154798802D01*
X176617239Y-154769000D01*
X176922761Y-154769000D01*
X177072585Y-154798802D01*
X177072585Y-154798802D01*
G37*
G36*
X247072585Y-154798802D02*
G01*
X247222410Y-154828604D01*
X247504674Y-154945521D01*
X247758705Y-155115259D01*
X247974741Y-155331295D01*
X248144479Y-155585326D01*
X248261396Y-155867590D01*
X248321000Y-156167240D01*
X248321000Y-156472760D01*
X248261396Y-156772410D01*
X248144479Y-157054674D01*
X247974741Y-157308705D01*
X247758705Y-157524741D01*
X247504674Y-157694479D01*
X247222410Y-157811396D01*
X247083937Y-157838940D01*
X246922761Y-157871000D01*
X246617239Y-157871000D01*
X246456063Y-157838940D01*
X246317590Y-157811396D01*
X246035326Y-157694479D01*
X245781295Y-157524741D01*
X245565259Y-157308705D01*
X245395521Y-157054674D01*
X245278604Y-156772410D01*
X245219000Y-156472760D01*
X245219000Y-156167240D01*
X245278604Y-155867590D01*
X245395521Y-155585326D01*
X245565259Y-155331295D01*
X245781295Y-155115259D01*
X246035326Y-154945521D01*
X246317590Y-154828604D01*
X246467415Y-154798802D01*
X246617239Y-154769000D01*
X246922761Y-154769000D01*
X247072585Y-154798802D01*
X247072585Y-154798802D01*
G37*
G36*
X216072585Y-154798802D02*
G01*
X216222410Y-154828604D01*
X216504674Y-154945521D01*
X216758705Y-155115259D01*
X216974741Y-155331295D01*
X217144479Y-155585326D01*
X217261396Y-155867590D01*
X217321000Y-156167240D01*
X217321000Y-156472760D01*
X217261396Y-156772410D01*
X217144479Y-157054674D01*
X216974741Y-157308705D01*
X216758705Y-157524741D01*
X216504674Y-157694479D01*
X216222410Y-157811396D01*
X216083937Y-157838940D01*
X215922761Y-157871000D01*
X215617239Y-157871000D01*
X215456063Y-157838940D01*
X215317590Y-157811396D01*
X215035326Y-157694479D01*
X214781295Y-157524741D01*
X214565259Y-157308705D01*
X214395521Y-157054674D01*
X214278604Y-156772410D01*
X214219000Y-156472760D01*
X214219000Y-156167240D01*
X214278604Y-155867590D01*
X214395521Y-155585326D01*
X214565259Y-155331295D01*
X214781295Y-155115259D01*
X215035326Y-154945521D01*
X215317590Y-154828604D01*
X215467415Y-154798802D01*
X215617239Y-154769000D01*
X215922761Y-154769000D01*
X216072585Y-154798802D01*
X216072585Y-154798802D01*
G37*
G36*
X146072585Y-154798802D02*
G01*
X146222410Y-154828604D01*
X146504674Y-154945521D01*
X146758705Y-155115259D01*
X146974741Y-155331295D01*
X147144479Y-155585326D01*
X147261396Y-155867590D01*
X147321000Y-156167240D01*
X147321000Y-156472760D01*
X147261396Y-156772410D01*
X147144479Y-157054674D01*
X146974741Y-157308705D01*
X146758705Y-157524741D01*
X146504674Y-157694479D01*
X146222410Y-157811396D01*
X146083937Y-157838940D01*
X145922761Y-157871000D01*
X145617239Y-157871000D01*
X145456063Y-157838940D01*
X145317590Y-157811396D01*
X145035326Y-157694479D01*
X144781295Y-157524741D01*
X144565259Y-157308705D01*
X144395521Y-157054674D01*
X144278604Y-156772410D01*
X144219000Y-156472760D01*
X144219000Y-156167240D01*
X144278604Y-155867590D01*
X144395521Y-155585326D01*
X144565259Y-155331295D01*
X144781295Y-155115259D01*
X145035326Y-154945521D01*
X145317590Y-154828604D01*
X145467415Y-154798802D01*
X145617239Y-154769000D01*
X145922761Y-154769000D01*
X146072585Y-154798802D01*
X146072585Y-154798802D01*
G37*
G36*
X286072585Y-154798802D02*
G01*
X286222410Y-154828604D01*
X286504674Y-154945521D01*
X286758705Y-155115259D01*
X286974741Y-155331295D01*
X287144479Y-155585326D01*
X287261396Y-155867590D01*
X287321000Y-156167240D01*
X287321000Y-156472760D01*
X287261396Y-156772410D01*
X287144479Y-157054674D01*
X286974741Y-157308705D01*
X286758705Y-157524741D01*
X286504674Y-157694479D01*
X286222410Y-157811396D01*
X286083937Y-157838940D01*
X285922761Y-157871000D01*
X285617239Y-157871000D01*
X285456063Y-157838940D01*
X285317590Y-157811396D01*
X285035326Y-157694479D01*
X284781295Y-157524741D01*
X284565259Y-157308705D01*
X284395521Y-157054674D01*
X284278604Y-156772410D01*
X284219000Y-156472760D01*
X284219000Y-156167240D01*
X284278604Y-155867590D01*
X284395521Y-155585326D01*
X284565259Y-155331295D01*
X284781295Y-155115259D01*
X285035326Y-154945521D01*
X285317590Y-154828604D01*
X285467415Y-154798802D01*
X285617239Y-154769000D01*
X285922761Y-154769000D01*
X286072585Y-154798802D01*
X286072585Y-154798802D01*
G37*
G36*
X317072585Y-154798802D02*
G01*
X317222410Y-154828604D01*
X317504674Y-154945521D01*
X317758705Y-155115259D01*
X317974741Y-155331295D01*
X318144479Y-155585326D01*
X318261396Y-155867590D01*
X318321000Y-156167240D01*
X318321000Y-156472760D01*
X318261396Y-156772410D01*
X318144479Y-157054674D01*
X317974741Y-157308705D01*
X317758705Y-157524741D01*
X317504674Y-157694479D01*
X317222410Y-157811396D01*
X317083937Y-157838940D01*
X316922761Y-157871000D01*
X316617239Y-157871000D01*
X316456063Y-157838940D01*
X316317590Y-157811396D01*
X316035326Y-157694479D01*
X315781295Y-157524741D01*
X315565259Y-157308705D01*
X315395521Y-157054674D01*
X315278604Y-156772410D01*
X315219000Y-156472760D01*
X315219000Y-156167240D01*
X315278604Y-155867590D01*
X315395521Y-155585326D01*
X315565259Y-155331295D01*
X315781295Y-155115259D01*
X316035326Y-154945521D01*
X316317590Y-154828604D01*
X316467415Y-154798802D01*
X316617239Y-154769000D01*
X316922761Y-154769000D01*
X317072585Y-154798802D01*
X317072585Y-154798802D01*
G37*
G36*
X107072585Y-154798802D02*
G01*
X107222410Y-154828604D01*
X107504674Y-154945521D01*
X107758705Y-155115259D01*
X107974741Y-155331295D01*
X108144479Y-155585326D01*
X108261396Y-155867590D01*
X108321000Y-156167240D01*
X108321000Y-156472760D01*
X108261396Y-156772410D01*
X108144479Y-157054674D01*
X107974741Y-157308705D01*
X107758705Y-157524741D01*
X107504674Y-157694479D01*
X107222410Y-157811396D01*
X107083937Y-157838940D01*
X106922761Y-157871000D01*
X106617239Y-157871000D01*
X106456063Y-157838940D01*
X106317590Y-157811396D01*
X106035326Y-157694479D01*
X105781295Y-157524741D01*
X105565259Y-157308705D01*
X105395521Y-157054674D01*
X105278604Y-156772410D01*
X105219000Y-156472760D01*
X105219000Y-156167240D01*
X105278604Y-155867590D01*
X105395521Y-155585326D01*
X105565259Y-155331295D01*
X105781295Y-155115259D01*
X106035326Y-154945521D01*
X106317590Y-154828604D01*
X106467415Y-154798802D01*
X106617239Y-154769000D01*
X106922761Y-154769000D01*
X107072585Y-154798802D01*
X107072585Y-154798802D01*
G37*
G36*
X76072585Y-154798802D02*
G01*
X76222410Y-154828604D01*
X76504674Y-154945521D01*
X76758705Y-155115259D01*
X76974741Y-155331295D01*
X77144479Y-155585326D01*
X77261396Y-155867590D01*
X77321000Y-156167240D01*
X77321000Y-156472760D01*
X77261396Y-156772410D01*
X77144479Y-157054674D01*
X76974741Y-157308705D01*
X76758705Y-157524741D01*
X76504674Y-157694479D01*
X76222410Y-157811396D01*
X76083937Y-157838940D01*
X75922761Y-157871000D01*
X75617239Y-157871000D01*
X75456063Y-157838940D01*
X75317590Y-157811396D01*
X75035326Y-157694479D01*
X74781295Y-157524741D01*
X74565259Y-157308705D01*
X74395521Y-157054674D01*
X74278604Y-156772410D01*
X74219000Y-156472760D01*
X74219000Y-156167240D01*
X74278604Y-155867590D01*
X74395521Y-155585326D01*
X74565259Y-155331295D01*
X74781295Y-155115259D01*
X75035326Y-154945521D01*
X75317590Y-154828604D01*
X75467415Y-154798802D01*
X75617239Y-154769000D01*
X75922761Y-154769000D01*
X76072585Y-154798802D01*
X76072585Y-154798802D01*
G37*
G36*
X272976060Y-157392540D02*
G01*
X270874060Y-157392540D01*
X270874060Y-156790540D01*
X272976060Y-156790540D01*
X272976060Y-157392540D01*
X272976060Y-157392540D01*
G37*
G36*
X262976060Y-157392540D02*
G01*
X260874060Y-157392540D01*
X260874060Y-156790540D01*
X262976060Y-156790540D01*
X262976060Y-157392540D01*
X262976060Y-157392540D01*
G37*
G36*
X118811800Y-157246740D02*
G01*
X117909800Y-157246740D01*
X117909800Y-156394740D01*
X118811800Y-156394740D01*
X118811800Y-157246740D01*
X118811800Y-157246740D01*
G37*
G36*
X117311800Y-157246740D02*
G01*
X116409800Y-157246740D01*
X116409800Y-156394740D01*
X117311800Y-156394740D01*
X117311800Y-157246740D01*
X117311800Y-157246740D01*
G37*
G36*
X132587540Y-157170940D02*
G01*
X130485540Y-157170940D01*
X130485540Y-156568940D01*
X132587540Y-156568940D01*
X132587540Y-157170940D01*
X132587540Y-157170940D01*
G37*
G36*
X122587540Y-157170940D02*
G01*
X120485540Y-157170940D01*
X120485540Y-156568940D01*
X122587540Y-156568940D01*
X122587540Y-157170940D01*
X122587540Y-157170940D01*
G37*
G36*
X161805331Y-153528211D02*
G01*
X162133092Y-153663974D01*
X162428070Y-153861072D01*
X162678928Y-154111930D01*
X162876026Y-154406908D01*
X163011789Y-154734669D01*
X163081000Y-155082616D01*
X163081000Y-155437384D01*
X163011789Y-155785331D01*
X162876026Y-156113092D01*
X162678928Y-156408070D01*
X162428070Y-156658928D01*
X162133092Y-156856026D01*
X161805331Y-156991789D01*
X161457384Y-157061000D01*
X161102616Y-157061000D01*
X160754669Y-156991789D01*
X160426908Y-156856026D01*
X160131930Y-156658928D01*
X159881072Y-156408070D01*
X159683974Y-156113092D01*
X159548211Y-155785331D01*
X159479000Y-155437384D01*
X159479000Y-155082616D01*
X159548211Y-154734669D01*
X159683974Y-154406908D01*
X159881072Y-154111930D01*
X160131930Y-153861072D01*
X160426908Y-153663974D01*
X160754669Y-153528211D01*
X161102616Y-153459000D01*
X161457384Y-153459000D01*
X161805331Y-153528211D01*
X161805331Y-153528211D01*
G37*
G36*
X91805331Y-153528211D02*
G01*
X92133092Y-153663974D01*
X92428070Y-153861072D01*
X92678928Y-154111930D01*
X92876026Y-154406908D01*
X93011789Y-154734669D01*
X93081000Y-155082616D01*
X93081000Y-155437384D01*
X93011789Y-155785331D01*
X92876026Y-156113092D01*
X92678928Y-156408070D01*
X92428070Y-156658928D01*
X92133092Y-156856026D01*
X91805331Y-156991789D01*
X91457384Y-157061000D01*
X91102616Y-157061000D01*
X90754669Y-156991789D01*
X90426908Y-156856026D01*
X90131930Y-156658928D01*
X89881072Y-156408070D01*
X89683974Y-156113092D01*
X89548211Y-155785331D01*
X89479000Y-155437384D01*
X89479000Y-155082616D01*
X89548211Y-154734669D01*
X89683974Y-154406908D01*
X89881072Y-154111930D01*
X90131930Y-153861072D01*
X90426908Y-153663974D01*
X90754669Y-153528211D01*
X91102616Y-153459000D01*
X91457384Y-153459000D01*
X91805331Y-153528211D01*
X91805331Y-153528211D01*
G37*
G36*
X231805331Y-153528211D02*
G01*
X232133092Y-153663974D01*
X232428070Y-153861072D01*
X232678928Y-154111930D01*
X232876026Y-154406908D01*
X233011789Y-154734669D01*
X233081000Y-155082616D01*
X233081000Y-155437384D01*
X233011789Y-155785331D01*
X232876026Y-156113092D01*
X232678928Y-156408070D01*
X232428070Y-156658928D01*
X232133092Y-156856026D01*
X231805331Y-156991789D01*
X231457384Y-157061000D01*
X231102616Y-157061000D01*
X230754669Y-156991789D01*
X230426908Y-156856026D01*
X230131930Y-156658928D01*
X229881072Y-156408070D01*
X229683974Y-156113092D01*
X229548211Y-155785331D01*
X229479000Y-155437384D01*
X229479000Y-155082616D01*
X229548211Y-154734669D01*
X229683974Y-154406908D01*
X229881072Y-154111930D01*
X230131930Y-153861072D01*
X230426908Y-153663974D01*
X230754669Y-153528211D01*
X231102616Y-153459000D01*
X231457384Y-153459000D01*
X231805331Y-153528211D01*
X231805331Y-153528211D01*
G37*
G36*
X301805331Y-153528211D02*
G01*
X302133092Y-153663974D01*
X302428070Y-153861072D01*
X302678928Y-154111930D01*
X302876026Y-154406908D01*
X303011789Y-154734669D01*
X303081000Y-155082616D01*
X303081000Y-155437384D01*
X303011789Y-155785331D01*
X302876026Y-156113092D01*
X302678928Y-156408070D01*
X302428070Y-156658928D01*
X302133092Y-156856026D01*
X301805331Y-156991789D01*
X301457384Y-157061000D01*
X301102616Y-157061000D01*
X300754669Y-156991789D01*
X300426908Y-156856026D01*
X300131930Y-156658928D01*
X299881072Y-156408070D01*
X299683974Y-156113092D01*
X299548211Y-155785331D01*
X299479000Y-155437384D01*
X299479000Y-155082616D01*
X299548211Y-154734669D01*
X299683974Y-154406908D01*
X299881072Y-154111930D01*
X300131930Y-153861072D01*
X300426908Y-153663974D01*
X300754669Y-153528211D01*
X301102616Y-153459000D01*
X301457384Y-153459000D01*
X301805331Y-153528211D01*
X301805331Y-153528211D01*
G37*
G36*
X199221800Y-156031740D02*
G01*
X193369800Y-156031740D01*
X193369800Y-154629740D01*
X199221800Y-154629740D01*
X199221800Y-156031740D01*
X199221800Y-156031740D01*
G37*
G36*
X282076564Y-153309389D02*
G01*
X282267833Y-153388615D01*
X282267835Y-153388616D01*
X282373172Y-153459000D01*
X282439973Y-153503635D01*
X282586365Y-153650027D01*
X282701385Y-153822167D01*
X282780611Y-154013436D01*
X282821000Y-154216484D01*
X282821000Y-154423516D01*
X282780611Y-154626564D01*
X282721612Y-154769000D01*
X282701384Y-154817835D01*
X282586365Y-154989973D01*
X282439973Y-155136365D01*
X282267835Y-155251384D01*
X282267834Y-155251385D01*
X282267833Y-155251385D01*
X282076564Y-155330611D01*
X281873516Y-155371000D01*
X281666484Y-155371000D01*
X281463436Y-155330611D01*
X281272167Y-155251385D01*
X281272166Y-155251385D01*
X281272165Y-155251384D01*
X281100027Y-155136365D01*
X280953635Y-154989973D01*
X280838616Y-154817835D01*
X280818388Y-154769000D01*
X280759389Y-154626564D01*
X280719000Y-154423516D01*
X280719000Y-154216484D01*
X280759389Y-154013436D01*
X280838615Y-153822167D01*
X280953635Y-153650027D01*
X281100027Y-153503635D01*
X281166828Y-153459000D01*
X281272165Y-153388616D01*
X281272167Y-153388615D01*
X281463436Y-153309389D01*
X281666484Y-153269000D01*
X281873516Y-153269000D01*
X282076564Y-153309389D01*
X282076564Y-153309389D01*
G37*
G36*
X251076564Y-153309389D02*
G01*
X251267833Y-153388615D01*
X251267835Y-153388616D01*
X251373172Y-153459000D01*
X251439973Y-153503635D01*
X251586365Y-153650027D01*
X251701385Y-153822167D01*
X251780611Y-154013436D01*
X251821000Y-154216484D01*
X251821000Y-154423516D01*
X251780611Y-154626564D01*
X251721612Y-154769000D01*
X251701384Y-154817835D01*
X251586365Y-154989973D01*
X251439973Y-155136365D01*
X251267835Y-155251384D01*
X251267834Y-155251385D01*
X251267833Y-155251385D01*
X251076564Y-155330611D01*
X250873516Y-155371000D01*
X250666484Y-155371000D01*
X250463436Y-155330611D01*
X250272167Y-155251385D01*
X250272166Y-155251385D01*
X250272165Y-155251384D01*
X250100027Y-155136365D01*
X249953635Y-154989973D01*
X249838616Y-154817835D01*
X249818388Y-154769000D01*
X249759389Y-154626564D01*
X249719000Y-154423516D01*
X249719000Y-154216484D01*
X249759389Y-154013436D01*
X249838615Y-153822167D01*
X249953635Y-153650027D01*
X250100027Y-153503635D01*
X250166828Y-153459000D01*
X250272165Y-153388616D01*
X250272167Y-153388615D01*
X250463436Y-153309389D01*
X250666484Y-153269000D01*
X250873516Y-153269000D01*
X251076564Y-153309389D01*
X251076564Y-153309389D01*
G37*
G36*
X243076564Y-153309389D02*
G01*
X243267833Y-153388615D01*
X243267835Y-153388616D01*
X243373172Y-153459000D01*
X243439973Y-153503635D01*
X243586365Y-153650027D01*
X243701385Y-153822167D01*
X243780611Y-154013436D01*
X243821000Y-154216484D01*
X243821000Y-154423516D01*
X243780611Y-154626564D01*
X243721612Y-154769000D01*
X243701384Y-154817835D01*
X243586365Y-154989973D01*
X243439973Y-155136365D01*
X243267835Y-155251384D01*
X243267834Y-155251385D01*
X243267833Y-155251385D01*
X243076564Y-155330611D01*
X242873516Y-155371000D01*
X242666484Y-155371000D01*
X242463436Y-155330611D01*
X242272167Y-155251385D01*
X242272166Y-155251385D01*
X242272165Y-155251384D01*
X242100027Y-155136365D01*
X241953635Y-154989973D01*
X241838616Y-154817835D01*
X241818388Y-154769000D01*
X241759389Y-154626564D01*
X241719000Y-154423516D01*
X241719000Y-154216484D01*
X241759389Y-154013436D01*
X241838615Y-153822167D01*
X241953635Y-153650027D01*
X242100027Y-153503635D01*
X242166828Y-153459000D01*
X242272165Y-153388616D01*
X242272167Y-153388615D01*
X242463436Y-153309389D01*
X242666484Y-153269000D01*
X242873516Y-153269000D01*
X243076564Y-153309389D01*
X243076564Y-153309389D01*
G37*
G36*
X220076564Y-153309389D02*
G01*
X220267833Y-153388615D01*
X220267835Y-153388616D01*
X220373172Y-153459000D01*
X220439973Y-153503635D01*
X220586365Y-153650027D01*
X220701385Y-153822167D01*
X220780611Y-154013436D01*
X220821000Y-154216484D01*
X220821000Y-154423516D01*
X220780611Y-154626564D01*
X220721612Y-154769000D01*
X220701384Y-154817835D01*
X220586365Y-154989973D01*
X220439973Y-155136365D01*
X220267835Y-155251384D01*
X220267834Y-155251385D01*
X220267833Y-155251385D01*
X220076564Y-155330611D01*
X219873516Y-155371000D01*
X219666484Y-155371000D01*
X219463436Y-155330611D01*
X219272167Y-155251385D01*
X219272166Y-155251385D01*
X219272165Y-155251384D01*
X219100027Y-155136365D01*
X218953635Y-154989973D01*
X218838616Y-154817835D01*
X218818388Y-154769000D01*
X218759389Y-154626564D01*
X218719000Y-154423516D01*
X218719000Y-154216484D01*
X218759389Y-154013436D01*
X218838615Y-153822167D01*
X218953635Y-153650027D01*
X219100027Y-153503635D01*
X219166828Y-153459000D01*
X219272165Y-153388616D01*
X219272167Y-153388615D01*
X219463436Y-153309389D01*
X219666484Y-153269000D01*
X219873516Y-153269000D01*
X220076564Y-153309389D01*
X220076564Y-153309389D01*
G37*
G36*
X212076564Y-153309389D02*
G01*
X212267833Y-153388615D01*
X212267835Y-153388616D01*
X212373172Y-153459000D01*
X212439973Y-153503635D01*
X212586365Y-153650027D01*
X212701385Y-153822167D01*
X212780611Y-154013436D01*
X212821000Y-154216484D01*
X212821000Y-154423516D01*
X212780611Y-154626564D01*
X212721612Y-154769000D01*
X212701384Y-154817835D01*
X212586365Y-154989973D01*
X212439973Y-155136365D01*
X212267835Y-155251384D01*
X212267834Y-155251385D01*
X212267833Y-155251385D01*
X212076564Y-155330611D01*
X211873516Y-155371000D01*
X211666484Y-155371000D01*
X211463436Y-155330611D01*
X211272167Y-155251385D01*
X211272166Y-155251385D01*
X211272165Y-155251384D01*
X211100027Y-155136365D01*
X210953635Y-154989973D01*
X210838616Y-154817835D01*
X210818388Y-154769000D01*
X210759389Y-154626564D01*
X210719000Y-154423516D01*
X210719000Y-154216484D01*
X210759389Y-154013436D01*
X210838615Y-153822167D01*
X210953635Y-153650027D01*
X211100027Y-153503635D01*
X211166828Y-153459000D01*
X211272165Y-153388616D01*
X211272167Y-153388615D01*
X211463436Y-153309389D01*
X211666484Y-153269000D01*
X211873516Y-153269000D01*
X212076564Y-153309389D01*
X212076564Y-153309389D01*
G37*
G36*
X181076564Y-153309389D02*
G01*
X181267833Y-153388615D01*
X181267835Y-153388616D01*
X181373172Y-153459000D01*
X181439973Y-153503635D01*
X181586365Y-153650027D01*
X181701385Y-153822167D01*
X181780611Y-154013436D01*
X181821000Y-154216484D01*
X181821000Y-154423516D01*
X181780611Y-154626564D01*
X181721612Y-154769000D01*
X181701384Y-154817835D01*
X181586365Y-154989973D01*
X181439973Y-155136365D01*
X181267835Y-155251384D01*
X181267834Y-155251385D01*
X181267833Y-155251385D01*
X181076564Y-155330611D01*
X180873516Y-155371000D01*
X180666484Y-155371000D01*
X180463436Y-155330611D01*
X180272167Y-155251385D01*
X180272166Y-155251385D01*
X180272165Y-155251384D01*
X180100027Y-155136365D01*
X179953635Y-154989973D01*
X179838616Y-154817835D01*
X179818388Y-154769000D01*
X179759389Y-154626564D01*
X179719000Y-154423516D01*
X179719000Y-154216484D01*
X179759389Y-154013436D01*
X179838615Y-153822167D01*
X179953635Y-153650027D01*
X180100027Y-153503635D01*
X180166828Y-153459000D01*
X180272165Y-153388616D01*
X180272167Y-153388615D01*
X180463436Y-153309389D01*
X180666484Y-153269000D01*
X180873516Y-153269000D01*
X181076564Y-153309389D01*
X181076564Y-153309389D01*
G37*
G36*
X173076564Y-153309389D02*
G01*
X173267833Y-153388615D01*
X173267835Y-153388616D01*
X173373172Y-153459000D01*
X173439973Y-153503635D01*
X173586365Y-153650027D01*
X173701385Y-153822167D01*
X173780611Y-154013436D01*
X173821000Y-154216484D01*
X173821000Y-154423516D01*
X173780611Y-154626564D01*
X173721612Y-154769000D01*
X173701384Y-154817835D01*
X173586365Y-154989973D01*
X173439973Y-155136365D01*
X173267835Y-155251384D01*
X173267834Y-155251385D01*
X173267833Y-155251385D01*
X173076564Y-155330611D01*
X172873516Y-155371000D01*
X172666484Y-155371000D01*
X172463436Y-155330611D01*
X172272167Y-155251385D01*
X172272166Y-155251385D01*
X172272165Y-155251384D01*
X172100027Y-155136365D01*
X171953635Y-154989973D01*
X171838616Y-154817835D01*
X171818388Y-154769000D01*
X171759389Y-154626564D01*
X171719000Y-154423516D01*
X171719000Y-154216484D01*
X171759389Y-154013436D01*
X171838615Y-153822167D01*
X171953635Y-153650027D01*
X172100027Y-153503635D01*
X172166828Y-153459000D01*
X172272165Y-153388616D01*
X172272167Y-153388615D01*
X172463436Y-153309389D01*
X172666484Y-153269000D01*
X172873516Y-153269000D01*
X173076564Y-153309389D01*
X173076564Y-153309389D01*
G37*
G36*
X150076564Y-153309389D02*
G01*
X150267833Y-153388615D01*
X150267835Y-153388616D01*
X150373172Y-153459000D01*
X150439973Y-153503635D01*
X150586365Y-153650027D01*
X150701385Y-153822167D01*
X150780611Y-154013436D01*
X150821000Y-154216484D01*
X150821000Y-154423516D01*
X150780611Y-154626564D01*
X150721612Y-154769000D01*
X150701384Y-154817835D01*
X150586365Y-154989973D01*
X150439973Y-155136365D01*
X150267835Y-155251384D01*
X150267834Y-155251385D01*
X150267833Y-155251385D01*
X150076564Y-155330611D01*
X149873516Y-155371000D01*
X149666484Y-155371000D01*
X149463436Y-155330611D01*
X149272167Y-155251385D01*
X149272166Y-155251385D01*
X149272165Y-155251384D01*
X149100027Y-155136365D01*
X148953635Y-154989973D01*
X148838616Y-154817835D01*
X148818388Y-154769000D01*
X148759389Y-154626564D01*
X148719000Y-154423516D01*
X148719000Y-154216484D01*
X148759389Y-154013436D01*
X148838615Y-153822167D01*
X148953635Y-153650027D01*
X149100027Y-153503635D01*
X149166828Y-153459000D01*
X149272165Y-153388616D01*
X149272167Y-153388615D01*
X149463436Y-153309389D01*
X149666484Y-153269000D01*
X149873516Y-153269000D01*
X150076564Y-153309389D01*
X150076564Y-153309389D01*
G37*
G36*
X313076564Y-153309389D02*
G01*
X313267833Y-153388615D01*
X313267835Y-153388616D01*
X313373172Y-153459000D01*
X313439973Y-153503635D01*
X313586365Y-153650027D01*
X313701385Y-153822167D01*
X313780611Y-154013436D01*
X313821000Y-154216484D01*
X313821000Y-154423516D01*
X313780611Y-154626564D01*
X313721612Y-154769000D01*
X313701384Y-154817835D01*
X313586365Y-154989973D01*
X313439973Y-155136365D01*
X313267835Y-155251384D01*
X313267834Y-155251385D01*
X313267833Y-155251385D01*
X313076564Y-155330611D01*
X312873516Y-155371000D01*
X312666484Y-155371000D01*
X312463436Y-155330611D01*
X312272167Y-155251385D01*
X312272166Y-155251385D01*
X312272165Y-155251384D01*
X312100027Y-155136365D01*
X311953635Y-154989973D01*
X311838616Y-154817835D01*
X311818388Y-154769000D01*
X311759389Y-154626564D01*
X311719000Y-154423516D01*
X311719000Y-154216484D01*
X311759389Y-154013436D01*
X311838615Y-153822167D01*
X311953635Y-153650027D01*
X312100027Y-153503635D01*
X312166828Y-153459000D01*
X312272165Y-153388616D01*
X312272167Y-153388615D01*
X312463436Y-153309389D01*
X312666484Y-153269000D01*
X312873516Y-153269000D01*
X313076564Y-153309389D01*
X313076564Y-153309389D01*
G37*
G36*
X290076564Y-153309389D02*
G01*
X290267833Y-153388615D01*
X290267835Y-153388616D01*
X290373172Y-153459000D01*
X290439973Y-153503635D01*
X290586365Y-153650027D01*
X290701385Y-153822167D01*
X290780611Y-154013436D01*
X290821000Y-154216484D01*
X290821000Y-154423516D01*
X290780611Y-154626564D01*
X290721612Y-154769000D01*
X290701384Y-154817835D01*
X290586365Y-154989973D01*
X290439973Y-155136365D01*
X290267835Y-155251384D01*
X290267834Y-155251385D01*
X290267833Y-155251385D01*
X290076564Y-155330611D01*
X289873516Y-155371000D01*
X289666484Y-155371000D01*
X289463436Y-155330611D01*
X289272167Y-155251385D01*
X289272166Y-155251385D01*
X289272165Y-155251384D01*
X289100027Y-155136365D01*
X288953635Y-154989973D01*
X288838616Y-154817835D01*
X288818388Y-154769000D01*
X288759389Y-154626564D01*
X288719000Y-154423516D01*
X288719000Y-154216484D01*
X288759389Y-154013436D01*
X288838615Y-153822167D01*
X288953635Y-153650027D01*
X289100027Y-153503635D01*
X289166828Y-153459000D01*
X289272165Y-153388616D01*
X289272167Y-153388615D01*
X289463436Y-153309389D01*
X289666484Y-153269000D01*
X289873516Y-153269000D01*
X290076564Y-153309389D01*
X290076564Y-153309389D01*
G37*
G36*
X142076564Y-153309389D02*
G01*
X142267833Y-153388615D01*
X142267835Y-153388616D01*
X142373172Y-153459000D01*
X142439973Y-153503635D01*
X142586365Y-153650027D01*
X142701385Y-153822167D01*
X142780611Y-154013436D01*
X142821000Y-154216484D01*
X142821000Y-154423516D01*
X142780611Y-154626564D01*
X142721612Y-154769000D01*
X142701384Y-154817835D01*
X142586365Y-154989973D01*
X142439973Y-155136365D01*
X142267835Y-155251384D01*
X142267834Y-155251385D01*
X142267833Y-155251385D01*
X142076564Y-155330611D01*
X141873516Y-155371000D01*
X141666484Y-155371000D01*
X141463436Y-155330611D01*
X141272167Y-155251385D01*
X141272166Y-155251385D01*
X141272165Y-155251384D01*
X141100027Y-155136365D01*
X140953635Y-154989973D01*
X140838616Y-154817835D01*
X140818388Y-154769000D01*
X140759389Y-154626564D01*
X140719000Y-154423516D01*
X140719000Y-154216484D01*
X140759389Y-154013436D01*
X140838615Y-153822167D01*
X140953635Y-153650027D01*
X141100027Y-153503635D01*
X141166828Y-153459000D01*
X141272165Y-153388616D01*
X141272167Y-153388615D01*
X141463436Y-153309389D01*
X141666484Y-153269000D01*
X141873516Y-153269000D01*
X142076564Y-153309389D01*
X142076564Y-153309389D01*
G37*
G36*
X80076564Y-153309389D02*
G01*
X80267833Y-153388615D01*
X80267835Y-153388616D01*
X80373172Y-153459000D01*
X80439973Y-153503635D01*
X80586365Y-153650027D01*
X80701385Y-153822167D01*
X80780611Y-154013436D01*
X80821000Y-154216484D01*
X80821000Y-154423516D01*
X80780611Y-154626564D01*
X80721612Y-154769000D01*
X80701384Y-154817835D01*
X80586365Y-154989973D01*
X80439973Y-155136365D01*
X80267835Y-155251384D01*
X80267834Y-155251385D01*
X80267833Y-155251385D01*
X80076564Y-155330611D01*
X79873516Y-155371000D01*
X79666484Y-155371000D01*
X79463436Y-155330611D01*
X79272167Y-155251385D01*
X79272166Y-155251385D01*
X79272165Y-155251384D01*
X79100027Y-155136365D01*
X78953635Y-154989973D01*
X78838616Y-154817835D01*
X78818388Y-154769000D01*
X78759389Y-154626564D01*
X78719000Y-154423516D01*
X78719000Y-154216484D01*
X78759389Y-154013436D01*
X78838615Y-153822167D01*
X78953635Y-153650027D01*
X79100027Y-153503635D01*
X79166828Y-153459000D01*
X79272165Y-153388616D01*
X79272167Y-153388615D01*
X79463436Y-153309389D01*
X79666484Y-153269000D01*
X79873516Y-153269000D01*
X80076564Y-153309389D01*
X80076564Y-153309389D01*
G37*
G36*
X103076564Y-153309389D02*
G01*
X103267833Y-153388615D01*
X103267835Y-153388616D01*
X103373172Y-153459000D01*
X103439973Y-153503635D01*
X103586365Y-153650027D01*
X103701385Y-153822167D01*
X103780611Y-154013436D01*
X103821000Y-154216484D01*
X103821000Y-154423516D01*
X103780611Y-154626564D01*
X103721612Y-154769000D01*
X103701384Y-154817835D01*
X103586365Y-154989973D01*
X103439973Y-155136365D01*
X103267835Y-155251384D01*
X103267834Y-155251385D01*
X103267833Y-155251385D01*
X103076564Y-155330611D01*
X102873516Y-155371000D01*
X102666484Y-155371000D01*
X102463436Y-155330611D01*
X102272167Y-155251385D01*
X102272166Y-155251385D01*
X102272165Y-155251384D01*
X102100027Y-155136365D01*
X101953635Y-154989973D01*
X101838616Y-154817835D01*
X101818388Y-154769000D01*
X101759389Y-154626564D01*
X101719000Y-154423516D01*
X101719000Y-154216484D01*
X101759389Y-154013436D01*
X101838615Y-153822167D01*
X101953635Y-153650027D01*
X102100027Y-153503635D01*
X102166828Y-153459000D01*
X102272165Y-153388616D01*
X102272167Y-153388615D01*
X102463436Y-153309389D01*
X102666484Y-153269000D01*
X102873516Y-153269000D01*
X103076564Y-153309389D01*
X103076564Y-153309389D01*
G37*
G36*
X111076564Y-153309389D02*
G01*
X111267833Y-153388615D01*
X111267835Y-153388616D01*
X111373172Y-153459000D01*
X111439973Y-153503635D01*
X111586365Y-153650027D01*
X111701385Y-153822167D01*
X111780611Y-154013436D01*
X111821000Y-154216484D01*
X111821000Y-154423516D01*
X111780611Y-154626564D01*
X111721612Y-154769000D01*
X111701384Y-154817835D01*
X111586365Y-154989973D01*
X111439973Y-155136365D01*
X111267835Y-155251384D01*
X111267834Y-155251385D01*
X111267833Y-155251385D01*
X111076564Y-155330611D01*
X110873516Y-155371000D01*
X110666484Y-155371000D01*
X110463436Y-155330611D01*
X110272167Y-155251385D01*
X110272166Y-155251385D01*
X110272165Y-155251384D01*
X110100027Y-155136365D01*
X109953635Y-154989973D01*
X109838616Y-154817835D01*
X109818388Y-154769000D01*
X109759389Y-154626564D01*
X109719000Y-154423516D01*
X109719000Y-154216484D01*
X109759389Y-154013436D01*
X109838615Y-153822167D01*
X109953635Y-153650027D01*
X110100027Y-153503635D01*
X110166828Y-153459000D01*
X110272165Y-153388616D01*
X110272167Y-153388615D01*
X110463436Y-153309389D01*
X110666484Y-153269000D01*
X110873516Y-153269000D01*
X111076564Y-153309389D01*
X111076564Y-153309389D01*
G37*
G36*
X72076564Y-153309389D02*
G01*
X72267833Y-153388615D01*
X72267835Y-153388616D01*
X72373172Y-153459000D01*
X72439973Y-153503635D01*
X72586365Y-153650027D01*
X72701385Y-153822167D01*
X72780611Y-154013436D01*
X72821000Y-154216484D01*
X72821000Y-154423516D01*
X72780611Y-154626564D01*
X72721612Y-154769000D01*
X72701384Y-154817835D01*
X72586365Y-154989973D01*
X72439973Y-155136365D01*
X72267835Y-155251384D01*
X72267834Y-155251385D01*
X72267833Y-155251385D01*
X72076564Y-155330611D01*
X71873516Y-155371000D01*
X71666484Y-155371000D01*
X71463436Y-155330611D01*
X71272167Y-155251385D01*
X71272166Y-155251385D01*
X71272165Y-155251384D01*
X71100027Y-155136365D01*
X70953635Y-154989973D01*
X70838616Y-154817835D01*
X70818388Y-154769000D01*
X70759389Y-154626564D01*
X70719000Y-154423516D01*
X70719000Y-154216484D01*
X70759389Y-154013436D01*
X70838615Y-153822167D01*
X70953635Y-153650027D01*
X71100027Y-153503635D01*
X71166828Y-153459000D01*
X71272165Y-153388616D01*
X71272167Y-153388615D01*
X71463436Y-153309389D01*
X71666484Y-153269000D01*
X71873516Y-153269000D01*
X72076564Y-153309389D01*
X72076564Y-153309389D01*
G37*
G36*
X321076564Y-153309389D02*
G01*
X321267833Y-153388615D01*
X321267835Y-153388616D01*
X321373172Y-153459000D01*
X321439973Y-153503635D01*
X321586365Y-153650027D01*
X321701385Y-153822167D01*
X321780611Y-154013436D01*
X321821000Y-154216484D01*
X321821000Y-154423516D01*
X321780611Y-154626564D01*
X321721612Y-154769000D01*
X321701384Y-154817835D01*
X321586365Y-154989973D01*
X321439973Y-155136365D01*
X321267835Y-155251384D01*
X321267834Y-155251385D01*
X321267833Y-155251385D01*
X321076564Y-155330611D01*
X320873516Y-155371000D01*
X320666484Y-155371000D01*
X320463436Y-155330611D01*
X320272167Y-155251385D01*
X320272166Y-155251385D01*
X320272165Y-155251384D01*
X320100027Y-155136365D01*
X319953635Y-154989973D01*
X319838616Y-154817835D01*
X319818388Y-154769000D01*
X319759389Y-154626564D01*
X319719000Y-154423516D01*
X319719000Y-154216484D01*
X319759389Y-154013436D01*
X319838615Y-153822167D01*
X319953635Y-153650027D01*
X320100027Y-153503635D01*
X320166828Y-153459000D01*
X320272165Y-153388616D01*
X320272167Y-153388615D01*
X320463436Y-153309389D01*
X320666484Y-153269000D01*
X320873516Y-153269000D01*
X321076564Y-153309389D01*
X321076564Y-153309389D01*
G37*
G36*
X263826800Y-154026740D02*
G01*
X262924800Y-154026740D01*
X262924800Y-153174740D01*
X263826800Y-153174740D01*
X263826800Y-154026740D01*
X263826800Y-154026740D01*
G37*
G36*
X262326800Y-154026740D02*
G01*
X261424800Y-154026740D01*
X261424800Y-153174740D01*
X262326800Y-153174740D01*
X262326800Y-154026740D01*
X262326800Y-154026740D01*
G37*
G36*
X129761800Y-152371740D02*
G01*
X128759800Y-152371740D01*
X128759800Y-151769740D01*
X129761800Y-151769740D01*
X129761800Y-152371740D01*
X129761800Y-152371740D01*
G37*
G36*
X129761800Y-150871740D02*
G01*
X128759800Y-150871740D01*
X128759800Y-150269740D01*
X129761800Y-150269740D01*
X129761800Y-150871740D01*
X129761800Y-150871740D01*
G37*
G36*
X198056800Y-149211740D02*
G01*
X197054800Y-149211740D01*
X197054800Y-148609740D01*
X198056800Y-148609740D01*
X198056800Y-149211740D01*
X198056800Y-149211740D01*
G37*
G36*
X198056800Y-147711740D02*
G01*
X197054800Y-147711740D01*
X197054800Y-147109740D01*
X198056800Y-147109740D01*
X198056800Y-147711740D01*
X198056800Y-147711740D01*
G37*
G36*
X152659943Y-140326248D02*
G01*
X153215189Y-140556238D01*
X153215190Y-140556239D01*
X153714899Y-140890134D01*
X154139866Y-141315101D01*
X154139867Y-141315103D01*
X154473762Y-141814811D01*
X154703752Y-142370057D01*
X154821000Y-142959501D01*
X154821000Y-143560499D01*
X154703752Y-144149943D01*
X154473762Y-144705189D01*
X154473761Y-144705190D01*
X154139866Y-145204899D01*
X153714899Y-145629866D01*
X153517536Y-145761740D01*
X153215189Y-145963762D01*
X152659943Y-146193752D01*
X152070499Y-146311000D01*
X151469501Y-146311000D01*
X150880057Y-146193752D01*
X150324811Y-145963762D01*
X150022464Y-145761740D01*
X149825101Y-145629866D01*
X149400134Y-145204899D01*
X149066239Y-144705190D01*
X149066238Y-144705189D01*
X148836248Y-144149943D01*
X148719000Y-143560499D01*
X148719000Y-142959501D01*
X148836248Y-142370057D01*
X149066238Y-141814811D01*
X149400133Y-141315103D01*
X149400134Y-141315101D01*
X149825101Y-140890134D01*
X150324810Y-140556239D01*
X150324811Y-140556238D01*
X150880057Y-140326248D01*
X151469501Y-140209000D01*
X152070499Y-140209000D01*
X152659943Y-140326248D01*
X152659943Y-140326248D01*
G37*
G36*
X292659943Y-140326248D02*
G01*
X293215189Y-140556238D01*
X293215190Y-140556239D01*
X293714899Y-140890134D01*
X294139866Y-141315101D01*
X294139867Y-141315103D01*
X294473762Y-141814811D01*
X294703752Y-142370057D01*
X294821000Y-142959501D01*
X294821000Y-143560499D01*
X294703752Y-144149943D01*
X294473762Y-144705189D01*
X294473761Y-144705190D01*
X294139866Y-145204899D01*
X293714899Y-145629866D01*
X293517536Y-145761740D01*
X293215189Y-145963762D01*
X292659943Y-146193752D01*
X292070499Y-146311000D01*
X291469501Y-146311000D01*
X290880057Y-146193752D01*
X290324811Y-145963762D01*
X290022464Y-145761740D01*
X289825101Y-145629866D01*
X289400134Y-145204899D01*
X289066239Y-144705190D01*
X289066238Y-144705189D01*
X288836248Y-144149943D01*
X288719000Y-143560499D01*
X288719000Y-142959501D01*
X288836248Y-142370057D01*
X289066238Y-141814811D01*
X289400133Y-141315103D01*
X289400134Y-141315101D01*
X289825101Y-140890134D01*
X290324810Y-140556239D01*
X290324811Y-140556238D01*
X290880057Y-140326248D01*
X291469501Y-140209000D01*
X292070499Y-140209000D01*
X292659943Y-140326248D01*
X292659943Y-140326248D01*
G37*
G36*
X222659943Y-140326248D02*
G01*
X223215189Y-140556238D01*
X223215190Y-140556239D01*
X223714899Y-140890134D01*
X224139866Y-141315101D01*
X224139867Y-141315103D01*
X224473762Y-141814811D01*
X224703752Y-142370057D01*
X224821000Y-142959501D01*
X224821000Y-143560499D01*
X224703752Y-144149943D01*
X224473762Y-144705189D01*
X224473761Y-144705190D01*
X224139866Y-145204899D01*
X223714899Y-145629866D01*
X223517536Y-145761740D01*
X223215189Y-145963762D01*
X222659943Y-146193752D01*
X222070499Y-146311000D01*
X221469501Y-146311000D01*
X220880057Y-146193752D01*
X220324811Y-145963762D01*
X220022464Y-145761740D01*
X219825101Y-145629866D01*
X219400134Y-145204899D01*
X219066239Y-144705190D01*
X219066238Y-144705189D01*
X218836248Y-144149943D01*
X218719000Y-143560499D01*
X218719000Y-142959501D01*
X218836248Y-142370057D01*
X219066238Y-141814811D01*
X219400133Y-141315103D01*
X219400134Y-141315101D01*
X219825101Y-140890134D01*
X220324810Y-140556239D01*
X220324811Y-140556238D01*
X220880057Y-140326248D01*
X221469501Y-140209000D01*
X222070499Y-140209000D01*
X222659943Y-140326248D01*
X222659943Y-140326248D01*
G37*
G36*
X82659943Y-140326248D02*
G01*
X83215189Y-140556238D01*
X83215190Y-140556239D01*
X83714899Y-140890134D01*
X84139866Y-141315101D01*
X84139867Y-141315103D01*
X84473762Y-141814811D01*
X84703752Y-142370057D01*
X84821000Y-142959501D01*
X84821000Y-143560499D01*
X84703752Y-144149943D01*
X84473762Y-144705189D01*
X84473761Y-144705190D01*
X84139866Y-145204899D01*
X83714899Y-145629866D01*
X83517536Y-145761740D01*
X83215189Y-145963762D01*
X82659943Y-146193752D01*
X82070499Y-146311000D01*
X81469501Y-146311000D01*
X80880057Y-146193752D01*
X80324811Y-145963762D01*
X80022464Y-145761740D01*
X79825101Y-145629866D01*
X79400134Y-145204899D01*
X79066239Y-144705190D01*
X79066238Y-144705189D01*
X78836248Y-144149943D01*
X78719000Y-143560499D01*
X78719000Y-142959501D01*
X78836248Y-142370057D01*
X79066238Y-141814811D01*
X79400133Y-141315103D01*
X79400134Y-141315101D01*
X79825101Y-140890134D01*
X80324810Y-140556239D01*
X80324811Y-140556238D01*
X80880057Y-140326248D01*
X81469501Y-140209000D01*
X82070499Y-140209000D01*
X82659943Y-140326248D01*
X82659943Y-140326248D01*
G37*
G36*
X195536800Y-145761740D02*
G01*
X194634800Y-145761740D01*
X194634800Y-144859740D01*
X195536800Y-144859740D01*
X195536800Y-145761740D01*
X195536800Y-145761740D01*
G37*
G36*
X197136800Y-145761740D02*
G01*
X196234800Y-145761740D01*
X196234800Y-144859740D01*
X197136800Y-144859740D01*
X197136800Y-145761740D01*
X197136800Y-145761740D01*
G37*
G36*
X66805331Y-133788211D02*
G01*
X67133092Y-133923974D01*
X67428070Y-134121072D01*
X67678928Y-134371930D01*
X67876026Y-134666908D01*
X68011789Y-134994669D01*
X68081000Y-135342616D01*
X68081000Y-135697384D01*
X68011789Y-136045331D01*
X67876026Y-136373092D01*
X67678928Y-136668070D01*
X67428070Y-136918928D01*
X67133092Y-137116026D01*
X66805331Y-137251789D01*
X66457384Y-137321000D01*
X66102616Y-137321000D01*
X65754669Y-137251789D01*
X65426908Y-137116026D01*
X65131930Y-136918928D01*
X64881072Y-136668070D01*
X64683974Y-136373092D01*
X64548211Y-136045331D01*
X64479000Y-135697384D01*
X64479000Y-135342616D01*
X64548211Y-134994669D01*
X64683974Y-134666908D01*
X64881072Y-134371930D01*
X65131930Y-134121072D01*
X65426908Y-133923974D01*
X65754669Y-133788211D01*
X66102616Y-133719000D01*
X66457384Y-133719000D01*
X66805331Y-133788211D01*
X66805331Y-133788211D01*
G37*
G36*
X276805331Y-133788211D02*
G01*
X277133092Y-133923974D01*
X277428070Y-134121072D01*
X277678928Y-134371930D01*
X277876026Y-134666908D01*
X278011789Y-134994669D01*
X278081000Y-135342616D01*
X278081000Y-135697384D01*
X278011789Y-136045331D01*
X277876026Y-136373092D01*
X277678928Y-136668070D01*
X277428070Y-136918928D01*
X277133092Y-137116026D01*
X276805331Y-137251789D01*
X276457384Y-137321000D01*
X276102616Y-137321000D01*
X275754669Y-137251789D01*
X275426908Y-137116026D01*
X275131930Y-136918928D01*
X274881072Y-136668070D01*
X274683974Y-136373092D01*
X274548211Y-136045331D01*
X274479000Y-135697384D01*
X274479000Y-135342616D01*
X274548211Y-134994669D01*
X274683974Y-134666908D01*
X274881072Y-134371930D01*
X275131930Y-134121072D01*
X275426908Y-133923974D01*
X275754669Y-133788211D01*
X276102616Y-133719000D01*
X276457384Y-133719000D01*
X276805331Y-133788211D01*
X276805331Y-133788211D01*
G37*
G36*
X206805331Y-133788211D02*
G01*
X207133092Y-133923974D01*
X207428070Y-134121072D01*
X207678928Y-134371930D01*
X207876026Y-134666908D01*
X208011789Y-134994669D01*
X208081000Y-135342616D01*
X208081000Y-135697384D01*
X208011789Y-136045331D01*
X207876026Y-136373092D01*
X207678928Y-136668070D01*
X207428070Y-136918928D01*
X207133092Y-137116026D01*
X206805331Y-137251789D01*
X206457384Y-137321000D01*
X206102616Y-137321000D01*
X205754669Y-137251789D01*
X205426908Y-137116026D01*
X205131930Y-136918928D01*
X204881072Y-136668070D01*
X204683974Y-136373092D01*
X204548211Y-136045331D01*
X204479000Y-135697384D01*
X204479000Y-135342616D01*
X204548211Y-134994669D01*
X204683974Y-134666908D01*
X204881072Y-134371930D01*
X205131930Y-134121072D01*
X205426908Y-133923974D01*
X205754669Y-133788211D01*
X206102616Y-133719000D01*
X206457384Y-133719000D01*
X206805331Y-133788211D01*
X206805331Y-133788211D01*
G37*
G36*
X136805331Y-133788211D02*
G01*
X137133092Y-133923974D01*
X137428070Y-134121072D01*
X137678928Y-134371930D01*
X137876026Y-134666908D01*
X138011789Y-134994669D01*
X138081000Y-135342616D01*
X138081000Y-135697384D01*
X138011789Y-136045331D01*
X137876026Y-136373092D01*
X137678928Y-136668070D01*
X137428070Y-136918928D01*
X137133092Y-137116026D01*
X136805331Y-137251789D01*
X136457384Y-137321000D01*
X136102616Y-137321000D01*
X135754669Y-137251789D01*
X135426908Y-137116026D01*
X135131930Y-136918928D01*
X134881072Y-136668070D01*
X134683974Y-136373092D01*
X134548211Y-136045331D01*
X134479000Y-135697384D01*
X134479000Y-135342616D01*
X134548211Y-134994669D01*
X134683974Y-134666908D01*
X134881072Y-134371930D01*
X135131930Y-134121072D01*
X135426908Y-133923974D01*
X135754669Y-133788211D01*
X136102616Y-133719000D01*
X136457384Y-133719000D01*
X136805331Y-133788211D01*
X136805331Y-133788211D01*
G37*
G36*
X186805331Y-132528211D02*
G01*
X187133092Y-132663974D01*
X187428070Y-132861072D01*
X187678928Y-133111930D01*
X187876026Y-133406908D01*
X188011789Y-133734669D01*
X188081000Y-134082616D01*
X188081000Y-134437384D01*
X188011789Y-134785331D01*
X187876026Y-135113092D01*
X187678928Y-135408070D01*
X187428070Y-135658928D01*
X187133092Y-135856026D01*
X186805331Y-135991789D01*
X186457384Y-136061000D01*
X186102616Y-136061000D01*
X185754669Y-135991789D01*
X185426908Y-135856026D01*
X185131930Y-135658928D01*
X184881072Y-135408070D01*
X184683974Y-135113092D01*
X184548211Y-134785331D01*
X184479000Y-134437384D01*
X184479000Y-134082616D01*
X184548211Y-133734669D01*
X184683974Y-133406908D01*
X184881072Y-133111930D01*
X185131930Y-132861072D01*
X185426908Y-132663974D01*
X185754669Y-132528211D01*
X186102616Y-132459000D01*
X186457384Y-132459000D01*
X186805331Y-132528211D01*
X186805331Y-132528211D01*
G37*
G36*
X256805331Y-132528211D02*
G01*
X257133092Y-132663974D01*
X257428070Y-132861072D01*
X257678928Y-133111930D01*
X257876026Y-133406908D01*
X258011789Y-133734669D01*
X258081000Y-134082616D01*
X258081000Y-134437384D01*
X258011789Y-134785331D01*
X257876026Y-135113092D01*
X257678928Y-135408070D01*
X257428070Y-135658928D01*
X257133092Y-135856026D01*
X256805331Y-135991789D01*
X256457384Y-136061000D01*
X256102616Y-136061000D01*
X255754669Y-135991789D01*
X255426908Y-135856026D01*
X255131930Y-135658928D01*
X254881072Y-135408070D01*
X254683974Y-135113092D01*
X254548211Y-134785331D01*
X254479000Y-134437384D01*
X254479000Y-134082616D01*
X254548211Y-133734669D01*
X254683974Y-133406908D01*
X254881072Y-133111930D01*
X255131930Y-132861072D01*
X255426908Y-132663974D01*
X255754669Y-132528211D01*
X256102616Y-132459000D01*
X256457384Y-132459000D01*
X256805331Y-132528211D01*
X256805331Y-132528211D01*
G37*
G36*
X326805331Y-132528211D02*
G01*
X327133092Y-132663974D01*
X327428070Y-132861072D01*
X327678928Y-133111930D01*
X327876026Y-133406908D01*
X328011789Y-133734669D01*
X328081000Y-134082616D01*
X328081000Y-134437384D01*
X328011789Y-134785331D01*
X327876026Y-135113092D01*
X327678928Y-135408070D01*
X327428070Y-135658928D01*
X327133092Y-135856026D01*
X326805331Y-135991789D01*
X326457384Y-136061000D01*
X326102616Y-136061000D01*
X325754669Y-135991789D01*
X325426908Y-135856026D01*
X325131930Y-135658928D01*
X324881072Y-135408070D01*
X324683974Y-135113092D01*
X324548211Y-134785331D01*
X324479000Y-134437384D01*
X324479000Y-134082616D01*
X324548211Y-133734669D01*
X324683974Y-133406908D01*
X324881072Y-133111930D01*
X325131930Y-132861072D01*
X325426908Y-132663974D01*
X325754669Y-132528211D01*
X326102616Y-132459000D01*
X326457384Y-132459000D01*
X326805331Y-132528211D01*
X326805331Y-132528211D01*
G37*
G36*
X116805331Y-132528211D02*
G01*
X117133092Y-132663974D01*
X117428070Y-132861072D01*
X117678928Y-133111930D01*
X117876026Y-133406908D01*
X118011789Y-133734669D01*
X118081000Y-134082616D01*
X118081000Y-134437384D01*
X118011789Y-134785331D01*
X117876026Y-135113092D01*
X117678928Y-135408070D01*
X117428070Y-135658928D01*
X117133092Y-135856026D01*
X116805331Y-135991789D01*
X116457384Y-136061000D01*
X116102616Y-136061000D01*
X115754669Y-135991789D01*
X115426908Y-135856026D01*
X115131930Y-135658928D01*
X114881072Y-135408070D01*
X114683974Y-135113092D01*
X114548211Y-134785331D01*
X114479000Y-134437384D01*
X114479000Y-134082616D01*
X114548211Y-133734669D01*
X114683974Y-133406908D01*
X114881072Y-133111930D01*
X115131930Y-132861072D01*
X115426908Y-132663974D01*
X115754669Y-132528211D01*
X116102616Y-132459000D01*
X116457384Y-132459000D01*
X116805331Y-132528211D01*
X116805331Y-132528211D01*
G37*
G36*
X72076564Y-130309389D02*
G01*
X72267833Y-130388615D01*
X72267835Y-130388616D01*
X72341722Y-130437986D01*
X72439973Y-130503635D01*
X72586365Y-130650027D01*
X72701385Y-130822167D01*
X72780611Y-131013436D01*
X72821000Y-131216484D01*
X72821000Y-131423516D01*
X72780611Y-131626564D01*
X72701385Y-131817833D01*
X72701384Y-131817835D01*
X72586365Y-131989973D01*
X72439973Y-132136365D01*
X72267835Y-132251384D01*
X72267834Y-132251385D01*
X72267833Y-132251385D01*
X72076564Y-132330611D01*
X71873516Y-132371000D01*
X71666484Y-132371000D01*
X71463436Y-132330611D01*
X71272167Y-132251385D01*
X71272166Y-132251385D01*
X71272165Y-132251384D01*
X71100027Y-132136365D01*
X70953635Y-131989973D01*
X70838616Y-131817835D01*
X70838615Y-131817833D01*
X70759389Y-131626564D01*
X70719000Y-131423516D01*
X70719000Y-131216484D01*
X70759389Y-131013436D01*
X70838615Y-130822167D01*
X70953635Y-130650027D01*
X71100027Y-130503635D01*
X71198278Y-130437986D01*
X71272165Y-130388616D01*
X71272167Y-130388615D01*
X71463436Y-130309389D01*
X71666484Y-130269000D01*
X71873516Y-130269000D01*
X72076564Y-130309389D01*
X72076564Y-130309389D01*
G37*
G36*
X173076564Y-130309389D02*
G01*
X173267833Y-130388615D01*
X173267835Y-130388616D01*
X173341722Y-130437986D01*
X173439973Y-130503635D01*
X173586365Y-130650027D01*
X173701385Y-130822167D01*
X173780611Y-131013436D01*
X173821000Y-131216484D01*
X173821000Y-131423516D01*
X173780611Y-131626564D01*
X173701385Y-131817833D01*
X173701384Y-131817835D01*
X173586365Y-131989973D01*
X173439973Y-132136365D01*
X173267835Y-132251384D01*
X173267834Y-132251385D01*
X173267833Y-132251385D01*
X173076564Y-132330611D01*
X172873516Y-132371000D01*
X172666484Y-132371000D01*
X172463436Y-132330611D01*
X172272167Y-132251385D01*
X172272166Y-132251385D01*
X172272165Y-132251384D01*
X172100027Y-132136365D01*
X171953635Y-131989973D01*
X171838616Y-131817835D01*
X171838615Y-131817833D01*
X171759389Y-131626564D01*
X171719000Y-131423516D01*
X171719000Y-131216484D01*
X171759389Y-131013436D01*
X171838615Y-130822167D01*
X171953635Y-130650027D01*
X172100027Y-130503635D01*
X172198278Y-130437986D01*
X172272165Y-130388616D01*
X172272167Y-130388615D01*
X172463436Y-130309389D01*
X172666484Y-130269000D01*
X172873516Y-130269000D01*
X173076564Y-130309389D01*
X173076564Y-130309389D01*
G37*
G36*
X103076564Y-130309389D02*
G01*
X103267833Y-130388615D01*
X103267835Y-130388616D01*
X103341722Y-130437986D01*
X103439973Y-130503635D01*
X103586365Y-130650027D01*
X103701385Y-130822167D01*
X103780611Y-131013436D01*
X103821000Y-131216484D01*
X103821000Y-131423516D01*
X103780611Y-131626564D01*
X103701385Y-131817833D01*
X103701384Y-131817835D01*
X103586365Y-131989973D01*
X103439973Y-132136365D01*
X103267835Y-132251384D01*
X103267834Y-132251385D01*
X103267833Y-132251385D01*
X103076564Y-132330611D01*
X102873516Y-132371000D01*
X102666484Y-132371000D01*
X102463436Y-132330611D01*
X102272167Y-132251385D01*
X102272166Y-132251385D01*
X102272165Y-132251384D01*
X102100027Y-132136365D01*
X101953635Y-131989973D01*
X101838616Y-131817835D01*
X101838615Y-131817833D01*
X101759389Y-131626564D01*
X101719000Y-131423516D01*
X101719000Y-131216484D01*
X101759389Y-131013436D01*
X101838615Y-130822167D01*
X101953635Y-130650027D01*
X102100027Y-130503635D01*
X102198278Y-130437986D01*
X102272165Y-130388616D01*
X102272167Y-130388615D01*
X102463436Y-130309389D01*
X102666484Y-130269000D01*
X102873516Y-130269000D01*
X103076564Y-130309389D01*
X103076564Y-130309389D01*
G37*
G36*
X111076564Y-130309389D02*
G01*
X111267833Y-130388615D01*
X111267835Y-130388616D01*
X111341722Y-130437986D01*
X111439973Y-130503635D01*
X111586365Y-130650027D01*
X111701385Y-130822167D01*
X111780611Y-131013436D01*
X111821000Y-131216484D01*
X111821000Y-131423516D01*
X111780611Y-131626564D01*
X111701385Y-131817833D01*
X111701384Y-131817835D01*
X111586365Y-131989973D01*
X111439973Y-132136365D01*
X111267835Y-132251384D01*
X111267834Y-132251385D01*
X111267833Y-132251385D01*
X111076564Y-132330611D01*
X110873516Y-132371000D01*
X110666484Y-132371000D01*
X110463436Y-132330611D01*
X110272167Y-132251385D01*
X110272166Y-132251385D01*
X110272165Y-132251384D01*
X110100027Y-132136365D01*
X109953635Y-131989973D01*
X109838616Y-131817835D01*
X109838615Y-131817833D01*
X109759389Y-131626564D01*
X109719000Y-131423516D01*
X109719000Y-131216484D01*
X109759389Y-131013436D01*
X109838615Y-130822167D01*
X109953635Y-130650027D01*
X110100027Y-130503635D01*
X110198278Y-130437986D01*
X110272165Y-130388616D01*
X110272167Y-130388615D01*
X110463436Y-130309389D01*
X110666484Y-130269000D01*
X110873516Y-130269000D01*
X111076564Y-130309389D01*
X111076564Y-130309389D01*
G37*
G36*
X142076564Y-130309389D02*
G01*
X142267833Y-130388615D01*
X142267835Y-130388616D01*
X142341722Y-130437986D01*
X142439973Y-130503635D01*
X142586365Y-130650027D01*
X142701385Y-130822167D01*
X142780611Y-131013436D01*
X142821000Y-131216484D01*
X142821000Y-131423516D01*
X142780611Y-131626564D01*
X142701385Y-131817833D01*
X142701384Y-131817835D01*
X142586365Y-131989973D01*
X142439973Y-132136365D01*
X142267835Y-132251384D01*
X142267834Y-132251385D01*
X142267833Y-132251385D01*
X142076564Y-132330611D01*
X141873516Y-132371000D01*
X141666484Y-132371000D01*
X141463436Y-132330611D01*
X141272167Y-132251385D01*
X141272166Y-132251385D01*
X141272165Y-132251384D01*
X141100027Y-132136365D01*
X140953635Y-131989973D01*
X140838616Y-131817835D01*
X140838615Y-131817833D01*
X140759389Y-131626564D01*
X140719000Y-131423516D01*
X140719000Y-131216484D01*
X140759389Y-131013436D01*
X140838615Y-130822167D01*
X140953635Y-130650027D01*
X141100027Y-130503635D01*
X141198278Y-130437986D01*
X141272165Y-130388616D01*
X141272167Y-130388615D01*
X141463436Y-130309389D01*
X141666484Y-130269000D01*
X141873516Y-130269000D01*
X142076564Y-130309389D01*
X142076564Y-130309389D01*
G37*
G36*
X150076564Y-130309389D02*
G01*
X150267833Y-130388615D01*
X150267835Y-130388616D01*
X150341722Y-130437986D01*
X150439973Y-130503635D01*
X150586365Y-130650027D01*
X150701385Y-130822167D01*
X150780611Y-131013436D01*
X150821000Y-131216484D01*
X150821000Y-131423516D01*
X150780611Y-131626564D01*
X150701385Y-131817833D01*
X150701384Y-131817835D01*
X150586365Y-131989973D01*
X150439973Y-132136365D01*
X150267835Y-132251384D01*
X150267834Y-132251385D01*
X150267833Y-132251385D01*
X150076564Y-132330611D01*
X149873516Y-132371000D01*
X149666484Y-132371000D01*
X149463436Y-132330611D01*
X149272167Y-132251385D01*
X149272166Y-132251385D01*
X149272165Y-132251384D01*
X149100027Y-132136365D01*
X148953635Y-131989973D01*
X148838616Y-131817835D01*
X148838615Y-131817833D01*
X148759389Y-131626564D01*
X148719000Y-131423516D01*
X148719000Y-131216484D01*
X148759389Y-131013436D01*
X148838615Y-130822167D01*
X148953635Y-130650027D01*
X149100027Y-130503635D01*
X149198278Y-130437986D01*
X149272165Y-130388616D01*
X149272167Y-130388615D01*
X149463436Y-130309389D01*
X149666484Y-130269000D01*
X149873516Y-130269000D01*
X150076564Y-130309389D01*
X150076564Y-130309389D01*
G37*
G36*
X321076564Y-130309389D02*
G01*
X321267833Y-130388615D01*
X321267835Y-130388616D01*
X321341722Y-130437986D01*
X321439973Y-130503635D01*
X321586365Y-130650027D01*
X321701385Y-130822167D01*
X321780611Y-131013436D01*
X321821000Y-131216484D01*
X321821000Y-131423516D01*
X321780611Y-131626564D01*
X321701385Y-131817833D01*
X321701384Y-131817835D01*
X321586365Y-131989973D01*
X321439973Y-132136365D01*
X321267835Y-132251384D01*
X321267834Y-132251385D01*
X321267833Y-132251385D01*
X321076564Y-132330611D01*
X320873516Y-132371000D01*
X320666484Y-132371000D01*
X320463436Y-132330611D01*
X320272167Y-132251385D01*
X320272166Y-132251385D01*
X320272165Y-132251384D01*
X320100027Y-132136365D01*
X319953635Y-131989973D01*
X319838616Y-131817835D01*
X319838615Y-131817833D01*
X319759389Y-131626564D01*
X319719000Y-131423516D01*
X319719000Y-131216484D01*
X319759389Y-131013436D01*
X319838615Y-130822167D01*
X319953635Y-130650027D01*
X320100027Y-130503635D01*
X320198278Y-130437986D01*
X320272165Y-130388616D01*
X320272167Y-130388615D01*
X320463436Y-130309389D01*
X320666484Y-130269000D01*
X320873516Y-130269000D01*
X321076564Y-130309389D01*
X321076564Y-130309389D01*
G37*
G36*
X313076564Y-130309389D02*
G01*
X313267833Y-130388615D01*
X313267835Y-130388616D01*
X313341722Y-130437986D01*
X313439973Y-130503635D01*
X313586365Y-130650027D01*
X313701385Y-130822167D01*
X313780611Y-131013436D01*
X313821000Y-131216484D01*
X313821000Y-131423516D01*
X313780611Y-131626564D01*
X313701385Y-131817833D01*
X313701384Y-131817835D01*
X313586365Y-131989973D01*
X313439973Y-132136365D01*
X313267835Y-132251384D01*
X313267834Y-132251385D01*
X313267833Y-132251385D01*
X313076564Y-132330611D01*
X312873516Y-132371000D01*
X312666484Y-132371000D01*
X312463436Y-132330611D01*
X312272167Y-132251385D01*
X312272166Y-132251385D01*
X312272165Y-132251384D01*
X312100027Y-132136365D01*
X311953635Y-131989973D01*
X311838616Y-131817835D01*
X311838615Y-131817833D01*
X311759389Y-131626564D01*
X311719000Y-131423516D01*
X311719000Y-131216484D01*
X311759389Y-131013436D01*
X311838615Y-130822167D01*
X311953635Y-130650027D01*
X312100027Y-130503635D01*
X312198278Y-130437986D01*
X312272165Y-130388616D01*
X312272167Y-130388615D01*
X312463436Y-130309389D01*
X312666484Y-130269000D01*
X312873516Y-130269000D01*
X313076564Y-130309389D01*
X313076564Y-130309389D01*
G37*
G36*
X251076564Y-130309389D02*
G01*
X251267833Y-130388615D01*
X251267835Y-130388616D01*
X251341722Y-130437986D01*
X251439973Y-130503635D01*
X251586365Y-130650027D01*
X251701385Y-130822167D01*
X251780611Y-131013436D01*
X251821000Y-131216484D01*
X251821000Y-131423516D01*
X251780611Y-131626564D01*
X251701385Y-131817833D01*
X251701384Y-131817835D01*
X251586365Y-131989973D01*
X251439973Y-132136365D01*
X251267835Y-132251384D01*
X251267834Y-132251385D01*
X251267833Y-132251385D01*
X251076564Y-132330611D01*
X250873516Y-132371000D01*
X250666484Y-132371000D01*
X250463436Y-132330611D01*
X250272167Y-132251385D01*
X250272166Y-132251385D01*
X250272165Y-132251384D01*
X250100027Y-132136365D01*
X249953635Y-131989973D01*
X249838616Y-131817835D01*
X249838615Y-131817833D01*
X249759389Y-131626564D01*
X249719000Y-131423516D01*
X249719000Y-131216484D01*
X249759389Y-131013436D01*
X249838615Y-130822167D01*
X249953635Y-130650027D01*
X250100027Y-130503635D01*
X250198278Y-130437986D01*
X250272165Y-130388616D01*
X250272167Y-130388615D01*
X250463436Y-130309389D01*
X250666484Y-130269000D01*
X250873516Y-130269000D01*
X251076564Y-130309389D01*
X251076564Y-130309389D01*
G37*
G36*
X243076564Y-130309389D02*
G01*
X243267833Y-130388615D01*
X243267835Y-130388616D01*
X243341722Y-130437986D01*
X243439973Y-130503635D01*
X243586365Y-130650027D01*
X243701385Y-130822167D01*
X243780611Y-131013436D01*
X243821000Y-131216484D01*
X243821000Y-131423516D01*
X243780611Y-131626564D01*
X243701385Y-131817833D01*
X243701384Y-131817835D01*
X243586365Y-131989973D01*
X243439973Y-132136365D01*
X243267835Y-132251384D01*
X243267834Y-132251385D01*
X243267833Y-132251385D01*
X243076564Y-132330611D01*
X242873516Y-132371000D01*
X242666484Y-132371000D01*
X242463436Y-132330611D01*
X242272167Y-132251385D01*
X242272166Y-132251385D01*
X242272165Y-132251384D01*
X242100027Y-132136365D01*
X241953635Y-131989973D01*
X241838616Y-131817835D01*
X241838615Y-131817833D01*
X241759389Y-131626564D01*
X241719000Y-131423516D01*
X241719000Y-131216484D01*
X241759389Y-131013436D01*
X241838615Y-130822167D01*
X241953635Y-130650027D01*
X242100027Y-130503635D01*
X242198278Y-130437986D01*
X242272165Y-130388616D01*
X242272167Y-130388615D01*
X242463436Y-130309389D01*
X242666484Y-130269000D01*
X242873516Y-130269000D01*
X243076564Y-130309389D01*
X243076564Y-130309389D01*
G37*
G36*
X80076564Y-130309389D02*
G01*
X80267833Y-130388615D01*
X80267835Y-130388616D01*
X80341722Y-130437986D01*
X80439973Y-130503635D01*
X80586365Y-130650027D01*
X80701385Y-130822167D01*
X80780611Y-131013436D01*
X80821000Y-131216484D01*
X80821000Y-131423516D01*
X80780611Y-131626564D01*
X80701385Y-131817833D01*
X80701384Y-131817835D01*
X80586365Y-131989973D01*
X80439973Y-132136365D01*
X80267835Y-132251384D01*
X80267834Y-132251385D01*
X80267833Y-132251385D01*
X80076564Y-132330611D01*
X79873516Y-132371000D01*
X79666484Y-132371000D01*
X79463436Y-132330611D01*
X79272167Y-132251385D01*
X79272166Y-132251385D01*
X79272165Y-132251384D01*
X79100027Y-132136365D01*
X78953635Y-131989973D01*
X78838616Y-131817835D01*
X78838615Y-131817833D01*
X78759389Y-131626564D01*
X78719000Y-131423516D01*
X78719000Y-131216484D01*
X78759389Y-131013436D01*
X78838615Y-130822167D01*
X78953635Y-130650027D01*
X79100027Y-130503635D01*
X79198278Y-130437986D01*
X79272165Y-130388616D01*
X79272167Y-130388615D01*
X79463436Y-130309389D01*
X79666484Y-130269000D01*
X79873516Y-130269000D01*
X80076564Y-130309389D01*
X80076564Y-130309389D01*
G37*
G36*
X181076564Y-130309389D02*
G01*
X181267833Y-130388615D01*
X181267835Y-130388616D01*
X181341722Y-130437986D01*
X181439973Y-130503635D01*
X181586365Y-130650027D01*
X181701385Y-130822167D01*
X181780611Y-131013436D01*
X181821000Y-131216484D01*
X181821000Y-131423516D01*
X181780611Y-131626564D01*
X181701385Y-131817833D01*
X181701384Y-131817835D01*
X181586365Y-131989973D01*
X181439973Y-132136365D01*
X181267835Y-132251384D01*
X181267834Y-132251385D01*
X181267833Y-132251385D01*
X181076564Y-132330611D01*
X180873516Y-132371000D01*
X180666484Y-132371000D01*
X180463436Y-132330611D01*
X180272167Y-132251385D01*
X180272166Y-132251385D01*
X180272165Y-132251384D01*
X180100027Y-132136365D01*
X179953635Y-131989973D01*
X179838616Y-131817835D01*
X179838615Y-131817833D01*
X179759389Y-131626564D01*
X179719000Y-131423516D01*
X179719000Y-131216484D01*
X179759389Y-131013436D01*
X179838615Y-130822167D01*
X179953635Y-130650027D01*
X180100027Y-130503635D01*
X180198278Y-130437986D01*
X180272165Y-130388616D01*
X180272167Y-130388615D01*
X180463436Y-130309389D01*
X180666484Y-130269000D01*
X180873516Y-130269000D01*
X181076564Y-130309389D01*
X181076564Y-130309389D01*
G37*
G36*
X212076564Y-130309389D02*
G01*
X212267833Y-130388615D01*
X212267835Y-130388616D01*
X212341722Y-130437986D01*
X212439973Y-130503635D01*
X212586365Y-130650027D01*
X212701385Y-130822167D01*
X212780611Y-131013436D01*
X212821000Y-131216484D01*
X212821000Y-131423516D01*
X212780611Y-131626564D01*
X212701385Y-131817833D01*
X212701384Y-131817835D01*
X212586365Y-131989973D01*
X212439973Y-132136365D01*
X212267835Y-132251384D01*
X212267834Y-132251385D01*
X212267833Y-132251385D01*
X212076564Y-132330611D01*
X211873516Y-132371000D01*
X211666484Y-132371000D01*
X211463436Y-132330611D01*
X211272167Y-132251385D01*
X211272166Y-132251385D01*
X211272165Y-132251384D01*
X211100027Y-132136365D01*
X210953635Y-131989973D01*
X210838616Y-131817835D01*
X210838615Y-131817833D01*
X210759389Y-131626564D01*
X210719000Y-131423516D01*
X210719000Y-131216484D01*
X210759389Y-131013436D01*
X210838615Y-130822167D01*
X210953635Y-130650027D01*
X211100027Y-130503635D01*
X211198278Y-130437986D01*
X211272165Y-130388616D01*
X211272167Y-130388615D01*
X211463436Y-130309389D01*
X211666484Y-130269000D01*
X211873516Y-130269000D01*
X212076564Y-130309389D01*
X212076564Y-130309389D01*
G37*
G36*
X220076564Y-130309389D02*
G01*
X220267833Y-130388615D01*
X220267835Y-130388616D01*
X220341722Y-130437986D01*
X220439973Y-130503635D01*
X220586365Y-130650027D01*
X220701385Y-130822167D01*
X220780611Y-131013436D01*
X220821000Y-131216484D01*
X220821000Y-131423516D01*
X220780611Y-131626564D01*
X220701385Y-131817833D01*
X220701384Y-131817835D01*
X220586365Y-131989973D01*
X220439973Y-132136365D01*
X220267835Y-132251384D01*
X220267834Y-132251385D01*
X220267833Y-132251385D01*
X220076564Y-132330611D01*
X219873516Y-132371000D01*
X219666484Y-132371000D01*
X219463436Y-132330611D01*
X219272167Y-132251385D01*
X219272166Y-132251385D01*
X219272165Y-132251384D01*
X219100027Y-132136365D01*
X218953635Y-131989973D01*
X218838616Y-131817835D01*
X218838615Y-131817833D01*
X218759389Y-131626564D01*
X218719000Y-131423516D01*
X218719000Y-131216484D01*
X218759389Y-131013436D01*
X218838615Y-130822167D01*
X218953635Y-130650027D01*
X219100027Y-130503635D01*
X219198278Y-130437986D01*
X219272165Y-130388616D01*
X219272167Y-130388615D01*
X219463436Y-130309389D01*
X219666484Y-130269000D01*
X219873516Y-130269000D01*
X220076564Y-130309389D01*
X220076564Y-130309389D01*
G37*
G36*
X282076564Y-130309389D02*
G01*
X282267833Y-130388615D01*
X282267835Y-130388616D01*
X282341722Y-130437986D01*
X282439973Y-130503635D01*
X282586365Y-130650027D01*
X282701385Y-130822167D01*
X282780611Y-131013436D01*
X282821000Y-131216484D01*
X282821000Y-131423516D01*
X282780611Y-131626564D01*
X282701385Y-131817833D01*
X282701384Y-131817835D01*
X282586365Y-131989973D01*
X282439973Y-132136365D01*
X282267835Y-132251384D01*
X282267834Y-132251385D01*
X282267833Y-132251385D01*
X282076564Y-132330611D01*
X281873516Y-132371000D01*
X281666484Y-132371000D01*
X281463436Y-132330611D01*
X281272167Y-132251385D01*
X281272166Y-132251385D01*
X281272165Y-132251384D01*
X281100027Y-132136365D01*
X280953635Y-131989973D01*
X280838616Y-131817835D01*
X280838615Y-131817833D01*
X280759389Y-131626564D01*
X280719000Y-131423516D01*
X280719000Y-131216484D01*
X280759389Y-131013436D01*
X280838615Y-130822167D01*
X280953635Y-130650027D01*
X281100027Y-130503635D01*
X281198278Y-130437986D01*
X281272165Y-130388616D01*
X281272167Y-130388615D01*
X281463436Y-130309389D01*
X281666484Y-130269000D01*
X281873516Y-130269000D01*
X282076564Y-130309389D01*
X282076564Y-130309389D01*
G37*
G36*
X290076564Y-130309389D02*
G01*
X290267833Y-130388615D01*
X290267835Y-130388616D01*
X290341722Y-130437986D01*
X290439973Y-130503635D01*
X290586365Y-130650027D01*
X290701385Y-130822167D01*
X290780611Y-131013436D01*
X290821000Y-131216484D01*
X290821000Y-131423516D01*
X290780611Y-131626564D01*
X290701385Y-131817833D01*
X290701384Y-131817835D01*
X290586365Y-131989973D01*
X290439973Y-132136365D01*
X290267835Y-132251384D01*
X290267834Y-132251385D01*
X290267833Y-132251385D01*
X290076564Y-132330611D01*
X289873516Y-132371000D01*
X289666484Y-132371000D01*
X289463436Y-132330611D01*
X289272167Y-132251385D01*
X289272166Y-132251385D01*
X289272165Y-132251384D01*
X289100027Y-132136365D01*
X288953635Y-131989973D01*
X288838616Y-131817835D01*
X288838615Y-131817833D01*
X288759389Y-131626564D01*
X288719000Y-131423516D01*
X288719000Y-131216484D01*
X288759389Y-131013436D01*
X288838615Y-130822167D01*
X288953635Y-130650027D01*
X289100027Y-130503635D01*
X289198278Y-130437986D01*
X289272165Y-130388616D01*
X289272167Y-130388615D01*
X289463436Y-130309389D01*
X289666484Y-130269000D01*
X289873516Y-130269000D01*
X290076564Y-130309389D01*
X290076564Y-130309389D01*
G37*
G36*
X330694233Y-128934893D02*
G01*
X330784457Y-128952839D01*
X330890067Y-128996585D01*
X331039421Y-129058449D01*
X331039422Y-129058450D01*
X331268886Y-129211772D01*
X331464028Y-129406914D01*
X331508025Y-129472761D01*
X331617351Y-129636379D01*
X331722961Y-129891344D01*
X331776800Y-130162012D01*
X331776800Y-130437988D01*
X331722961Y-130708656D01*
X331617351Y-130963621D01*
X331617350Y-130963622D01*
X331464028Y-131193086D01*
X331268886Y-131388228D01*
X331216076Y-131423514D01*
X331039421Y-131541551D01*
X330890067Y-131603415D01*
X330784457Y-131647161D01*
X330694233Y-131665107D01*
X330513788Y-131701000D01*
X330237812Y-131701000D01*
X330057367Y-131665107D01*
X329967143Y-131647161D01*
X329861533Y-131603415D01*
X329712179Y-131541551D01*
X329535524Y-131423514D01*
X329482714Y-131388228D01*
X329287572Y-131193086D01*
X329134250Y-130963622D01*
X329134249Y-130963621D01*
X329028639Y-130708656D01*
X328974800Y-130437988D01*
X328974800Y-130162012D01*
X329028639Y-129891344D01*
X329134249Y-129636379D01*
X329243575Y-129472761D01*
X329287572Y-129406914D01*
X329482714Y-129211772D01*
X329712178Y-129058450D01*
X329712179Y-129058449D01*
X329861533Y-128996585D01*
X329967143Y-128952839D01*
X330057367Y-128934893D01*
X330237812Y-128899000D01*
X330513788Y-128899000D01*
X330694233Y-128934893D01*
X330694233Y-128934893D01*
G37*
G36*
X63124233Y-128934893D02*
G01*
X63214457Y-128952839D01*
X63320067Y-128996585D01*
X63469421Y-129058449D01*
X63469422Y-129058450D01*
X63698886Y-129211772D01*
X63894028Y-129406914D01*
X63938025Y-129472761D01*
X64047351Y-129636379D01*
X64152961Y-129891344D01*
X64206800Y-130162012D01*
X64206800Y-130437988D01*
X64152961Y-130708656D01*
X64047351Y-130963621D01*
X64047350Y-130963622D01*
X63894028Y-131193086D01*
X63698886Y-131388228D01*
X63646076Y-131423514D01*
X63469421Y-131541551D01*
X63320067Y-131603415D01*
X63214457Y-131647161D01*
X63124233Y-131665107D01*
X62943788Y-131701000D01*
X62667812Y-131701000D01*
X62487367Y-131665107D01*
X62397143Y-131647161D01*
X62291533Y-131603415D01*
X62142179Y-131541551D01*
X61965524Y-131423514D01*
X61912714Y-131388228D01*
X61717572Y-131193086D01*
X61564250Y-130963622D01*
X61564249Y-130963621D01*
X61458639Y-130708656D01*
X61404800Y-130437988D01*
X61404800Y-130162012D01*
X61458639Y-129891344D01*
X61564249Y-129636379D01*
X61673575Y-129472761D01*
X61717572Y-129406914D01*
X61912714Y-129211772D01*
X62142178Y-129058450D01*
X62142179Y-129058449D01*
X62291533Y-128996585D01*
X62397143Y-128952839D01*
X62487367Y-128934893D01*
X62667812Y-128899000D01*
X62943788Y-128899000D01*
X63124233Y-128934893D01*
X63124233Y-128934893D01*
G37*
G36*
X263801733Y-128934893D02*
G01*
X263891957Y-128952839D01*
X263997567Y-128996585D01*
X264146921Y-129058449D01*
X264146922Y-129058450D01*
X264376386Y-129211772D01*
X264571528Y-129406914D01*
X264615525Y-129472761D01*
X264724851Y-129636379D01*
X264830461Y-129891344D01*
X264884300Y-130162012D01*
X264884300Y-130437988D01*
X264830461Y-130708656D01*
X264724851Y-130963621D01*
X264724850Y-130963622D01*
X264571528Y-131193086D01*
X264376386Y-131388228D01*
X264323576Y-131423514D01*
X264146921Y-131541551D01*
X263997567Y-131603415D01*
X263891957Y-131647161D01*
X263801733Y-131665107D01*
X263621288Y-131701000D01*
X263345312Y-131701000D01*
X263164867Y-131665107D01*
X263074643Y-131647161D01*
X262969033Y-131603415D01*
X262819679Y-131541551D01*
X262643024Y-131423514D01*
X262590214Y-131388228D01*
X262395072Y-131193086D01*
X262241750Y-130963622D01*
X262241749Y-130963621D01*
X262136139Y-130708656D01*
X262082300Y-130437988D01*
X262082300Y-130162012D01*
X262136139Y-129891344D01*
X262241749Y-129636379D01*
X262351075Y-129472761D01*
X262395072Y-129406914D01*
X262590214Y-129211772D01*
X262819678Y-129058450D01*
X262819679Y-129058449D01*
X262969033Y-128996585D01*
X263074643Y-128952839D01*
X263164867Y-128934893D01*
X263345312Y-128899000D01*
X263621288Y-128899000D01*
X263801733Y-128934893D01*
X263801733Y-128934893D01*
G37*
G36*
X130016733Y-128934893D02*
G01*
X130106957Y-128952839D01*
X130212567Y-128996585D01*
X130361921Y-129058449D01*
X130361922Y-129058450D01*
X130591386Y-129211772D01*
X130786528Y-129406914D01*
X130830525Y-129472761D01*
X130939851Y-129636379D01*
X131045461Y-129891344D01*
X131099300Y-130162012D01*
X131099300Y-130437988D01*
X131045461Y-130708656D01*
X130939851Y-130963621D01*
X130939850Y-130963622D01*
X130786528Y-131193086D01*
X130591386Y-131388228D01*
X130538576Y-131423514D01*
X130361921Y-131541551D01*
X130212567Y-131603415D01*
X130106957Y-131647161D01*
X130016733Y-131665107D01*
X129836288Y-131701000D01*
X129560312Y-131701000D01*
X129379867Y-131665107D01*
X129289643Y-131647161D01*
X129184033Y-131603415D01*
X129034679Y-131541551D01*
X128858024Y-131423514D01*
X128805214Y-131388228D01*
X128610072Y-131193086D01*
X128456750Y-130963622D01*
X128456749Y-130963621D01*
X128351139Y-130708656D01*
X128297300Y-130437988D01*
X128297300Y-130162012D01*
X128351139Y-129891344D01*
X128456749Y-129636379D01*
X128566075Y-129472761D01*
X128610072Y-129406914D01*
X128805214Y-129211772D01*
X129034678Y-129058450D01*
X129034679Y-129058449D01*
X129184033Y-128996585D01*
X129289643Y-128952839D01*
X129379867Y-128934893D01*
X129560312Y-128899000D01*
X129836288Y-128899000D01*
X130016733Y-128934893D01*
X130016733Y-128934893D01*
G37*
G36*
X196909233Y-128934893D02*
G01*
X196999457Y-128952839D01*
X197105067Y-128996585D01*
X197254421Y-129058449D01*
X197254422Y-129058450D01*
X197483886Y-129211772D01*
X197679028Y-129406914D01*
X197723025Y-129472761D01*
X197832351Y-129636379D01*
X197937961Y-129891344D01*
X197991800Y-130162012D01*
X197991800Y-130437988D01*
X197937961Y-130708656D01*
X197832351Y-130963621D01*
X197832350Y-130963622D01*
X197679028Y-131193086D01*
X197483886Y-131388228D01*
X197431076Y-131423514D01*
X197254421Y-131541551D01*
X197105067Y-131603415D01*
X196999457Y-131647161D01*
X196909233Y-131665107D01*
X196728788Y-131701000D01*
X196452812Y-131701000D01*
X196272367Y-131665107D01*
X196182143Y-131647161D01*
X196076533Y-131603415D01*
X195927179Y-131541551D01*
X195750524Y-131423514D01*
X195697714Y-131388228D01*
X195502572Y-131193086D01*
X195349250Y-130963622D01*
X195349249Y-130963621D01*
X195243639Y-130708656D01*
X195189800Y-130437988D01*
X195189800Y-130162012D01*
X195243639Y-129891344D01*
X195349249Y-129636379D01*
X195458575Y-129472761D01*
X195502572Y-129406914D01*
X195697714Y-129211772D01*
X195927178Y-129058450D01*
X195927179Y-129058449D01*
X196076533Y-128996585D01*
X196182143Y-128952839D01*
X196272367Y-128934893D01*
X196452812Y-128899000D01*
X196728788Y-128899000D01*
X196909233Y-128934893D01*
X196909233Y-128934893D01*
G37*
G36*
X107072585Y-127798802D02*
G01*
X107222410Y-127828604D01*
X107504674Y-127945521D01*
X107758705Y-128115259D01*
X107974741Y-128331295D01*
X108144479Y-128585326D01*
X108261396Y-128867590D01*
X108261396Y-128867591D01*
X108321000Y-129167239D01*
X108321000Y-129472761D01*
X108296446Y-129596200D01*
X108261396Y-129772410D01*
X108144479Y-130054674D01*
X107974741Y-130308705D01*
X107758705Y-130524741D01*
X107504674Y-130694479D01*
X107222410Y-130811396D01*
X107168270Y-130822165D01*
X106922761Y-130871000D01*
X106617239Y-130871000D01*
X106371730Y-130822165D01*
X106317590Y-130811396D01*
X106035326Y-130694479D01*
X105781295Y-130524741D01*
X105565259Y-130308705D01*
X105395521Y-130054674D01*
X105278604Y-129772410D01*
X105243554Y-129596200D01*
X105219000Y-129472761D01*
X105219000Y-129167239D01*
X105278604Y-128867591D01*
X105278604Y-128867590D01*
X105395521Y-128585326D01*
X105565259Y-128331295D01*
X105781295Y-128115259D01*
X106035326Y-127945521D01*
X106317590Y-127828604D01*
X106467415Y-127798802D01*
X106617239Y-127769000D01*
X106922761Y-127769000D01*
X107072585Y-127798802D01*
X107072585Y-127798802D01*
G37*
G36*
X76072585Y-127798802D02*
G01*
X76222410Y-127828604D01*
X76504674Y-127945521D01*
X76758705Y-128115259D01*
X76974741Y-128331295D01*
X77144479Y-128585326D01*
X77261396Y-128867590D01*
X77261396Y-128867591D01*
X77321000Y-129167239D01*
X77321000Y-129472761D01*
X77296446Y-129596200D01*
X77261396Y-129772410D01*
X77144479Y-130054674D01*
X76974741Y-130308705D01*
X76758705Y-130524741D01*
X76504674Y-130694479D01*
X76222410Y-130811396D01*
X76168270Y-130822165D01*
X75922761Y-130871000D01*
X75617239Y-130871000D01*
X75371730Y-130822165D01*
X75317590Y-130811396D01*
X75035326Y-130694479D01*
X74781295Y-130524741D01*
X74565259Y-130308705D01*
X74395521Y-130054674D01*
X74278604Y-129772410D01*
X74243554Y-129596200D01*
X74219000Y-129472761D01*
X74219000Y-129167239D01*
X74278604Y-128867591D01*
X74278604Y-128867590D01*
X74395521Y-128585326D01*
X74565259Y-128331295D01*
X74781295Y-128115259D01*
X75035326Y-127945521D01*
X75317590Y-127828604D01*
X75467415Y-127798802D01*
X75617239Y-127769000D01*
X75922761Y-127769000D01*
X76072585Y-127798802D01*
X76072585Y-127798802D01*
G37*
G36*
X146072585Y-127798802D02*
G01*
X146222410Y-127828604D01*
X146504674Y-127945521D01*
X146758705Y-128115259D01*
X146974741Y-128331295D01*
X147144479Y-128585326D01*
X147261396Y-128867590D01*
X147261396Y-128867591D01*
X147321000Y-129167239D01*
X147321000Y-129472761D01*
X147296446Y-129596200D01*
X147261396Y-129772410D01*
X147144479Y-130054674D01*
X146974741Y-130308705D01*
X146758705Y-130524741D01*
X146504674Y-130694479D01*
X146222410Y-130811396D01*
X146168270Y-130822165D01*
X145922761Y-130871000D01*
X145617239Y-130871000D01*
X145371730Y-130822165D01*
X145317590Y-130811396D01*
X145035326Y-130694479D01*
X144781295Y-130524741D01*
X144565259Y-130308705D01*
X144395521Y-130054674D01*
X144278604Y-129772410D01*
X144243554Y-129596200D01*
X144219000Y-129472761D01*
X144219000Y-129167239D01*
X144278604Y-128867591D01*
X144278604Y-128867590D01*
X144395521Y-128585326D01*
X144565259Y-128331295D01*
X144781295Y-128115259D01*
X145035326Y-127945521D01*
X145317590Y-127828604D01*
X145467415Y-127798802D01*
X145617239Y-127769000D01*
X145922761Y-127769000D01*
X146072585Y-127798802D01*
X146072585Y-127798802D01*
G37*
G36*
X177072585Y-127798802D02*
G01*
X177222410Y-127828604D01*
X177504674Y-127945521D01*
X177758705Y-128115259D01*
X177974741Y-128331295D01*
X178144479Y-128585326D01*
X178261396Y-128867590D01*
X178261396Y-128867591D01*
X178321000Y-129167239D01*
X178321000Y-129472761D01*
X178296446Y-129596200D01*
X178261396Y-129772410D01*
X178144479Y-130054674D01*
X177974741Y-130308705D01*
X177758705Y-130524741D01*
X177504674Y-130694479D01*
X177222410Y-130811396D01*
X177168270Y-130822165D01*
X176922761Y-130871000D01*
X176617239Y-130871000D01*
X176371730Y-130822165D01*
X176317590Y-130811396D01*
X176035326Y-130694479D01*
X175781295Y-130524741D01*
X175565259Y-130308705D01*
X175395521Y-130054674D01*
X175278604Y-129772410D01*
X175243554Y-129596200D01*
X175219000Y-129472761D01*
X175219000Y-129167239D01*
X175278604Y-128867591D01*
X175278604Y-128867590D01*
X175395521Y-128585326D01*
X175565259Y-128331295D01*
X175781295Y-128115259D01*
X176035326Y-127945521D01*
X176317590Y-127828604D01*
X176467415Y-127798802D01*
X176617239Y-127769000D01*
X176922761Y-127769000D01*
X177072585Y-127798802D01*
X177072585Y-127798802D01*
G37*
G36*
X317072585Y-127798802D02*
G01*
X317222410Y-127828604D01*
X317504674Y-127945521D01*
X317758705Y-128115259D01*
X317974741Y-128331295D01*
X318144479Y-128585326D01*
X318261396Y-128867590D01*
X318261396Y-128867591D01*
X318321000Y-129167239D01*
X318321000Y-129472761D01*
X318296446Y-129596200D01*
X318261396Y-129772410D01*
X318144479Y-130054674D01*
X317974741Y-130308705D01*
X317758705Y-130524741D01*
X317504674Y-130694479D01*
X317222410Y-130811396D01*
X317168270Y-130822165D01*
X316922761Y-130871000D01*
X316617239Y-130871000D01*
X316371730Y-130822165D01*
X316317590Y-130811396D01*
X316035326Y-130694479D01*
X315781295Y-130524741D01*
X315565259Y-130308705D01*
X315395521Y-130054674D01*
X315278604Y-129772410D01*
X315243554Y-129596200D01*
X315219000Y-129472761D01*
X315219000Y-129167239D01*
X315278604Y-128867591D01*
X315278604Y-128867590D01*
X315395521Y-128585326D01*
X315565259Y-128331295D01*
X315781295Y-128115259D01*
X316035326Y-127945521D01*
X316317590Y-127828604D01*
X316467415Y-127798802D01*
X316617239Y-127769000D01*
X316922761Y-127769000D01*
X317072585Y-127798802D01*
X317072585Y-127798802D01*
G37*
G36*
X286072585Y-127798802D02*
G01*
X286222410Y-127828604D01*
X286504674Y-127945521D01*
X286758705Y-128115259D01*
X286974741Y-128331295D01*
X287144479Y-128585326D01*
X287261396Y-128867590D01*
X287261396Y-128867591D01*
X287321000Y-129167239D01*
X287321000Y-129472761D01*
X287296446Y-129596200D01*
X287261396Y-129772410D01*
X287144479Y-130054674D01*
X286974741Y-130308705D01*
X286758705Y-130524741D01*
X286504674Y-130694479D01*
X286222410Y-130811396D01*
X286168270Y-130822165D01*
X285922761Y-130871000D01*
X285617239Y-130871000D01*
X285371730Y-130822165D01*
X285317590Y-130811396D01*
X285035326Y-130694479D01*
X284781295Y-130524741D01*
X284565259Y-130308705D01*
X284395521Y-130054674D01*
X284278604Y-129772410D01*
X284243554Y-129596200D01*
X284219000Y-129472761D01*
X284219000Y-129167239D01*
X284278604Y-128867591D01*
X284278604Y-128867590D01*
X284395521Y-128585326D01*
X284565259Y-128331295D01*
X284781295Y-128115259D01*
X285035326Y-127945521D01*
X285317590Y-127828604D01*
X285467415Y-127798802D01*
X285617239Y-127769000D01*
X285922761Y-127769000D01*
X286072585Y-127798802D01*
X286072585Y-127798802D01*
G37*
G36*
X247072585Y-127798802D02*
G01*
X247222410Y-127828604D01*
X247504674Y-127945521D01*
X247758705Y-128115259D01*
X247974741Y-128331295D01*
X248144479Y-128585326D01*
X248261396Y-128867590D01*
X248261396Y-128867591D01*
X248321000Y-129167239D01*
X248321000Y-129472761D01*
X248296446Y-129596200D01*
X248261396Y-129772410D01*
X248144479Y-130054674D01*
X247974741Y-130308705D01*
X247758705Y-130524741D01*
X247504674Y-130694479D01*
X247222410Y-130811396D01*
X247168270Y-130822165D01*
X246922761Y-130871000D01*
X246617239Y-130871000D01*
X246371730Y-130822165D01*
X246317590Y-130811396D01*
X246035326Y-130694479D01*
X245781295Y-130524741D01*
X245565259Y-130308705D01*
X245395521Y-130054674D01*
X245278604Y-129772410D01*
X245243554Y-129596200D01*
X245219000Y-129472761D01*
X245219000Y-129167239D01*
X245278604Y-128867591D01*
X245278604Y-128867590D01*
X245395521Y-128585326D01*
X245565259Y-128331295D01*
X245781295Y-128115259D01*
X246035326Y-127945521D01*
X246317590Y-127828604D01*
X246467415Y-127798802D01*
X246617239Y-127769000D01*
X246922761Y-127769000D01*
X247072585Y-127798802D01*
X247072585Y-127798802D01*
G37*
G36*
X216072585Y-127798802D02*
G01*
X216222410Y-127828604D01*
X216504674Y-127945521D01*
X216758705Y-128115259D01*
X216974741Y-128331295D01*
X217144479Y-128585326D01*
X217261396Y-128867590D01*
X217261396Y-128867591D01*
X217321000Y-129167239D01*
X217321000Y-129472761D01*
X217296446Y-129596200D01*
X217261396Y-129772410D01*
X217144479Y-130054674D01*
X216974741Y-130308705D01*
X216758705Y-130524741D01*
X216504674Y-130694479D01*
X216222410Y-130811396D01*
X216168270Y-130822165D01*
X215922761Y-130871000D01*
X215617239Y-130871000D01*
X215371730Y-130822165D01*
X215317590Y-130811396D01*
X215035326Y-130694479D01*
X214781295Y-130524741D01*
X214565259Y-130308705D01*
X214395521Y-130054674D01*
X214278604Y-129772410D01*
X214243554Y-129596200D01*
X214219000Y-129472761D01*
X214219000Y-129167239D01*
X214278604Y-128867591D01*
X214278604Y-128867590D01*
X214395521Y-128585326D01*
X214565259Y-128331295D01*
X214781295Y-128115259D01*
X215035326Y-127945521D01*
X215317590Y-127828604D01*
X215467415Y-127798802D01*
X215617239Y-127769000D01*
X215922761Y-127769000D01*
X216072585Y-127798802D01*
X216072585Y-127798802D01*
G37*
G36*
X326183564Y-127275142D02*
G01*
X326306245Y-127299545D01*
X326537371Y-127395281D01*
X326642079Y-127465245D01*
X326745377Y-127534266D01*
X326922274Y-127711163D01*
X327061260Y-127919171D01*
X327089300Y-127986865D01*
X327142483Y-128115259D01*
X327156995Y-128150296D01*
X327195855Y-128345656D01*
X327205800Y-128395656D01*
X327205800Y-128645824D01*
X327156995Y-128891185D01*
X327061259Y-129122311D01*
X326922273Y-129330318D01*
X326745378Y-129507213D01*
X326537371Y-129646199D01*
X326306245Y-129741935D01*
X326183564Y-129766338D01*
X326060885Y-129790740D01*
X325810715Y-129790740D01*
X325688036Y-129766338D01*
X325565355Y-129741935D01*
X325334229Y-129646199D01*
X325126222Y-129507213D01*
X324949327Y-129330318D01*
X324810341Y-129122311D01*
X324714605Y-128891185D01*
X324665800Y-128645824D01*
X324665800Y-128395656D01*
X324675746Y-128345656D01*
X324714605Y-128150296D01*
X324729118Y-128115259D01*
X324782300Y-127986865D01*
X324810340Y-127919171D01*
X324949326Y-127711163D01*
X325126223Y-127534266D01*
X325229521Y-127465245D01*
X325334229Y-127395281D01*
X325565355Y-127299545D01*
X325688036Y-127275142D01*
X325810715Y-127250740D01*
X326060885Y-127250740D01*
X326183564Y-127275142D01*
X326183564Y-127275142D01*
G37*
G36*
X67058564Y-127225142D02*
G01*
X67181245Y-127249545D01*
X67412371Y-127345281D01*
X67620378Y-127484267D01*
X67797273Y-127661162D01*
X67936259Y-127869169D01*
X68031995Y-128100295D01*
X68041941Y-128150296D01*
X68080800Y-128345655D01*
X68080800Y-128595825D01*
X68070854Y-128645825D01*
X68031995Y-128841185D01*
X68011284Y-128891185D01*
X67936260Y-129072309D01*
X67797274Y-129280317D01*
X67620377Y-129457214D01*
X67597109Y-129472761D01*
X67412371Y-129596199D01*
X67181245Y-129691935D01*
X67058565Y-129716337D01*
X66935885Y-129740740D01*
X66685715Y-129740740D01*
X66563035Y-129716337D01*
X66440355Y-129691935D01*
X66209229Y-129596199D01*
X66024491Y-129472761D01*
X66001223Y-129457214D01*
X65824326Y-129280317D01*
X65685340Y-129072309D01*
X65610316Y-128891185D01*
X65589605Y-128841185D01*
X65550746Y-128645825D01*
X65540800Y-128595825D01*
X65540800Y-128345655D01*
X65579659Y-128150296D01*
X65589605Y-128100295D01*
X65685341Y-127869169D01*
X65824327Y-127661162D01*
X66001222Y-127484267D01*
X66209229Y-127345281D01*
X66440355Y-127249545D01*
X66563036Y-127225142D01*
X66685715Y-127200740D01*
X66935885Y-127200740D01*
X67058564Y-127225142D01*
X67058564Y-127225142D01*
G37*
M02*
