M48
METRIC,TZ
T1C2.700
T2C3.000
T3C3.500
T4C6.000
%
G90
G05
T1
X196591Y-130300
X241186Y-177801
X330376Y-179400
X263483Y-130300
X62806Y-179400
X330376Y-130300
X129698Y-130300
X62806Y-130300
X151976Y-177801
T2
X285770Y-129320
X285770Y-156320
X316770Y-129320
X316770Y-156320
X215770Y-129320
X215770Y-156320
X246770Y-129320
X246770Y-156320
X75770Y-129320
X75770Y-156320
X106770Y-129320
X106770Y-156320
X145770Y-129320
X145770Y-156320
X176770Y-129320
X176770Y-156320
T3
X276280Y-135520
X301280Y-155260
X326280Y-134260
X206280Y-135520
X231280Y-155260
X256280Y-134260
X66280Y-135520
X91280Y-155260
X116280Y-134260
X136280Y-135520
X161280Y-155260
X186280Y-134260
T4
X81770Y-143260
X151770Y-143260
X291770Y-143260
X221770Y-143260
T0
M30
