G04 #@! TF.GenerationSoftware,KiCad,Pcbnew,(5.1.2)-2*
G04 #@! TF.CreationDate,2019-11-13T10:18:59+01:00*
G04 #@! TF.ProjectId,StepperClock,53746570-7065-4724-936c-6f636b2e6b69,v1.0*
G04 #@! TF.SameCoordinates,Original*
G04 #@! TF.FileFunction,Soldermask,Bot*
G04 #@! TF.FilePolarity,Negative*
%FSLAX46Y46*%
G04 Gerber Fmt 4.6, Leading zero omitted, Abs format (unit mm)*
G04 Created by KiCad (PCBNEW (5.1.2)-2) date 2019-11-13 10:18:59*
%MOMM*%
%LPD*%
G04 APERTURE LIST*
%ADD10C,0.100000*%
G04 APERTURE END LIST*
D10*
G36*
X330694233Y-178034893D02*
G01*
X330784457Y-178052839D01*
X330890067Y-178096585D01*
X331039421Y-178158449D01*
X331039422Y-178158450D01*
X331268886Y-178311772D01*
X331464028Y-178506914D01*
X331566475Y-178660237D01*
X331617351Y-178736379D01*
X331722961Y-178991344D01*
X331776800Y-179262012D01*
X331776800Y-179537988D01*
X331722961Y-179808656D01*
X331617351Y-180063621D01*
X331617350Y-180063622D01*
X331464028Y-180293086D01*
X331268886Y-180488228D01*
X331115563Y-180590675D01*
X331039421Y-180641551D01*
X330890067Y-180703415D01*
X330784457Y-180747161D01*
X330694233Y-180765107D01*
X330513788Y-180801000D01*
X330237812Y-180801000D01*
X330057367Y-180765107D01*
X329967143Y-180747161D01*
X329861533Y-180703415D01*
X329712179Y-180641551D01*
X329636037Y-180590675D01*
X329482714Y-180488228D01*
X329287572Y-180293086D01*
X329134250Y-180063622D01*
X329134249Y-180063621D01*
X329028639Y-179808656D01*
X328974800Y-179537988D01*
X328974800Y-179262012D01*
X329028639Y-178991344D01*
X329134249Y-178736379D01*
X329185125Y-178660237D01*
X329287572Y-178506914D01*
X329482714Y-178311772D01*
X329712178Y-178158450D01*
X329712179Y-178158449D01*
X329861533Y-178096585D01*
X329967143Y-178052839D01*
X330057367Y-178034893D01*
X330237812Y-177999000D01*
X330513788Y-177999000D01*
X330694233Y-178034893D01*
X330694233Y-178034893D01*
G37*
G36*
X63124233Y-178034893D02*
G01*
X63214457Y-178052839D01*
X63320067Y-178096585D01*
X63469421Y-178158449D01*
X63469422Y-178158450D01*
X63698886Y-178311772D01*
X63894028Y-178506914D01*
X63996475Y-178660237D01*
X64047351Y-178736379D01*
X64152961Y-178991344D01*
X64206800Y-179262012D01*
X64206800Y-179537988D01*
X64152961Y-179808656D01*
X64047351Y-180063621D01*
X64047350Y-180063622D01*
X63894028Y-180293086D01*
X63698886Y-180488228D01*
X63545563Y-180590675D01*
X63469421Y-180641551D01*
X63320067Y-180703415D01*
X63214457Y-180747161D01*
X63124233Y-180765107D01*
X62943788Y-180801000D01*
X62667812Y-180801000D01*
X62487367Y-180765107D01*
X62397143Y-180747161D01*
X62291533Y-180703415D01*
X62142179Y-180641551D01*
X62066037Y-180590675D01*
X61912714Y-180488228D01*
X61717572Y-180293086D01*
X61564250Y-180063622D01*
X61564249Y-180063621D01*
X61458639Y-179808656D01*
X61404800Y-179537988D01*
X61404800Y-179262012D01*
X61458639Y-178991344D01*
X61564249Y-178736379D01*
X61615125Y-178660237D01*
X61717572Y-178506914D01*
X61912714Y-178311772D01*
X62142178Y-178158450D01*
X62142179Y-178158449D01*
X62291533Y-178096585D01*
X62397143Y-178052839D01*
X62487367Y-178034893D01*
X62667812Y-177999000D01*
X62943788Y-177999000D01*
X63124233Y-178034893D01*
X63124233Y-178034893D01*
G37*
G36*
X241504233Y-176435633D02*
G01*
X241594457Y-176453579D01*
X241684171Y-176490740D01*
X241849421Y-176559189D01*
X241849422Y-176559190D01*
X242078886Y-176712512D01*
X242274028Y-176907654D01*
X242376475Y-177060977D01*
X242427351Y-177137119D01*
X242532961Y-177392084D01*
X242586800Y-177662752D01*
X242586800Y-177938728D01*
X242532961Y-178209396D01*
X242427351Y-178464361D01*
X242427350Y-178464362D01*
X242274028Y-178693826D01*
X242078886Y-178888968D01*
X241925670Y-178991343D01*
X241849421Y-179042291D01*
X241700067Y-179104155D01*
X241594457Y-179147901D01*
X241504233Y-179165847D01*
X241323788Y-179201740D01*
X241047812Y-179201740D01*
X240867367Y-179165847D01*
X240777143Y-179147901D01*
X240671533Y-179104155D01*
X240522179Y-179042291D01*
X240445930Y-178991343D01*
X240292714Y-178888968D01*
X240097572Y-178693826D01*
X239944250Y-178464362D01*
X239944249Y-178464361D01*
X239838639Y-178209396D01*
X239784800Y-177938728D01*
X239784800Y-177662752D01*
X239838639Y-177392084D01*
X239944249Y-177137119D01*
X239995125Y-177060977D01*
X240097572Y-176907654D01*
X240292714Y-176712512D01*
X240522178Y-176559190D01*
X240522179Y-176559189D01*
X240687429Y-176490740D01*
X240777143Y-176453579D01*
X240867367Y-176435633D01*
X241047812Y-176399740D01*
X241323788Y-176399740D01*
X241504233Y-176435633D01*
X241504233Y-176435633D01*
G37*
G36*
X152294233Y-176435633D02*
G01*
X152384457Y-176453579D01*
X152474171Y-176490740D01*
X152639421Y-176559189D01*
X152639422Y-176559190D01*
X152868886Y-176712512D01*
X153064028Y-176907654D01*
X153166475Y-177060977D01*
X153217351Y-177137119D01*
X153322961Y-177392084D01*
X153376800Y-177662752D01*
X153376800Y-177938728D01*
X153322961Y-178209396D01*
X153217351Y-178464361D01*
X153217350Y-178464362D01*
X153064028Y-178693826D01*
X152868886Y-178888968D01*
X152715670Y-178991343D01*
X152639421Y-179042291D01*
X152490067Y-179104155D01*
X152384457Y-179147901D01*
X152294233Y-179165847D01*
X152113788Y-179201740D01*
X151837812Y-179201740D01*
X151657367Y-179165847D01*
X151567143Y-179147901D01*
X151461533Y-179104155D01*
X151312179Y-179042291D01*
X151235930Y-178991343D01*
X151082714Y-178888968D01*
X150887572Y-178693826D01*
X150734250Y-178464362D01*
X150734249Y-178464361D01*
X150628639Y-178209396D01*
X150574800Y-177938728D01*
X150574800Y-177662752D01*
X150628639Y-177392084D01*
X150734249Y-177137119D01*
X150785125Y-177060977D01*
X150887572Y-176907654D01*
X151082714Y-176712512D01*
X151312178Y-176559190D01*
X151312179Y-176559189D01*
X151477429Y-176490740D01*
X151567143Y-176453579D01*
X151657367Y-176435633D01*
X151837812Y-176399740D01*
X152113788Y-176399740D01*
X152294233Y-176435633D01*
X152294233Y-176435633D01*
G37*
G36*
X332233565Y-173975143D02*
G01*
X332356245Y-173999545D01*
X332587371Y-174095281D01*
X332795378Y-174234267D01*
X332972273Y-174411162D01*
X333111259Y-174619169D01*
X333206995Y-174850295D01*
X333255800Y-175095656D01*
X333255800Y-175345824D01*
X333206995Y-175591185D01*
X333111259Y-175822311D01*
X332972273Y-176030318D01*
X332795378Y-176207213D01*
X332587371Y-176346199D01*
X332356245Y-176441935D01*
X332297706Y-176453579D01*
X332110885Y-176490740D01*
X331860715Y-176490740D01*
X331673894Y-176453579D01*
X331615355Y-176441935D01*
X331384229Y-176346199D01*
X331176222Y-176207213D01*
X330999327Y-176030318D01*
X330860341Y-175822311D01*
X330764605Y-175591185D01*
X330715800Y-175345824D01*
X330715800Y-175095656D01*
X330764605Y-174850295D01*
X330860341Y-174619169D01*
X330999327Y-174411162D01*
X331176222Y-174234267D01*
X331384229Y-174095281D01*
X331615355Y-173999545D01*
X331738035Y-173975143D01*
X331860715Y-173950740D01*
X332110885Y-173950740D01*
X332233565Y-173975143D01*
X332233565Y-173975143D01*
G37*
G36*
X61533565Y-173425143D02*
G01*
X61656245Y-173449545D01*
X61887371Y-173545281D01*
X62095378Y-173684267D01*
X62272273Y-173861162D01*
X62411259Y-174069169D01*
X62506995Y-174300295D01*
X62555800Y-174545656D01*
X62555800Y-174795824D01*
X62506995Y-175041185D01*
X62411259Y-175272311D01*
X62272273Y-175480318D01*
X62095378Y-175657213D01*
X61887371Y-175796199D01*
X61656245Y-175891935D01*
X61533565Y-175916337D01*
X61410885Y-175940740D01*
X61160715Y-175940740D01*
X61038035Y-175916337D01*
X60915355Y-175891935D01*
X60684229Y-175796199D01*
X60476222Y-175657213D01*
X60299327Y-175480318D01*
X60160341Y-175272311D01*
X60064605Y-175041185D01*
X60015800Y-174795824D01*
X60015800Y-174545656D01*
X60064605Y-174300295D01*
X60160341Y-174069169D01*
X60299327Y-173861162D01*
X60476222Y-173684267D01*
X60684229Y-173545281D01*
X60915355Y-173449545D01*
X61038035Y-173425143D01*
X61160715Y-173400740D01*
X61410885Y-173400740D01*
X61533565Y-173425143D01*
X61533565Y-173425143D01*
G37*
G36*
X183352224Y-165758500D02*
G01*
X183352227Y-165758501D01*
X183352228Y-165758501D01*
X183531492Y-165812880D01*
X183531495Y-165812882D01*
X183531496Y-165812882D01*
X183696703Y-165901186D01*
X183841512Y-166020028D01*
X183960354Y-166164837D01*
X184048658Y-166330043D01*
X184048660Y-166330047D01*
X184048660Y-166330048D01*
X184103040Y-166509315D01*
X184116800Y-166649022D01*
X184116800Y-168542458D01*
X184103040Y-168682165D01*
X184103039Y-168682168D01*
X184103039Y-168682169D01*
X184048660Y-168861433D01*
X184048658Y-168861436D01*
X184048658Y-168861437D01*
X183960354Y-169026643D01*
X183841512Y-169171452D01*
X183696703Y-169290294D01*
X183531497Y-169378598D01*
X183531493Y-169378600D01*
X183352229Y-169432979D01*
X183352228Y-169432979D01*
X183352225Y-169432980D01*
X183165800Y-169451341D01*
X182979376Y-169432980D01*
X182979373Y-169432979D01*
X182979372Y-169432979D01*
X182800108Y-169378600D01*
X182800104Y-169378598D01*
X182634898Y-169290294D01*
X182490089Y-169171452D01*
X182371247Y-169026643D01*
X182282943Y-168861437D01*
X182282943Y-168861436D01*
X182282941Y-168861433D01*
X182228562Y-168682169D01*
X182228562Y-168682168D01*
X182228561Y-168682165D01*
X182214800Y-168542457D01*
X182214800Y-166649023D01*
X182228560Y-166509316D01*
X182228561Y-166509312D01*
X182282940Y-166330048D01*
X182282943Y-166330043D01*
X182371246Y-166164837D01*
X182490088Y-166020028D01*
X182634897Y-165901186D01*
X182800103Y-165812882D01*
X182800104Y-165812882D01*
X182800107Y-165812880D01*
X182979371Y-165758501D01*
X182979372Y-165758501D01*
X182979375Y-165758500D01*
X183165800Y-165740139D01*
X183352224Y-165758500D01*
X183352224Y-165758500D01*
G37*
G36*
X175732224Y-165758500D02*
G01*
X175732227Y-165758501D01*
X175732228Y-165758501D01*
X175911492Y-165812880D01*
X175911495Y-165812882D01*
X175911496Y-165812882D01*
X176076703Y-165901186D01*
X176221512Y-166020028D01*
X176340354Y-166164837D01*
X176428658Y-166330043D01*
X176428660Y-166330047D01*
X176428660Y-166330048D01*
X176483040Y-166509315D01*
X176496800Y-166649022D01*
X176496800Y-168542458D01*
X176483040Y-168682165D01*
X176483039Y-168682168D01*
X176483039Y-168682169D01*
X176428660Y-168861433D01*
X176428658Y-168861436D01*
X176428658Y-168861437D01*
X176340354Y-169026643D01*
X176221512Y-169171452D01*
X176076703Y-169290294D01*
X175911497Y-169378598D01*
X175911493Y-169378600D01*
X175732229Y-169432979D01*
X175732228Y-169432979D01*
X175732225Y-169432980D01*
X175545800Y-169451341D01*
X175359376Y-169432980D01*
X175359373Y-169432979D01*
X175359372Y-169432979D01*
X175180108Y-169378600D01*
X175180104Y-169378598D01*
X175014898Y-169290294D01*
X174870089Y-169171452D01*
X174751247Y-169026643D01*
X174662943Y-168861437D01*
X174662943Y-168861436D01*
X174662941Y-168861433D01*
X174608562Y-168682169D01*
X174608562Y-168682168D01*
X174608561Y-168682165D01*
X174594800Y-168542457D01*
X174594800Y-166649023D01*
X174608560Y-166509316D01*
X174608561Y-166509312D01*
X174662940Y-166330048D01*
X174662943Y-166330043D01*
X174751246Y-166164837D01*
X174870088Y-166020028D01*
X175014897Y-165901186D01*
X175180103Y-165812882D01*
X175180104Y-165812882D01*
X175180107Y-165812880D01*
X175359371Y-165758501D01*
X175359372Y-165758501D01*
X175359375Y-165758500D01*
X175545800Y-165740139D01*
X175732224Y-165758500D01*
X175732224Y-165758500D01*
G37*
G36*
X179542224Y-165758500D02*
G01*
X179542227Y-165758501D01*
X179542228Y-165758501D01*
X179721492Y-165812880D01*
X179721495Y-165812882D01*
X179721496Y-165812882D01*
X179886703Y-165901186D01*
X180031512Y-166020028D01*
X180150354Y-166164837D01*
X180238658Y-166330043D01*
X180238660Y-166330047D01*
X180238660Y-166330048D01*
X180293040Y-166509315D01*
X180306800Y-166649022D01*
X180306800Y-168542458D01*
X180293040Y-168682165D01*
X180293039Y-168682168D01*
X180293039Y-168682169D01*
X180238660Y-168861433D01*
X180238658Y-168861436D01*
X180238658Y-168861437D01*
X180150354Y-169026643D01*
X180031512Y-169171452D01*
X179886703Y-169290294D01*
X179721497Y-169378598D01*
X179721493Y-169378600D01*
X179542229Y-169432979D01*
X179542228Y-169432979D01*
X179542225Y-169432980D01*
X179355800Y-169451341D01*
X179169376Y-169432980D01*
X179169373Y-169432979D01*
X179169372Y-169432979D01*
X178990108Y-169378600D01*
X178990104Y-169378598D01*
X178824898Y-169290294D01*
X178680089Y-169171452D01*
X178561247Y-169026643D01*
X178472943Y-168861437D01*
X178472943Y-168861436D01*
X178472941Y-168861433D01*
X178418562Y-168682169D01*
X178418562Y-168682168D01*
X178418561Y-168682165D01*
X178404800Y-168542457D01*
X178404800Y-166649023D01*
X178418560Y-166509316D01*
X178418561Y-166509312D01*
X178472940Y-166330048D01*
X178472943Y-166330043D01*
X178561246Y-166164837D01*
X178680088Y-166020028D01*
X178824897Y-165901186D01*
X178990103Y-165812882D01*
X178990104Y-165812882D01*
X178990107Y-165812880D01*
X179169371Y-165758501D01*
X179169372Y-165758501D01*
X179169375Y-165758500D01*
X179355800Y-165740139D01*
X179542224Y-165758500D01*
X179542224Y-165758500D01*
G37*
G36*
X172686800Y-169446740D02*
G01*
X170784800Y-169446740D01*
X170784800Y-165744740D01*
X172686800Y-165744740D01*
X172686800Y-169446740D01*
X172686800Y-169446740D01*
G37*
G36*
X216072585Y-154798802D02*
G01*
X216222410Y-154828604D01*
X216504674Y-154945521D01*
X216758705Y-155115259D01*
X216974741Y-155331295D01*
X217144479Y-155585326D01*
X217261396Y-155867590D01*
X217321000Y-156167240D01*
X217321000Y-156472760D01*
X217261396Y-156772410D01*
X217144479Y-157054674D01*
X216974741Y-157308705D01*
X216758705Y-157524741D01*
X216504674Y-157694479D01*
X216222410Y-157811396D01*
X216072585Y-157841198D01*
X215922761Y-157871000D01*
X215617239Y-157871000D01*
X215467415Y-157841198D01*
X215317590Y-157811396D01*
X215035326Y-157694479D01*
X214781295Y-157524741D01*
X214565259Y-157308705D01*
X214395521Y-157054674D01*
X214278604Y-156772410D01*
X214219000Y-156472760D01*
X214219000Y-156167240D01*
X214278604Y-155867590D01*
X214395521Y-155585326D01*
X214565259Y-155331295D01*
X214781295Y-155115259D01*
X215035326Y-154945521D01*
X215317590Y-154828604D01*
X215467415Y-154798802D01*
X215617239Y-154769000D01*
X215922761Y-154769000D01*
X216072585Y-154798802D01*
X216072585Y-154798802D01*
G37*
G36*
X76072585Y-154798802D02*
G01*
X76222410Y-154828604D01*
X76504674Y-154945521D01*
X76758705Y-155115259D01*
X76974741Y-155331295D01*
X77144479Y-155585326D01*
X77261396Y-155867590D01*
X77321000Y-156167240D01*
X77321000Y-156472760D01*
X77261396Y-156772410D01*
X77144479Y-157054674D01*
X76974741Y-157308705D01*
X76758705Y-157524741D01*
X76504674Y-157694479D01*
X76222410Y-157811396D01*
X76072585Y-157841198D01*
X75922761Y-157871000D01*
X75617239Y-157871000D01*
X75467415Y-157841198D01*
X75317590Y-157811396D01*
X75035326Y-157694479D01*
X74781295Y-157524741D01*
X74565259Y-157308705D01*
X74395521Y-157054674D01*
X74278604Y-156772410D01*
X74219000Y-156472760D01*
X74219000Y-156167240D01*
X74278604Y-155867590D01*
X74395521Y-155585326D01*
X74565259Y-155331295D01*
X74781295Y-155115259D01*
X75035326Y-154945521D01*
X75317590Y-154828604D01*
X75467415Y-154798802D01*
X75617239Y-154769000D01*
X75922761Y-154769000D01*
X76072585Y-154798802D01*
X76072585Y-154798802D01*
G37*
G36*
X177072585Y-154798802D02*
G01*
X177222410Y-154828604D01*
X177504674Y-154945521D01*
X177758705Y-155115259D01*
X177974741Y-155331295D01*
X178144479Y-155585326D01*
X178261396Y-155867590D01*
X178321000Y-156167240D01*
X178321000Y-156472760D01*
X178261396Y-156772410D01*
X178144479Y-157054674D01*
X177974741Y-157308705D01*
X177758705Y-157524741D01*
X177504674Y-157694479D01*
X177222410Y-157811396D01*
X177072585Y-157841198D01*
X176922761Y-157871000D01*
X176617239Y-157871000D01*
X176467415Y-157841198D01*
X176317590Y-157811396D01*
X176035326Y-157694479D01*
X175781295Y-157524741D01*
X175565259Y-157308705D01*
X175395521Y-157054674D01*
X175278604Y-156772410D01*
X175219000Y-156472760D01*
X175219000Y-156167240D01*
X175278604Y-155867590D01*
X175395521Y-155585326D01*
X175565259Y-155331295D01*
X175781295Y-155115259D01*
X176035326Y-154945521D01*
X176317590Y-154828604D01*
X176467415Y-154798802D01*
X176617239Y-154769000D01*
X176922761Y-154769000D01*
X177072585Y-154798802D01*
X177072585Y-154798802D01*
G37*
G36*
X247072585Y-154798802D02*
G01*
X247222410Y-154828604D01*
X247504674Y-154945521D01*
X247758705Y-155115259D01*
X247974741Y-155331295D01*
X248144479Y-155585326D01*
X248261396Y-155867590D01*
X248321000Y-156167240D01*
X248321000Y-156472760D01*
X248261396Y-156772410D01*
X248144479Y-157054674D01*
X247974741Y-157308705D01*
X247758705Y-157524741D01*
X247504674Y-157694479D01*
X247222410Y-157811396D01*
X247072585Y-157841198D01*
X246922761Y-157871000D01*
X246617239Y-157871000D01*
X246467415Y-157841198D01*
X246317590Y-157811396D01*
X246035326Y-157694479D01*
X245781295Y-157524741D01*
X245565259Y-157308705D01*
X245395521Y-157054674D01*
X245278604Y-156772410D01*
X245219000Y-156472760D01*
X245219000Y-156167240D01*
X245278604Y-155867590D01*
X245395521Y-155585326D01*
X245565259Y-155331295D01*
X245781295Y-155115259D01*
X246035326Y-154945521D01*
X246317590Y-154828604D01*
X246467415Y-154798802D01*
X246617239Y-154769000D01*
X246922761Y-154769000D01*
X247072585Y-154798802D01*
X247072585Y-154798802D01*
G37*
G36*
X286072585Y-154798802D02*
G01*
X286222410Y-154828604D01*
X286504674Y-154945521D01*
X286758705Y-155115259D01*
X286974741Y-155331295D01*
X287144479Y-155585326D01*
X287261396Y-155867590D01*
X287321000Y-156167240D01*
X287321000Y-156472760D01*
X287261396Y-156772410D01*
X287144479Y-157054674D01*
X286974741Y-157308705D01*
X286758705Y-157524741D01*
X286504674Y-157694479D01*
X286222410Y-157811396D01*
X286072585Y-157841198D01*
X285922761Y-157871000D01*
X285617239Y-157871000D01*
X285467415Y-157841198D01*
X285317590Y-157811396D01*
X285035326Y-157694479D01*
X284781295Y-157524741D01*
X284565259Y-157308705D01*
X284395521Y-157054674D01*
X284278604Y-156772410D01*
X284219000Y-156472760D01*
X284219000Y-156167240D01*
X284278604Y-155867590D01*
X284395521Y-155585326D01*
X284565259Y-155331295D01*
X284781295Y-155115259D01*
X285035326Y-154945521D01*
X285317590Y-154828604D01*
X285467415Y-154798802D01*
X285617239Y-154769000D01*
X285922761Y-154769000D01*
X286072585Y-154798802D01*
X286072585Y-154798802D01*
G37*
G36*
X317072585Y-154798802D02*
G01*
X317222410Y-154828604D01*
X317504674Y-154945521D01*
X317758705Y-155115259D01*
X317974741Y-155331295D01*
X318144479Y-155585326D01*
X318261396Y-155867590D01*
X318321000Y-156167240D01*
X318321000Y-156472760D01*
X318261396Y-156772410D01*
X318144479Y-157054674D01*
X317974741Y-157308705D01*
X317758705Y-157524741D01*
X317504674Y-157694479D01*
X317222410Y-157811396D01*
X317072585Y-157841198D01*
X316922761Y-157871000D01*
X316617239Y-157871000D01*
X316467415Y-157841198D01*
X316317590Y-157811396D01*
X316035326Y-157694479D01*
X315781295Y-157524741D01*
X315565259Y-157308705D01*
X315395521Y-157054674D01*
X315278604Y-156772410D01*
X315219000Y-156472760D01*
X315219000Y-156167240D01*
X315278604Y-155867590D01*
X315395521Y-155585326D01*
X315565259Y-155331295D01*
X315781295Y-155115259D01*
X316035326Y-154945521D01*
X316317590Y-154828604D01*
X316467415Y-154798802D01*
X316617239Y-154769000D01*
X316922761Y-154769000D01*
X317072585Y-154798802D01*
X317072585Y-154798802D01*
G37*
G36*
X146072585Y-154798802D02*
G01*
X146222410Y-154828604D01*
X146504674Y-154945521D01*
X146758705Y-155115259D01*
X146974741Y-155331295D01*
X147144479Y-155585326D01*
X147261396Y-155867590D01*
X147321000Y-156167240D01*
X147321000Y-156472760D01*
X147261396Y-156772410D01*
X147144479Y-157054674D01*
X146974741Y-157308705D01*
X146758705Y-157524741D01*
X146504674Y-157694479D01*
X146222410Y-157811396D01*
X146072585Y-157841198D01*
X145922761Y-157871000D01*
X145617239Y-157871000D01*
X145467415Y-157841198D01*
X145317590Y-157811396D01*
X145035326Y-157694479D01*
X144781295Y-157524741D01*
X144565259Y-157308705D01*
X144395521Y-157054674D01*
X144278604Y-156772410D01*
X144219000Y-156472760D01*
X144219000Y-156167240D01*
X144278604Y-155867590D01*
X144395521Y-155585326D01*
X144565259Y-155331295D01*
X144781295Y-155115259D01*
X145035326Y-154945521D01*
X145317590Y-154828604D01*
X145467415Y-154798802D01*
X145617239Y-154769000D01*
X145922761Y-154769000D01*
X146072585Y-154798802D01*
X146072585Y-154798802D01*
G37*
G36*
X107072585Y-154798802D02*
G01*
X107222410Y-154828604D01*
X107504674Y-154945521D01*
X107758705Y-155115259D01*
X107974741Y-155331295D01*
X108144479Y-155585326D01*
X108261396Y-155867590D01*
X108321000Y-156167240D01*
X108321000Y-156472760D01*
X108261396Y-156772410D01*
X108144479Y-157054674D01*
X107974741Y-157308705D01*
X107758705Y-157524741D01*
X107504674Y-157694479D01*
X107222410Y-157811396D01*
X107072585Y-157841198D01*
X106922761Y-157871000D01*
X106617239Y-157871000D01*
X106467415Y-157841198D01*
X106317590Y-157811396D01*
X106035326Y-157694479D01*
X105781295Y-157524741D01*
X105565259Y-157308705D01*
X105395521Y-157054674D01*
X105278604Y-156772410D01*
X105219000Y-156472760D01*
X105219000Y-156167240D01*
X105278604Y-155867590D01*
X105395521Y-155585326D01*
X105565259Y-155331295D01*
X105781295Y-155115259D01*
X106035326Y-154945521D01*
X106317590Y-154828604D01*
X106467415Y-154798802D01*
X106617239Y-154769000D01*
X106922761Y-154769000D01*
X107072585Y-154798802D01*
X107072585Y-154798802D01*
G37*
G36*
X231805331Y-153528211D02*
G01*
X232133092Y-153663974D01*
X232428070Y-153861072D01*
X232678928Y-154111930D01*
X232876026Y-154406908D01*
X233011789Y-154734669D01*
X233081000Y-155082616D01*
X233081000Y-155437384D01*
X233011789Y-155785331D01*
X232876026Y-156113092D01*
X232678928Y-156408070D01*
X232428070Y-156658928D01*
X232133092Y-156856026D01*
X231805331Y-156991789D01*
X231457384Y-157061000D01*
X231102616Y-157061000D01*
X230754669Y-156991789D01*
X230426908Y-156856026D01*
X230131930Y-156658928D01*
X229881072Y-156408070D01*
X229683974Y-156113092D01*
X229548211Y-155785331D01*
X229479000Y-155437384D01*
X229479000Y-155082616D01*
X229548211Y-154734669D01*
X229683974Y-154406908D01*
X229881072Y-154111930D01*
X230131930Y-153861072D01*
X230426908Y-153663974D01*
X230754669Y-153528211D01*
X231102616Y-153459000D01*
X231457384Y-153459000D01*
X231805331Y-153528211D01*
X231805331Y-153528211D01*
G37*
G36*
X301805331Y-153528211D02*
G01*
X302133092Y-153663974D01*
X302428070Y-153861072D01*
X302678928Y-154111930D01*
X302876026Y-154406908D01*
X303011789Y-154734669D01*
X303081000Y-155082616D01*
X303081000Y-155437384D01*
X303011789Y-155785331D01*
X302876026Y-156113092D01*
X302678928Y-156408070D01*
X302428070Y-156658928D01*
X302133092Y-156856026D01*
X301805331Y-156991789D01*
X301457384Y-157061000D01*
X301102616Y-157061000D01*
X300754669Y-156991789D01*
X300426908Y-156856026D01*
X300131930Y-156658928D01*
X299881072Y-156408070D01*
X299683974Y-156113092D01*
X299548211Y-155785331D01*
X299479000Y-155437384D01*
X299479000Y-155082616D01*
X299548211Y-154734669D01*
X299683974Y-154406908D01*
X299881072Y-154111930D01*
X300131930Y-153861072D01*
X300426908Y-153663974D01*
X300754669Y-153528211D01*
X301102616Y-153459000D01*
X301457384Y-153459000D01*
X301805331Y-153528211D01*
X301805331Y-153528211D01*
G37*
G36*
X161805331Y-153528211D02*
G01*
X162133092Y-153663974D01*
X162428070Y-153861072D01*
X162678928Y-154111930D01*
X162876026Y-154406908D01*
X163011789Y-154734669D01*
X163081000Y-155082616D01*
X163081000Y-155437384D01*
X163011789Y-155785331D01*
X162876026Y-156113092D01*
X162678928Y-156408070D01*
X162428070Y-156658928D01*
X162133092Y-156856026D01*
X161805331Y-156991789D01*
X161457384Y-157061000D01*
X161102616Y-157061000D01*
X160754669Y-156991789D01*
X160426908Y-156856026D01*
X160131930Y-156658928D01*
X159881072Y-156408070D01*
X159683974Y-156113092D01*
X159548211Y-155785331D01*
X159479000Y-155437384D01*
X159479000Y-155082616D01*
X159548211Y-154734669D01*
X159683974Y-154406908D01*
X159881072Y-154111930D01*
X160131930Y-153861072D01*
X160426908Y-153663974D01*
X160754669Y-153528211D01*
X161102616Y-153459000D01*
X161457384Y-153459000D01*
X161805331Y-153528211D01*
X161805331Y-153528211D01*
G37*
G36*
X91805331Y-153528211D02*
G01*
X92133092Y-153663974D01*
X92428070Y-153861072D01*
X92678928Y-154111930D01*
X92876026Y-154406908D01*
X93011789Y-154734669D01*
X93081000Y-155082616D01*
X93081000Y-155437384D01*
X93011789Y-155785331D01*
X92876026Y-156113092D01*
X92678928Y-156408070D01*
X92428070Y-156658928D01*
X92133092Y-156856026D01*
X91805331Y-156991789D01*
X91457384Y-157061000D01*
X91102616Y-157061000D01*
X90754669Y-156991789D01*
X90426908Y-156856026D01*
X90131930Y-156658928D01*
X89881072Y-156408070D01*
X89683974Y-156113092D01*
X89548211Y-155785331D01*
X89479000Y-155437384D01*
X89479000Y-155082616D01*
X89548211Y-154734669D01*
X89683974Y-154406908D01*
X89881072Y-154111930D01*
X90131930Y-153861072D01*
X90426908Y-153663974D01*
X90754669Y-153528211D01*
X91102616Y-153459000D01*
X91457384Y-153459000D01*
X91805331Y-153528211D01*
X91805331Y-153528211D01*
G37*
G36*
X150076564Y-153309389D02*
G01*
X150267833Y-153388615D01*
X150267835Y-153388616D01*
X150373172Y-153459000D01*
X150439973Y-153503635D01*
X150586365Y-153650027D01*
X150701385Y-153822167D01*
X150780611Y-154013436D01*
X150821000Y-154216484D01*
X150821000Y-154423516D01*
X150780611Y-154626564D01*
X150721612Y-154769000D01*
X150701384Y-154817835D01*
X150586365Y-154989973D01*
X150439973Y-155136365D01*
X150267835Y-155251384D01*
X150267834Y-155251385D01*
X150267833Y-155251385D01*
X150076564Y-155330611D01*
X149873516Y-155371000D01*
X149666484Y-155371000D01*
X149463436Y-155330611D01*
X149272167Y-155251385D01*
X149272166Y-155251385D01*
X149272165Y-155251384D01*
X149100027Y-155136365D01*
X148953635Y-154989973D01*
X148838616Y-154817835D01*
X148818388Y-154769000D01*
X148759389Y-154626564D01*
X148719000Y-154423516D01*
X148719000Y-154216484D01*
X148759389Y-154013436D01*
X148838615Y-153822167D01*
X148953635Y-153650027D01*
X149100027Y-153503635D01*
X149166828Y-153459000D01*
X149272165Y-153388616D01*
X149272167Y-153388615D01*
X149463436Y-153309389D01*
X149666484Y-153269000D01*
X149873516Y-153269000D01*
X150076564Y-153309389D01*
X150076564Y-153309389D01*
G37*
G36*
X103076564Y-153309389D02*
G01*
X103267833Y-153388615D01*
X103267835Y-153388616D01*
X103373172Y-153459000D01*
X103439973Y-153503635D01*
X103586365Y-153650027D01*
X103701385Y-153822167D01*
X103780611Y-154013436D01*
X103821000Y-154216484D01*
X103821000Y-154423516D01*
X103780611Y-154626564D01*
X103721612Y-154769000D01*
X103701384Y-154817835D01*
X103586365Y-154989973D01*
X103439973Y-155136365D01*
X103267835Y-155251384D01*
X103267834Y-155251385D01*
X103267833Y-155251385D01*
X103076564Y-155330611D01*
X102873516Y-155371000D01*
X102666484Y-155371000D01*
X102463436Y-155330611D01*
X102272167Y-155251385D01*
X102272166Y-155251385D01*
X102272165Y-155251384D01*
X102100027Y-155136365D01*
X101953635Y-154989973D01*
X101838616Y-154817835D01*
X101818388Y-154769000D01*
X101759389Y-154626564D01*
X101719000Y-154423516D01*
X101719000Y-154216484D01*
X101759389Y-154013436D01*
X101838615Y-153822167D01*
X101953635Y-153650027D01*
X102100027Y-153503635D01*
X102166828Y-153459000D01*
X102272165Y-153388616D01*
X102272167Y-153388615D01*
X102463436Y-153309389D01*
X102666484Y-153269000D01*
X102873516Y-153269000D01*
X103076564Y-153309389D01*
X103076564Y-153309389D01*
G37*
G36*
X251076564Y-153309389D02*
G01*
X251267833Y-153388615D01*
X251267835Y-153388616D01*
X251373172Y-153459000D01*
X251439973Y-153503635D01*
X251586365Y-153650027D01*
X251701385Y-153822167D01*
X251780611Y-154013436D01*
X251821000Y-154216484D01*
X251821000Y-154423516D01*
X251780611Y-154626564D01*
X251721612Y-154769000D01*
X251701384Y-154817835D01*
X251586365Y-154989973D01*
X251439973Y-155136365D01*
X251267835Y-155251384D01*
X251267834Y-155251385D01*
X251267833Y-155251385D01*
X251076564Y-155330611D01*
X250873516Y-155371000D01*
X250666484Y-155371000D01*
X250463436Y-155330611D01*
X250272167Y-155251385D01*
X250272166Y-155251385D01*
X250272165Y-155251384D01*
X250100027Y-155136365D01*
X249953635Y-154989973D01*
X249838616Y-154817835D01*
X249818388Y-154769000D01*
X249759389Y-154626564D01*
X249719000Y-154423516D01*
X249719000Y-154216484D01*
X249759389Y-154013436D01*
X249838615Y-153822167D01*
X249953635Y-153650027D01*
X250100027Y-153503635D01*
X250166828Y-153459000D01*
X250272165Y-153388616D01*
X250272167Y-153388615D01*
X250463436Y-153309389D01*
X250666484Y-153269000D01*
X250873516Y-153269000D01*
X251076564Y-153309389D01*
X251076564Y-153309389D01*
G37*
G36*
X111076564Y-153309389D02*
G01*
X111267833Y-153388615D01*
X111267835Y-153388616D01*
X111373172Y-153459000D01*
X111439973Y-153503635D01*
X111586365Y-153650027D01*
X111701385Y-153822167D01*
X111780611Y-154013436D01*
X111821000Y-154216484D01*
X111821000Y-154423516D01*
X111780611Y-154626564D01*
X111721612Y-154769000D01*
X111701384Y-154817835D01*
X111586365Y-154989973D01*
X111439973Y-155136365D01*
X111267835Y-155251384D01*
X111267834Y-155251385D01*
X111267833Y-155251385D01*
X111076564Y-155330611D01*
X110873516Y-155371000D01*
X110666484Y-155371000D01*
X110463436Y-155330611D01*
X110272167Y-155251385D01*
X110272166Y-155251385D01*
X110272165Y-155251384D01*
X110100027Y-155136365D01*
X109953635Y-154989973D01*
X109838616Y-154817835D01*
X109818388Y-154769000D01*
X109759389Y-154626564D01*
X109719000Y-154423516D01*
X109719000Y-154216484D01*
X109759389Y-154013436D01*
X109838615Y-153822167D01*
X109953635Y-153650027D01*
X110100027Y-153503635D01*
X110166828Y-153459000D01*
X110272165Y-153388616D01*
X110272167Y-153388615D01*
X110463436Y-153309389D01*
X110666484Y-153269000D01*
X110873516Y-153269000D01*
X111076564Y-153309389D01*
X111076564Y-153309389D01*
G37*
G36*
X243076564Y-153309389D02*
G01*
X243267833Y-153388615D01*
X243267835Y-153388616D01*
X243373172Y-153459000D01*
X243439973Y-153503635D01*
X243586365Y-153650027D01*
X243701385Y-153822167D01*
X243780611Y-154013436D01*
X243821000Y-154216484D01*
X243821000Y-154423516D01*
X243780611Y-154626564D01*
X243721612Y-154769000D01*
X243701384Y-154817835D01*
X243586365Y-154989973D01*
X243439973Y-155136365D01*
X243267835Y-155251384D01*
X243267834Y-155251385D01*
X243267833Y-155251385D01*
X243076564Y-155330611D01*
X242873516Y-155371000D01*
X242666484Y-155371000D01*
X242463436Y-155330611D01*
X242272167Y-155251385D01*
X242272166Y-155251385D01*
X242272165Y-155251384D01*
X242100027Y-155136365D01*
X241953635Y-154989973D01*
X241838616Y-154817835D01*
X241818388Y-154769000D01*
X241759389Y-154626564D01*
X241719000Y-154423516D01*
X241719000Y-154216484D01*
X241759389Y-154013436D01*
X241838615Y-153822167D01*
X241953635Y-153650027D01*
X242100027Y-153503635D01*
X242166828Y-153459000D01*
X242272165Y-153388616D01*
X242272167Y-153388615D01*
X242463436Y-153309389D01*
X242666484Y-153269000D01*
X242873516Y-153269000D01*
X243076564Y-153309389D01*
X243076564Y-153309389D01*
G37*
G36*
X220076564Y-153309389D02*
G01*
X220267833Y-153388615D01*
X220267835Y-153388616D01*
X220373172Y-153459000D01*
X220439973Y-153503635D01*
X220586365Y-153650027D01*
X220701385Y-153822167D01*
X220780611Y-154013436D01*
X220821000Y-154216484D01*
X220821000Y-154423516D01*
X220780611Y-154626564D01*
X220721612Y-154769000D01*
X220701384Y-154817835D01*
X220586365Y-154989973D01*
X220439973Y-155136365D01*
X220267835Y-155251384D01*
X220267834Y-155251385D01*
X220267833Y-155251385D01*
X220076564Y-155330611D01*
X219873516Y-155371000D01*
X219666484Y-155371000D01*
X219463436Y-155330611D01*
X219272167Y-155251385D01*
X219272166Y-155251385D01*
X219272165Y-155251384D01*
X219100027Y-155136365D01*
X218953635Y-154989973D01*
X218838616Y-154817835D01*
X218818388Y-154769000D01*
X218759389Y-154626564D01*
X218719000Y-154423516D01*
X218719000Y-154216484D01*
X218759389Y-154013436D01*
X218838615Y-153822167D01*
X218953635Y-153650027D01*
X219100027Y-153503635D01*
X219166828Y-153459000D01*
X219272165Y-153388616D01*
X219272167Y-153388615D01*
X219463436Y-153309389D01*
X219666484Y-153269000D01*
X219873516Y-153269000D01*
X220076564Y-153309389D01*
X220076564Y-153309389D01*
G37*
G36*
X72076564Y-153309389D02*
G01*
X72267833Y-153388615D01*
X72267835Y-153388616D01*
X72373172Y-153459000D01*
X72439973Y-153503635D01*
X72586365Y-153650027D01*
X72701385Y-153822167D01*
X72780611Y-154013436D01*
X72821000Y-154216484D01*
X72821000Y-154423516D01*
X72780611Y-154626564D01*
X72721612Y-154769000D01*
X72701384Y-154817835D01*
X72586365Y-154989973D01*
X72439973Y-155136365D01*
X72267835Y-155251384D01*
X72267834Y-155251385D01*
X72267833Y-155251385D01*
X72076564Y-155330611D01*
X71873516Y-155371000D01*
X71666484Y-155371000D01*
X71463436Y-155330611D01*
X71272167Y-155251385D01*
X71272166Y-155251385D01*
X71272165Y-155251384D01*
X71100027Y-155136365D01*
X70953635Y-154989973D01*
X70838616Y-154817835D01*
X70818388Y-154769000D01*
X70759389Y-154626564D01*
X70719000Y-154423516D01*
X70719000Y-154216484D01*
X70759389Y-154013436D01*
X70838615Y-153822167D01*
X70953635Y-153650027D01*
X71100027Y-153503635D01*
X71166828Y-153459000D01*
X71272165Y-153388616D01*
X71272167Y-153388615D01*
X71463436Y-153309389D01*
X71666484Y-153269000D01*
X71873516Y-153269000D01*
X72076564Y-153309389D01*
X72076564Y-153309389D01*
G37*
G36*
X142076564Y-153309389D02*
G01*
X142267833Y-153388615D01*
X142267835Y-153388616D01*
X142373172Y-153459000D01*
X142439973Y-153503635D01*
X142586365Y-153650027D01*
X142701385Y-153822167D01*
X142780611Y-154013436D01*
X142821000Y-154216484D01*
X142821000Y-154423516D01*
X142780611Y-154626564D01*
X142721612Y-154769000D01*
X142701384Y-154817835D01*
X142586365Y-154989973D01*
X142439973Y-155136365D01*
X142267835Y-155251384D01*
X142267834Y-155251385D01*
X142267833Y-155251385D01*
X142076564Y-155330611D01*
X141873516Y-155371000D01*
X141666484Y-155371000D01*
X141463436Y-155330611D01*
X141272167Y-155251385D01*
X141272166Y-155251385D01*
X141272165Y-155251384D01*
X141100027Y-155136365D01*
X140953635Y-154989973D01*
X140838616Y-154817835D01*
X140818388Y-154769000D01*
X140759389Y-154626564D01*
X140719000Y-154423516D01*
X140719000Y-154216484D01*
X140759389Y-154013436D01*
X140838615Y-153822167D01*
X140953635Y-153650027D01*
X141100027Y-153503635D01*
X141166828Y-153459000D01*
X141272165Y-153388616D01*
X141272167Y-153388615D01*
X141463436Y-153309389D01*
X141666484Y-153269000D01*
X141873516Y-153269000D01*
X142076564Y-153309389D01*
X142076564Y-153309389D01*
G37*
G36*
X212076564Y-153309389D02*
G01*
X212267833Y-153388615D01*
X212267835Y-153388616D01*
X212373172Y-153459000D01*
X212439973Y-153503635D01*
X212586365Y-153650027D01*
X212701385Y-153822167D01*
X212780611Y-154013436D01*
X212821000Y-154216484D01*
X212821000Y-154423516D01*
X212780611Y-154626564D01*
X212721612Y-154769000D01*
X212701384Y-154817835D01*
X212586365Y-154989973D01*
X212439973Y-155136365D01*
X212267835Y-155251384D01*
X212267834Y-155251385D01*
X212267833Y-155251385D01*
X212076564Y-155330611D01*
X211873516Y-155371000D01*
X211666484Y-155371000D01*
X211463436Y-155330611D01*
X211272167Y-155251385D01*
X211272166Y-155251385D01*
X211272165Y-155251384D01*
X211100027Y-155136365D01*
X210953635Y-154989973D01*
X210838616Y-154817835D01*
X210818388Y-154769000D01*
X210759389Y-154626564D01*
X210719000Y-154423516D01*
X210719000Y-154216484D01*
X210759389Y-154013436D01*
X210838615Y-153822167D01*
X210953635Y-153650027D01*
X211100027Y-153503635D01*
X211166828Y-153459000D01*
X211272165Y-153388616D01*
X211272167Y-153388615D01*
X211463436Y-153309389D01*
X211666484Y-153269000D01*
X211873516Y-153269000D01*
X212076564Y-153309389D01*
X212076564Y-153309389D01*
G37*
G36*
X321076564Y-153309389D02*
G01*
X321267833Y-153388615D01*
X321267835Y-153388616D01*
X321373172Y-153459000D01*
X321439973Y-153503635D01*
X321586365Y-153650027D01*
X321701385Y-153822167D01*
X321780611Y-154013436D01*
X321821000Y-154216484D01*
X321821000Y-154423516D01*
X321780611Y-154626564D01*
X321721612Y-154769000D01*
X321701384Y-154817835D01*
X321586365Y-154989973D01*
X321439973Y-155136365D01*
X321267835Y-155251384D01*
X321267834Y-155251385D01*
X321267833Y-155251385D01*
X321076564Y-155330611D01*
X320873516Y-155371000D01*
X320666484Y-155371000D01*
X320463436Y-155330611D01*
X320272167Y-155251385D01*
X320272166Y-155251385D01*
X320272165Y-155251384D01*
X320100027Y-155136365D01*
X319953635Y-154989973D01*
X319838616Y-154817835D01*
X319818388Y-154769000D01*
X319759389Y-154626564D01*
X319719000Y-154423516D01*
X319719000Y-154216484D01*
X319759389Y-154013436D01*
X319838615Y-153822167D01*
X319953635Y-153650027D01*
X320100027Y-153503635D01*
X320166828Y-153459000D01*
X320272165Y-153388616D01*
X320272167Y-153388615D01*
X320463436Y-153309389D01*
X320666484Y-153269000D01*
X320873516Y-153269000D01*
X321076564Y-153309389D01*
X321076564Y-153309389D01*
G37*
G36*
X313076564Y-153309389D02*
G01*
X313267833Y-153388615D01*
X313267835Y-153388616D01*
X313373172Y-153459000D01*
X313439973Y-153503635D01*
X313586365Y-153650027D01*
X313701385Y-153822167D01*
X313780611Y-154013436D01*
X313821000Y-154216484D01*
X313821000Y-154423516D01*
X313780611Y-154626564D01*
X313721612Y-154769000D01*
X313701384Y-154817835D01*
X313586365Y-154989973D01*
X313439973Y-155136365D01*
X313267835Y-155251384D01*
X313267834Y-155251385D01*
X313267833Y-155251385D01*
X313076564Y-155330611D01*
X312873516Y-155371000D01*
X312666484Y-155371000D01*
X312463436Y-155330611D01*
X312272167Y-155251385D01*
X312272166Y-155251385D01*
X312272165Y-155251384D01*
X312100027Y-155136365D01*
X311953635Y-154989973D01*
X311838616Y-154817835D01*
X311818388Y-154769000D01*
X311759389Y-154626564D01*
X311719000Y-154423516D01*
X311719000Y-154216484D01*
X311759389Y-154013436D01*
X311838615Y-153822167D01*
X311953635Y-153650027D01*
X312100027Y-153503635D01*
X312166828Y-153459000D01*
X312272165Y-153388616D01*
X312272167Y-153388615D01*
X312463436Y-153309389D01*
X312666484Y-153269000D01*
X312873516Y-153269000D01*
X313076564Y-153309389D01*
X313076564Y-153309389D01*
G37*
G36*
X181076564Y-153309389D02*
G01*
X181267833Y-153388615D01*
X181267835Y-153388616D01*
X181373172Y-153459000D01*
X181439973Y-153503635D01*
X181586365Y-153650027D01*
X181701385Y-153822167D01*
X181780611Y-154013436D01*
X181821000Y-154216484D01*
X181821000Y-154423516D01*
X181780611Y-154626564D01*
X181721612Y-154769000D01*
X181701384Y-154817835D01*
X181586365Y-154989973D01*
X181439973Y-155136365D01*
X181267835Y-155251384D01*
X181267834Y-155251385D01*
X181267833Y-155251385D01*
X181076564Y-155330611D01*
X180873516Y-155371000D01*
X180666484Y-155371000D01*
X180463436Y-155330611D01*
X180272167Y-155251385D01*
X180272166Y-155251385D01*
X180272165Y-155251384D01*
X180100027Y-155136365D01*
X179953635Y-154989973D01*
X179838616Y-154817835D01*
X179818388Y-154769000D01*
X179759389Y-154626564D01*
X179719000Y-154423516D01*
X179719000Y-154216484D01*
X179759389Y-154013436D01*
X179838615Y-153822167D01*
X179953635Y-153650027D01*
X180100027Y-153503635D01*
X180166828Y-153459000D01*
X180272165Y-153388616D01*
X180272167Y-153388615D01*
X180463436Y-153309389D01*
X180666484Y-153269000D01*
X180873516Y-153269000D01*
X181076564Y-153309389D01*
X181076564Y-153309389D01*
G37*
G36*
X80076564Y-153309389D02*
G01*
X80267833Y-153388615D01*
X80267835Y-153388616D01*
X80373172Y-153459000D01*
X80439973Y-153503635D01*
X80586365Y-153650027D01*
X80701385Y-153822167D01*
X80780611Y-154013436D01*
X80821000Y-154216484D01*
X80821000Y-154423516D01*
X80780611Y-154626564D01*
X80721612Y-154769000D01*
X80701384Y-154817835D01*
X80586365Y-154989973D01*
X80439973Y-155136365D01*
X80267835Y-155251384D01*
X80267834Y-155251385D01*
X80267833Y-155251385D01*
X80076564Y-155330611D01*
X79873516Y-155371000D01*
X79666484Y-155371000D01*
X79463436Y-155330611D01*
X79272167Y-155251385D01*
X79272166Y-155251385D01*
X79272165Y-155251384D01*
X79100027Y-155136365D01*
X78953635Y-154989973D01*
X78838616Y-154817835D01*
X78818388Y-154769000D01*
X78759389Y-154626564D01*
X78719000Y-154423516D01*
X78719000Y-154216484D01*
X78759389Y-154013436D01*
X78838615Y-153822167D01*
X78953635Y-153650027D01*
X79100027Y-153503635D01*
X79166828Y-153459000D01*
X79272165Y-153388616D01*
X79272167Y-153388615D01*
X79463436Y-153309389D01*
X79666484Y-153269000D01*
X79873516Y-153269000D01*
X80076564Y-153309389D01*
X80076564Y-153309389D01*
G37*
G36*
X290076564Y-153309389D02*
G01*
X290267833Y-153388615D01*
X290267835Y-153388616D01*
X290373172Y-153459000D01*
X290439973Y-153503635D01*
X290586365Y-153650027D01*
X290701385Y-153822167D01*
X290780611Y-154013436D01*
X290821000Y-154216484D01*
X290821000Y-154423516D01*
X290780611Y-154626564D01*
X290721612Y-154769000D01*
X290701384Y-154817835D01*
X290586365Y-154989973D01*
X290439973Y-155136365D01*
X290267835Y-155251384D01*
X290267834Y-155251385D01*
X290267833Y-155251385D01*
X290076564Y-155330611D01*
X289873516Y-155371000D01*
X289666484Y-155371000D01*
X289463436Y-155330611D01*
X289272167Y-155251385D01*
X289272166Y-155251385D01*
X289272165Y-155251384D01*
X289100027Y-155136365D01*
X288953635Y-154989973D01*
X288838616Y-154817835D01*
X288818388Y-154769000D01*
X288759389Y-154626564D01*
X288719000Y-154423516D01*
X288719000Y-154216484D01*
X288759389Y-154013436D01*
X288838615Y-153822167D01*
X288953635Y-153650027D01*
X289100027Y-153503635D01*
X289166828Y-153459000D01*
X289272165Y-153388616D01*
X289272167Y-153388615D01*
X289463436Y-153309389D01*
X289666484Y-153269000D01*
X289873516Y-153269000D01*
X290076564Y-153309389D01*
X290076564Y-153309389D01*
G37*
G36*
X282076564Y-153309389D02*
G01*
X282267833Y-153388615D01*
X282267835Y-153388616D01*
X282373172Y-153459000D01*
X282439973Y-153503635D01*
X282586365Y-153650027D01*
X282701385Y-153822167D01*
X282780611Y-154013436D01*
X282821000Y-154216484D01*
X282821000Y-154423516D01*
X282780611Y-154626564D01*
X282721612Y-154769000D01*
X282701384Y-154817835D01*
X282586365Y-154989973D01*
X282439973Y-155136365D01*
X282267835Y-155251384D01*
X282267834Y-155251385D01*
X282267833Y-155251385D01*
X282076564Y-155330611D01*
X281873516Y-155371000D01*
X281666484Y-155371000D01*
X281463436Y-155330611D01*
X281272167Y-155251385D01*
X281272166Y-155251385D01*
X281272165Y-155251384D01*
X281100027Y-155136365D01*
X280953635Y-154989973D01*
X280838616Y-154817835D01*
X280818388Y-154769000D01*
X280759389Y-154626564D01*
X280719000Y-154423516D01*
X280719000Y-154216484D01*
X280759389Y-154013436D01*
X280838615Y-153822167D01*
X280953635Y-153650027D01*
X281100027Y-153503635D01*
X281166828Y-153459000D01*
X281272165Y-153388616D01*
X281272167Y-153388615D01*
X281463436Y-153309389D01*
X281666484Y-153269000D01*
X281873516Y-153269000D01*
X282076564Y-153309389D01*
X282076564Y-153309389D01*
G37*
G36*
X173076564Y-153309389D02*
G01*
X173267833Y-153388615D01*
X173267835Y-153388616D01*
X173373172Y-153459000D01*
X173439973Y-153503635D01*
X173586365Y-153650027D01*
X173701385Y-153822167D01*
X173780611Y-154013436D01*
X173821000Y-154216484D01*
X173821000Y-154423516D01*
X173780611Y-154626564D01*
X173721612Y-154769000D01*
X173701384Y-154817835D01*
X173586365Y-154989973D01*
X173439973Y-155136365D01*
X173267835Y-155251384D01*
X173267834Y-155251385D01*
X173267833Y-155251385D01*
X173076564Y-155330611D01*
X172873516Y-155371000D01*
X172666484Y-155371000D01*
X172463436Y-155330611D01*
X172272167Y-155251385D01*
X172272166Y-155251385D01*
X172272165Y-155251384D01*
X172100027Y-155136365D01*
X171953635Y-154989973D01*
X171838616Y-154817835D01*
X171818388Y-154769000D01*
X171759389Y-154626564D01*
X171719000Y-154423516D01*
X171719000Y-154216484D01*
X171759389Y-154013436D01*
X171838615Y-153822167D01*
X171953635Y-153650027D01*
X172100027Y-153503635D01*
X172166828Y-153459000D01*
X172272165Y-153388616D01*
X172272167Y-153388615D01*
X172463436Y-153309389D01*
X172666484Y-153269000D01*
X172873516Y-153269000D01*
X173076564Y-153309389D01*
X173076564Y-153309389D01*
G37*
G36*
X222659943Y-140326248D02*
G01*
X223215189Y-140556238D01*
X223215190Y-140556239D01*
X223714899Y-140890134D01*
X224139866Y-141315101D01*
X224139867Y-141315103D01*
X224473762Y-141814811D01*
X224703752Y-142370057D01*
X224821000Y-142959501D01*
X224821000Y-143560499D01*
X224703752Y-144149943D01*
X224473762Y-144705189D01*
X224473761Y-144705190D01*
X224139866Y-145204899D01*
X223714899Y-145629866D01*
X223463347Y-145797948D01*
X223215189Y-145963762D01*
X222659943Y-146193752D01*
X222070499Y-146311000D01*
X221469501Y-146311000D01*
X220880057Y-146193752D01*
X220324811Y-145963762D01*
X220076653Y-145797948D01*
X219825101Y-145629866D01*
X219400134Y-145204899D01*
X219066239Y-144705190D01*
X219066238Y-144705189D01*
X218836248Y-144149943D01*
X218719000Y-143560499D01*
X218719000Y-142959501D01*
X218836248Y-142370057D01*
X219066238Y-141814811D01*
X219400133Y-141315103D01*
X219400134Y-141315101D01*
X219825101Y-140890134D01*
X220324810Y-140556239D01*
X220324811Y-140556238D01*
X220880057Y-140326248D01*
X221469501Y-140209000D01*
X222070499Y-140209000D01*
X222659943Y-140326248D01*
X222659943Y-140326248D01*
G37*
G36*
X152659943Y-140326248D02*
G01*
X153215189Y-140556238D01*
X153215190Y-140556239D01*
X153714899Y-140890134D01*
X154139866Y-141315101D01*
X154139867Y-141315103D01*
X154473762Y-141814811D01*
X154703752Y-142370057D01*
X154821000Y-142959501D01*
X154821000Y-143560499D01*
X154703752Y-144149943D01*
X154473762Y-144705189D01*
X154473761Y-144705190D01*
X154139866Y-145204899D01*
X153714899Y-145629866D01*
X153463347Y-145797948D01*
X153215189Y-145963762D01*
X152659943Y-146193752D01*
X152070499Y-146311000D01*
X151469501Y-146311000D01*
X150880057Y-146193752D01*
X150324811Y-145963762D01*
X150076653Y-145797948D01*
X149825101Y-145629866D01*
X149400134Y-145204899D01*
X149066239Y-144705190D01*
X149066238Y-144705189D01*
X148836248Y-144149943D01*
X148719000Y-143560499D01*
X148719000Y-142959501D01*
X148836248Y-142370057D01*
X149066238Y-141814811D01*
X149400133Y-141315103D01*
X149400134Y-141315101D01*
X149825101Y-140890134D01*
X150324810Y-140556239D01*
X150324811Y-140556238D01*
X150880057Y-140326248D01*
X151469501Y-140209000D01*
X152070499Y-140209000D01*
X152659943Y-140326248D01*
X152659943Y-140326248D01*
G37*
G36*
X292659943Y-140326248D02*
G01*
X293215189Y-140556238D01*
X293215190Y-140556239D01*
X293714899Y-140890134D01*
X294139866Y-141315101D01*
X294139867Y-141315103D01*
X294473762Y-141814811D01*
X294703752Y-142370057D01*
X294821000Y-142959501D01*
X294821000Y-143560499D01*
X294703752Y-144149943D01*
X294473762Y-144705189D01*
X294473761Y-144705190D01*
X294139866Y-145204899D01*
X293714899Y-145629866D01*
X293463347Y-145797948D01*
X293215189Y-145963762D01*
X292659943Y-146193752D01*
X292070499Y-146311000D01*
X291469501Y-146311000D01*
X290880057Y-146193752D01*
X290324811Y-145963762D01*
X290076653Y-145797948D01*
X289825101Y-145629866D01*
X289400134Y-145204899D01*
X289066239Y-144705190D01*
X289066238Y-144705189D01*
X288836248Y-144149943D01*
X288719000Y-143560499D01*
X288719000Y-142959501D01*
X288836248Y-142370057D01*
X289066238Y-141814811D01*
X289400133Y-141315103D01*
X289400134Y-141315101D01*
X289825101Y-140890134D01*
X290324810Y-140556239D01*
X290324811Y-140556238D01*
X290880057Y-140326248D01*
X291469501Y-140209000D01*
X292070499Y-140209000D01*
X292659943Y-140326248D01*
X292659943Y-140326248D01*
G37*
G36*
X82659943Y-140326248D02*
G01*
X83215189Y-140556238D01*
X83215190Y-140556239D01*
X83714899Y-140890134D01*
X84139866Y-141315101D01*
X84139867Y-141315103D01*
X84473762Y-141814811D01*
X84703752Y-142370057D01*
X84821000Y-142959501D01*
X84821000Y-143560499D01*
X84703752Y-144149943D01*
X84473762Y-144705189D01*
X84473761Y-144705190D01*
X84139866Y-145204899D01*
X83714899Y-145629866D01*
X83463347Y-145797948D01*
X83215189Y-145963762D01*
X82659943Y-146193752D01*
X82070499Y-146311000D01*
X81469501Y-146311000D01*
X80880057Y-146193752D01*
X80324811Y-145963762D01*
X80076653Y-145797948D01*
X79825101Y-145629866D01*
X79400134Y-145204899D01*
X79066239Y-144705190D01*
X79066238Y-144705189D01*
X78836248Y-144149943D01*
X78719000Y-143560499D01*
X78719000Y-142959501D01*
X78836248Y-142370057D01*
X79066238Y-141814811D01*
X79400133Y-141315103D01*
X79400134Y-141315101D01*
X79825101Y-140890134D01*
X80324810Y-140556239D01*
X80324811Y-140556238D01*
X80880057Y-140326248D01*
X81469501Y-140209000D01*
X82070499Y-140209000D01*
X82659943Y-140326248D01*
X82659943Y-140326248D01*
G37*
G36*
X235221000Y-144521000D02*
G01*
X234319000Y-144521000D01*
X234319000Y-143519000D01*
X235221000Y-143519000D01*
X235221000Y-144521000D01*
X235221000Y-144521000D01*
G37*
G36*
X305221000Y-144521000D02*
G01*
X304319000Y-144521000D01*
X304319000Y-143519000D01*
X305221000Y-143519000D01*
X305221000Y-144521000D01*
X305221000Y-144521000D01*
G37*
G36*
X245221000Y-144521000D02*
G01*
X244319000Y-144521000D01*
X244319000Y-143519000D01*
X245221000Y-143519000D01*
X245221000Y-144521000D01*
X245221000Y-144521000D01*
G37*
G36*
X315221000Y-144521000D02*
G01*
X314319000Y-144521000D01*
X314319000Y-143519000D01*
X315221000Y-143519000D01*
X315221000Y-144521000D01*
X315221000Y-144521000D01*
G37*
G36*
X95221000Y-144521000D02*
G01*
X94319000Y-144521000D01*
X94319000Y-143519000D01*
X95221000Y-143519000D01*
X95221000Y-144521000D01*
X95221000Y-144521000D01*
G37*
G36*
X175221000Y-144521000D02*
G01*
X174319000Y-144521000D01*
X174319000Y-143519000D01*
X175221000Y-143519000D01*
X175221000Y-144521000D01*
X175221000Y-144521000D01*
G37*
G36*
X105221000Y-144521000D02*
G01*
X104319000Y-144521000D01*
X104319000Y-143519000D01*
X105221000Y-143519000D01*
X105221000Y-144521000D01*
X105221000Y-144521000D01*
G37*
G36*
X165221000Y-144521000D02*
G01*
X164319000Y-144521000D01*
X164319000Y-143519000D01*
X165221000Y-143519000D01*
X165221000Y-144521000D01*
X165221000Y-144521000D01*
G37*
G36*
X174271000Y-142521000D02*
G01*
X173369000Y-142521000D01*
X173369000Y-141519000D01*
X174271000Y-141519000D01*
X174271000Y-142521000D01*
X174271000Y-142521000D01*
G37*
G36*
X94271000Y-142521000D02*
G01*
X93369000Y-142521000D01*
X93369000Y-141519000D01*
X94271000Y-141519000D01*
X94271000Y-142521000D01*
X94271000Y-142521000D01*
G37*
G36*
X104271000Y-142521000D02*
G01*
X103369000Y-142521000D01*
X103369000Y-141519000D01*
X104271000Y-141519000D01*
X104271000Y-142521000D01*
X104271000Y-142521000D01*
G37*
G36*
X106171000Y-142521000D02*
G01*
X105269000Y-142521000D01*
X105269000Y-141519000D01*
X106171000Y-141519000D01*
X106171000Y-142521000D01*
X106171000Y-142521000D01*
G37*
G36*
X166171000Y-142521000D02*
G01*
X165269000Y-142521000D01*
X165269000Y-141519000D01*
X166171000Y-141519000D01*
X166171000Y-142521000D01*
X166171000Y-142521000D01*
G37*
G36*
X176171000Y-142521000D02*
G01*
X175269000Y-142521000D01*
X175269000Y-141519000D01*
X176171000Y-141519000D01*
X176171000Y-142521000D01*
X176171000Y-142521000D01*
G37*
G36*
X234271000Y-142521000D02*
G01*
X233369000Y-142521000D01*
X233369000Y-141519000D01*
X234271000Y-141519000D01*
X234271000Y-142521000D01*
X234271000Y-142521000D01*
G37*
G36*
X96171000Y-142521000D02*
G01*
X95269000Y-142521000D01*
X95269000Y-141519000D01*
X96171000Y-141519000D01*
X96171000Y-142521000D01*
X96171000Y-142521000D01*
G37*
G36*
X244271000Y-142521000D02*
G01*
X243369000Y-142521000D01*
X243369000Y-141519000D01*
X244271000Y-141519000D01*
X244271000Y-142521000D01*
X244271000Y-142521000D01*
G37*
G36*
X164271000Y-142521000D02*
G01*
X163369000Y-142521000D01*
X163369000Y-141519000D01*
X164271000Y-141519000D01*
X164271000Y-142521000D01*
X164271000Y-142521000D01*
G37*
G36*
X246171000Y-142521000D02*
G01*
X245269000Y-142521000D01*
X245269000Y-141519000D01*
X246171000Y-141519000D01*
X246171000Y-142521000D01*
X246171000Y-142521000D01*
G37*
G36*
X304271000Y-142521000D02*
G01*
X303369000Y-142521000D01*
X303369000Y-141519000D01*
X304271000Y-141519000D01*
X304271000Y-142521000D01*
X304271000Y-142521000D01*
G37*
G36*
X306171000Y-142521000D02*
G01*
X305269000Y-142521000D01*
X305269000Y-141519000D01*
X306171000Y-141519000D01*
X306171000Y-142521000D01*
X306171000Y-142521000D01*
G37*
G36*
X314271000Y-142521000D02*
G01*
X313369000Y-142521000D01*
X313369000Y-141519000D01*
X314271000Y-141519000D01*
X314271000Y-142521000D01*
X314271000Y-142521000D01*
G37*
G36*
X316171000Y-142521000D02*
G01*
X315269000Y-142521000D01*
X315269000Y-141519000D01*
X316171000Y-141519000D01*
X316171000Y-142521000D01*
X316171000Y-142521000D01*
G37*
G36*
X236171000Y-142521000D02*
G01*
X235269000Y-142521000D01*
X235269000Y-141519000D01*
X236171000Y-141519000D01*
X236171000Y-142521000D01*
X236171000Y-142521000D01*
G37*
G36*
X175971000Y-139446000D02*
G01*
X175069000Y-139446000D01*
X175069000Y-138594000D01*
X175971000Y-138594000D01*
X175971000Y-139446000D01*
X175971000Y-139446000D01*
G37*
G36*
X305971000Y-139446000D02*
G01*
X305069000Y-139446000D01*
X305069000Y-138594000D01*
X305971000Y-138594000D01*
X305971000Y-139446000D01*
X305971000Y-139446000D01*
G37*
G36*
X304471000Y-139446000D02*
G01*
X303569000Y-139446000D01*
X303569000Y-138594000D01*
X304471000Y-138594000D01*
X304471000Y-139446000D01*
X304471000Y-139446000D01*
G37*
G36*
X245971000Y-139446000D02*
G01*
X245069000Y-139446000D01*
X245069000Y-138594000D01*
X245971000Y-138594000D01*
X245971000Y-139446000D01*
X245971000Y-139446000D01*
G37*
G36*
X244471000Y-139446000D02*
G01*
X243569000Y-139446000D01*
X243569000Y-138594000D01*
X244471000Y-138594000D01*
X244471000Y-139446000D01*
X244471000Y-139446000D01*
G37*
G36*
X315971000Y-139446000D02*
G01*
X315069000Y-139446000D01*
X315069000Y-138594000D01*
X315971000Y-138594000D01*
X315971000Y-139446000D01*
X315971000Y-139446000D01*
G37*
G36*
X314471000Y-139446000D02*
G01*
X313569000Y-139446000D01*
X313569000Y-138594000D01*
X314471000Y-138594000D01*
X314471000Y-139446000D01*
X314471000Y-139446000D01*
G37*
G36*
X235971000Y-139446000D02*
G01*
X235069000Y-139446000D01*
X235069000Y-138594000D01*
X235971000Y-138594000D01*
X235971000Y-139446000D01*
X235971000Y-139446000D01*
G37*
G36*
X234471000Y-139446000D02*
G01*
X233569000Y-139446000D01*
X233569000Y-138594000D01*
X234471000Y-138594000D01*
X234471000Y-139446000D01*
X234471000Y-139446000D01*
G37*
G36*
X174471000Y-139446000D02*
G01*
X173569000Y-139446000D01*
X173569000Y-138594000D01*
X174471000Y-138594000D01*
X174471000Y-139446000D01*
X174471000Y-139446000D01*
G37*
G36*
X95971000Y-139446000D02*
G01*
X95069000Y-139446000D01*
X95069000Y-138594000D01*
X95971000Y-138594000D01*
X95971000Y-139446000D01*
X95971000Y-139446000D01*
G37*
G36*
X94471000Y-139446000D02*
G01*
X93569000Y-139446000D01*
X93569000Y-138594000D01*
X94471000Y-138594000D01*
X94471000Y-139446000D01*
X94471000Y-139446000D01*
G37*
G36*
X165971000Y-139446000D02*
G01*
X165069000Y-139446000D01*
X165069000Y-138594000D01*
X165971000Y-138594000D01*
X165971000Y-139446000D01*
X165971000Y-139446000D01*
G37*
G36*
X164471000Y-139446000D02*
G01*
X163569000Y-139446000D01*
X163569000Y-138594000D01*
X164471000Y-138594000D01*
X164471000Y-139446000D01*
X164471000Y-139446000D01*
G37*
G36*
X105971000Y-139446000D02*
G01*
X105069000Y-139446000D01*
X105069000Y-138594000D01*
X105971000Y-138594000D01*
X105971000Y-139446000D01*
X105971000Y-139446000D01*
G37*
G36*
X104471000Y-139446000D02*
G01*
X103569000Y-139446000D01*
X103569000Y-138594000D01*
X104471000Y-138594000D01*
X104471000Y-139446000D01*
X104471000Y-139446000D01*
G37*
G36*
X66805331Y-133788211D02*
G01*
X67133092Y-133923974D01*
X67428070Y-134121072D01*
X67678928Y-134371930D01*
X67876026Y-134666908D01*
X68011789Y-134994669D01*
X68081000Y-135342616D01*
X68081000Y-135697384D01*
X68011789Y-136045331D01*
X67876026Y-136373092D01*
X67678928Y-136668070D01*
X67428070Y-136918928D01*
X67133092Y-137116026D01*
X66805331Y-137251789D01*
X66457384Y-137321000D01*
X66102616Y-137321000D01*
X65754669Y-137251789D01*
X65426908Y-137116026D01*
X65131930Y-136918928D01*
X64881072Y-136668070D01*
X64683974Y-136373092D01*
X64548211Y-136045331D01*
X64479000Y-135697384D01*
X64479000Y-135342616D01*
X64548211Y-134994669D01*
X64683974Y-134666908D01*
X64881072Y-134371930D01*
X65131930Y-134121072D01*
X65426908Y-133923974D01*
X65754669Y-133788211D01*
X66102616Y-133719000D01*
X66457384Y-133719000D01*
X66805331Y-133788211D01*
X66805331Y-133788211D01*
G37*
G36*
X276805331Y-133788211D02*
G01*
X277133092Y-133923974D01*
X277428070Y-134121072D01*
X277678928Y-134371930D01*
X277876026Y-134666908D01*
X278011789Y-134994669D01*
X278081000Y-135342616D01*
X278081000Y-135697384D01*
X278011789Y-136045331D01*
X277876026Y-136373092D01*
X277678928Y-136668070D01*
X277428070Y-136918928D01*
X277133092Y-137116026D01*
X276805331Y-137251789D01*
X276457384Y-137321000D01*
X276102616Y-137321000D01*
X275754669Y-137251789D01*
X275426908Y-137116026D01*
X275131930Y-136918928D01*
X274881072Y-136668070D01*
X274683974Y-136373092D01*
X274548211Y-136045331D01*
X274479000Y-135697384D01*
X274479000Y-135342616D01*
X274548211Y-134994669D01*
X274683974Y-134666908D01*
X274881072Y-134371930D01*
X275131930Y-134121072D01*
X275426908Y-133923974D01*
X275754669Y-133788211D01*
X276102616Y-133719000D01*
X276457384Y-133719000D01*
X276805331Y-133788211D01*
X276805331Y-133788211D01*
G37*
G36*
X136805331Y-133788211D02*
G01*
X137133092Y-133923974D01*
X137428070Y-134121072D01*
X137678928Y-134371930D01*
X137876026Y-134666908D01*
X138011789Y-134994669D01*
X138081000Y-135342616D01*
X138081000Y-135697384D01*
X138011789Y-136045331D01*
X137876026Y-136373092D01*
X137678928Y-136668070D01*
X137428070Y-136918928D01*
X137133092Y-137116026D01*
X136805331Y-137251789D01*
X136457384Y-137321000D01*
X136102616Y-137321000D01*
X135754669Y-137251789D01*
X135426908Y-137116026D01*
X135131930Y-136918928D01*
X134881072Y-136668070D01*
X134683974Y-136373092D01*
X134548211Y-136045331D01*
X134479000Y-135697384D01*
X134479000Y-135342616D01*
X134548211Y-134994669D01*
X134683974Y-134666908D01*
X134881072Y-134371930D01*
X135131930Y-134121072D01*
X135426908Y-133923974D01*
X135754669Y-133788211D01*
X136102616Y-133719000D01*
X136457384Y-133719000D01*
X136805331Y-133788211D01*
X136805331Y-133788211D01*
G37*
G36*
X206805331Y-133788211D02*
G01*
X207133092Y-133923974D01*
X207428070Y-134121072D01*
X207678928Y-134371930D01*
X207876026Y-134666908D01*
X208011789Y-134994669D01*
X208081000Y-135342616D01*
X208081000Y-135697384D01*
X208011789Y-136045331D01*
X207876026Y-136373092D01*
X207678928Y-136668070D01*
X207428070Y-136918928D01*
X207133092Y-137116026D01*
X206805331Y-137251789D01*
X206457384Y-137321000D01*
X206102616Y-137321000D01*
X205754669Y-137251789D01*
X205426908Y-137116026D01*
X205131930Y-136918928D01*
X204881072Y-136668070D01*
X204683974Y-136373092D01*
X204548211Y-136045331D01*
X204479000Y-135697384D01*
X204479000Y-135342616D01*
X204548211Y-134994669D01*
X204683974Y-134666908D01*
X204881072Y-134371930D01*
X205131930Y-134121072D01*
X205426908Y-133923974D01*
X205754669Y-133788211D01*
X206102616Y-133719000D01*
X206457384Y-133719000D01*
X206805331Y-133788211D01*
X206805331Y-133788211D01*
G37*
G36*
X116805331Y-132528211D02*
G01*
X117133092Y-132663974D01*
X117428070Y-132861072D01*
X117678928Y-133111930D01*
X117876026Y-133406908D01*
X118011789Y-133734669D01*
X118081000Y-134082616D01*
X118081000Y-134437384D01*
X118011789Y-134785331D01*
X117876026Y-135113092D01*
X117678928Y-135408070D01*
X117428070Y-135658928D01*
X117133092Y-135856026D01*
X116805331Y-135991789D01*
X116457384Y-136061000D01*
X116102616Y-136061000D01*
X115754669Y-135991789D01*
X115426908Y-135856026D01*
X115131930Y-135658928D01*
X114881072Y-135408070D01*
X114683974Y-135113092D01*
X114548211Y-134785331D01*
X114479000Y-134437384D01*
X114479000Y-134082616D01*
X114548211Y-133734669D01*
X114683974Y-133406908D01*
X114881072Y-133111930D01*
X115131930Y-132861072D01*
X115426908Y-132663974D01*
X115754669Y-132528211D01*
X116102616Y-132459000D01*
X116457384Y-132459000D01*
X116805331Y-132528211D01*
X116805331Y-132528211D01*
G37*
G36*
X256805331Y-132528211D02*
G01*
X257133092Y-132663974D01*
X257428070Y-132861072D01*
X257678928Y-133111930D01*
X257876026Y-133406908D01*
X258011789Y-133734669D01*
X258081000Y-134082616D01*
X258081000Y-134437384D01*
X258011789Y-134785331D01*
X257876026Y-135113092D01*
X257678928Y-135408070D01*
X257428070Y-135658928D01*
X257133092Y-135856026D01*
X256805331Y-135991789D01*
X256457384Y-136061000D01*
X256102616Y-136061000D01*
X255754669Y-135991789D01*
X255426908Y-135856026D01*
X255131930Y-135658928D01*
X254881072Y-135408070D01*
X254683974Y-135113092D01*
X254548211Y-134785331D01*
X254479000Y-134437384D01*
X254479000Y-134082616D01*
X254548211Y-133734669D01*
X254683974Y-133406908D01*
X254881072Y-133111930D01*
X255131930Y-132861072D01*
X255426908Y-132663974D01*
X255754669Y-132528211D01*
X256102616Y-132459000D01*
X256457384Y-132459000D01*
X256805331Y-132528211D01*
X256805331Y-132528211D01*
G37*
G36*
X186805331Y-132528211D02*
G01*
X187133092Y-132663974D01*
X187428070Y-132861072D01*
X187678928Y-133111930D01*
X187876026Y-133406908D01*
X188011789Y-133734669D01*
X188081000Y-134082616D01*
X188081000Y-134437384D01*
X188011789Y-134785331D01*
X187876026Y-135113092D01*
X187678928Y-135408070D01*
X187428070Y-135658928D01*
X187133092Y-135856026D01*
X186805331Y-135991789D01*
X186457384Y-136061000D01*
X186102616Y-136061000D01*
X185754669Y-135991789D01*
X185426908Y-135856026D01*
X185131930Y-135658928D01*
X184881072Y-135408070D01*
X184683974Y-135113092D01*
X184548211Y-134785331D01*
X184479000Y-134437384D01*
X184479000Y-134082616D01*
X184548211Y-133734669D01*
X184683974Y-133406908D01*
X184881072Y-133111930D01*
X185131930Y-132861072D01*
X185426908Y-132663974D01*
X185754669Y-132528211D01*
X186102616Y-132459000D01*
X186457384Y-132459000D01*
X186805331Y-132528211D01*
X186805331Y-132528211D01*
G37*
G36*
X326805331Y-132528211D02*
G01*
X327133092Y-132663974D01*
X327428070Y-132861072D01*
X327678928Y-133111930D01*
X327876026Y-133406908D01*
X328011789Y-133734669D01*
X328081000Y-134082616D01*
X328081000Y-134437384D01*
X328011789Y-134785331D01*
X327876026Y-135113092D01*
X327678928Y-135408070D01*
X327428070Y-135658928D01*
X327133092Y-135856026D01*
X326805331Y-135991789D01*
X326457384Y-136061000D01*
X326102616Y-136061000D01*
X325754669Y-135991789D01*
X325426908Y-135856026D01*
X325131930Y-135658928D01*
X324881072Y-135408070D01*
X324683974Y-135113092D01*
X324548211Y-134785331D01*
X324479000Y-134437384D01*
X324479000Y-134082616D01*
X324548211Y-133734669D01*
X324683974Y-133406908D01*
X324881072Y-133111930D01*
X325131930Y-132861072D01*
X325426908Y-132663974D01*
X325754669Y-132528211D01*
X326102616Y-132459000D01*
X326457384Y-132459000D01*
X326805331Y-132528211D01*
X326805331Y-132528211D01*
G37*
G36*
X80076564Y-130309389D02*
G01*
X80267833Y-130388615D01*
X80267835Y-130388616D01*
X80341722Y-130437986D01*
X80439973Y-130503635D01*
X80586365Y-130650027D01*
X80701385Y-130822167D01*
X80780611Y-131013436D01*
X80821000Y-131216484D01*
X80821000Y-131423516D01*
X80780611Y-131626564D01*
X80701385Y-131817833D01*
X80701384Y-131817835D01*
X80586365Y-131989973D01*
X80439973Y-132136365D01*
X80267835Y-132251384D01*
X80267834Y-132251385D01*
X80267833Y-132251385D01*
X80076564Y-132330611D01*
X79873516Y-132371000D01*
X79666484Y-132371000D01*
X79463436Y-132330611D01*
X79272167Y-132251385D01*
X79272166Y-132251385D01*
X79272165Y-132251384D01*
X79100027Y-132136365D01*
X78953635Y-131989973D01*
X78838616Y-131817835D01*
X78838615Y-131817833D01*
X78759389Y-131626564D01*
X78719000Y-131423516D01*
X78719000Y-131216484D01*
X78759389Y-131013436D01*
X78838615Y-130822167D01*
X78953635Y-130650027D01*
X79100027Y-130503635D01*
X79198278Y-130437986D01*
X79272165Y-130388616D01*
X79272167Y-130388615D01*
X79463436Y-130309389D01*
X79666484Y-130269000D01*
X79873516Y-130269000D01*
X80076564Y-130309389D01*
X80076564Y-130309389D01*
G37*
G36*
X72076564Y-130309389D02*
G01*
X72267833Y-130388615D01*
X72267835Y-130388616D01*
X72341722Y-130437986D01*
X72439973Y-130503635D01*
X72586365Y-130650027D01*
X72701385Y-130822167D01*
X72780611Y-131013436D01*
X72821000Y-131216484D01*
X72821000Y-131423516D01*
X72780611Y-131626564D01*
X72701385Y-131817833D01*
X72701384Y-131817835D01*
X72586365Y-131989973D01*
X72439973Y-132136365D01*
X72267835Y-132251384D01*
X72267834Y-132251385D01*
X72267833Y-132251385D01*
X72076564Y-132330611D01*
X71873516Y-132371000D01*
X71666484Y-132371000D01*
X71463436Y-132330611D01*
X71272167Y-132251385D01*
X71272166Y-132251385D01*
X71272165Y-132251384D01*
X71100027Y-132136365D01*
X70953635Y-131989973D01*
X70838616Y-131817835D01*
X70838615Y-131817833D01*
X70759389Y-131626564D01*
X70719000Y-131423516D01*
X70719000Y-131216484D01*
X70759389Y-131013436D01*
X70838615Y-130822167D01*
X70953635Y-130650027D01*
X71100027Y-130503635D01*
X71198278Y-130437986D01*
X71272165Y-130388616D01*
X71272167Y-130388615D01*
X71463436Y-130309389D01*
X71666484Y-130269000D01*
X71873516Y-130269000D01*
X72076564Y-130309389D01*
X72076564Y-130309389D01*
G37*
G36*
X103076564Y-130309389D02*
G01*
X103267833Y-130388615D01*
X103267835Y-130388616D01*
X103341722Y-130437986D01*
X103439973Y-130503635D01*
X103586365Y-130650027D01*
X103701385Y-130822167D01*
X103780611Y-131013436D01*
X103821000Y-131216484D01*
X103821000Y-131423516D01*
X103780611Y-131626564D01*
X103701385Y-131817833D01*
X103701384Y-131817835D01*
X103586365Y-131989973D01*
X103439973Y-132136365D01*
X103267835Y-132251384D01*
X103267834Y-132251385D01*
X103267833Y-132251385D01*
X103076564Y-132330611D01*
X102873516Y-132371000D01*
X102666484Y-132371000D01*
X102463436Y-132330611D01*
X102272167Y-132251385D01*
X102272166Y-132251385D01*
X102272165Y-132251384D01*
X102100027Y-132136365D01*
X101953635Y-131989973D01*
X101838616Y-131817835D01*
X101838615Y-131817833D01*
X101759389Y-131626564D01*
X101719000Y-131423516D01*
X101719000Y-131216484D01*
X101759389Y-131013436D01*
X101838615Y-130822167D01*
X101953635Y-130650027D01*
X102100027Y-130503635D01*
X102198278Y-130437986D01*
X102272165Y-130388616D01*
X102272167Y-130388615D01*
X102463436Y-130309389D01*
X102666484Y-130269000D01*
X102873516Y-130269000D01*
X103076564Y-130309389D01*
X103076564Y-130309389D01*
G37*
G36*
X111076564Y-130309389D02*
G01*
X111267833Y-130388615D01*
X111267835Y-130388616D01*
X111341722Y-130437986D01*
X111439973Y-130503635D01*
X111586365Y-130650027D01*
X111701385Y-130822167D01*
X111780611Y-131013436D01*
X111821000Y-131216484D01*
X111821000Y-131423516D01*
X111780611Y-131626564D01*
X111701385Y-131817833D01*
X111701384Y-131817835D01*
X111586365Y-131989973D01*
X111439973Y-132136365D01*
X111267835Y-132251384D01*
X111267834Y-132251385D01*
X111267833Y-132251385D01*
X111076564Y-132330611D01*
X110873516Y-132371000D01*
X110666484Y-132371000D01*
X110463436Y-132330611D01*
X110272167Y-132251385D01*
X110272166Y-132251385D01*
X110272165Y-132251384D01*
X110100027Y-132136365D01*
X109953635Y-131989973D01*
X109838616Y-131817835D01*
X109838615Y-131817833D01*
X109759389Y-131626564D01*
X109719000Y-131423516D01*
X109719000Y-131216484D01*
X109759389Y-131013436D01*
X109838615Y-130822167D01*
X109953635Y-130650027D01*
X110100027Y-130503635D01*
X110198278Y-130437986D01*
X110272165Y-130388616D01*
X110272167Y-130388615D01*
X110463436Y-130309389D01*
X110666484Y-130269000D01*
X110873516Y-130269000D01*
X111076564Y-130309389D01*
X111076564Y-130309389D01*
G37*
G36*
X243076564Y-130309389D02*
G01*
X243267833Y-130388615D01*
X243267835Y-130388616D01*
X243341722Y-130437986D01*
X243439973Y-130503635D01*
X243586365Y-130650027D01*
X243701385Y-130822167D01*
X243780611Y-131013436D01*
X243821000Y-131216484D01*
X243821000Y-131423516D01*
X243780611Y-131626564D01*
X243701385Y-131817833D01*
X243701384Y-131817835D01*
X243586365Y-131989973D01*
X243439973Y-132136365D01*
X243267835Y-132251384D01*
X243267834Y-132251385D01*
X243267833Y-132251385D01*
X243076564Y-132330611D01*
X242873516Y-132371000D01*
X242666484Y-132371000D01*
X242463436Y-132330611D01*
X242272167Y-132251385D01*
X242272166Y-132251385D01*
X242272165Y-132251384D01*
X242100027Y-132136365D01*
X241953635Y-131989973D01*
X241838616Y-131817835D01*
X241838615Y-131817833D01*
X241759389Y-131626564D01*
X241719000Y-131423516D01*
X241719000Y-131216484D01*
X241759389Y-131013436D01*
X241838615Y-130822167D01*
X241953635Y-130650027D01*
X242100027Y-130503635D01*
X242198278Y-130437986D01*
X242272165Y-130388616D01*
X242272167Y-130388615D01*
X242463436Y-130309389D01*
X242666484Y-130269000D01*
X242873516Y-130269000D01*
X243076564Y-130309389D01*
X243076564Y-130309389D01*
G37*
G36*
X321076564Y-130309389D02*
G01*
X321267833Y-130388615D01*
X321267835Y-130388616D01*
X321341722Y-130437986D01*
X321439973Y-130503635D01*
X321586365Y-130650027D01*
X321701385Y-130822167D01*
X321780611Y-131013436D01*
X321821000Y-131216484D01*
X321821000Y-131423516D01*
X321780611Y-131626564D01*
X321701385Y-131817833D01*
X321701384Y-131817835D01*
X321586365Y-131989973D01*
X321439973Y-132136365D01*
X321267835Y-132251384D01*
X321267834Y-132251385D01*
X321267833Y-132251385D01*
X321076564Y-132330611D01*
X320873516Y-132371000D01*
X320666484Y-132371000D01*
X320463436Y-132330611D01*
X320272167Y-132251385D01*
X320272166Y-132251385D01*
X320272165Y-132251384D01*
X320100027Y-132136365D01*
X319953635Y-131989973D01*
X319838616Y-131817835D01*
X319838615Y-131817833D01*
X319759389Y-131626564D01*
X319719000Y-131423516D01*
X319719000Y-131216484D01*
X319759389Y-131013436D01*
X319838615Y-130822167D01*
X319953635Y-130650027D01*
X320100027Y-130503635D01*
X320198278Y-130437986D01*
X320272165Y-130388616D01*
X320272167Y-130388615D01*
X320463436Y-130309389D01*
X320666484Y-130269000D01*
X320873516Y-130269000D01*
X321076564Y-130309389D01*
X321076564Y-130309389D01*
G37*
G36*
X313076564Y-130309389D02*
G01*
X313267833Y-130388615D01*
X313267835Y-130388616D01*
X313341722Y-130437986D01*
X313439973Y-130503635D01*
X313586365Y-130650027D01*
X313701385Y-130822167D01*
X313780611Y-131013436D01*
X313821000Y-131216484D01*
X313821000Y-131423516D01*
X313780611Y-131626564D01*
X313701385Y-131817833D01*
X313701384Y-131817835D01*
X313586365Y-131989973D01*
X313439973Y-132136365D01*
X313267835Y-132251384D01*
X313267834Y-132251385D01*
X313267833Y-132251385D01*
X313076564Y-132330611D01*
X312873516Y-132371000D01*
X312666484Y-132371000D01*
X312463436Y-132330611D01*
X312272167Y-132251385D01*
X312272166Y-132251385D01*
X312272165Y-132251384D01*
X312100027Y-132136365D01*
X311953635Y-131989973D01*
X311838616Y-131817835D01*
X311838615Y-131817833D01*
X311759389Y-131626564D01*
X311719000Y-131423516D01*
X311719000Y-131216484D01*
X311759389Y-131013436D01*
X311838615Y-130822167D01*
X311953635Y-130650027D01*
X312100027Y-130503635D01*
X312198278Y-130437986D01*
X312272165Y-130388616D01*
X312272167Y-130388615D01*
X312463436Y-130309389D01*
X312666484Y-130269000D01*
X312873516Y-130269000D01*
X313076564Y-130309389D01*
X313076564Y-130309389D01*
G37*
G36*
X290076564Y-130309389D02*
G01*
X290267833Y-130388615D01*
X290267835Y-130388616D01*
X290341722Y-130437986D01*
X290439973Y-130503635D01*
X290586365Y-130650027D01*
X290701385Y-130822167D01*
X290780611Y-131013436D01*
X290821000Y-131216484D01*
X290821000Y-131423516D01*
X290780611Y-131626564D01*
X290701385Y-131817833D01*
X290701384Y-131817835D01*
X290586365Y-131989973D01*
X290439973Y-132136365D01*
X290267835Y-132251384D01*
X290267834Y-132251385D01*
X290267833Y-132251385D01*
X290076564Y-132330611D01*
X289873516Y-132371000D01*
X289666484Y-132371000D01*
X289463436Y-132330611D01*
X289272167Y-132251385D01*
X289272166Y-132251385D01*
X289272165Y-132251384D01*
X289100027Y-132136365D01*
X288953635Y-131989973D01*
X288838616Y-131817835D01*
X288838615Y-131817833D01*
X288759389Y-131626564D01*
X288719000Y-131423516D01*
X288719000Y-131216484D01*
X288759389Y-131013436D01*
X288838615Y-130822167D01*
X288953635Y-130650027D01*
X289100027Y-130503635D01*
X289198278Y-130437986D01*
X289272165Y-130388616D01*
X289272167Y-130388615D01*
X289463436Y-130309389D01*
X289666484Y-130269000D01*
X289873516Y-130269000D01*
X290076564Y-130309389D01*
X290076564Y-130309389D01*
G37*
G36*
X251076564Y-130309389D02*
G01*
X251267833Y-130388615D01*
X251267835Y-130388616D01*
X251341722Y-130437986D01*
X251439973Y-130503635D01*
X251586365Y-130650027D01*
X251701385Y-130822167D01*
X251780611Y-131013436D01*
X251821000Y-131216484D01*
X251821000Y-131423516D01*
X251780611Y-131626564D01*
X251701385Y-131817833D01*
X251701384Y-131817835D01*
X251586365Y-131989973D01*
X251439973Y-132136365D01*
X251267835Y-132251384D01*
X251267834Y-132251385D01*
X251267833Y-132251385D01*
X251076564Y-132330611D01*
X250873516Y-132371000D01*
X250666484Y-132371000D01*
X250463436Y-132330611D01*
X250272167Y-132251385D01*
X250272166Y-132251385D01*
X250272165Y-132251384D01*
X250100027Y-132136365D01*
X249953635Y-131989973D01*
X249838616Y-131817835D01*
X249838615Y-131817833D01*
X249759389Y-131626564D01*
X249719000Y-131423516D01*
X249719000Y-131216484D01*
X249759389Y-131013436D01*
X249838615Y-130822167D01*
X249953635Y-130650027D01*
X250100027Y-130503635D01*
X250198278Y-130437986D01*
X250272165Y-130388616D01*
X250272167Y-130388615D01*
X250463436Y-130309389D01*
X250666484Y-130269000D01*
X250873516Y-130269000D01*
X251076564Y-130309389D01*
X251076564Y-130309389D01*
G37*
G36*
X212076564Y-130309389D02*
G01*
X212267833Y-130388615D01*
X212267835Y-130388616D01*
X212341722Y-130437986D01*
X212439973Y-130503635D01*
X212586365Y-130650027D01*
X212701385Y-130822167D01*
X212780611Y-131013436D01*
X212821000Y-131216484D01*
X212821000Y-131423516D01*
X212780611Y-131626564D01*
X212701385Y-131817833D01*
X212701384Y-131817835D01*
X212586365Y-131989973D01*
X212439973Y-132136365D01*
X212267835Y-132251384D01*
X212267834Y-132251385D01*
X212267833Y-132251385D01*
X212076564Y-132330611D01*
X211873516Y-132371000D01*
X211666484Y-132371000D01*
X211463436Y-132330611D01*
X211272167Y-132251385D01*
X211272166Y-132251385D01*
X211272165Y-132251384D01*
X211100027Y-132136365D01*
X210953635Y-131989973D01*
X210838616Y-131817835D01*
X210838615Y-131817833D01*
X210759389Y-131626564D01*
X210719000Y-131423516D01*
X210719000Y-131216484D01*
X210759389Y-131013436D01*
X210838615Y-130822167D01*
X210953635Y-130650027D01*
X211100027Y-130503635D01*
X211198278Y-130437986D01*
X211272165Y-130388616D01*
X211272167Y-130388615D01*
X211463436Y-130309389D01*
X211666484Y-130269000D01*
X211873516Y-130269000D01*
X212076564Y-130309389D01*
X212076564Y-130309389D01*
G37*
G36*
X181076564Y-130309389D02*
G01*
X181267833Y-130388615D01*
X181267835Y-130388616D01*
X181341722Y-130437986D01*
X181439973Y-130503635D01*
X181586365Y-130650027D01*
X181701385Y-130822167D01*
X181780611Y-131013436D01*
X181821000Y-131216484D01*
X181821000Y-131423516D01*
X181780611Y-131626564D01*
X181701385Y-131817833D01*
X181701384Y-131817835D01*
X181586365Y-131989973D01*
X181439973Y-132136365D01*
X181267835Y-132251384D01*
X181267834Y-132251385D01*
X181267833Y-132251385D01*
X181076564Y-132330611D01*
X180873516Y-132371000D01*
X180666484Y-132371000D01*
X180463436Y-132330611D01*
X180272167Y-132251385D01*
X180272166Y-132251385D01*
X180272165Y-132251384D01*
X180100027Y-132136365D01*
X179953635Y-131989973D01*
X179838616Y-131817835D01*
X179838615Y-131817833D01*
X179759389Y-131626564D01*
X179719000Y-131423516D01*
X179719000Y-131216484D01*
X179759389Y-131013436D01*
X179838615Y-130822167D01*
X179953635Y-130650027D01*
X180100027Y-130503635D01*
X180198278Y-130437986D01*
X180272165Y-130388616D01*
X180272167Y-130388615D01*
X180463436Y-130309389D01*
X180666484Y-130269000D01*
X180873516Y-130269000D01*
X181076564Y-130309389D01*
X181076564Y-130309389D01*
G37*
G36*
X173076564Y-130309389D02*
G01*
X173267833Y-130388615D01*
X173267835Y-130388616D01*
X173341722Y-130437986D01*
X173439973Y-130503635D01*
X173586365Y-130650027D01*
X173701385Y-130822167D01*
X173780611Y-131013436D01*
X173821000Y-131216484D01*
X173821000Y-131423516D01*
X173780611Y-131626564D01*
X173701385Y-131817833D01*
X173701384Y-131817835D01*
X173586365Y-131989973D01*
X173439973Y-132136365D01*
X173267835Y-132251384D01*
X173267834Y-132251385D01*
X173267833Y-132251385D01*
X173076564Y-132330611D01*
X172873516Y-132371000D01*
X172666484Y-132371000D01*
X172463436Y-132330611D01*
X172272167Y-132251385D01*
X172272166Y-132251385D01*
X172272165Y-132251384D01*
X172100027Y-132136365D01*
X171953635Y-131989973D01*
X171838616Y-131817835D01*
X171838615Y-131817833D01*
X171759389Y-131626564D01*
X171719000Y-131423516D01*
X171719000Y-131216484D01*
X171759389Y-131013436D01*
X171838615Y-130822167D01*
X171953635Y-130650027D01*
X172100027Y-130503635D01*
X172198278Y-130437986D01*
X172272165Y-130388616D01*
X172272167Y-130388615D01*
X172463436Y-130309389D01*
X172666484Y-130269000D01*
X172873516Y-130269000D01*
X173076564Y-130309389D01*
X173076564Y-130309389D01*
G37*
G36*
X150076564Y-130309389D02*
G01*
X150267833Y-130388615D01*
X150267835Y-130388616D01*
X150341722Y-130437986D01*
X150439973Y-130503635D01*
X150586365Y-130650027D01*
X150701385Y-130822167D01*
X150780611Y-131013436D01*
X150821000Y-131216484D01*
X150821000Y-131423516D01*
X150780611Y-131626564D01*
X150701385Y-131817833D01*
X150701384Y-131817835D01*
X150586365Y-131989973D01*
X150439973Y-132136365D01*
X150267835Y-132251384D01*
X150267834Y-132251385D01*
X150267833Y-132251385D01*
X150076564Y-132330611D01*
X149873516Y-132371000D01*
X149666484Y-132371000D01*
X149463436Y-132330611D01*
X149272167Y-132251385D01*
X149272166Y-132251385D01*
X149272165Y-132251384D01*
X149100027Y-132136365D01*
X148953635Y-131989973D01*
X148838616Y-131817835D01*
X148838615Y-131817833D01*
X148759389Y-131626564D01*
X148719000Y-131423516D01*
X148719000Y-131216484D01*
X148759389Y-131013436D01*
X148838615Y-130822167D01*
X148953635Y-130650027D01*
X149100027Y-130503635D01*
X149198278Y-130437986D01*
X149272165Y-130388616D01*
X149272167Y-130388615D01*
X149463436Y-130309389D01*
X149666484Y-130269000D01*
X149873516Y-130269000D01*
X150076564Y-130309389D01*
X150076564Y-130309389D01*
G37*
G36*
X142076564Y-130309389D02*
G01*
X142267833Y-130388615D01*
X142267835Y-130388616D01*
X142341722Y-130437986D01*
X142439973Y-130503635D01*
X142586365Y-130650027D01*
X142701385Y-130822167D01*
X142780611Y-131013436D01*
X142821000Y-131216484D01*
X142821000Y-131423516D01*
X142780611Y-131626564D01*
X142701385Y-131817833D01*
X142701384Y-131817835D01*
X142586365Y-131989973D01*
X142439973Y-132136365D01*
X142267835Y-132251384D01*
X142267834Y-132251385D01*
X142267833Y-132251385D01*
X142076564Y-132330611D01*
X141873516Y-132371000D01*
X141666484Y-132371000D01*
X141463436Y-132330611D01*
X141272167Y-132251385D01*
X141272166Y-132251385D01*
X141272165Y-132251384D01*
X141100027Y-132136365D01*
X140953635Y-131989973D01*
X140838616Y-131817835D01*
X140838615Y-131817833D01*
X140759389Y-131626564D01*
X140719000Y-131423516D01*
X140719000Y-131216484D01*
X140759389Y-131013436D01*
X140838615Y-130822167D01*
X140953635Y-130650027D01*
X141100027Y-130503635D01*
X141198278Y-130437986D01*
X141272165Y-130388616D01*
X141272167Y-130388615D01*
X141463436Y-130309389D01*
X141666484Y-130269000D01*
X141873516Y-130269000D01*
X142076564Y-130309389D01*
X142076564Y-130309389D01*
G37*
G36*
X220076564Y-130309389D02*
G01*
X220267833Y-130388615D01*
X220267835Y-130388616D01*
X220341722Y-130437986D01*
X220439973Y-130503635D01*
X220586365Y-130650027D01*
X220701385Y-130822167D01*
X220780611Y-131013436D01*
X220821000Y-131216484D01*
X220821000Y-131423516D01*
X220780611Y-131626564D01*
X220701385Y-131817833D01*
X220701384Y-131817835D01*
X220586365Y-131989973D01*
X220439973Y-132136365D01*
X220267835Y-132251384D01*
X220267834Y-132251385D01*
X220267833Y-132251385D01*
X220076564Y-132330611D01*
X219873516Y-132371000D01*
X219666484Y-132371000D01*
X219463436Y-132330611D01*
X219272167Y-132251385D01*
X219272166Y-132251385D01*
X219272165Y-132251384D01*
X219100027Y-132136365D01*
X218953635Y-131989973D01*
X218838616Y-131817835D01*
X218838615Y-131817833D01*
X218759389Y-131626564D01*
X218719000Y-131423516D01*
X218719000Y-131216484D01*
X218759389Y-131013436D01*
X218838615Y-130822167D01*
X218953635Y-130650027D01*
X219100027Y-130503635D01*
X219198278Y-130437986D01*
X219272165Y-130388616D01*
X219272167Y-130388615D01*
X219463436Y-130309389D01*
X219666484Y-130269000D01*
X219873516Y-130269000D01*
X220076564Y-130309389D01*
X220076564Y-130309389D01*
G37*
G36*
X282076564Y-130309389D02*
G01*
X282267833Y-130388615D01*
X282267835Y-130388616D01*
X282341722Y-130437986D01*
X282439973Y-130503635D01*
X282586365Y-130650027D01*
X282701385Y-130822167D01*
X282780611Y-131013436D01*
X282821000Y-131216484D01*
X282821000Y-131423516D01*
X282780611Y-131626564D01*
X282701385Y-131817833D01*
X282701384Y-131817835D01*
X282586365Y-131989973D01*
X282439973Y-132136365D01*
X282267835Y-132251384D01*
X282267834Y-132251385D01*
X282267833Y-132251385D01*
X282076564Y-132330611D01*
X281873516Y-132371000D01*
X281666484Y-132371000D01*
X281463436Y-132330611D01*
X281272167Y-132251385D01*
X281272166Y-132251385D01*
X281272165Y-132251384D01*
X281100027Y-132136365D01*
X280953635Y-131989973D01*
X280838616Y-131817835D01*
X280838615Y-131817833D01*
X280759389Y-131626564D01*
X280719000Y-131423516D01*
X280719000Y-131216484D01*
X280759389Y-131013436D01*
X280838615Y-130822167D01*
X280953635Y-130650027D01*
X281100027Y-130503635D01*
X281198278Y-130437986D01*
X281272165Y-130388616D01*
X281272167Y-130388615D01*
X281463436Y-130309389D01*
X281666484Y-130269000D01*
X281873516Y-130269000D01*
X282076564Y-130309389D01*
X282076564Y-130309389D01*
G37*
G36*
X263801733Y-128934893D02*
G01*
X263891957Y-128952839D01*
X263997567Y-128996585D01*
X264146921Y-129058449D01*
X264146922Y-129058450D01*
X264376386Y-129211772D01*
X264571528Y-129406914D01*
X264673975Y-129560237D01*
X264724851Y-129636379D01*
X264830461Y-129891344D01*
X264884300Y-130162012D01*
X264884300Y-130437988D01*
X264830461Y-130708656D01*
X264724851Y-130963621D01*
X264724850Y-130963622D01*
X264571528Y-131193086D01*
X264376386Y-131388228D01*
X264323576Y-131423514D01*
X264146921Y-131541551D01*
X263997567Y-131603415D01*
X263891957Y-131647161D01*
X263801733Y-131665107D01*
X263621288Y-131701000D01*
X263345312Y-131701000D01*
X263164867Y-131665107D01*
X263074643Y-131647161D01*
X262969033Y-131603415D01*
X262819679Y-131541551D01*
X262643024Y-131423514D01*
X262590214Y-131388228D01*
X262395072Y-131193086D01*
X262241750Y-130963622D01*
X262241749Y-130963621D01*
X262136139Y-130708656D01*
X262082300Y-130437988D01*
X262082300Y-130162012D01*
X262136139Y-129891344D01*
X262241749Y-129636379D01*
X262292625Y-129560237D01*
X262395072Y-129406914D01*
X262590214Y-129211772D01*
X262819678Y-129058450D01*
X262819679Y-129058449D01*
X262969033Y-128996585D01*
X263074643Y-128952839D01*
X263164867Y-128934893D01*
X263345312Y-128899000D01*
X263621288Y-128899000D01*
X263801733Y-128934893D01*
X263801733Y-128934893D01*
G37*
G36*
X130016733Y-128934893D02*
G01*
X130106957Y-128952839D01*
X130212567Y-128996585D01*
X130361921Y-129058449D01*
X130361922Y-129058450D01*
X130591386Y-129211772D01*
X130786528Y-129406914D01*
X130888975Y-129560237D01*
X130939851Y-129636379D01*
X131045461Y-129891344D01*
X131099300Y-130162012D01*
X131099300Y-130437988D01*
X131045461Y-130708656D01*
X130939851Y-130963621D01*
X130939850Y-130963622D01*
X130786528Y-131193086D01*
X130591386Y-131388228D01*
X130538576Y-131423514D01*
X130361921Y-131541551D01*
X130212567Y-131603415D01*
X130106957Y-131647161D01*
X130016733Y-131665107D01*
X129836288Y-131701000D01*
X129560312Y-131701000D01*
X129379867Y-131665107D01*
X129289643Y-131647161D01*
X129184033Y-131603415D01*
X129034679Y-131541551D01*
X128858024Y-131423514D01*
X128805214Y-131388228D01*
X128610072Y-131193086D01*
X128456750Y-130963622D01*
X128456749Y-130963621D01*
X128351139Y-130708656D01*
X128297300Y-130437988D01*
X128297300Y-130162012D01*
X128351139Y-129891344D01*
X128456749Y-129636379D01*
X128507625Y-129560237D01*
X128610072Y-129406914D01*
X128805214Y-129211772D01*
X129034678Y-129058450D01*
X129034679Y-129058449D01*
X129184033Y-128996585D01*
X129289643Y-128952839D01*
X129379867Y-128934893D01*
X129560312Y-128899000D01*
X129836288Y-128899000D01*
X130016733Y-128934893D01*
X130016733Y-128934893D01*
G37*
G36*
X330694233Y-128934893D02*
G01*
X330784457Y-128952839D01*
X330890067Y-128996585D01*
X331039421Y-129058449D01*
X331039422Y-129058450D01*
X331268886Y-129211772D01*
X331464028Y-129406914D01*
X331566475Y-129560237D01*
X331617351Y-129636379D01*
X331722961Y-129891344D01*
X331776800Y-130162012D01*
X331776800Y-130437988D01*
X331722961Y-130708656D01*
X331617351Y-130963621D01*
X331617350Y-130963622D01*
X331464028Y-131193086D01*
X331268886Y-131388228D01*
X331216076Y-131423514D01*
X331039421Y-131541551D01*
X330890067Y-131603415D01*
X330784457Y-131647161D01*
X330694233Y-131665107D01*
X330513788Y-131701000D01*
X330237812Y-131701000D01*
X330057367Y-131665107D01*
X329967143Y-131647161D01*
X329861533Y-131603415D01*
X329712179Y-131541551D01*
X329535524Y-131423514D01*
X329482714Y-131388228D01*
X329287572Y-131193086D01*
X329134250Y-130963622D01*
X329134249Y-130963621D01*
X329028639Y-130708656D01*
X328974800Y-130437988D01*
X328974800Y-130162012D01*
X329028639Y-129891344D01*
X329134249Y-129636379D01*
X329185125Y-129560237D01*
X329287572Y-129406914D01*
X329482714Y-129211772D01*
X329712178Y-129058450D01*
X329712179Y-129058449D01*
X329861533Y-128996585D01*
X329967143Y-128952839D01*
X330057367Y-128934893D01*
X330237812Y-128899000D01*
X330513788Y-128899000D01*
X330694233Y-128934893D01*
X330694233Y-128934893D01*
G37*
G36*
X196909233Y-128934893D02*
G01*
X196999457Y-128952839D01*
X197105067Y-128996585D01*
X197254421Y-129058449D01*
X197254422Y-129058450D01*
X197483886Y-129211772D01*
X197679028Y-129406914D01*
X197781475Y-129560237D01*
X197832351Y-129636379D01*
X197937961Y-129891344D01*
X197991800Y-130162012D01*
X197991800Y-130437988D01*
X197937961Y-130708656D01*
X197832351Y-130963621D01*
X197832350Y-130963622D01*
X197679028Y-131193086D01*
X197483886Y-131388228D01*
X197431076Y-131423514D01*
X197254421Y-131541551D01*
X197105067Y-131603415D01*
X196999457Y-131647161D01*
X196909233Y-131665107D01*
X196728788Y-131701000D01*
X196452812Y-131701000D01*
X196272367Y-131665107D01*
X196182143Y-131647161D01*
X196076533Y-131603415D01*
X195927179Y-131541551D01*
X195750524Y-131423514D01*
X195697714Y-131388228D01*
X195502572Y-131193086D01*
X195349250Y-130963622D01*
X195349249Y-130963621D01*
X195243639Y-130708656D01*
X195189800Y-130437988D01*
X195189800Y-130162012D01*
X195243639Y-129891344D01*
X195349249Y-129636379D01*
X195400125Y-129560237D01*
X195502572Y-129406914D01*
X195697714Y-129211772D01*
X195927178Y-129058450D01*
X195927179Y-129058449D01*
X196076533Y-128996585D01*
X196182143Y-128952839D01*
X196272367Y-128934893D01*
X196452812Y-128899000D01*
X196728788Y-128899000D01*
X196909233Y-128934893D01*
X196909233Y-128934893D01*
G37*
G36*
X63124233Y-128934893D02*
G01*
X63214457Y-128952839D01*
X63320067Y-128996585D01*
X63469421Y-129058449D01*
X63469422Y-129058450D01*
X63698886Y-129211772D01*
X63894028Y-129406914D01*
X63996475Y-129560237D01*
X64047351Y-129636379D01*
X64152961Y-129891344D01*
X64206800Y-130162012D01*
X64206800Y-130437988D01*
X64152961Y-130708656D01*
X64047351Y-130963621D01*
X64047350Y-130963622D01*
X63894028Y-131193086D01*
X63698886Y-131388228D01*
X63646076Y-131423514D01*
X63469421Y-131541551D01*
X63320067Y-131603415D01*
X63214457Y-131647161D01*
X63124233Y-131665107D01*
X62943788Y-131701000D01*
X62667812Y-131701000D01*
X62487367Y-131665107D01*
X62397143Y-131647161D01*
X62291533Y-131603415D01*
X62142179Y-131541551D01*
X61965524Y-131423514D01*
X61912714Y-131388228D01*
X61717572Y-131193086D01*
X61564250Y-130963622D01*
X61564249Y-130963621D01*
X61458639Y-130708656D01*
X61404800Y-130437988D01*
X61404800Y-130162012D01*
X61458639Y-129891344D01*
X61564249Y-129636379D01*
X61615125Y-129560237D01*
X61717572Y-129406914D01*
X61912714Y-129211772D01*
X62142178Y-129058450D01*
X62142179Y-129058449D01*
X62291533Y-128996585D01*
X62397143Y-128952839D01*
X62487367Y-128934893D01*
X62667812Y-128899000D01*
X62943788Y-128899000D01*
X63124233Y-128934893D01*
X63124233Y-128934893D01*
G37*
G36*
X177072585Y-127798802D02*
G01*
X177222410Y-127828604D01*
X177504674Y-127945521D01*
X177758705Y-128115259D01*
X177974741Y-128331295D01*
X178144479Y-128585326D01*
X178260814Y-128866185D01*
X178261396Y-128867591D01*
X178321000Y-129167239D01*
X178321000Y-129472761D01*
X178296446Y-129596200D01*
X178261396Y-129772410D01*
X178144479Y-130054674D01*
X177974741Y-130308705D01*
X177758705Y-130524741D01*
X177504674Y-130694479D01*
X177222410Y-130811396D01*
X177168270Y-130822165D01*
X176922761Y-130871000D01*
X176617239Y-130871000D01*
X176371730Y-130822165D01*
X176317590Y-130811396D01*
X176035326Y-130694479D01*
X175781295Y-130524741D01*
X175565259Y-130308705D01*
X175395521Y-130054674D01*
X175278604Y-129772410D01*
X175243554Y-129596200D01*
X175219000Y-129472761D01*
X175219000Y-129167239D01*
X175278604Y-128867591D01*
X175279186Y-128866185D01*
X175395521Y-128585326D01*
X175565259Y-128331295D01*
X175781295Y-128115259D01*
X176035326Y-127945521D01*
X176317590Y-127828604D01*
X176467415Y-127798802D01*
X176617239Y-127769000D01*
X176922761Y-127769000D01*
X177072585Y-127798802D01*
X177072585Y-127798802D01*
G37*
G36*
X286072585Y-127798802D02*
G01*
X286222410Y-127828604D01*
X286504674Y-127945521D01*
X286758705Y-128115259D01*
X286974741Y-128331295D01*
X287144479Y-128585326D01*
X287260814Y-128866185D01*
X287261396Y-128867591D01*
X287321000Y-129167239D01*
X287321000Y-129472761D01*
X287296446Y-129596200D01*
X287261396Y-129772410D01*
X287144479Y-130054674D01*
X286974741Y-130308705D01*
X286758705Y-130524741D01*
X286504674Y-130694479D01*
X286222410Y-130811396D01*
X286168270Y-130822165D01*
X285922761Y-130871000D01*
X285617239Y-130871000D01*
X285371730Y-130822165D01*
X285317590Y-130811396D01*
X285035326Y-130694479D01*
X284781295Y-130524741D01*
X284565259Y-130308705D01*
X284395521Y-130054674D01*
X284278604Y-129772410D01*
X284243554Y-129596200D01*
X284219000Y-129472761D01*
X284219000Y-129167239D01*
X284278604Y-128867591D01*
X284279186Y-128866185D01*
X284395521Y-128585326D01*
X284565259Y-128331295D01*
X284781295Y-128115259D01*
X285035326Y-127945521D01*
X285317590Y-127828604D01*
X285467415Y-127798802D01*
X285617239Y-127769000D01*
X285922761Y-127769000D01*
X286072585Y-127798802D01*
X286072585Y-127798802D01*
G37*
G36*
X247072585Y-127798802D02*
G01*
X247222410Y-127828604D01*
X247504674Y-127945521D01*
X247758705Y-128115259D01*
X247974741Y-128331295D01*
X248144479Y-128585326D01*
X248260814Y-128866185D01*
X248261396Y-128867591D01*
X248321000Y-129167239D01*
X248321000Y-129472761D01*
X248296446Y-129596200D01*
X248261396Y-129772410D01*
X248144479Y-130054674D01*
X247974741Y-130308705D01*
X247758705Y-130524741D01*
X247504674Y-130694479D01*
X247222410Y-130811396D01*
X247168270Y-130822165D01*
X246922761Y-130871000D01*
X246617239Y-130871000D01*
X246371730Y-130822165D01*
X246317590Y-130811396D01*
X246035326Y-130694479D01*
X245781295Y-130524741D01*
X245565259Y-130308705D01*
X245395521Y-130054674D01*
X245278604Y-129772410D01*
X245243554Y-129596200D01*
X245219000Y-129472761D01*
X245219000Y-129167239D01*
X245278604Y-128867591D01*
X245279186Y-128866185D01*
X245395521Y-128585326D01*
X245565259Y-128331295D01*
X245781295Y-128115259D01*
X246035326Y-127945521D01*
X246317590Y-127828604D01*
X246467415Y-127798802D01*
X246617239Y-127769000D01*
X246922761Y-127769000D01*
X247072585Y-127798802D01*
X247072585Y-127798802D01*
G37*
G36*
X146072585Y-127798802D02*
G01*
X146222410Y-127828604D01*
X146504674Y-127945521D01*
X146758705Y-128115259D01*
X146974741Y-128331295D01*
X147144479Y-128585326D01*
X147260814Y-128866185D01*
X147261396Y-128867591D01*
X147321000Y-129167239D01*
X147321000Y-129472761D01*
X147296446Y-129596200D01*
X147261396Y-129772410D01*
X147144479Y-130054674D01*
X146974741Y-130308705D01*
X146758705Y-130524741D01*
X146504674Y-130694479D01*
X146222410Y-130811396D01*
X146168270Y-130822165D01*
X145922761Y-130871000D01*
X145617239Y-130871000D01*
X145371730Y-130822165D01*
X145317590Y-130811396D01*
X145035326Y-130694479D01*
X144781295Y-130524741D01*
X144565259Y-130308705D01*
X144395521Y-130054674D01*
X144278604Y-129772410D01*
X144243554Y-129596200D01*
X144219000Y-129472761D01*
X144219000Y-129167239D01*
X144278604Y-128867591D01*
X144279186Y-128866185D01*
X144395521Y-128585326D01*
X144565259Y-128331295D01*
X144781295Y-128115259D01*
X145035326Y-127945521D01*
X145317590Y-127828604D01*
X145467415Y-127798802D01*
X145617239Y-127769000D01*
X145922761Y-127769000D01*
X146072585Y-127798802D01*
X146072585Y-127798802D01*
G37*
G36*
X76072585Y-127798802D02*
G01*
X76222410Y-127828604D01*
X76504674Y-127945521D01*
X76758705Y-128115259D01*
X76974741Y-128331295D01*
X77144479Y-128585326D01*
X77260814Y-128866185D01*
X77261396Y-128867591D01*
X77321000Y-129167239D01*
X77321000Y-129472761D01*
X77296446Y-129596200D01*
X77261396Y-129772410D01*
X77144479Y-130054674D01*
X76974741Y-130308705D01*
X76758705Y-130524741D01*
X76504674Y-130694479D01*
X76222410Y-130811396D01*
X76168270Y-130822165D01*
X75922761Y-130871000D01*
X75617239Y-130871000D01*
X75371730Y-130822165D01*
X75317590Y-130811396D01*
X75035326Y-130694479D01*
X74781295Y-130524741D01*
X74565259Y-130308705D01*
X74395521Y-130054674D01*
X74278604Y-129772410D01*
X74243554Y-129596200D01*
X74219000Y-129472761D01*
X74219000Y-129167239D01*
X74278604Y-128867591D01*
X74279186Y-128866185D01*
X74395521Y-128585326D01*
X74565259Y-128331295D01*
X74781295Y-128115259D01*
X75035326Y-127945521D01*
X75317590Y-127828604D01*
X75467415Y-127798802D01*
X75617239Y-127769000D01*
X75922761Y-127769000D01*
X76072585Y-127798802D01*
X76072585Y-127798802D01*
G37*
G36*
X107072585Y-127798802D02*
G01*
X107222410Y-127828604D01*
X107504674Y-127945521D01*
X107758705Y-128115259D01*
X107974741Y-128331295D01*
X108144479Y-128585326D01*
X108260814Y-128866185D01*
X108261396Y-128867591D01*
X108321000Y-129167239D01*
X108321000Y-129472761D01*
X108296446Y-129596200D01*
X108261396Y-129772410D01*
X108144479Y-130054674D01*
X107974741Y-130308705D01*
X107758705Y-130524741D01*
X107504674Y-130694479D01*
X107222410Y-130811396D01*
X107168270Y-130822165D01*
X106922761Y-130871000D01*
X106617239Y-130871000D01*
X106371730Y-130822165D01*
X106317590Y-130811396D01*
X106035326Y-130694479D01*
X105781295Y-130524741D01*
X105565259Y-130308705D01*
X105395521Y-130054674D01*
X105278604Y-129772410D01*
X105243554Y-129596200D01*
X105219000Y-129472761D01*
X105219000Y-129167239D01*
X105278604Y-128867591D01*
X105279186Y-128866185D01*
X105395521Y-128585326D01*
X105565259Y-128331295D01*
X105781295Y-128115259D01*
X106035326Y-127945521D01*
X106317590Y-127828604D01*
X106467415Y-127798802D01*
X106617239Y-127769000D01*
X106922761Y-127769000D01*
X107072585Y-127798802D01*
X107072585Y-127798802D01*
G37*
G36*
X216072585Y-127798802D02*
G01*
X216222410Y-127828604D01*
X216504674Y-127945521D01*
X216758705Y-128115259D01*
X216974741Y-128331295D01*
X217144479Y-128585326D01*
X217260814Y-128866185D01*
X217261396Y-128867591D01*
X217321000Y-129167239D01*
X217321000Y-129472761D01*
X217296446Y-129596200D01*
X217261396Y-129772410D01*
X217144479Y-130054674D01*
X216974741Y-130308705D01*
X216758705Y-130524741D01*
X216504674Y-130694479D01*
X216222410Y-130811396D01*
X216168270Y-130822165D01*
X215922761Y-130871000D01*
X215617239Y-130871000D01*
X215371730Y-130822165D01*
X215317590Y-130811396D01*
X215035326Y-130694479D01*
X214781295Y-130524741D01*
X214565259Y-130308705D01*
X214395521Y-130054674D01*
X214278604Y-129772410D01*
X214243554Y-129596200D01*
X214219000Y-129472761D01*
X214219000Y-129167239D01*
X214278604Y-128867591D01*
X214279186Y-128866185D01*
X214395521Y-128585326D01*
X214565259Y-128331295D01*
X214781295Y-128115259D01*
X215035326Y-127945521D01*
X215317590Y-127828604D01*
X215467415Y-127798802D01*
X215617239Y-127769000D01*
X215922761Y-127769000D01*
X216072585Y-127798802D01*
X216072585Y-127798802D01*
G37*
G36*
X317072585Y-127798802D02*
G01*
X317222410Y-127828604D01*
X317504674Y-127945521D01*
X317758705Y-128115259D01*
X317974741Y-128331295D01*
X318144479Y-128585326D01*
X318260814Y-128866185D01*
X318261396Y-128867591D01*
X318321000Y-129167239D01*
X318321000Y-129472761D01*
X318296446Y-129596200D01*
X318261396Y-129772410D01*
X318144479Y-130054674D01*
X317974741Y-130308705D01*
X317758705Y-130524741D01*
X317504674Y-130694479D01*
X317222410Y-130811396D01*
X317168270Y-130822165D01*
X316922761Y-130871000D01*
X316617239Y-130871000D01*
X316371730Y-130822165D01*
X316317590Y-130811396D01*
X316035326Y-130694479D01*
X315781295Y-130524741D01*
X315565259Y-130308705D01*
X315395521Y-130054674D01*
X315278604Y-129772410D01*
X315243554Y-129596200D01*
X315219000Y-129472761D01*
X315219000Y-129167239D01*
X315278604Y-128867591D01*
X315279186Y-128866185D01*
X315395521Y-128585326D01*
X315565259Y-128331295D01*
X315781295Y-128115259D01*
X316035326Y-127945521D01*
X316317590Y-127828604D01*
X316467415Y-127798802D01*
X316617239Y-127769000D01*
X316922761Y-127769000D01*
X317072585Y-127798802D01*
X317072585Y-127798802D01*
G37*
G36*
X326155561Y-127249545D02*
G01*
X326281245Y-127274545D01*
X326512371Y-127370281D01*
X326617079Y-127440245D01*
X326682962Y-127484266D01*
X326720378Y-127509267D01*
X326897273Y-127686162D01*
X327036259Y-127894169D01*
X327131995Y-128125295D01*
X327180800Y-128370656D01*
X327180800Y-128620824D01*
X327131995Y-128866185D01*
X327036259Y-129097311D01*
X326989534Y-129167240D01*
X326913978Y-129280318D01*
X326897273Y-129305318D01*
X326720378Y-129482213D01*
X326512371Y-129621199D01*
X326512370Y-129621200D01*
X326512369Y-129621200D01*
X326444675Y-129649240D01*
X326281245Y-129716935D01*
X326161568Y-129740740D01*
X326035885Y-129765740D01*
X325785715Y-129765740D01*
X325660032Y-129740740D01*
X325540355Y-129716935D01*
X325376925Y-129649240D01*
X325309231Y-129621200D01*
X325309230Y-129621200D01*
X325309229Y-129621199D01*
X325101222Y-129482213D01*
X324924327Y-129305318D01*
X324907623Y-129280318D01*
X324832066Y-129167240D01*
X324785341Y-129097311D01*
X324689605Y-128866185D01*
X324640800Y-128620824D01*
X324640800Y-128370656D01*
X324689605Y-128125295D01*
X324785341Y-127894169D01*
X324924327Y-127686162D01*
X325101222Y-127509267D01*
X325138639Y-127484266D01*
X325204521Y-127440245D01*
X325309229Y-127370281D01*
X325540355Y-127274545D01*
X325666039Y-127249545D01*
X325785715Y-127225740D01*
X326035885Y-127225740D01*
X326155561Y-127249545D01*
X326155561Y-127249545D01*
G37*
G36*
X67058564Y-127225142D02*
G01*
X67181245Y-127249545D01*
X67412371Y-127345281D01*
X67449786Y-127370281D01*
X67620377Y-127484266D01*
X67797274Y-127661163D01*
X67813978Y-127686163D01*
X67936259Y-127869169D01*
X68031995Y-128100295D01*
X68034972Y-128115260D01*
X68077944Y-128331295D01*
X68080800Y-128345656D01*
X68080800Y-128595824D01*
X68031995Y-128841185D01*
X68021057Y-128867591D01*
X67942001Y-129058450D01*
X67936259Y-129072311D01*
X67872830Y-129167239D01*
X67797274Y-129280317D01*
X67620377Y-129457214D01*
X67517079Y-129526235D01*
X67412371Y-129596199D01*
X67181245Y-129691935D01*
X67058565Y-129716337D01*
X66935885Y-129740740D01*
X66685715Y-129740740D01*
X66563035Y-129716337D01*
X66440355Y-129691935D01*
X66209229Y-129596199D01*
X66104521Y-129526235D01*
X66001223Y-129457214D01*
X65824326Y-129280317D01*
X65748770Y-129167239D01*
X65685341Y-129072311D01*
X65679600Y-129058450D01*
X65600543Y-128867591D01*
X65589605Y-128841185D01*
X65540800Y-128595824D01*
X65540800Y-128345656D01*
X65543657Y-128331295D01*
X65586628Y-128115260D01*
X65589605Y-128100295D01*
X65685341Y-127869169D01*
X65807622Y-127686163D01*
X65824326Y-127661163D01*
X66001223Y-127484266D01*
X66171814Y-127370281D01*
X66209229Y-127345281D01*
X66440355Y-127249545D01*
X66563036Y-127225142D01*
X66685715Y-127200740D01*
X66935885Y-127200740D01*
X67058564Y-127225142D01*
X67058564Y-127225142D01*
G37*
M02*
