M48
METRIC,TZ
T1C0.400
T2C0.850
T3C1.200
%
G90
G05
T1
X64496Y-161971
X65916Y-143491
X89146Y-177491
X92176Y-149861
X97211Y-139021
X101496Y-142021
X102766Y-137571
X107386Y-139046
X109096Y-142021
X113276Y-139881
X115086Y-156796
X118761Y-178371
X123861Y-155221
X123861Y-158121
X123961Y-173396
X124111Y-172146
X124161Y-165446
X124861Y-159421
X124911Y-155446
X128386Y-165421
X128761Y-175871
X129286Y-153396
X129286Y-156171
X134011Y-159321
X135211Y-172835
X135606Y-150521
X136141Y-173560
X136286Y-159761
X136298Y-158748
X136306Y-156391
X136306Y-157661
X136386Y-168281
X136404Y-151543
X136466Y-152541
X137486Y-145281
X137736Y-167031
X137826Y-163341
X137826Y-165791
X137876Y-164581
X137926Y-138751
X138426Y-143541
X140316Y-168281
X141170Y-152541
X141236Y-150131
X141348Y-151557
X141556Y-143511
X141596Y-145271
X141736Y-167031
X142906Y-165791
X143786Y-167321
X144495Y-160251
X144496Y-159251
X144515Y-161251
X144536Y-162251
X144536Y-163251
X144606Y-164581
X147411Y-153896
X149466Y-138791
X151916Y-157211
X156486Y-169996
X157246Y-152191
X158186Y-177421
X158856Y-146931
X158996Y-157286
X159926Y-158011
X161216Y-138731
X161256Y-162321
X162426Y-161301
X162476Y-132471
X163396Y-160301
X164186Y-159341
X167086Y-139071
X167556Y-142041
X168961Y-162346
X170123Y-163383
X170261Y-162221
X171336Y-161346
X172696Y-137531
X172886Y-156811
X173111Y-161196
X174211Y-160421
X177156Y-142131
X177261Y-139021
X179766Y-149321
X180726Y-148821
X182336Y-151911
X183036Y-161521
X183065Y-151186
X185456Y-153861
X186961Y-160056
X187886Y-170621
X189385Y-160863
X191036Y-164196
X191335Y-166613
X191946Y-165821
X193356Y-150121
X193586Y-161691
X194236Y-156991
X194346Y-158901
X194966Y-140911
X195426Y-170736
X195436Y-169271
X196126Y-152401
X196266Y-162151
X197223Y-157434
X197930Y-158141
X198271Y-151701
X198771Y-152731
X198836Y-159631
X199066Y-150581
X199686Y-175746
X199886Y-166621
X200686Y-153971
X201026Y-150101
X201220Y-151082
X201314Y-154749
X201866Y-165821
X202061Y-163971
X203186Y-170221
X203736Y-178791
X205311Y-166446
X206411Y-153096
X206686Y-159321
X206846Y-163311
X207161Y-167271
X207946Y-166601
X208507Y-160367
X209386Y-165761
X210406Y-144681
X211936Y-166496
X216461Y-173471
X220896Y-137261
X223226Y-161141
X225066Y-148351
X225826Y-137261
X226286Y-148501
X226626Y-149601
X227385Y-150252
X229791Y-145895
X230226Y-146796
X230506Y-140281
X230866Y-174541
X230946Y-130431
X230956Y-147521
X231546Y-148328
X236416Y-157191
X236546Y-137011
X237186Y-139046
X237616Y-143291
X238486Y-146471
X238576Y-151151
X238796Y-148371
X239076Y-149841
X239346Y-147521
X240616Y-137011
X241626Y-149831
X241846Y-147561
X242326Y-151201
X242496Y-148341
X242636Y-146681
X244016Y-137041
X245416Y-152931
X247006Y-174011
X247056Y-148441
X247111Y-139071
X247276Y-151251
X247576Y-147561
X247576Y-149841
X247696Y-164781
X247756Y-163401
X247836Y-143291
X248276Y-137001
X249096Y-162181
X249146Y-158221
X250006Y-148471
X250396Y-159751
X250626Y-147661
X250656Y-137001
X250976Y-151251
X253136Y-159821
X254216Y-152371
X254286Y-164771
X254336Y-163441
X256956Y-178201
X257676Y-177361
X258926Y-176391
X258986Y-159641
X259556Y-158331
X259561Y-178771
X259711Y-175561
X262406Y-176671
X263106Y-155391
X263361Y-152246
X264866Y-166411
X264916Y-154666
X265114Y-175890
X265146Y-174891
X266776Y-142881
X267397Y-175878
X267556Y-174891
X268786Y-163211
X270531Y-175831
X270986Y-174941
X273456Y-174941
X274606Y-175811
X278916Y-143341
X283716Y-137201
X284036Y-147661
X284776Y-148471
X288516Y-137201
X289726Y-175591
X290006Y-147661
X290966Y-148471
X297916Y-152161
X298806Y-162921
X299316Y-143041
X301996Y-130281
X305336Y-137201
X306986Y-139021
X307686Y-142571
X310256Y-148471
X311206Y-137201
X313946Y-147241
X316026Y-163061
X316961Y-139046
X317276Y-144041
X323526Y-171101
X327346Y-144401
X332056Y-163681
T2
X211770Y-131320
X211770Y-154320
X219770Y-131320
X219770Y-154320
X242770Y-131320
X242770Y-154320
X250770Y-131320
X250770Y-154320
X71770Y-131320
X71770Y-154320
X79770Y-131320
X79770Y-154320
X102770Y-131320
X102770Y-154320
X110770Y-131320
X110770Y-154320
X141770Y-131320
X141770Y-154320
X149770Y-131320
X149770Y-154320
X172770Y-131320
X172770Y-154320
X180770Y-131320
X180770Y-154320
X281770Y-131320
X281770Y-154320
X289770Y-131320
X289770Y-154320
X312770Y-131320
X312770Y-154320
X320770Y-131320
X320770Y-154320
T3
X171736Y-167596
X175546Y-167596
X179356Y-167596
X183166Y-167596
T0
M30
