%TF.GenerationSoftware,KiCad,Pcbnew,(6.0.7)*%
%TF.CreationDate,2023-03-24T10:01:00+01:00*%
%TF.ProjectId,PicoWS2812,5069636f-5753-4323-9831-322e6b696361,rev?*%
%TF.SameCoordinates,Original*%
%TF.FileFunction,Copper,L1,Top*%
%TF.FilePolarity,Positive*%
%FSLAX46Y46*%
G04 Gerber Fmt 4.6, Leading zero omitted, Abs format (unit mm)*
G04 Created by KiCad (PCBNEW (6.0.7)) date 2023-03-24 10:01:00*
%MOMM*%
%LPD*%
G01*
G04 APERTURE LIST*
G04 Aperture macros list*
%AMRoundRect*
0 Rectangle with rounded corners*
0 $1 Rounding radius*
0 $2 $3 $4 $5 $6 $7 $8 $9 X,Y pos of 4 corners*
0 Add a 4 corners polygon primitive as box body*
4,1,4,$2,$3,$4,$5,$6,$7,$8,$9,$2,$3,0*
0 Add four circle primitives for the rounded corners*
1,1,$1+$1,$2,$3*
1,1,$1+$1,$4,$5*
1,1,$1+$1,$6,$7*
1,1,$1+$1,$8,$9*
0 Add four rect primitives between the rounded corners*
20,1,$1+$1,$2,$3,$4,$5,0*
20,1,$1+$1,$4,$5,$6,$7,0*
20,1,$1+$1,$6,$7,$8,$9,0*
20,1,$1+$1,$8,$9,$2,$3,0*%
G04 Aperture macros list end*
%TA.AperFunction,SMDPad,CuDef*%
%ADD10RoundRect,0.200000X0.200000X0.275000X-0.200000X0.275000X-0.200000X-0.275000X0.200000X-0.275000X0*%
%TD*%
%TA.AperFunction,ComponentPad*%
%ADD11R,1.700000X1.700000*%
%TD*%
%TA.AperFunction,ComponentPad*%
%ADD12O,1.700000X1.700000*%
%TD*%
%TA.AperFunction,SMDPad,CuDef*%
%ADD13C,1.000000*%
%TD*%
%TA.AperFunction,SMDPad,CuDef*%
%ADD14R,0.900000X0.800000*%
%TD*%
%TA.AperFunction,SMDPad,CuDef*%
%ADD15R,0.740000X2.400000*%
%TD*%
%TA.AperFunction,SMDPad,CuDef*%
%ADD16R,3.500000X1.700000*%
%TD*%
%TA.AperFunction,SMDPad,CuDef*%
%ADD17R,1.700000X3.500000*%
%TD*%
%TA.AperFunction,SMDPad,CuDef*%
%ADD18R,1.000000X0.400000*%
%TD*%
%TA.AperFunction,ViaPad*%
%ADD19C,0.800000*%
%TD*%
%TA.AperFunction,Conductor*%
%ADD20C,0.250000*%
%TD*%
G04 APERTURE END LIST*
D10*
%TO.P,R6,1*%
%TO.N,LEDLane0*%
X107525000Y-82800000D03*
%TO.P,R6,2*%
%TO.N,Net-(J1-Pad1)*%
X105875000Y-82800000D03*
%TD*%
D11*
%TO.P,J3,1,Pin_1*%
%TO.N,Net-(J3-Pad1)*%
X103300000Y-95200000D03*
D12*
%TO.P,J3,2,Pin_2*%
%TO.N,GND*%
X103300000Y-92660000D03*
%TD*%
D13*
%TO.P,FID2,*%
%TO.N,*%
X100300000Y-131900000D03*
%TD*%
D10*
%TO.P,R1,1*%
%TO.N,LEDLane1*%
X107525000Y-89000000D03*
%TO.P,R1,2*%
%TO.N,Net-(J2-Pad1)*%
X105875000Y-89000000D03*
%TD*%
D11*
%TO.P,J7,1,Pin_1*%
%TO.N,Net-(J7-Pad1)*%
X103300000Y-120000000D03*
D12*
%TO.P,J7,2,Pin_2*%
%TO.N,GND*%
X103300000Y-117460000D03*
%TD*%
D14*
%TO.P,Q1,1,G*%
%TO.N,Net-(Q1-Pad1)*%
X122500000Y-128050000D03*
%TO.P,Q1,2,D*%
%TO.N,5V*%
X120500000Y-127100000D03*
%TO.P,Q1,3,S*%
%TO.N,+5V*%
X122500000Y-126150000D03*
%TD*%
D11*
%TO.P,J2,1,Pin_1*%
%TO.N,Net-(J2-Pad1)*%
X103300000Y-89000000D03*
D12*
%TO.P,J2,2,Pin_2*%
%TO.N,GND*%
X103300000Y-86460000D03*
%TD*%
D13*
%TO.P,FID1,*%
%TO.N,*%
X147500000Y-98900000D03*
%TD*%
D10*
%TO.P,R2,1*%
%TO.N,LEDLane2*%
X107525000Y-95200000D03*
%TO.P,R2,2*%
%TO.N,Net-(J3-Pad1)*%
X105875000Y-95200000D03*
%TD*%
%TO.P,R4,1*%
%TO.N,LEDLane4*%
X107525000Y-107600000D03*
%TO.P,R4,2*%
%TO.N,Net-(J5-Pad1)*%
X105875000Y-107600000D03*
%TD*%
%TO.P,R3,1*%
%TO.N,LEDLane3*%
X107525000Y-101500000D03*
%TO.P,R3,2*%
%TO.N,Net-(J4-Pad1)*%
X105875000Y-101500000D03*
%TD*%
D15*
%TO.P,U1,1,Vcc*%
%TO.N,+3.3V*%
X133740000Y-127750000D03*
%TO.P,U1,2,SWDIO/TMS*%
%TO.N,Net-(U1-Pad2)*%
X133740000Y-131650000D03*
%TO.P,U1,3,GND*%
%TO.N,GND*%
X132470000Y-127750000D03*
%TO.P,U1,4,SWDCLK/TCLK*%
%TO.N,Net-(U1-Pad4)*%
X132470000Y-131650000D03*
%TO.P,U1,5,GND*%
%TO.N,GND*%
X131200000Y-127750000D03*
%TO.P,U1,6,SWO/TDO*%
%TO.N,unconnected-(U1-Pad6)*%
X131200000Y-131650000D03*
%TO.P,U1,7,KEY*%
%TO.N,unconnected-(U1-Pad7)*%
X129930000Y-127750000D03*
%TO.P,U1,8,NC/TDI*%
%TO.N,unconnected-(U1-Pad8)*%
X129930000Y-131650000D03*
%TO.P,U1,9,GND*%
%TO.N,GND*%
X128660000Y-127750000D03*
%TO.P,U1,10,nRESET*%
%TO.N,Reset*%
X128660000Y-131650000D03*
%TD*%
D11*
%TO.P,J5,1,Pin_1*%
%TO.N,Net-(J5-Pad1)*%
X103300000Y-107600000D03*
D12*
%TO.P,J5,2,Pin_2*%
%TO.N,GND*%
X103300000Y-105060000D03*
%TD*%
D11*
%TO.P,J9,1,Pin_1*%
%TO.N,5V*%
X114900000Y-123600000D03*
D12*
%TO.P,J9,2,Pin_2*%
%TO.N,GND*%
X112360000Y-123600000D03*
%TD*%
D13*
%TO.P,FID3,*%
%TO.N,*%
X100500000Y-74400000D03*
%TD*%
D16*
%TO.P,U2,1,GPIO0*%
%TO.N,unconnected-(U2-Pad1)*%
X121410000Y-74125000D03*
D12*
X122310000Y-74125000D03*
%TO.P,U2,2,GPIO1*%
%TO.N,unconnected-(U2-Pad2)*%
X122310000Y-76665000D03*
D16*
X121410000Y-76665000D03*
%TO.P,U2,3,GND*%
%TO.N,GND*%
X121410000Y-79205000D03*
D11*
X122310000Y-79205000D03*
D16*
%TO.P,U2,4,GPIO2*%
%TO.N,Lane0*%
X121410000Y-81745000D03*
D12*
X122310000Y-81745000D03*
%TO.P,U2,5,GPIO3*%
%TO.N,Lane1*%
X122310000Y-84285000D03*
D16*
X121410000Y-84285000D03*
D12*
%TO.P,U2,6,GPIO4*%
%TO.N,Lane2*%
X122310000Y-86825000D03*
D16*
X121410000Y-86825000D03*
D12*
%TO.P,U2,7,GPIO5*%
%TO.N,Lane3*%
X122310000Y-89365000D03*
D16*
X121410000Y-89365000D03*
%TO.P,U2,8,GND*%
%TO.N,GND*%
X121410000Y-91905000D03*
D11*
X122310000Y-91905000D03*
D12*
%TO.P,U2,9,GPIO6*%
%TO.N,Lane4*%
X122310000Y-94445000D03*
D16*
X121410000Y-94445000D03*
D12*
%TO.P,U2,10,GPIO7*%
%TO.N,Lane5*%
X122310000Y-96985000D03*
D16*
X121410000Y-96985000D03*
%TO.P,U2,11,GPIO8*%
%TO.N,Lane6*%
X121410000Y-99525000D03*
D12*
X122310000Y-99525000D03*
D16*
%TO.P,U2,12,GPIO9*%
%TO.N,Lane7*%
X121410000Y-102065000D03*
D12*
X122310000Y-102065000D03*
D16*
%TO.P,U2,13,GND*%
%TO.N,GND*%
X121410000Y-104605000D03*
D11*
X122310000Y-104605000D03*
D16*
%TO.P,U2,14,GPIO10*%
%TO.N,unconnected-(U2-Pad14)*%
X121410000Y-107145000D03*
D12*
X122310000Y-107145000D03*
D16*
%TO.P,U2,15,GPIO11*%
%TO.N,unconnected-(U2-Pad15)*%
X121410000Y-109685000D03*
D12*
X122310000Y-109685000D03*
D16*
%TO.P,U2,16,GPIO12*%
%TO.N,unconnected-(U2-Pad16)*%
X121410000Y-112225000D03*
D12*
X122310000Y-112225000D03*
D16*
%TO.P,U2,17,GPIO13*%
%TO.N,unconnected-(U2-Pad17)*%
X121410000Y-114765000D03*
D12*
X122310000Y-114765000D03*
D11*
%TO.P,U2,18,GND*%
%TO.N,GND*%
X122310000Y-117305000D03*
D16*
X121410000Y-117305000D03*
%TO.P,U2,19,GPIO14*%
%TO.N,unconnected-(U2-Pad19)*%
X121410000Y-119845000D03*
D12*
X122310000Y-119845000D03*
%TO.P,U2,20,GPIO15*%
%TO.N,unconnected-(U2-Pad20)*%
X122310000Y-122385000D03*
D16*
X121410000Y-122385000D03*
D12*
%TO.P,U2,21,GPIO16*%
%TO.N,unconnected-(U2-Pad21)*%
X140090000Y-122385000D03*
D16*
X140990000Y-122385000D03*
D12*
%TO.P,U2,22,GPIO17*%
%TO.N,unconnected-(U2-Pad22)*%
X140090000Y-119845000D03*
D16*
X140990000Y-119845000D03*
%TO.P,U2,23,GND*%
%TO.N,GND*%
X140990000Y-117305000D03*
D11*
X140090000Y-117305000D03*
D16*
%TO.P,U2,24,GPIO18*%
%TO.N,unconnected-(U2-Pad24)*%
X140990000Y-114765000D03*
D12*
X140090000Y-114765000D03*
%TO.P,U2,25,GPIO19*%
%TO.N,unconnected-(U2-Pad25)*%
X140090000Y-112225000D03*
D16*
X140990000Y-112225000D03*
%TO.P,U2,26,GPIO20*%
%TO.N,unconnected-(U2-Pad26)*%
X140990000Y-109685000D03*
D12*
X140090000Y-109685000D03*
D16*
%TO.P,U2,27,GPIO21*%
%TO.N,unconnected-(U2-Pad27)*%
X140990000Y-107145000D03*
D12*
X140090000Y-107145000D03*
D16*
%TO.P,U2,28,GND*%
%TO.N,GND*%
X140990000Y-104605000D03*
D11*
X140090000Y-104605000D03*
D12*
%TO.P,U2,29,GPIO22*%
%TO.N,unconnected-(U2-Pad29)*%
X140090000Y-102065000D03*
D16*
X140990000Y-102065000D03*
%TO.P,U2,30,RUN*%
%TO.N,Reset*%
X140990000Y-99525000D03*
D12*
X140090000Y-99525000D03*
%TO.P,U2,31,GPIO26_ADC0*%
%TO.N,unconnected-(U2-Pad31)*%
X140090000Y-96985000D03*
D16*
X140990000Y-96985000D03*
D12*
%TO.P,U2,32,GPIO27_ADC1*%
%TO.N,unconnected-(U2-Pad32)*%
X140090000Y-94445000D03*
D16*
X140990000Y-94445000D03*
D11*
%TO.P,U2,33,AGND*%
%TO.N,unconnected-(U2-Pad33)*%
X140090000Y-91905000D03*
D16*
X140990000Y-91905000D03*
%TO.P,U2,34,GPIO28_ADC2*%
%TO.N,unconnected-(U2-Pad34)*%
X140990000Y-89365000D03*
D12*
X140090000Y-89365000D03*
%TO.P,U2,35,ADC_VREF*%
%TO.N,+3.3V*%
X140090000Y-86825000D03*
D16*
X140990000Y-86825000D03*
%TO.P,U2,36,3V3*%
X140990000Y-84285000D03*
D12*
X140090000Y-84285000D03*
D16*
%TO.P,U2,37,3V3_EN*%
%TO.N,unconnected-(U2-Pad37)*%
X140990000Y-81745000D03*
D12*
X140090000Y-81745000D03*
D16*
%TO.P,U2,38,GND*%
%TO.N,GND*%
X140990000Y-79205000D03*
D11*
X140090000Y-79205000D03*
D16*
%TO.P,U2,39,VSYS*%
%TO.N,+5V*%
X140990000Y-76665000D03*
D12*
X140090000Y-76665000D03*
D16*
%TO.P,U2,40,VBUS*%
%TO.N,Net-(Q1-Pad1)*%
X140990000Y-74125000D03*
D12*
X140090000Y-74125000D03*
%TO.P,U2,41,SWCLK*%
%TO.N,Net-(U1-Pad4)*%
X128660000Y-122155000D03*
D17*
X128660000Y-123055000D03*
%TO.P,U2,42,GND*%
%TO.N,GND*%
X131200000Y-123055000D03*
D11*
X131200000Y-122155000D03*
D17*
%TO.P,U2,43,SWDIO*%
%TO.N,Net-(U1-Pad2)*%
X133740000Y-123055000D03*
D12*
X133740000Y-122155000D03*
%TD*%
D11*
%TO.P,J1,1,Pin_1*%
%TO.N,Net-(J1-Pad1)*%
X103325000Y-82825000D03*
D12*
%TO.P,J1,2,Pin_2*%
%TO.N,GND*%
X103325000Y-80285000D03*
%TD*%
D18*
%TO.P,U3,1,DIR*%
%TO.N,GND*%
X110600000Y-98975000D03*
%TO.P,U3,2,A1*%
%TO.N,LEDLane0*%
X110600000Y-99625000D03*
%TO.P,U3,3,A2*%
%TO.N,LEDLane1*%
X110600000Y-100275000D03*
%TO.P,U3,4,A3*%
%TO.N,LEDLane2*%
X110600000Y-100925000D03*
%TO.P,U3,5,A4*%
%TO.N,LEDLane3*%
X110600000Y-101575000D03*
%TO.P,U3,6,A5*%
%TO.N,LEDLane4*%
X110600000Y-102225000D03*
%TO.P,U3,7,A6*%
%TO.N,LEDLane5*%
X110600000Y-102875000D03*
%TO.P,U3,8,A7*%
%TO.N,LEDLane6*%
X110600000Y-103525000D03*
%TO.P,U3,9,A8*%
%TO.N,LEDLane7*%
X110600000Y-104175000D03*
%TO.P,U3,10,GND*%
%TO.N,GND*%
X110600000Y-104825000D03*
%TO.P,U3,11,B8*%
%TO.N,Lane7*%
X116400000Y-104825000D03*
%TO.P,U3,12,B7*%
%TO.N,Lane6*%
X116400000Y-104175000D03*
%TO.P,U3,13,B6*%
%TO.N,Lane5*%
X116400000Y-103525000D03*
%TO.P,U3,14,B5*%
%TO.N,Lane4*%
X116400000Y-102875000D03*
%TO.P,U3,15,B4*%
%TO.N,Lane3*%
X116400000Y-102225000D03*
%TO.P,U3,16,B3*%
%TO.N,Lane2*%
X116400000Y-101575000D03*
%TO.P,U3,17,B2*%
%TO.N,Lane1*%
X116400000Y-100925000D03*
%TO.P,U3,18,B1*%
%TO.N,Lane0*%
X116400000Y-100275000D03*
%TO.P,U3,19,~{OE}*%
%TO.N,GND*%
X116400000Y-99625000D03*
%TO.P,U3,20,VCC*%
%TO.N,+5V*%
X116400000Y-98975000D03*
%TD*%
D11*
%TO.P,J6,1,Pin_1*%
%TO.N,Net-(J6-Pad1)*%
X103300000Y-113800000D03*
D12*
%TO.P,J6,2,Pin_2*%
%TO.N,GND*%
X103300000Y-111260000D03*
%TD*%
D10*
%TO.P,R7,1*%
%TO.N,LEDLane6*%
X107525000Y-120100000D03*
%TO.P,R7,2*%
%TO.N,Net-(J7-Pad1)*%
X105875000Y-120100000D03*
%TD*%
D11*
%TO.P,J8,1,Pin_1*%
%TO.N,Net-(J8-Pad1)*%
X103300000Y-126200000D03*
D12*
%TO.P,J8,2,Pin_2*%
%TO.N,GND*%
X103300000Y-123660000D03*
%TD*%
D11*
%TO.P,J4,1,Pin_1*%
%TO.N,Net-(J4-Pad1)*%
X103300000Y-101400000D03*
D12*
%TO.P,J4,2,Pin_2*%
%TO.N,GND*%
X103300000Y-98860000D03*
%TD*%
D10*
%TO.P,R5,1*%
%TO.N,LEDLane5*%
X107525000Y-113700000D03*
%TO.P,R5,2*%
%TO.N,Net-(J6-Pad1)*%
X105875000Y-113700000D03*
%TD*%
%TO.P,R8,1*%
%TO.N,LEDLane7*%
X107525000Y-126200000D03*
%TO.P,R8,2*%
%TO.N,Net-(J8-Pad1)*%
X105875000Y-126200000D03*
%TD*%
D19*
%TO.N,GND*%
X148300000Y-100800000D03*
X136100000Y-118700000D03*
X125177982Y-73777982D03*
X129500000Y-94800000D03*
X102400000Y-132600000D03*
X94100000Y-118800000D03*
X105800000Y-129700000D03*
X113300000Y-102500000D03*
X114900000Y-107700000D03*
X136700000Y-73700000D03*
X100600000Y-111400000D03*
X148300000Y-118700000D03*
X93800000Y-87800000D03*
X148100000Y-90000000D03*
X108500000Y-132600000D03*
X135289509Y-87740462D03*
X110300000Y-73400000D03*
X109668299Y-127773602D03*
X111200000Y-87900000D03*
X125500000Y-91800000D03*
X148200000Y-94700000D03*
X94000000Y-84200000D03*
X134200000Y-96900000D03*
X148100000Y-85300000D03*
X134000000Y-82200000D03*
X104000000Y-73500000D03*
X113800000Y-132400000D03*
X116900000Y-73500000D03*
X93700000Y-94200000D03*
X140800000Y-132000000D03*
X114900000Y-116600000D03*
X120800000Y-124800000D03*
X109500000Y-121200000D03*
X113600000Y-112500000D03*
X135800000Y-105200000D03*
X145000000Y-77500000D03*
X124800000Y-84200000D03*
X93900000Y-100300000D03*
X116400000Y-112400000D03*
X132400000Y-106200000D03*
X137600000Y-132200000D03*
X100400000Y-123700000D03*
X148200000Y-126800000D03*
X119000000Y-132400000D03*
X148100000Y-79800000D03*
X100500000Y-105200000D03*
X111100000Y-94200000D03*
X100300000Y-98600000D03*
X129200000Y-118400000D03*
X107600000Y-109900000D03*
X143500000Y-128800000D03*
X148300000Y-122500000D03*
X98700000Y-128800000D03*
X148300000Y-114500000D03*
X125400000Y-106100000D03*
X111400000Y-80500000D03*
X100400000Y-92200000D03*
X125600000Y-132400000D03*
X94000000Y-78700000D03*
X118500000Y-128200000D03*
X129700000Y-102300000D03*
X148300000Y-109900000D03*
X94100000Y-106400000D03*
X94000000Y-112500000D03*
X148300000Y-104900000D03*
X136400000Y-101900000D03*
X100400000Y-80400000D03*
X115800000Y-86200000D03*
X140600000Y-125300000D03*
X94100000Y-127500000D03*
X125400000Y-98600000D03*
X113800000Y-120800000D03*
X100400000Y-86500000D03*
X100500000Y-117400000D03*
X98590894Y-73193371D03*
X94200000Y-125000000D03*
X107900000Y-116000000D03*
X132700000Y-118100000D03*
X114700000Y-99600000D03*
%TO.N,Lane0*%
X113300000Y-95700000D03*
X115000000Y-95700000D03*
%TO.N,+3.3V*%
X138200000Y-100300000D03*
X138100000Y-127900000D03*
X136475500Y-127800000D03*
X138200000Y-98700000D03*
%TO.N,Net-(Q1-Pad1)*%
X137400000Y-75940500D03*
X137400000Y-77389500D03*
%TD*%
D20*
%TO.N,+5V*%
X136600000Y-87700000D02*
X136600000Y-89300000D01*
X127200000Y-89300000D02*
X136600000Y-89300000D01*
X116400000Y-98975000D02*
X116400000Y-88585000D01*
X123550000Y-85650000D02*
X127200000Y-89300000D01*
X136600000Y-77164195D02*
X136600000Y-87600000D01*
X116400000Y-88585000D02*
X119335000Y-85650000D01*
X137099195Y-76665000D02*
X136600000Y-77164195D01*
X136600000Y-98363604D02*
X125050000Y-109913604D01*
X136600000Y-89300000D02*
X136600000Y-98363604D01*
X119335000Y-85650000D02*
X123550000Y-85650000D01*
X125050000Y-124863604D02*
X125050000Y-109913604D01*
X122500000Y-126150000D02*
X123763604Y-126150000D01*
X140090000Y-76665000D02*
X137099195Y-76665000D01*
X123763604Y-126150000D02*
X125050000Y-124863604D01*
%TO.N,Net-(J1-Pad1)*%
X103325000Y-82825000D02*
X105850000Y-82825000D01*
X105850000Y-82825000D02*
X105875000Y-82800000D01*
%TO.N,GND*%
X116400000Y-99625000D02*
X114725000Y-99625000D01*
X114725000Y-99625000D02*
X114700000Y-99600000D01*
%TO.N,Net-(J2-Pad1)*%
X103300000Y-89000000D02*
X105875000Y-89000000D01*
%TO.N,Net-(J3-Pad1)*%
X103300000Y-95200000D02*
X105875000Y-95200000D01*
%TO.N,Net-(J4-Pad1)*%
X105775000Y-101400000D02*
X105875000Y-101500000D01*
X103300000Y-101400000D02*
X105775000Y-101400000D01*
%TO.N,Net-(J5-Pad1)*%
X103300000Y-107600000D02*
X105875000Y-107600000D01*
%TO.N,Net-(J6-Pad1)*%
X105775000Y-113800000D02*
X103300000Y-113800000D01*
X105875000Y-113700000D02*
X105775000Y-113800000D01*
%TO.N,Net-(J7-Pad1)*%
X105775000Y-120000000D02*
X105875000Y-120100000D01*
X103300000Y-120000000D02*
X105775000Y-120000000D01*
%TO.N,Net-(J8-Pad1)*%
X103300000Y-126200000D02*
X105875000Y-126200000D01*
%TO.N,Lane0*%
X116350000Y-100325000D02*
X116400000Y-100275000D01*
X114399695Y-100325000D02*
X116350000Y-100325000D01*
X113975000Y-99900305D02*
X114399695Y-100325000D01*
X113975000Y-96725000D02*
X115000000Y-95700000D01*
X122310000Y-81745000D02*
X117155000Y-81745000D01*
X117155000Y-81745000D02*
X113300000Y-85600000D01*
X113975000Y-99900305D02*
X113975000Y-96725000D01*
X113300000Y-85600000D02*
X113300000Y-95700000D01*
%TO.N,Lane1*%
X113000000Y-100200000D02*
X113725000Y-100925000D01*
X113000000Y-97025305D02*
X113000000Y-100200000D01*
X114100000Y-85600000D02*
X114100000Y-95925305D01*
X114100000Y-85600000D02*
X115415000Y-84285000D01*
X115415000Y-84285000D02*
X122310000Y-84285000D01*
X114100000Y-95925305D02*
X113000000Y-97025305D01*
X113725000Y-100925000D02*
X116400000Y-100925000D01*
%TO.N,Lane2*%
X120700000Y-86825000D02*
X122310000Y-86825000D01*
X117536996Y-101263004D02*
X117536996Y-89988004D01*
X117225000Y-101575000D02*
X117536996Y-101263004D01*
X117536996Y-89988004D02*
X120700000Y-86825000D01*
X116400000Y-101575000D02*
X117225000Y-101575000D01*
%TO.N,Lane3*%
X117986497Y-91813503D02*
X120435000Y-89365000D01*
X117986497Y-101449193D02*
X117986497Y-91813503D01*
X116400000Y-102225000D02*
X117210690Y-102225000D01*
X117210690Y-102225000D02*
X117986497Y-101449193D01*
X120435000Y-89365000D02*
X122310000Y-89365000D01*
%TO.N,Lane4*%
X116400000Y-102875000D02*
X117196380Y-102875000D01*
X118435998Y-101635382D02*
X118435998Y-96709002D01*
X118435998Y-96709002D02*
X120700000Y-94445000D01*
X120700000Y-94445000D02*
X122310000Y-94445000D01*
X117196380Y-102875000D02*
X118435998Y-101635382D01*
%TO.N,Lane5*%
X118885499Y-101821571D02*
X118885499Y-100703811D01*
X116400000Y-103525000D02*
X117182070Y-103525000D01*
X120865000Y-96985000D02*
X122310000Y-96985000D01*
X118885499Y-100703811D02*
X118948503Y-100640807D01*
X118948503Y-98901497D02*
X120865000Y-96985000D01*
X118948503Y-100640807D02*
X118948503Y-98901497D01*
X117182070Y-103525000D02*
X118885499Y-101821571D01*
%TO.N,Lane6*%
X119335000Y-100890000D02*
X120700000Y-99525000D01*
X119335000Y-102007760D02*
X119335000Y-100890000D01*
X117167760Y-104175000D02*
X119335000Y-102007760D01*
X120700000Y-99525000D02*
X122310000Y-99525000D01*
X116400000Y-104175000D02*
X117167760Y-104175000D01*
%TO.N,Lane7*%
X116400000Y-104825000D02*
X117940000Y-104825000D01*
X120700000Y-102065000D02*
X122310000Y-102065000D01*
X117940000Y-104825000D02*
X120700000Y-102065000D01*
%TO.N,LEDLane1*%
X108500000Y-98875000D02*
X109900000Y-100275000D01*
X108500000Y-89975000D02*
X108500000Y-98875000D01*
X107525000Y-89000000D02*
X108500000Y-89975000D01*
X109900000Y-100275000D02*
X110600000Y-100275000D01*
%TO.N,LEDLane2*%
X107525000Y-95200000D02*
X107525000Y-98550000D01*
X107525000Y-98550000D02*
X109900000Y-100925000D01*
X109900000Y-100925000D02*
X110600000Y-100925000D01*
%TO.N,LEDLane3*%
X107525000Y-101500000D02*
X107600000Y-101575000D01*
X107600000Y-101575000D02*
X110600000Y-101575000D01*
%TO.N,LEDLane4*%
X107525000Y-104550000D02*
X109850000Y-102225000D01*
X109850000Y-102225000D02*
X110600000Y-102225000D01*
X107525000Y-107600000D02*
X107525000Y-104550000D01*
%TO.N,LEDLane5*%
X109325000Y-103575000D02*
X110025000Y-102875000D01*
X107525000Y-113700000D02*
X109325000Y-111900000D01*
X110025000Y-102875000D02*
X110600000Y-102875000D01*
X109325000Y-111900000D02*
X109325000Y-103575000D01*
%TO.N,LEDLane0*%
X109900000Y-99625000D02*
X110600000Y-99625000D01*
X109200000Y-84475000D02*
X109200000Y-98925000D01*
X109200000Y-98925000D02*
X109900000Y-99625000D01*
X107525000Y-82800000D02*
X109200000Y-84475000D01*
%TO.N,LEDLane6*%
X107525000Y-120100000D02*
X109775000Y-117850000D01*
X109775000Y-117850000D02*
X109775000Y-103825000D01*
X110075000Y-103525000D02*
X110600000Y-103525000D01*
X109775000Y-103825000D02*
X110075000Y-103525000D01*
%TO.N,LEDLane7*%
X107525000Y-126200000D02*
X111425000Y-122300000D01*
X111425000Y-122300000D02*
X111425000Y-104300000D01*
X111425000Y-104300000D02*
X111300000Y-104175000D01*
X111300000Y-104175000D02*
X110600000Y-104175000D01*
%TO.N,5V*%
X117000000Y-123600000D02*
X120500000Y-127100000D01*
X114900000Y-123600000D02*
X117000000Y-123600000D01*
%TO.N,+3.3V*%
X138515000Y-84285000D02*
X138200000Y-84600000D01*
X138200000Y-84600000D02*
X138200000Y-86600000D01*
X138200000Y-100300000D02*
X138200000Y-127800000D01*
X138425000Y-86825000D02*
X140090000Y-86825000D01*
X140090000Y-84285000D02*
X138515000Y-84285000D01*
X138200000Y-127800000D02*
X138100000Y-127900000D01*
X136425500Y-127750000D02*
X133740000Y-127750000D01*
X136475500Y-127800000D02*
X136425500Y-127750000D01*
X138200000Y-86600000D02*
X138425000Y-86825000D01*
X138200000Y-86600000D02*
X138200000Y-98700000D01*
%TO.N,Net-(U1-Pad2)*%
X137200000Y-127300000D02*
X137200000Y-129900000D01*
X137200000Y-129900000D02*
X135450000Y-131650000D01*
X133740000Y-122155000D02*
X133740000Y-123840000D01*
X133740000Y-123840000D02*
X137200000Y-127300000D01*
X135450000Y-131650000D02*
X133740000Y-131650000D01*
%TO.N,Net-(U1-Pad4)*%
X131603055Y-130003055D02*
X132291945Y-130691945D01*
X132291945Y-130691945D02*
X132291945Y-131528055D01*
X127786945Y-123028055D02*
X127786945Y-128986945D01*
X127786945Y-128986945D02*
X128803055Y-130003055D01*
X128660000Y-122155000D02*
X127786945Y-123028055D01*
X128803055Y-130003055D02*
X131603055Y-130003055D01*
%TO.N,Reset*%
X128481945Y-131528055D02*
X128481945Y-130318341D01*
X126200000Y-110100000D02*
X136775000Y-99525000D01*
X136775000Y-99525000D02*
X140090000Y-99525000D01*
X128481945Y-130318341D02*
X126200000Y-128036396D01*
X126200000Y-128036396D02*
X126200000Y-110100000D01*
%TO.N,Net-(Q1-Pad1)*%
X140090000Y-74125000D02*
X139215500Y-74125000D01*
X137400000Y-77389500D02*
X137400000Y-98200000D01*
X125500000Y-125050000D02*
X122500000Y-128050000D01*
X139215500Y-74125000D02*
X137400000Y-75940500D01*
X137400000Y-98200000D02*
X125500000Y-110100000D01*
X125500000Y-110100000D02*
X125500000Y-125050000D01*
%TD*%
%TA.AperFunction,Conductor*%
%TO.N,GND*%
G36*
X147019722Y-72510049D02*
G01*
X147034241Y-72512309D01*
X147043117Y-72513691D01*
X147060315Y-72511442D01*
X147084256Y-72510609D01*
X147330049Y-72525476D01*
X147345154Y-72527310D01*
X147614220Y-72576617D01*
X147628993Y-72580258D01*
X147890164Y-72661642D01*
X147904382Y-72667034D01*
X148153831Y-72779302D01*
X148167296Y-72786368D01*
X148230184Y-72824385D01*
X148401406Y-72927892D01*
X148413928Y-72936536D01*
X148629256Y-73105234D01*
X148640645Y-73115324D01*
X148834067Y-73308746D01*
X148844157Y-73320134D01*
X148959897Y-73467864D01*
X149012865Y-73535473D01*
X149021507Y-73547994D01*
X149100010Y-73677852D01*
X149163025Y-73782092D01*
X149170095Y-73795563D01*
X149272364Y-74022793D01*
X149282362Y-74045008D01*
X149287756Y-74059230D01*
X149336170Y-74214597D01*
X149369140Y-74320401D01*
X149372781Y-74335174D01*
X149422089Y-74604239D01*
X149423923Y-74619343D01*
X149438351Y-74857866D01*
X149437083Y-74884843D01*
X149437083Y-74884849D01*
X149435701Y-74893724D01*
X149439902Y-74925849D01*
X149440965Y-74941960D01*
X149540804Y-131050973D01*
X149539304Y-131070581D01*
X149537082Y-131084849D01*
X149537082Y-131084856D01*
X149535701Y-131093724D01*
X149537950Y-131110919D01*
X149538783Y-131134863D01*
X149523915Y-131380656D01*
X149522081Y-131395760D01*
X149472773Y-131664824D01*
X149469132Y-131679597D01*
X149390613Y-131931575D01*
X149387750Y-131940762D01*
X149382356Y-131954985D01*
X149281052Y-132180073D01*
X149270089Y-132204432D01*
X149263019Y-132217904D01*
X149160031Y-132388265D01*
X149121502Y-132452000D01*
X149112860Y-132464520D01*
X149101116Y-132479511D01*
X148944151Y-132679861D01*
X148934061Y-132691249D01*
X148740640Y-132884670D01*
X148729252Y-132894759D01*
X148716026Y-132905121D01*
X148513923Y-133063458D01*
X148501401Y-133072102D01*
X148444973Y-133106214D01*
X148267895Y-133213261D01*
X148267296Y-133213623D01*
X148253841Y-133220685D01*
X148004374Y-133332961D01*
X147990157Y-133338352D01*
X147728991Y-133419734D01*
X147714218Y-133423375D01*
X147445153Y-133472682D01*
X147430048Y-133474516D01*
X147191451Y-133488948D01*
X147164812Y-133487695D01*
X147164548Y-133487692D01*
X147155669Y-133486309D01*
X147124721Y-133490356D01*
X147108143Y-133491420D01*
X134512628Y-133467033D01*
X134444546Y-133446899D01*
X134398157Y-133393153D01*
X134388189Y-133322860D01*
X134417807Y-133258336D01*
X134437307Y-133240207D01*
X134466081Y-133218642D01*
X134473261Y-133213261D01*
X134560615Y-133096705D01*
X134611745Y-132960316D01*
X134618500Y-132898134D01*
X134618500Y-132409500D01*
X134638502Y-132341379D01*
X134692158Y-132294886D01*
X134744500Y-132283500D01*
X135371233Y-132283500D01*
X135382416Y-132284027D01*
X135389909Y-132285702D01*
X135397835Y-132285453D01*
X135397836Y-132285453D01*
X135457986Y-132283562D01*
X135461945Y-132283500D01*
X135489856Y-132283500D01*
X135493791Y-132283003D01*
X135493856Y-132282995D01*
X135505693Y-132282062D01*
X135537951Y-132281048D01*
X135541970Y-132280922D01*
X135549889Y-132280673D01*
X135569343Y-132275021D01*
X135588700Y-132271013D01*
X135600930Y-132269468D01*
X135600931Y-132269468D01*
X135608797Y-132268474D01*
X135616168Y-132265555D01*
X135616170Y-132265555D01*
X135649912Y-132252196D01*
X135661142Y-132248351D01*
X135695983Y-132238229D01*
X135695984Y-132238229D01*
X135703593Y-132236018D01*
X135710412Y-132231985D01*
X135710417Y-132231983D01*
X135721028Y-132225707D01*
X135738776Y-132217012D01*
X135757617Y-132209552D01*
X135766922Y-132202792D01*
X135793387Y-132183564D01*
X135803307Y-132177048D01*
X135834535Y-132158580D01*
X135834538Y-132158578D01*
X135841362Y-132154542D01*
X135855683Y-132140221D01*
X135870717Y-132127380D01*
X135887107Y-132115472D01*
X135915298Y-132081395D01*
X135923288Y-132072616D01*
X136953628Y-131042277D01*
X145137009Y-131042277D01*
X145162625Y-131310769D01*
X145163710Y-131315203D01*
X145163711Y-131315209D01*
X145213063Y-131516894D01*
X145226731Y-131572750D01*
X145327985Y-131822733D01*
X145464265Y-132055482D01*
X145543635Y-132154729D01*
X145618507Y-132248351D01*
X145632716Y-132266119D01*
X145829809Y-132450234D01*
X146051416Y-132603968D01*
X146055499Y-132605999D01*
X146055502Y-132606001D01*
X146090440Y-132623382D01*
X146292894Y-132724101D01*
X146297228Y-132725522D01*
X146297231Y-132725523D01*
X146544853Y-132806698D01*
X146544859Y-132806699D01*
X146549186Y-132808118D01*
X146553677Y-132808898D01*
X146553678Y-132808898D01*
X146811140Y-132853601D01*
X146811148Y-132853602D01*
X146814921Y-132854257D01*
X146818758Y-132854448D01*
X146898578Y-132858422D01*
X146898586Y-132858422D01*
X146900149Y-132858500D01*
X147068512Y-132858500D01*
X147070780Y-132858335D01*
X147070792Y-132858335D01*
X147201884Y-132848823D01*
X147269004Y-132843953D01*
X147273459Y-132842969D01*
X147273462Y-132842969D01*
X147527912Y-132786791D01*
X147527916Y-132786790D01*
X147532372Y-132785806D01*
X147691455Y-132725535D01*
X147780318Y-132691868D01*
X147780321Y-132691867D01*
X147784588Y-132690250D01*
X148020368Y-132559286D01*
X148177832Y-132439113D01*
X148231141Y-132398429D01*
X148231142Y-132398428D01*
X148234773Y-132395657D01*
X148423312Y-132202792D01*
X148582034Y-131984730D01*
X148665190Y-131826676D01*
X148705490Y-131750079D01*
X148705493Y-131750073D01*
X148707615Y-131746039D01*
X148720038Y-131710862D01*
X148795902Y-131496033D01*
X148795902Y-131496032D01*
X148797425Y-131491720D01*
X148849581Y-131227100D01*
X148849808Y-131222544D01*
X148862764Y-130962292D01*
X148862764Y-130962286D01*
X148862991Y-130957723D01*
X148837375Y-130689231D01*
X148807219Y-130565990D01*
X148774355Y-130431688D01*
X148773269Y-130427250D01*
X148672015Y-130177267D01*
X148556528Y-129980030D01*
X148538045Y-129948463D01*
X148538044Y-129948462D01*
X148535735Y-129944518D01*
X148417928Y-129797208D01*
X148370136Y-129737447D01*
X148370135Y-129737445D01*
X148367284Y-129733881D01*
X148170191Y-129549766D01*
X147948584Y-129396032D01*
X147944501Y-129394001D01*
X147944498Y-129393999D01*
X147779606Y-129311967D01*
X147707106Y-129275899D01*
X147702772Y-129274478D01*
X147702769Y-129274477D01*
X147455147Y-129193302D01*
X147455141Y-129193301D01*
X147450814Y-129191882D01*
X147446322Y-129191102D01*
X147188860Y-129146399D01*
X147188852Y-129146398D01*
X147185079Y-129145743D01*
X147173817Y-129145182D01*
X147101422Y-129141578D01*
X147101414Y-129141578D01*
X147099851Y-129141500D01*
X146931488Y-129141500D01*
X146929220Y-129141665D01*
X146929208Y-129141665D01*
X146798116Y-129151177D01*
X146730996Y-129156047D01*
X146726541Y-129157031D01*
X146726538Y-129157031D01*
X146472088Y-129213209D01*
X146472084Y-129213210D01*
X146467628Y-129214194D01*
X146341520Y-129261972D01*
X146219682Y-129308132D01*
X146219679Y-129308133D01*
X146215412Y-129309750D01*
X145979632Y-129440714D01*
X145976000Y-129443486D01*
X145769309Y-129601228D01*
X145765227Y-129604343D01*
X145576688Y-129797208D01*
X145417966Y-130015270D01*
X145376587Y-130093919D01*
X145294510Y-130249921D01*
X145294507Y-130249927D01*
X145292385Y-130253961D01*
X145290865Y-130258266D01*
X145290863Y-130258270D01*
X145213658Y-130476895D01*
X145202575Y-130508280D01*
X145150419Y-130772900D01*
X145150192Y-130777453D01*
X145150192Y-130777456D01*
X145138008Y-131022216D01*
X145137009Y-131042277D01*
X136953628Y-131042277D01*
X137592253Y-130403652D01*
X137600539Y-130396112D01*
X137607018Y-130392000D01*
X137653644Y-130342348D01*
X137656398Y-130339507D01*
X137676135Y-130319770D01*
X137678615Y-130316573D01*
X137686320Y-130307551D01*
X137711159Y-130281100D01*
X137716586Y-130275321D01*
X137720405Y-130268375D01*
X137720407Y-130268372D01*
X137726348Y-130257566D01*
X137737199Y-130241047D01*
X137744758Y-130231301D01*
X137749614Y-130225041D01*
X137752759Y-130217772D01*
X137752762Y-130217768D01*
X137767174Y-130184463D01*
X137772391Y-130173813D01*
X137793695Y-130135060D01*
X137798733Y-130115437D01*
X137805137Y-130096734D01*
X137810033Y-130085420D01*
X137810033Y-130085419D01*
X137813181Y-130078145D01*
X137814420Y-130070322D01*
X137814423Y-130070312D01*
X137820099Y-130034476D01*
X137822505Y-130022856D01*
X137831528Y-129987711D01*
X137831528Y-129987710D01*
X137833500Y-129980030D01*
X137833500Y-129959776D01*
X137835051Y-129940065D01*
X137836980Y-129927886D01*
X137838220Y-129920057D01*
X137834059Y-129876038D01*
X137833500Y-129864181D01*
X137833500Y-128927748D01*
X137853502Y-128859627D01*
X137907158Y-128813134D01*
X137977432Y-128803030D01*
X137985694Y-128804501D01*
X137998049Y-128807127D01*
X137998058Y-128807128D01*
X138004513Y-128808500D01*
X138195487Y-128808500D01*
X138201939Y-128807128D01*
X138201944Y-128807128D01*
X138288888Y-128788647D01*
X138382288Y-128768794D01*
X138481685Y-128724540D01*
X138550722Y-128693803D01*
X138550724Y-128693802D01*
X138556752Y-128691118D01*
X138711253Y-128578866D01*
X138715675Y-128573955D01*
X138834621Y-128441852D01*
X138834622Y-128441851D01*
X138839040Y-128436944D01*
X138934527Y-128271556D01*
X138993542Y-128089928D01*
X138994980Y-128076252D01*
X139012814Y-127906565D01*
X139013504Y-127900000D01*
X139008221Y-127849731D01*
X138994232Y-127716635D01*
X138994232Y-127716633D01*
X138993542Y-127710072D01*
X138934527Y-127528444D01*
X138915796Y-127496000D01*
X138850381Y-127382699D01*
X138833500Y-127319699D01*
X138833500Y-123807509D01*
X138853502Y-123739388D01*
X138907158Y-123692895D01*
X138977432Y-123682791D01*
X139003729Y-123689527D01*
X139122282Y-123733971D01*
X139122288Y-123733973D01*
X139129684Y-123736745D01*
X139191866Y-123743500D01*
X140060826Y-123743500D01*
X140065443Y-123743585D01*
X140146673Y-123746564D01*
X140146677Y-123746564D01*
X140151837Y-123746753D01*
X140156957Y-123746097D01*
X140156959Y-123746097D01*
X140169261Y-123744521D01*
X140185271Y-123743500D01*
X142788134Y-123743500D01*
X142850316Y-123736745D01*
X142986705Y-123685615D01*
X143103261Y-123598261D01*
X143190615Y-123481705D01*
X143241745Y-123345316D01*
X143248500Y-123283134D01*
X143248500Y-121486866D01*
X143241745Y-121424684D01*
X143190615Y-121288295D01*
X143117370Y-121190564D01*
X143092522Y-121124059D01*
X143107575Y-121054676D01*
X143117370Y-121039435D01*
X143146500Y-121000567D01*
X143190615Y-120941705D01*
X143241745Y-120805316D01*
X143248500Y-120743134D01*
X143248500Y-118946866D01*
X143241745Y-118884684D01*
X143190615Y-118748295D01*
X143117058Y-118650148D01*
X143092210Y-118583642D01*
X143107263Y-118514259D01*
X143117058Y-118499018D01*
X143184786Y-118408649D01*
X143193324Y-118393054D01*
X143238478Y-118272606D01*
X143242105Y-118257351D01*
X143247631Y-118206486D01*
X143248000Y-118199672D01*
X143248000Y-117577115D01*
X143243525Y-117561876D01*
X143242135Y-117560671D01*
X143234452Y-117559000D01*
X138959500Y-117559000D01*
X138891379Y-117538998D01*
X138844886Y-117485342D01*
X138833500Y-117433000D01*
X138833500Y-117177000D01*
X138853502Y-117108879D01*
X138907158Y-117062386D01*
X138959500Y-117051000D01*
X143229884Y-117051000D01*
X143245123Y-117046525D01*
X143246328Y-117045135D01*
X143247999Y-117037452D01*
X143247999Y-116410331D01*
X143247629Y-116403510D01*
X143242105Y-116352648D01*
X143238479Y-116337396D01*
X143193324Y-116216946D01*
X143184786Y-116201351D01*
X143117058Y-116110982D01*
X143092210Y-116044475D01*
X143107263Y-115975093D01*
X143117058Y-115959852D01*
X143185229Y-115868891D01*
X143190615Y-115861705D01*
X143241745Y-115725316D01*
X143248500Y-115663134D01*
X143248500Y-113866866D01*
X143241745Y-113804684D01*
X143190615Y-113668295D01*
X143117370Y-113570564D01*
X143092522Y-113504059D01*
X143107575Y-113434676D01*
X143117370Y-113419435D01*
X143185229Y-113328891D01*
X143190615Y-113321705D01*
X143241745Y-113185316D01*
X143248500Y-113123134D01*
X143248500Y-111326866D01*
X143241745Y-111264684D01*
X143190615Y-111128295D01*
X143117370Y-111030564D01*
X143092522Y-110964059D01*
X143107575Y-110894676D01*
X143117370Y-110879435D01*
X143185229Y-110788891D01*
X143190615Y-110781705D01*
X143241745Y-110645316D01*
X143248500Y-110583134D01*
X143248500Y-108786866D01*
X143241745Y-108724684D01*
X143190615Y-108588295D01*
X143117370Y-108490564D01*
X143092522Y-108424059D01*
X143107575Y-108354676D01*
X143117370Y-108339435D01*
X143190615Y-108241705D01*
X143241745Y-108105316D01*
X143248500Y-108043134D01*
X143248500Y-106246866D01*
X143241745Y-106184684D01*
X143190615Y-106048295D01*
X143117058Y-105950148D01*
X143092210Y-105883642D01*
X143107263Y-105814259D01*
X143117058Y-105799018D01*
X143184786Y-105708649D01*
X143193324Y-105693054D01*
X143238478Y-105572606D01*
X143242105Y-105557351D01*
X143247631Y-105506486D01*
X143248000Y-105499672D01*
X143248000Y-104877115D01*
X143243525Y-104861876D01*
X143242135Y-104860671D01*
X143234452Y-104859000D01*
X138959500Y-104859000D01*
X138891379Y-104838998D01*
X138844886Y-104785342D01*
X138833500Y-104733000D01*
X138833500Y-104477000D01*
X138853502Y-104408879D01*
X138907158Y-104362386D01*
X138959500Y-104351000D01*
X143229884Y-104351000D01*
X143245123Y-104346525D01*
X143246328Y-104345135D01*
X143247999Y-104337452D01*
X143247999Y-103710331D01*
X143247629Y-103703510D01*
X143242105Y-103652648D01*
X143238479Y-103637396D01*
X143193324Y-103516946D01*
X143184786Y-103501351D01*
X143117058Y-103410982D01*
X143092210Y-103344475D01*
X143107263Y-103275093D01*
X143117058Y-103259852D01*
X143161914Y-103200000D01*
X143190615Y-103161705D01*
X143241745Y-103025316D01*
X143248500Y-102963134D01*
X143248500Y-101166866D01*
X143241745Y-101104684D01*
X143190615Y-100968295D01*
X143117370Y-100870564D01*
X143092522Y-100804059D01*
X143107575Y-100734676D01*
X143117370Y-100719435D01*
X143190615Y-100621705D01*
X143241745Y-100485316D01*
X143248500Y-100423134D01*
X143248500Y-98885963D01*
X146494757Y-98885963D01*
X146511175Y-99081483D01*
X146565258Y-99270091D01*
X146568076Y-99275574D01*
X146652123Y-99439113D01*
X146652126Y-99439117D01*
X146654944Y-99444601D01*
X146776818Y-99598369D01*
X146781511Y-99602363D01*
X146781512Y-99602364D01*
X146862745Y-99671498D01*
X146926238Y-99725535D01*
X146931616Y-99728541D01*
X146931618Y-99728542D01*
X146964309Y-99746812D01*
X147097513Y-99821257D01*
X147284118Y-99881889D01*
X147478946Y-99905121D01*
X147485081Y-99904649D01*
X147485083Y-99904649D01*
X147668434Y-99890541D01*
X147668438Y-99890540D01*
X147674576Y-99890068D01*
X147863556Y-99837303D01*
X148038689Y-99748837D01*
X148068515Y-99725535D01*
X148137679Y-99671498D01*
X148193303Y-99628040D01*
X148211975Y-99606409D01*
X148317485Y-99484173D01*
X148317485Y-99484172D01*
X148321509Y-99479511D01*
X148331981Y-99461078D01*
X148381724Y-99373514D01*
X148418425Y-99308909D01*
X148480358Y-99122732D01*
X148504949Y-98928071D01*
X148505341Y-98900000D01*
X148486194Y-98704728D01*
X148484413Y-98698829D01*
X148484412Y-98698824D01*
X148431265Y-98522793D01*
X148429484Y-98516894D01*
X148337370Y-98343653D01*
X148213361Y-98191602D01*
X148062180Y-98066535D01*
X147889585Y-97973213D01*
X147795868Y-97944203D01*
X147708039Y-97917015D01*
X147708036Y-97917014D01*
X147702152Y-97915193D01*
X147696027Y-97914549D01*
X147696026Y-97914549D01*
X147513147Y-97895327D01*
X147513146Y-97895327D01*
X147507019Y-97894683D01*
X147384383Y-97905844D01*
X147317759Y-97911907D01*
X147317758Y-97911907D01*
X147311618Y-97912466D01*
X147305704Y-97914207D01*
X147305702Y-97914207D01*
X147226696Y-97937460D01*
X147123393Y-97967864D01*
X147117928Y-97970721D01*
X146954972Y-98055912D01*
X146954968Y-98055915D01*
X146949512Y-98058767D01*
X146944712Y-98062627D01*
X146944711Y-98062627D01*
X146931440Y-98073297D01*
X146796600Y-98181711D01*
X146670480Y-98332016D01*
X146667516Y-98337408D01*
X146667513Y-98337412D01*
X146618880Y-98425875D01*
X146575956Y-98503954D01*
X146574095Y-98509821D01*
X146574094Y-98509823D01*
X146549331Y-98587885D01*
X146516628Y-98690978D01*
X146494757Y-98885963D01*
X143248500Y-98885963D01*
X143248500Y-98626866D01*
X143241745Y-98564684D01*
X143190615Y-98428295D01*
X143117370Y-98330564D01*
X143092522Y-98264059D01*
X143107575Y-98194676D01*
X143117370Y-98179435D01*
X143190615Y-98081705D01*
X143241745Y-97945316D01*
X143248500Y-97883134D01*
X143248500Y-96086866D01*
X143241745Y-96024684D01*
X143190615Y-95888295D01*
X143117370Y-95790564D01*
X143092522Y-95724059D01*
X143107575Y-95654676D01*
X143117370Y-95639435D01*
X143185229Y-95548891D01*
X143190615Y-95541705D01*
X143241745Y-95405316D01*
X143248500Y-95343134D01*
X143248500Y-93546866D01*
X143241745Y-93484684D01*
X143190615Y-93348295D01*
X143117370Y-93250564D01*
X143092522Y-93184059D01*
X143107575Y-93114676D01*
X143117370Y-93099435D01*
X143122002Y-93093255D01*
X143190615Y-93001705D01*
X143241745Y-92865316D01*
X143248500Y-92803134D01*
X143248500Y-91006866D01*
X143241745Y-90944684D01*
X143190615Y-90808295D01*
X143117370Y-90710564D01*
X143092522Y-90644059D01*
X143107575Y-90574676D01*
X143117370Y-90559435D01*
X143146500Y-90520567D01*
X143190615Y-90461705D01*
X143241745Y-90325316D01*
X143248500Y-90263134D01*
X143248500Y-88466866D01*
X143241745Y-88404684D01*
X143190615Y-88268295D01*
X143117370Y-88170564D01*
X143092522Y-88104059D01*
X143107575Y-88034676D01*
X143117370Y-88019435D01*
X143190615Y-87921705D01*
X143241745Y-87785316D01*
X143248500Y-87723134D01*
X143248500Y-85926866D01*
X143241745Y-85864684D01*
X143190615Y-85728295D01*
X143117370Y-85630564D01*
X143092522Y-85564059D01*
X143107575Y-85494676D01*
X143117370Y-85479435D01*
X143131775Y-85460215D01*
X143190615Y-85381705D01*
X143241745Y-85245316D01*
X143248500Y-85183134D01*
X143248500Y-83386866D01*
X143241745Y-83324684D01*
X143190615Y-83188295D01*
X143117370Y-83090564D01*
X143092522Y-83024059D01*
X143107575Y-82954676D01*
X143117370Y-82939435D01*
X143185229Y-82848891D01*
X143190615Y-82841705D01*
X143241745Y-82705316D01*
X143248500Y-82643134D01*
X143248500Y-80846866D01*
X143241745Y-80784684D01*
X143190615Y-80648295D01*
X143117058Y-80550148D01*
X143092210Y-80483642D01*
X143107263Y-80414259D01*
X143117058Y-80399018D01*
X143184786Y-80308649D01*
X143193324Y-80293054D01*
X143238478Y-80172606D01*
X143242105Y-80157351D01*
X143247631Y-80106486D01*
X143248000Y-80099672D01*
X143248000Y-79477115D01*
X143243525Y-79461876D01*
X143242135Y-79460671D01*
X143234452Y-79459000D01*
X138750116Y-79459000D01*
X138734877Y-79463475D01*
X138733672Y-79464865D01*
X138732001Y-79472548D01*
X138732001Y-80099669D01*
X138732371Y-80106490D01*
X138737895Y-80157352D01*
X138741521Y-80172604D01*
X138786676Y-80293054D01*
X138795214Y-80308649D01*
X138862942Y-80399018D01*
X138887790Y-80465525D01*
X138872737Y-80534907D01*
X138862942Y-80550148D01*
X138789385Y-80648295D01*
X138738255Y-80784684D01*
X138731500Y-80846866D01*
X138731500Y-81665219D01*
X138730787Y-81678607D01*
X138727251Y-81711695D01*
X138727548Y-81716848D01*
X138727548Y-81716851D01*
X138731291Y-81781763D01*
X138731500Y-81789016D01*
X138731500Y-82643134D01*
X138738255Y-82705316D01*
X138789385Y-82841705D01*
X138794771Y-82848891D01*
X138862630Y-82939435D01*
X138887478Y-83005941D01*
X138872425Y-83075324D01*
X138862632Y-83090562D01*
X138789385Y-83188295D01*
X138738255Y-83324684D01*
X138731500Y-83386866D01*
X138731500Y-83525500D01*
X138711498Y-83593621D01*
X138657842Y-83640114D01*
X138605500Y-83651500D01*
X138593767Y-83651500D01*
X138582584Y-83650973D01*
X138575091Y-83649298D01*
X138567165Y-83649547D01*
X138567164Y-83649547D01*
X138507014Y-83651438D01*
X138503055Y-83651500D01*
X138475144Y-83651500D01*
X138471210Y-83651997D01*
X138471209Y-83651997D01*
X138471144Y-83652005D01*
X138459307Y-83652938D01*
X138427490Y-83653938D01*
X138423029Y-83654078D01*
X138415110Y-83654327D01*
X138397454Y-83659456D01*
X138395658Y-83659978D01*
X138376306Y-83663986D01*
X138369235Y-83664880D01*
X138356203Y-83666526D01*
X138348834Y-83669443D01*
X138348832Y-83669444D01*
X138315097Y-83682800D01*
X138303869Y-83686645D01*
X138261407Y-83698982D01*
X138254585Y-83703016D01*
X138254579Y-83703019D01*
X138243968Y-83709294D01*
X138226218Y-83717990D01*
X138207385Y-83725447D01*
X138206261Y-83722609D01*
X138150865Y-83734824D01*
X138084275Y-83710200D01*
X138041569Y-83653485D01*
X138033500Y-83609120D01*
X138033500Y-78092024D01*
X138053502Y-78023903D01*
X138065858Y-78007721D01*
X138139040Y-77926444D01*
X138197314Y-77825510D01*
X138231223Y-77766779D01*
X138231224Y-77766778D01*
X138234527Y-77761056D01*
X138293542Y-77579428D01*
X138295614Y-77559717D01*
X138311210Y-77411329D01*
X138338223Y-77345673D01*
X138396445Y-77305043D01*
X138436520Y-77298500D01*
X138605500Y-77298500D01*
X138673621Y-77318502D01*
X138720114Y-77372158D01*
X138731500Y-77424500D01*
X138731500Y-77563134D01*
X138738255Y-77625316D01*
X138789385Y-77761705D01*
X138794771Y-77768891D01*
X138862942Y-77859852D01*
X138887790Y-77926358D01*
X138872737Y-77995741D01*
X138862942Y-78010982D01*
X138795214Y-78101351D01*
X138786676Y-78116946D01*
X138741522Y-78237394D01*
X138737895Y-78252649D01*
X138732369Y-78303514D01*
X138732000Y-78310328D01*
X138732000Y-78932885D01*
X138736475Y-78948124D01*
X138737865Y-78949329D01*
X138745548Y-78951000D01*
X143229884Y-78951000D01*
X143245123Y-78946525D01*
X143246328Y-78945135D01*
X143247999Y-78937452D01*
X143247999Y-78310331D01*
X143247629Y-78303510D01*
X143242105Y-78252648D01*
X143238479Y-78237396D01*
X143193324Y-78116946D01*
X143184786Y-78101351D01*
X143117058Y-78010982D01*
X143092210Y-77944475D01*
X143107263Y-77875093D01*
X143117058Y-77859852D01*
X143185229Y-77768891D01*
X143190615Y-77761705D01*
X143241745Y-77625316D01*
X143248500Y-77563134D01*
X143248500Y-75766866D01*
X143241745Y-75704684D01*
X143190615Y-75568295D01*
X143117370Y-75470564D01*
X143092522Y-75404059D01*
X143107575Y-75334676D01*
X143117370Y-75319435D01*
X143118258Y-75318250D01*
X143190615Y-75221705D01*
X143241745Y-75085316D01*
X143246420Y-75042277D01*
X145137009Y-75042277D01*
X145162625Y-75310769D01*
X145163710Y-75315203D01*
X145163711Y-75315209D01*
X145223882Y-75561109D01*
X145226731Y-75572750D01*
X145327985Y-75822733D01*
X145464265Y-76055482D01*
X145524201Y-76130428D01*
X145584686Y-76206060D01*
X145632716Y-76266119D01*
X145829809Y-76450234D01*
X146051416Y-76603968D01*
X146055499Y-76605999D01*
X146055502Y-76606001D01*
X146060258Y-76608367D01*
X146292894Y-76724101D01*
X146297228Y-76725522D01*
X146297231Y-76725523D01*
X146544853Y-76806698D01*
X146544859Y-76806699D01*
X146549186Y-76808118D01*
X146553677Y-76808898D01*
X146553678Y-76808898D01*
X146811140Y-76853601D01*
X146811148Y-76853602D01*
X146814921Y-76854257D01*
X146818758Y-76854448D01*
X146898578Y-76858422D01*
X146898586Y-76858422D01*
X146900149Y-76858500D01*
X147068512Y-76858500D01*
X147070780Y-76858335D01*
X147070792Y-76858335D01*
X147201884Y-76848823D01*
X147269004Y-76843953D01*
X147273459Y-76842969D01*
X147273462Y-76842969D01*
X147527912Y-76786791D01*
X147527916Y-76786790D01*
X147532372Y-76785806D01*
X147684315Y-76728240D01*
X147780318Y-76691868D01*
X147780321Y-76691867D01*
X147784588Y-76690250D01*
X148020368Y-76559286D01*
X148234773Y-76395657D01*
X148423312Y-76202792D01*
X148582034Y-75984730D01*
X148665190Y-75826676D01*
X148705490Y-75750079D01*
X148705493Y-75750073D01*
X148707615Y-75746039D01*
X148770378Y-75568312D01*
X148795902Y-75496033D01*
X148795902Y-75496032D01*
X148797425Y-75491720D01*
X148827534Y-75338960D01*
X148848700Y-75231572D01*
X148848701Y-75231566D01*
X148849581Y-75227100D01*
X148854324Y-75131829D01*
X148862764Y-74962292D01*
X148862764Y-74962286D01*
X148862991Y-74957723D01*
X148837375Y-74689231D01*
X148832658Y-74669951D01*
X148774355Y-74431688D01*
X148773269Y-74427250D01*
X148672015Y-74177267D01*
X148535735Y-73944518D01*
X148416614Y-73795565D01*
X148370136Y-73737447D01*
X148370135Y-73737445D01*
X148367284Y-73733881D01*
X148170191Y-73549766D01*
X147948584Y-73396032D01*
X147944501Y-73394001D01*
X147944498Y-73393999D01*
X147779606Y-73311967D01*
X147707106Y-73275899D01*
X147702772Y-73274478D01*
X147702769Y-73274477D01*
X147455147Y-73193302D01*
X147455141Y-73193301D01*
X147450814Y-73191882D01*
X147446322Y-73191102D01*
X147188860Y-73146399D01*
X147188852Y-73146398D01*
X147185079Y-73145743D01*
X147173817Y-73145182D01*
X147101422Y-73141578D01*
X147101414Y-73141578D01*
X147099851Y-73141500D01*
X146931488Y-73141500D01*
X146929220Y-73141665D01*
X146929208Y-73141665D01*
X146798116Y-73151177D01*
X146730996Y-73156047D01*
X146726541Y-73157031D01*
X146726538Y-73157031D01*
X146472088Y-73213209D01*
X146472084Y-73213210D01*
X146467628Y-73214194D01*
X146434181Y-73226866D01*
X146219682Y-73308132D01*
X146219679Y-73308133D01*
X146215412Y-73309750D01*
X146126106Y-73359355D01*
X146025579Y-73415193D01*
X145979632Y-73440714D01*
X145939436Y-73471391D01*
X145781301Y-73592076D01*
X145765227Y-73604343D01*
X145576688Y-73797208D01*
X145417966Y-74015270D01*
X145387317Y-74073524D01*
X145294510Y-74249921D01*
X145294507Y-74249927D01*
X145292385Y-74253961D01*
X145290865Y-74258266D01*
X145290863Y-74258270D01*
X145204098Y-74503967D01*
X145202575Y-74508280D01*
X145189357Y-74575344D01*
X145152140Y-74764169D01*
X145150419Y-74772900D01*
X145150192Y-74777453D01*
X145150192Y-74777456D01*
X145137521Y-75032000D01*
X145137009Y-75042277D01*
X143246420Y-75042277D01*
X143248500Y-75023134D01*
X143248500Y-73226866D01*
X143241745Y-73164684D01*
X143190615Y-73028295D01*
X143103261Y-72911739D01*
X142986705Y-72824385D01*
X142850316Y-72773255D01*
X142788134Y-72766500D01*
X140938353Y-72766500D01*
X140870232Y-72746498D01*
X140823739Y-72692842D01*
X140813635Y-72622568D01*
X140843129Y-72557988D01*
X140902855Y-72519604D01*
X140938229Y-72514500D01*
X147000215Y-72508549D01*
X147019722Y-72510049D01*
G37*
%TD.AperFunction*%
%TA.AperFunction,Conductor*%
G36*
X139237070Y-72536172D02*
G01*
X139283615Y-72589782D01*
X139293788Y-72660046D01*
X139264358Y-72724656D01*
X139204670Y-72763098D01*
X139182661Y-72767500D01*
X139129684Y-72773255D01*
X138993295Y-72824385D01*
X138876739Y-72911739D01*
X138789385Y-73028295D01*
X138738255Y-73164684D01*
X138731500Y-73226866D01*
X138731500Y-73660906D01*
X138711498Y-73729027D01*
X138694595Y-73750001D01*
X137449500Y-74995095D01*
X137387188Y-75029121D01*
X137360405Y-75032000D01*
X137304513Y-75032000D01*
X137298061Y-75033372D01*
X137298056Y-75033372D01*
X137211113Y-75051853D01*
X137117712Y-75071706D01*
X137111682Y-75074391D01*
X137111681Y-75074391D01*
X136949278Y-75146697D01*
X136949276Y-75146698D01*
X136943248Y-75149382D01*
X136788747Y-75261634D01*
X136784326Y-75266544D01*
X136784325Y-75266545D01*
X136673105Y-75390068D01*
X136660960Y-75403556D01*
X136631072Y-75455324D01*
X136569997Y-75561109D01*
X136565473Y-75568944D01*
X136506458Y-75750572D01*
X136486496Y-75940500D01*
X136506458Y-76130428D01*
X136508498Y-76136706D01*
X136539347Y-76231650D01*
X136541374Y-76302618D01*
X136508609Y-76359681D01*
X136207747Y-76660543D01*
X136199461Y-76668083D01*
X136192982Y-76672195D01*
X136187557Y-76677972D01*
X136146357Y-76721846D01*
X136143602Y-76724688D01*
X136123865Y-76744425D01*
X136121385Y-76747622D01*
X136113682Y-76756642D01*
X136083414Y-76788874D01*
X136079595Y-76795820D01*
X136079593Y-76795823D01*
X136073652Y-76806629D01*
X136062801Y-76823148D01*
X136050386Y-76839154D01*
X136047241Y-76846423D01*
X136047238Y-76846427D01*
X136032826Y-76879732D01*
X136027609Y-76890382D01*
X136006305Y-76929135D01*
X136004334Y-76936810D01*
X136004334Y-76936811D01*
X136001267Y-76948757D01*
X135994863Y-76967461D01*
X135986819Y-76986050D01*
X135985580Y-76993873D01*
X135985577Y-76993883D01*
X135979901Y-77029719D01*
X135977495Y-77041339D01*
X135966500Y-77084165D01*
X135966500Y-77104419D01*
X135964949Y-77124129D01*
X135961780Y-77144138D01*
X135962526Y-77152030D01*
X135965941Y-77188156D01*
X135966500Y-77200014D01*
X135966500Y-88540500D01*
X135946498Y-88608621D01*
X135892842Y-88655114D01*
X135840500Y-88666500D01*
X127514594Y-88666500D01*
X127446473Y-88646498D01*
X127425499Y-88629595D01*
X125753991Y-86958086D01*
X124053652Y-85257747D01*
X124046112Y-85249461D01*
X124042000Y-85242982D01*
X123992348Y-85196356D01*
X123989507Y-85193602D01*
X123969770Y-85173865D01*
X123966573Y-85171385D01*
X123957551Y-85163680D01*
X123953397Y-85159779D01*
X123925321Y-85133414D01*
X123918375Y-85129595D01*
X123918372Y-85129593D01*
X123907566Y-85123652D01*
X123891047Y-85112801D01*
X123884857Y-85108000D01*
X123875041Y-85100386D01*
X123867772Y-85097241D01*
X123867768Y-85097238D01*
X123834463Y-85082826D01*
X123823813Y-85077609D01*
X123785060Y-85056305D01*
X123765437Y-85051267D01*
X123746740Y-85044866D01*
X123744460Y-85043879D01*
X123689886Y-84998470D01*
X123668500Y-84928242D01*
X123668500Y-84382856D01*
X123669578Y-84366409D01*
X123671092Y-84354908D01*
X123671529Y-84351590D01*
X123673156Y-84285000D01*
X123668924Y-84233524D01*
X123668500Y-84223200D01*
X123668500Y-83386866D01*
X123661745Y-83324684D01*
X123610615Y-83188295D01*
X123537370Y-83090564D01*
X123512522Y-83024059D01*
X123527575Y-82954676D01*
X123537370Y-82939435D01*
X123605229Y-82848891D01*
X123610615Y-82841705D01*
X123661745Y-82705316D01*
X123668500Y-82643134D01*
X123668500Y-81842856D01*
X123669578Y-81826409D01*
X123670075Y-81822635D01*
X123671529Y-81811590D01*
X123673156Y-81745000D01*
X123668924Y-81693524D01*
X123668500Y-81683200D01*
X123668500Y-80846866D01*
X123661745Y-80784684D01*
X123610615Y-80648295D01*
X123537058Y-80550148D01*
X123512210Y-80483642D01*
X123527263Y-80414259D01*
X123537058Y-80399018D01*
X123604786Y-80308649D01*
X123613324Y-80293054D01*
X123658478Y-80172606D01*
X123662105Y-80157351D01*
X123667631Y-80106486D01*
X123668000Y-80099672D01*
X123668000Y-79600000D01*
X127500000Y-79600000D01*
X127600000Y-86900000D01*
X129800000Y-86900000D01*
X129800000Y-79600000D01*
X127500000Y-79600000D01*
X123668000Y-79600000D01*
X123668000Y-79477115D01*
X123663525Y-79461876D01*
X123662135Y-79460671D01*
X123654452Y-79459000D01*
X119170116Y-79459000D01*
X119154877Y-79463475D01*
X119153672Y-79464865D01*
X119152001Y-79472548D01*
X119152001Y-80099669D01*
X119152371Y-80106490D01*
X119157895Y-80157352D01*
X119161521Y-80172604D01*
X119206676Y-80293054D01*
X119215214Y-80308649D01*
X119282942Y-80399018D01*
X119307790Y-80465525D01*
X119292737Y-80534907D01*
X119282942Y-80550148D01*
X119209385Y-80648295D01*
X119158255Y-80784684D01*
X119151500Y-80846866D01*
X119151500Y-80985500D01*
X119131498Y-81053621D01*
X119077842Y-81100114D01*
X119025500Y-81111500D01*
X117233767Y-81111500D01*
X117222584Y-81110973D01*
X117215091Y-81109298D01*
X117207165Y-81109547D01*
X117207164Y-81109547D01*
X117147014Y-81111438D01*
X117143055Y-81111500D01*
X117115144Y-81111500D01*
X117111210Y-81111997D01*
X117111209Y-81111997D01*
X117111144Y-81112005D01*
X117099307Y-81112938D01*
X117067490Y-81113938D01*
X117063029Y-81114078D01*
X117055110Y-81114327D01*
X117037454Y-81119456D01*
X117035658Y-81119978D01*
X117016306Y-81123986D01*
X117009235Y-81124880D01*
X116996203Y-81126526D01*
X116988834Y-81129443D01*
X116988832Y-81129444D01*
X116955097Y-81142800D01*
X116943869Y-81146645D01*
X116901407Y-81158982D01*
X116894585Y-81163016D01*
X116894579Y-81163019D01*
X116883968Y-81169294D01*
X116866218Y-81177990D01*
X116854756Y-81182528D01*
X116854751Y-81182531D01*
X116847383Y-81185448D01*
X116840968Y-81190109D01*
X116811625Y-81211427D01*
X116801707Y-81217943D01*
X116783019Y-81228995D01*
X116763637Y-81240458D01*
X116749313Y-81254782D01*
X116734281Y-81267621D01*
X116717893Y-81279528D01*
X116699952Y-81301215D01*
X116689712Y-81313593D01*
X116681722Y-81322373D01*
X112907747Y-85096348D01*
X112899461Y-85103888D01*
X112892982Y-85108000D01*
X112887557Y-85113777D01*
X112846357Y-85157651D01*
X112843602Y-85160493D01*
X112823865Y-85180230D01*
X112821385Y-85183427D01*
X112813682Y-85192447D01*
X112783414Y-85224679D01*
X112779595Y-85231625D01*
X112779593Y-85231628D01*
X112773652Y-85242434D01*
X112762801Y-85258953D01*
X112750386Y-85274959D01*
X112747241Y-85282228D01*
X112747238Y-85282232D01*
X112732826Y-85315537D01*
X112727609Y-85326187D01*
X112706305Y-85364940D01*
X112702001Y-85381705D01*
X112701267Y-85384562D01*
X112694863Y-85403266D01*
X112686819Y-85421855D01*
X112685580Y-85429678D01*
X112685577Y-85429688D01*
X112679901Y-85465524D01*
X112677495Y-85477144D01*
X112668472Y-85512289D01*
X112666500Y-85519970D01*
X112666500Y-85540224D01*
X112664949Y-85559934D01*
X112661780Y-85579943D01*
X112662526Y-85587835D01*
X112665941Y-85623961D01*
X112666500Y-85635819D01*
X112666500Y-94997476D01*
X112646498Y-95065597D01*
X112634142Y-95081779D01*
X112560960Y-95163056D01*
X112465473Y-95328444D01*
X112406458Y-95510072D01*
X112405768Y-95516633D01*
X112405768Y-95516635D01*
X112391260Y-95654676D01*
X112386496Y-95700000D01*
X112387186Y-95706565D01*
X112402630Y-95853502D01*
X112406458Y-95889928D01*
X112465473Y-96071556D01*
X112560960Y-96236944D01*
X112638015Y-96322523D01*
X112668731Y-96386528D01*
X112659967Y-96456982D01*
X112633473Y-96495926D01*
X112607742Y-96521657D01*
X112599462Y-96529192D01*
X112592982Y-96533305D01*
X112546357Y-96582956D01*
X112543602Y-96585798D01*
X112523865Y-96605535D01*
X112521385Y-96608732D01*
X112513682Y-96617752D01*
X112483414Y-96649984D01*
X112479595Y-96656930D01*
X112479593Y-96656933D01*
X112473652Y-96667739D01*
X112462801Y-96684258D01*
X112450386Y-96700264D01*
X112447241Y-96707533D01*
X112447238Y-96707537D01*
X112432826Y-96740842D01*
X112427609Y-96751492D01*
X112406305Y-96790245D01*
X112404334Y-96797920D01*
X112404334Y-96797921D01*
X112401267Y-96809867D01*
X112394863Y-96828571D01*
X112386819Y-96847160D01*
X112385580Y-96854983D01*
X112385577Y-96854993D01*
X112379901Y-96890829D01*
X112377495Y-96902449D01*
X112370841Y-96928367D01*
X112366500Y-96945275D01*
X112366500Y-96965529D01*
X112364949Y-96985239D01*
X112361780Y-97005248D01*
X112362526Y-97013140D01*
X112365941Y-97049266D01*
X112366500Y-97061124D01*
X112366500Y-100121233D01*
X112365973Y-100132416D01*
X112364298Y-100139909D01*
X112364547Y-100147835D01*
X112364547Y-100147836D01*
X112366438Y-100207986D01*
X112366500Y-100211945D01*
X112366500Y-100239856D01*
X112366997Y-100243790D01*
X112366997Y-100243791D01*
X112367005Y-100243856D01*
X112367938Y-100255693D01*
X112369327Y-100299889D01*
X112374978Y-100319339D01*
X112378987Y-100338700D01*
X112381526Y-100358797D01*
X112384445Y-100366168D01*
X112384445Y-100366170D01*
X112397804Y-100399912D01*
X112401649Y-100411142D01*
X112409941Y-100439684D01*
X112413982Y-100453593D01*
X112418015Y-100460412D01*
X112418017Y-100460417D01*
X112424293Y-100471028D01*
X112432988Y-100488776D01*
X112440448Y-100507617D01*
X112445110Y-100514033D01*
X112445110Y-100514034D01*
X112466436Y-100543387D01*
X112472952Y-100553307D01*
X112484159Y-100572256D01*
X112495458Y-100591362D01*
X112509779Y-100605683D01*
X112522619Y-100620716D01*
X112534528Y-100637107D01*
X112561505Y-100659424D01*
X112568593Y-100665288D01*
X112577374Y-100673278D01*
X113221353Y-101317258D01*
X113228887Y-101325537D01*
X113233000Y-101332018D01*
X113282651Y-101378643D01*
X113285493Y-101381398D01*
X113305230Y-101401135D01*
X113308427Y-101403615D01*
X113317447Y-101411318D01*
X113349679Y-101441586D01*
X113356625Y-101445405D01*
X113356628Y-101445407D01*
X113367434Y-101451348D01*
X113383953Y-101462199D01*
X113399959Y-101474614D01*
X113407228Y-101477759D01*
X113407232Y-101477762D01*
X113440537Y-101492174D01*
X113451187Y-101497391D01*
X113489940Y-101518695D01*
X113497615Y-101520666D01*
X113497616Y-101520666D01*
X113509562Y-101523733D01*
X113528267Y-101530137D01*
X113546855Y-101538181D01*
X113554678Y-101539420D01*
X113554688Y-101539423D01*
X113590524Y-101545099D01*
X113602144Y-101547505D01*
X113637289Y-101556528D01*
X113644970Y-101558500D01*
X113665224Y-101558500D01*
X113684934Y-101560051D01*
X113704943Y-101563220D01*
X113712835Y-101562474D01*
X113748961Y-101559059D01*
X113760819Y-101558500D01*
X115265500Y-101558500D01*
X115333621Y-101578502D01*
X115380114Y-101632158D01*
X115391500Y-101684500D01*
X115391500Y-101823134D01*
X115391869Y-101826531D01*
X115398255Y-101885316D01*
X115395826Y-101885580D01*
X115395826Y-101914420D01*
X115398255Y-101914684D01*
X115391500Y-101976866D01*
X115391500Y-102473134D01*
X115391869Y-102476531D01*
X115398255Y-102535316D01*
X115395826Y-102535580D01*
X115395826Y-102564420D01*
X115398255Y-102564684D01*
X115391500Y-102626866D01*
X115391500Y-103123134D01*
X115391869Y-103126531D01*
X115398255Y-103185316D01*
X115395826Y-103185580D01*
X115395826Y-103214420D01*
X115398255Y-103214684D01*
X115391500Y-103276866D01*
X115391500Y-103773134D01*
X115391869Y-103776531D01*
X115398255Y-103835316D01*
X115395826Y-103835580D01*
X115395826Y-103864420D01*
X115398255Y-103864684D01*
X115392739Y-103915465D01*
X115391500Y-103926866D01*
X115391500Y-104423134D01*
X115391869Y-104426531D01*
X115398255Y-104485316D01*
X115395826Y-104485580D01*
X115395826Y-104514420D01*
X115398255Y-104514684D01*
X115391500Y-104576866D01*
X115391500Y-105073134D01*
X115398255Y-105135316D01*
X115449385Y-105271705D01*
X115536739Y-105388261D01*
X115653295Y-105475615D01*
X115789684Y-105526745D01*
X115851866Y-105533500D01*
X116948134Y-105533500D01*
X117010316Y-105526745D01*
X117146705Y-105475615D01*
X117149842Y-105473264D01*
X117207550Y-105458500D01*
X117861233Y-105458500D01*
X117872416Y-105459027D01*
X117879909Y-105460702D01*
X117887835Y-105460453D01*
X117887836Y-105460453D01*
X117947986Y-105458562D01*
X117951945Y-105458500D01*
X117979856Y-105458500D01*
X117983791Y-105458003D01*
X117983856Y-105457995D01*
X117995693Y-105457062D01*
X118027951Y-105456048D01*
X118031970Y-105455922D01*
X118039889Y-105455673D01*
X118059343Y-105450021D01*
X118078700Y-105446013D01*
X118090930Y-105444468D01*
X118090931Y-105444468D01*
X118098797Y-105443474D01*
X118106168Y-105440555D01*
X118106170Y-105440555D01*
X118139912Y-105427196D01*
X118151142Y-105423351D01*
X118185983Y-105413229D01*
X118185984Y-105413229D01*
X118193593Y-105411018D01*
X118200412Y-105406985D01*
X118200417Y-105406983D01*
X118211028Y-105400707D01*
X118228776Y-105392012D01*
X118247617Y-105384552D01*
X118283387Y-105358564D01*
X118293307Y-105352048D01*
X118324535Y-105333580D01*
X118324538Y-105333578D01*
X118331362Y-105329542D01*
X118345683Y-105315221D01*
X118360717Y-105302380D01*
X118370694Y-105295131D01*
X118377107Y-105290472D01*
X118405298Y-105256395D01*
X118413288Y-105247616D01*
X118936905Y-104723999D01*
X118999217Y-104689973D01*
X119070032Y-104695038D01*
X119126868Y-104737585D01*
X119151679Y-104804105D01*
X119152000Y-104813094D01*
X119152001Y-105499669D01*
X119152371Y-105506490D01*
X119157895Y-105557352D01*
X119161521Y-105572604D01*
X119206676Y-105693054D01*
X119215214Y-105708649D01*
X119282942Y-105799018D01*
X119307790Y-105865525D01*
X119292737Y-105934907D01*
X119282942Y-105950148D01*
X119209385Y-106048295D01*
X119158255Y-106184684D01*
X119151500Y-106246866D01*
X119151500Y-108043134D01*
X119158255Y-108105316D01*
X119209385Y-108241705D01*
X119282630Y-108339435D01*
X119307478Y-108405941D01*
X119292425Y-108475324D01*
X119282632Y-108490562D01*
X119209385Y-108588295D01*
X119158255Y-108724684D01*
X119151500Y-108786866D01*
X119151500Y-110583134D01*
X119158255Y-110645316D01*
X119209385Y-110781705D01*
X119214771Y-110788891D01*
X119282630Y-110879435D01*
X119307478Y-110945941D01*
X119292425Y-111015324D01*
X119282632Y-111030562D01*
X119209385Y-111128295D01*
X119158255Y-111264684D01*
X119151500Y-111326866D01*
X119151500Y-113123134D01*
X119158255Y-113185316D01*
X119209385Y-113321705D01*
X119214771Y-113328891D01*
X119282630Y-113419435D01*
X119307478Y-113485941D01*
X119292425Y-113555324D01*
X119282632Y-113570562D01*
X119209385Y-113668295D01*
X119158255Y-113804684D01*
X119151500Y-113866866D01*
X119151500Y-115663134D01*
X119158255Y-115725316D01*
X119209385Y-115861705D01*
X119214771Y-115868891D01*
X119282942Y-115959852D01*
X119307790Y-116026358D01*
X119292737Y-116095741D01*
X119282942Y-116110982D01*
X119215214Y-116201351D01*
X119206676Y-116216946D01*
X119161522Y-116337394D01*
X119157895Y-116352649D01*
X119152369Y-116403514D01*
X119152000Y-116410328D01*
X119152000Y-117032885D01*
X119156475Y-117048124D01*
X119157865Y-117049329D01*
X119165548Y-117051000D01*
X123649884Y-117051000D01*
X123665123Y-117046525D01*
X123666328Y-117045135D01*
X123667999Y-117037452D01*
X123667999Y-116410331D01*
X123667629Y-116403510D01*
X123662105Y-116352648D01*
X123658479Y-116337396D01*
X123613324Y-116216946D01*
X123604786Y-116201351D01*
X123537058Y-116110982D01*
X123512210Y-116044475D01*
X123527263Y-115975093D01*
X123537058Y-115959852D01*
X123605229Y-115868891D01*
X123610615Y-115861705D01*
X123661745Y-115725316D01*
X123668500Y-115663134D01*
X123668500Y-114862856D01*
X123669578Y-114846409D01*
X123671092Y-114834908D01*
X123671529Y-114831590D01*
X123673156Y-114765000D01*
X123668924Y-114713524D01*
X123668500Y-114703200D01*
X123668500Y-113866866D01*
X123661745Y-113804684D01*
X123610615Y-113668295D01*
X123537370Y-113570564D01*
X123512522Y-113504059D01*
X123527575Y-113434676D01*
X123537370Y-113419435D01*
X123605229Y-113328891D01*
X123610615Y-113321705D01*
X123661745Y-113185316D01*
X123668500Y-113123134D01*
X123668500Y-112322856D01*
X123669578Y-112306409D01*
X123671092Y-112294908D01*
X123671529Y-112291590D01*
X123671905Y-112276215D01*
X123673074Y-112228365D01*
X123673074Y-112228361D01*
X123673156Y-112225000D01*
X123668924Y-112173524D01*
X123668500Y-112163200D01*
X123668500Y-111326866D01*
X123661745Y-111264684D01*
X123610615Y-111128295D01*
X123537370Y-111030564D01*
X123512522Y-110964059D01*
X123527575Y-110894676D01*
X123537370Y-110879435D01*
X123605229Y-110788891D01*
X123610615Y-110781705D01*
X123661745Y-110645316D01*
X123668500Y-110583134D01*
X123668500Y-109782856D01*
X123669578Y-109766409D01*
X123671092Y-109754908D01*
X123671529Y-109751590D01*
X123672101Y-109728184D01*
X123673074Y-109688365D01*
X123673074Y-109688361D01*
X123673156Y-109685000D01*
X123668924Y-109633524D01*
X123668500Y-109623200D01*
X123668500Y-108786866D01*
X123661745Y-108724684D01*
X123610615Y-108588295D01*
X123537370Y-108490564D01*
X123512522Y-108424059D01*
X123527575Y-108354676D01*
X123537370Y-108339435D01*
X123610615Y-108241705D01*
X123661745Y-108105316D01*
X123668500Y-108043134D01*
X123668500Y-107242856D01*
X123669578Y-107226409D01*
X123671092Y-107214908D01*
X123671529Y-107211590D01*
X123673156Y-107145000D01*
X123668924Y-107093524D01*
X123668500Y-107083200D01*
X123668500Y-106246866D01*
X123661745Y-106184684D01*
X123610615Y-106048295D01*
X123537058Y-105950148D01*
X123512210Y-105883642D01*
X123527263Y-105814259D01*
X123537058Y-105799018D01*
X123604786Y-105708649D01*
X123613324Y-105693054D01*
X123658478Y-105572606D01*
X123662105Y-105557351D01*
X123667631Y-105506486D01*
X123668000Y-105499672D01*
X123668000Y-104877115D01*
X123663525Y-104861876D01*
X123662135Y-104860671D01*
X123654452Y-104859000D01*
X121038000Y-104859000D01*
X120969879Y-104838998D01*
X120923386Y-104785342D01*
X120912000Y-104733000D01*
X120912000Y-104477000D01*
X120932002Y-104408879D01*
X120985658Y-104362386D01*
X121038000Y-104351000D01*
X123649884Y-104351000D01*
X123665123Y-104346525D01*
X123666328Y-104345135D01*
X123667999Y-104337452D01*
X123667999Y-103710331D01*
X123667629Y-103703510D01*
X123662105Y-103652648D01*
X123658479Y-103637396D01*
X123613324Y-103516946D01*
X123604786Y-103501351D01*
X123537058Y-103410982D01*
X123512210Y-103344475D01*
X123527263Y-103275093D01*
X123537058Y-103259852D01*
X123581914Y-103200000D01*
X123610615Y-103161705D01*
X123661745Y-103025316D01*
X123668500Y-102963134D01*
X123668500Y-102162856D01*
X123669578Y-102146409D01*
X123671092Y-102134908D01*
X123671529Y-102131590D01*
X123672442Y-102094229D01*
X123673074Y-102068365D01*
X123673074Y-102068361D01*
X123673156Y-102065000D01*
X123668924Y-102013524D01*
X123668500Y-102003200D01*
X123668500Y-101166866D01*
X123661745Y-101104684D01*
X123610615Y-100968295D01*
X123537370Y-100870564D01*
X123512522Y-100804059D01*
X123527575Y-100734676D01*
X123537370Y-100719435D01*
X123610615Y-100621705D01*
X123661745Y-100485316D01*
X123668500Y-100423134D01*
X123668500Y-99622856D01*
X123669578Y-99606409D01*
X123669614Y-99606134D01*
X123671529Y-99591590D01*
X123672154Y-99566020D01*
X123673074Y-99528365D01*
X123673074Y-99528361D01*
X123673156Y-99525000D01*
X123668924Y-99473524D01*
X123668500Y-99463200D01*
X123668500Y-98626866D01*
X123661745Y-98564684D01*
X123610615Y-98428295D01*
X123537370Y-98330564D01*
X123512522Y-98264059D01*
X123527575Y-98194676D01*
X123537370Y-98179435D01*
X123610615Y-98081705D01*
X123661745Y-97945316D01*
X123668500Y-97883134D01*
X123668500Y-97082856D01*
X123669578Y-97066409D01*
X123671092Y-97054908D01*
X123671529Y-97051590D01*
X123671822Y-97039595D01*
X123673074Y-96988365D01*
X123673074Y-96988361D01*
X123673156Y-96985000D01*
X123668924Y-96933524D01*
X123668500Y-96923200D01*
X123668500Y-96086866D01*
X123661745Y-96024684D01*
X123610615Y-95888295D01*
X123537370Y-95790564D01*
X123512522Y-95724059D01*
X123527575Y-95654676D01*
X123537370Y-95639435D01*
X123605229Y-95548891D01*
X123610615Y-95541705D01*
X123661745Y-95405316D01*
X123668500Y-95343134D01*
X123668500Y-94542856D01*
X123669578Y-94526409D01*
X123671092Y-94514908D01*
X123671529Y-94511590D01*
X123671671Y-94505771D01*
X123673074Y-94448365D01*
X123673074Y-94448361D01*
X123673156Y-94445000D01*
X123668924Y-94393524D01*
X123668500Y-94383200D01*
X123668500Y-93546866D01*
X123661745Y-93484684D01*
X123610615Y-93348295D01*
X123551639Y-93269603D01*
X123537058Y-93250148D01*
X123512210Y-93183642D01*
X123527263Y-93114259D01*
X123537058Y-93099018D01*
X123604786Y-93008649D01*
X123613324Y-92993054D01*
X123658478Y-92872606D01*
X123662105Y-92857351D01*
X123667631Y-92806486D01*
X123668000Y-92799672D01*
X123668000Y-92177115D01*
X123663525Y-92161876D01*
X123662135Y-92160671D01*
X123654452Y-92159000D01*
X119170116Y-92159000D01*
X119154877Y-92163475D01*
X119153672Y-92164865D01*
X119152001Y-92172548D01*
X119152001Y-92799669D01*
X119152371Y-92806490D01*
X119157895Y-92857352D01*
X119161521Y-92872604D01*
X119206676Y-92993054D01*
X119215214Y-93008649D01*
X119282942Y-93099018D01*
X119307790Y-93165525D01*
X119292737Y-93234907D01*
X119282942Y-93250148D01*
X119268361Y-93269603D01*
X119209385Y-93348295D01*
X119158255Y-93484684D01*
X119151500Y-93546866D01*
X119151500Y-95045405D01*
X119131498Y-95113526D01*
X119114595Y-95134500D01*
X118835092Y-95414003D01*
X118772780Y-95448029D01*
X118701965Y-95442964D01*
X118645129Y-95400417D01*
X118620318Y-95333897D01*
X118619997Y-95324908D01*
X118619997Y-92128097D01*
X118639999Y-92059976D01*
X118656902Y-92039002D01*
X119017809Y-91678095D01*
X119080121Y-91644069D01*
X119133687Y-91644069D01*
X119165548Y-91651000D01*
X123649884Y-91651000D01*
X123665123Y-91646525D01*
X123666328Y-91645135D01*
X123667999Y-91637452D01*
X123667999Y-91010331D01*
X123667629Y-91003510D01*
X123662105Y-90952648D01*
X123658479Y-90937396D01*
X123613324Y-90816946D01*
X123604786Y-90801351D01*
X123537058Y-90710982D01*
X123512210Y-90644475D01*
X123527263Y-90575093D01*
X123537058Y-90559852D01*
X123568046Y-90518505D01*
X123610615Y-90461705D01*
X123661745Y-90325316D01*
X123668500Y-90263134D01*
X123668500Y-89462856D01*
X123669578Y-89446409D01*
X123671092Y-89434908D01*
X123671529Y-89431590D01*
X123673156Y-89365000D01*
X123668924Y-89313524D01*
X123668500Y-89303200D01*
X123668500Y-88466866D01*
X123661745Y-88404684D01*
X123610615Y-88268295D01*
X123537370Y-88170564D01*
X123512522Y-88104059D01*
X123527575Y-88034676D01*
X123537370Y-88019435D01*
X123610615Y-87921705D01*
X123661745Y-87785316D01*
X123668500Y-87723134D01*
X123668500Y-86968594D01*
X123688502Y-86900473D01*
X123742158Y-86853980D01*
X123812432Y-86843876D01*
X123877012Y-86873370D01*
X123883595Y-86879499D01*
X126696343Y-89692247D01*
X126703887Y-89700537D01*
X126708000Y-89707018D01*
X126713777Y-89712443D01*
X126757667Y-89753658D01*
X126760509Y-89756413D01*
X126780231Y-89776135D01*
X126783355Y-89778558D01*
X126783359Y-89778562D01*
X126783424Y-89778612D01*
X126792445Y-89786317D01*
X126824679Y-89816586D01*
X126831627Y-89820405D01*
X126831629Y-89820407D01*
X126842432Y-89826346D01*
X126858959Y-89837202D01*
X126868698Y-89844757D01*
X126868700Y-89844758D01*
X126874960Y-89849614D01*
X126915540Y-89867174D01*
X126926188Y-89872391D01*
X126964940Y-89893695D01*
X126972616Y-89895666D01*
X126972619Y-89895667D01*
X126984562Y-89898733D01*
X127003267Y-89905137D01*
X127021855Y-89913181D01*
X127029678Y-89914420D01*
X127029688Y-89914423D01*
X127065524Y-89920099D01*
X127077144Y-89922505D01*
X127112289Y-89931528D01*
X127119970Y-89933500D01*
X127140224Y-89933500D01*
X127159934Y-89935051D01*
X127179943Y-89938220D01*
X127187835Y-89937474D01*
X127223961Y-89934059D01*
X127235819Y-89933500D01*
X135840500Y-89933500D01*
X135908621Y-89953502D01*
X135955114Y-90007158D01*
X135966500Y-90059500D01*
X135966500Y-98049010D01*
X135946498Y-98117131D01*
X135929595Y-98138105D01*
X130291196Y-103776503D01*
X124657747Y-109409952D01*
X124649461Y-109417492D01*
X124642982Y-109421604D01*
X124637557Y-109427381D01*
X124596357Y-109471255D01*
X124593602Y-109474097D01*
X124573865Y-109493834D01*
X124571385Y-109497031D01*
X124563682Y-109506051D01*
X124533414Y-109538283D01*
X124529595Y-109545229D01*
X124529593Y-109545232D01*
X124523652Y-109556038D01*
X124512801Y-109572557D01*
X124500386Y-109588563D01*
X124497241Y-109595832D01*
X124497238Y-109595836D01*
X124482826Y-109629141D01*
X124477609Y-109639791D01*
X124456305Y-109678544D01*
X124454334Y-109686219D01*
X124454334Y-109686220D01*
X124451267Y-109698166D01*
X124444863Y-109716870D01*
X124436819Y-109735459D01*
X124435580Y-109743282D01*
X124435577Y-109743292D01*
X124429901Y-109779128D01*
X124427495Y-109790748D01*
X124416500Y-109833574D01*
X124416500Y-109853828D01*
X124414949Y-109873538D01*
X124411780Y-109893547D01*
X124412526Y-109901439D01*
X124415941Y-109937565D01*
X124416500Y-109949423D01*
X124416500Y-124549009D01*
X124396498Y-124617130D01*
X124379595Y-124638105D01*
X123552125Y-125465574D01*
X123489813Y-125499599D01*
X123418997Y-125494534D01*
X123362204Y-125452043D01*
X123318643Y-125393920D01*
X123318642Y-125393919D01*
X123313261Y-125386739D01*
X123196705Y-125299385D01*
X123060316Y-125248255D01*
X122998134Y-125241500D01*
X122001866Y-125241500D01*
X121939684Y-125248255D01*
X121803295Y-125299385D01*
X121686739Y-125386739D01*
X121599385Y-125503295D01*
X121548255Y-125639684D01*
X121541500Y-125701866D01*
X121541500Y-126263059D01*
X121521498Y-126331180D01*
X121467842Y-126377673D01*
X121397568Y-126387777D01*
X121332988Y-126358283D01*
X121325266Y-126349995D01*
X121324992Y-126350269D01*
X121318642Y-126343919D01*
X121313261Y-126336739D01*
X121196705Y-126249385D01*
X121060316Y-126198255D01*
X120998134Y-126191500D01*
X120539595Y-126191500D01*
X120471474Y-126171498D01*
X120450500Y-126154595D01*
X117579039Y-123283134D01*
X119151500Y-123283134D01*
X119158255Y-123345316D01*
X119209385Y-123481705D01*
X119296739Y-123598261D01*
X119413295Y-123685615D01*
X119549684Y-123736745D01*
X119611866Y-123743500D01*
X122280826Y-123743500D01*
X122285443Y-123743585D01*
X122366673Y-123746564D01*
X122366677Y-123746564D01*
X122371837Y-123746753D01*
X122376957Y-123746097D01*
X122376959Y-123746097D01*
X122389261Y-123744521D01*
X122405271Y-123743500D01*
X123208134Y-123743500D01*
X123270316Y-123736745D01*
X123406705Y-123685615D01*
X123523261Y-123598261D01*
X123610615Y-123481705D01*
X123661745Y-123345316D01*
X123668500Y-123283134D01*
X123668500Y-122482856D01*
X123669578Y-122466409D01*
X123671092Y-122454908D01*
X123671529Y-122451590D01*
X123671611Y-122448240D01*
X123673074Y-122388365D01*
X123673074Y-122388361D01*
X123673156Y-122385000D01*
X123668924Y-122333524D01*
X123668500Y-122323200D01*
X123668500Y-121486866D01*
X123661745Y-121424684D01*
X123610615Y-121288295D01*
X123537370Y-121190564D01*
X123512522Y-121124059D01*
X123527575Y-121054676D01*
X123537370Y-121039435D01*
X123566500Y-121000567D01*
X123610615Y-120941705D01*
X123661745Y-120805316D01*
X123668500Y-120743134D01*
X123668500Y-119942856D01*
X123669578Y-119926409D01*
X123671092Y-119914908D01*
X123671529Y-119911590D01*
X123673156Y-119845000D01*
X123668924Y-119793524D01*
X123668500Y-119783200D01*
X123668500Y-118946866D01*
X123661745Y-118884684D01*
X123610615Y-118748295D01*
X123537058Y-118650148D01*
X123512210Y-118583642D01*
X123527263Y-118514259D01*
X123537058Y-118499018D01*
X123604786Y-118408649D01*
X123613324Y-118393054D01*
X123658478Y-118272606D01*
X123662105Y-118257351D01*
X123667631Y-118206486D01*
X123668000Y-118199672D01*
X123668000Y-117577115D01*
X123663525Y-117561876D01*
X123662135Y-117560671D01*
X123654452Y-117559000D01*
X119170116Y-117559000D01*
X119154877Y-117563475D01*
X119153672Y-117564865D01*
X119152001Y-117572548D01*
X119152001Y-118199669D01*
X119152371Y-118206490D01*
X119157895Y-118257352D01*
X119161521Y-118272604D01*
X119206676Y-118393054D01*
X119215214Y-118408649D01*
X119282942Y-118499018D01*
X119307790Y-118565525D01*
X119292737Y-118634907D01*
X119282942Y-118650148D01*
X119209385Y-118748295D01*
X119158255Y-118884684D01*
X119151500Y-118946866D01*
X119151500Y-120743134D01*
X119158255Y-120805316D01*
X119209385Y-120941705D01*
X119253500Y-121000567D01*
X119282630Y-121039435D01*
X119307478Y-121105941D01*
X119292425Y-121175324D01*
X119282632Y-121190562D01*
X119209385Y-121288295D01*
X119158255Y-121424684D01*
X119151500Y-121486866D01*
X119151500Y-123283134D01*
X117579039Y-123283134D01*
X117503652Y-123207747D01*
X117496112Y-123199461D01*
X117492000Y-123192982D01*
X117442348Y-123146356D01*
X117439507Y-123143602D01*
X117419770Y-123123865D01*
X117416573Y-123121385D01*
X117407551Y-123113680D01*
X117381100Y-123088841D01*
X117375321Y-123083414D01*
X117368375Y-123079595D01*
X117368372Y-123079593D01*
X117357566Y-123073652D01*
X117341047Y-123062801D01*
X117334767Y-123057930D01*
X117325041Y-123050386D01*
X117317772Y-123047241D01*
X117317768Y-123047238D01*
X117284463Y-123032826D01*
X117273813Y-123027609D01*
X117235060Y-123006305D01*
X117215437Y-123001267D01*
X117196734Y-122994863D01*
X117185420Y-122989967D01*
X117185419Y-122989967D01*
X117178145Y-122986819D01*
X117170322Y-122985580D01*
X117170312Y-122985577D01*
X117134476Y-122979901D01*
X117122856Y-122977495D01*
X117087711Y-122968472D01*
X117087710Y-122968472D01*
X117080030Y-122966500D01*
X117059776Y-122966500D01*
X117040065Y-122964949D01*
X117027886Y-122963020D01*
X117020057Y-122961780D01*
X117012165Y-122962526D01*
X116976039Y-122965941D01*
X116964181Y-122966500D01*
X116384500Y-122966500D01*
X116316379Y-122946498D01*
X116269886Y-122892842D01*
X116258500Y-122840500D01*
X116258500Y-122701866D01*
X116251745Y-122639684D01*
X116200615Y-122503295D01*
X116113261Y-122386739D01*
X115996705Y-122299385D01*
X115860316Y-122248255D01*
X115798134Y-122241500D01*
X114001866Y-122241500D01*
X113939684Y-122248255D01*
X113803295Y-122299385D01*
X113686739Y-122386739D01*
X113599385Y-122503295D01*
X113596233Y-122511703D01*
X113596232Y-122511705D01*
X113554722Y-122622433D01*
X113512081Y-122679198D01*
X113445519Y-122703898D01*
X113376170Y-122688691D01*
X113343546Y-122663004D01*
X113292799Y-122607234D01*
X113285273Y-122600215D01*
X113118139Y-122468222D01*
X113109552Y-122462517D01*
X112923117Y-122359599D01*
X112913705Y-122355369D01*
X112712959Y-122284280D01*
X112702988Y-122281646D01*
X112631837Y-122268972D01*
X112618540Y-122270432D01*
X112614000Y-122284989D01*
X112614000Y-124918517D01*
X112618064Y-124932359D01*
X112631478Y-124934393D01*
X112638184Y-124933534D01*
X112648262Y-124931392D01*
X112852255Y-124870191D01*
X112861842Y-124866433D01*
X113053095Y-124772739D01*
X113061945Y-124767464D01*
X113235328Y-124643792D01*
X113243193Y-124637145D01*
X113347897Y-124532805D01*
X113410268Y-124498889D01*
X113481075Y-124504077D01*
X113537837Y-124546723D01*
X113554819Y-124577826D01*
X113576957Y-124636879D01*
X113599385Y-124696705D01*
X113686739Y-124813261D01*
X113803295Y-124900615D01*
X113939684Y-124951745D01*
X114001866Y-124958500D01*
X115798134Y-124958500D01*
X115860316Y-124951745D01*
X115996705Y-124900615D01*
X116113261Y-124813261D01*
X116200615Y-124696705D01*
X116251745Y-124560316D01*
X116258500Y-124498134D01*
X116258500Y-124359500D01*
X116278502Y-124291379D01*
X116332158Y-124244886D01*
X116384500Y-124233500D01*
X116685406Y-124233500D01*
X116753527Y-124253502D01*
X116774501Y-124270405D01*
X119504595Y-127000499D01*
X119538621Y-127062811D01*
X119541500Y-127089594D01*
X119541500Y-127548134D01*
X119548255Y-127610316D01*
X119599385Y-127746705D01*
X119686739Y-127863261D01*
X119803295Y-127950615D01*
X119939684Y-128001745D01*
X120001866Y-128008500D01*
X120998134Y-128008500D01*
X121060316Y-128001745D01*
X121196705Y-127950615D01*
X121313261Y-127863261D01*
X121318642Y-127856081D01*
X121324992Y-127849731D01*
X121327239Y-127851978D01*
X121371544Y-127818857D01*
X121442363Y-127813838D01*
X121504653Y-127847903D01*
X121538638Y-127910238D01*
X121541500Y-127936941D01*
X121541500Y-128498134D01*
X121548255Y-128560316D01*
X121599385Y-128696705D01*
X121686739Y-128813261D01*
X121803295Y-128900615D01*
X121939684Y-128951745D01*
X122001866Y-128958500D01*
X122998134Y-128958500D01*
X123060316Y-128951745D01*
X123196705Y-128900615D01*
X123313261Y-128813261D01*
X123400615Y-128696705D01*
X123451745Y-128560316D01*
X123458500Y-128498134D01*
X123458500Y-128039594D01*
X123478502Y-127971473D01*
X123495405Y-127950499D01*
X125351405Y-126094499D01*
X125413717Y-126060473D01*
X125484532Y-126065538D01*
X125541368Y-126108085D01*
X125566179Y-126174605D01*
X125566500Y-126183594D01*
X125566500Y-127957629D01*
X125565973Y-127968812D01*
X125564298Y-127976305D01*
X125564547Y-127984231D01*
X125564547Y-127984232D01*
X125566438Y-128044382D01*
X125566500Y-128048341D01*
X125566500Y-128076252D01*
X125566997Y-128080186D01*
X125566997Y-128080187D01*
X125567005Y-128080252D01*
X125567938Y-128092089D01*
X125569327Y-128136285D01*
X125574978Y-128155735D01*
X125578987Y-128175096D01*
X125581526Y-128195193D01*
X125584445Y-128202564D01*
X125584445Y-128202566D01*
X125597804Y-128236308D01*
X125601649Y-128247538D01*
X125613982Y-128289989D01*
X125618015Y-128296808D01*
X125618017Y-128296813D01*
X125624293Y-128307424D01*
X125632988Y-128325172D01*
X125640448Y-128344013D01*
X125645110Y-128350429D01*
X125645110Y-128350430D01*
X125666436Y-128379783D01*
X125672952Y-128389703D01*
X125695458Y-128427758D01*
X125709779Y-128442079D01*
X125722619Y-128457112D01*
X125734528Y-128473503D01*
X125760171Y-128494717D01*
X125768605Y-128501694D01*
X125777384Y-128509684D01*
X127744595Y-130476895D01*
X127778621Y-130539207D01*
X127781500Y-130565990D01*
X127781500Y-132898134D01*
X127788255Y-132960316D01*
X127839385Y-133096705D01*
X127926739Y-133213261D01*
X127945532Y-133227345D01*
X127988046Y-133284202D01*
X127993073Y-133355020D01*
X127959015Y-133417314D01*
X127896684Y-133451306D01*
X127869723Y-133454171D01*
X114382894Y-133428059D01*
X95549725Y-133391595D01*
X95530598Y-133390096D01*
X95506276Y-133386309D01*
X95489077Y-133388558D01*
X95465137Y-133389391D01*
X95219344Y-133374523D01*
X95204240Y-133372689D01*
X94935175Y-133323381D01*
X94920402Y-133319740D01*
X94805265Y-133283862D01*
X94659231Y-133238356D01*
X94645013Y-133232964D01*
X94395566Y-133120696D01*
X94382096Y-133113627D01*
X94147995Y-132972108D01*
X94135473Y-132963465D01*
X93920136Y-132794759D01*
X93908748Y-132784669D01*
X93715331Y-132591252D01*
X93705241Y-132579864D01*
X93536535Y-132364527D01*
X93527892Y-132352005D01*
X93386373Y-132117904D01*
X93379302Y-132104431D01*
X93267036Y-131854987D01*
X93261642Y-131840764D01*
X93256024Y-131822733D01*
X93180260Y-131579598D01*
X93176619Y-131564825D01*
X93127311Y-131295760D01*
X93125477Y-131280656D01*
X93111269Y-131045767D01*
X93111454Y-131042277D01*
X93737009Y-131042277D01*
X93762625Y-131310769D01*
X93763710Y-131315203D01*
X93763711Y-131315209D01*
X93813063Y-131516894D01*
X93826731Y-131572750D01*
X93927985Y-131822733D01*
X94064265Y-132055482D01*
X94143635Y-132154729D01*
X94218507Y-132248351D01*
X94232716Y-132266119D01*
X94429809Y-132450234D01*
X94651416Y-132603968D01*
X94655499Y-132605999D01*
X94655502Y-132606001D01*
X94690440Y-132623382D01*
X94892894Y-132724101D01*
X94897228Y-132725522D01*
X94897231Y-132725523D01*
X95144853Y-132806698D01*
X95144859Y-132806699D01*
X95149186Y-132808118D01*
X95153677Y-132808898D01*
X95153678Y-132808898D01*
X95411140Y-132853601D01*
X95411148Y-132853602D01*
X95414921Y-132854257D01*
X95418758Y-132854448D01*
X95498578Y-132858422D01*
X95498586Y-132858422D01*
X95500149Y-132858500D01*
X95668512Y-132858500D01*
X95670780Y-132858335D01*
X95670792Y-132858335D01*
X95801884Y-132848823D01*
X95869004Y-132843953D01*
X95873459Y-132842969D01*
X95873462Y-132842969D01*
X96127912Y-132786791D01*
X96127916Y-132786790D01*
X96132372Y-132785806D01*
X96291455Y-132725535D01*
X96380318Y-132691868D01*
X96380321Y-132691867D01*
X96384588Y-132690250D01*
X96620368Y-132559286D01*
X96777832Y-132439113D01*
X96831141Y-132398429D01*
X96831142Y-132398428D01*
X96834773Y-132395657D01*
X97023312Y-132202792D01*
X97182034Y-131984730D01*
X97233998Y-131885963D01*
X99294757Y-131885963D01*
X99311175Y-132081483D01*
X99365258Y-132270091D01*
X99370824Y-132280922D01*
X99452123Y-132439113D01*
X99452126Y-132439117D01*
X99454944Y-132444601D01*
X99576818Y-132598369D01*
X99581511Y-132602363D01*
X99581512Y-132602364D01*
X99585786Y-132606001D01*
X99726238Y-132725535D01*
X99731616Y-132728541D01*
X99731618Y-132728542D01*
X99767932Y-132748837D01*
X99897513Y-132821257D01*
X100084118Y-132881889D01*
X100278946Y-132905121D01*
X100285081Y-132904649D01*
X100285083Y-132904649D01*
X100468434Y-132890541D01*
X100468438Y-132890540D01*
X100474576Y-132890068D01*
X100663556Y-132837303D01*
X100838689Y-132748837D01*
X100868515Y-132725535D01*
X100988453Y-132631829D01*
X100993303Y-132628040D01*
X101012327Y-132606001D01*
X101117485Y-132484173D01*
X101117485Y-132484172D01*
X101121509Y-132479511D01*
X101133432Y-132458524D01*
X101215378Y-132314272D01*
X101218425Y-132308909D01*
X101280358Y-132122732D01*
X101304949Y-131928071D01*
X101305341Y-131900000D01*
X101286194Y-131704728D01*
X101284413Y-131698829D01*
X101284412Y-131698824D01*
X101231265Y-131522793D01*
X101229484Y-131516894D01*
X101137370Y-131343653D01*
X101013361Y-131191602D01*
X100862180Y-131066535D01*
X100689585Y-130973213D01*
X100591472Y-130942842D01*
X100508039Y-130917015D01*
X100508036Y-130917014D01*
X100502152Y-130915193D01*
X100496027Y-130914549D01*
X100496026Y-130914549D01*
X100313147Y-130895327D01*
X100313146Y-130895327D01*
X100307019Y-130894683D01*
X100184383Y-130905844D01*
X100117759Y-130911907D01*
X100117758Y-130911907D01*
X100111618Y-130912466D01*
X100105704Y-130914207D01*
X100105702Y-130914207D01*
X100008410Y-130942842D01*
X99923393Y-130967864D01*
X99917928Y-130970721D01*
X99754972Y-131055912D01*
X99754968Y-131055915D01*
X99749512Y-131058767D01*
X99744712Y-131062627D01*
X99744711Y-131062627D01*
X99734818Y-131070581D01*
X99596600Y-131181711D01*
X99470480Y-131332016D01*
X99467516Y-131337408D01*
X99467513Y-131337412D01*
X99388813Y-131480567D01*
X99375956Y-131503954D01*
X99316628Y-131690978D01*
X99294757Y-131885963D01*
X97233998Y-131885963D01*
X97265190Y-131826676D01*
X97305490Y-131750079D01*
X97305493Y-131750073D01*
X97307615Y-131746039D01*
X97320038Y-131710862D01*
X97395902Y-131496033D01*
X97395902Y-131496032D01*
X97397425Y-131491720D01*
X97449581Y-131227100D01*
X97449808Y-131222544D01*
X97462764Y-130962292D01*
X97462764Y-130962286D01*
X97462991Y-130957723D01*
X97437375Y-130689231D01*
X97407219Y-130565990D01*
X97374355Y-130431688D01*
X97373269Y-130427250D01*
X97272015Y-130177267D01*
X97156528Y-129980030D01*
X97138045Y-129948463D01*
X97138044Y-129948462D01*
X97135735Y-129944518D01*
X97017928Y-129797208D01*
X96970136Y-129737447D01*
X96970135Y-129737445D01*
X96967284Y-129733881D01*
X96770191Y-129549766D01*
X96548584Y-129396032D01*
X96544501Y-129394001D01*
X96544498Y-129393999D01*
X96379606Y-129311967D01*
X96307106Y-129275899D01*
X96302772Y-129274478D01*
X96302769Y-129274477D01*
X96055147Y-129193302D01*
X96055141Y-129193301D01*
X96050814Y-129191882D01*
X96046322Y-129191102D01*
X95788860Y-129146399D01*
X95788852Y-129146398D01*
X95785079Y-129145743D01*
X95773817Y-129145182D01*
X95701422Y-129141578D01*
X95701414Y-129141578D01*
X95699851Y-129141500D01*
X95531488Y-129141500D01*
X95529220Y-129141665D01*
X95529208Y-129141665D01*
X95398116Y-129151177D01*
X95330996Y-129156047D01*
X95326541Y-129157031D01*
X95326538Y-129157031D01*
X95072088Y-129213209D01*
X95072084Y-129213210D01*
X95067628Y-129214194D01*
X94941520Y-129261972D01*
X94819682Y-129308132D01*
X94819679Y-129308133D01*
X94815412Y-129309750D01*
X94579632Y-129440714D01*
X94576000Y-129443486D01*
X94369309Y-129601228D01*
X94365227Y-129604343D01*
X94176688Y-129797208D01*
X94017966Y-130015270D01*
X93976587Y-130093919D01*
X93894510Y-130249921D01*
X93894507Y-130249927D01*
X93892385Y-130253961D01*
X93890865Y-130258266D01*
X93890863Y-130258270D01*
X93813658Y-130476895D01*
X93802575Y-130508280D01*
X93750419Y-130772900D01*
X93750192Y-130777453D01*
X93750192Y-130777456D01*
X93738008Y-131022216D01*
X93737009Y-131042277D01*
X93111454Y-131042277D01*
X93112520Y-131022216D01*
X93112334Y-131022199D01*
X93112769Y-131017350D01*
X93113576Y-131012552D01*
X93113729Y-131000000D01*
X93109773Y-130972376D01*
X93108500Y-130954514D01*
X93108500Y-127098134D01*
X101941500Y-127098134D01*
X101948255Y-127160316D01*
X101999385Y-127296705D01*
X102086739Y-127413261D01*
X102203295Y-127500615D01*
X102339684Y-127551745D01*
X102401866Y-127558500D01*
X104198134Y-127558500D01*
X104260316Y-127551745D01*
X104396705Y-127500615D01*
X104513261Y-127413261D01*
X104600615Y-127296705D01*
X104651745Y-127160316D01*
X104658500Y-127098134D01*
X104658500Y-126959500D01*
X104678502Y-126891379D01*
X104732158Y-126844886D01*
X104784500Y-126833500D01*
X104992775Y-126833500D01*
X105060896Y-126853502D01*
X105100551Y-126894229D01*
X105113361Y-126915381D01*
X105234619Y-127036639D01*
X105381301Y-127125472D01*
X105388548Y-127127743D01*
X105388550Y-127127744D01*
X105432446Y-127141500D01*
X105544938Y-127176753D01*
X105618365Y-127183500D01*
X105621263Y-127183500D01*
X105875665Y-127183499D01*
X106131634Y-127183499D01*
X106134492Y-127183236D01*
X106134501Y-127183236D01*
X106170004Y-127179974D01*
X106205062Y-127176753D01*
X106233902Y-127167715D01*
X106361450Y-127127744D01*
X106361452Y-127127743D01*
X106368699Y-127125472D01*
X106515381Y-127036639D01*
X106610905Y-126941115D01*
X106673217Y-126907089D01*
X106744032Y-126912154D01*
X106789095Y-126941115D01*
X106884619Y-127036639D01*
X107031301Y-127125472D01*
X107038548Y-127127743D01*
X107038550Y-127127744D01*
X107082446Y-127141500D01*
X107194938Y-127176753D01*
X107268365Y-127183500D01*
X107271263Y-127183500D01*
X107525665Y-127183499D01*
X107781634Y-127183499D01*
X107784492Y-127183236D01*
X107784501Y-127183236D01*
X107820004Y-127179974D01*
X107855062Y-127176753D01*
X107883902Y-127167715D01*
X108011450Y-127127744D01*
X108011452Y-127127743D01*
X108018699Y-127125472D01*
X108165381Y-127036639D01*
X108286639Y-126915381D01*
X108375472Y-126768699D01*
X108426753Y-126605062D01*
X108433500Y-126531635D01*
X108433499Y-126239594D01*
X108453501Y-126171475D01*
X108470404Y-126150500D01*
X110815894Y-123805011D01*
X110878206Y-123770985D01*
X110949022Y-123776050D01*
X111005857Y-123818597D01*
X111027906Y-123866405D01*
X111058565Y-124002446D01*
X111061645Y-124012275D01*
X111141770Y-124209603D01*
X111146413Y-124218794D01*
X111257694Y-124400388D01*
X111263777Y-124408699D01*
X111403213Y-124569667D01*
X111410580Y-124576883D01*
X111574434Y-124712916D01*
X111582881Y-124718831D01*
X111766756Y-124826279D01*
X111776042Y-124830729D01*
X111975001Y-124906703D01*
X111984899Y-124909579D01*
X112088250Y-124930606D01*
X112102299Y-124929410D01*
X112106000Y-124919065D01*
X112106000Y-122283102D01*
X112101353Y-122267276D01*
X112063604Y-122208538D01*
X112058500Y-122173039D01*
X112058500Y-104378768D01*
X112059027Y-104367585D01*
X112060702Y-104360092D01*
X112060202Y-104344166D01*
X112058562Y-104292002D01*
X112058500Y-104288044D01*
X112058500Y-104260144D01*
X112057996Y-104256153D01*
X112057063Y-104244311D01*
X112056706Y-104232926D01*
X112055674Y-104200111D01*
X112053462Y-104192497D01*
X112053461Y-104192492D01*
X112050023Y-104180659D01*
X112046012Y-104161295D01*
X112044467Y-104149064D01*
X112043474Y-104141203D01*
X112040557Y-104133836D01*
X112040556Y-104133831D01*
X112027198Y-104100092D01*
X112023354Y-104088865D01*
X112017071Y-104067240D01*
X112011018Y-104046407D01*
X112000707Y-104028972D01*
X111992012Y-104011224D01*
X111984552Y-103992383D01*
X111958564Y-103956613D01*
X111952048Y-103946693D01*
X111933580Y-103915465D01*
X111933578Y-103915462D01*
X111929542Y-103908638D01*
X111915218Y-103894314D01*
X111902383Y-103879287D01*
X111890472Y-103862893D01*
X111856402Y-103834708D01*
X111847622Y-103826718D01*
X111803653Y-103782749D01*
X111796110Y-103774460D01*
X111792000Y-103767982D01*
X111742361Y-103721369D01*
X111739518Y-103718614D01*
X111722571Y-103701666D01*
X111719770Y-103698865D01*
X111716573Y-103696385D01*
X111707551Y-103688680D01*
X111681100Y-103663841D01*
X111675321Y-103658414D01*
X111668375Y-103654595D01*
X111661961Y-103649935D01*
X111663750Y-103647473D01*
X111623735Y-103607222D01*
X111608500Y-103547162D01*
X111608500Y-103276866D01*
X111601745Y-103214684D01*
X111604174Y-103214420D01*
X111604174Y-103185580D01*
X111601745Y-103185316D01*
X111608131Y-103126531D01*
X111608500Y-103123134D01*
X111608500Y-102626866D01*
X111601745Y-102564684D01*
X111604174Y-102564420D01*
X111604174Y-102535580D01*
X111601745Y-102535316D01*
X111608131Y-102476531D01*
X111608500Y-102473134D01*
X111608500Y-101976866D01*
X111601745Y-101914684D01*
X111604174Y-101914420D01*
X111604174Y-101885580D01*
X111601745Y-101885316D01*
X111608131Y-101826531D01*
X111608500Y-101823134D01*
X111608500Y-101326866D01*
X111601745Y-101264684D01*
X111604174Y-101264420D01*
X111604174Y-101235580D01*
X111601745Y-101235316D01*
X111608131Y-101176531D01*
X111608500Y-101173134D01*
X111608500Y-100676866D01*
X111601745Y-100614684D01*
X111604174Y-100614420D01*
X111604174Y-100585580D01*
X111601745Y-100585316D01*
X111608131Y-100526531D01*
X111608500Y-100523134D01*
X111608500Y-100026866D01*
X111601745Y-99964684D01*
X111604174Y-99964420D01*
X111604174Y-99935580D01*
X111601745Y-99935316D01*
X111608131Y-99876531D01*
X111608500Y-99873134D01*
X111608500Y-99376866D01*
X111601745Y-99314684D01*
X111603884Y-99314452D01*
X111603834Y-99285488D01*
X111601252Y-99285207D01*
X111607631Y-99226486D01*
X111608000Y-99219672D01*
X111608000Y-99193115D01*
X111603525Y-99177876D01*
X111602135Y-99176671D01*
X111585009Y-99172946D01*
X111522697Y-99138922D01*
X111510965Y-99125390D01*
X111468643Y-99068920D01*
X111468642Y-99068919D01*
X111463261Y-99061739D01*
X111383319Y-99001825D01*
X111340804Y-98944967D01*
X111335778Y-98874149D01*
X111369838Y-98811855D01*
X111432169Y-98777865D01*
X111458884Y-98775000D01*
X111589884Y-98775000D01*
X111605123Y-98770525D01*
X111606328Y-98769135D01*
X111607999Y-98761452D01*
X111607999Y-98730331D01*
X111607629Y-98723510D01*
X111602105Y-98672648D01*
X111598479Y-98657396D01*
X111553324Y-98536946D01*
X111544786Y-98521351D01*
X111468285Y-98419276D01*
X111455724Y-98406715D01*
X111353649Y-98330214D01*
X111338054Y-98321676D01*
X111217606Y-98276522D01*
X111202351Y-98272895D01*
X111151486Y-98267369D01*
X111144672Y-98267000D01*
X110818115Y-98267000D01*
X110802876Y-98271475D01*
X110801671Y-98272865D01*
X110800000Y-98280548D01*
X110800000Y-98775000D01*
X110799448Y-98775000D01*
X110799447Y-98826000D01*
X110761062Y-98885725D01*
X110696481Y-98915218D01*
X110678551Y-98916500D01*
X110526000Y-98916500D01*
X110457879Y-98896498D01*
X110411386Y-98842842D01*
X110400000Y-98790500D01*
X110400000Y-98285116D01*
X110395525Y-98269877D01*
X110394135Y-98268672D01*
X110386452Y-98267001D01*
X110055331Y-98267001D01*
X110048510Y-98267371D01*
X109997648Y-98272895D01*
X109988647Y-98275035D01*
X109917747Y-98271334D01*
X109860103Y-98229889D01*
X109834017Y-98163858D01*
X109833500Y-98152453D01*
X109833500Y-84553768D01*
X109834027Y-84542585D01*
X109835702Y-84535092D01*
X109833562Y-84467001D01*
X109833500Y-84463044D01*
X109833500Y-84435144D01*
X109832996Y-84431153D01*
X109832063Y-84419311D01*
X109830923Y-84383036D01*
X109830674Y-84375111D01*
X109828462Y-84367497D01*
X109828461Y-84367492D01*
X109825023Y-84355659D01*
X109821012Y-84336295D01*
X109819467Y-84324064D01*
X109818474Y-84316203D01*
X109815557Y-84308836D01*
X109815556Y-84308831D01*
X109802198Y-84275092D01*
X109798354Y-84263865D01*
X109796232Y-84256561D01*
X109786018Y-84221407D01*
X109775707Y-84203972D01*
X109767012Y-84186224D01*
X109759552Y-84167383D01*
X109733564Y-84131613D01*
X109727048Y-84121693D01*
X109708580Y-84090465D01*
X109708578Y-84090462D01*
X109704542Y-84083638D01*
X109690221Y-84069317D01*
X109677380Y-84054283D01*
X109670131Y-84044306D01*
X109665472Y-84037893D01*
X109631395Y-84009702D01*
X109622616Y-84001712D01*
X108470405Y-82849500D01*
X108436379Y-82787188D01*
X108433500Y-82760405D01*
X108433499Y-82471249D01*
X108433499Y-82468366D01*
X108426753Y-82394938D01*
X108375472Y-82231301D01*
X108286639Y-82084619D01*
X108165381Y-81963361D01*
X108018699Y-81874528D01*
X108011452Y-81872257D01*
X108011450Y-81872256D01*
X107917634Y-81842856D01*
X107855062Y-81823247D01*
X107781635Y-81816500D01*
X107778737Y-81816500D01*
X107524335Y-81816501D01*
X107268366Y-81816501D01*
X107265508Y-81816764D01*
X107265499Y-81816764D01*
X107229996Y-81820026D01*
X107194938Y-81823247D01*
X107188560Y-81825246D01*
X107188559Y-81825246D01*
X107038550Y-81872256D01*
X107038548Y-81872257D01*
X107031301Y-81874528D01*
X106884619Y-81963361D01*
X106789095Y-82058885D01*
X106726783Y-82092911D01*
X106655968Y-82087846D01*
X106610905Y-82058885D01*
X106515381Y-81963361D01*
X106368699Y-81874528D01*
X106361452Y-81872257D01*
X106361450Y-81872256D01*
X106267634Y-81842856D01*
X106205062Y-81823247D01*
X106131635Y-81816500D01*
X106128737Y-81816500D01*
X105874335Y-81816501D01*
X105618366Y-81816501D01*
X105615508Y-81816764D01*
X105615499Y-81816764D01*
X105579996Y-81820026D01*
X105544938Y-81823247D01*
X105538560Y-81825246D01*
X105538559Y-81825246D01*
X105388550Y-81872256D01*
X105388548Y-81872257D01*
X105381301Y-81874528D01*
X105234619Y-81963361D01*
X105113361Y-82084619D01*
X105085410Y-82130772D01*
X105033015Y-82178677D01*
X104977635Y-82191500D01*
X104809500Y-82191500D01*
X104741379Y-82171498D01*
X104694886Y-82117842D01*
X104683500Y-82065500D01*
X104683500Y-81926866D01*
X104676745Y-81864684D01*
X104625615Y-81728295D01*
X104538261Y-81611739D01*
X104421705Y-81524385D01*
X104302687Y-81479767D01*
X104245923Y-81437125D01*
X104221223Y-81370564D01*
X104236430Y-81301215D01*
X104257977Y-81272535D01*
X104359052Y-81171812D01*
X104365730Y-81163965D01*
X104490003Y-80991020D01*
X104495313Y-80982183D01*
X104589670Y-80791267D01*
X104593469Y-80781672D01*
X104655377Y-80577910D01*
X104657555Y-80567837D01*
X104658986Y-80556962D01*
X104656775Y-80542778D01*
X104643617Y-80539000D01*
X102008225Y-80539000D01*
X101994694Y-80542973D01*
X101993257Y-80552966D01*
X102023565Y-80687446D01*
X102026645Y-80697275D01*
X102106770Y-80894603D01*
X102111413Y-80903794D01*
X102222694Y-81085388D01*
X102228777Y-81093699D01*
X102368213Y-81254667D01*
X102375577Y-81261879D01*
X102380522Y-81265985D01*
X102420156Y-81324889D01*
X102421653Y-81395870D01*
X102384537Y-81456392D01*
X102344264Y-81480910D01*
X102236705Y-81521232D01*
X102236704Y-81521233D01*
X102228295Y-81524385D01*
X102111739Y-81611739D01*
X102024385Y-81728295D01*
X101973255Y-81864684D01*
X101966500Y-81926866D01*
X101966500Y-83723134D01*
X101973255Y-83785316D01*
X102024385Y-83921705D01*
X102111739Y-84038261D01*
X102228295Y-84125615D01*
X102364684Y-84176745D01*
X102426866Y-84183500D01*
X104223134Y-84183500D01*
X104285316Y-84176745D01*
X104421705Y-84125615D01*
X104538261Y-84038261D01*
X104625615Y-83921705D01*
X104676745Y-83785316D01*
X104683500Y-83723134D01*
X104683500Y-83584500D01*
X104703502Y-83516379D01*
X104757158Y-83469886D01*
X104809500Y-83458500D01*
X105008602Y-83458500D01*
X105076723Y-83478502D01*
X105107754Y-83506751D01*
X105109425Y-83508882D01*
X105113361Y-83515381D01*
X105234619Y-83636639D01*
X105381301Y-83725472D01*
X105388548Y-83727743D01*
X105388550Y-83727744D01*
X105411143Y-83734824D01*
X105544938Y-83776753D01*
X105618365Y-83783500D01*
X105621263Y-83783500D01*
X105875665Y-83783499D01*
X106131634Y-83783499D01*
X106134492Y-83783236D01*
X106134501Y-83783236D01*
X106170004Y-83779974D01*
X106205062Y-83776753D01*
X106274715Y-83754925D01*
X106361450Y-83727744D01*
X106361452Y-83727743D01*
X106368699Y-83725472D01*
X106515381Y-83636639D01*
X106610905Y-83541115D01*
X106673217Y-83507089D01*
X106744032Y-83512154D01*
X106789095Y-83541115D01*
X106884619Y-83636639D01*
X107031301Y-83725472D01*
X107038548Y-83727743D01*
X107038550Y-83727744D01*
X107061143Y-83734824D01*
X107194938Y-83776753D01*
X107268365Y-83783500D01*
X107286474Y-83783500D01*
X107560406Y-83783499D01*
X107628525Y-83803501D01*
X107649500Y-83820404D01*
X108529595Y-84700499D01*
X108563621Y-84762811D01*
X108566500Y-84789594D01*
X108566500Y-88295444D01*
X108546498Y-88363565D01*
X108492842Y-88410058D01*
X108422568Y-88420162D01*
X108357988Y-88390668D01*
X108332724Y-88360715D01*
X108290576Y-88291120D01*
X108286639Y-88284619D01*
X108165381Y-88163361D01*
X108018699Y-88074528D01*
X108011452Y-88072257D01*
X108011450Y-88072256D01*
X107945164Y-88051483D01*
X107855062Y-88023247D01*
X107781635Y-88016500D01*
X107778737Y-88016500D01*
X107524335Y-88016501D01*
X107268366Y-88016501D01*
X107265508Y-88016764D01*
X107265499Y-88016764D01*
X107236430Y-88019435D01*
X107194938Y-88023247D01*
X107188560Y-88025246D01*
X107188559Y-88025246D01*
X107038550Y-88072256D01*
X107038548Y-88072257D01*
X107031301Y-88074528D01*
X106884619Y-88163361D01*
X106789095Y-88258885D01*
X106726783Y-88292911D01*
X106655968Y-88287846D01*
X106610905Y-88258885D01*
X106515381Y-88163361D01*
X106368699Y-88074528D01*
X106361452Y-88072257D01*
X106361450Y-88072256D01*
X106295164Y-88051483D01*
X106205062Y-88023247D01*
X106131635Y-88016500D01*
X106128737Y-88016500D01*
X105874335Y-88016501D01*
X105618366Y-88016501D01*
X105615508Y-88016764D01*
X105615499Y-88016764D01*
X105586430Y-88019435D01*
X105544938Y-88023247D01*
X105538560Y-88025246D01*
X105538559Y-88025246D01*
X105388550Y-88072256D01*
X105388548Y-88072257D01*
X105381301Y-88074528D01*
X105234619Y-88163361D01*
X105113361Y-88284619D01*
X105109424Y-88291120D01*
X105100551Y-88305771D01*
X105048154Y-88353678D01*
X104992775Y-88366500D01*
X104784500Y-88366500D01*
X104716379Y-88346498D01*
X104669886Y-88292842D01*
X104658500Y-88240500D01*
X104658500Y-88101866D01*
X104651745Y-88039684D01*
X104600615Y-87903295D01*
X104513261Y-87786739D01*
X104396705Y-87699385D01*
X104277687Y-87654767D01*
X104220923Y-87612125D01*
X104196223Y-87545564D01*
X104211430Y-87476215D01*
X104232977Y-87447535D01*
X104334052Y-87346812D01*
X104340730Y-87338965D01*
X104465003Y-87166020D01*
X104470313Y-87157183D01*
X104564670Y-86966267D01*
X104568469Y-86956672D01*
X104630377Y-86752910D01*
X104632555Y-86742837D01*
X104633986Y-86731962D01*
X104631775Y-86717778D01*
X104618617Y-86714000D01*
X101983225Y-86714000D01*
X101969694Y-86717973D01*
X101968257Y-86727966D01*
X101998565Y-86862446D01*
X102001645Y-86872275D01*
X102081770Y-87069603D01*
X102086413Y-87078794D01*
X102197694Y-87260388D01*
X102203777Y-87268699D01*
X102343213Y-87429667D01*
X102350577Y-87436879D01*
X102355522Y-87440985D01*
X102395156Y-87499889D01*
X102396653Y-87570870D01*
X102359537Y-87631392D01*
X102319264Y-87655910D01*
X102211705Y-87696232D01*
X102211704Y-87696233D01*
X102203295Y-87699385D01*
X102086739Y-87786739D01*
X101999385Y-87903295D01*
X101948255Y-88039684D01*
X101941500Y-88101866D01*
X101941500Y-89898134D01*
X101948255Y-89960316D01*
X101999385Y-90096705D01*
X102086739Y-90213261D01*
X102203295Y-90300615D01*
X102339684Y-90351745D01*
X102401866Y-90358500D01*
X104198134Y-90358500D01*
X104260316Y-90351745D01*
X104396705Y-90300615D01*
X104513261Y-90213261D01*
X104600615Y-90096705D01*
X104651745Y-89960316D01*
X104658500Y-89898134D01*
X104658500Y-89759500D01*
X104678502Y-89691379D01*
X104732158Y-89644886D01*
X104784500Y-89633500D01*
X104992775Y-89633500D01*
X105060896Y-89653502D01*
X105100551Y-89694229D01*
X105113361Y-89715381D01*
X105234619Y-89836639D01*
X105381301Y-89925472D01*
X105388548Y-89927743D01*
X105388550Y-89927744D01*
X105454836Y-89948517D01*
X105544938Y-89976753D01*
X105618365Y-89983500D01*
X105621263Y-89983500D01*
X105875665Y-89983499D01*
X106131634Y-89983499D01*
X106134492Y-89983236D01*
X106134501Y-89983236D01*
X106170004Y-89979974D01*
X106205062Y-89976753D01*
X106233902Y-89967715D01*
X106361450Y-89927744D01*
X106361452Y-89927743D01*
X106368699Y-89925472D01*
X106515381Y-89836639D01*
X106610905Y-89741115D01*
X106673217Y-89707089D01*
X106744032Y-89712154D01*
X106789095Y-89741115D01*
X106884619Y-89836639D01*
X107031301Y-89925472D01*
X107038548Y-89927743D01*
X107038550Y-89927744D01*
X107104836Y-89948517D01*
X107194938Y-89976753D01*
X107268365Y-89983500D01*
X107286474Y-89983500D01*
X107560406Y-89983499D01*
X107628525Y-90003501D01*
X107649500Y-90020404D01*
X107829595Y-90200499D01*
X107863621Y-90262811D01*
X107866500Y-90289594D01*
X107866500Y-94090500D01*
X107846498Y-94158621D01*
X107792842Y-94205114D01*
X107740500Y-94216500D01*
X107301983Y-94216501D01*
X107268366Y-94216501D01*
X107265508Y-94216764D01*
X107265499Y-94216764D01*
X107229996Y-94220026D01*
X107194938Y-94223247D01*
X107188560Y-94225246D01*
X107188559Y-94225246D01*
X107038550Y-94272256D01*
X107038548Y-94272257D01*
X107031301Y-94274528D01*
X106884619Y-94363361D01*
X106789095Y-94458885D01*
X106726783Y-94492911D01*
X106655968Y-94487846D01*
X106610905Y-94458885D01*
X106515381Y-94363361D01*
X106368699Y-94274528D01*
X106361452Y-94272257D01*
X106361450Y-94272256D01*
X106295164Y-94251483D01*
X106205062Y-94223247D01*
X106131635Y-94216500D01*
X106128737Y-94216500D01*
X105874335Y-94216501D01*
X105618366Y-94216501D01*
X105615508Y-94216764D01*
X105615499Y-94216764D01*
X105579996Y-94220026D01*
X105544938Y-94223247D01*
X105538560Y-94225246D01*
X105538559Y-94225246D01*
X105388550Y-94272256D01*
X105388548Y-94272257D01*
X105381301Y-94274528D01*
X105234619Y-94363361D01*
X105113361Y-94484619D01*
X105109424Y-94491120D01*
X105100551Y-94505771D01*
X105048154Y-94553678D01*
X104992775Y-94566500D01*
X104784500Y-94566500D01*
X104716379Y-94546498D01*
X104669886Y-94492842D01*
X104658500Y-94440500D01*
X104658500Y-94301866D01*
X104651745Y-94239684D01*
X104600615Y-94103295D01*
X104513261Y-93986739D01*
X104396705Y-93899385D01*
X104277687Y-93854767D01*
X104220923Y-93812125D01*
X104196223Y-93745564D01*
X104211430Y-93676215D01*
X104232977Y-93647535D01*
X104334052Y-93546812D01*
X104340730Y-93538965D01*
X104465003Y-93366020D01*
X104470313Y-93357183D01*
X104564670Y-93166267D01*
X104568469Y-93156672D01*
X104630377Y-92952910D01*
X104632555Y-92942837D01*
X104633986Y-92931962D01*
X104631775Y-92917778D01*
X104618617Y-92914000D01*
X101983225Y-92914000D01*
X101969694Y-92917973D01*
X101968257Y-92927966D01*
X101998565Y-93062446D01*
X102001645Y-93072275D01*
X102081770Y-93269603D01*
X102086413Y-93278794D01*
X102197694Y-93460388D01*
X102203777Y-93468699D01*
X102343213Y-93629667D01*
X102350577Y-93636879D01*
X102355522Y-93640985D01*
X102395156Y-93699889D01*
X102396653Y-93770870D01*
X102359537Y-93831392D01*
X102319264Y-93855910D01*
X102211705Y-93896232D01*
X102211704Y-93896233D01*
X102203295Y-93899385D01*
X102086739Y-93986739D01*
X101999385Y-94103295D01*
X101948255Y-94239684D01*
X101941500Y-94301866D01*
X101941500Y-96098134D01*
X101948255Y-96160316D01*
X101999385Y-96296705D01*
X102086739Y-96413261D01*
X102203295Y-96500615D01*
X102339684Y-96551745D01*
X102401866Y-96558500D01*
X104198134Y-96558500D01*
X104260316Y-96551745D01*
X104396705Y-96500615D01*
X104513261Y-96413261D01*
X104600615Y-96296705D01*
X104651745Y-96160316D01*
X104658500Y-96098134D01*
X104658500Y-95959500D01*
X104678502Y-95891379D01*
X104732158Y-95844886D01*
X104784500Y-95833500D01*
X104992775Y-95833500D01*
X105060896Y-95853502D01*
X105100551Y-95894229D01*
X105113361Y-95915381D01*
X105234619Y-96036639D01*
X105381301Y-96125472D01*
X105388548Y-96127743D01*
X105388550Y-96127744D01*
X105454836Y-96148517D01*
X105544938Y-96176753D01*
X105618365Y-96183500D01*
X105621263Y-96183500D01*
X105875665Y-96183499D01*
X106131634Y-96183499D01*
X106134492Y-96183236D01*
X106134501Y-96183236D01*
X106170004Y-96179974D01*
X106205062Y-96176753D01*
X106233902Y-96167715D01*
X106361450Y-96127744D01*
X106361452Y-96127743D01*
X106368699Y-96125472D01*
X106515381Y-96036639D01*
X106610905Y-95941115D01*
X106673217Y-95907089D01*
X106744032Y-95912154D01*
X106789095Y-95941115D01*
X106854595Y-96006615D01*
X106888621Y-96068927D01*
X106891500Y-96095710D01*
X106891500Y-98471233D01*
X106890973Y-98482416D01*
X106889298Y-98489909D01*
X106889547Y-98497835D01*
X106889547Y-98497836D01*
X106891438Y-98557986D01*
X106891500Y-98561945D01*
X106891500Y-98589856D01*
X106891997Y-98593790D01*
X106891997Y-98593791D01*
X106892005Y-98593856D01*
X106892938Y-98605693D01*
X106894327Y-98649889D01*
X106899978Y-98669339D01*
X106903987Y-98688700D01*
X106906526Y-98708797D01*
X106909445Y-98716168D01*
X106909445Y-98716170D01*
X106922804Y-98749912D01*
X106926649Y-98761142D01*
X106935178Y-98790500D01*
X106938982Y-98803593D01*
X106943015Y-98810412D01*
X106943017Y-98810417D01*
X106949293Y-98821028D01*
X106957988Y-98838776D01*
X106965448Y-98857617D01*
X106970110Y-98864033D01*
X106970110Y-98864034D01*
X106991436Y-98893387D01*
X106997952Y-98903307D01*
X107014670Y-98931575D01*
X107020458Y-98941362D01*
X107034779Y-98955683D01*
X107047619Y-98970716D01*
X107059528Y-98987107D01*
X107065634Y-98992158D01*
X107093605Y-99015298D01*
X107102384Y-99023288D01*
X108805501Y-100726405D01*
X108839527Y-100788717D01*
X108834462Y-100859532D01*
X108791915Y-100916368D01*
X108725395Y-100941179D01*
X108716406Y-100941500D01*
X108452646Y-100941500D01*
X108384525Y-100921498D01*
X108344870Y-100880771D01*
X108332008Y-100859532D01*
X108286639Y-100784619D01*
X108165381Y-100663361D01*
X108018699Y-100574528D01*
X108011452Y-100572257D01*
X108011450Y-100572256D01*
X107919328Y-100543387D01*
X107855062Y-100523247D01*
X107781635Y-100516500D01*
X107778737Y-100516500D01*
X107524335Y-100516501D01*
X107268366Y-100516501D01*
X107265508Y-100516764D01*
X107265499Y-100516764D01*
X107229996Y-100520026D01*
X107194938Y-100523247D01*
X107188560Y-100525246D01*
X107188559Y-100525246D01*
X107038550Y-100572256D01*
X107038548Y-100572257D01*
X107031301Y-100574528D01*
X106884619Y-100663361D01*
X106789095Y-100758885D01*
X106726783Y-100792911D01*
X106655968Y-100787846D01*
X106610905Y-100758885D01*
X106515381Y-100663361D01*
X106368699Y-100574528D01*
X106361452Y-100572257D01*
X106361450Y-100572256D01*
X106269328Y-100543387D01*
X106205062Y-100523247D01*
X106131635Y-100516500D01*
X106128737Y-100516500D01*
X105874335Y-100516501D01*
X105618366Y-100516501D01*
X105615508Y-100516764D01*
X105615499Y-100516764D01*
X105579996Y-100520026D01*
X105544938Y-100523247D01*
X105538560Y-100525246D01*
X105538559Y-100525246D01*
X105388550Y-100572256D01*
X105388548Y-100572257D01*
X105381301Y-100574528D01*
X105234619Y-100663361D01*
X105168385Y-100729595D01*
X105106073Y-100763621D01*
X105079290Y-100766500D01*
X104784500Y-100766500D01*
X104716379Y-100746498D01*
X104669886Y-100692842D01*
X104658500Y-100640500D01*
X104658500Y-100501866D01*
X104651745Y-100439684D01*
X104600615Y-100303295D01*
X104513261Y-100186739D01*
X104396705Y-100099385D01*
X104277687Y-100054767D01*
X104220923Y-100012125D01*
X104196223Y-99945564D01*
X104211430Y-99876215D01*
X104232977Y-99847535D01*
X104334052Y-99746812D01*
X104340730Y-99738965D01*
X104465003Y-99566020D01*
X104470313Y-99557183D01*
X104564670Y-99366267D01*
X104568469Y-99356672D01*
X104630377Y-99152910D01*
X104632555Y-99142837D01*
X104633986Y-99131962D01*
X104631775Y-99117778D01*
X104618617Y-99114000D01*
X101983225Y-99114000D01*
X101969694Y-99117973D01*
X101968257Y-99127966D01*
X101998565Y-99262446D01*
X102001645Y-99272275D01*
X102081770Y-99469603D01*
X102086413Y-99478794D01*
X102197694Y-99660388D01*
X102203777Y-99668699D01*
X102343213Y-99829667D01*
X102350577Y-99836879D01*
X102355522Y-99840985D01*
X102395156Y-99899889D01*
X102396653Y-99970870D01*
X102359537Y-100031392D01*
X102319264Y-100055910D01*
X102211705Y-100096232D01*
X102211704Y-100096233D01*
X102203295Y-100099385D01*
X102086739Y-100186739D01*
X101999385Y-100303295D01*
X101948255Y-100439684D01*
X101941500Y-100501866D01*
X101941500Y-102298134D01*
X101948255Y-102360316D01*
X101999385Y-102496705D01*
X102086739Y-102613261D01*
X102203295Y-102700615D01*
X102339684Y-102751745D01*
X102401866Y-102758500D01*
X104198134Y-102758500D01*
X104260316Y-102751745D01*
X104396705Y-102700615D01*
X104513261Y-102613261D01*
X104600615Y-102496705D01*
X104651745Y-102360316D01*
X104658500Y-102298134D01*
X104658500Y-102159500D01*
X104678502Y-102091379D01*
X104732158Y-102044886D01*
X104784500Y-102033500D01*
X104932213Y-102033500D01*
X105000334Y-102053502D01*
X105039989Y-102094229D01*
X105081551Y-102162856D01*
X105113361Y-102215381D01*
X105234619Y-102336639D01*
X105381301Y-102425472D01*
X105388548Y-102427743D01*
X105388550Y-102427744D01*
X105454836Y-102448517D01*
X105544938Y-102476753D01*
X105618365Y-102483500D01*
X105621263Y-102483500D01*
X105875665Y-102483499D01*
X106131634Y-102483499D01*
X106134492Y-102483236D01*
X106134501Y-102483236D01*
X106170004Y-102479974D01*
X106205062Y-102476753D01*
X106227514Y-102469717D01*
X106361450Y-102427744D01*
X106361452Y-102427743D01*
X106368699Y-102425472D01*
X106515381Y-102336639D01*
X106610905Y-102241115D01*
X106673217Y-102207089D01*
X106744032Y-102212154D01*
X106789095Y-102241115D01*
X106884619Y-102336639D01*
X107031301Y-102425472D01*
X107038548Y-102427743D01*
X107038550Y-102427744D01*
X107104836Y-102448517D01*
X107194938Y-102476753D01*
X107268365Y-102483500D01*
X107271263Y-102483500D01*
X107525665Y-102483499D01*
X107781634Y-102483499D01*
X107784492Y-102483236D01*
X107784501Y-102483236D01*
X107820004Y-102479974D01*
X107855062Y-102476753D01*
X107877514Y-102469717D01*
X108011450Y-102427744D01*
X108011452Y-102427743D01*
X108018699Y-102425472D01*
X108165381Y-102336639D01*
X108256615Y-102245405D01*
X108318927Y-102211379D01*
X108345710Y-102208500D01*
X108666406Y-102208500D01*
X108734527Y-102228502D01*
X108781020Y-102282158D01*
X108791124Y-102352432D01*
X108761630Y-102417012D01*
X108755503Y-102423593D01*
X107919243Y-103259852D01*
X107132747Y-104046348D01*
X107124461Y-104053888D01*
X107117982Y-104058000D01*
X107112557Y-104063777D01*
X107071357Y-104107651D01*
X107068602Y-104110493D01*
X107048865Y-104130230D01*
X107046385Y-104133427D01*
X107038682Y-104142447D01*
X107008414Y-104174679D01*
X107004595Y-104181625D01*
X107004593Y-104181628D01*
X106998652Y-104192434D01*
X106987801Y-104208953D01*
X106975386Y-104224959D01*
X106972241Y-104232228D01*
X106972238Y-104232232D01*
X106957826Y-104265537D01*
X106952609Y-104276187D01*
X106931305Y-104314940D01*
X106929334Y-104322615D01*
X106929334Y-104322616D01*
X106926267Y-104334562D01*
X106919863Y-104353266D01*
X106915917Y-104362386D01*
X106911819Y-104371855D01*
X106910580Y-104379678D01*
X106910577Y-104379688D01*
X106904901Y-104415524D01*
X106902495Y-104427144D01*
X106891500Y-104469970D01*
X106891500Y-104490224D01*
X106889949Y-104509934D01*
X106886780Y-104529943D01*
X106887526Y-104537835D01*
X106890941Y-104573961D01*
X106891500Y-104585819D01*
X106891500Y-106704290D01*
X106871498Y-106772411D01*
X106854595Y-106793385D01*
X106789095Y-106858885D01*
X106726783Y-106892911D01*
X106655968Y-106887846D01*
X106610905Y-106858885D01*
X106515381Y-106763361D01*
X106368699Y-106674528D01*
X106361452Y-106672257D01*
X106361450Y-106672256D01*
X106295164Y-106651483D01*
X106205062Y-106623247D01*
X106131635Y-106616500D01*
X106128737Y-106616500D01*
X105874335Y-106616501D01*
X105618366Y-106616501D01*
X105615508Y-106616764D01*
X105615499Y-106616764D01*
X105579996Y-106620026D01*
X105544938Y-106623247D01*
X105538560Y-106625246D01*
X105538559Y-106625246D01*
X105388550Y-106672256D01*
X105388548Y-106672257D01*
X105381301Y-106674528D01*
X105234619Y-106763361D01*
X105113361Y-106884619D01*
X105109424Y-106891120D01*
X105100551Y-106905771D01*
X105048154Y-106953678D01*
X104992775Y-106966500D01*
X104784500Y-106966500D01*
X104716379Y-106946498D01*
X104669886Y-106892842D01*
X104658500Y-106840500D01*
X104658500Y-106701866D01*
X104651745Y-106639684D01*
X104600615Y-106503295D01*
X104513261Y-106386739D01*
X104396705Y-106299385D01*
X104277687Y-106254767D01*
X104220923Y-106212125D01*
X104196223Y-106145564D01*
X104211430Y-106076215D01*
X104232977Y-106047535D01*
X104334052Y-105946812D01*
X104340730Y-105938965D01*
X104465003Y-105766020D01*
X104470313Y-105757183D01*
X104564670Y-105566267D01*
X104568469Y-105556672D01*
X104630377Y-105352910D01*
X104632555Y-105342837D01*
X104633986Y-105331962D01*
X104631775Y-105317778D01*
X104618617Y-105314000D01*
X101983225Y-105314000D01*
X101969694Y-105317973D01*
X101968257Y-105327966D01*
X101998565Y-105462446D01*
X102001645Y-105472275D01*
X102081770Y-105669603D01*
X102086413Y-105678794D01*
X102197694Y-105860388D01*
X102203777Y-105868699D01*
X102343213Y-106029667D01*
X102350577Y-106036879D01*
X102355522Y-106040985D01*
X102395156Y-106099889D01*
X102396653Y-106170870D01*
X102359537Y-106231392D01*
X102319264Y-106255910D01*
X102211705Y-106296232D01*
X102211704Y-106296233D01*
X102203295Y-106299385D01*
X102086739Y-106386739D01*
X101999385Y-106503295D01*
X101948255Y-106639684D01*
X101941500Y-106701866D01*
X101941500Y-108498134D01*
X101948255Y-108560316D01*
X101999385Y-108696705D01*
X102086739Y-108813261D01*
X102203295Y-108900615D01*
X102339684Y-108951745D01*
X102401866Y-108958500D01*
X104198134Y-108958500D01*
X104260316Y-108951745D01*
X104396705Y-108900615D01*
X104513261Y-108813261D01*
X104600615Y-108696705D01*
X104651745Y-108560316D01*
X104658500Y-108498134D01*
X104658500Y-108359500D01*
X104678502Y-108291379D01*
X104732158Y-108244886D01*
X104784500Y-108233500D01*
X104992775Y-108233500D01*
X105060896Y-108253502D01*
X105100551Y-108294229D01*
X105113361Y-108315381D01*
X105234619Y-108436639D01*
X105381301Y-108525472D01*
X105388548Y-108527743D01*
X105388550Y-108527744D01*
X105393940Y-108529433D01*
X105544938Y-108576753D01*
X105618365Y-108583500D01*
X105621263Y-108583500D01*
X105875665Y-108583499D01*
X106131634Y-108583499D01*
X106134492Y-108583236D01*
X106134501Y-108583236D01*
X106170004Y-108579974D01*
X106205062Y-108576753D01*
X106233902Y-108567715D01*
X106361450Y-108527744D01*
X106361452Y-108527743D01*
X106368699Y-108525472D01*
X106515381Y-108436639D01*
X106610905Y-108341115D01*
X106673217Y-108307089D01*
X106744032Y-108312154D01*
X106789095Y-108341115D01*
X106884619Y-108436639D01*
X107031301Y-108525472D01*
X107038548Y-108527743D01*
X107038550Y-108527744D01*
X107043940Y-108529433D01*
X107194938Y-108576753D01*
X107268365Y-108583500D01*
X107271263Y-108583500D01*
X107525665Y-108583499D01*
X107781634Y-108583499D01*
X107784492Y-108583236D01*
X107784501Y-108583236D01*
X107820004Y-108579974D01*
X107855062Y-108576753D01*
X107883902Y-108567715D01*
X108011450Y-108527744D01*
X108011452Y-108527743D01*
X108018699Y-108525472D01*
X108165381Y-108436639D01*
X108286639Y-108315381D01*
X108375472Y-108168699D01*
X108426753Y-108005062D01*
X108433500Y-107931635D01*
X108433499Y-107268366D01*
X108426753Y-107194938D01*
X108394972Y-107093524D01*
X108377744Y-107038550D01*
X108377743Y-107038548D01*
X108375472Y-107031301D01*
X108286639Y-106884619D01*
X108195405Y-106793385D01*
X108161379Y-106731073D01*
X108158500Y-106704290D01*
X108158500Y-104864594D01*
X108178502Y-104796473D01*
X108195405Y-104775499D01*
X108476405Y-104494499D01*
X108538717Y-104460473D01*
X108609532Y-104465538D01*
X108666368Y-104508085D01*
X108691179Y-104574605D01*
X108691500Y-104583594D01*
X108691500Y-111585405D01*
X108671498Y-111653526D01*
X108654595Y-111674500D01*
X107649500Y-112679595D01*
X107587188Y-112713621D01*
X107560405Y-112716500D01*
X107286386Y-112716501D01*
X107268366Y-112716501D01*
X107265508Y-112716764D01*
X107265499Y-112716764D01*
X107229996Y-112720026D01*
X107194938Y-112723247D01*
X107188560Y-112725246D01*
X107188559Y-112725246D01*
X107038550Y-112772256D01*
X107038548Y-112772257D01*
X107031301Y-112774528D01*
X106884619Y-112863361D01*
X106789095Y-112958885D01*
X106726783Y-112992911D01*
X106655968Y-112987846D01*
X106610905Y-112958885D01*
X106515381Y-112863361D01*
X106368699Y-112774528D01*
X106361452Y-112772257D01*
X106361450Y-112772256D01*
X106295164Y-112751483D01*
X106205062Y-112723247D01*
X106131635Y-112716500D01*
X106128737Y-112716500D01*
X105874335Y-112716501D01*
X105618366Y-112716501D01*
X105615508Y-112716764D01*
X105615499Y-112716764D01*
X105579996Y-112720026D01*
X105544938Y-112723247D01*
X105538560Y-112725246D01*
X105538559Y-112725246D01*
X105388550Y-112772256D01*
X105388548Y-112772257D01*
X105381301Y-112774528D01*
X105234619Y-112863361D01*
X105113361Y-112984619D01*
X105109424Y-112991120D01*
X105039989Y-113105771D01*
X104987592Y-113153678D01*
X104932213Y-113166500D01*
X104784500Y-113166500D01*
X104716379Y-113146498D01*
X104669886Y-113092842D01*
X104658500Y-113040500D01*
X104658500Y-112901866D01*
X104651745Y-112839684D01*
X104600615Y-112703295D01*
X104513261Y-112586739D01*
X104396705Y-112499385D01*
X104277687Y-112454767D01*
X104220923Y-112412125D01*
X104196223Y-112345564D01*
X104211430Y-112276215D01*
X104232977Y-112247535D01*
X104334052Y-112146812D01*
X104340730Y-112138965D01*
X104465003Y-111966020D01*
X104470313Y-111957183D01*
X104564670Y-111766267D01*
X104568469Y-111756672D01*
X104630377Y-111552910D01*
X104632555Y-111542837D01*
X104633986Y-111531962D01*
X104631775Y-111517778D01*
X104618617Y-111514000D01*
X101983225Y-111514000D01*
X101969694Y-111517973D01*
X101968257Y-111527966D01*
X101998565Y-111662446D01*
X102001645Y-111672275D01*
X102081770Y-111869603D01*
X102086413Y-111878794D01*
X102197694Y-112060388D01*
X102203777Y-112068699D01*
X102343213Y-112229667D01*
X102350577Y-112236879D01*
X102355522Y-112240985D01*
X102395156Y-112299889D01*
X102396653Y-112370870D01*
X102359537Y-112431392D01*
X102319264Y-112455910D01*
X102211705Y-112496232D01*
X102211704Y-112496233D01*
X102203295Y-112499385D01*
X102086739Y-112586739D01*
X101999385Y-112703295D01*
X101948255Y-112839684D01*
X101941500Y-112901866D01*
X101941500Y-114698134D01*
X101948255Y-114760316D01*
X101999385Y-114896705D01*
X102086739Y-115013261D01*
X102203295Y-115100615D01*
X102339684Y-115151745D01*
X102401866Y-115158500D01*
X104198134Y-115158500D01*
X104260316Y-115151745D01*
X104396705Y-115100615D01*
X104513261Y-115013261D01*
X104600615Y-114896705D01*
X104651745Y-114760316D01*
X104658500Y-114698134D01*
X104658500Y-114559500D01*
X104678502Y-114491379D01*
X104732158Y-114444886D01*
X104784500Y-114433500D01*
X105079290Y-114433500D01*
X105147411Y-114453502D01*
X105168385Y-114470405D01*
X105234619Y-114536639D01*
X105381301Y-114625472D01*
X105388548Y-114627743D01*
X105388550Y-114627744D01*
X105454836Y-114648517D01*
X105544938Y-114676753D01*
X105618365Y-114683500D01*
X105621263Y-114683500D01*
X105875665Y-114683499D01*
X106131634Y-114683499D01*
X106134492Y-114683236D01*
X106134501Y-114683236D01*
X106170004Y-114679974D01*
X106205062Y-114676753D01*
X106211447Y-114674752D01*
X106361450Y-114627744D01*
X106361452Y-114627743D01*
X106368699Y-114625472D01*
X106515381Y-114536639D01*
X106610905Y-114441115D01*
X106673217Y-114407089D01*
X106744032Y-114412154D01*
X106789095Y-114441115D01*
X106884619Y-114536639D01*
X107031301Y-114625472D01*
X107038548Y-114627743D01*
X107038550Y-114627744D01*
X107104836Y-114648517D01*
X107194938Y-114676753D01*
X107268365Y-114683500D01*
X107271263Y-114683500D01*
X107525665Y-114683499D01*
X107781634Y-114683499D01*
X107784492Y-114683236D01*
X107784501Y-114683236D01*
X107820004Y-114679974D01*
X107855062Y-114676753D01*
X107861447Y-114674752D01*
X108011450Y-114627744D01*
X108011452Y-114627743D01*
X108018699Y-114625472D01*
X108165381Y-114536639D01*
X108286639Y-114415381D01*
X108375472Y-114268699D01*
X108426753Y-114105062D01*
X108433500Y-114031635D01*
X108433499Y-113739594D01*
X108453501Y-113671475D01*
X108470404Y-113650500D01*
X108926405Y-113194499D01*
X108988717Y-113160473D01*
X109059532Y-113165538D01*
X109116368Y-113208085D01*
X109141179Y-113274605D01*
X109141500Y-113283594D01*
X109141500Y-117535406D01*
X109121498Y-117603527D01*
X109104595Y-117624501D01*
X107649500Y-119079595D01*
X107587188Y-119113621D01*
X107560405Y-119116500D01*
X107286386Y-119116501D01*
X107268366Y-119116501D01*
X107265508Y-119116764D01*
X107265499Y-119116764D01*
X107229996Y-119120026D01*
X107194938Y-119123247D01*
X107188560Y-119125246D01*
X107188559Y-119125246D01*
X107038550Y-119172256D01*
X107038548Y-119172257D01*
X107031301Y-119174528D01*
X106884619Y-119263361D01*
X106789095Y-119358885D01*
X106726783Y-119392911D01*
X106655968Y-119387846D01*
X106610905Y-119358885D01*
X106515381Y-119263361D01*
X106368699Y-119174528D01*
X106361452Y-119172257D01*
X106361450Y-119172256D01*
X106295164Y-119151483D01*
X106205062Y-119123247D01*
X106131635Y-119116500D01*
X106128737Y-119116500D01*
X105874335Y-119116501D01*
X105618366Y-119116501D01*
X105615508Y-119116764D01*
X105615499Y-119116764D01*
X105579996Y-119120026D01*
X105544938Y-119123247D01*
X105538560Y-119125246D01*
X105538559Y-119125246D01*
X105388550Y-119172256D01*
X105388548Y-119172257D01*
X105381301Y-119174528D01*
X105234619Y-119263361D01*
X105168385Y-119329595D01*
X105106073Y-119363621D01*
X105079290Y-119366500D01*
X104784500Y-119366500D01*
X104716379Y-119346498D01*
X104669886Y-119292842D01*
X104658500Y-119240500D01*
X104658500Y-119101866D01*
X104651745Y-119039684D01*
X104600615Y-118903295D01*
X104513261Y-118786739D01*
X104396705Y-118699385D01*
X104277687Y-118654767D01*
X104220923Y-118612125D01*
X104196223Y-118545564D01*
X104211430Y-118476215D01*
X104232977Y-118447535D01*
X104334052Y-118346812D01*
X104340730Y-118338965D01*
X104465003Y-118166020D01*
X104470313Y-118157183D01*
X104564670Y-117966267D01*
X104568469Y-117956672D01*
X104630377Y-117752910D01*
X104632555Y-117742837D01*
X104633986Y-117731962D01*
X104631775Y-117717778D01*
X104618617Y-117714000D01*
X101983225Y-117714000D01*
X101969694Y-117717973D01*
X101968257Y-117727966D01*
X101998565Y-117862446D01*
X102001645Y-117872275D01*
X102081770Y-118069603D01*
X102086413Y-118078794D01*
X102197694Y-118260388D01*
X102203777Y-118268699D01*
X102343213Y-118429667D01*
X102350577Y-118436879D01*
X102355522Y-118440985D01*
X102395156Y-118499889D01*
X102396653Y-118570870D01*
X102359537Y-118631392D01*
X102319264Y-118655910D01*
X102211705Y-118696232D01*
X102211704Y-118696233D01*
X102203295Y-118699385D01*
X102086739Y-118786739D01*
X101999385Y-118903295D01*
X101948255Y-119039684D01*
X101941500Y-119101866D01*
X101941500Y-120898134D01*
X101948255Y-120960316D01*
X101999385Y-121096705D01*
X102086739Y-121213261D01*
X102203295Y-121300615D01*
X102339684Y-121351745D01*
X102401866Y-121358500D01*
X104198134Y-121358500D01*
X104260316Y-121351745D01*
X104396705Y-121300615D01*
X104513261Y-121213261D01*
X104600615Y-121096705D01*
X104651745Y-120960316D01*
X104658500Y-120898134D01*
X104658500Y-120759500D01*
X104678502Y-120691379D01*
X104732158Y-120644886D01*
X104784500Y-120633500D01*
X104932213Y-120633500D01*
X105000334Y-120653502D01*
X105039989Y-120694229D01*
X105093790Y-120783065D01*
X105113361Y-120815381D01*
X105234619Y-120936639D01*
X105381301Y-121025472D01*
X105388548Y-121027743D01*
X105388550Y-121027744D01*
X105454836Y-121048517D01*
X105544938Y-121076753D01*
X105618365Y-121083500D01*
X105621263Y-121083500D01*
X105875665Y-121083499D01*
X106131634Y-121083499D01*
X106134492Y-121083236D01*
X106134501Y-121083236D01*
X106170004Y-121079974D01*
X106205062Y-121076753D01*
X106211447Y-121074752D01*
X106361450Y-121027744D01*
X106361452Y-121027743D01*
X106368699Y-121025472D01*
X106515381Y-120936639D01*
X106610905Y-120841115D01*
X106673217Y-120807089D01*
X106744032Y-120812154D01*
X106789095Y-120841115D01*
X106884619Y-120936639D01*
X107031301Y-121025472D01*
X107038548Y-121027743D01*
X107038550Y-121027744D01*
X107104836Y-121048517D01*
X107194938Y-121076753D01*
X107268365Y-121083500D01*
X107271263Y-121083500D01*
X107525665Y-121083499D01*
X107781634Y-121083499D01*
X107784492Y-121083236D01*
X107784501Y-121083236D01*
X107820004Y-121079974D01*
X107855062Y-121076753D01*
X107861447Y-121074752D01*
X108011450Y-121027744D01*
X108011452Y-121027743D01*
X108018699Y-121025472D01*
X108165381Y-120936639D01*
X108286639Y-120815381D01*
X108375472Y-120668699D01*
X108380235Y-120653502D01*
X108424752Y-120511446D01*
X108426753Y-120505062D01*
X108433500Y-120431635D01*
X108433499Y-120139594D01*
X108453501Y-120071475D01*
X108470404Y-120050500D01*
X110167247Y-118353657D01*
X110175537Y-118346113D01*
X110182018Y-118342000D01*
X110228659Y-118292332D01*
X110231413Y-118289491D01*
X110251135Y-118269769D01*
X110253612Y-118266576D01*
X110261317Y-118257555D01*
X110286159Y-118231100D01*
X110291586Y-118225321D01*
X110295407Y-118218371D01*
X110301346Y-118207568D01*
X110312202Y-118191041D01*
X110319757Y-118181302D01*
X110319758Y-118181300D01*
X110324614Y-118175040D01*
X110342174Y-118134460D01*
X110347391Y-118123812D01*
X110364875Y-118092009D01*
X110364876Y-118092007D01*
X110368695Y-118085060D01*
X110373733Y-118065437D01*
X110380137Y-118046734D01*
X110385033Y-118035420D01*
X110385033Y-118035419D01*
X110388181Y-118028145D01*
X110389420Y-118020322D01*
X110389423Y-118020312D01*
X110395099Y-117984476D01*
X110397505Y-117972856D01*
X110406528Y-117937711D01*
X110406528Y-117937710D01*
X110408500Y-117930030D01*
X110408500Y-117909776D01*
X110410051Y-117890065D01*
X110411980Y-117877886D01*
X110413220Y-117870057D01*
X110409059Y-117826038D01*
X110408500Y-117814181D01*
X110408500Y-105009500D01*
X110428502Y-104941379D01*
X110482158Y-104894886D01*
X110534500Y-104883500D01*
X110665500Y-104883500D01*
X110733621Y-104903502D01*
X110780114Y-104957158D01*
X110791500Y-105009500D01*
X110791500Y-121985406D01*
X110771498Y-122053527D01*
X110754595Y-122074501D01*
X107649500Y-125179595D01*
X107587188Y-125213621D01*
X107560405Y-125216500D01*
X107286386Y-125216501D01*
X107268366Y-125216501D01*
X107265508Y-125216764D01*
X107265499Y-125216764D01*
X107229996Y-125220026D01*
X107194938Y-125223247D01*
X107188560Y-125225246D01*
X107188559Y-125225246D01*
X107038550Y-125272256D01*
X107038548Y-125272257D01*
X107031301Y-125274528D01*
X106884619Y-125363361D01*
X106789095Y-125458885D01*
X106726783Y-125492911D01*
X106655968Y-125487846D01*
X106610905Y-125458885D01*
X106515381Y-125363361D01*
X106368699Y-125274528D01*
X106361452Y-125272257D01*
X106361450Y-125272256D01*
X106284862Y-125248255D01*
X106205062Y-125223247D01*
X106131635Y-125216500D01*
X106128737Y-125216500D01*
X105874335Y-125216501D01*
X105618366Y-125216501D01*
X105615508Y-125216764D01*
X105615499Y-125216764D01*
X105579996Y-125220026D01*
X105544938Y-125223247D01*
X105538560Y-125225246D01*
X105538559Y-125225246D01*
X105388550Y-125272256D01*
X105388548Y-125272257D01*
X105381301Y-125274528D01*
X105234619Y-125363361D01*
X105113361Y-125484619D01*
X105109424Y-125491120D01*
X105100551Y-125505771D01*
X105048154Y-125553678D01*
X104992775Y-125566500D01*
X104784500Y-125566500D01*
X104716379Y-125546498D01*
X104669886Y-125492842D01*
X104658500Y-125440500D01*
X104658500Y-125301866D01*
X104651745Y-125239684D01*
X104600615Y-125103295D01*
X104513261Y-124986739D01*
X104396705Y-124899385D01*
X104277687Y-124854767D01*
X104220923Y-124812125D01*
X104196223Y-124745564D01*
X104211430Y-124676215D01*
X104232977Y-124647535D01*
X104334052Y-124546812D01*
X104340730Y-124538965D01*
X104465003Y-124366020D01*
X104470313Y-124357183D01*
X104564670Y-124166267D01*
X104568469Y-124156672D01*
X104630377Y-123952910D01*
X104632555Y-123942837D01*
X104633986Y-123931962D01*
X104631775Y-123917778D01*
X104618617Y-123914000D01*
X101983225Y-123914000D01*
X101969694Y-123917973D01*
X101968257Y-123927966D01*
X101998565Y-124062446D01*
X102001645Y-124072275D01*
X102081770Y-124269603D01*
X102086413Y-124278794D01*
X102197694Y-124460388D01*
X102203777Y-124468699D01*
X102343213Y-124629667D01*
X102350577Y-124636879D01*
X102355522Y-124640985D01*
X102395156Y-124699889D01*
X102396653Y-124770870D01*
X102359537Y-124831392D01*
X102319264Y-124855910D01*
X102211705Y-124896232D01*
X102211704Y-124896233D01*
X102203295Y-124899385D01*
X102086739Y-124986739D01*
X101999385Y-125103295D01*
X101948255Y-125239684D01*
X101941500Y-125301866D01*
X101941500Y-127098134D01*
X93108500Y-127098134D01*
X93108500Y-123394183D01*
X101964389Y-123394183D01*
X101965912Y-123402607D01*
X101978292Y-123406000D01*
X103027885Y-123406000D01*
X103043124Y-123401525D01*
X103044329Y-123400135D01*
X103046000Y-123392452D01*
X103046000Y-123387885D01*
X103554000Y-123387885D01*
X103558475Y-123403124D01*
X103559865Y-123404329D01*
X103567548Y-123406000D01*
X104618344Y-123406000D01*
X104631875Y-123402027D01*
X104633180Y-123392947D01*
X104591214Y-123225875D01*
X104587894Y-123216124D01*
X104502972Y-123020814D01*
X104498105Y-123011739D01*
X104382426Y-122832926D01*
X104376136Y-122824757D01*
X104232806Y-122667240D01*
X104225273Y-122660215D01*
X104058139Y-122528222D01*
X104049552Y-122522517D01*
X103863117Y-122419599D01*
X103853705Y-122415369D01*
X103652959Y-122344280D01*
X103642988Y-122341646D01*
X103571837Y-122328972D01*
X103558540Y-122330432D01*
X103554000Y-122344989D01*
X103554000Y-123387885D01*
X103046000Y-123387885D01*
X103046000Y-122343102D01*
X103042082Y-122329758D01*
X103027806Y-122327771D01*
X102989324Y-122333660D01*
X102979288Y-122336051D01*
X102776868Y-122402212D01*
X102767359Y-122406209D01*
X102578463Y-122504542D01*
X102569738Y-122510036D01*
X102399433Y-122637905D01*
X102391726Y-122644748D01*
X102244590Y-122798717D01*
X102238104Y-122806727D01*
X102118098Y-122982649D01*
X102113000Y-122991623D01*
X102023338Y-123184783D01*
X102019775Y-123194470D01*
X101964389Y-123394183D01*
X93108500Y-123394183D01*
X93108500Y-117194183D01*
X101964389Y-117194183D01*
X101965912Y-117202607D01*
X101978292Y-117206000D01*
X103027885Y-117206000D01*
X103043124Y-117201525D01*
X103044329Y-117200135D01*
X103046000Y-117192452D01*
X103046000Y-117187885D01*
X103554000Y-117187885D01*
X103558475Y-117203124D01*
X103559865Y-117204329D01*
X103567548Y-117206000D01*
X104618344Y-117206000D01*
X104631875Y-117202027D01*
X104633180Y-117192947D01*
X104591214Y-117025875D01*
X104587894Y-117016124D01*
X104502972Y-116820814D01*
X104498105Y-116811739D01*
X104382426Y-116632926D01*
X104376136Y-116624757D01*
X104232806Y-116467240D01*
X104225273Y-116460215D01*
X104058139Y-116328222D01*
X104049552Y-116322517D01*
X103863117Y-116219599D01*
X103853705Y-116215369D01*
X103652959Y-116144280D01*
X103642988Y-116141646D01*
X103571837Y-116128972D01*
X103558540Y-116130432D01*
X103554000Y-116144989D01*
X103554000Y-117187885D01*
X103046000Y-117187885D01*
X103046000Y-116143102D01*
X103042082Y-116129758D01*
X103027806Y-116127771D01*
X102989324Y-116133660D01*
X102979288Y-116136051D01*
X102776868Y-116202212D01*
X102767359Y-116206209D01*
X102578463Y-116304542D01*
X102569738Y-116310036D01*
X102399433Y-116437905D01*
X102391726Y-116444748D01*
X102244590Y-116598717D01*
X102238104Y-116606727D01*
X102118098Y-116782649D01*
X102113000Y-116791623D01*
X102023338Y-116984783D01*
X102019775Y-116994470D01*
X101964389Y-117194183D01*
X93108500Y-117194183D01*
X93108500Y-110994183D01*
X101964389Y-110994183D01*
X101965912Y-111002607D01*
X101978292Y-111006000D01*
X103027885Y-111006000D01*
X103043124Y-111001525D01*
X103044329Y-111000135D01*
X103046000Y-110992452D01*
X103046000Y-110987885D01*
X103554000Y-110987885D01*
X103558475Y-111003124D01*
X103559865Y-111004329D01*
X103567548Y-111006000D01*
X104618344Y-111006000D01*
X104631875Y-111002027D01*
X104633180Y-110992947D01*
X104591214Y-110825875D01*
X104587894Y-110816124D01*
X104502972Y-110620814D01*
X104498105Y-110611739D01*
X104382426Y-110432926D01*
X104376136Y-110424757D01*
X104232806Y-110267240D01*
X104225273Y-110260215D01*
X104058139Y-110128222D01*
X104049552Y-110122517D01*
X103863117Y-110019599D01*
X103853705Y-110015369D01*
X103652959Y-109944280D01*
X103642988Y-109941646D01*
X103571837Y-109928972D01*
X103558540Y-109930432D01*
X103554000Y-109944989D01*
X103554000Y-110987885D01*
X103046000Y-110987885D01*
X103046000Y-109943102D01*
X103042082Y-109929758D01*
X103027806Y-109927771D01*
X102989324Y-109933660D01*
X102979288Y-109936051D01*
X102776868Y-110002212D01*
X102767359Y-110006209D01*
X102578463Y-110104542D01*
X102569738Y-110110036D01*
X102399433Y-110237905D01*
X102391726Y-110244748D01*
X102244590Y-110398717D01*
X102238104Y-110406727D01*
X102118098Y-110582649D01*
X102113000Y-110591623D01*
X102023338Y-110784783D01*
X102019775Y-110794470D01*
X101964389Y-110994183D01*
X93108500Y-110994183D01*
X93108500Y-104794183D01*
X101964389Y-104794183D01*
X101965912Y-104802607D01*
X101978292Y-104806000D01*
X103027885Y-104806000D01*
X103043124Y-104801525D01*
X103044329Y-104800135D01*
X103046000Y-104792452D01*
X103046000Y-104787885D01*
X103554000Y-104787885D01*
X103558475Y-104803124D01*
X103559865Y-104804329D01*
X103567548Y-104806000D01*
X104618344Y-104806000D01*
X104631875Y-104802027D01*
X104633180Y-104792947D01*
X104591214Y-104625875D01*
X104587894Y-104616124D01*
X104502972Y-104420814D01*
X104498105Y-104411739D01*
X104382426Y-104232926D01*
X104376136Y-104224757D01*
X104232806Y-104067240D01*
X104225273Y-104060215D01*
X104058139Y-103928222D01*
X104049552Y-103922517D01*
X103863117Y-103819599D01*
X103853705Y-103815369D01*
X103652959Y-103744280D01*
X103642988Y-103741646D01*
X103571837Y-103728972D01*
X103558540Y-103730432D01*
X103554000Y-103744989D01*
X103554000Y-104787885D01*
X103046000Y-104787885D01*
X103046000Y-103743102D01*
X103042082Y-103729758D01*
X103027806Y-103727771D01*
X102989324Y-103733660D01*
X102979288Y-103736051D01*
X102776868Y-103802212D01*
X102767359Y-103806209D01*
X102578463Y-103904542D01*
X102569738Y-103910036D01*
X102399433Y-104037905D01*
X102391726Y-104044748D01*
X102244590Y-104198717D01*
X102238104Y-104206727D01*
X102118098Y-104382649D01*
X102113000Y-104391623D01*
X102023338Y-104584783D01*
X102019775Y-104594470D01*
X101964389Y-104794183D01*
X93108500Y-104794183D01*
X93108500Y-98594183D01*
X101964389Y-98594183D01*
X101965912Y-98602607D01*
X101978292Y-98606000D01*
X103027885Y-98606000D01*
X103043124Y-98601525D01*
X103044329Y-98600135D01*
X103046000Y-98592452D01*
X103046000Y-98587885D01*
X103554000Y-98587885D01*
X103558475Y-98603124D01*
X103559865Y-98604329D01*
X103567548Y-98606000D01*
X104618344Y-98606000D01*
X104631875Y-98602027D01*
X104633180Y-98592947D01*
X104591214Y-98425875D01*
X104587894Y-98416124D01*
X104502972Y-98220814D01*
X104498105Y-98211739D01*
X104382426Y-98032926D01*
X104376136Y-98024757D01*
X104232806Y-97867240D01*
X104225273Y-97860215D01*
X104058139Y-97728222D01*
X104049552Y-97722517D01*
X103863117Y-97619599D01*
X103853705Y-97615369D01*
X103652959Y-97544280D01*
X103642988Y-97541646D01*
X103571837Y-97528972D01*
X103558540Y-97530432D01*
X103554000Y-97544989D01*
X103554000Y-98587885D01*
X103046000Y-98587885D01*
X103046000Y-97543102D01*
X103042082Y-97529758D01*
X103027806Y-97527771D01*
X102989324Y-97533660D01*
X102979288Y-97536051D01*
X102776868Y-97602212D01*
X102767359Y-97606209D01*
X102578463Y-97704542D01*
X102569738Y-97710036D01*
X102399433Y-97837905D01*
X102391726Y-97844748D01*
X102244590Y-97998717D01*
X102238104Y-98006727D01*
X102118098Y-98182649D01*
X102113000Y-98191623D01*
X102023338Y-98384783D01*
X102019775Y-98394470D01*
X101964389Y-98594183D01*
X93108500Y-98594183D01*
X93108500Y-92394183D01*
X101964389Y-92394183D01*
X101965912Y-92402607D01*
X101978292Y-92406000D01*
X103027885Y-92406000D01*
X103043124Y-92401525D01*
X103044329Y-92400135D01*
X103046000Y-92392452D01*
X103046000Y-92387885D01*
X103554000Y-92387885D01*
X103558475Y-92403124D01*
X103559865Y-92404329D01*
X103567548Y-92406000D01*
X104618344Y-92406000D01*
X104631875Y-92402027D01*
X104633180Y-92392947D01*
X104591214Y-92225875D01*
X104587894Y-92216124D01*
X104502972Y-92020814D01*
X104498105Y-92011739D01*
X104382426Y-91832926D01*
X104376136Y-91824757D01*
X104232806Y-91667240D01*
X104225273Y-91660215D01*
X104058139Y-91528222D01*
X104049552Y-91522517D01*
X103863117Y-91419599D01*
X103853705Y-91415369D01*
X103652959Y-91344280D01*
X103642988Y-91341646D01*
X103571837Y-91328972D01*
X103558540Y-91330432D01*
X103554000Y-91344989D01*
X103554000Y-92387885D01*
X103046000Y-92387885D01*
X103046000Y-91343102D01*
X103042082Y-91329758D01*
X103027806Y-91327771D01*
X102989324Y-91333660D01*
X102979288Y-91336051D01*
X102776868Y-91402212D01*
X102767359Y-91406209D01*
X102578463Y-91504542D01*
X102569738Y-91510036D01*
X102399433Y-91637905D01*
X102391726Y-91644748D01*
X102244590Y-91798717D01*
X102238104Y-91806727D01*
X102118098Y-91982649D01*
X102113000Y-91991623D01*
X102023338Y-92184783D01*
X102019775Y-92194470D01*
X101964389Y-92394183D01*
X93108500Y-92394183D01*
X93108500Y-86194183D01*
X101964389Y-86194183D01*
X101965912Y-86202607D01*
X101978292Y-86206000D01*
X103027885Y-86206000D01*
X103043124Y-86201525D01*
X103044329Y-86200135D01*
X103046000Y-86192452D01*
X103046000Y-86187885D01*
X103554000Y-86187885D01*
X103558475Y-86203124D01*
X103559865Y-86204329D01*
X103567548Y-86206000D01*
X104618344Y-86206000D01*
X104631875Y-86202027D01*
X104633180Y-86192947D01*
X104591214Y-86025875D01*
X104587894Y-86016124D01*
X104502972Y-85820814D01*
X104498105Y-85811739D01*
X104382426Y-85632926D01*
X104376136Y-85624757D01*
X104232806Y-85467240D01*
X104225273Y-85460215D01*
X104058139Y-85328222D01*
X104049552Y-85322517D01*
X103863117Y-85219599D01*
X103853705Y-85215369D01*
X103652959Y-85144280D01*
X103642988Y-85141646D01*
X103571837Y-85128972D01*
X103558540Y-85130432D01*
X103554000Y-85144989D01*
X103554000Y-86187885D01*
X103046000Y-86187885D01*
X103046000Y-85143102D01*
X103042082Y-85129758D01*
X103027806Y-85127771D01*
X102989324Y-85133660D01*
X102979288Y-85136051D01*
X102776868Y-85202212D01*
X102767359Y-85206209D01*
X102578463Y-85304542D01*
X102569738Y-85310036D01*
X102399433Y-85437905D01*
X102391726Y-85444748D01*
X102244590Y-85598717D01*
X102238104Y-85606727D01*
X102118098Y-85782649D01*
X102113000Y-85791623D01*
X102023338Y-85984783D01*
X102019775Y-85994470D01*
X101964389Y-86194183D01*
X93108500Y-86194183D01*
X93108500Y-80019183D01*
X101989389Y-80019183D01*
X101990912Y-80027607D01*
X102003292Y-80031000D01*
X103052885Y-80031000D01*
X103068124Y-80026525D01*
X103069329Y-80025135D01*
X103071000Y-80017452D01*
X103071000Y-80012885D01*
X103579000Y-80012885D01*
X103583475Y-80028124D01*
X103584865Y-80029329D01*
X103592548Y-80031000D01*
X104643344Y-80031000D01*
X104656875Y-80027027D01*
X104658180Y-80017947D01*
X104616214Y-79850875D01*
X104612894Y-79841124D01*
X104527972Y-79645814D01*
X104523105Y-79636739D01*
X104407426Y-79457926D01*
X104401136Y-79449757D01*
X104257806Y-79292240D01*
X104250273Y-79285215D01*
X104083139Y-79153222D01*
X104074552Y-79147517D01*
X103888117Y-79044599D01*
X103878705Y-79040369D01*
X103677959Y-78969280D01*
X103667988Y-78966646D01*
X103596837Y-78953972D01*
X103583540Y-78955432D01*
X103579000Y-78969989D01*
X103579000Y-80012885D01*
X103071000Y-80012885D01*
X103071000Y-78968102D01*
X103067082Y-78954758D01*
X103052806Y-78952771D01*
X103014324Y-78958660D01*
X103004288Y-78961051D01*
X102801868Y-79027212D01*
X102792359Y-79031209D01*
X102603463Y-79129542D01*
X102594738Y-79135036D01*
X102424433Y-79262905D01*
X102416726Y-79269748D01*
X102269590Y-79423717D01*
X102263104Y-79431727D01*
X102143098Y-79607649D01*
X102138000Y-79616623D01*
X102048338Y-79809783D01*
X102044775Y-79819470D01*
X101989389Y-80019183D01*
X93108500Y-80019183D01*
X93108500Y-75042277D01*
X93737009Y-75042277D01*
X93762625Y-75310769D01*
X93763710Y-75315203D01*
X93763711Y-75315209D01*
X93823882Y-75561109D01*
X93826731Y-75572750D01*
X93927985Y-75822733D01*
X94064265Y-76055482D01*
X94124201Y-76130428D01*
X94184686Y-76206060D01*
X94232716Y-76266119D01*
X94429809Y-76450234D01*
X94651416Y-76603968D01*
X94655499Y-76605999D01*
X94655502Y-76606001D01*
X94660258Y-76608367D01*
X94892894Y-76724101D01*
X94897228Y-76725522D01*
X94897231Y-76725523D01*
X95144853Y-76806698D01*
X95144859Y-76806699D01*
X95149186Y-76808118D01*
X95153677Y-76808898D01*
X95153678Y-76808898D01*
X95411140Y-76853601D01*
X95411148Y-76853602D01*
X95414921Y-76854257D01*
X95418758Y-76854448D01*
X95498578Y-76858422D01*
X95498586Y-76858422D01*
X95500149Y-76858500D01*
X95668512Y-76858500D01*
X95670780Y-76858335D01*
X95670792Y-76858335D01*
X95801884Y-76848823D01*
X95869004Y-76843953D01*
X95873459Y-76842969D01*
X95873462Y-76842969D01*
X96127912Y-76786791D01*
X96127916Y-76786790D01*
X96132372Y-76785806D01*
X96284315Y-76728240D01*
X96380318Y-76691868D01*
X96380321Y-76691867D01*
X96384588Y-76690250D01*
X96620368Y-76559286D01*
X96834773Y-76395657D01*
X97023312Y-76202792D01*
X97182034Y-75984730D01*
X97265190Y-75826676D01*
X97305490Y-75750079D01*
X97305493Y-75750073D01*
X97307615Y-75746039D01*
X97370378Y-75568312D01*
X97395902Y-75496033D01*
X97395902Y-75496032D01*
X97397425Y-75491720D01*
X97427534Y-75338960D01*
X97448700Y-75231572D01*
X97448701Y-75231566D01*
X97449581Y-75227100D01*
X97454324Y-75131829D01*
X97462764Y-74962292D01*
X97462764Y-74962286D01*
X97462991Y-74957723D01*
X97437375Y-74689231D01*
X97432658Y-74669951D01*
X97374355Y-74431688D01*
X97373269Y-74427250D01*
X97356546Y-74385963D01*
X99494757Y-74385963D01*
X99511175Y-74581483D01*
X99565258Y-74770091D01*
X99568076Y-74775574D01*
X99652123Y-74939113D01*
X99652126Y-74939117D01*
X99654944Y-74944601D01*
X99776818Y-75098369D01*
X99926238Y-75225535D01*
X99931616Y-75228541D01*
X99931618Y-75228542D01*
X99967932Y-75248837D01*
X100097513Y-75321257D01*
X100284118Y-75381889D01*
X100478946Y-75405121D01*
X100485081Y-75404649D01*
X100485083Y-75404649D01*
X100668434Y-75390541D01*
X100668438Y-75390540D01*
X100674576Y-75390068D01*
X100863556Y-75337303D01*
X101038689Y-75248837D01*
X101060788Y-75231572D01*
X101188453Y-75131829D01*
X101193303Y-75128040D01*
X101223084Y-75093539D01*
X101317485Y-74984173D01*
X101317485Y-74984172D01*
X101321509Y-74979511D01*
X101333887Y-74957723D01*
X101415378Y-74814272D01*
X101418425Y-74808909D01*
X101480358Y-74622732D01*
X101504949Y-74428071D01*
X101505341Y-74400000D01*
X101486194Y-74204728D01*
X101484413Y-74198829D01*
X101484412Y-74198824D01*
X101431265Y-74022793D01*
X101429484Y-74016894D01*
X101337370Y-73843653D01*
X101213361Y-73691602D01*
X101062180Y-73566535D01*
X100889585Y-73473213D01*
X100777432Y-73438496D01*
X100708039Y-73417015D01*
X100708036Y-73417014D01*
X100702152Y-73415193D01*
X100696027Y-73414549D01*
X100696026Y-73414549D01*
X100513147Y-73395327D01*
X100513146Y-73395327D01*
X100507019Y-73394683D01*
X100384383Y-73405844D01*
X100317759Y-73411907D01*
X100317758Y-73411907D01*
X100311618Y-73412466D01*
X100305704Y-73414207D01*
X100305702Y-73414207D01*
X100223176Y-73438496D01*
X100123393Y-73467864D01*
X100117928Y-73470721D01*
X99954972Y-73555912D01*
X99954968Y-73555915D01*
X99949512Y-73558767D01*
X99944712Y-73562627D01*
X99944711Y-73562627D01*
X99915551Y-73586072D01*
X99796600Y-73681711D01*
X99670480Y-73832016D01*
X99667516Y-73837408D01*
X99667513Y-73837412D01*
X99588813Y-73980567D01*
X99575956Y-74003954D01*
X99574095Y-74009821D01*
X99574094Y-74009823D01*
X99569980Y-74022793D01*
X99516628Y-74190978D01*
X99494757Y-74385963D01*
X97356546Y-74385963D01*
X97272015Y-74177267D01*
X97135735Y-73944518D01*
X97016614Y-73795565D01*
X96970136Y-73737447D01*
X96970135Y-73737445D01*
X96967284Y-73733881D01*
X96770191Y-73549766D01*
X96548584Y-73396032D01*
X96544501Y-73394001D01*
X96544498Y-73393999D01*
X96379606Y-73311967D01*
X96307106Y-73275899D01*
X96302772Y-73274478D01*
X96302769Y-73274477D01*
X96055147Y-73193302D01*
X96055141Y-73193301D01*
X96050814Y-73191882D01*
X96046322Y-73191102D01*
X95788860Y-73146399D01*
X95788852Y-73146398D01*
X95785079Y-73145743D01*
X95773817Y-73145182D01*
X95701422Y-73141578D01*
X95701414Y-73141578D01*
X95699851Y-73141500D01*
X95531488Y-73141500D01*
X95529220Y-73141665D01*
X95529208Y-73141665D01*
X95398116Y-73151177D01*
X95330996Y-73156047D01*
X95326541Y-73157031D01*
X95326538Y-73157031D01*
X95072088Y-73213209D01*
X95072084Y-73213210D01*
X95067628Y-73214194D01*
X95034181Y-73226866D01*
X94819682Y-73308132D01*
X94819679Y-73308133D01*
X94815412Y-73309750D01*
X94726106Y-73359355D01*
X94625579Y-73415193D01*
X94579632Y-73440714D01*
X94539436Y-73471391D01*
X94381301Y-73592076D01*
X94365227Y-73604343D01*
X94176688Y-73797208D01*
X94017966Y-74015270D01*
X93987317Y-74073524D01*
X93894510Y-74249921D01*
X93894507Y-74249927D01*
X93892385Y-74253961D01*
X93890865Y-74258266D01*
X93890863Y-74258270D01*
X93804098Y-74503967D01*
X93802575Y-74508280D01*
X93789357Y-74575344D01*
X93752140Y-74764169D01*
X93750419Y-74772900D01*
X93750192Y-74777453D01*
X93750192Y-74777456D01*
X93737521Y-75032000D01*
X93737009Y-75042277D01*
X93108500Y-75042277D01*
X93108500Y-74999974D01*
X93110000Y-74980589D01*
X93112310Y-74965756D01*
X93112310Y-74965752D01*
X93113691Y-74956883D01*
X93111442Y-74939685D01*
X93110609Y-74915744D01*
X93125476Y-74669951D01*
X93127310Y-74654846D01*
X93176617Y-74385780D01*
X93180258Y-74371007D01*
X93217990Y-74249921D01*
X93261642Y-74109836D01*
X93267036Y-74095614D01*
X93281625Y-74063200D01*
X93379302Y-73846169D01*
X93386370Y-73832701D01*
X93408820Y-73795565D01*
X93474040Y-73687677D01*
X93527892Y-73598594D01*
X93536536Y-73586072D01*
X93705234Y-73370744D01*
X93715324Y-73359355D01*
X93908746Y-73165933D01*
X93920134Y-73155843D01*
X93938441Y-73141500D01*
X94135475Y-72987134D01*
X94147995Y-72978492D01*
X94204408Y-72944389D01*
X94382093Y-72836974D01*
X94395565Y-72829904D01*
X94414831Y-72821233D01*
X94645012Y-72717636D01*
X94659230Y-72712244D01*
X94920401Y-72630860D01*
X94935174Y-72627219D01*
X95204239Y-72577911D01*
X95219343Y-72576077D01*
X95457866Y-72561649D01*
X95484849Y-72562918D01*
X95484855Y-72562918D01*
X95493724Y-72564299D01*
X95525602Y-72560131D01*
X95541813Y-72559068D01*
X119488565Y-72535558D01*
X119556705Y-72555493D01*
X119603250Y-72609103D01*
X119613423Y-72679367D01*
X119583993Y-72743977D01*
X119532918Y-72779540D01*
X119429126Y-72818450D01*
X119413295Y-72824385D01*
X119296739Y-72911739D01*
X119209385Y-73028295D01*
X119158255Y-73164684D01*
X119151500Y-73226866D01*
X119151500Y-75023134D01*
X119158255Y-75085316D01*
X119209385Y-75221705D01*
X119281742Y-75318250D01*
X119282630Y-75319435D01*
X119307478Y-75385941D01*
X119292425Y-75455324D01*
X119282632Y-75470562D01*
X119209385Y-75568295D01*
X119158255Y-75704684D01*
X119151500Y-75766866D01*
X119151500Y-77563134D01*
X119158255Y-77625316D01*
X119209385Y-77761705D01*
X119214771Y-77768891D01*
X119282942Y-77859852D01*
X119307790Y-77926358D01*
X119292737Y-77995741D01*
X119282942Y-78010982D01*
X119215214Y-78101351D01*
X119206676Y-78116946D01*
X119161522Y-78237394D01*
X119157895Y-78252649D01*
X119152369Y-78303514D01*
X119152000Y-78310328D01*
X119152000Y-78932885D01*
X119156475Y-78948124D01*
X119157865Y-78949329D01*
X119165548Y-78951000D01*
X123649884Y-78951000D01*
X123665123Y-78946525D01*
X123666328Y-78945135D01*
X123667999Y-78937452D01*
X123667999Y-78310331D01*
X123667629Y-78303510D01*
X123662105Y-78252648D01*
X123658479Y-78237396D01*
X123613324Y-78116946D01*
X123604786Y-78101351D01*
X123537058Y-78010982D01*
X123512210Y-77944475D01*
X123527263Y-77875093D01*
X123537058Y-77859852D01*
X123605229Y-77768891D01*
X123610615Y-77761705D01*
X123661745Y-77625316D01*
X123668500Y-77563134D01*
X123668500Y-76762856D01*
X123669578Y-76746409D01*
X123671092Y-76734908D01*
X123671529Y-76731590D01*
X123673156Y-76665000D01*
X123668924Y-76613524D01*
X123668500Y-76603200D01*
X123668500Y-75766866D01*
X123661745Y-75704684D01*
X123610615Y-75568295D01*
X123537370Y-75470564D01*
X123512522Y-75404059D01*
X123527575Y-75334676D01*
X123537370Y-75319435D01*
X123538258Y-75318250D01*
X123610615Y-75221705D01*
X123661745Y-75085316D01*
X123668500Y-75023134D01*
X123668500Y-74222856D01*
X123669578Y-74206409D01*
X123669799Y-74204728D01*
X123671529Y-74191590D01*
X123671611Y-74188240D01*
X123673074Y-74128365D01*
X123673074Y-74128361D01*
X123673156Y-74125000D01*
X123668924Y-74073524D01*
X123668500Y-74063200D01*
X123668500Y-73226866D01*
X123665581Y-73200000D01*
X127200000Y-73200000D01*
X127400000Y-78200000D01*
X135200000Y-78200000D01*
X135200000Y-73200000D01*
X127200000Y-73200000D01*
X123665581Y-73200000D01*
X123661745Y-73164684D01*
X123610615Y-73028295D01*
X123523261Y-72911739D01*
X123406705Y-72824385D01*
X123398296Y-72821233D01*
X123398295Y-72821232D01*
X123277046Y-72775778D01*
X123220281Y-72733137D01*
X123195581Y-72666575D01*
X123210788Y-72597226D01*
X123261074Y-72547108D01*
X123321151Y-72531796D01*
X138683380Y-72516714D01*
X139168929Y-72516237D01*
X139237070Y-72536172D01*
G37*
%TD.AperFunction*%
%TA.AperFunction,Conductor*%
G36*
X137229552Y-100178502D02*
G01*
X137276045Y-100232158D01*
X137284970Y-100286830D01*
X137287186Y-100286830D01*
X137287186Y-100293435D01*
X137286496Y-100300000D01*
X137287186Y-100306565D01*
X137305369Y-100479563D01*
X137306458Y-100489928D01*
X137365473Y-100671556D01*
X137368776Y-100677278D01*
X137368777Y-100677279D01*
X137393116Y-100719435D01*
X137460960Y-100836944D01*
X137534137Y-100918215D01*
X137564853Y-100982221D01*
X137566500Y-101002524D01*
X137566500Y-126466406D01*
X137546498Y-126534527D01*
X137492842Y-126581020D01*
X137422568Y-126591124D01*
X137357988Y-126561630D01*
X137351405Y-126555501D01*
X136312405Y-125516500D01*
X135135405Y-124339500D01*
X135101379Y-124277188D01*
X135098500Y-124250405D01*
X135098500Y-122252856D01*
X135099578Y-122236409D01*
X135101092Y-122224908D01*
X135101529Y-122221590D01*
X135103156Y-122155000D01*
X135098924Y-122103524D01*
X135098500Y-122093200D01*
X135098500Y-121256866D01*
X135091745Y-121194684D01*
X135040615Y-121058295D01*
X134953261Y-120941739D01*
X134836705Y-120854385D01*
X134700316Y-120803255D01*
X134638134Y-120796500D01*
X133754985Y-120796500D01*
X133753446Y-120796491D01*
X133650081Y-120795228D01*
X133650079Y-120795228D01*
X133644911Y-120795165D01*
X133639797Y-120795948D01*
X133636289Y-120796193D01*
X133627496Y-120796500D01*
X132841866Y-120796500D01*
X132779684Y-120803255D01*
X132643295Y-120854385D01*
X132589480Y-120894717D01*
X132545148Y-120927942D01*
X132478642Y-120952790D01*
X132409259Y-120937737D01*
X132394018Y-120927942D01*
X132303649Y-120860214D01*
X132288054Y-120851676D01*
X132167606Y-120806522D01*
X132152351Y-120802895D01*
X132101486Y-120797369D01*
X132094672Y-120797000D01*
X131472115Y-120797000D01*
X131456876Y-120801475D01*
X131455671Y-120802865D01*
X131454000Y-120810548D01*
X131454000Y-125294884D01*
X131458475Y-125310123D01*
X131459865Y-125311328D01*
X131467548Y-125312999D01*
X132094669Y-125312999D01*
X132101490Y-125312629D01*
X132152352Y-125307105D01*
X132167604Y-125303479D01*
X132288054Y-125258324D01*
X132303649Y-125249786D01*
X132394018Y-125182058D01*
X132460525Y-125157210D01*
X132529907Y-125172263D01*
X132545148Y-125182058D01*
X132643295Y-125255615D01*
X132779684Y-125306745D01*
X132841866Y-125313500D01*
X134265406Y-125313500D01*
X134333527Y-125333502D01*
X134354501Y-125350405D01*
X135905501Y-126901405D01*
X135939527Y-126963717D01*
X135934462Y-127034532D01*
X135891915Y-127091368D01*
X135825395Y-127116179D01*
X135816406Y-127116500D01*
X134744500Y-127116500D01*
X134676379Y-127096498D01*
X134629886Y-127042842D01*
X134618500Y-126990500D01*
X134618500Y-126501866D01*
X134611745Y-126439684D01*
X134560615Y-126303295D01*
X134473261Y-126186739D01*
X134356705Y-126099385D01*
X134220316Y-126048255D01*
X134158134Y-126041500D01*
X133321866Y-126041500D01*
X133259684Y-126048255D01*
X133252288Y-126051027D01*
X133252282Y-126051029D01*
X133148517Y-126089929D01*
X133077710Y-126095112D01*
X133060059Y-126089929D01*
X132957609Y-126051522D01*
X132942351Y-126047895D01*
X132891486Y-126042369D01*
X132884672Y-126042000D01*
X132742115Y-126042000D01*
X132726876Y-126046475D01*
X132725671Y-126047865D01*
X132724000Y-126055548D01*
X132724000Y-129439884D01*
X132728475Y-129455123D01*
X132729865Y-129456328D01*
X132737548Y-129457999D01*
X132884669Y-129457999D01*
X132891490Y-129457629D01*
X132942352Y-129452105D01*
X132957607Y-129448478D01*
X133060059Y-129410071D01*
X133130866Y-129404888D01*
X133148517Y-129410071D01*
X133252282Y-129448971D01*
X133252288Y-129448973D01*
X133259684Y-129451745D01*
X133321866Y-129458500D01*
X134158134Y-129458500D01*
X134220316Y-129451745D01*
X134356705Y-129400615D01*
X134473261Y-129313261D01*
X134560615Y-129196705D01*
X134611745Y-129060316D01*
X134618500Y-128998134D01*
X134618500Y-128509500D01*
X134638502Y-128441379D01*
X134692158Y-128394886D01*
X134744500Y-128383500D01*
X135722281Y-128383500D01*
X135790402Y-128403502D01*
X135815916Y-128425190D01*
X135864247Y-128478866D01*
X135906411Y-128509500D01*
X136001885Y-128578866D01*
X136018748Y-128591118D01*
X136024776Y-128593802D01*
X136024778Y-128593803D01*
X136187181Y-128666109D01*
X136193212Y-128668794D01*
X136279979Y-128687237D01*
X136373556Y-128707128D01*
X136373561Y-128707128D01*
X136380013Y-128708500D01*
X136440500Y-128708500D01*
X136508621Y-128728502D01*
X136555114Y-128782158D01*
X136566500Y-128834500D01*
X136566500Y-129585406D01*
X136546498Y-129653527D01*
X136529595Y-129674501D01*
X135224500Y-130979595D01*
X135162188Y-131013621D01*
X135135405Y-131016500D01*
X134744500Y-131016500D01*
X134676379Y-130996498D01*
X134629886Y-130942842D01*
X134618500Y-130890500D01*
X134618500Y-130401866D01*
X134611745Y-130339684D01*
X134560615Y-130203295D01*
X134473261Y-130086739D01*
X134356705Y-129999385D01*
X134220316Y-129948255D01*
X134158134Y-129941500D01*
X133321866Y-129941500D01*
X133259684Y-129948255D01*
X133252288Y-129951027D01*
X133252282Y-129951029D01*
X133149229Y-129989662D01*
X133078422Y-129994845D01*
X133060771Y-129989662D01*
X132957718Y-129951029D01*
X132957712Y-129951027D01*
X132950316Y-129948255D01*
X132888134Y-129941500D01*
X132489595Y-129941500D01*
X132421474Y-129921498D01*
X132400499Y-129904595D01*
X132159445Y-129663540D01*
X132125420Y-129601228D01*
X132130485Y-129530412D01*
X132173032Y-129473577D01*
X132213043Y-129453549D01*
X132213124Y-129453525D01*
X132214329Y-129452135D01*
X132216000Y-129444452D01*
X132216000Y-128022115D01*
X132211525Y-128006876D01*
X132210135Y-128005671D01*
X132202452Y-128004000D01*
X131072000Y-128004000D01*
X131003879Y-127983998D01*
X130957386Y-127930342D01*
X130946000Y-127878000D01*
X130946000Y-127477885D01*
X131454000Y-127477885D01*
X131458475Y-127493124D01*
X131459865Y-127494329D01*
X131467548Y-127496000D01*
X132197885Y-127496000D01*
X132213124Y-127491525D01*
X132214329Y-127490135D01*
X132216000Y-127482452D01*
X132216000Y-126060116D01*
X132211525Y-126044877D01*
X132210135Y-126043672D01*
X132202452Y-126042001D01*
X132055331Y-126042001D01*
X132048510Y-126042371D01*
X131997648Y-126047895D01*
X131982394Y-126051522D01*
X131879229Y-126090196D01*
X131808422Y-126095379D01*
X131790771Y-126090196D01*
X131687609Y-126051522D01*
X131672351Y-126047895D01*
X131621486Y-126042369D01*
X131614672Y-126042000D01*
X131472115Y-126042000D01*
X131456876Y-126046475D01*
X131455671Y-126047865D01*
X131454000Y-126055548D01*
X131454000Y-127477885D01*
X130946000Y-127477885D01*
X130946000Y-126060116D01*
X130941525Y-126044877D01*
X130940135Y-126043672D01*
X130932452Y-126042001D01*
X130785331Y-126042001D01*
X130778510Y-126042371D01*
X130727648Y-126047895D01*
X130712393Y-126051522D01*
X130609941Y-126089929D01*
X130539134Y-126095112D01*
X130521483Y-126089929D01*
X130417718Y-126051029D01*
X130417712Y-126051027D01*
X130410316Y-126048255D01*
X130348134Y-126041500D01*
X129511866Y-126041500D01*
X129449684Y-126048255D01*
X129442288Y-126051027D01*
X129442282Y-126051029D01*
X129338517Y-126089929D01*
X129267710Y-126095112D01*
X129250059Y-126089929D01*
X129147609Y-126051522D01*
X129132351Y-126047895D01*
X129081486Y-126042369D01*
X129074672Y-126042000D01*
X128932115Y-126042000D01*
X128916876Y-126046475D01*
X128915671Y-126047865D01*
X128914000Y-126055548D01*
X128914000Y-127878000D01*
X128893998Y-127946121D01*
X128840342Y-127992614D01*
X128788000Y-128004000D01*
X128546445Y-128004000D01*
X128478324Y-127983998D01*
X128431831Y-127930342D01*
X128420445Y-127878000D01*
X128420445Y-125439500D01*
X128440447Y-125371379D01*
X128494103Y-125324886D01*
X128546445Y-125313500D01*
X129558134Y-125313500D01*
X129620316Y-125306745D01*
X129756705Y-125255615D01*
X129854851Y-125182058D01*
X129921358Y-125157210D01*
X129990741Y-125172263D01*
X130005982Y-125182058D01*
X130096351Y-125249786D01*
X130111946Y-125258324D01*
X130232394Y-125303478D01*
X130247649Y-125307105D01*
X130298514Y-125312631D01*
X130305328Y-125313000D01*
X130927885Y-125313000D01*
X130943124Y-125308525D01*
X130944329Y-125307135D01*
X130946000Y-125299452D01*
X130946000Y-120815116D01*
X130941525Y-120799877D01*
X130940135Y-120798672D01*
X130932452Y-120797001D01*
X130305331Y-120797001D01*
X130298510Y-120797371D01*
X130247648Y-120802895D01*
X130232396Y-120806521D01*
X130111946Y-120851676D01*
X130096351Y-120860214D01*
X130005982Y-120927942D01*
X129939475Y-120952790D01*
X129870093Y-120937737D01*
X129854852Y-120927942D01*
X129810520Y-120894717D01*
X129756705Y-120854385D01*
X129620316Y-120803255D01*
X129558134Y-120796500D01*
X128674985Y-120796500D01*
X128673446Y-120796491D01*
X128570081Y-120795228D01*
X128570079Y-120795228D01*
X128564911Y-120795165D01*
X128559797Y-120795948D01*
X128556289Y-120796193D01*
X128547496Y-120796500D01*
X127761866Y-120796500D01*
X127699684Y-120803255D01*
X127563295Y-120854385D01*
X127446739Y-120941739D01*
X127359385Y-121058295D01*
X127308255Y-121194684D01*
X127301500Y-121256866D01*
X127301500Y-122075219D01*
X127300787Y-122088607D01*
X127297251Y-122121695D01*
X127297548Y-122126848D01*
X127297548Y-122126851D01*
X127301291Y-122191763D01*
X127301500Y-122199016D01*
X127301500Y-122570622D01*
X127281498Y-122638743D01*
X127277435Y-122644684D01*
X127275782Y-122646959D01*
X127270359Y-122652734D01*
X127266543Y-122659674D01*
X127266540Y-122659679D01*
X127260597Y-122670489D01*
X127249746Y-122687008D01*
X127237331Y-122703014D01*
X127234186Y-122710283D01*
X127234183Y-122710287D01*
X127219771Y-122743592D01*
X127214554Y-122754242D01*
X127193250Y-122792995D01*
X127191279Y-122800670D01*
X127191279Y-122800671D01*
X127188212Y-122812617D01*
X127181808Y-122831321D01*
X127181114Y-122832926D01*
X127173764Y-122849910D01*
X127172525Y-122857733D01*
X127172522Y-122857743D01*
X127166846Y-122893579D01*
X127164440Y-122905199D01*
X127153445Y-122948025D01*
X127153445Y-122968279D01*
X127151894Y-122987989D01*
X127148725Y-123007998D01*
X127149471Y-123015890D01*
X127152886Y-123052016D01*
X127153445Y-123063874D01*
X127153445Y-127789746D01*
X127133443Y-127857867D01*
X127079787Y-127904360D01*
X127009513Y-127914464D01*
X126944933Y-127884970D01*
X126938350Y-127878841D01*
X126870405Y-127810896D01*
X126836379Y-127748584D01*
X126833500Y-127721801D01*
X126833500Y-110414594D01*
X126853502Y-110346473D01*
X126870405Y-110325499D01*
X137000499Y-100195405D01*
X137062811Y-100161379D01*
X137089594Y-100158500D01*
X137161431Y-100158500D01*
X137229552Y-100178502D01*
G37*
%TD.AperFunction*%
%TA.AperFunction,Conductor*%
G36*
X115702458Y-96403647D02*
G01*
X115751938Y-96454560D01*
X115766500Y-96513361D01*
X115766500Y-98194618D01*
X115746498Y-98262739D01*
X115692842Y-98309232D01*
X115684731Y-98312599D01*
X115661707Y-98321231D01*
X115661704Y-98321232D01*
X115653295Y-98324385D01*
X115536739Y-98411739D01*
X115449385Y-98528295D01*
X115398255Y-98664684D01*
X115391500Y-98726866D01*
X115391500Y-99223134D01*
X115391869Y-99226531D01*
X115398255Y-99285316D01*
X115396116Y-99285548D01*
X115396166Y-99314512D01*
X115398748Y-99314793D01*
X115392369Y-99373514D01*
X115392000Y-99380328D01*
X115392000Y-99406885D01*
X115396475Y-99422124D01*
X115397865Y-99423329D01*
X115414991Y-99427054D01*
X115477303Y-99461078D01*
X115489037Y-99474612D01*
X115500522Y-99489937D01*
X115525368Y-99556444D01*
X115510314Y-99625826D01*
X115460139Y-99676055D01*
X115399694Y-99691500D01*
X114734500Y-99691500D01*
X114666379Y-99671498D01*
X114619886Y-99617842D01*
X114608500Y-99565500D01*
X114608500Y-97039595D01*
X114628502Y-96971474D01*
X114645405Y-96950499D01*
X114950501Y-96645404D01*
X115012813Y-96611379D01*
X115039596Y-96608500D01*
X115095487Y-96608500D01*
X115101939Y-96607128D01*
X115101944Y-96607128D01*
X115215661Y-96582956D01*
X115282288Y-96568794D01*
X115320581Y-96551745D01*
X115450722Y-96493803D01*
X115450724Y-96493802D01*
X115456752Y-96491118D01*
X115566440Y-96411425D01*
X115633306Y-96387567D01*
X115702458Y-96403647D01*
G37*
%TD.AperFunction*%
%TA.AperFunction,Conductor*%
G36*
X118937957Y-84938502D02*
G01*
X118984450Y-84992158D01*
X118994554Y-85062432D01*
X118965060Y-85127012D01*
X118948824Y-85142391D01*
X118943638Y-85145458D01*
X118929317Y-85159779D01*
X118914284Y-85172619D01*
X118897893Y-85184528D01*
X118879957Y-85206209D01*
X118869702Y-85218605D01*
X118861712Y-85227384D01*
X116007747Y-88081348D01*
X115999461Y-88088888D01*
X115992982Y-88093000D01*
X115987557Y-88098777D01*
X115946357Y-88142651D01*
X115943602Y-88145493D01*
X115923865Y-88165230D01*
X115921385Y-88168427D01*
X115913682Y-88177447D01*
X115883414Y-88209679D01*
X115879595Y-88216625D01*
X115879593Y-88216628D01*
X115873652Y-88227434D01*
X115862801Y-88243953D01*
X115850386Y-88259959D01*
X115847241Y-88267228D01*
X115847238Y-88267232D01*
X115832826Y-88300537D01*
X115827609Y-88311187D01*
X115806305Y-88349940D01*
X115804334Y-88357615D01*
X115804334Y-88357616D01*
X115801267Y-88369562D01*
X115794863Y-88388266D01*
X115786819Y-88406855D01*
X115785580Y-88414678D01*
X115785577Y-88414688D01*
X115779901Y-88450524D01*
X115777495Y-88462144D01*
X115768472Y-88497289D01*
X115766500Y-88504970D01*
X115766500Y-88525224D01*
X115764949Y-88544934D01*
X115761780Y-88564943D01*
X115762526Y-88572835D01*
X115765941Y-88608961D01*
X115766500Y-88620819D01*
X115766500Y-94886639D01*
X115746498Y-94954760D01*
X115692842Y-95001253D01*
X115622568Y-95011357D01*
X115566440Y-94988576D01*
X115456752Y-94908882D01*
X115450724Y-94906198D01*
X115450722Y-94906197D01*
X115288319Y-94833891D01*
X115288318Y-94833891D01*
X115282288Y-94831206D01*
X115188887Y-94811353D01*
X115101944Y-94792872D01*
X115101939Y-94792872D01*
X115095487Y-94791500D01*
X114904513Y-94791500D01*
X114898058Y-94792872D01*
X114898049Y-94792873D01*
X114885694Y-94795499D01*
X114814903Y-94790096D01*
X114758272Y-94747278D01*
X114733779Y-94680639D01*
X114733500Y-94672252D01*
X114733500Y-85914595D01*
X114753502Y-85846474D01*
X114770405Y-85825499D01*
X115640501Y-84955404D01*
X115702813Y-84921379D01*
X115729596Y-84918500D01*
X118869836Y-84918500D01*
X118937957Y-84938502D01*
G37*
%TD.AperFunction*%
%TD*%
M02*
