M48
INCH,TZ
T1C0.0157
T2C0.0394
T3C0.0402
%
G90
G05
T1
X36890Y-37087
X36929Y-34567
X36969Y-39488
X37008Y-30984
X37008Y-33150
X37008Y-44291
X37047Y-41890
X37047Y-46772
X37047Y-50197
X37087Y-49213
X38815Y-28816
X38858Y-50709
X39488Y-38819
X39528Y-31654
X39528Y-34055
X39528Y-36299
X39528Y-48701
X39567Y-41417
X39567Y-46220
X39606Y-43858
X40315Y-52205
X40945Y-28937
X41654Y-51063
X42362Y-43268
X42480Y-45669
X42717Y-52205
X43110Y-47717
X43176Y-50305
X43425Y-28898
X43740Y-37087
X43780Y-34606
X43858Y-31693
X44606Y-37677
X44606Y-40354
X44724Y-44291
X44803Y-47559
X44803Y-52126
X45157Y-39213
X45236Y-42402
X45236Y-45906
X45276Y-37677
X45591Y-33937
X45827Y-44252
X46024Y-28937
X46654Y-50472
X46850Y-52126
X47559Y-49134
X49134Y-33150
X49283Y-29046
X49370Y-38819
X49370Y-41772
X49409Y-36142
X49449Y-52126
X50866Y-46614
X50984Y-37323
X51063Y-40276
X52126Y-41811
X52244Y-46496
X52756Y-32362
X52835Y-38150
X53264Y-34543
X53465Y-41417
X53583Y-46732
X53701Y-40118
X53731Y-50315
X53819Y-29016
X54094Y-29898
X54094Y-30468
X54173Y-52047
X54370Y-50354
X54409Y-38858
X54409Y-39488
X55354Y-49331
X55433Y-51969
X56496Y-50709
X57087Y-30512
X58307Y-31417
X58307Y-33583
X58307Y-35433
X58346Y-37283
X58346Y-49921
X58386Y-39685
X58386Y-41299
X58386Y-43268
X58386Y-45079
X58386Y-46732
X58386Y-48228
T2
X40669Y-34039
X40669Y-35039
X40669Y-36480
X40669Y-37480
X40669Y-38921
X40669Y-39921
X40669Y-41362
X40669Y-42362
X40669Y-43803
X40669Y-44803
X40669Y-46244
X40669Y-47244
X40669Y-48685
X40669Y-49685
X40679Y-31608
X40679Y-32608
X44236Y-48661
X45236Y-48661
T3
X48154Y-29183
X48154Y-30183
X48154Y-31183
X48154Y-32183
X48154Y-33183
X48154Y-34183
X48154Y-35183
X48154Y-36183
X48154Y-37183
X48154Y-38183
X48154Y-39183
X48154Y-40183
X48154Y-41183
X48154Y-42183
X48154Y-43183
X48154Y-44183
X48154Y-45183
X48154Y-46183
X48154Y-47183
X48154Y-48183
X50654Y-48093
X51654Y-48093
X52654Y-48093
X55154Y-29183
X55154Y-30183
X55154Y-31183
X55154Y-32183
X55154Y-33183
X55154Y-34183
X55154Y-35183
X55154Y-36183
X55154Y-37183
X55154Y-38183
X55154Y-39183
X55154Y-40183
X55154Y-41183
X55154Y-42183
X55154Y-43183
X55154Y-44183
X55154Y-45183
X55154Y-46183
X55154Y-47183
X55154Y-48183
T0
M30
