%TF.GenerationSoftware,KiCad,Pcbnew,(6.0.7)*%
%TF.CreationDate,2023-03-24T10:01:00+01:00*%
%TF.ProjectId,PicoWS2812,5069636f-5753-4323-9831-322e6b696361,rev?*%
%TF.SameCoordinates,Original*%
%TF.FileFunction,Copper,L2,Bot*%
%TF.FilePolarity,Positive*%
%FSLAX46Y46*%
G04 Gerber Fmt 4.6, Leading zero omitted, Abs format (unit mm)*
G04 Created by KiCad (PCBNEW (6.0.7)) date 2023-03-24 10:01:00*
%MOMM*%
%LPD*%
G01*
G04 APERTURE LIST*
%TA.AperFunction,ComponentPad*%
%ADD10R,1.700000X1.700000*%
%TD*%
%TA.AperFunction,ComponentPad*%
%ADD11O,1.700000X1.700000*%
%TD*%
%TA.AperFunction,ViaPad*%
%ADD12C,0.800000*%
%TD*%
%TA.AperFunction,Conductor*%
%ADD13C,0.250000*%
%TD*%
G04 APERTURE END LIST*
D10*
%TO.P,J3,1,Pin_1*%
%TO.N,Net-(J3-Pad1)*%
X103300000Y-95200000D03*
D11*
%TO.P,J3,2,Pin_2*%
%TO.N,GND*%
X103300000Y-92660000D03*
%TD*%
D10*
%TO.P,J7,1,Pin_1*%
%TO.N,Net-(J7-Pad1)*%
X103300000Y-120000000D03*
D11*
%TO.P,J7,2,Pin_2*%
%TO.N,GND*%
X103300000Y-117460000D03*
%TD*%
D10*
%TO.P,J2,1,Pin_1*%
%TO.N,Net-(J2-Pad1)*%
X103300000Y-89000000D03*
D11*
%TO.P,J2,2,Pin_2*%
%TO.N,GND*%
X103300000Y-86460000D03*
%TD*%
D10*
%TO.P,J5,1,Pin_1*%
%TO.N,Net-(J5-Pad1)*%
X103300000Y-107600000D03*
D11*
%TO.P,J5,2,Pin_2*%
%TO.N,GND*%
X103300000Y-105060000D03*
%TD*%
D10*
%TO.P,J9,1,Pin_1*%
%TO.N,5V*%
X114900000Y-123600000D03*
D11*
%TO.P,J9,2,Pin_2*%
%TO.N,GND*%
X112360000Y-123600000D03*
%TD*%
%TO.P,U2,1,GPIO0*%
%TO.N,unconnected-(U2-Pad1)*%
X122310000Y-74125000D03*
%TO.P,U2,2,GPIO1*%
%TO.N,unconnected-(U2-Pad2)*%
X122310000Y-76665000D03*
D10*
%TO.P,U2,3,GND*%
%TO.N,GND*%
X122310000Y-79205000D03*
D11*
%TO.P,U2,4,GPIO2*%
%TO.N,Lane0*%
X122310000Y-81745000D03*
%TO.P,U2,5,GPIO3*%
%TO.N,Lane1*%
X122310000Y-84285000D03*
%TO.P,U2,6,GPIO4*%
%TO.N,Lane2*%
X122310000Y-86825000D03*
%TO.P,U2,7,GPIO5*%
%TO.N,Lane3*%
X122310000Y-89365000D03*
D10*
%TO.P,U2,8,GND*%
%TO.N,GND*%
X122310000Y-91905000D03*
D11*
%TO.P,U2,9,GPIO6*%
%TO.N,Lane4*%
X122310000Y-94445000D03*
%TO.P,U2,10,GPIO7*%
%TO.N,Lane5*%
X122310000Y-96985000D03*
%TO.P,U2,11,GPIO8*%
%TO.N,Lane6*%
X122310000Y-99525000D03*
%TO.P,U2,12,GPIO9*%
%TO.N,Lane7*%
X122310000Y-102065000D03*
D10*
%TO.P,U2,13,GND*%
%TO.N,GND*%
X122310000Y-104605000D03*
D11*
%TO.P,U2,14,GPIO10*%
%TO.N,unconnected-(U2-Pad14)*%
X122310000Y-107145000D03*
%TO.P,U2,15,GPIO11*%
%TO.N,unconnected-(U2-Pad15)*%
X122310000Y-109685000D03*
%TO.P,U2,16,GPIO12*%
%TO.N,unconnected-(U2-Pad16)*%
X122310000Y-112225000D03*
%TO.P,U2,17,GPIO13*%
%TO.N,unconnected-(U2-Pad17)*%
X122310000Y-114765000D03*
D10*
%TO.P,U2,18,GND*%
%TO.N,GND*%
X122310000Y-117305000D03*
D11*
%TO.P,U2,19,GPIO14*%
%TO.N,unconnected-(U2-Pad19)*%
X122310000Y-119845000D03*
%TO.P,U2,20,GPIO15*%
%TO.N,unconnected-(U2-Pad20)*%
X122310000Y-122385000D03*
%TO.P,U2,21,GPIO16*%
%TO.N,unconnected-(U2-Pad21)*%
X140090000Y-122385000D03*
%TO.P,U2,22,GPIO17*%
%TO.N,unconnected-(U2-Pad22)*%
X140090000Y-119845000D03*
D10*
%TO.P,U2,23,GND*%
%TO.N,GND*%
X140090000Y-117305000D03*
D11*
%TO.P,U2,24,GPIO18*%
%TO.N,unconnected-(U2-Pad24)*%
X140090000Y-114765000D03*
%TO.P,U2,25,GPIO19*%
%TO.N,unconnected-(U2-Pad25)*%
X140090000Y-112225000D03*
%TO.P,U2,26,GPIO20*%
%TO.N,unconnected-(U2-Pad26)*%
X140090000Y-109685000D03*
%TO.P,U2,27,GPIO21*%
%TO.N,unconnected-(U2-Pad27)*%
X140090000Y-107145000D03*
D10*
%TO.P,U2,28,GND*%
%TO.N,GND*%
X140090000Y-104605000D03*
D11*
%TO.P,U2,29,GPIO22*%
%TO.N,unconnected-(U2-Pad29)*%
X140090000Y-102065000D03*
%TO.P,U2,30,RUN*%
%TO.N,Reset*%
X140090000Y-99525000D03*
%TO.P,U2,31,GPIO26_ADC0*%
%TO.N,unconnected-(U2-Pad31)*%
X140090000Y-96985000D03*
%TO.P,U2,32,GPIO27_ADC1*%
%TO.N,unconnected-(U2-Pad32)*%
X140090000Y-94445000D03*
D10*
%TO.P,U2,33,AGND*%
%TO.N,unconnected-(U2-Pad33)*%
X140090000Y-91905000D03*
D11*
%TO.P,U2,34,GPIO28_ADC2*%
%TO.N,unconnected-(U2-Pad34)*%
X140090000Y-89365000D03*
%TO.P,U2,35,ADC_VREF*%
%TO.N,+3.3V*%
X140090000Y-86825000D03*
%TO.P,U2,36,3V3*%
X140090000Y-84285000D03*
%TO.P,U2,37,3V3_EN*%
%TO.N,unconnected-(U2-Pad37)*%
X140090000Y-81745000D03*
D10*
%TO.P,U2,38,GND*%
%TO.N,GND*%
X140090000Y-79205000D03*
D11*
%TO.P,U2,39,VSYS*%
%TO.N,+5V*%
X140090000Y-76665000D03*
%TO.P,U2,40,VBUS*%
%TO.N,Net-(Q1-Pad1)*%
X140090000Y-74125000D03*
%TO.P,U2,41,SWCLK*%
%TO.N,Net-(U1-Pad4)*%
X128660000Y-122155000D03*
D10*
%TO.P,U2,42,GND*%
%TO.N,GND*%
X131200000Y-122155000D03*
D11*
%TO.P,U2,43,SWDIO*%
%TO.N,Net-(U1-Pad2)*%
X133740000Y-122155000D03*
%TD*%
D10*
%TO.P,J1,1,Pin_1*%
%TO.N,Net-(J1-Pad1)*%
X103325000Y-82825000D03*
D11*
%TO.P,J1,2,Pin_2*%
%TO.N,GND*%
X103325000Y-80285000D03*
%TD*%
D10*
%TO.P,J6,1,Pin_1*%
%TO.N,Net-(J6-Pad1)*%
X103300000Y-113800000D03*
D11*
%TO.P,J6,2,Pin_2*%
%TO.N,GND*%
X103300000Y-111260000D03*
%TD*%
D10*
%TO.P,J8,1,Pin_1*%
%TO.N,Net-(J8-Pad1)*%
X103300000Y-126200000D03*
D11*
%TO.P,J8,2,Pin_2*%
%TO.N,GND*%
X103300000Y-123660000D03*
%TD*%
D10*
%TO.P,J4,1,Pin_1*%
%TO.N,Net-(J4-Pad1)*%
X103300000Y-101400000D03*
D11*
%TO.P,J4,2,Pin_2*%
%TO.N,GND*%
X103300000Y-98860000D03*
%TD*%
D12*
%TO.N,GND*%
X148300000Y-100800000D03*
X136100000Y-118700000D03*
X125177982Y-73777982D03*
X129500000Y-94800000D03*
X102400000Y-132600000D03*
X94100000Y-118800000D03*
X105800000Y-129700000D03*
X113300000Y-102500000D03*
X114900000Y-107700000D03*
X136700000Y-73700000D03*
X100600000Y-111400000D03*
X148300000Y-118700000D03*
X93800000Y-87800000D03*
X148100000Y-90000000D03*
X108500000Y-132600000D03*
X135289509Y-87740462D03*
X110300000Y-73400000D03*
X109668299Y-127773602D03*
X111200000Y-87900000D03*
X125500000Y-91800000D03*
X148200000Y-94700000D03*
X94000000Y-84200000D03*
X134200000Y-96900000D03*
X148100000Y-85300000D03*
X134000000Y-82200000D03*
X104000000Y-73500000D03*
X113800000Y-132400000D03*
X116900000Y-73500000D03*
X93700000Y-94200000D03*
X140800000Y-132000000D03*
X114900000Y-116600000D03*
X120800000Y-124800000D03*
X109500000Y-121200000D03*
X113600000Y-112500000D03*
X135800000Y-105200000D03*
X145000000Y-77500000D03*
X124800000Y-84200000D03*
X93900000Y-100300000D03*
X116400000Y-112400000D03*
X132400000Y-106200000D03*
X137600000Y-132200000D03*
X100400000Y-123700000D03*
X148200000Y-126800000D03*
X119000000Y-132400000D03*
X148100000Y-79800000D03*
X100500000Y-105200000D03*
X111100000Y-94200000D03*
X100300000Y-98600000D03*
X129200000Y-118400000D03*
X107600000Y-109900000D03*
X143500000Y-128800000D03*
X148300000Y-122500000D03*
X98700000Y-128800000D03*
X148300000Y-114500000D03*
X125400000Y-106100000D03*
X111400000Y-80500000D03*
X100400000Y-92200000D03*
X125600000Y-132400000D03*
X94000000Y-78700000D03*
X118500000Y-128200000D03*
X129700000Y-102300000D03*
X148300000Y-109900000D03*
X94100000Y-106400000D03*
X94000000Y-112500000D03*
X148300000Y-104900000D03*
X136400000Y-101900000D03*
X100400000Y-80400000D03*
X115800000Y-86200000D03*
X140600000Y-125300000D03*
X94100000Y-127500000D03*
X125400000Y-98600000D03*
X113800000Y-120800000D03*
X100400000Y-86500000D03*
X100500000Y-117400000D03*
X98590894Y-73193371D03*
X94200000Y-125000000D03*
X107900000Y-116000000D03*
X132700000Y-118100000D03*
X114700000Y-99600000D03*
%TO.N,Lane0*%
X113300000Y-95700000D03*
X115000000Y-95700000D03*
%TO.N,+3.3V*%
X138200000Y-100300000D03*
X138100000Y-127900000D03*
X136475500Y-127800000D03*
X138200000Y-98700000D03*
%TO.N,Net-(Q1-Pad1)*%
X137400000Y-75940500D03*
X137400000Y-77389500D03*
%TD*%
D13*
%TO.N,Lane0*%
X113300000Y-95700000D02*
X115000000Y-95700000D01*
%TO.N,+3.3V*%
X136575500Y-127900000D02*
X136475500Y-127800000D01*
X138200000Y-98700000D02*
X138200000Y-100300000D01*
X138100000Y-127900000D02*
X136575500Y-127900000D01*
%TO.N,Net-(Q1-Pad1)*%
X137400000Y-75940500D02*
X137400000Y-77389500D01*
%TD*%
%TA.AperFunction,Conductor*%
%TO.N,GND*%
G36*
X147019722Y-72510049D02*
G01*
X147034241Y-72512309D01*
X147043117Y-72513691D01*
X147060315Y-72511442D01*
X147084256Y-72510609D01*
X147330049Y-72525476D01*
X147345154Y-72527310D01*
X147614220Y-72576617D01*
X147628993Y-72580258D01*
X147890164Y-72661642D01*
X147904382Y-72667034D01*
X148153831Y-72779302D01*
X148167296Y-72786368D01*
X148239313Y-72829904D01*
X148401406Y-72927892D01*
X148413928Y-72936536D01*
X148462529Y-72974612D01*
X148625805Y-73102530D01*
X148629256Y-73105234D01*
X148640645Y-73115324D01*
X148834067Y-73308746D01*
X148844157Y-73320134D01*
X148940798Y-73443486D01*
X149012865Y-73535473D01*
X149021507Y-73547994D01*
X149107789Y-73690720D01*
X149163025Y-73782092D01*
X149170095Y-73795563D01*
X149192466Y-73845268D01*
X149282362Y-74045008D01*
X149287756Y-74059230D01*
X149329001Y-74191590D01*
X149369140Y-74320401D01*
X149372781Y-74335174D01*
X149422089Y-74604239D01*
X149423923Y-74619343D01*
X149438351Y-74857866D01*
X149437083Y-74884843D01*
X149437083Y-74884849D01*
X149435701Y-74893724D01*
X149439881Y-74925689D01*
X149439902Y-74925849D01*
X149440965Y-74941960D01*
X149540804Y-131050973D01*
X149539304Y-131070581D01*
X149537082Y-131084849D01*
X149537082Y-131084856D01*
X149535701Y-131093724D01*
X149537950Y-131110919D01*
X149538783Y-131134863D01*
X149523915Y-131380656D01*
X149522081Y-131395760D01*
X149472773Y-131664824D01*
X149469132Y-131679597D01*
X149418911Y-131840764D01*
X149387750Y-131940762D01*
X149382356Y-131954985D01*
X149338901Y-132051537D01*
X149270089Y-132204432D01*
X149263019Y-132217904D01*
X149160031Y-132388265D01*
X149121502Y-132452000D01*
X149112859Y-132464522D01*
X148944151Y-132679861D01*
X148934061Y-132691249D01*
X148740640Y-132884670D01*
X148729251Y-132894760D01*
X148513923Y-133063458D01*
X148501401Y-133072102D01*
X148267296Y-133213623D01*
X148253841Y-133220685D01*
X148004374Y-133332961D01*
X147990157Y-133338352D01*
X147728991Y-133419734D01*
X147714218Y-133423375D01*
X147445153Y-133472682D01*
X147430048Y-133474516D01*
X147191451Y-133488948D01*
X147164812Y-133487695D01*
X147164548Y-133487692D01*
X147155669Y-133486309D01*
X147124721Y-133490356D01*
X147108143Y-133491420D01*
X95549725Y-133391595D01*
X95530598Y-133390096D01*
X95506276Y-133386309D01*
X95489077Y-133388558D01*
X95465137Y-133389391D01*
X95219344Y-133374523D01*
X95204240Y-133372689D01*
X94935175Y-133323381D01*
X94920402Y-133319740D01*
X94805265Y-133283862D01*
X94659231Y-133238356D01*
X94645013Y-133232964D01*
X94395566Y-133120696D01*
X94382096Y-133113627D01*
X94147995Y-132972108D01*
X94135473Y-132963465D01*
X93920136Y-132794759D01*
X93908748Y-132784669D01*
X93715331Y-132591252D01*
X93705241Y-132579864D01*
X93536535Y-132364527D01*
X93527892Y-132352005D01*
X93386373Y-132117904D01*
X93379302Y-132104431D01*
X93357272Y-132055482D01*
X93267036Y-131854987D01*
X93261642Y-131840764D01*
X93256024Y-131822733D01*
X93180260Y-131579598D01*
X93176619Y-131564825D01*
X93127311Y-131295760D01*
X93125477Y-131280656D01*
X93111269Y-131045767D01*
X93111454Y-131042277D01*
X93737009Y-131042277D01*
X93762625Y-131310769D01*
X93763710Y-131315203D01*
X93763711Y-131315209D01*
X93824792Y-131564825D01*
X93826731Y-131572750D01*
X93927985Y-131822733D01*
X94064265Y-132055482D01*
X94067118Y-132059049D01*
X94184686Y-132206060D01*
X94232716Y-132266119D01*
X94429809Y-132450234D01*
X94651416Y-132603968D01*
X94655499Y-132605999D01*
X94655502Y-132606001D01*
X94771013Y-132663466D01*
X94892894Y-132724101D01*
X94897228Y-132725522D01*
X94897231Y-132725523D01*
X95144853Y-132806698D01*
X95144859Y-132806699D01*
X95149186Y-132808118D01*
X95153677Y-132808898D01*
X95153678Y-132808898D01*
X95411140Y-132853601D01*
X95411148Y-132853602D01*
X95414921Y-132854257D01*
X95418758Y-132854448D01*
X95498578Y-132858422D01*
X95498586Y-132858422D01*
X95500149Y-132858500D01*
X95668512Y-132858500D01*
X95670780Y-132858335D01*
X95670792Y-132858335D01*
X95801884Y-132848823D01*
X95869004Y-132843953D01*
X95873459Y-132842969D01*
X95873462Y-132842969D01*
X96127912Y-132786791D01*
X96127916Y-132786790D01*
X96132372Y-132785806D01*
X96258480Y-132738028D01*
X96380318Y-132691868D01*
X96380321Y-132691867D01*
X96384588Y-132690250D01*
X96620368Y-132559286D01*
X96834773Y-132395657D01*
X97023312Y-132202792D01*
X97182034Y-131984730D01*
X97265190Y-131826676D01*
X97305490Y-131750079D01*
X97305493Y-131750073D01*
X97307615Y-131746039D01*
X97331079Y-131679597D01*
X97395902Y-131496033D01*
X97395902Y-131496032D01*
X97397425Y-131491720D01*
X97449581Y-131227100D01*
X97454830Y-131121667D01*
X97458782Y-131042277D01*
X145137009Y-131042277D01*
X145162625Y-131310769D01*
X145163710Y-131315203D01*
X145163711Y-131315209D01*
X145224792Y-131564825D01*
X145226731Y-131572750D01*
X145327985Y-131822733D01*
X145464265Y-132055482D01*
X145467118Y-132059049D01*
X145584686Y-132206060D01*
X145632716Y-132266119D01*
X145829809Y-132450234D01*
X146051416Y-132603968D01*
X146055499Y-132605999D01*
X146055502Y-132606001D01*
X146171013Y-132663466D01*
X146292894Y-132724101D01*
X146297228Y-132725522D01*
X146297231Y-132725523D01*
X146544853Y-132806698D01*
X146544859Y-132806699D01*
X146549186Y-132808118D01*
X146553677Y-132808898D01*
X146553678Y-132808898D01*
X146811140Y-132853601D01*
X146811148Y-132853602D01*
X146814921Y-132854257D01*
X146818758Y-132854448D01*
X146898578Y-132858422D01*
X146898586Y-132858422D01*
X146900149Y-132858500D01*
X147068512Y-132858500D01*
X147070780Y-132858335D01*
X147070792Y-132858335D01*
X147201884Y-132848823D01*
X147269004Y-132843953D01*
X147273459Y-132842969D01*
X147273462Y-132842969D01*
X147527912Y-132786791D01*
X147527916Y-132786790D01*
X147532372Y-132785806D01*
X147658480Y-132738028D01*
X147780318Y-132691868D01*
X147780321Y-132691867D01*
X147784588Y-132690250D01*
X148020368Y-132559286D01*
X148234773Y-132395657D01*
X148423312Y-132202792D01*
X148582034Y-131984730D01*
X148665190Y-131826676D01*
X148705490Y-131750079D01*
X148705493Y-131750073D01*
X148707615Y-131746039D01*
X148731079Y-131679597D01*
X148795902Y-131496033D01*
X148795902Y-131496032D01*
X148797425Y-131491720D01*
X148849581Y-131227100D01*
X148854830Y-131121667D01*
X148862764Y-130962292D01*
X148862764Y-130962286D01*
X148862991Y-130957723D01*
X148837375Y-130689231D01*
X148792042Y-130503967D01*
X148774355Y-130431688D01*
X148773269Y-130427250D01*
X148672015Y-130177267D01*
X148535735Y-129944518D01*
X148417928Y-129797208D01*
X148370136Y-129737447D01*
X148370135Y-129737445D01*
X148367284Y-129733881D01*
X148170191Y-129549766D01*
X147948584Y-129396032D01*
X147944501Y-129394001D01*
X147944498Y-129393999D01*
X147779606Y-129311967D01*
X147707106Y-129275899D01*
X147702772Y-129274478D01*
X147702769Y-129274477D01*
X147455147Y-129193302D01*
X147455141Y-129193301D01*
X147450814Y-129191882D01*
X147446322Y-129191102D01*
X147188860Y-129146399D01*
X147188852Y-129146398D01*
X147185079Y-129145743D01*
X147173817Y-129145182D01*
X147101422Y-129141578D01*
X147101414Y-129141578D01*
X147099851Y-129141500D01*
X146931488Y-129141500D01*
X146929220Y-129141665D01*
X146929208Y-129141665D01*
X146798116Y-129151177D01*
X146730996Y-129156047D01*
X146726541Y-129157031D01*
X146726538Y-129157031D01*
X146472088Y-129213209D01*
X146472084Y-129213210D01*
X146467628Y-129214194D01*
X146341520Y-129261972D01*
X146219682Y-129308132D01*
X146219679Y-129308133D01*
X146215412Y-129309750D01*
X145979632Y-129440714D01*
X145765227Y-129604343D01*
X145576688Y-129797208D01*
X145417966Y-130015270D01*
X145415844Y-130019304D01*
X145294510Y-130249921D01*
X145294507Y-130249927D01*
X145292385Y-130253961D01*
X145290865Y-130258266D01*
X145290863Y-130258270D01*
X145204098Y-130503967D01*
X145202575Y-130508280D01*
X145150419Y-130772900D01*
X145150192Y-130777453D01*
X145150192Y-130777456D01*
X145138008Y-131022216D01*
X145137009Y-131042277D01*
X97458782Y-131042277D01*
X97462764Y-130962292D01*
X97462764Y-130962286D01*
X97462991Y-130957723D01*
X97437375Y-130689231D01*
X97392042Y-130503967D01*
X97374355Y-130431688D01*
X97373269Y-130427250D01*
X97272015Y-130177267D01*
X97135735Y-129944518D01*
X97017928Y-129797208D01*
X96970136Y-129737447D01*
X96970135Y-129737445D01*
X96967284Y-129733881D01*
X96770191Y-129549766D01*
X96548584Y-129396032D01*
X96544501Y-129394001D01*
X96544498Y-129393999D01*
X96379606Y-129311967D01*
X96307106Y-129275899D01*
X96302772Y-129274478D01*
X96302769Y-129274477D01*
X96055147Y-129193302D01*
X96055141Y-129193301D01*
X96050814Y-129191882D01*
X96046322Y-129191102D01*
X95788860Y-129146399D01*
X95788852Y-129146398D01*
X95785079Y-129145743D01*
X95773817Y-129145182D01*
X95701422Y-129141578D01*
X95701414Y-129141578D01*
X95699851Y-129141500D01*
X95531488Y-129141500D01*
X95529220Y-129141665D01*
X95529208Y-129141665D01*
X95398116Y-129151177D01*
X95330996Y-129156047D01*
X95326541Y-129157031D01*
X95326538Y-129157031D01*
X95072088Y-129213209D01*
X95072084Y-129213210D01*
X95067628Y-129214194D01*
X94941520Y-129261972D01*
X94819682Y-129308132D01*
X94819679Y-129308133D01*
X94815412Y-129309750D01*
X94579632Y-129440714D01*
X94365227Y-129604343D01*
X94176688Y-129797208D01*
X94017966Y-130015270D01*
X94015844Y-130019304D01*
X93894510Y-130249921D01*
X93894507Y-130249927D01*
X93892385Y-130253961D01*
X93890865Y-130258266D01*
X93890863Y-130258270D01*
X93804098Y-130503967D01*
X93802575Y-130508280D01*
X93750419Y-130772900D01*
X93750192Y-130777453D01*
X93750192Y-130777456D01*
X93738008Y-131022216D01*
X93737009Y-131042277D01*
X93111454Y-131042277D01*
X93112520Y-131022216D01*
X93112334Y-131022199D01*
X93112769Y-131017350D01*
X93113576Y-131012552D01*
X93113729Y-131000000D01*
X93109773Y-130972376D01*
X93108500Y-130954514D01*
X93108500Y-127800000D01*
X135561996Y-127800000D01*
X135581958Y-127989928D01*
X135640973Y-128171556D01*
X135736460Y-128336944D01*
X135864247Y-128478866D01*
X135963343Y-128550864D01*
X136007224Y-128582745D01*
X136018748Y-128591118D01*
X136024776Y-128593802D01*
X136024778Y-128593803D01*
X136187181Y-128666109D01*
X136193212Y-128668794D01*
X136279979Y-128687237D01*
X136373556Y-128707128D01*
X136373561Y-128707128D01*
X136380013Y-128708500D01*
X136570987Y-128708500D01*
X136577439Y-128707128D01*
X136577444Y-128707128D01*
X136671021Y-128687237D01*
X136757788Y-128668794D01*
X136763819Y-128666109D01*
X136926222Y-128593803D01*
X136926224Y-128593802D01*
X136932252Y-128591118D01*
X136943777Y-128582745D01*
X136978435Y-128557564D01*
X137045303Y-128533706D01*
X137052496Y-128533500D01*
X137391800Y-128533500D01*
X137459921Y-128553502D01*
X137479147Y-128569843D01*
X137479420Y-128569540D01*
X137484332Y-128573963D01*
X137488747Y-128578866D01*
X137643248Y-128691118D01*
X137649276Y-128693802D01*
X137649278Y-128693803D01*
X137811681Y-128766109D01*
X137817712Y-128768794D01*
X137911112Y-128788647D01*
X137998056Y-128807128D01*
X137998061Y-128807128D01*
X138004513Y-128808500D01*
X138195487Y-128808500D01*
X138201939Y-128807128D01*
X138201944Y-128807128D01*
X138288888Y-128788647D01*
X138382288Y-128768794D01*
X138388319Y-128766109D01*
X138550722Y-128693803D01*
X138550724Y-128693802D01*
X138556752Y-128691118D01*
X138711253Y-128578866D01*
X138719650Y-128569540D01*
X138834621Y-128441852D01*
X138834622Y-128441851D01*
X138839040Y-128436944D01*
X138934527Y-128271556D01*
X138993542Y-128089928D01*
X139003393Y-127996206D01*
X139012814Y-127906565D01*
X139013504Y-127900000D01*
X138993542Y-127710072D01*
X138934527Y-127528444D01*
X138839040Y-127363056D01*
X138779298Y-127296705D01*
X138715675Y-127226045D01*
X138715674Y-127226044D01*
X138711253Y-127221134D01*
X138580375Y-127126045D01*
X138562094Y-127112763D01*
X138562093Y-127112762D01*
X138556752Y-127108882D01*
X138550724Y-127106198D01*
X138550722Y-127106197D01*
X138388319Y-127033891D01*
X138388318Y-127033891D01*
X138382288Y-127031206D01*
X138288887Y-127011353D01*
X138201944Y-126992872D01*
X138201939Y-126992872D01*
X138195487Y-126991500D01*
X138004513Y-126991500D01*
X137998061Y-126992872D01*
X137998056Y-126992872D01*
X137911113Y-127011353D01*
X137817712Y-127031206D01*
X137811682Y-127033891D01*
X137811681Y-127033891D01*
X137649278Y-127106197D01*
X137649276Y-127106198D01*
X137643248Y-127108882D01*
X137637907Y-127112762D01*
X137637906Y-127112763D01*
X137619625Y-127126045D01*
X137488747Y-127221134D01*
X137484332Y-127226037D01*
X137479420Y-127230460D01*
X137478295Y-127229211D01*
X137424986Y-127262051D01*
X137391800Y-127266500D01*
X137273739Y-127266500D01*
X137205618Y-127246498D01*
X137180103Y-127224810D01*
X137173301Y-127217255D01*
X137086753Y-127121134D01*
X136932252Y-127008882D01*
X136926224Y-127006198D01*
X136926222Y-127006197D01*
X136763819Y-126933891D01*
X136763818Y-126933891D01*
X136757788Y-126931206D01*
X136664387Y-126911353D01*
X136577444Y-126892872D01*
X136577439Y-126892872D01*
X136570987Y-126891500D01*
X136380013Y-126891500D01*
X136373561Y-126892872D01*
X136373556Y-126892872D01*
X136286613Y-126911353D01*
X136193212Y-126931206D01*
X136187182Y-126933891D01*
X136187181Y-126933891D01*
X136024778Y-127006197D01*
X136024776Y-127006198D01*
X136018748Y-127008882D01*
X135864247Y-127121134D01*
X135859826Y-127126044D01*
X135859825Y-127126045D01*
X135765810Y-127230460D01*
X135736460Y-127263056D01*
X135640973Y-127428444D01*
X135581958Y-127610072D01*
X135581268Y-127616633D01*
X135581268Y-127616635D01*
X135571448Y-127710072D01*
X135561996Y-127800000D01*
X93108500Y-127800000D01*
X93108500Y-127098134D01*
X101941500Y-127098134D01*
X101948255Y-127160316D01*
X101999385Y-127296705D01*
X102086739Y-127413261D01*
X102203295Y-127500615D01*
X102339684Y-127551745D01*
X102401866Y-127558500D01*
X104198134Y-127558500D01*
X104260316Y-127551745D01*
X104396705Y-127500615D01*
X104513261Y-127413261D01*
X104600615Y-127296705D01*
X104651745Y-127160316D01*
X104658500Y-127098134D01*
X104658500Y-125301866D01*
X104651745Y-125239684D01*
X104600615Y-125103295D01*
X104513261Y-124986739D01*
X104396705Y-124899385D01*
X104277687Y-124854767D01*
X104220923Y-124812125D01*
X104196223Y-124745564D01*
X104211430Y-124676215D01*
X104232977Y-124647535D01*
X104334052Y-124546812D01*
X104340730Y-124538965D01*
X104465003Y-124366020D01*
X104470313Y-124357183D01*
X104564670Y-124166267D01*
X104568469Y-124156672D01*
X104630377Y-123952910D01*
X104632555Y-123942837D01*
X104633986Y-123931962D01*
X104631775Y-123917778D01*
X104618617Y-123914000D01*
X101983225Y-123914000D01*
X101969694Y-123917973D01*
X101968257Y-123927966D01*
X101998565Y-124062446D01*
X102001645Y-124072275D01*
X102081770Y-124269603D01*
X102086413Y-124278794D01*
X102197694Y-124460388D01*
X102203777Y-124468699D01*
X102343213Y-124629667D01*
X102350577Y-124636879D01*
X102355522Y-124640985D01*
X102395156Y-124699889D01*
X102396653Y-124770870D01*
X102359537Y-124831392D01*
X102319264Y-124855910D01*
X102211705Y-124896232D01*
X102211704Y-124896233D01*
X102203295Y-124899385D01*
X102086739Y-124986739D01*
X101999385Y-125103295D01*
X101948255Y-125239684D01*
X101941500Y-125301866D01*
X101941500Y-127098134D01*
X93108500Y-127098134D01*
X93108500Y-123867966D01*
X111028257Y-123867966D01*
X111058565Y-124002446D01*
X111061645Y-124012275D01*
X111141770Y-124209603D01*
X111146413Y-124218794D01*
X111257694Y-124400388D01*
X111263777Y-124408699D01*
X111403213Y-124569667D01*
X111410580Y-124576883D01*
X111574434Y-124712916D01*
X111582881Y-124718831D01*
X111766756Y-124826279D01*
X111776042Y-124830729D01*
X111975001Y-124906703D01*
X111984899Y-124909579D01*
X112088250Y-124930606D01*
X112102299Y-124929410D01*
X112106000Y-124919065D01*
X112106000Y-124918517D01*
X112614000Y-124918517D01*
X112618064Y-124932359D01*
X112631478Y-124934393D01*
X112638184Y-124933534D01*
X112648262Y-124931392D01*
X112852255Y-124870191D01*
X112861842Y-124866433D01*
X113053095Y-124772739D01*
X113061945Y-124767464D01*
X113235328Y-124643792D01*
X113243193Y-124637145D01*
X113347897Y-124532805D01*
X113410268Y-124498889D01*
X113481075Y-124504077D01*
X113537837Y-124546723D01*
X113554819Y-124577826D01*
X113576957Y-124636879D01*
X113599385Y-124696705D01*
X113686739Y-124813261D01*
X113803295Y-124900615D01*
X113939684Y-124951745D01*
X114001866Y-124958500D01*
X115798134Y-124958500D01*
X115860316Y-124951745D01*
X115996705Y-124900615D01*
X116113261Y-124813261D01*
X116200615Y-124696705D01*
X116251745Y-124560316D01*
X116258500Y-124498134D01*
X116258500Y-122701866D01*
X116251745Y-122639684D01*
X116200615Y-122503295D01*
X116113261Y-122386739D01*
X116066502Y-122351695D01*
X120947251Y-122351695D01*
X120947548Y-122356848D01*
X120947548Y-122356851D01*
X120952921Y-122450036D01*
X120960110Y-122574715D01*
X120961247Y-122579761D01*
X120961248Y-122579767D01*
X120980007Y-122663004D01*
X121009222Y-122792639D01*
X121093266Y-122999616D01*
X121209987Y-123190088D01*
X121356250Y-123358938D01*
X121528126Y-123501632D01*
X121721000Y-123614338D01*
X121929692Y-123694030D01*
X121934760Y-123695061D01*
X121934763Y-123695062D01*
X122042017Y-123716883D01*
X122148597Y-123738567D01*
X122153772Y-123738757D01*
X122153774Y-123738757D01*
X122366673Y-123746564D01*
X122366677Y-123746564D01*
X122371837Y-123746753D01*
X122376957Y-123746097D01*
X122376959Y-123746097D01*
X122588288Y-123719025D01*
X122588289Y-123719025D01*
X122593416Y-123718368D01*
X122598366Y-123716883D01*
X122802429Y-123655661D01*
X122802434Y-123655659D01*
X122807384Y-123654174D01*
X123007994Y-123555896D01*
X123189860Y-123426173D01*
X123211781Y-123404329D01*
X123290488Y-123325896D01*
X123348096Y-123268489D01*
X123402679Y-123192529D01*
X123475435Y-123091277D01*
X123478453Y-123087077D01*
X123483341Y-123077188D01*
X123575136Y-122891453D01*
X123575137Y-122891451D01*
X123577430Y-122886811D01*
X123632583Y-122705283D01*
X123640865Y-122678023D01*
X123640865Y-122678021D01*
X123642370Y-122673069D01*
X123671529Y-122451590D01*
X123672638Y-122406209D01*
X123673074Y-122388365D01*
X123673074Y-122388361D01*
X123673156Y-122385000D01*
X123654852Y-122162361D01*
X123644637Y-122121695D01*
X127297251Y-122121695D01*
X127297548Y-122126848D01*
X127297548Y-122126851D01*
X127306557Y-122283102D01*
X127310110Y-122344715D01*
X127311247Y-122349761D01*
X127311248Y-122349767D01*
X127323968Y-122406209D01*
X127359222Y-122562639D01*
X127443266Y-122769616D01*
X127460307Y-122797425D01*
X127542544Y-122931623D01*
X127559987Y-122960088D01*
X127706250Y-123128938D01*
X127878126Y-123271632D01*
X128071000Y-123384338D01*
X128075825Y-123386180D01*
X128075826Y-123386181D01*
X128123351Y-123404329D01*
X128279692Y-123464030D01*
X128284760Y-123465061D01*
X128284763Y-123465062D01*
X128392017Y-123486883D01*
X128498597Y-123508567D01*
X128503772Y-123508757D01*
X128503774Y-123508757D01*
X128716673Y-123516564D01*
X128716677Y-123516564D01*
X128721837Y-123516753D01*
X128726957Y-123516097D01*
X128726959Y-123516097D01*
X128938288Y-123489025D01*
X128938289Y-123489025D01*
X128943416Y-123488368D01*
X128948366Y-123486883D01*
X129152429Y-123425661D01*
X129152434Y-123425659D01*
X129157384Y-123424174D01*
X129357994Y-123325896D01*
X129539860Y-123196173D01*
X129545967Y-123190088D01*
X129648479Y-123087933D01*
X129710851Y-123054017D01*
X129781658Y-123059205D01*
X129838419Y-123101851D01*
X129855401Y-123132954D01*
X129896676Y-123243054D01*
X129905214Y-123258649D01*
X129981715Y-123360724D01*
X129994276Y-123373285D01*
X130096351Y-123449786D01*
X130111946Y-123458324D01*
X130232394Y-123503478D01*
X130247649Y-123507105D01*
X130298514Y-123512631D01*
X130305328Y-123513000D01*
X130927885Y-123513000D01*
X130943124Y-123508525D01*
X130944329Y-123507135D01*
X130946000Y-123499452D01*
X130946000Y-123494884D01*
X131454000Y-123494884D01*
X131458475Y-123510123D01*
X131459865Y-123511328D01*
X131467548Y-123512999D01*
X132094669Y-123512999D01*
X132101490Y-123512629D01*
X132152352Y-123507105D01*
X132167604Y-123503479D01*
X132288054Y-123458324D01*
X132303649Y-123449786D01*
X132405724Y-123373285D01*
X132418285Y-123360724D01*
X132494786Y-123258649D01*
X132503324Y-123243054D01*
X132544225Y-123133952D01*
X132586867Y-123077188D01*
X132653428Y-123052488D01*
X132722777Y-123067696D01*
X132757444Y-123095684D01*
X132782865Y-123125031D01*
X132782869Y-123125035D01*
X132786250Y-123128938D01*
X132958126Y-123271632D01*
X133151000Y-123384338D01*
X133155825Y-123386180D01*
X133155826Y-123386181D01*
X133203351Y-123404329D01*
X133359692Y-123464030D01*
X133364760Y-123465061D01*
X133364763Y-123465062D01*
X133472017Y-123486883D01*
X133578597Y-123508567D01*
X133583772Y-123508757D01*
X133583774Y-123508757D01*
X133796673Y-123516564D01*
X133796677Y-123516564D01*
X133801837Y-123516753D01*
X133806957Y-123516097D01*
X133806959Y-123516097D01*
X134018288Y-123489025D01*
X134018289Y-123489025D01*
X134023416Y-123488368D01*
X134028366Y-123486883D01*
X134232429Y-123425661D01*
X134232434Y-123425659D01*
X134237384Y-123424174D01*
X134437994Y-123325896D01*
X134619860Y-123196173D01*
X134625967Y-123190088D01*
X134733993Y-123082438D01*
X134778096Y-123038489D01*
X134811773Y-122991623D01*
X134905435Y-122861277D01*
X134908453Y-122857077D01*
X134924427Y-122824757D01*
X135005136Y-122661453D01*
X135005137Y-122661451D01*
X135007430Y-122656811D01*
X135072370Y-122443069D01*
X135084400Y-122351695D01*
X138727251Y-122351695D01*
X138727548Y-122356848D01*
X138727548Y-122356851D01*
X138732921Y-122450036D01*
X138740110Y-122574715D01*
X138741247Y-122579761D01*
X138741248Y-122579767D01*
X138760007Y-122663004D01*
X138789222Y-122792639D01*
X138873266Y-122999616D01*
X138989987Y-123190088D01*
X139136250Y-123358938D01*
X139308126Y-123501632D01*
X139501000Y-123614338D01*
X139709692Y-123694030D01*
X139714760Y-123695061D01*
X139714763Y-123695062D01*
X139822017Y-123716883D01*
X139928597Y-123738567D01*
X139933772Y-123738757D01*
X139933774Y-123738757D01*
X140146673Y-123746564D01*
X140146677Y-123746564D01*
X140151837Y-123746753D01*
X140156957Y-123746097D01*
X140156959Y-123746097D01*
X140368288Y-123719025D01*
X140368289Y-123719025D01*
X140373416Y-123718368D01*
X140378366Y-123716883D01*
X140582429Y-123655661D01*
X140582434Y-123655659D01*
X140587384Y-123654174D01*
X140787994Y-123555896D01*
X140969860Y-123426173D01*
X140991781Y-123404329D01*
X141070488Y-123325896D01*
X141128096Y-123268489D01*
X141182679Y-123192529D01*
X141255435Y-123091277D01*
X141258453Y-123087077D01*
X141263341Y-123077188D01*
X141355136Y-122891453D01*
X141355137Y-122891451D01*
X141357430Y-122886811D01*
X141412583Y-122705283D01*
X141420865Y-122678023D01*
X141420865Y-122678021D01*
X141422370Y-122673069D01*
X141451529Y-122451590D01*
X141452638Y-122406209D01*
X141453074Y-122388365D01*
X141453074Y-122388361D01*
X141453156Y-122385000D01*
X141434852Y-122162361D01*
X141380431Y-121945702D01*
X141291354Y-121740840D01*
X141170014Y-121553277D01*
X141019670Y-121388051D01*
X141015619Y-121384852D01*
X141015615Y-121384848D01*
X140848414Y-121252800D01*
X140848410Y-121252798D01*
X140844359Y-121249598D01*
X140803053Y-121226796D01*
X140753084Y-121176364D01*
X140738312Y-121106921D01*
X140763428Y-121040516D01*
X140790780Y-121013909D01*
X140855542Y-120967715D01*
X140969860Y-120886173D01*
X141128096Y-120728489D01*
X141187594Y-120645689D01*
X141255435Y-120551277D01*
X141258453Y-120547077D01*
X141357430Y-120346811D01*
X141422370Y-120133069D01*
X141451529Y-119911590D01*
X141453156Y-119845000D01*
X141434852Y-119622361D01*
X141380431Y-119405702D01*
X141291354Y-119200840D01*
X141192180Y-119047540D01*
X141172822Y-119017617D01*
X141172820Y-119017614D01*
X141170014Y-119013277D01*
X141166540Y-119009459D01*
X141166533Y-119009450D01*
X141022435Y-118851088D01*
X140991383Y-118787242D01*
X140999779Y-118716744D01*
X141044956Y-118661976D01*
X141071400Y-118648307D01*
X141178052Y-118608325D01*
X141193649Y-118599786D01*
X141295724Y-118523285D01*
X141308285Y-118510724D01*
X141384786Y-118408649D01*
X141393324Y-118393054D01*
X141438478Y-118272606D01*
X141442105Y-118257351D01*
X141447631Y-118206486D01*
X141448000Y-118199672D01*
X141448000Y-117577115D01*
X141443525Y-117561876D01*
X141442135Y-117560671D01*
X141434452Y-117559000D01*
X138750116Y-117559000D01*
X138734877Y-117563475D01*
X138733672Y-117564865D01*
X138732001Y-117572548D01*
X138732001Y-118199669D01*
X138732371Y-118206490D01*
X138737895Y-118257352D01*
X138741521Y-118272604D01*
X138786676Y-118393054D01*
X138795214Y-118408649D01*
X138871715Y-118510724D01*
X138884276Y-118523285D01*
X138986351Y-118599786D01*
X139001946Y-118608324D01*
X139110827Y-118649142D01*
X139167591Y-118691784D01*
X139192291Y-118758345D01*
X139177083Y-118827694D01*
X139157691Y-118854175D01*
X139117618Y-118896109D01*
X139030629Y-118987138D01*
X139027715Y-118991410D01*
X139027714Y-118991411D01*
X138954684Y-119098469D01*
X138904743Y-119171680D01*
X138810688Y-119374305D01*
X138750989Y-119589570D01*
X138727251Y-119811695D01*
X138727548Y-119816848D01*
X138727548Y-119816851D01*
X138733011Y-119911590D01*
X138740110Y-120034715D01*
X138741247Y-120039761D01*
X138741248Y-120039767D01*
X138761119Y-120127939D01*
X138789222Y-120252639D01*
X138873266Y-120459616D01*
X138989987Y-120650088D01*
X139136250Y-120818938D01*
X139308126Y-120961632D01*
X139318536Y-120967715D01*
X139381445Y-121004476D01*
X139430169Y-121056114D01*
X139443240Y-121125897D01*
X139416509Y-121191669D01*
X139376055Y-121225027D01*
X139363607Y-121231507D01*
X139359474Y-121234610D01*
X139359471Y-121234612D01*
X139189100Y-121362530D01*
X139184965Y-121365635D01*
X139181393Y-121369373D01*
X139041665Y-121515590D01*
X139030629Y-121527138D01*
X138904743Y-121711680D01*
X138889003Y-121745590D01*
X138817528Y-121899570D01*
X138810688Y-121914305D01*
X138750989Y-122129570D01*
X138727251Y-122351695D01*
X135084400Y-122351695D01*
X135101529Y-122221590D01*
X135103156Y-122155000D01*
X135084852Y-121932361D01*
X135030431Y-121715702D01*
X134941354Y-121510840D01*
X134820014Y-121323277D01*
X134669670Y-121158051D01*
X134665619Y-121154852D01*
X134665615Y-121154848D01*
X134498414Y-121022800D01*
X134498410Y-121022798D01*
X134494359Y-121019598D01*
X134484054Y-121013909D01*
X134442136Y-120990769D01*
X134298789Y-120911638D01*
X134293920Y-120909914D01*
X134293916Y-120909912D01*
X134093087Y-120838795D01*
X134093083Y-120838794D01*
X134088212Y-120837069D01*
X134083119Y-120836162D01*
X134083116Y-120836161D01*
X133873373Y-120798800D01*
X133873367Y-120798799D01*
X133868284Y-120797894D01*
X133794452Y-120796992D01*
X133650081Y-120795228D01*
X133650079Y-120795228D01*
X133644911Y-120795165D01*
X133424091Y-120828955D01*
X133211756Y-120898357D01*
X133013607Y-121001507D01*
X133009474Y-121004610D01*
X133009471Y-121004612D01*
X132844658Y-121128357D01*
X132834965Y-121135635D01*
X132831393Y-121139373D01*
X132753898Y-121220466D01*
X132692374Y-121255895D01*
X132621462Y-121252438D01*
X132563676Y-121211192D01*
X132544823Y-121177644D01*
X132503324Y-121066946D01*
X132494786Y-121051351D01*
X132418285Y-120949276D01*
X132405724Y-120936715D01*
X132303649Y-120860214D01*
X132288054Y-120851676D01*
X132167606Y-120806522D01*
X132152351Y-120802895D01*
X132101486Y-120797369D01*
X132094672Y-120797000D01*
X131472115Y-120797000D01*
X131456876Y-120801475D01*
X131455671Y-120802865D01*
X131454000Y-120810548D01*
X131454000Y-123494884D01*
X130946000Y-123494884D01*
X130946000Y-120815116D01*
X130941525Y-120799877D01*
X130940135Y-120798672D01*
X130932452Y-120797001D01*
X130305331Y-120797001D01*
X130298510Y-120797371D01*
X130247648Y-120802895D01*
X130232396Y-120806521D01*
X130111946Y-120851676D01*
X130096351Y-120860214D01*
X129994276Y-120936715D01*
X129981715Y-120949276D01*
X129905214Y-121051351D01*
X129896676Y-121066946D01*
X129855297Y-121177322D01*
X129812655Y-121234087D01*
X129746093Y-121258786D01*
X129676744Y-121243578D01*
X129644121Y-121217891D01*
X129593151Y-121161876D01*
X129593145Y-121161870D01*
X129589670Y-121158051D01*
X129585619Y-121154852D01*
X129585615Y-121154848D01*
X129418414Y-121022800D01*
X129418410Y-121022798D01*
X129414359Y-121019598D01*
X129404054Y-121013909D01*
X129362136Y-120990769D01*
X129218789Y-120911638D01*
X129213920Y-120909914D01*
X129213916Y-120909912D01*
X129013087Y-120838795D01*
X129013083Y-120838794D01*
X129008212Y-120837069D01*
X129003119Y-120836162D01*
X129003116Y-120836161D01*
X128793373Y-120798800D01*
X128793367Y-120798799D01*
X128788284Y-120797894D01*
X128714452Y-120796992D01*
X128570081Y-120795228D01*
X128570079Y-120795228D01*
X128564911Y-120795165D01*
X128344091Y-120828955D01*
X128131756Y-120898357D01*
X127933607Y-121001507D01*
X127929474Y-121004610D01*
X127929471Y-121004612D01*
X127764658Y-121128357D01*
X127754965Y-121135635D01*
X127716043Y-121176364D01*
X127663348Y-121231507D01*
X127600629Y-121297138D01*
X127597715Y-121301410D01*
X127597714Y-121301411D01*
X127551354Y-121369373D01*
X127474743Y-121481680D01*
X127380688Y-121684305D01*
X127320989Y-121899570D01*
X127297251Y-122121695D01*
X123644637Y-122121695D01*
X123600431Y-121945702D01*
X123511354Y-121740840D01*
X123390014Y-121553277D01*
X123239670Y-121388051D01*
X123235619Y-121384852D01*
X123235615Y-121384848D01*
X123068414Y-121252800D01*
X123068410Y-121252798D01*
X123064359Y-121249598D01*
X123023053Y-121226796D01*
X122973084Y-121176364D01*
X122958312Y-121106921D01*
X122983428Y-121040516D01*
X123010780Y-121013909D01*
X123075542Y-120967715D01*
X123189860Y-120886173D01*
X123348096Y-120728489D01*
X123407594Y-120645689D01*
X123475435Y-120551277D01*
X123478453Y-120547077D01*
X123577430Y-120346811D01*
X123642370Y-120133069D01*
X123671529Y-119911590D01*
X123673156Y-119845000D01*
X123654852Y-119622361D01*
X123600431Y-119405702D01*
X123511354Y-119200840D01*
X123412180Y-119047540D01*
X123392822Y-119017617D01*
X123392820Y-119017614D01*
X123390014Y-119013277D01*
X123386540Y-119009459D01*
X123386533Y-119009450D01*
X123242435Y-118851088D01*
X123211383Y-118787242D01*
X123219779Y-118716744D01*
X123264956Y-118661976D01*
X123291400Y-118648307D01*
X123398052Y-118608325D01*
X123413649Y-118599786D01*
X123515724Y-118523285D01*
X123528285Y-118510724D01*
X123604786Y-118408649D01*
X123613324Y-118393054D01*
X123658478Y-118272606D01*
X123662105Y-118257351D01*
X123667631Y-118206486D01*
X123668000Y-118199672D01*
X123668000Y-117577115D01*
X123663525Y-117561876D01*
X123662135Y-117560671D01*
X123654452Y-117559000D01*
X120970116Y-117559000D01*
X120954877Y-117563475D01*
X120953672Y-117564865D01*
X120952001Y-117572548D01*
X120952001Y-118199669D01*
X120952371Y-118206490D01*
X120957895Y-118257352D01*
X120961521Y-118272604D01*
X121006676Y-118393054D01*
X121015214Y-118408649D01*
X121091715Y-118510724D01*
X121104276Y-118523285D01*
X121206351Y-118599786D01*
X121221946Y-118608324D01*
X121330827Y-118649142D01*
X121387591Y-118691784D01*
X121412291Y-118758345D01*
X121397083Y-118827694D01*
X121377691Y-118854175D01*
X121337618Y-118896109D01*
X121250629Y-118987138D01*
X121247715Y-118991410D01*
X121247714Y-118991411D01*
X121174684Y-119098469D01*
X121124743Y-119171680D01*
X121030688Y-119374305D01*
X120970989Y-119589570D01*
X120947251Y-119811695D01*
X120947548Y-119816848D01*
X120947548Y-119816851D01*
X120953011Y-119911590D01*
X120960110Y-120034715D01*
X120961247Y-120039761D01*
X120961248Y-120039767D01*
X120981119Y-120127939D01*
X121009222Y-120252639D01*
X121093266Y-120459616D01*
X121209987Y-120650088D01*
X121356250Y-120818938D01*
X121528126Y-120961632D01*
X121538536Y-120967715D01*
X121601445Y-121004476D01*
X121650169Y-121056114D01*
X121663240Y-121125897D01*
X121636509Y-121191669D01*
X121596055Y-121225027D01*
X121583607Y-121231507D01*
X121579474Y-121234610D01*
X121579471Y-121234612D01*
X121409100Y-121362530D01*
X121404965Y-121365635D01*
X121401393Y-121369373D01*
X121261665Y-121515590D01*
X121250629Y-121527138D01*
X121124743Y-121711680D01*
X121109003Y-121745590D01*
X121037528Y-121899570D01*
X121030688Y-121914305D01*
X120970989Y-122129570D01*
X120947251Y-122351695D01*
X116066502Y-122351695D01*
X115996705Y-122299385D01*
X115860316Y-122248255D01*
X115798134Y-122241500D01*
X114001866Y-122241500D01*
X113939684Y-122248255D01*
X113803295Y-122299385D01*
X113686739Y-122386739D01*
X113599385Y-122503295D01*
X113596233Y-122511703D01*
X113596232Y-122511705D01*
X113554722Y-122622433D01*
X113512081Y-122679198D01*
X113445519Y-122703898D01*
X113376170Y-122688691D01*
X113343546Y-122663004D01*
X113292799Y-122607234D01*
X113285273Y-122600215D01*
X113118139Y-122468222D01*
X113109552Y-122462517D01*
X112923117Y-122359599D01*
X112913705Y-122355369D01*
X112712959Y-122284280D01*
X112702988Y-122281646D01*
X112631837Y-122268972D01*
X112618540Y-122270432D01*
X112614000Y-122284989D01*
X112614000Y-124918517D01*
X112106000Y-124918517D01*
X112106000Y-123872115D01*
X112101525Y-123856876D01*
X112100135Y-123855671D01*
X112092452Y-123854000D01*
X111043225Y-123854000D01*
X111029694Y-123857973D01*
X111028257Y-123867966D01*
X93108500Y-123867966D01*
X93108500Y-123394183D01*
X101964389Y-123394183D01*
X101965912Y-123402607D01*
X101978292Y-123406000D01*
X103027885Y-123406000D01*
X103043124Y-123401525D01*
X103044329Y-123400135D01*
X103046000Y-123392452D01*
X103046000Y-123387885D01*
X103554000Y-123387885D01*
X103558475Y-123403124D01*
X103559865Y-123404329D01*
X103567548Y-123406000D01*
X104618344Y-123406000D01*
X104631875Y-123402027D01*
X104633180Y-123392947D01*
X104618419Y-123334183D01*
X111024389Y-123334183D01*
X111025912Y-123342607D01*
X111038292Y-123346000D01*
X112087885Y-123346000D01*
X112103124Y-123341525D01*
X112104329Y-123340135D01*
X112106000Y-123332452D01*
X112106000Y-122283102D01*
X112102082Y-122269758D01*
X112087806Y-122267771D01*
X112049324Y-122273660D01*
X112039288Y-122276051D01*
X111836868Y-122342212D01*
X111827359Y-122346209D01*
X111638463Y-122444542D01*
X111629738Y-122450036D01*
X111459433Y-122577905D01*
X111451726Y-122584748D01*
X111304590Y-122738717D01*
X111298104Y-122746727D01*
X111178098Y-122922649D01*
X111173000Y-122931623D01*
X111083338Y-123124783D01*
X111079775Y-123134470D01*
X111024389Y-123334183D01*
X104618419Y-123334183D01*
X104591214Y-123225875D01*
X104587894Y-123216124D01*
X104502972Y-123020814D01*
X104498105Y-123011739D01*
X104382426Y-122832926D01*
X104376136Y-122824757D01*
X104232806Y-122667240D01*
X104225273Y-122660215D01*
X104058139Y-122528222D01*
X104049552Y-122522517D01*
X103863117Y-122419599D01*
X103853705Y-122415369D01*
X103652959Y-122344280D01*
X103642988Y-122341646D01*
X103571837Y-122328972D01*
X103558540Y-122330432D01*
X103554000Y-122344989D01*
X103554000Y-123387885D01*
X103046000Y-123387885D01*
X103046000Y-122343102D01*
X103042082Y-122329758D01*
X103027806Y-122327771D01*
X102989324Y-122333660D01*
X102979288Y-122336051D01*
X102776868Y-122402212D01*
X102767359Y-122406209D01*
X102578463Y-122504542D01*
X102569738Y-122510036D01*
X102399433Y-122637905D01*
X102391726Y-122644748D01*
X102244590Y-122798717D01*
X102238104Y-122806727D01*
X102118098Y-122982649D01*
X102113000Y-122991623D01*
X102023338Y-123184783D01*
X102019775Y-123194470D01*
X101964389Y-123394183D01*
X93108500Y-123394183D01*
X93108500Y-120898134D01*
X101941500Y-120898134D01*
X101948255Y-120960316D01*
X101999385Y-121096705D01*
X102086739Y-121213261D01*
X102203295Y-121300615D01*
X102339684Y-121351745D01*
X102401866Y-121358500D01*
X104198134Y-121358500D01*
X104260316Y-121351745D01*
X104396705Y-121300615D01*
X104513261Y-121213261D01*
X104600615Y-121096705D01*
X104651745Y-120960316D01*
X104658500Y-120898134D01*
X104658500Y-119101866D01*
X104651745Y-119039684D01*
X104600615Y-118903295D01*
X104513261Y-118786739D01*
X104396705Y-118699385D01*
X104277687Y-118654767D01*
X104220923Y-118612125D01*
X104196223Y-118545564D01*
X104211430Y-118476215D01*
X104232977Y-118447535D01*
X104334052Y-118346812D01*
X104340730Y-118338965D01*
X104465003Y-118166020D01*
X104470313Y-118157183D01*
X104564670Y-117966267D01*
X104568469Y-117956672D01*
X104630377Y-117752910D01*
X104632555Y-117742837D01*
X104633986Y-117731962D01*
X104631775Y-117717778D01*
X104618617Y-117714000D01*
X101983225Y-117714000D01*
X101969694Y-117717973D01*
X101968257Y-117727966D01*
X101998565Y-117862446D01*
X102001645Y-117872275D01*
X102081770Y-118069603D01*
X102086413Y-118078794D01*
X102197694Y-118260388D01*
X102203777Y-118268699D01*
X102343213Y-118429667D01*
X102350577Y-118436879D01*
X102355522Y-118440985D01*
X102395156Y-118499889D01*
X102396653Y-118570870D01*
X102359537Y-118631392D01*
X102319264Y-118655910D01*
X102211705Y-118696232D01*
X102211704Y-118696233D01*
X102203295Y-118699385D01*
X102086739Y-118786739D01*
X101999385Y-118903295D01*
X101948255Y-119039684D01*
X101941500Y-119101866D01*
X101941500Y-120898134D01*
X93108500Y-120898134D01*
X93108500Y-117194183D01*
X101964389Y-117194183D01*
X101965912Y-117202607D01*
X101978292Y-117206000D01*
X103027885Y-117206000D01*
X103043124Y-117201525D01*
X103044329Y-117200135D01*
X103046000Y-117192452D01*
X103046000Y-117187885D01*
X103554000Y-117187885D01*
X103558475Y-117203124D01*
X103559865Y-117204329D01*
X103567548Y-117206000D01*
X104618344Y-117206000D01*
X104631875Y-117202027D01*
X104633180Y-117192947D01*
X104591214Y-117025875D01*
X104587894Y-117016124D01*
X104502972Y-116820814D01*
X104498105Y-116811739D01*
X104382426Y-116632926D01*
X104376136Y-116624757D01*
X104232806Y-116467240D01*
X104225273Y-116460215D01*
X104058139Y-116328222D01*
X104049552Y-116322517D01*
X103863117Y-116219599D01*
X103853705Y-116215369D01*
X103652959Y-116144280D01*
X103642988Y-116141646D01*
X103571837Y-116128972D01*
X103558540Y-116130432D01*
X103554000Y-116144989D01*
X103554000Y-117187885D01*
X103046000Y-117187885D01*
X103046000Y-116143102D01*
X103042082Y-116129758D01*
X103027806Y-116127771D01*
X102989324Y-116133660D01*
X102979288Y-116136051D01*
X102776868Y-116202212D01*
X102767359Y-116206209D01*
X102578463Y-116304542D01*
X102569738Y-116310036D01*
X102399433Y-116437905D01*
X102391726Y-116444748D01*
X102244590Y-116598717D01*
X102238104Y-116606727D01*
X102118098Y-116782649D01*
X102113000Y-116791623D01*
X102023338Y-116984783D01*
X102019775Y-116994470D01*
X101964389Y-117194183D01*
X93108500Y-117194183D01*
X93108500Y-114698134D01*
X101941500Y-114698134D01*
X101948255Y-114760316D01*
X101999385Y-114896705D01*
X102086739Y-115013261D01*
X102203295Y-115100615D01*
X102339684Y-115151745D01*
X102401866Y-115158500D01*
X104198134Y-115158500D01*
X104260316Y-115151745D01*
X104396705Y-115100615D01*
X104513261Y-115013261D01*
X104600615Y-114896705D01*
X104651745Y-114760316D01*
X104654854Y-114731695D01*
X120947251Y-114731695D01*
X120947548Y-114736848D01*
X120947548Y-114736851D01*
X120959812Y-114949547D01*
X120960110Y-114954715D01*
X120961247Y-114959761D01*
X120961248Y-114959767D01*
X120971686Y-115006081D01*
X121009222Y-115172639D01*
X121093266Y-115379616D01*
X121209987Y-115570088D01*
X121356250Y-115738938D01*
X121360225Y-115742238D01*
X121360231Y-115742244D01*
X121365425Y-115746556D01*
X121405059Y-115805460D01*
X121406555Y-115876441D01*
X121369439Y-115936962D01*
X121329168Y-115961480D01*
X121221946Y-116001676D01*
X121206351Y-116010214D01*
X121104276Y-116086715D01*
X121091715Y-116099276D01*
X121015214Y-116201351D01*
X121006676Y-116216946D01*
X120961522Y-116337394D01*
X120957895Y-116352649D01*
X120952369Y-116403514D01*
X120952000Y-116410328D01*
X120952000Y-117032885D01*
X120956475Y-117048124D01*
X120957865Y-117049329D01*
X120965548Y-117051000D01*
X123649884Y-117051000D01*
X123665123Y-117046525D01*
X123666328Y-117045135D01*
X123667999Y-117037452D01*
X123667999Y-116410331D01*
X123667629Y-116403510D01*
X123662105Y-116352648D01*
X123658479Y-116337396D01*
X123613324Y-116216946D01*
X123604786Y-116201351D01*
X123528285Y-116099276D01*
X123515724Y-116086715D01*
X123413649Y-116010214D01*
X123398054Y-116001676D01*
X123287813Y-115960348D01*
X123231049Y-115917706D01*
X123206349Y-115851145D01*
X123221557Y-115781796D01*
X123243104Y-115753115D01*
X123344430Y-115652144D01*
X123344440Y-115652132D01*
X123348096Y-115648489D01*
X123407594Y-115565689D01*
X123475435Y-115471277D01*
X123478453Y-115467077D01*
X123577430Y-115266811D01*
X123642370Y-115053069D01*
X123671529Y-114831590D01*
X123673156Y-114765000D01*
X123670418Y-114731695D01*
X138727251Y-114731695D01*
X138727548Y-114736848D01*
X138727548Y-114736851D01*
X138739812Y-114949547D01*
X138740110Y-114954715D01*
X138741247Y-114959761D01*
X138741248Y-114959767D01*
X138751686Y-115006081D01*
X138789222Y-115172639D01*
X138873266Y-115379616D01*
X138989987Y-115570088D01*
X139136250Y-115738938D01*
X139140225Y-115742238D01*
X139140231Y-115742244D01*
X139145425Y-115746556D01*
X139185059Y-115805460D01*
X139186555Y-115876441D01*
X139149439Y-115936962D01*
X139109168Y-115961480D01*
X139001946Y-116001676D01*
X138986351Y-116010214D01*
X138884276Y-116086715D01*
X138871715Y-116099276D01*
X138795214Y-116201351D01*
X138786676Y-116216946D01*
X138741522Y-116337394D01*
X138737895Y-116352649D01*
X138732369Y-116403514D01*
X138732000Y-116410328D01*
X138732000Y-117032885D01*
X138736475Y-117048124D01*
X138737865Y-117049329D01*
X138745548Y-117051000D01*
X141429884Y-117051000D01*
X141445123Y-117046525D01*
X141446328Y-117045135D01*
X141447999Y-117037452D01*
X141447999Y-116410331D01*
X141447629Y-116403510D01*
X141442105Y-116352648D01*
X141438479Y-116337396D01*
X141393324Y-116216946D01*
X141384786Y-116201351D01*
X141308285Y-116099276D01*
X141295724Y-116086715D01*
X141193649Y-116010214D01*
X141178054Y-116001676D01*
X141067813Y-115960348D01*
X141011049Y-115917706D01*
X140986349Y-115851145D01*
X141001557Y-115781796D01*
X141023104Y-115753115D01*
X141124430Y-115652144D01*
X141124440Y-115652132D01*
X141128096Y-115648489D01*
X141187594Y-115565689D01*
X141255435Y-115471277D01*
X141258453Y-115467077D01*
X141357430Y-115266811D01*
X141422370Y-115053069D01*
X141451529Y-114831590D01*
X141453156Y-114765000D01*
X141434852Y-114542361D01*
X141380431Y-114325702D01*
X141291354Y-114120840D01*
X141170014Y-113933277D01*
X141019670Y-113768051D01*
X141015619Y-113764852D01*
X141015615Y-113764848D01*
X140848414Y-113632800D01*
X140848410Y-113632798D01*
X140844359Y-113629598D01*
X140803053Y-113606796D01*
X140753084Y-113556364D01*
X140738312Y-113486921D01*
X140763428Y-113420516D01*
X140790780Y-113393909D01*
X140834603Y-113362650D01*
X140969860Y-113266173D01*
X141128096Y-113108489D01*
X141187594Y-113025689D01*
X141255435Y-112931277D01*
X141258453Y-112927077D01*
X141297763Y-112847540D01*
X141355136Y-112731453D01*
X141355137Y-112731451D01*
X141357430Y-112726811D01*
X141422370Y-112513069D01*
X141451529Y-112291590D01*
X141451905Y-112276215D01*
X141453074Y-112228365D01*
X141453074Y-112228361D01*
X141453156Y-112225000D01*
X141434852Y-112002361D01*
X141380431Y-111785702D01*
X141291354Y-111580840D01*
X141251906Y-111519862D01*
X141172822Y-111397617D01*
X141172820Y-111397614D01*
X141170014Y-111393277D01*
X141019670Y-111228051D01*
X141015619Y-111224852D01*
X141015615Y-111224848D01*
X140848414Y-111092800D01*
X140848410Y-111092798D01*
X140844359Y-111089598D01*
X140803053Y-111066796D01*
X140753084Y-111016364D01*
X140738312Y-110946921D01*
X140763428Y-110880516D01*
X140790780Y-110853909D01*
X140843753Y-110816124D01*
X140969860Y-110726173D01*
X141128096Y-110568489D01*
X141187594Y-110485689D01*
X141255435Y-110391277D01*
X141258453Y-110387077D01*
X141357430Y-110186811D01*
X141422370Y-109973069D01*
X141451529Y-109751590D01*
X141453156Y-109685000D01*
X141434852Y-109462361D01*
X141380431Y-109245702D01*
X141291354Y-109040840D01*
X141231921Y-108948971D01*
X141172822Y-108857617D01*
X141172820Y-108857614D01*
X141170014Y-108853277D01*
X141019670Y-108688051D01*
X141015619Y-108684852D01*
X141015615Y-108684848D01*
X140848414Y-108552800D01*
X140848410Y-108552798D01*
X140844359Y-108549598D01*
X140803053Y-108526796D01*
X140753084Y-108476364D01*
X140738312Y-108406921D01*
X140763428Y-108340516D01*
X140790780Y-108313909D01*
X140834603Y-108282650D01*
X140969860Y-108186173D01*
X141128096Y-108028489D01*
X141187594Y-107945689D01*
X141255435Y-107851277D01*
X141258453Y-107847077D01*
X141357430Y-107646811D01*
X141422370Y-107433069D01*
X141451529Y-107211590D01*
X141453156Y-107145000D01*
X141434852Y-106922361D01*
X141380431Y-106705702D01*
X141291354Y-106500840D01*
X141170014Y-106313277D01*
X141166540Y-106309459D01*
X141166533Y-106309450D01*
X141022435Y-106151088D01*
X140991383Y-106087242D01*
X140999779Y-106016744D01*
X141044956Y-105961976D01*
X141071400Y-105948307D01*
X141178052Y-105908325D01*
X141193649Y-105899786D01*
X141295724Y-105823285D01*
X141308285Y-105810724D01*
X141384786Y-105708649D01*
X141393324Y-105693054D01*
X141438478Y-105572606D01*
X141442105Y-105557351D01*
X141447631Y-105506486D01*
X141448000Y-105499672D01*
X141448000Y-104877115D01*
X141443525Y-104861876D01*
X141442135Y-104860671D01*
X141434452Y-104859000D01*
X138750116Y-104859000D01*
X138734877Y-104863475D01*
X138733672Y-104864865D01*
X138732001Y-104872548D01*
X138732001Y-105499669D01*
X138732371Y-105506490D01*
X138737895Y-105557352D01*
X138741521Y-105572604D01*
X138786676Y-105693054D01*
X138795214Y-105708649D01*
X138871715Y-105810724D01*
X138884276Y-105823285D01*
X138986351Y-105899786D01*
X139001946Y-105908324D01*
X139110827Y-105949142D01*
X139167591Y-105991784D01*
X139192291Y-106058345D01*
X139177083Y-106127694D01*
X139157691Y-106154175D01*
X139067786Y-106248255D01*
X139030629Y-106287138D01*
X139027715Y-106291410D01*
X139027714Y-106291411D01*
X139015409Y-106309450D01*
X138904743Y-106471680D01*
X138810688Y-106674305D01*
X138750989Y-106889570D01*
X138727251Y-107111695D01*
X138727548Y-107116848D01*
X138727548Y-107116851D01*
X138733011Y-107211590D01*
X138740110Y-107334715D01*
X138741247Y-107339761D01*
X138741248Y-107339767D01*
X138761119Y-107427939D01*
X138789222Y-107552639D01*
X138873266Y-107759616D01*
X138989987Y-107950088D01*
X139136250Y-108118938D01*
X139308126Y-108261632D01*
X139378595Y-108302811D01*
X139381445Y-108304476D01*
X139430169Y-108356114D01*
X139443240Y-108425897D01*
X139416509Y-108491669D01*
X139376055Y-108525027D01*
X139363607Y-108531507D01*
X139359474Y-108534610D01*
X139359471Y-108534612D01*
X139315382Y-108567715D01*
X139184965Y-108665635D01*
X139181393Y-108669373D01*
X139050752Y-108806081D01*
X139030629Y-108827138D01*
X138904743Y-109011680D01*
X138810688Y-109214305D01*
X138750989Y-109429570D01*
X138727251Y-109651695D01*
X138727548Y-109656848D01*
X138727548Y-109656851D01*
X138733011Y-109751590D01*
X138740110Y-109874715D01*
X138741247Y-109879761D01*
X138741248Y-109879767D01*
X138753394Y-109933660D01*
X138789222Y-110092639D01*
X138827461Y-110186811D01*
X138860120Y-110267240D01*
X138873266Y-110299616D01*
X138989987Y-110490088D01*
X139136250Y-110658938D01*
X139308126Y-110801632D01*
X139349613Y-110825875D01*
X139381445Y-110844476D01*
X139430169Y-110896114D01*
X139443240Y-110965897D01*
X139416509Y-111031669D01*
X139376055Y-111065027D01*
X139363607Y-111071507D01*
X139359474Y-111074610D01*
X139359471Y-111074612D01*
X139335247Y-111092800D01*
X139184965Y-111205635D01*
X139030629Y-111367138D01*
X138904743Y-111551680D01*
X138810688Y-111754305D01*
X138750989Y-111969570D01*
X138727251Y-112191695D01*
X138727548Y-112196848D01*
X138727548Y-112196851D01*
X138733011Y-112291590D01*
X138740110Y-112414715D01*
X138741247Y-112419761D01*
X138741248Y-112419767D01*
X138758481Y-112496232D01*
X138789222Y-112632639D01*
X138873266Y-112839616D01*
X138989987Y-113030088D01*
X139136250Y-113198938D01*
X139308126Y-113341632D01*
X139378595Y-113382811D01*
X139381445Y-113384476D01*
X139430169Y-113436114D01*
X139443240Y-113505897D01*
X139416509Y-113571669D01*
X139376055Y-113605027D01*
X139363607Y-113611507D01*
X139359474Y-113614610D01*
X139359471Y-113614612D01*
X139335247Y-113632800D01*
X139184965Y-113745635D01*
X139030629Y-113907138D01*
X138904743Y-114091680D01*
X138810688Y-114294305D01*
X138750989Y-114509570D01*
X138727251Y-114731695D01*
X123670418Y-114731695D01*
X123654852Y-114542361D01*
X123600431Y-114325702D01*
X123511354Y-114120840D01*
X123390014Y-113933277D01*
X123239670Y-113768051D01*
X123235619Y-113764852D01*
X123235615Y-113764848D01*
X123068414Y-113632800D01*
X123068410Y-113632798D01*
X123064359Y-113629598D01*
X123023053Y-113606796D01*
X122973084Y-113556364D01*
X122958312Y-113486921D01*
X122983428Y-113420516D01*
X123010780Y-113393909D01*
X123054603Y-113362650D01*
X123189860Y-113266173D01*
X123348096Y-113108489D01*
X123407594Y-113025689D01*
X123475435Y-112931277D01*
X123478453Y-112927077D01*
X123517763Y-112847540D01*
X123575136Y-112731453D01*
X123575137Y-112731451D01*
X123577430Y-112726811D01*
X123642370Y-112513069D01*
X123671529Y-112291590D01*
X123671905Y-112276215D01*
X123673074Y-112228365D01*
X123673074Y-112228361D01*
X123673156Y-112225000D01*
X123654852Y-112002361D01*
X123600431Y-111785702D01*
X123511354Y-111580840D01*
X123471906Y-111519862D01*
X123392822Y-111397617D01*
X123392820Y-111397614D01*
X123390014Y-111393277D01*
X123239670Y-111228051D01*
X123235619Y-111224852D01*
X123235615Y-111224848D01*
X123068414Y-111092800D01*
X123068410Y-111092798D01*
X123064359Y-111089598D01*
X123023053Y-111066796D01*
X122973084Y-111016364D01*
X122958312Y-110946921D01*
X122983428Y-110880516D01*
X123010780Y-110853909D01*
X123063753Y-110816124D01*
X123189860Y-110726173D01*
X123348096Y-110568489D01*
X123407594Y-110485689D01*
X123475435Y-110391277D01*
X123478453Y-110387077D01*
X123577430Y-110186811D01*
X123642370Y-109973069D01*
X123671529Y-109751590D01*
X123673156Y-109685000D01*
X123654852Y-109462361D01*
X123600431Y-109245702D01*
X123511354Y-109040840D01*
X123451921Y-108948971D01*
X123392822Y-108857617D01*
X123392820Y-108857614D01*
X123390014Y-108853277D01*
X123239670Y-108688051D01*
X123235619Y-108684852D01*
X123235615Y-108684848D01*
X123068414Y-108552800D01*
X123068410Y-108552798D01*
X123064359Y-108549598D01*
X123023053Y-108526796D01*
X122973084Y-108476364D01*
X122958312Y-108406921D01*
X122983428Y-108340516D01*
X123010780Y-108313909D01*
X123054603Y-108282650D01*
X123189860Y-108186173D01*
X123348096Y-108028489D01*
X123407594Y-107945689D01*
X123475435Y-107851277D01*
X123478453Y-107847077D01*
X123577430Y-107646811D01*
X123642370Y-107433069D01*
X123671529Y-107211590D01*
X123673156Y-107145000D01*
X123654852Y-106922361D01*
X123600431Y-106705702D01*
X123511354Y-106500840D01*
X123390014Y-106313277D01*
X123386540Y-106309459D01*
X123386533Y-106309450D01*
X123242435Y-106151088D01*
X123211383Y-106087242D01*
X123219779Y-106016744D01*
X123264956Y-105961976D01*
X123291400Y-105948307D01*
X123398052Y-105908325D01*
X123413649Y-105899786D01*
X123515724Y-105823285D01*
X123528285Y-105810724D01*
X123604786Y-105708649D01*
X123613324Y-105693054D01*
X123658478Y-105572606D01*
X123662105Y-105557351D01*
X123667631Y-105506486D01*
X123668000Y-105499672D01*
X123668000Y-104877115D01*
X123663525Y-104861876D01*
X123662135Y-104860671D01*
X123654452Y-104859000D01*
X120970116Y-104859000D01*
X120954877Y-104863475D01*
X120953672Y-104864865D01*
X120952001Y-104872548D01*
X120952001Y-105499669D01*
X120952371Y-105506490D01*
X120957895Y-105557352D01*
X120961521Y-105572604D01*
X121006676Y-105693054D01*
X121015214Y-105708649D01*
X121091715Y-105810724D01*
X121104276Y-105823285D01*
X121206351Y-105899786D01*
X121221946Y-105908324D01*
X121330827Y-105949142D01*
X121387591Y-105991784D01*
X121412291Y-106058345D01*
X121397083Y-106127694D01*
X121377691Y-106154175D01*
X121287786Y-106248255D01*
X121250629Y-106287138D01*
X121247715Y-106291410D01*
X121247714Y-106291411D01*
X121235409Y-106309450D01*
X121124743Y-106471680D01*
X121030688Y-106674305D01*
X120970989Y-106889570D01*
X120947251Y-107111695D01*
X120947548Y-107116848D01*
X120947548Y-107116851D01*
X120953011Y-107211590D01*
X120960110Y-107334715D01*
X120961247Y-107339761D01*
X120961248Y-107339767D01*
X120981119Y-107427939D01*
X121009222Y-107552639D01*
X121093266Y-107759616D01*
X121209987Y-107950088D01*
X121356250Y-108118938D01*
X121528126Y-108261632D01*
X121598595Y-108302811D01*
X121601445Y-108304476D01*
X121650169Y-108356114D01*
X121663240Y-108425897D01*
X121636509Y-108491669D01*
X121596055Y-108525027D01*
X121583607Y-108531507D01*
X121579474Y-108534610D01*
X121579471Y-108534612D01*
X121535382Y-108567715D01*
X121404965Y-108665635D01*
X121401393Y-108669373D01*
X121270752Y-108806081D01*
X121250629Y-108827138D01*
X121124743Y-109011680D01*
X121030688Y-109214305D01*
X120970989Y-109429570D01*
X120947251Y-109651695D01*
X120947548Y-109656848D01*
X120947548Y-109656851D01*
X120953011Y-109751590D01*
X120960110Y-109874715D01*
X120961247Y-109879761D01*
X120961248Y-109879767D01*
X120973394Y-109933660D01*
X121009222Y-110092639D01*
X121047461Y-110186811D01*
X121080120Y-110267240D01*
X121093266Y-110299616D01*
X121209987Y-110490088D01*
X121356250Y-110658938D01*
X121528126Y-110801632D01*
X121569613Y-110825875D01*
X121601445Y-110844476D01*
X121650169Y-110896114D01*
X121663240Y-110965897D01*
X121636509Y-111031669D01*
X121596055Y-111065027D01*
X121583607Y-111071507D01*
X121579474Y-111074610D01*
X121579471Y-111074612D01*
X121555247Y-111092800D01*
X121404965Y-111205635D01*
X121250629Y-111367138D01*
X121124743Y-111551680D01*
X121030688Y-111754305D01*
X120970989Y-111969570D01*
X120947251Y-112191695D01*
X120947548Y-112196848D01*
X120947548Y-112196851D01*
X120953011Y-112291590D01*
X120960110Y-112414715D01*
X120961247Y-112419761D01*
X120961248Y-112419767D01*
X120978481Y-112496232D01*
X121009222Y-112632639D01*
X121093266Y-112839616D01*
X121209987Y-113030088D01*
X121356250Y-113198938D01*
X121528126Y-113341632D01*
X121598595Y-113382811D01*
X121601445Y-113384476D01*
X121650169Y-113436114D01*
X121663240Y-113505897D01*
X121636509Y-113571669D01*
X121596055Y-113605027D01*
X121583607Y-113611507D01*
X121579474Y-113614610D01*
X121579471Y-113614612D01*
X121555247Y-113632800D01*
X121404965Y-113745635D01*
X121250629Y-113907138D01*
X121124743Y-114091680D01*
X121030688Y-114294305D01*
X120970989Y-114509570D01*
X120947251Y-114731695D01*
X104654854Y-114731695D01*
X104658500Y-114698134D01*
X104658500Y-112901866D01*
X104651745Y-112839684D01*
X104600615Y-112703295D01*
X104513261Y-112586739D01*
X104396705Y-112499385D01*
X104277687Y-112454767D01*
X104220923Y-112412125D01*
X104196223Y-112345564D01*
X104211430Y-112276215D01*
X104232977Y-112247535D01*
X104334052Y-112146812D01*
X104340730Y-112138965D01*
X104465003Y-111966020D01*
X104470313Y-111957183D01*
X104564670Y-111766267D01*
X104568469Y-111756672D01*
X104630377Y-111552910D01*
X104632555Y-111542837D01*
X104633986Y-111531962D01*
X104631775Y-111517778D01*
X104618617Y-111514000D01*
X101983225Y-111514000D01*
X101969694Y-111517973D01*
X101968257Y-111527966D01*
X101998565Y-111662446D01*
X102001645Y-111672275D01*
X102081770Y-111869603D01*
X102086413Y-111878794D01*
X102197694Y-112060388D01*
X102203777Y-112068699D01*
X102343213Y-112229667D01*
X102350577Y-112236879D01*
X102355522Y-112240985D01*
X102395156Y-112299889D01*
X102396653Y-112370870D01*
X102359537Y-112431392D01*
X102319264Y-112455910D01*
X102211705Y-112496232D01*
X102211704Y-112496233D01*
X102203295Y-112499385D01*
X102086739Y-112586739D01*
X101999385Y-112703295D01*
X101948255Y-112839684D01*
X101941500Y-112901866D01*
X101941500Y-114698134D01*
X93108500Y-114698134D01*
X93108500Y-110994183D01*
X101964389Y-110994183D01*
X101965912Y-111002607D01*
X101978292Y-111006000D01*
X103027885Y-111006000D01*
X103043124Y-111001525D01*
X103044329Y-111000135D01*
X103046000Y-110992452D01*
X103046000Y-110987885D01*
X103554000Y-110987885D01*
X103558475Y-111003124D01*
X103559865Y-111004329D01*
X103567548Y-111006000D01*
X104618344Y-111006000D01*
X104631875Y-111002027D01*
X104633180Y-110992947D01*
X104591214Y-110825875D01*
X104587894Y-110816124D01*
X104502972Y-110620814D01*
X104498105Y-110611739D01*
X104382426Y-110432926D01*
X104376136Y-110424757D01*
X104232806Y-110267240D01*
X104225273Y-110260215D01*
X104058139Y-110128222D01*
X104049552Y-110122517D01*
X103863117Y-110019599D01*
X103853705Y-110015369D01*
X103652959Y-109944280D01*
X103642988Y-109941646D01*
X103571837Y-109928972D01*
X103558540Y-109930432D01*
X103554000Y-109944989D01*
X103554000Y-110987885D01*
X103046000Y-110987885D01*
X103046000Y-109943102D01*
X103042082Y-109929758D01*
X103027806Y-109927771D01*
X102989324Y-109933660D01*
X102979288Y-109936051D01*
X102776868Y-110002212D01*
X102767359Y-110006209D01*
X102578463Y-110104542D01*
X102569738Y-110110036D01*
X102399433Y-110237905D01*
X102391726Y-110244748D01*
X102244590Y-110398717D01*
X102238104Y-110406727D01*
X102118098Y-110582649D01*
X102113000Y-110591623D01*
X102023338Y-110784783D01*
X102019775Y-110794470D01*
X101964389Y-110994183D01*
X93108500Y-110994183D01*
X93108500Y-108498134D01*
X101941500Y-108498134D01*
X101948255Y-108560316D01*
X101999385Y-108696705D01*
X102086739Y-108813261D01*
X102203295Y-108900615D01*
X102339684Y-108951745D01*
X102401866Y-108958500D01*
X104198134Y-108958500D01*
X104260316Y-108951745D01*
X104396705Y-108900615D01*
X104513261Y-108813261D01*
X104600615Y-108696705D01*
X104651745Y-108560316D01*
X104658500Y-108498134D01*
X104658500Y-106701866D01*
X104651745Y-106639684D01*
X104600615Y-106503295D01*
X104513261Y-106386739D01*
X104396705Y-106299385D01*
X104277687Y-106254767D01*
X104220923Y-106212125D01*
X104196223Y-106145564D01*
X104211430Y-106076215D01*
X104232977Y-106047535D01*
X104334052Y-105946812D01*
X104340730Y-105938965D01*
X104465003Y-105766020D01*
X104470313Y-105757183D01*
X104564670Y-105566267D01*
X104568469Y-105556672D01*
X104630377Y-105352910D01*
X104632555Y-105342837D01*
X104633986Y-105331962D01*
X104631775Y-105317778D01*
X104618617Y-105314000D01*
X101983225Y-105314000D01*
X101969694Y-105317973D01*
X101968257Y-105327966D01*
X101998565Y-105462446D01*
X102001645Y-105472275D01*
X102081770Y-105669603D01*
X102086413Y-105678794D01*
X102197694Y-105860388D01*
X102203777Y-105868699D01*
X102343213Y-106029667D01*
X102350577Y-106036879D01*
X102355522Y-106040985D01*
X102395156Y-106099889D01*
X102396653Y-106170870D01*
X102359537Y-106231392D01*
X102319264Y-106255910D01*
X102211705Y-106296232D01*
X102211704Y-106296233D01*
X102203295Y-106299385D01*
X102086739Y-106386739D01*
X101999385Y-106503295D01*
X101948255Y-106639684D01*
X101941500Y-106701866D01*
X101941500Y-108498134D01*
X93108500Y-108498134D01*
X93108500Y-104794183D01*
X101964389Y-104794183D01*
X101965912Y-104802607D01*
X101978292Y-104806000D01*
X103027885Y-104806000D01*
X103043124Y-104801525D01*
X103044329Y-104800135D01*
X103046000Y-104792452D01*
X103046000Y-104787885D01*
X103554000Y-104787885D01*
X103558475Y-104803124D01*
X103559865Y-104804329D01*
X103567548Y-104806000D01*
X104618344Y-104806000D01*
X104631875Y-104802027D01*
X104633180Y-104792947D01*
X104591214Y-104625875D01*
X104587894Y-104616124D01*
X104502972Y-104420814D01*
X104498105Y-104411739D01*
X104382426Y-104232926D01*
X104376136Y-104224757D01*
X104232806Y-104067240D01*
X104225273Y-104060215D01*
X104058139Y-103928222D01*
X104049552Y-103922517D01*
X103863117Y-103819599D01*
X103853705Y-103815369D01*
X103652959Y-103744280D01*
X103642988Y-103741646D01*
X103571837Y-103728972D01*
X103558540Y-103730432D01*
X103554000Y-103744989D01*
X103554000Y-104787885D01*
X103046000Y-104787885D01*
X103046000Y-103743102D01*
X103042082Y-103729758D01*
X103027806Y-103727771D01*
X102989324Y-103733660D01*
X102979288Y-103736051D01*
X102776868Y-103802212D01*
X102767359Y-103806209D01*
X102578463Y-103904542D01*
X102569738Y-103910036D01*
X102399433Y-104037905D01*
X102391726Y-104044748D01*
X102244590Y-104198717D01*
X102238104Y-104206727D01*
X102118098Y-104382649D01*
X102113000Y-104391623D01*
X102023338Y-104584783D01*
X102019775Y-104594470D01*
X101964389Y-104794183D01*
X93108500Y-104794183D01*
X93108500Y-102298134D01*
X101941500Y-102298134D01*
X101948255Y-102360316D01*
X101999385Y-102496705D01*
X102086739Y-102613261D01*
X102203295Y-102700615D01*
X102339684Y-102751745D01*
X102401866Y-102758500D01*
X104198134Y-102758500D01*
X104260316Y-102751745D01*
X104396705Y-102700615D01*
X104513261Y-102613261D01*
X104600615Y-102496705D01*
X104651745Y-102360316D01*
X104658500Y-102298134D01*
X104658500Y-102031695D01*
X120947251Y-102031695D01*
X120947548Y-102036848D01*
X120947548Y-102036851D01*
X120953011Y-102131590D01*
X120960110Y-102254715D01*
X120961247Y-102259761D01*
X120961248Y-102259767D01*
X120981119Y-102347939D01*
X121009222Y-102472639D01*
X121093266Y-102679616D01*
X121209987Y-102870088D01*
X121356250Y-103038938D01*
X121360225Y-103042238D01*
X121360231Y-103042244D01*
X121365425Y-103046556D01*
X121405059Y-103105460D01*
X121406555Y-103176441D01*
X121369439Y-103236962D01*
X121329168Y-103261480D01*
X121221946Y-103301676D01*
X121206351Y-103310214D01*
X121104276Y-103386715D01*
X121091715Y-103399276D01*
X121015214Y-103501351D01*
X121006676Y-103516946D01*
X120961522Y-103637394D01*
X120957895Y-103652649D01*
X120952369Y-103703514D01*
X120952000Y-103710328D01*
X120952000Y-104332885D01*
X120956475Y-104348124D01*
X120957865Y-104349329D01*
X120965548Y-104351000D01*
X123649884Y-104351000D01*
X123665123Y-104346525D01*
X123666328Y-104345135D01*
X123667999Y-104337452D01*
X123667999Y-103710331D01*
X123667629Y-103703510D01*
X123662105Y-103652648D01*
X123658479Y-103637396D01*
X123613324Y-103516946D01*
X123604786Y-103501351D01*
X123528285Y-103399276D01*
X123515724Y-103386715D01*
X123413649Y-103310214D01*
X123398054Y-103301676D01*
X123287813Y-103260348D01*
X123231049Y-103217706D01*
X123206349Y-103151145D01*
X123221557Y-103081796D01*
X123243104Y-103053115D01*
X123344430Y-102952144D01*
X123344440Y-102952132D01*
X123348096Y-102948489D01*
X123407594Y-102865689D01*
X123475435Y-102771277D01*
X123478453Y-102767077D01*
X123482875Y-102758131D01*
X123575136Y-102571453D01*
X123575137Y-102571451D01*
X123577430Y-102566811D01*
X123642370Y-102353069D01*
X123671529Y-102131590D01*
X123673156Y-102065000D01*
X123654852Y-101842361D01*
X123600431Y-101625702D01*
X123511354Y-101420840D01*
X123390014Y-101233277D01*
X123239670Y-101068051D01*
X123235619Y-101064852D01*
X123235615Y-101064848D01*
X123068414Y-100932800D01*
X123068410Y-100932798D01*
X123064359Y-100929598D01*
X123023053Y-100906796D01*
X122973084Y-100856364D01*
X122958312Y-100786921D01*
X122983428Y-100720516D01*
X123010780Y-100693909D01*
X123078285Y-100645758D01*
X123189860Y-100566173D01*
X123196540Y-100559517D01*
X123344435Y-100412137D01*
X123348096Y-100408489D01*
X123407594Y-100325689D01*
X123426053Y-100300000D01*
X137286496Y-100300000D01*
X137287186Y-100306565D01*
X137300400Y-100432285D01*
X137306458Y-100489928D01*
X137365473Y-100671556D01*
X137368776Y-100677278D01*
X137368777Y-100677279D01*
X137379526Y-100695896D01*
X137460960Y-100836944D01*
X137465378Y-100841851D01*
X137465379Y-100841852D01*
X137542140Y-100927104D01*
X137588747Y-100978866D01*
X137676373Y-101042530D01*
X137716756Y-101071870D01*
X137743248Y-101091118D01*
X137749276Y-101093802D01*
X137749278Y-101093803D01*
X137911681Y-101166109D01*
X137917712Y-101168794D01*
X138011113Y-101188647D01*
X138098056Y-101207128D01*
X138098061Y-101207128D01*
X138104513Y-101208500D01*
X138295487Y-101208500D01*
X138301939Y-101207128D01*
X138301944Y-101207128D01*
X138388888Y-101188647D01*
X138482288Y-101168794D01*
X138488319Y-101166109D01*
X138650722Y-101093803D01*
X138650724Y-101093802D01*
X138656752Y-101091118D01*
X138683245Y-101071870D01*
X138723627Y-101042530D01*
X138811253Y-100978866D01*
X138857860Y-100927104D01*
X138934621Y-100841852D01*
X138934622Y-100841851D01*
X138939040Y-100836944D01*
X139020474Y-100695896D01*
X139031223Y-100677279D01*
X139031224Y-100677278D01*
X139034527Y-100671556D01*
X139042910Y-100645757D01*
X139082984Y-100587153D01*
X139148381Y-100559517D01*
X139218337Y-100571625D01*
X139243228Y-100587752D01*
X139308126Y-100641632D01*
X139348588Y-100665276D01*
X139381445Y-100684476D01*
X139430169Y-100736114D01*
X139443240Y-100805897D01*
X139416509Y-100871669D01*
X139376055Y-100905027D01*
X139363607Y-100911507D01*
X139359474Y-100914610D01*
X139359471Y-100914612D01*
X139273893Y-100978866D01*
X139184965Y-101045635D01*
X139030629Y-101207138D01*
X138904743Y-101391680D01*
X138810688Y-101594305D01*
X138750989Y-101809570D01*
X138727251Y-102031695D01*
X138727548Y-102036848D01*
X138727548Y-102036851D01*
X138733011Y-102131590D01*
X138740110Y-102254715D01*
X138741247Y-102259761D01*
X138741248Y-102259767D01*
X138761119Y-102347939D01*
X138789222Y-102472639D01*
X138873266Y-102679616D01*
X138989987Y-102870088D01*
X139136250Y-103038938D01*
X139140225Y-103042238D01*
X139140231Y-103042244D01*
X139145425Y-103046556D01*
X139185059Y-103105460D01*
X139186555Y-103176441D01*
X139149439Y-103236962D01*
X139109168Y-103261480D01*
X139001946Y-103301676D01*
X138986351Y-103310214D01*
X138884276Y-103386715D01*
X138871715Y-103399276D01*
X138795214Y-103501351D01*
X138786676Y-103516946D01*
X138741522Y-103637394D01*
X138737895Y-103652649D01*
X138732369Y-103703514D01*
X138732000Y-103710328D01*
X138732000Y-104332885D01*
X138736475Y-104348124D01*
X138737865Y-104349329D01*
X138745548Y-104351000D01*
X141429884Y-104351000D01*
X141445123Y-104346525D01*
X141446328Y-104345135D01*
X141447999Y-104337452D01*
X141447999Y-103710331D01*
X141447629Y-103703510D01*
X141442105Y-103652648D01*
X141438479Y-103637396D01*
X141393324Y-103516946D01*
X141384786Y-103501351D01*
X141308285Y-103399276D01*
X141295724Y-103386715D01*
X141193649Y-103310214D01*
X141178054Y-103301676D01*
X141067813Y-103260348D01*
X141011049Y-103217706D01*
X140986349Y-103151145D01*
X141001557Y-103081796D01*
X141023104Y-103053115D01*
X141124430Y-102952144D01*
X141124440Y-102952132D01*
X141128096Y-102948489D01*
X141187594Y-102865689D01*
X141255435Y-102771277D01*
X141258453Y-102767077D01*
X141262875Y-102758131D01*
X141355136Y-102571453D01*
X141355137Y-102571451D01*
X141357430Y-102566811D01*
X141422370Y-102353069D01*
X141451529Y-102131590D01*
X141453156Y-102065000D01*
X141434852Y-101842361D01*
X141380431Y-101625702D01*
X141291354Y-101420840D01*
X141170014Y-101233277D01*
X141019670Y-101068051D01*
X141015619Y-101064852D01*
X141015615Y-101064848D01*
X140848414Y-100932800D01*
X140848410Y-100932798D01*
X140844359Y-100929598D01*
X140803053Y-100906796D01*
X140753084Y-100856364D01*
X140738312Y-100786921D01*
X140763428Y-100720516D01*
X140790780Y-100693909D01*
X140858285Y-100645758D01*
X140969860Y-100566173D01*
X140976540Y-100559517D01*
X141124435Y-100412137D01*
X141128096Y-100408489D01*
X141187594Y-100325689D01*
X141255435Y-100231277D01*
X141258453Y-100227077D01*
X141313037Y-100116635D01*
X141355136Y-100031453D01*
X141355137Y-100031451D01*
X141357430Y-100026811D01*
X141411898Y-99847535D01*
X141420865Y-99818023D01*
X141420865Y-99818021D01*
X141422370Y-99813069D01*
X141451529Y-99591590D01*
X141453156Y-99525000D01*
X141434852Y-99302361D01*
X141380431Y-99085702D01*
X141291354Y-98880840D01*
X141251906Y-98819862D01*
X141172822Y-98697617D01*
X141172820Y-98697614D01*
X141170014Y-98693277D01*
X141019670Y-98528051D01*
X141015619Y-98524852D01*
X141015615Y-98524848D01*
X140848414Y-98392800D01*
X140848410Y-98392798D01*
X140844359Y-98389598D01*
X140803053Y-98366796D01*
X140753084Y-98316364D01*
X140738312Y-98246921D01*
X140763428Y-98180516D01*
X140790780Y-98153909D01*
X140834603Y-98122650D01*
X140969860Y-98026173D01*
X141128096Y-97868489D01*
X141134042Y-97860215D01*
X141255435Y-97691277D01*
X141258453Y-97687077D01*
X141291803Y-97619599D01*
X141355136Y-97491453D01*
X141355137Y-97491451D01*
X141357430Y-97486811D01*
X141422370Y-97273069D01*
X141451529Y-97051590D01*
X141453156Y-96985000D01*
X141434852Y-96762361D01*
X141380431Y-96545702D01*
X141291354Y-96340840D01*
X141224141Y-96236944D01*
X141172822Y-96157617D01*
X141172820Y-96157614D01*
X141170014Y-96153277D01*
X141019670Y-95988051D01*
X141015619Y-95984852D01*
X141015615Y-95984848D01*
X140848414Y-95852800D01*
X140848410Y-95852798D01*
X140844359Y-95849598D01*
X140803053Y-95826796D01*
X140753084Y-95776364D01*
X140738312Y-95706921D01*
X140763428Y-95640516D01*
X140790780Y-95613909D01*
X140834603Y-95582650D01*
X140969860Y-95486173D01*
X141128096Y-95328489D01*
X141187594Y-95245689D01*
X141255435Y-95151277D01*
X141258453Y-95147077D01*
X141298277Y-95066500D01*
X141355136Y-94951453D01*
X141355137Y-94951451D01*
X141357430Y-94946811D01*
X141422370Y-94733069D01*
X141451529Y-94511590D01*
X141453156Y-94445000D01*
X141434852Y-94222361D01*
X141380431Y-94005702D01*
X141291354Y-93800840D01*
X141226046Y-93699889D01*
X141172822Y-93617617D01*
X141172820Y-93617614D01*
X141170014Y-93613277D01*
X141166532Y-93609450D01*
X141022798Y-93451488D01*
X140991746Y-93387642D01*
X141000141Y-93317143D01*
X141045317Y-93262375D01*
X141071761Y-93248706D01*
X141178297Y-93208767D01*
X141186705Y-93205615D01*
X141303261Y-93118261D01*
X141390615Y-93001705D01*
X141441745Y-92865316D01*
X141448500Y-92803134D01*
X141448500Y-91006866D01*
X141441745Y-90944684D01*
X141390615Y-90808295D01*
X141303261Y-90691739D01*
X141186705Y-90604385D01*
X141159905Y-90594338D01*
X141068203Y-90559960D01*
X141011439Y-90517318D01*
X140986739Y-90450756D01*
X141001947Y-90381408D01*
X141023493Y-90352727D01*
X141128096Y-90248489D01*
X141187594Y-90165689D01*
X141255435Y-90071277D01*
X141258453Y-90067077D01*
X141307561Y-89967715D01*
X141355136Y-89871453D01*
X141355137Y-89871451D01*
X141357430Y-89866811D01*
X141422370Y-89653069D01*
X141451529Y-89431590D01*
X141453156Y-89365000D01*
X141434852Y-89142361D01*
X141380431Y-88925702D01*
X141291354Y-88720840D01*
X141170014Y-88533277D01*
X141019670Y-88368051D01*
X141015619Y-88364852D01*
X141015615Y-88364848D01*
X140848414Y-88232800D01*
X140848410Y-88232798D01*
X140844359Y-88229598D01*
X140803053Y-88206796D01*
X140753084Y-88156364D01*
X140738312Y-88086921D01*
X140763428Y-88020516D01*
X140790780Y-87993909D01*
X140834603Y-87962650D01*
X140969860Y-87866173D01*
X141128096Y-87708489D01*
X141136904Y-87696232D01*
X141255435Y-87531277D01*
X141258453Y-87527077D01*
X141283591Y-87476215D01*
X141355136Y-87331453D01*
X141355137Y-87331451D01*
X141357430Y-87326811D01*
X141422370Y-87113069D01*
X141451529Y-86891590D01*
X141453156Y-86825000D01*
X141434852Y-86602361D01*
X141380431Y-86385702D01*
X141291354Y-86180840D01*
X141191103Y-86025875D01*
X141172822Y-85997617D01*
X141172820Y-85997614D01*
X141170014Y-85993277D01*
X141019670Y-85828051D01*
X141015619Y-85824852D01*
X141015615Y-85824848D01*
X140848414Y-85692800D01*
X140848410Y-85692798D01*
X140844359Y-85689598D01*
X140803053Y-85666796D01*
X140753084Y-85616364D01*
X140738312Y-85546921D01*
X140763428Y-85480516D01*
X140790780Y-85453909D01*
X140834603Y-85422650D01*
X140969860Y-85326173D01*
X140986054Y-85310036D01*
X141124435Y-85172137D01*
X141128096Y-85168489D01*
X141144983Y-85144989D01*
X141255435Y-84991277D01*
X141258453Y-84987077D01*
X141357430Y-84786811D01*
X141422370Y-84573069D01*
X141451529Y-84351590D01*
X141453156Y-84285000D01*
X141434852Y-84062361D01*
X141380431Y-83845702D01*
X141291354Y-83640840D01*
X141170014Y-83453277D01*
X141019670Y-83288051D01*
X141015619Y-83284852D01*
X141015615Y-83284848D01*
X140848414Y-83152800D01*
X140848410Y-83152798D01*
X140844359Y-83149598D01*
X140803053Y-83126796D01*
X140753084Y-83076364D01*
X140738312Y-83006921D01*
X140763428Y-82940516D01*
X140790780Y-82913909D01*
X140834603Y-82882650D01*
X140969860Y-82786173D01*
X141128096Y-82628489D01*
X141187594Y-82545689D01*
X141255435Y-82451277D01*
X141258453Y-82447077D01*
X141357430Y-82246811D01*
X141422370Y-82033069D01*
X141451529Y-81811590D01*
X141453156Y-81745000D01*
X141434852Y-81522361D01*
X141380431Y-81305702D01*
X141291354Y-81100840D01*
X141170014Y-80913277D01*
X141166540Y-80909459D01*
X141166533Y-80909450D01*
X141022435Y-80751088D01*
X140991383Y-80687242D01*
X140999779Y-80616744D01*
X141044956Y-80561976D01*
X141071400Y-80548307D01*
X141178052Y-80508325D01*
X141193649Y-80499786D01*
X141295724Y-80423285D01*
X141308285Y-80410724D01*
X141384786Y-80308649D01*
X141393324Y-80293054D01*
X141438478Y-80172606D01*
X141442105Y-80157351D01*
X141447631Y-80106486D01*
X141448000Y-80099672D01*
X141448000Y-79477115D01*
X141443525Y-79461876D01*
X141442135Y-79460671D01*
X141434452Y-79459000D01*
X138750116Y-79459000D01*
X138734877Y-79463475D01*
X138733672Y-79464865D01*
X138732001Y-79472548D01*
X138732001Y-80099669D01*
X138732371Y-80106490D01*
X138737895Y-80157352D01*
X138741521Y-80172604D01*
X138786676Y-80293054D01*
X138795214Y-80308649D01*
X138871715Y-80410724D01*
X138884276Y-80423285D01*
X138986351Y-80499786D01*
X139001946Y-80508324D01*
X139110827Y-80549142D01*
X139167591Y-80591784D01*
X139192291Y-80658345D01*
X139177083Y-80727694D01*
X139157691Y-80754175D01*
X139034200Y-80883401D01*
X139030629Y-80887138D01*
X139027715Y-80891410D01*
X139027714Y-80891411D01*
X138942556Y-81016249D01*
X138904743Y-81071680D01*
X138889003Y-81105590D01*
X138819804Y-81254667D01*
X138810688Y-81274305D01*
X138750989Y-81489570D01*
X138727251Y-81711695D01*
X138727548Y-81716848D01*
X138727548Y-81716851D01*
X138736072Y-81864684D01*
X138740110Y-81934715D01*
X138741247Y-81939761D01*
X138741248Y-81939767D01*
X138761119Y-82027939D01*
X138789222Y-82152639D01*
X138873266Y-82359616D01*
X138989987Y-82550088D01*
X139136250Y-82718938D01*
X139308126Y-82861632D01*
X139378595Y-82902811D01*
X139381445Y-82904476D01*
X139430169Y-82956114D01*
X139443240Y-83025897D01*
X139416509Y-83091669D01*
X139376055Y-83125027D01*
X139363607Y-83131507D01*
X139359474Y-83134610D01*
X139359471Y-83134612D01*
X139335247Y-83152800D01*
X139184965Y-83265635D01*
X139030629Y-83427138D01*
X138904743Y-83611680D01*
X138889003Y-83645590D01*
X138820710Y-83792715D01*
X138810688Y-83814305D01*
X138750989Y-84029570D01*
X138727251Y-84251695D01*
X138727548Y-84256848D01*
X138727548Y-84256851D01*
X138733011Y-84351590D01*
X138740110Y-84474715D01*
X138741247Y-84479761D01*
X138741248Y-84479767D01*
X138761119Y-84567939D01*
X138789222Y-84692639D01*
X138873266Y-84899616D01*
X138989987Y-85090088D01*
X139136250Y-85258938D01*
X139308126Y-85401632D01*
X139370200Y-85437905D01*
X139381445Y-85444476D01*
X139430169Y-85496114D01*
X139443240Y-85565897D01*
X139416509Y-85631669D01*
X139376055Y-85665027D01*
X139363607Y-85671507D01*
X139359474Y-85674610D01*
X139359471Y-85674612D01*
X139203627Y-85791623D01*
X139184965Y-85805635D01*
X139030629Y-85967138D01*
X138904743Y-86151680D01*
X138810688Y-86354305D01*
X138750989Y-86569570D01*
X138727251Y-86791695D01*
X138727548Y-86796848D01*
X138727548Y-86796851D01*
X138739812Y-87009547D01*
X138740110Y-87014715D01*
X138741247Y-87019761D01*
X138741248Y-87019767D01*
X138754551Y-87078794D01*
X138789222Y-87232639D01*
X138873266Y-87439616D01*
X138989987Y-87630088D01*
X139136250Y-87798938D01*
X139308126Y-87941632D01*
X139378595Y-87982811D01*
X139381445Y-87984476D01*
X139430169Y-88036114D01*
X139443240Y-88105897D01*
X139416509Y-88171669D01*
X139376055Y-88205027D01*
X139363607Y-88211507D01*
X139359474Y-88214610D01*
X139359471Y-88214612D01*
X139335247Y-88232800D01*
X139184965Y-88345635D01*
X139030629Y-88507138D01*
X138904743Y-88691680D01*
X138810688Y-88894305D01*
X138750989Y-89109570D01*
X138727251Y-89331695D01*
X138727548Y-89336848D01*
X138727548Y-89336851D01*
X138733011Y-89431590D01*
X138740110Y-89554715D01*
X138741247Y-89559761D01*
X138741248Y-89559767D01*
X138761119Y-89647939D01*
X138789222Y-89772639D01*
X138827461Y-89866811D01*
X138868434Y-89967715D01*
X138873266Y-89979616D01*
X138875965Y-89984020D01*
X138949422Y-90103891D01*
X138989987Y-90170088D01*
X139136250Y-90338938D01*
X139140230Y-90342242D01*
X139144981Y-90346187D01*
X139184616Y-90405090D01*
X139186113Y-90476071D01*
X139148997Y-90536593D01*
X139108725Y-90561112D01*
X139020095Y-90594338D01*
X138993295Y-90604385D01*
X138876739Y-90691739D01*
X138789385Y-90808295D01*
X138738255Y-90944684D01*
X138731500Y-91006866D01*
X138731500Y-92803134D01*
X138738255Y-92865316D01*
X138789385Y-93001705D01*
X138876739Y-93118261D01*
X138993295Y-93205615D01*
X139001704Y-93208767D01*
X139001705Y-93208768D01*
X139110451Y-93249535D01*
X139167216Y-93292176D01*
X139191916Y-93358738D01*
X139176709Y-93428087D01*
X139157316Y-93454568D01*
X139030629Y-93587138D01*
X138904743Y-93771680D01*
X138865645Y-93855910D01*
X138845465Y-93899385D01*
X138810688Y-93974305D01*
X138750989Y-94189570D01*
X138727251Y-94411695D01*
X138727548Y-94416848D01*
X138727548Y-94416851D01*
X138733011Y-94511590D01*
X138740110Y-94634715D01*
X138741247Y-94639761D01*
X138741248Y-94639767D01*
X138761119Y-94727939D01*
X138789222Y-94852639D01*
X138873266Y-95059616D01*
X138989987Y-95250088D01*
X139136250Y-95418938D01*
X139308126Y-95561632D01*
X139378595Y-95602811D01*
X139381445Y-95604476D01*
X139430169Y-95656114D01*
X139443240Y-95725897D01*
X139416509Y-95791669D01*
X139376055Y-95825027D01*
X139363607Y-95831507D01*
X139359474Y-95834610D01*
X139359471Y-95834612D01*
X139189100Y-95962530D01*
X139184965Y-95965635D01*
X139181393Y-95969373D01*
X139089751Y-96065271D01*
X139030629Y-96127138D01*
X139027715Y-96131410D01*
X139027714Y-96131411D01*
X139002949Y-96167715D01*
X138904743Y-96311680D01*
X138871756Y-96382745D01*
X138815580Y-96503767D01*
X138810688Y-96514305D01*
X138750989Y-96729570D01*
X138727251Y-96951695D01*
X138727548Y-96956848D01*
X138727548Y-96956851D01*
X138733011Y-97051590D01*
X138740110Y-97174715D01*
X138741247Y-97179761D01*
X138741248Y-97179767D01*
X138761119Y-97267939D01*
X138789222Y-97392639D01*
X138873266Y-97599616D01*
X138885512Y-97619599D01*
X138952076Y-97728222D01*
X138989987Y-97790088D01*
X139136250Y-97958938D01*
X139308126Y-98101632D01*
X139378595Y-98142811D01*
X139381445Y-98144476D01*
X139430169Y-98196114D01*
X139443240Y-98265897D01*
X139416509Y-98331669D01*
X139376055Y-98365027D01*
X139363607Y-98371507D01*
X139359474Y-98374610D01*
X139359471Y-98374612D01*
X139251312Y-98455820D01*
X139184827Y-98480726D01*
X139115431Y-98465734D01*
X139065158Y-98415603D01*
X139055826Y-98393996D01*
X139055438Y-98392800D01*
X139034527Y-98328444D01*
X139007504Y-98281638D01*
X138997314Y-98263990D01*
X138939040Y-98163056D01*
X138811253Y-98021134D01*
X138656752Y-97908882D01*
X138650724Y-97906198D01*
X138650722Y-97906197D01*
X138488319Y-97833891D01*
X138488318Y-97833891D01*
X138482288Y-97831206D01*
X138388888Y-97811353D01*
X138301944Y-97792872D01*
X138301939Y-97792872D01*
X138295487Y-97791500D01*
X138104513Y-97791500D01*
X138098061Y-97792872D01*
X138098056Y-97792872D01*
X138011112Y-97811353D01*
X137917712Y-97831206D01*
X137911682Y-97833891D01*
X137911681Y-97833891D01*
X137749278Y-97906197D01*
X137749276Y-97906198D01*
X137743248Y-97908882D01*
X137588747Y-98021134D01*
X137460960Y-98163056D01*
X137402686Y-98263990D01*
X137392497Y-98281638D01*
X137365473Y-98328444D01*
X137306458Y-98510072D01*
X137305768Y-98516633D01*
X137305768Y-98516635D01*
X137297618Y-98594183D01*
X137286496Y-98700000D01*
X137306458Y-98889928D01*
X137365473Y-99071556D01*
X137460960Y-99236944D01*
X137534137Y-99318215D01*
X137564853Y-99382221D01*
X137566500Y-99402524D01*
X137566500Y-99597476D01*
X137546498Y-99665597D01*
X137534142Y-99681779D01*
X137460960Y-99763056D01*
X137365473Y-99928444D01*
X137306458Y-100110072D01*
X137305768Y-100116633D01*
X137305768Y-100116635D01*
X137298400Y-100186739D01*
X137286496Y-100300000D01*
X123426053Y-100300000D01*
X123475435Y-100231277D01*
X123478453Y-100227077D01*
X123533037Y-100116635D01*
X123575136Y-100031453D01*
X123575137Y-100031451D01*
X123577430Y-100026811D01*
X123631898Y-99847535D01*
X123640865Y-99818023D01*
X123640865Y-99818021D01*
X123642370Y-99813069D01*
X123671529Y-99591590D01*
X123673156Y-99525000D01*
X123654852Y-99302361D01*
X123600431Y-99085702D01*
X123511354Y-98880840D01*
X123471906Y-98819862D01*
X123392822Y-98697617D01*
X123392820Y-98697614D01*
X123390014Y-98693277D01*
X123239670Y-98528051D01*
X123235619Y-98524852D01*
X123235615Y-98524848D01*
X123068414Y-98392800D01*
X123068410Y-98392798D01*
X123064359Y-98389598D01*
X123023053Y-98366796D01*
X122973084Y-98316364D01*
X122958312Y-98246921D01*
X122983428Y-98180516D01*
X123010780Y-98153909D01*
X123054603Y-98122650D01*
X123189860Y-98026173D01*
X123348096Y-97868489D01*
X123354042Y-97860215D01*
X123475435Y-97691277D01*
X123478453Y-97687077D01*
X123511803Y-97619599D01*
X123575136Y-97491453D01*
X123575137Y-97491451D01*
X123577430Y-97486811D01*
X123642370Y-97273069D01*
X123671529Y-97051590D01*
X123673156Y-96985000D01*
X123654852Y-96762361D01*
X123600431Y-96545702D01*
X123511354Y-96340840D01*
X123444141Y-96236944D01*
X123392822Y-96157617D01*
X123392820Y-96157614D01*
X123390014Y-96153277D01*
X123239670Y-95988051D01*
X123235619Y-95984852D01*
X123235615Y-95984848D01*
X123068414Y-95852800D01*
X123068410Y-95852798D01*
X123064359Y-95849598D01*
X123023053Y-95826796D01*
X122973084Y-95776364D01*
X122958312Y-95706921D01*
X122983428Y-95640516D01*
X123010780Y-95613909D01*
X123054603Y-95582650D01*
X123189860Y-95486173D01*
X123348096Y-95328489D01*
X123407594Y-95245689D01*
X123475435Y-95151277D01*
X123478453Y-95147077D01*
X123518277Y-95066500D01*
X123575136Y-94951453D01*
X123575137Y-94951451D01*
X123577430Y-94946811D01*
X123642370Y-94733069D01*
X123671529Y-94511590D01*
X123673156Y-94445000D01*
X123654852Y-94222361D01*
X123600431Y-94005702D01*
X123511354Y-93800840D01*
X123446046Y-93699889D01*
X123392822Y-93617617D01*
X123392820Y-93617614D01*
X123390014Y-93613277D01*
X123386540Y-93609459D01*
X123386533Y-93609450D01*
X123242435Y-93451088D01*
X123211383Y-93387242D01*
X123219779Y-93316744D01*
X123264956Y-93261976D01*
X123291400Y-93248307D01*
X123398052Y-93208325D01*
X123413649Y-93199786D01*
X123515724Y-93123285D01*
X123528285Y-93110724D01*
X123604786Y-93008649D01*
X123613324Y-92993054D01*
X123658478Y-92872606D01*
X123662105Y-92857351D01*
X123667631Y-92806486D01*
X123668000Y-92799672D01*
X123668000Y-92177115D01*
X123663525Y-92161876D01*
X123662135Y-92160671D01*
X123654452Y-92159000D01*
X120970116Y-92159000D01*
X120954877Y-92163475D01*
X120953672Y-92164865D01*
X120952001Y-92172548D01*
X120952001Y-92799669D01*
X120952371Y-92806490D01*
X120957895Y-92857352D01*
X120961521Y-92872604D01*
X121006676Y-92993054D01*
X121015214Y-93008649D01*
X121091715Y-93110724D01*
X121104276Y-93123285D01*
X121206351Y-93199786D01*
X121221946Y-93208324D01*
X121330827Y-93249142D01*
X121387591Y-93291784D01*
X121412291Y-93358345D01*
X121397083Y-93427694D01*
X121377691Y-93454175D01*
X121371754Y-93460388D01*
X121250629Y-93587138D01*
X121124743Y-93771680D01*
X121085645Y-93855910D01*
X121065465Y-93899385D01*
X121030688Y-93974305D01*
X120970989Y-94189570D01*
X120947251Y-94411695D01*
X120947548Y-94416848D01*
X120947548Y-94416851D01*
X120953011Y-94511590D01*
X120960110Y-94634715D01*
X120961247Y-94639761D01*
X120961248Y-94639767D01*
X120981119Y-94727939D01*
X121009222Y-94852639D01*
X121093266Y-95059616D01*
X121209987Y-95250088D01*
X121356250Y-95418938D01*
X121528126Y-95561632D01*
X121598595Y-95602811D01*
X121601445Y-95604476D01*
X121650169Y-95656114D01*
X121663240Y-95725897D01*
X121636509Y-95791669D01*
X121596055Y-95825027D01*
X121583607Y-95831507D01*
X121579474Y-95834610D01*
X121579471Y-95834612D01*
X121409100Y-95962530D01*
X121404965Y-95965635D01*
X121401393Y-95969373D01*
X121309751Y-96065271D01*
X121250629Y-96127138D01*
X121247715Y-96131410D01*
X121247714Y-96131411D01*
X121222949Y-96167715D01*
X121124743Y-96311680D01*
X121091756Y-96382745D01*
X121035580Y-96503767D01*
X121030688Y-96514305D01*
X120970989Y-96729570D01*
X120947251Y-96951695D01*
X120947548Y-96956848D01*
X120947548Y-96956851D01*
X120953011Y-97051590D01*
X120960110Y-97174715D01*
X120961247Y-97179761D01*
X120961248Y-97179767D01*
X120981119Y-97267939D01*
X121009222Y-97392639D01*
X121093266Y-97599616D01*
X121105512Y-97619599D01*
X121172076Y-97728222D01*
X121209987Y-97790088D01*
X121356250Y-97958938D01*
X121528126Y-98101632D01*
X121598595Y-98142811D01*
X121601445Y-98144476D01*
X121650169Y-98196114D01*
X121663240Y-98265897D01*
X121636509Y-98331669D01*
X121596055Y-98365027D01*
X121583607Y-98371507D01*
X121579474Y-98374610D01*
X121579471Y-98374612D01*
X121409100Y-98502530D01*
X121404965Y-98505635D01*
X121250629Y-98667138D01*
X121124743Y-98851680D01*
X121030688Y-99054305D01*
X120970989Y-99269570D01*
X120947251Y-99491695D01*
X120947548Y-99496848D01*
X120947548Y-99496851D01*
X120953011Y-99591590D01*
X120960110Y-99714715D01*
X120961247Y-99719761D01*
X120961248Y-99719767D01*
X120965575Y-99738965D01*
X121009222Y-99932639D01*
X121058813Y-100054767D01*
X121081270Y-100110072D01*
X121093266Y-100139616D01*
X121122143Y-100186739D01*
X121198721Y-100311703D01*
X121209987Y-100330088D01*
X121356250Y-100498938D01*
X121528126Y-100641632D01*
X121568588Y-100665276D01*
X121601445Y-100684476D01*
X121650169Y-100736114D01*
X121663240Y-100805897D01*
X121636509Y-100871669D01*
X121596055Y-100905027D01*
X121583607Y-100911507D01*
X121579474Y-100914610D01*
X121579471Y-100914612D01*
X121493893Y-100978866D01*
X121404965Y-101045635D01*
X121250629Y-101207138D01*
X121124743Y-101391680D01*
X121030688Y-101594305D01*
X120970989Y-101809570D01*
X120947251Y-102031695D01*
X104658500Y-102031695D01*
X104658500Y-100501866D01*
X104651745Y-100439684D01*
X104600615Y-100303295D01*
X104513261Y-100186739D01*
X104396705Y-100099385D01*
X104277687Y-100054767D01*
X104220923Y-100012125D01*
X104196223Y-99945564D01*
X104211430Y-99876215D01*
X104232977Y-99847535D01*
X104334052Y-99746812D01*
X104340730Y-99738965D01*
X104465003Y-99566020D01*
X104470313Y-99557183D01*
X104564670Y-99366267D01*
X104568469Y-99356672D01*
X104630377Y-99152910D01*
X104632555Y-99142837D01*
X104633986Y-99131962D01*
X104631775Y-99117778D01*
X104618617Y-99114000D01*
X101983225Y-99114000D01*
X101969694Y-99117973D01*
X101968257Y-99127966D01*
X101998565Y-99262446D01*
X102001645Y-99272275D01*
X102081770Y-99469603D01*
X102086413Y-99478794D01*
X102197694Y-99660388D01*
X102203777Y-99668699D01*
X102343213Y-99829667D01*
X102350577Y-99836879D01*
X102355522Y-99840985D01*
X102395156Y-99899889D01*
X102396653Y-99970870D01*
X102359537Y-100031392D01*
X102319264Y-100055910D01*
X102211705Y-100096232D01*
X102211704Y-100096233D01*
X102203295Y-100099385D01*
X102086739Y-100186739D01*
X101999385Y-100303295D01*
X101948255Y-100439684D01*
X101941500Y-100501866D01*
X101941500Y-102298134D01*
X93108500Y-102298134D01*
X93108500Y-98594183D01*
X101964389Y-98594183D01*
X101965912Y-98602607D01*
X101978292Y-98606000D01*
X103027885Y-98606000D01*
X103043124Y-98601525D01*
X103044329Y-98600135D01*
X103046000Y-98592452D01*
X103046000Y-98587885D01*
X103554000Y-98587885D01*
X103558475Y-98603124D01*
X103559865Y-98604329D01*
X103567548Y-98606000D01*
X104618344Y-98606000D01*
X104631875Y-98602027D01*
X104633180Y-98592947D01*
X104591214Y-98425875D01*
X104587894Y-98416124D01*
X104502972Y-98220814D01*
X104498105Y-98211739D01*
X104382426Y-98032926D01*
X104376136Y-98024757D01*
X104232806Y-97867240D01*
X104225273Y-97860215D01*
X104058139Y-97728222D01*
X104049552Y-97722517D01*
X103863117Y-97619599D01*
X103853705Y-97615369D01*
X103652959Y-97544280D01*
X103642988Y-97541646D01*
X103571837Y-97528972D01*
X103558540Y-97530432D01*
X103554000Y-97544989D01*
X103554000Y-98587885D01*
X103046000Y-98587885D01*
X103046000Y-97543102D01*
X103042082Y-97529758D01*
X103027806Y-97527771D01*
X102989324Y-97533660D01*
X102979288Y-97536051D01*
X102776868Y-97602212D01*
X102767359Y-97606209D01*
X102578463Y-97704542D01*
X102569738Y-97710036D01*
X102399433Y-97837905D01*
X102391726Y-97844748D01*
X102244590Y-97998717D01*
X102238104Y-98006727D01*
X102118098Y-98182649D01*
X102113000Y-98191623D01*
X102023338Y-98384783D01*
X102019775Y-98394470D01*
X101964389Y-98594183D01*
X93108500Y-98594183D01*
X93108500Y-96098134D01*
X101941500Y-96098134D01*
X101948255Y-96160316D01*
X101999385Y-96296705D01*
X102086739Y-96413261D01*
X102203295Y-96500615D01*
X102339684Y-96551745D01*
X102401866Y-96558500D01*
X104198134Y-96558500D01*
X104260316Y-96551745D01*
X104396705Y-96500615D01*
X104513261Y-96413261D01*
X104600615Y-96296705D01*
X104651745Y-96160316D01*
X104658500Y-96098134D01*
X104658500Y-95700000D01*
X112386496Y-95700000D01*
X112406458Y-95889928D01*
X112465473Y-96071556D01*
X112560960Y-96236944D01*
X112565378Y-96241851D01*
X112565379Y-96241852D01*
X112632480Y-96316375D01*
X112688747Y-96378866D01*
X112843248Y-96491118D01*
X112849276Y-96493802D01*
X112849278Y-96493803D01*
X112977117Y-96550720D01*
X113017712Y-96568794D01*
X113111112Y-96588647D01*
X113198056Y-96607128D01*
X113198061Y-96607128D01*
X113204513Y-96608500D01*
X113395487Y-96608500D01*
X113401939Y-96607128D01*
X113401944Y-96607128D01*
X113488888Y-96588647D01*
X113582288Y-96568794D01*
X113622883Y-96550720D01*
X113750722Y-96493803D01*
X113750724Y-96493802D01*
X113756752Y-96491118D01*
X113911253Y-96378866D01*
X113915668Y-96373963D01*
X113920580Y-96369540D01*
X113921705Y-96370789D01*
X113975014Y-96337949D01*
X114008200Y-96333500D01*
X114291800Y-96333500D01*
X114359921Y-96353502D01*
X114379147Y-96369843D01*
X114379420Y-96369540D01*
X114384332Y-96373963D01*
X114388747Y-96378866D01*
X114543248Y-96491118D01*
X114549276Y-96493802D01*
X114549278Y-96493803D01*
X114677117Y-96550720D01*
X114717712Y-96568794D01*
X114811112Y-96588647D01*
X114898056Y-96607128D01*
X114898061Y-96607128D01*
X114904513Y-96608500D01*
X115095487Y-96608500D01*
X115101939Y-96607128D01*
X115101944Y-96607128D01*
X115188888Y-96588647D01*
X115282288Y-96568794D01*
X115322883Y-96550720D01*
X115450722Y-96493803D01*
X115450724Y-96493802D01*
X115456752Y-96491118D01*
X115611253Y-96378866D01*
X115667520Y-96316375D01*
X115734621Y-96241852D01*
X115734622Y-96241851D01*
X115739040Y-96236944D01*
X115834527Y-96071556D01*
X115893542Y-95889928D01*
X115913504Y-95700000D01*
X115907252Y-95640516D01*
X115894232Y-95516635D01*
X115894232Y-95516633D01*
X115893542Y-95510072D01*
X115834527Y-95328444D01*
X115739040Y-95163056D01*
X115724653Y-95147077D01*
X115615675Y-95026045D01*
X115615674Y-95026044D01*
X115611253Y-95021134D01*
X115456752Y-94908882D01*
X115450724Y-94906198D01*
X115450722Y-94906197D01*
X115288319Y-94833891D01*
X115288318Y-94833891D01*
X115282288Y-94831206D01*
X115188887Y-94811353D01*
X115101944Y-94792872D01*
X115101939Y-94792872D01*
X115095487Y-94791500D01*
X114904513Y-94791500D01*
X114898061Y-94792872D01*
X114898056Y-94792872D01*
X114811113Y-94811353D01*
X114717712Y-94831206D01*
X114711682Y-94833891D01*
X114711681Y-94833891D01*
X114549278Y-94906197D01*
X114549276Y-94906198D01*
X114543248Y-94908882D01*
X114388747Y-95021134D01*
X114384332Y-95026037D01*
X114379420Y-95030460D01*
X114378295Y-95029211D01*
X114324986Y-95062051D01*
X114291800Y-95066500D01*
X114008200Y-95066500D01*
X113940079Y-95046498D01*
X113920853Y-95030157D01*
X113920580Y-95030460D01*
X113915668Y-95026037D01*
X113911253Y-95021134D01*
X113756752Y-94908882D01*
X113750724Y-94906198D01*
X113750722Y-94906197D01*
X113588319Y-94833891D01*
X113588318Y-94833891D01*
X113582288Y-94831206D01*
X113488887Y-94811353D01*
X113401944Y-94792872D01*
X113401939Y-94792872D01*
X113395487Y-94791500D01*
X113204513Y-94791500D01*
X113198061Y-94792872D01*
X113198056Y-94792872D01*
X113111113Y-94811353D01*
X113017712Y-94831206D01*
X113011682Y-94833891D01*
X113011681Y-94833891D01*
X112849278Y-94906197D01*
X112849276Y-94906198D01*
X112843248Y-94908882D01*
X112688747Y-95021134D01*
X112684326Y-95026044D01*
X112684325Y-95026045D01*
X112575348Y-95147077D01*
X112560960Y-95163056D01*
X112465473Y-95328444D01*
X112406458Y-95510072D01*
X112405768Y-95516633D01*
X112405768Y-95516635D01*
X112392748Y-95640516D01*
X112386496Y-95700000D01*
X104658500Y-95700000D01*
X104658500Y-94301866D01*
X104651745Y-94239684D01*
X104600615Y-94103295D01*
X104513261Y-93986739D01*
X104396705Y-93899385D01*
X104277687Y-93854767D01*
X104220923Y-93812125D01*
X104196223Y-93745564D01*
X104211430Y-93676215D01*
X104232977Y-93647535D01*
X104334052Y-93546812D01*
X104340730Y-93538965D01*
X104465003Y-93366020D01*
X104470313Y-93357183D01*
X104564670Y-93166267D01*
X104568469Y-93156672D01*
X104630377Y-92952910D01*
X104632555Y-92942837D01*
X104633986Y-92931962D01*
X104631775Y-92917778D01*
X104618617Y-92914000D01*
X101983225Y-92914000D01*
X101969694Y-92917973D01*
X101968257Y-92927966D01*
X101998565Y-93062446D01*
X102001645Y-93072275D01*
X102081770Y-93269603D01*
X102086413Y-93278794D01*
X102197694Y-93460388D01*
X102203777Y-93468699D01*
X102343213Y-93629667D01*
X102350577Y-93636879D01*
X102355522Y-93640985D01*
X102395156Y-93699889D01*
X102396653Y-93770870D01*
X102359537Y-93831392D01*
X102319264Y-93855910D01*
X102211705Y-93896232D01*
X102211704Y-93896233D01*
X102203295Y-93899385D01*
X102086739Y-93986739D01*
X101999385Y-94103295D01*
X101948255Y-94239684D01*
X101941500Y-94301866D01*
X101941500Y-96098134D01*
X93108500Y-96098134D01*
X93108500Y-92394183D01*
X101964389Y-92394183D01*
X101965912Y-92402607D01*
X101978292Y-92406000D01*
X103027885Y-92406000D01*
X103043124Y-92401525D01*
X103044329Y-92400135D01*
X103046000Y-92392452D01*
X103046000Y-92387885D01*
X103554000Y-92387885D01*
X103558475Y-92403124D01*
X103559865Y-92404329D01*
X103567548Y-92406000D01*
X104618344Y-92406000D01*
X104631875Y-92402027D01*
X104633180Y-92392947D01*
X104591214Y-92225875D01*
X104587894Y-92216124D01*
X104502972Y-92020814D01*
X104498105Y-92011739D01*
X104382426Y-91832926D01*
X104376136Y-91824757D01*
X104232806Y-91667240D01*
X104225273Y-91660215D01*
X104058139Y-91528222D01*
X104049552Y-91522517D01*
X103863117Y-91419599D01*
X103853705Y-91415369D01*
X103652959Y-91344280D01*
X103642988Y-91341646D01*
X103571837Y-91328972D01*
X103558540Y-91330432D01*
X103554000Y-91344989D01*
X103554000Y-92387885D01*
X103046000Y-92387885D01*
X103046000Y-91343102D01*
X103042082Y-91329758D01*
X103027806Y-91327771D01*
X102989324Y-91333660D01*
X102979288Y-91336051D01*
X102776868Y-91402212D01*
X102767359Y-91406209D01*
X102578463Y-91504542D01*
X102569738Y-91510036D01*
X102399433Y-91637905D01*
X102391726Y-91644748D01*
X102244590Y-91798717D01*
X102238104Y-91806727D01*
X102118098Y-91982649D01*
X102113000Y-91991623D01*
X102023338Y-92184783D01*
X102019775Y-92194470D01*
X101964389Y-92394183D01*
X93108500Y-92394183D01*
X93108500Y-89898134D01*
X101941500Y-89898134D01*
X101948255Y-89960316D01*
X101999385Y-90096705D01*
X102086739Y-90213261D01*
X102203295Y-90300615D01*
X102339684Y-90351745D01*
X102401866Y-90358500D01*
X104198134Y-90358500D01*
X104260316Y-90351745D01*
X104396705Y-90300615D01*
X104513261Y-90213261D01*
X104600615Y-90096705D01*
X104651745Y-89960316D01*
X104658500Y-89898134D01*
X104658500Y-89331695D01*
X120947251Y-89331695D01*
X120947548Y-89336848D01*
X120947548Y-89336851D01*
X120953011Y-89431590D01*
X120960110Y-89554715D01*
X120961247Y-89559761D01*
X120961248Y-89559767D01*
X120981119Y-89647939D01*
X121009222Y-89772639D01*
X121047461Y-89866811D01*
X121088434Y-89967715D01*
X121093266Y-89979616D01*
X121095965Y-89984020D01*
X121169422Y-90103891D01*
X121209987Y-90170088D01*
X121356250Y-90338938D01*
X121360225Y-90342238D01*
X121360231Y-90342244D01*
X121365425Y-90346556D01*
X121405059Y-90405460D01*
X121406555Y-90476441D01*
X121369439Y-90536962D01*
X121329168Y-90561480D01*
X121221946Y-90601676D01*
X121206351Y-90610214D01*
X121104276Y-90686715D01*
X121091715Y-90699276D01*
X121015214Y-90801351D01*
X121006676Y-90816946D01*
X120961522Y-90937394D01*
X120957895Y-90952649D01*
X120952369Y-91003514D01*
X120952000Y-91010328D01*
X120952000Y-91632885D01*
X120956475Y-91648124D01*
X120957865Y-91649329D01*
X120965548Y-91651000D01*
X123649884Y-91651000D01*
X123665123Y-91646525D01*
X123666328Y-91645135D01*
X123667999Y-91637452D01*
X123667999Y-91010331D01*
X123667629Y-91003510D01*
X123662105Y-90952648D01*
X123658479Y-90937396D01*
X123613324Y-90816946D01*
X123604786Y-90801351D01*
X123528285Y-90699276D01*
X123515724Y-90686715D01*
X123413649Y-90610214D01*
X123398054Y-90601676D01*
X123287813Y-90560348D01*
X123231049Y-90517706D01*
X123206349Y-90451145D01*
X123221557Y-90381796D01*
X123243104Y-90353115D01*
X123344430Y-90252144D01*
X123344440Y-90252132D01*
X123348096Y-90248489D01*
X123407594Y-90165689D01*
X123475435Y-90071277D01*
X123478453Y-90067077D01*
X123527561Y-89967715D01*
X123575136Y-89871453D01*
X123575137Y-89871451D01*
X123577430Y-89866811D01*
X123642370Y-89653069D01*
X123671529Y-89431590D01*
X123673156Y-89365000D01*
X123654852Y-89142361D01*
X123600431Y-88925702D01*
X123511354Y-88720840D01*
X123390014Y-88533277D01*
X123239670Y-88368051D01*
X123235619Y-88364852D01*
X123235615Y-88364848D01*
X123068414Y-88232800D01*
X123068410Y-88232798D01*
X123064359Y-88229598D01*
X123023053Y-88206796D01*
X122973084Y-88156364D01*
X122958312Y-88086921D01*
X122983428Y-88020516D01*
X123010780Y-87993909D01*
X123054603Y-87962650D01*
X123189860Y-87866173D01*
X123348096Y-87708489D01*
X123356904Y-87696232D01*
X123475435Y-87531277D01*
X123478453Y-87527077D01*
X123503591Y-87476215D01*
X123575136Y-87331453D01*
X123575137Y-87331451D01*
X123577430Y-87326811D01*
X123642370Y-87113069D01*
X123671529Y-86891590D01*
X123673156Y-86825000D01*
X123654852Y-86602361D01*
X123600431Y-86385702D01*
X123511354Y-86180840D01*
X123411103Y-86025875D01*
X123392822Y-85997617D01*
X123392820Y-85997614D01*
X123390014Y-85993277D01*
X123239670Y-85828051D01*
X123235619Y-85824852D01*
X123235615Y-85824848D01*
X123068414Y-85692800D01*
X123068410Y-85692798D01*
X123064359Y-85689598D01*
X123023053Y-85666796D01*
X122973084Y-85616364D01*
X122958312Y-85546921D01*
X122983428Y-85480516D01*
X123010780Y-85453909D01*
X123054603Y-85422650D01*
X123189860Y-85326173D01*
X123206054Y-85310036D01*
X123344435Y-85172137D01*
X123348096Y-85168489D01*
X123364983Y-85144989D01*
X123475435Y-84991277D01*
X123478453Y-84987077D01*
X123577430Y-84786811D01*
X123642370Y-84573069D01*
X123671529Y-84351590D01*
X123673156Y-84285000D01*
X123654852Y-84062361D01*
X123600431Y-83845702D01*
X123511354Y-83640840D01*
X123390014Y-83453277D01*
X123239670Y-83288051D01*
X123235619Y-83284852D01*
X123235615Y-83284848D01*
X123068414Y-83152800D01*
X123068410Y-83152798D01*
X123064359Y-83149598D01*
X123023053Y-83126796D01*
X122973084Y-83076364D01*
X122958312Y-83006921D01*
X122983428Y-82940516D01*
X123010780Y-82913909D01*
X123054603Y-82882650D01*
X123189860Y-82786173D01*
X123348096Y-82628489D01*
X123407594Y-82545689D01*
X123475435Y-82451277D01*
X123478453Y-82447077D01*
X123577430Y-82246811D01*
X123642370Y-82033069D01*
X123671529Y-81811590D01*
X123673156Y-81745000D01*
X123654852Y-81522361D01*
X123600431Y-81305702D01*
X123511354Y-81100840D01*
X123390014Y-80913277D01*
X123386540Y-80909459D01*
X123386533Y-80909450D01*
X123242435Y-80751088D01*
X123211383Y-80687242D01*
X123219779Y-80616744D01*
X123264956Y-80561976D01*
X123291400Y-80548307D01*
X123398052Y-80508325D01*
X123413649Y-80499786D01*
X123515724Y-80423285D01*
X123528285Y-80410724D01*
X123604786Y-80308649D01*
X123613324Y-80293054D01*
X123658478Y-80172606D01*
X123662105Y-80157351D01*
X123667631Y-80106486D01*
X123668000Y-80099672D01*
X123668000Y-79477115D01*
X123663525Y-79461876D01*
X123662135Y-79460671D01*
X123654452Y-79459000D01*
X120970116Y-79459000D01*
X120954877Y-79463475D01*
X120953672Y-79464865D01*
X120952001Y-79472548D01*
X120952001Y-80099669D01*
X120952371Y-80106490D01*
X120957895Y-80157352D01*
X120961521Y-80172604D01*
X121006676Y-80293054D01*
X121015214Y-80308649D01*
X121091715Y-80410724D01*
X121104276Y-80423285D01*
X121206351Y-80499786D01*
X121221946Y-80508324D01*
X121330827Y-80549142D01*
X121387591Y-80591784D01*
X121412291Y-80658345D01*
X121397083Y-80727694D01*
X121377691Y-80754175D01*
X121254200Y-80883401D01*
X121250629Y-80887138D01*
X121247715Y-80891410D01*
X121247714Y-80891411D01*
X121162556Y-81016249D01*
X121124743Y-81071680D01*
X121109003Y-81105590D01*
X121039804Y-81254667D01*
X121030688Y-81274305D01*
X120970989Y-81489570D01*
X120947251Y-81711695D01*
X120947548Y-81716848D01*
X120947548Y-81716851D01*
X120956072Y-81864684D01*
X120960110Y-81934715D01*
X120961247Y-81939761D01*
X120961248Y-81939767D01*
X120981119Y-82027939D01*
X121009222Y-82152639D01*
X121093266Y-82359616D01*
X121209987Y-82550088D01*
X121356250Y-82718938D01*
X121528126Y-82861632D01*
X121598595Y-82902811D01*
X121601445Y-82904476D01*
X121650169Y-82956114D01*
X121663240Y-83025897D01*
X121636509Y-83091669D01*
X121596055Y-83125027D01*
X121583607Y-83131507D01*
X121579474Y-83134610D01*
X121579471Y-83134612D01*
X121555247Y-83152800D01*
X121404965Y-83265635D01*
X121250629Y-83427138D01*
X121124743Y-83611680D01*
X121109003Y-83645590D01*
X121040710Y-83792715D01*
X121030688Y-83814305D01*
X120970989Y-84029570D01*
X120947251Y-84251695D01*
X120947548Y-84256848D01*
X120947548Y-84256851D01*
X120953011Y-84351590D01*
X120960110Y-84474715D01*
X120961247Y-84479761D01*
X120961248Y-84479767D01*
X120981119Y-84567939D01*
X121009222Y-84692639D01*
X121093266Y-84899616D01*
X121209987Y-85090088D01*
X121356250Y-85258938D01*
X121528126Y-85401632D01*
X121590200Y-85437905D01*
X121601445Y-85444476D01*
X121650169Y-85496114D01*
X121663240Y-85565897D01*
X121636509Y-85631669D01*
X121596055Y-85665027D01*
X121583607Y-85671507D01*
X121579474Y-85674610D01*
X121579471Y-85674612D01*
X121423627Y-85791623D01*
X121404965Y-85805635D01*
X121250629Y-85967138D01*
X121124743Y-86151680D01*
X121030688Y-86354305D01*
X120970989Y-86569570D01*
X120947251Y-86791695D01*
X120947548Y-86796848D01*
X120947548Y-86796851D01*
X120959812Y-87009547D01*
X120960110Y-87014715D01*
X120961247Y-87019761D01*
X120961248Y-87019767D01*
X120974551Y-87078794D01*
X121009222Y-87232639D01*
X121093266Y-87439616D01*
X121209987Y-87630088D01*
X121356250Y-87798938D01*
X121528126Y-87941632D01*
X121598595Y-87982811D01*
X121601445Y-87984476D01*
X121650169Y-88036114D01*
X121663240Y-88105897D01*
X121636509Y-88171669D01*
X121596055Y-88205027D01*
X121583607Y-88211507D01*
X121579474Y-88214610D01*
X121579471Y-88214612D01*
X121555247Y-88232800D01*
X121404965Y-88345635D01*
X121250629Y-88507138D01*
X121124743Y-88691680D01*
X121030688Y-88894305D01*
X120970989Y-89109570D01*
X120947251Y-89331695D01*
X104658500Y-89331695D01*
X104658500Y-88101866D01*
X104651745Y-88039684D01*
X104600615Y-87903295D01*
X104513261Y-87786739D01*
X104396705Y-87699385D01*
X104277687Y-87654767D01*
X104220923Y-87612125D01*
X104196223Y-87545564D01*
X104211430Y-87476215D01*
X104232977Y-87447535D01*
X104334052Y-87346812D01*
X104340730Y-87338965D01*
X104465003Y-87166020D01*
X104470313Y-87157183D01*
X104564670Y-86966267D01*
X104568469Y-86956672D01*
X104630377Y-86752910D01*
X104632555Y-86742837D01*
X104633986Y-86731962D01*
X104631775Y-86717778D01*
X104618617Y-86714000D01*
X101983225Y-86714000D01*
X101969694Y-86717973D01*
X101968257Y-86727966D01*
X101998565Y-86862446D01*
X102001645Y-86872275D01*
X102081770Y-87069603D01*
X102086413Y-87078794D01*
X102197694Y-87260388D01*
X102203777Y-87268699D01*
X102343213Y-87429667D01*
X102350577Y-87436879D01*
X102355522Y-87440985D01*
X102395156Y-87499889D01*
X102396653Y-87570870D01*
X102359537Y-87631392D01*
X102319264Y-87655910D01*
X102211705Y-87696232D01*
X102211704Y-87696233D01*
X102203295Y-87699385D01*
X102086739Y-87786739D01*
X101999385Y-87903295D01*
X101948255Y-88039684D01*
X101941500Y-88101866D01*
X101941500Y-89898134D01*
X93108500Y-89898134D01*
X93108500Y-86194183D01*
X101964389Y-86194183D01*
X101965912Y-86202607D01*
X101978292Y-86206000D01*
X103027885Y-86206000D01*
X103043124Y-86201525D01*
X103044329Y-86200135D01*
X103046000Y-86192452D01*
X103046000Y-86187885D01*
X103554000Y-86187885D01*
X103558475Y-86203124D01*
X103559865Y-86204329D01*
X103567548Y-86206000D01*
X104618344Y-86206000D01*
X104631875Y-86202027D01*
X104633180Y-86192947D01*
X104591214Y-86025875D01*
X104587894Y-86016124D01*
X104502972Y-85820814D01*
X104498105Y-85811739D01*
X104382426Y-85632926D01*
X104376136Y-85624757D01*
X104232806Y-85467240D01*
X104225273Y-85460215D01*
X104058139Y-85328222D01*
X104049552Y-85322517D01*
X103863117Y-85219599D01*
X103853705Y-85215369D01*
X103652959Y-85144280D01*
X103642988Y-85141646D01*
X103571837Y-85128972D01*
X103558540Y-85130432D01*
X103554000Y-85144989D01*
X103554000Y-86187885D01*
X103046000Y-86187885D01*
X103046000Y-85143102D01*
X103042082Y-85129758D01*
X103027806Y-85127771D01*
X102989324Y-85133660D01*
X102979288Y-85136051D01*
X102776868Y-85202212D01*
X102767359Y-85206209D01*
X102578463Y-85304542D01*
X102569738Y-85310036D01*
X102399433Y-85437905D01*
X102391726Y-85444748D01*
X102244590Y-85598717D01*
X102238104Y-85606727D01*
X102118098Y-85782649D01*
X102113000Y-85791623D01*
X102023338Y-85984783D01*
X102019775Y-85994470D01*
X101964389Y-86194183D01*
X93108500Y-86194183D01*
X93108500Y-83723134D01*
X101966500Y-83723134D01*
X101973255Y-83785316D01*
X102024385Y-83921705D01*
X102111739Y-84038261D01*
X102228295Y-84125615D01*
X102364684Y-84176745D01*
X102426866Y-84183500D01*
X104223134Y-84183500D01*
X104285316Y-84176745D01*
X104421705Y-84125615D01*
X104538261Y-84038261D01*
X104625615Y-83921705D01*
X104676745Y-83785316D01*
X104683500Y-83723134D01*
X104683500Y-81926866D01*
X104676745Y-81864684D01*
X104625615Y-81728295D01*
X104538261Y-81611739D01*
X104421705Y-81524385D01*
X104302687Y-81479767D01*
X104245923Y-81437125D01*
X104221223Y-81370564D01*
X104236430Y-81301215D01*
X104257977Y-81272535D01*
X104359052Y-81171812D01*
X104365730Y-81163965D01*
X104490003Y-80991020D01*
X104495313Y-80982183D01*
X104589670Y-80791267D01*
X104593469Y-80781672D01*
X104655377Y-80577910D01*
X104657555Y-80567837D01*
X104658986Y-80556962D01*
X104656775Y-80542778D01*
X104643617Y-80539000D01*
X102008225Y-80539000D01*
X101994694Y-80542973D01*
X101993257Y-80552966D01*
X102023565Y-80687446D01*
X102026645Y-80697275D01*
X102106770Y-80894603D01*
X102111413Y-80903794D01*
X102222694Y-81085388D01*
X102228777Y-81093699D01*
X102368213Y-81254667D01*
X102375577Y-81261879D01*
X102380522Y-81265985D01*
X102420156Y-81324889D01*
X102421653Y-81395870D01*
X102384537Y-81456392D01*
X102344264Y-81480910D01*
X102236705Y-81521232D01*
X102236704Y-81521233D01*
X102228295Y-81524385D01*
X102111739Y-81611739D01*
X102024385Y-81728295D01*
X101973255Y-81864684D01*
X101966500Y-81926866D01*
X101966500Y-83723134D01*
X93108500Y-83723134D01*
X93108500Y-80019183D01*
X101989389Y-80019183D01*
X101990912Y-80027607D01*
X102003292Y-80031000D01*
X103052885Y-80031000D01*
X103068124Y-80026525D01*
X103069329Y-80025135D01*
X103071000Y-80017452D01*
X103071000Y-80012885D01*
X103579000Y-80012885D01*
X103583475Y-80028124D01*
X103584865Y-80029329D01*
X103592548Y-80031000D01*
X104643344Y-80031000D01*
X104656875Y-80027027D01*
X104658180Y-80017947D01*
X104616214Y-79850875D01*
X104612894Y-79841124D01*
X104527972Y-79645814D01*
X104523105Y-79636739D01*
X104407426Y-79457926D01*
X104401136Y-79449757D01*
X104257806Y-79292240D01*
X104250273Y-79285215D01*
X104083139Y-79153222D01*
X104074552Y-79147517D01*
X103888117Y-79044599D01*
X103878705Y-79040369D01*
X103677959Y-78969280D01*
X103667988Y-78966646D01*
X103596837Y-78953972D01*
X103583540Y-78955432D01*
X103579000Y-78969989D01*
X103579000Y-80012885D01*
X103071000Y-80012885D01*
X103071000Y-78968102D01*
X103067082Y-78954758D01*
X103052806Y-78952771D01*
X103014324Y-78958660D01*
X103004288Y-78961051D01*
X102801868Y-79027212D01*
X102792359Y-79031209D01*
X102603463Y-79129542D01*
X102594738Y-79135036D01*
X102424433Y-79262905D01*
X102416726Y-79269748D01*
X102269590Y-79423717D01*
X102263104Y-79431727D01*
X102143098Y-79607649D01*
X102138000Y-79616623D01*
X102048338Y-79809783D01*
X102044775Y-79819470D01*
X101989389Y-80019183D01*
X93108500Y-80019183D01*
X93108500Y-75042277D01*
X93737009Y-75042277D01*
X93762625Y-75310769D01*
X93763710Y-75315203D01*
X93763711Y-75315209D01*
X93816172Y-75529598D01*
X93826731Y-75572750D01*
X93927985Y-75822733D01*
X93930294Y-75826676D01*
X94046763Y-76025590D01*
X94064265Y-76055482D01*
X94124201Y-76130428D01*
X94196597Y-76220954D01*
X94232716Y-76266119D01*
X94429809Y-76450234D01*
X94651416Y-76603968D01*
X94655499Y-76605999D01*
X94655502Y-76606001D01*
X94717514Y-76636851D01*
X94892894Y-76724101D01*
X94897228Y-76725522D01*
X94897231Y-76725523D01*
X95144853Y-76806698D01*
X95144859Y-76806699D01*
X95149186Y-76808118D01*
X95153677Y-76808898D01*
X95153678Y-76808898D01*
X95411140Y-76853601D01*
X95411148Y-76853602D01*
X95414921Y-76854257D01*
X95418758Y-76854448D01*
X95498578Y-76858422D01*
X95498586Y-76858422D01*
X95500149Y-76858500D01*
X95668512Y-76858500D01*
X95670780Y-76858335D01*
X95670792Y-76858335D01*
X95818009Y-76847653D01*
X95869004Y-76843953D01*
X95873459Y-76842969D01*
X95873462Y-76842969D01*
X96127912Y-76786791D01*
X96127916Y-76786790D01*
X96132372Y-76785806D01*
X96284315Y-76728240D01*
X96380318Y-76691868D01*
X96380321Y-76691867D01*
X96384588Y-76690250D01*
X96620368Y-76559286D01*
X96834773Y-76395657D01*
X97023312Y-76202792D01*
X97182034Y-75984730D01*
X97265190Y-75826676D01*
X97305490Y-75750079D01*
X97305493Y-75750073D01*
X97307615Y-75746039D01*
X97370378Y-75568312D01*
X97395902Y-75496033D01*
X97395902Y-75496032D01*
X97397425Y-75491720D01*
X97433987Y-75306217D01*
X97448700Y-75231572D01*
X97448701Y-75231566D01*
X97449581Y-75227100D01*
X97452614Y-75166173D01*
X97462764Y-74962292D01*
X97462764Y-74962286D01*
X97462991Y-74957723D01*
X97437375Y-74689231D01*
X97432658Y-74669951D01*
X97374355Y-74431688D01*
X97373269Y-74427250D01*
X97272015Y-74177267D01*
X97135735Y-73944518D01*
X97016614Y-73795565D01*
X96970136Y-73737447D01*
X96970135Y-73737445D01*
X96967284Y-73733881D01*
X96770191Y-73549766D01*
X96548584Y-73396032D01*
X96544501Y-73394001D01*
X96544498Y-73393999D01*
X96379606Y-73311967D01*
X96307106Y-73275899D01*
X96302772Y-73274478D01*
X96302769Y-73274477D01*
X96055147Y-73193302D01*
X96055141Y-73193301D01*
X96050814Y-73191882D01*
X96046322Y-73191102D01*
X95788860Y-73146399D01*
X95788852Y-73146398D01*
X95785079Y-73145743D01*
X95773817Y-73145182D01*
X95701422Y-73141578D01*
X95701414Y-73141578D01*
X95699851Y-73141500D01*
X95531488Y-73141500D01*
X95529220Y-73141665D01*
X95529208Y-73141665D01*
X95398116Y-73151177D01*
X95330996Y-73156047D01*
X95326541Y-73157031D01*
X95326538Y-73157031D01*
X95072088Y-73213209D01*
X95072084Y-73213210D01*
X95067628Y-73214194D01*
X94988914Y-73244016D01*
X94819682Y-73308132D01*
X94819679Y-73308133D01*
X94815412Y-73309750D01*
X94579632Y-73440714D01*
X94486575Y-73511733D01*
X94381301Y-73592076D01*
X94365227Y-73604343D01*
X94362034Y-73607609D01*
X94362032Y-73607611D01*
X94290334Y-73680954D01*
X94176688Y-73797208D01*
X94017966Y-74015270D01*
X94015844Y-74019304D01*
X93894510Y-74249921D01*
X93894507Y-74249927D01*
X93892385Y-74253961D01*
X93890865Y-74258266D01*
X93890863Y-74258270D01*
X93804098Y-74503967D01*
X93802575Y-74508280D01*
X93785713Y-74593834D01*
X93757923Y-74734829D01*
X93750419Y-74772900D01*
X93750192Y-74777453D01*
X93750192Y-74777456D01*
X93737521Y-75032000D01*
X93737009Y-75042277D01*
X93108500Y-75042277D01*
X93108500Y-74999974D01*
X93110000Y-74980589D01*
X93112310Y-74965756D01*
X93112310Y-74965752D01*
X93113691Y-74956883D01*
X93111442Y-74939685D01*
X93110609Y-74915744D01*
X93125476Y-74669951D01*
X93127310Y-74654846D01*
X93176617Y-74385780D01*
X93180258Y-74371007D01*
X93217990Y-74249921D01*
X93261642Y-74109836D01*
X93267036Y-74095614D01*
X93301381Y-74019304D01*
X93379302Y-73846169D01*
X93386370Y-73832701D01*
X93408820Y-73795565D01*
X93522441Y-73607611D01*
X93527892Y-73598594D01*
X93536536Y-73586072D01*
X93705234Y-73370744D01*
X93715324Y-73359355D01*
X93908746Y-73165933D01*
X93920134Y-73155843D01*
X93959696Y-73124848D01*
X94135475Y-72987134D01*
X94147995Y-72978492D01*
X94159550Y-72971507D01*
X94382093Y-72836974D01*
X94395565Y-72829904D01*
X94446302Y-72807069D01*
X94645012Y-72717636D01*
X94659230Y-72712244D01*
X94920401Y-72630860D01*
X94935174Y-72627219D01*
X95204239Y-72577911D01*
X95219343Y-72576077D01*
X95457866Y-72561649D01*
X95484849Y-72562918D01*
X95484855Y-72562918D01*
X95493724Y-72564299D01*
X95525602Y-72560131D01*
X95541813Y-72559068D01*
X95871398Y-72558744D01*
X122075459Y-72533019D01*
X122143600Y-72552954D01*
X122190145Y-72606564D01*
X122200318Y-72676828D01*
X122170888Y-72741438D01*
X122111200Y-72779880D01*
X122094644Y-72783568D01*
X122076335Y-72786370D01*
X121999205Y-72798172D01*
X121999200Y-72798173D01*
X121994091Y-72798955D01*
X121781756Y-72868357D01*
X121751443Y-72884137D01*
X121650786Y-72936536D01*
X121583607Y-72971507D01*
X121579474Y-72974610D01*
X121579471Y-72974612D01*
X121555247Y-72992800D01*
X121404965Y-73105635D01*
X121356985Y-73155843D01*
X121301224Y-73214194D01*
X121250629Y-73267138D01*
X121247715Y-73271410D01*
X121247714Y-73271411D01*
X121187723Y-73359355D01*
X121124743Y-73451680D01*
X121085848Y-73535473D01*
X121052363Y-73607611D01*
X121030688Y-73654305D01*
X120970989Y-73869570D01*
X120947251Y-74091695D01*
X120947548Y-74096848D01*
X120947548Y-74096851D01*
X120952940Y-74190359D01*
X120960110Y-74314715D01*
X120961247Y-74319761D01*
X120961248Y-74319767D01*
X120976125Y-74385780D01*
X121009222Y-74532639D01*
X121093266Y-74739616D01*
X121116454Y-74777456D01*
X121193158Y-74902625D01*
X121209987Y-74930088D01*
X121356250Y-75098938D01*
X121528126Y-75241632D01*
X121570760Y-75266545D01*
X121601445Y-75284476D01*
X121650169Y-75336114D01*
X121663240Y-75405897D01*
X121636509Y-75471669D01*
X121596055Y-75505027D01*
X121583607Y-75511507D01*
X121579474Y-75514610D01*
X121579471Y-75514612D01*
X121409100Y-75642530D01*
X121404965Y-75645635D01*
X121250629Y-75807138D01*
X121124743Y-75991680D01*
X121077716Y-76092992D01*
X121060339Y-76130428D01*
X121030688Y-76194305D01*
X120970989Y-76409570D01*
X120947251Y-76631695D01*
X120947548Y-76636848D01*
X120947548Y-76636851D01*
X120959703Y-76847653D01*
X120960110Y-76854715D01*
X120961247Y-76859761D01*
X120961248Y-76859767D01*
X120981119Y-76947939D01*
X121009222Y-77072639D01*
X121093266Y-77279616D01*
X121209987Y-77470088D01*
X121356250Y-77638938D01*
X121360225Y-77642238D01*
X121360231Y-77642244D01*
X121365425Y-77646556D01*
X121405059Y-77705460D01*
X121406555Y-77776441D01*
X121369439Y-77836962D01*
X121329168Y-77861480D01*
X121221946Y-77901676D01*
X121206351Y-77910214D01*
X121104276Y-77986715D01*
X121091715Y-77999276D01*
X121015214Y-78101351D01*
X121006676Y-78116946D01*
X120961522Y-78237394D01*
X120957895Y-78252649D01*
X120952369Y-78303514D01*
X120952000Y-78310328D01*
X120952000Y-78932885D01*
X120956475Y-78948124D01*
X120957865Y-78949329D01*
X120965548Y-78951000D01*
X123649884Y-78951000D01*
X123665123Y-78946525D01*
X123666328Y-78945135D01*
X123667999Y-78937452D01*
X123667999Y-78310331D01*
X123667629Y-78303510D01*
X123662105Y-78252648D01*
X123658479Y-78237396D01*
X123613324Y-78116946D01*
X123604786Y-78101351D01*
X123528285Y-77999276D01*
X123515724Y-77986715D01*
X123413649Y-77910214D01*
X123398054Y-77901676D01*
X123287813Y-77860348D01*
X123231049Y-77817706D01*
X123206349Y-77751145D01*
X123221557Y-77681796D01*
X123243104Y-77653115D01*
X123344430Y-77552144D01*
X123344440Y-77552132D01*
X123348096Y-77548489D01*
X123407594Y-77465689D01*
X123462341Y-77389500D01*
X136486496Y-77389500D01*
X136506458Y-77579428D01*
X136565473Y-77761056D01*
X136568776Y-77766778D01*
X136568777Y-77766779D01*
X136598180Y-77817706D01*
X136660960Y-77926444D01*
X136665378Y-77931351D01*
X136665379Y-77931352D01*
X136784325Y-78063455D01*
X136788747Y-78068366D01*
X136943248Y-78180618D01*
X136949276Y-78183302D01*
X136949278Y-78183303D01*
X137105033Y-78252649D01*
X137117712Y-78258294D01*
X137211112Y-78278147D01*
X137298056Y-78296628D01*
X137298061Y-78296628D01*
X137304513Y-78298000D01*
X137495487Y-78298000D01*
X137501939Y-78296628D01*
X137501944Y-78296628D01*
X137588888Y-78278147D01*
X137682288Y-78258294D01*
X137694967Y-78252649D01*
X137850722Y-78183303D01*
X137850724Y-78183302D01*
X137856752Y-78180618D01*
X138011253Y-78068366D01*
X138015675Y-78063455D01*
X138134621Y-77931352D01*
X138134622Y-77931351D01*
X138139040Y-77926444D01*
X138201820Y-77817706D01*
X138231223Y-77766779D01*
X138231224Y-77766778D01*
X138234527Y-77761056D01*
X138293542Y-77579428D01*
X138313504Y-77389500D01*
X138293542Y-77199572D01*
X138234527Y-77017944D01*
X138139040Y-76852556D01*
X138065863Y-76771285D01*
X138035147Y-76707279D01*
X138033500Y-76686976D01*
X138033500Y-76643024D01*
X138036826Y-76631695D01*
X138727251Y-76631695D01*
X138727548Y-76636848D01*
X138727548Y-76636851D01*
X138739703Y-76847653D01*
X138740110Y-76854715D01*
X138741247Y-76859761D01*
X138741248Y-76859767D01*
X138761119Y-76947939D01*
X138789222Y-77072639D01*
X138873266Y-77279616D01*
X138989987Y-77470088D01*
X139136250Y-77638938D01*
X139140225Y-77642238D01*
X139140231Y-77642244D01*
X139145425Y-77646556D01*
X139185059Y-77705460D01*
X139186555Y-77776441D01*
X139149439Y-77836962D01*
X139109168Y-77861480D01*
X139001946Y-77901676D01*
X138986351Y-77910214D01*
X138884276Y-77986715D01*
X138871715Y-77999276D01*
X138795214Y-78101351D01*
X138786676Y-78116946D01*
X138741522Y-78237394D01*
X138737895Y-78252649D01*
X138732369Y-78303514D01*
X138732000Y-78310328D01*
X138732000Y-78932885D01*
X138736475Y-78948124D01*
X138737865Y-78949329D01*
X138745548Y-78951000D01*
X141429884Y-78951000D01*
X141445123Y-78946525D01*
X141446328Y-78945135D01*
X141447999Y-78937452D01*
X141447999Y-78310331D01*
X141447629Y-78303510D01*
X141442105Y-78252648D01*
X141438479Y-78237396D01*
X141393324Y-78116946D01*
X141384786Y-78101351D01*
X141308285Y-77999276D01*
X141295724Y-77986715D01*
X141193649Y-77910214D01*
X141178054Y-77901676D01*
X141067813Y-77860348D01*
X141011049Y-77817706D01*
X140986349Y-77751145D01*
X141001557Y-77681796D01*
X141023104Y-77653115D01*
X141124430Y-77552144D01*
X141124440Y-77552132D01*
X141128096Y-77548489D01*
X141187594Y-77465689D01*
X141255435Y-77371277D01*
X141258453Y-77367077D01*
X141344342Y-77193294D01*
X141355136Y-77171453D01*
X141355137Y-77171451D01*
X141357430Y-77166811D01*
X141422370Y-76953069D01*
X141451529Y-76731590D01*
X141453156Y-76665000D01*
X141434852Y-76442361D01*
X141380431Y-76225702D01*
X141291354Y-76020840D01*
X141170014Y-75833277D01*
X141019670Y-75668051D01*
X141015619Y-75664852D01*
X141015615Y-75664848D01*
X140848414Y-75532800D01*
X140848410Y-75532798D01*
X140844359Y-75529598D01*
X140803053Y-75506796D01*
X140753084Y-75456364D01*
X140738312Y-75386921D01*
X140763428Y-75320516D01*
X140790780Y-75293909D01*
X140841472Y-75257751D01*
X140969860Y-75166173D01*
X141094190Y-75042277D01*
X145137009Y-75042277D01*
X145162625Y-75310769D01*
X145163710Y-75315203D01*
X145163711Y-75315209D01*
X145216172Y-75529598D01*
X145226731Y-75572750D01*
X145327985Y-75822733D01*
X145330294Y-75826676D01*
X145446763Y-76025590D01*
X145464265Y-76055482D01*
X145524201Y-76130428D01*
X145596597Y-76220954D01*
X145632716Y-76266119D01*
X145829809Y-76450234D01*
X146051416Y-76603968D01*
X146055499Y-76605999D01*
X146055502Y-76606001D01*
X146117514Y-76636851D01*
X146292894Y-76724101D01*
X146297228Y-76725522D01*
X146297231Y-76725523D01*
X146544853Y-76806698D01*
X146544859Y-76806699D01*
X146549186Y-76808118D01*
X146553677Y-76808898D01*
X146553678Y-76808898D01*
X146811140Y-76853601D01*
X146811148Y-76853602D01*
X146814921Y-76854257D01*
X146818758Y-76854448D01*
X146898578Y-76858422D01*
X146898586Y-76858422D01*
X146900149Y-76858500D01*
X147068512Y-76858500D01*
X147070780Y-76858335D01*
X147070792Y-76858335D01*
X147218009Y-76847653D01*
X147269004Y-76843953D01*
X147273459Y-76842969D01*
X147273462Y-76842969D01*
X147527912Y-76786791D01*
X147527916Y-76786790D01*
X147532372Y-76785806D01*
X147684315Y-76728240D01*
X147780318Y-76691868D01*
X147780321Y-76691867D01*
X147784588Y-76690250D01*
X148020368Y-76559286D01*
X148234773Y-76395657D01*
X148423312Y-76202792D01*
X148582034Y-75984730D01*
X148665190Y-75826676D01*
X148705490Y-75750079D01*
X148705493Y-75750073D01*
X148707615Y-75746039D01*
X148770378Y-75568312D01*
X148795902Y-75496033D01*
X148795902Y-75496032D01*
X148797425Y-75491720D01*
X148833987Y-75306217D01*
X148848700Y-75231572D01*
X148848701Y-75231566D01*
X148849581Y-75227100D01*
X148852614Y-75166173D01*
X148862764Y-74962292D01*
X148862764Y-74962286D01*
X148862991Y-74957723D01*
X148837375Y-74689231D01*
X148832658Y-74669951D01*
X148774355Y-74431688D01*
X148773269Y-74427250D01*
X148672015Y-74177267D01*
X148535735Y-73944518D01*
X148416614Y-73795565D01*
X148370136Y-73737447D01*
X148370135Y-73737445D01*
X148367284Y-73733881D01*
X148170191Y-73549766D01*
X147948584Y-73396032D01*
X147944501Y-73394001D01*
X147944498Y-73393999D01*
X147779606Y-73311967D01*
X147707106Y-73275899D01*
X147702772Y-73274478D01*
X147702769Y-73274477D01*
X147455147Y-73193302D01*
X147455141Y-73193301D01*
X147450814Y-73191882D01*
X147446322Y-73191102D01*
X147188860Y-73146399D01*
X147188852Y-73146398D01*
X147185079Y-73145743D01*
X147173817Y-73145182D01*
X147101422Y-73141578D01*
X147101414Y-73141578D01*
X147099851Y-73141500D01*
X146931488Y-73141500D01*
X146929220Y-73141665D01*
X146929208Y-73141665D01*
X146798116Y-73151177D01*
X146730996Y-73156047D01*
X146726541Y-73157031D01*
X146726538Y-73157031D01*
X146472088Y-73213209D01*
X146472084Y-73213210D01*
X146467628Y-73214194D01*
X146388914Y-73244016D01*
X146219682Y-73308132D01*
X146219679Y-73308133D01*
X146215412Y-73309750D01*
X145979632Y-73440714D01*
X145886575Y-73511733D01*
X145781301Y-73592076D01*
X145765227Y-73604343D01*
X145762034Y-73607609D01*
X145762032Y-73607611D01*
X145690334Y-73680954D01*
X145576688Y-73797208D01*
X145417966Y-74015270D01*
X145415844Y-74019304D01*
X145294510Y-74249921D01*
X145294507Y-74249927D01*
X145292385Y-74253961D01*
X145290865Y-74258266D01*
X145290863Y-74258270D01*
X145204098Y-74503967D01*
X145202575Y-74508280D01*
X145185713Y-74593834D01*
X145157923Y-74734829D01*
X145150419Y-74772900D01*
X145150192Y-74777453D01*
X145150192Y-74777456D01*
X145137521Y-75032000D01*
X145137009Y-75042277D01*
X141094190Y-75042277D01*
X141128096Y-75008489D01*
X141165179Y-74956883D01*
X141255435Y-74831277D01*
X141258453Y-74827077D01*
X141326581Y-74689231D01*
X141355136Y-74631453D01*
X141355137Y-74631451D01*
X141357430Y-74626811D01*
X141416713Y-74431688D01*
X141420865Y-74418023D01*
X141420865Y-74418021D01*
X141422370Y-74413069D01*
X141451529Y-74191590D01*
X141453156Y-74125000D01*
X141434852Y-73902361D01*
X141380431Y-73685702D01*
X141291354Y-73480840D01*
X141180671Y-73309750D01*
X141172822Y-73297617D01*
X141172820Y-73297614D01*
X141170014Y-73293277D01*
X141019670Y-73128051D01*
X141015619Y-73124852D01*
X141015615Y-73124848D01*
X140848414Y-72992800D01*
X140848410Y-72992798D01*
X140844359Y-72989598D01*
X140824241Y-72978492D01*
X140748237Y-72936536D01*
X140648789Y-72881638D01*
X140643920Y-72879914D01*
X140643916Y-72879912D01*
X140443087Y-72808795D01*
X140443083Y-72808794D01*
X140438212Y-72807069D01*
X140433119Y-72806162D01*
X140433116Y-72806161D01*
X140223373Y-72768800D01*
X140223367Y-72768799D01*
X140218284Y-72767894D01*
X140201986Y-72767695D01*
X140165432Y-72767248D01*
X140097561Y-72746414D01*
X140070182Y-72714026D01*
X140065698Y-72723869D01*
X140006010Y-72762311D01*
X139989452Y-72766000D01*
X139902538Y-72779300D01*
X139774091Y-72798955D01*
X139561756Y-72868357D01*
X139531443Y-72884137D01*
X139430786Y-72936536D01*
X139363607Y-72971507D01*
X139359474Y-72974610D01*
X139359471Y-72974612D01*
X139335247Y-72992800D01*
X139184965Y-73105635D01*
X139136985Y-73155843D01*
X139081224Y-73214194D01*
X139030629Y-73267138D01*
X139027715Y-73271410D01*
X139027714Y-73271411D01*
X138967723Y-73359355D01*
X138904743Y-73451680D01*
X138865848Y-73535473D01*
X138832363Y-73607611D01*
X138810688Y-73654305D01*
X138750989Y-73869570D01*
X138727251Y-74091695D01*
X138727548Y-74096848D01*
X138727548Y-74096851D01*
X138732940Y-74190359D01*
X138740110Y-74314715D01*
X138741247Y-74319761D01*
X138741248Y-74319767D01*
X138756125Y-74385780D01*
X138789222Y-74532639D01*
X138873266Y-74739616D01*
X138896454Y-74777456D01*
X138973158Y-74902625D01*
X138989987Y-74930088D01*
X139136250Y-75098938D01*
X139308126Y-75241632D01*
X139350760Y-75266545D01*
X139381445Y-75284476D01*
X139430169Y-75336114D01*
X139443240Y-75405897D01*
X139416509Y-75471669D01*
X139376055Y-75505027D01*
X139363607Y-75511507D01*
X139359474Y-75514610D01*
X139359471Y-75514612D01*
X139189100Y-75642530D01*
X139184965Y-75645635D01*
X139030629Y-75807138D01*
X138904743Y-75991680D01*
X138857716Y-76092992D01*
X138840339Y-76130428D01*
X138810688Y-76194305D01*
X138750989Y-76409570D01*
X138727251Y-76631695D01*
X138036826Y-76631695D01*
X138053502Y-76574903D01*
X138065858Y-76558721D01*
X138139040Y-76477444D01*
X138234527Y-76312056D01*
X138293542Y-76130428D01*
X138313504Y-75940500D01*
X138300682Y-75818503D01*
X138294232Y-75757135D01*
X138294232Y-75757133D01*
X138293542Y-75750572D01*
X138234527Y-75568944D01*
X138139040Y-75403556D01*
X138130593Y-75394174D01*
X138015675Y-75266545D01*
X138015674Y-75266544D01*
X138011253Y-75261634D01*
X137856752Y-75149382D01*
X137850724Y-75146698D01*
X137850722Y-75146697D01*
X137688319Y-75074391D01*
X137688318Y-75074391D01*
X137682288Y-75071706D01*
X137588887Y-75051853D01*
X137501944Y-75033372D01*
X137501939Y-75033372D01*
X137495487Y-75032000D01*
X137304513Y-75032000D01*
X137298061Y-75033372D01*
X137298056Y-75033372D01*
X137211113Y-75051853D01*
X137117712Y-75071706D01*
X137111682Y-75074391D01*
X137111681Y-75074391D01*
X136949278Y-75146697D01*
X136949276Y-75146698D01*
X136943248Y-75149382D01*
X136788747Y-75261634D01*
X136784326Y-75266544D01*
X136784325Y-75266545D01*
X136669408Y-75394174D01*
X136660960Y-75403556D01*
X136565473Y-75568944D01*
X136506458Y-75750572D01*
X136505768Y-75757133D01*
X136505768Y-75757135D01*
X136499318Y-75818503D01*
X136486496Y-75940500D01*
X136506458Y-76130428D01*
X136565473Y-76312056D01*
X136660960Y-76477444D01*
X136734137Y-76558715D01*
X136764853Y-76622721D01*
X136766500Y-76643024D01*
X136766500Y-76686976D01*
X136746498Y-76755097D01*
X136734142Y-76771279D01*
X136660960Y-76852556D01*
X136565473Y-77017944D01*
X136506458Y-77199572D01*
X136486496Y-77389500D01*
X123462341Y-77389500D01*
X123475435Y-77371277D01*
X123478453Y-77367077D01*
X123564342Y-77193294D01*
X123575136Y-77171453D01*
X123575137Y-77171451D01*
X123577430Y-77166811D01*
X123642370Y-76953069D01*
X123671529Y-76731590D01*
X123673156Y-76665000D01*
X123654852Y-76442361D01*
X123600431Y-76225702D01*
X123511354Y-76020840D01*
X123390014Y-75833277D01*
X123239670Y-75668051D01*
X123235619Y-75664852D01*
X123235615Y-75664848D01*
X123068414Y-75532800D01*
X123068410Y-75532798D01*
X123064359Y-75529598D01*
X123023053Y-75506796D01*
X122973084Y-75456364D01*
X122958312Y-75386921D01*
X122983428Y-75320516D01*
X123010780Y-75293909D01*
X123061472Y-75257751D01*
X123189860Y-75166173D01*
X123348096Y-75008489D01*
X123385179Y-74956883D01*
X123475435Y-74831277D01*
X123478453Y-74827077D01*
X123546581Y-74689231D01*
X123575136Y-74631453D01*
X123575137Y-74631451D01*
X123577430Y-74626811D01*
X123636713Y-74431688D01*
X123640865Y-74418023D01*
X123640865Y-74418021D01*
X123642370Y-74413069D01*
X123671529Y-74191590D01*
X123673156Y-74125000D01*
X123654852Y-73902361D01*
X123600431Y-73685702D01*
X123511354Y-73480840D01*
X123400671Y-73309750D01*
X123392822Y-73297617D01*
X123392820Y-73297614D01*
X123390014Y-73293277D01*
X123239670Y-73128051D01*
X123235619Y-73124852D01*
X123235615Y-73124848D01*
X123068414Y-72992800D01*
X123068410Y-72992798D01*
X123064359Y-72989598D01*
X123044241Y-72978492D01*
X122968237Y-72936536D01*
X122868789Y-72881638D01*
X122863920Y-72879914D01*
X122863916Y-72879912D01*
X122663087Y-72808795D01*
X122663083Y-72808794D01*
X122658212Y-72807069D01*
X122653119Y-72806162D01*
X122653116Y-72806161D01*
X122589364Y-72794805D01*
X122520880Y-72782607D01*
X122457324Y-72750969D01*
X122420961Y-72689992D01*
X122423337Y-72619035D01*
X122463698Y-72560627D01*
X122529230Y-72533312D01*
X122542853Y-72532560D01*
X131455527Y-72523810D01*
X139970270Y-72515450D01*
X140038410Y-72535385D01*
X140067457Y-72568840D01*
X140072763Y-72557587D01*
X140132954Y-72519936D01*
X140166846Y-72515257D01*
X143272622Y-72512208D01*
X147000215Y-72508549D01*
X147019722Y-72510049D01*
G37*
%TD.AperFunction*%
%TD*%
M02*
