%TF.GenerationSoftware,KiCad,Pcbnew,(6.0.7)*%
%TF.CreationDate,2023-03-24T10:01:01+01:00*%
%TF.ProjectId,PicoWS2812,5069636f-5753-4323-9831-322e6b696361,rev?*%
%TF.SameCoordinates,Original*%
%TF.FileFunction,Soldermask,Bot*%
%TF.FilePolarity,Negative*%
%FSLAX46Y46*%
G04 Gerber Fmt 4.6, Leading zero omitted, Abs format (unit mm)*
G04 Created by KiCad (PCBNEW (6.0.7)) date 2023-03-24 10:01:01*
%MOMM*%
%LPD*%
G01*
G04 APERTURE LIST*
%ADD10R,1.700000X1.700000*%
%ADD11O,1.700000X1.700000*%
%ADD12C,2.700000*%
G04 APERTURE END LIST*
D10*
%TO.C,J3*%
X103300000Y-95200000D03*
D11*
X103300000Y-92660000D03*
%TD*%
D12*
%TO.C,H3*%
X147000000Y-75000000D03*
%TD*%
D10*
%TO.C,J7*%
X103300000Y-120000000D03*
D11*
X103300000Y-117460000D03*
%TD*%
D10*
%TO.C,J2*%
X103300000Y-89000000D03*
D11*
X103300000Y-86460000D03*
%TD*%
D12*
%TO.C,H4*%
X147000000Y-131000000D03*
%TD*%
%TO.C,H1*%
X95600000Y-75000000D03*
%TD*%
D10*
%TO.C,J5*%
X103300000Y-107600000D03*
D11*
X103300000Y-105060000D03*
%TD*%
D10*
%TO.C,J9*%
X114900000Y-123600000D03*
D11*
X112360000Y-123600000D03*
%TD*%
%TO.C,U2*%
X122310000Y-74125000D03*
X122310000Y-76665000D03*
D10*
X122310000Y-79205000D03*
D11*
X122310000Y-81745000D03*
X122310000Y-84285000D03*
X122310000Y-86825000D03*
X122310000Y-89365000D03*
D10*
X122310000Y-91905000D03*
D11*
X122310000Y-94445000D03*
X122310000Y-96985000D03*
X122310000Y-99525000D03*
X122310000Y-102065000D03*
D10*
X122310000Y-104605000D03*
D11*
X122310000Y-107145000D03*
X122310000Y-109685000D03*
X122310000Y-112225000D03*
X122310000Y-114765000D03*
D10*
X122310000Y-117305000D03*
D11*
X122310000Y-119845000D03*
X122310000Y-122385000D03*
X140090000Y-122385000D03*
X140090000Y-119845000D03*
D10*
X140090000Y-117305000D03*
D11*
X140090000Y-114765000D03*
X140090000Y-112225000D03*
X140090000Y-109685000D03*
X140090000Y-107145000D03*
D10*
X140090000Y-104605000D03*
D11*
X140090000Y-102065000D03*
X140090000Y-99525000D03*
X140090000Y-96985000D03*
X140090000Y-94445000D03*
D10*
X140090000Y-91905000D03*
D11*
X140090000Y-89365000D03*
X140090000Y-86825000D03*
X140090000Y-84285000D03*
X140090000Y-81745000D03*
D10*
X140090000Y-79205000D03*
D11*
X140090000Y-76665000D03*
X140090000Y-74125000D03*
X128660000Y-122155000D03*
D10*
X131200000Y-122155000D03*
D11*
X133740000Y-122155000D03*
%TD*%
D10*
%TO.C,J1*%
X103325000Y-82825000D03*
D11*
X103325000Y-80285000D03*
%TD*%
D10*
%TO.C,J6*%
X103300000Y-113800000D03*
D11*
X103300000Y-111260000D03*
%TD*%
D12*
%TO.C,H2*%
X95600000Y-131000000D03*
%TD*%
D10*
%TO.C,J8*%
X103300000Y-126200000D03*
D11*
X103300000Y-123660000D03*
%TD*%
D10*
%TO.C,J4*%
X103300000Y-101400000D03*
D11*
X103300000Y-98860000D03*
%TD*%
M02*
