%TF.GenerationSoftware,KiCad,Pcbnew,(6.0.7)*%
%TF.CreationDate,2023-03-24T10:01:01+01:00*%
%TF.ProjectId,PicoWS2812,5069636f-5753-4323-9831-322e6b696361,rev?*%
%TF.SameCoordinates,Original*%
%TF.FileFunction,Soldermask,Top*%
%TF.FilePolarity,Negative*%
%FSLAX46Y46*%
G04 Gerber Fmt 4.6, Leading zero omitted, Abs format (unit mm)*
G04 Created by KiCad (PCBNEW (6.0.7)) date 2023-03-24 10:01:01*
%MOMM*%
%LPD*%
G01*
G04 APERTURE LIST*
G04 Aperture macros list*
%AMRoundRect*
0 Rectangle with rounded corners*
0 $1 Rounding radius*
0 $2 $3 $4 $5 $6 $7 $8 $9 X,Y pos of 4 corners*
0 Add a 4 corners polygon primitive as box body*
4,1,4,$2,$3,$4,$5,$6,$7,$8,$9,$2,$3,0*
0 Add four circle primitives for the rounded corners*
1,1,$1+$1,$2,$3*
1,1,$1+$1,$4,$5*
1,1,$1+$1,$6,$7*
1,1,$1+$1,$8,$9*
0 Add four rect primitives between the rounded corners*
20,1,$1+$1,$2,$3,$4,$5,0*
20,1,$1+$1,$4,$5,$6,$7,0*
20,1,$1+$1,$6,$7,$8,$9,0*
20,1,$1+$1,$8,$9,$2,$3,0*%
G04 Aperture macros list end*
%ADD10RoundRect,0.200000X0.200000X0.275000X-0.200000X0.275000X-0.200000X-0.275000X0.200000X-0.275000X0*%
%ADD11R,1.700000X1.700000*%
%ADD12O,1.700000X1.700000*%
%ADD13C,2.700000*%
%ADD14C,2.000000*%
%ADD15R,0.900000X0.800000*%
%ADD16R,0.740000X2.400000*%
%ADD17R,3.500000X1.700000*%
%ADD18R,1.700000X3.500000*%
%ADD19R,1.000000X0.400000*%
G04 APERTURE END LIST*
D10*
%TO.C,R6*%
X107525000Y-82800000D03*
X105875000Y-82800000D03*
%TD*%
D11*
%TO.C,J3*%
X103300000Y-95200000D03*
D12*
X103300000Y-92660000D03*
%TD*%
D13*
%TO.C,H3*%
X147000000Y-75000000D03*
%TD*%
D14*
%TO.C,FID2*%
X100300000Y-131900000D03*
%TD*%
D10*
%TO.C,R1*%
X107525000Y-89000000D03*
X105875000Y-89000000D03*
%TD*%
D11*
%TO.C,J7*%
X103300000Y-120000000D03*
D12*
X103300000Y-117460000D03*
%TD*%
D15*
%TO.C,Q1*%
X122500000Y-128050000D03*
X120500000Y-127100000D03*
X122500000Y-126150000D03*
%TD*%
D11*
%TO.C,J2*%
X103300000Y-89000000D03*
D12*
X103300000Y-86460000D03*
%TD*%
D14*
%TO.C,FID1*%
X147500000Y-98900000D03*
%TD*%
D10*
%TO.C,R2*%
X107525000Y-95200000D03*
X105875000Y-95200000D03*
%TD*%
%TO.C,R4*%
X107525000Y-107600000D03*
X105875000Y-107600000D03*
%TD*%
%TO.C,R3*%
X107525000Y-101500000D03*
X105875000Y-101500000D03*
%TD*%
D16*
%TO.C,U1*%
X133740000Y-127750000D03*
X133740000Y-131650000D03*
X132470000Y-127750000D03*
X132470000Y-131650000D03*
X131200000Y-127750000D03*
X131200000Y-131650000D03*
X129930000Y-127750000D03*
X129930000Y-131650000D03*
X128660000Y-127750000D03*
X128660000Y-131650000D03*
%TD*%
D13*
%TO.C,H4*%
X147000000Y-131000000D03*
%TD*%
%TO.C,H1*%
X95600000Y-75000000D03*
%TD*%
D11*
%TO.C,J5*%
X103300000Y-107600000D03*
D12*
X103300000Y-105060000D03*
%TD*%
D11*
%TO.C,J9*%
X114900000Y-123600000D03*
D12*
X112360000Y-123600000D03*
%TD*%
D14*
%TO.C,FID3*%
X100500000Y-74400000D03*
%TD*%
D17*
%TO.C,U2*%
X121410000Y-74125000D03*
D12*
X122310000Y-74125000D03*
X122310000Y-76665000D03*
D17*
X121410000Y-76665000D03*
X121410000Y-79205000D03*
D11*
X122310000Y-79205000D03*
D17*
X121410000Y-81745000D03*
D12*
X122310000Y-81745000D03*
X122310000Y-84285000D03*
D17*
X121410000Y-84285000D03*
D12*
X122310000Y-86825000D03*
D17*
X121410000Y-86825000D03*
D12*
X122310000Y-89365000D03*
D17*
X121410000Y-89365000D03*
X121410000Y-91905000D03*
D11*
X122310000Y-91905000D03*
D12*
X122310000Y-94445000D03*
D17*
X121410000Y-94445000D03*
D12*
X122310000Y-96985000D03*
D17*
X121410000Y-96985000D03*
X121410000Y-99525000D03*
D12*
X122310000Y-99525000D03*
D17*
X121410000Y-102065000D03*
D12*
X122310000Y-102065000D03*
D17*
X121410000Y-104605000D03*
D11*
X122310000Y-104605000D03*
D17*
X121410000Y-107145000D03*
D12*
X122310000Y-107145000D03*
D17*
X121410000Y-109685000D03*
D12*
X122310000Y-109685000D03*
D17*
X121410000Y-112225000D03*
D12*
X122310000Y-112225000D03*
D17*
X121410000Y-114765000D03*
D12*
X122310000Y-114765000D03*
D11*
X122310000Y-117305000D03*
D17*
X121410000Y-117305000D03*
X121410000Y-119845000D03*
D12*
X122310000Y-119845000D03*
X122310000Y-122385000D03*
D17*
X121410000Y-122385000D03*
D12*
X140090000Y-122385000D03*
D17*
X140990000Y-122385000D03*
D12*
X140090000Y-119845000D03*
D17*
X140990000Y-119845000D03*
X140990000Y-117305000D03*
D11*
X140090000Y-117305000D03*
D17*
X140990000Y-114765000D03*
D12*
X140090000Y-114765000D03*
X140090000Y-112225000D03*
D17*
X140990000Y-112225000D03*
X140990000Y-109685000D03*
D12*
X140090000Y-109685000D03*
D17*
X140990000Y-107145000D03*
D12*
X140090000Y-107145000D03*
D17*
X140990000Y-104605000D03*
D11*
X140090000Y-104605000D03*
D12*
X140090000Y-102065000D03*
D17*
X140990000Y-102065000D03*
X140990000Y-99525000D03*
D12*
X140090000Y-99525000D03*
X140090000Y-96985000D03*
D17*
X140990000Y-96985000D03*
D12*
X140090000Y-94445000D03*
D17*
X140990000Y-94445000D03*
D11*
X140090000Y-91905000D03*
D17*
X140990000Y-91905000D03*
X140990000Y-89365000D03*
D12*
X140090000Y-89365000D03*
X140090000Y-86825000D03*
D17*
X140990000Y-86825000D03*
X140990000Y-84285000D03*
D12*
X140090000Y-84285000D03*
D17*
X140990000Y-81745000D03*
D12*
X140090000Y-81745000D03*
D17*
X140990000Y-79205000D03*
D11*
X140090000Y-79205000D03*
D17*
X140990000Y-76665000D03*
D12*
X140090000Y-76665000D03*
D17*
X140990000Y-74125000D03*
D12*
X140090000Y-74125000D03*
X128660000Y-122155000D03*
D18*
X128660000Y-123055000D03*
X131200000Y-123055000D03*
D11*
X131200000Y-122155000D03*
D18*
X133740000Y-123055000D03*
D12*
X133740000Y-122155000D03*
%TD*%
D11*
%TO.C,J1*%
X103325000Y-82825000D03*
D12*
X103325000Y-80285000D03*
%TD*%
D19*
%TO.C,U3*%
X110600000Y-98975000D03*
X110600000Y-99625000D03*
X110600000Y-100275000D03*
X110600000Y-100925000D03*
X110600000Y-101575000D03*
X110600000Y-102225000D03*
X110600000Y-102875000D03*
X110600000Y-103525000D03*
X110600000Y-104175000D03*
X110600000Y-104825000D03*
X116400000Y-104825000D03*
X116400000Y-104175000D03*
X116400000Y-103525000D03*
X116400000Y-102875000D03*
X116400000Y-102225000D03*
X116400000Y-101575000D03*
X116400000Y-100925000D03*
X116400000Y-100275000D03*
X116400000Y-99625000D03*
X116400000Y-98975000D03*
%TD*%
D11*
%TO.C,J6*%
X103300000Y-113800000D03*
D12*
X103300000Y-111260000D03*
%TD*%
D13*
%TO.C,H2*%
X95600000Y-131000000D03*
%TD*%
D10*
%TO.C,R7*%
X107525000Y-120100000D03*
X105875000Y-120100000D03*
%TD*%
D11*
%TO.C,J8*%
X103300000Y-126200000D03*
D12*
X103300000Y-123660000D03*
%TD*%
D11*
%TO.C,J4*%
X103300000Y-101400000D03*
D12*
X103300000Y-98860000D03*
%TD*%
D10*
%TO.C,R5*%
X107525000Y-113700000D03*
X105875000Y-113700000D03*
%TD*%
%TO.C,R8*%
X107525000Y-126200000D03*
X105875000Y-126200000D03*
%TD*%
M02*
