M48
INCH,TZ
T1C0.0157
T2C0.0394
%
G90
G05
T1
X34528Y-50512
X34567Y-46850
X34606Y-48346
X35945Y-47992
X35984Y-46929
X36220Y-50827
X36267Y-48884
X36496Y-43622
X36496Y-45118
X36565Y-48402
X36614Y-47717
X36643Y-47324
X36890Y-51378
X37515Y-47571
X37515Y-48374
X37559Y-46811
X37598Y-49370
X37953Y-49724
X38071Y-43622
X38110Y-51732
X38150Y-48484
X38150Y-49035
X38189Y-47913
X38228Y-47362
X38228Y-52441
X38268Y-46260
X38364Y-46952
X38661Y-49724
X38780Y-45157
X39213Y-46260
X39291Y-52441
X39331Y-51693
X39370Y-49724
X39685Y-43622
X39764Y-48819
X39803Y-47559
X40079Y-48095
X40118Y-49079
X40157Y-51693
X40315Y-46676
X40330Y-47227
X40472Y-45433
X40473Y-48095
X40473Y-48819
X40551Y-52441
X40906Y-43701
X41063Y-46693
X41102Y-44748
X41378Y-46402
X41496Y-47937
X41850Y-52386
X42187Y-44709
X42244Y-48528
X42441Y-50772
X42510Y-44984
X42756Y-51362
X42902Y-50811
X43071Y-44984
X43121Y-47624
X43228Y-52386
X43268Y-46756
X43347Y-45457
X43349Y-44706
X43425Y-50142
X43504Y-51481
X43819Y-44709
X44016Y-47229
X44016Y-47701
X44016Y-48110
X44213Y-44984
X44331Y-45969
X44370Y-44351
X44488Y-52504
X44746Y-51813
X44921Y-44906
X44921Y-45969
X45021Y-44276
X45042Y-52108
X45199Y-44627
X45365Y-51194
X45551Y-43646
X45551Y-49866
X45709Y-47189
X45827Y-50378
X45864Y-47814
X45906Y-45536
X45945Y-51284
X46221Y-52504
X46260Y-46126
X46850Y-49473
X46880Y-45735
X46926Y-47228
X46929Y-43606
X46929Y-48646
X47156Y-46126
X47163Y-46913
X47992Y-45024
X48189Y-43685
X48661Y-46260
X48740Y-47858
X49055Y-51835
X49331Y-50181
X49567Y-43646
X50118Y-45260
X50158Y-52504
X50197Y-49409
X50827Y-43646
X50866Y-49984
X51457Y-45221
X51496Y-52543
X51890Y-49709
X52677Y-52543
X52795Y-50669
X52795Y-45299
X53228Y-50299
X53701Y-49843
X54488Y-45732
X54488Y-48843
X54528Y-46520
T2
X49811Y-51520
X50236Y-46528
X50236Y-47528
X50236Y-48528
X50811Y-51520
X51811Y-51520
T0
M30
