%TF.GenerationSoftware,KiCad,Pcbnew,(6.0.7)*%
%TF.CreationDate,2023-03-22T16:10:42+01:00*%
%TF.ProjectId,PicoLink,5069636f-4c69-46e6-9b2e-6b696361645f,rev?*%
%TF.SameCoordinates,Original*%
%TF.FileFunction,Soldermask,Top*%
%TF.FilePolarity,Negative*%
%FSLAX46Y46*%
G04 Gerber Fmt 4.6, Leading zero omitted, Abs format (unit mm)*
G04 Created by KiCad (PCBNEW (6.0.7)) date 2023-03-22 16:10:42*
%MOMM*%
%LPD*%
G01*
G04 APERTURE LIST*
G04 Aperture macros list*
%AMRoundRect*
0 Rectangle with rounded corners*
0 $1 Rounding radius*
0 $2 $3 $4 $5 $6 $7 $8 $9 X,Y pos of 4 corners*
0 Add a 4 corners polygon primitive as box body*
4,1,4,$2,$3,$4,$5,$6,$7,$8,$9,$2,$3,0*
0 Add four circle primitives for the rounded corners*
1,1,$1+$1,$2,$3*
1,1,$1+$1,$4,$5*
1,1,$1+$1,$6,$7*
1,1,$1+$1,$8,$9*
0 Add four rect primitives between the rounded corners*
20,1,$1+$1,$2,$3,$4,$5,0*
20,1,$1+$1,$4,$5,$6,$7,0*
20,1,$1+$1,$6,$7,$8,$9,0*
20,1,$1+$1,$8,$9,$2,$3,0*%
G04 Aperture macros list end*
%ADD10C,0.650000*%
%ADD11R,1.150000X0.300000*%
%ADD12R,2.000000X2.180000*%
%ADD13RoundRect,0.200000X-0.200000X-0.275000X0.200000X-0.275000X0.200000X0.275000X-0.200000X0.275000X0*%
%ADD14RoundRect,0.225000X0.225000X0.250000X-0.225000X0.250000X-0.225000X-0.250000X0.225000X-0.250000X0*%
%ADD15RoundRect,0.225000X-0.225000X-0.250000X0.225000X-0.250000X0.225000X0.250000X-0.225000X0.250000X0*%
%ADD16RoundRect,0.250000X0.450000X-0.250000X0.450000X0.250000X-0.450000X0.250000X-0.450000X-0.250000X0*%
%ADD17RoundRect,0.225000X-0.250000X0.225000X-0.250000X-0.225000X0.250000X-0.225000X0.250000X0.225000X0*%
%ADD18RoundRect,0.200000X0.200000X0.275000X-0.200000X0.275000X-0.200000X-0.275000X0.200000X-0.275000X0*%
%ADD19C,2.000000*%
%ADD20R,0.800000X0.800000*%
%ADD21R,1.700000X1.700000*%
%ADD22O,1.700000X1.700000*%
%ADD23RoundRect,0.225000X0.250000X-0.225000X0.250000X0.225000X-0.250000X0.225000X-0.250000X-0.225000X0*%
%ADD24RoundRect,0.200000X-0.275000X0.200000X-0.275000X-0.200000X0.275000X-0.200000X0.275000X0.200000X0*%
%ADD25R,0.900000X0.300000*%
%ADD26R,0.250000X1.650000*%
%ADD27C,2.700000*%
%ADD28R,2.400000X0.740000*%
%ADD29RoundRect,0.050000X0.050000X-0.387500X0.050000X0.387500X-0.050000X0.387500X-0.050000X-0.387500X0*%
%ADD30RoundRect,0.050000X0.387500X-0.050000X0.387500X0.050000X-0.387500X0.050000X-0.387500X-0.050000X0*%
%ADD31R,3.200000X3.200000*%
%ADD32RoundRect,0.250000X0.250000X0.450000X-0.250000X0.450000X-0.250000X-0.450000X0.250000X-0.450000X0*%
%ADD33R,1.050000X0.650000*%
%ADD34R,0.400000X1.900000*%
%ADD35R,1.200000X0.650000*%
G04 APERTURE END LIST*
D10*
%TO.C,J1*%
X93137500Y-124990000D03*
X93137500Y-119210000D03*
D11*
X94187500Y-118750000D03*
X94212500Y-119550000D03*
X94212500Y-120850000D03*
X94212500Y-121850000D03*
X94212500Y-122350000D03*
X94212500Y-123350000D03*
X94212500Y-124650000D03*
X94212500Y-125450000D03*
X94212500Y-125150000D03*
X94212500Y-124350000D03*
X94212500Y-123850000D03*
X94212500Y-122850000D03*
X94212500Y-121350000D03*
X94212500Y-120350000D03*
X94212500Y-119850000D03*
X94187500Y-119050000D03*
D12*
X89707500Y-116990000D03*
X89707500Y-127210000D03*
X93637500Y-127210000D03*
X93637500Y-116990000D03*
%TD*%
D13*
%TO.C,R4*%
X97975000Y-123300000D03*
X99625000Y-123300000D03*
%TD*%
D14*
%TO.C,C9*%
X108675156Y-118660476D03*
X107125156Y-118660476D03*
%TD*%
D15*
%TO.C,C5*%
X105150156Y-128960476D03*
X106700156Y-128960476D03*
%TD*%
D16*
%TO.C,C15*%
X100800000Y-114900000D03*
X100800000Y-112900000D03*
%TD*%
D17*
%TO.C,C10*%
X111400156Y-127385476D03*
X111400156Y-128935476D03*
%TD*%
D18*
%TO.C,R18*%
X110825156Y-111800000D03*
X109175156Y-111800000D03*
%TD*%
D19*
%TO.C,FID3*%
X138400156Y-127460476D03*
%TD*%
D13*
%TO.C,R15*%
X119775156Y-128460476D03*
X121425156Y-128460476D03*
%TD*%
D20*
%TO.C,D5*%
X106350156Y-111800000D03*
X107850156Y-111800000D03*
%TD*%
D21*
%TO.C,J6*%
X126520156Y-130860476D03*
D22*
X129060156Y-130860476D03*
X131600156Y-130860476D03*
%TD*%
D20*
%TO.C,D1*%
X94550000Y-112600000D03*
X96050000Y-112600000D03*
%TD*%
D15*
%TO.C,C4*%
X120825156Y-121460476D03*
X122375156Y-121460476D03*
%TD*%
D13*
%TO.C,R10*%
X119775156Y-132960476D03*
X121425156Y-132960476D03*
%TD*%
D18*
%TO.C,R2*%
X99625000Y-124800000D03*
X97975000Y-124800000D03*
%TD*%
D21*
%TO.C,J5*%
X127600156Y-123260476D03*
D22*
X127600156Y-120720476D03*
X127600156Y-118180476D03*
%TD*%
D23*
%TO.C,C12*%
X115000156Y-116735476D03*
X115000156Y-115185476D03*
%TD*%
D14*
%TO.C,C2*%
X108675156Y-117160476D03*
X107125156Y-117160476D03*
%TD*%
D24*
%TO.C,R7*%
X103500000Y-129175000D03*
X103500000Y-130825000D03*
%TD*%
D15*
%TO.C,C8*%
X120825156Y-119960476D03*
X122375156Y-119960476D03*
%TD*%
D25*
%TO.C,U1*%
X107325156Y-127510476D03*
X107325156Y-127010476D03*
X107325156Y-126510476D03*
X107325156Y-126010476D03*
X104525156Y-126010476D03*
X104525156Y-126510476D03*
X104525156Y-127010476D03*
X104525156Y-127510476D03*
D26*
X105925156Y-126760476D03*
%TD*%
D27*
%TO.C,H6*%
X89600000Y-112700000D03*
%TD*%
D13*
%TO.C,R16*%
X119775156Y-126960476D03*
X121425156Y-126960476D03*
%TD*%
D18*
%TO.C,R5*%
X99625000Y-120300000D03*
X97975000Y-120300000D03*
%TD*%
D27*
%TO.C,H5*%
X136800156Y-112660476D03*
%TD*%
D13*
%TO.C,R3*%
X97975000Y-121800000D03*
X99625000Y-121800000D03*
%TD*%
D23*
%TO.C,C3*%
X111400156Y-116735476D03*
X111400156Y-115185476D03*
%TD*%
D27*
%TO.C,H3*%
X136800156Y-131460476D03*
%TD*%
D14*
%TO.C,C6*%
X108675156Y-115660476D03*
X107125156Y-115660476D03*
%TD*%
%TO.C,C13*%
X107375156Y-120160476D03*
X105825156Y-120160476D03*
%TD*%
D28*
%TO.C,U3*%
X132450156Y-118220476D03*
X136350156Y-118220476D03*
X132450156Y-119490476D03*
X136350156Y-119490476D03*
X132450156Y-120760476D03*
X136350156Y-120760476D03*
X132450156Y-122030476D03*
X136350156Y-122030476D03*
X132450156Y-123300476D03*
X136350156Y-123300476D03*
%TD*%
D29*
%TO.C,RP2040*%
X111400156Y-125497976D03*
X111800156Y-125497976D03*
X112200156Y-125497976D03*
X112600156Y-125497976D03*
X113000156Y-125497976D03*
X113400156Y-125497976D03*
X113800156Y-125497976D03*
X114200156Y-125497976D03*
X114600156Y-125497976D03*
X115000156Y-125497976D03*
X115400156Y-125497976D03*
X115800156Y-125497976D03*
X116200156Y-125497976D03*
X116600156Y-125497976D03*
D30*
X117437656Y-124660476D03*
X117437656Y-124260476D03*
X117437656Y-123860476D03*
X117437656Y-123460476D03*
X117437656Y-123060476D03*
X117437656Y-122660476D03*
X117437656Y-122260476D03*
X117437656Y-121860476D03*
X117437656Y-121460476D03*
X117437656Y-121060476D03*
X117437656Y-120660476D03*
X117437656Y-120260476D03*
X117437656Y-119860476D03*
X117437656Y-119460476D03*
D29*
X116600156Y-118622976D03*
X116200156Y-118622976D03*
X115800156Y-118622976D03*
X115400156Y-118622976D03*
X115000156Y-118622976D03*
X114600156Y-118622976D03*
X114200156Y-118622976D03*
X113800156Y-118622976D03*
X113400156Y-118622976D03*
X113000156Y-118622976D03*
X112600156Y-118622976D03*
X112200156Y-118622976D03*
X111800156Y-118622976D03*
X111400156Y-118622976D03*
D30*
X110562656Y-119460476D03*
X110562656Y-119860476D03*
X110562656Y-120260476D03*
X110562656Y-120660476D03*
X110562656Y-121060476D03*
X110562656Y-121460476D03*
X110562656Y-121860476D03*
X110562656Y-122260476D03*
X110562656Y-122660476D03*
X110562656Y-123060476D03*
X110562656Y-123460476D03*
X110562656Y-123860476D03*
X110562656Y-124260476D03*
X110562656Y-124660476D03*
D31*
X114000156Y-122060476D03*
%TD*%
D32*
%TO.C,C14*%
X96800000Y-114500000D03*
X94800000Y-114500000D03*
%TD*%
D19*
%TO.C,FID2*%
X93700000Y-132700000D03*
%TD*%
%TO.C,FID1*%
X132700000Y-111500000D03*
%TD*%
D33*
%TO.C,SW1*%
X100775000Y-129975000D03*
X96625000Y-129975000D03*
X100775000Y-127825000D03*
X96625000Y-127825000D03*
%TD*%
D18*
%TO.C,R8*%
X99025000Y-112600000D03*
X97375000Y-112600000D03*
%TD*%
D34*
%TO.C,Y1*%
X120500156Y-123860476D03*
X121700156Y-123860476D03*
X122900156Y-123860476D03*
%TD*%
D14*
%TO.C,C11*%
X108675156Y-121760476D03*
X107125156Y-121760476D03*
%TD*%
D27*
%TO.C,H4*%
X89600000Y-131500000D03*
%TD*%
D13*
%TO.C,R11*%
X119775156Y-131460476D03*
X121425156Y-131460476D03*
%TD*%
D35*
%TO.C,U5*%
X98400000Y-116550000D03*
X98400000Y-117500000D03*
X98400000Y-118450000D03*
X100800000Y-118450000D03*
X100800000Y-116550000D03*
%TD*%
D17*
%TO.C,C7*%
X115000156Y-127385476D03*
X115000156Y-128935476D03*
%TD*%
D13*
%TO.C,R9*%
X119775156Y-129960476D03*
X121425156Y-129960476D03*
%TD*%
M02*
