%TF.GenerationSoftware,KiCad,Pcbnew,(6.0.7)*%
%TF.CreationDate,2023-03-22T16:10:42+01:00*%
%TF.ProjectId,PicoLink,5069636f-4c69-46e6-9b2e-6b696361645f,rev?*%
%TF.SameCoordinates,Original*%
%TF.FileFunction,Copper,L2,Bot*%
%TF.FilePolarity,Positive*%
%FSLAX46Y46*%
G04 Gerber Fmt 4.6, Leading zero omitted, Abs format (unit mm)*
G04 Created by KiCad (PCBNEW (6.0.7)) date 2023-03-22 16:10:42*
%MOMM*%
%LPD*%
G01*
G04 APERTURE LIST*
%TA.AperFunction,ComponentPad*%
%ADD10R,1.700000X1.700000*%
%TD*%
%TA.AperFunction,ComponentPad*%
%ADD11O,1.700000X1.700000*%
%TD*%
%TA.AperFunction,ViaPad*%
%ADD12C,0.800000*%
%TD*%
%TA.AperFunction,Conductor*%
%ADD13C,0.200000*%
%TD*%
G04 APERTURE END LIST*
D10*
%TO.P,J6,1,Pin_1*%
%TO.N,Net-(J6-Pad1)*%
X126520156Y-130860476D03*
D11*
%TO.P,J6,2,Pin_2*%
%TO.N,GND*%
X129060156Y-130860476D03*
%TO.P,J6,3,Pin_3*%
%TO.N,Net-(J6-Pad3)*%
X131600156Y-130860476D03*
%TD*%
D10*
%TO.P,J5,1,Pin_1*%
%TO.N,Net-(J5-Pad1)*%
X127600156Y-123260476D03*
D11*
%TO.P,J5,2,Pin_2*%
%TO.N,GND*%
X127600156Y-120720476D03*
%TO.P,J5,3,Pin_3*%
%TO.N,Net-(J5-Pad3)*%
X127600156Y-118180476D03*
%TD*%
D12*
%TO.N,Net-(R7-Pad1)*%
X108971848Y-129060976D03*
%TO.N,GND*%
X96800000Y-131400000D03*
X99600000Y-117500000D03*
X96700000Y-110800000D03*
X119200156Y-123560476D03*
X100000000Y-126300000D03*
X122400156Y-110960476D03*
X127400156Y-133360476D03*
X93700000Y-130500000D03*
X95500000Y-125400000D03*
X134100156Y-115060476D03*
X113000156Y-133360476D03*
X101100000Y-120800000D03*
X91300000Y-121900000D03*
X130700156Y-114860476D03*
X110500156Y-130760476D03*
X105100156Y-117860476D03*
X87900000Y-122800000D03*
X124600156Y-131660476D03*
X87800000Y-119000000D03*
X134100000Y-128700000D03*
X98500000Y-114700000D03*
X87700000Y-128300000D03*
X110100156Y-115460476D03*
X92700000Y-110800000D03*
X116400156Y-127960476D03*
X129100156Y-110860476D03*
X102000000Y-131300000D03*
X119200156Y-110760476D03*
X107800156Y-128960476D03*
X129200156Y-126960476D03*
X125300156Y-127460476D03*
X138400156Y-124060476D03*
X133800156Y-133460476D03*
X91400000Y-119200000D03*
X100800000Y-110800000D03*
X103000000Y-133200000D03*
X127500000Y-125500000D03*
X99800000Y-133200000D03*
X109800156Y-133060476D03*
X106300156Y-133060476D03*
X123600000Y-117500000D03*
X131800156Y-126260476D03*
X119000156Y-125660476D03*
X123800156Y-121560476D03*
X99900000Y-131300000D03*
X117400156Y-133360476D03*
X102800000Y-115400000D03*
X98200000Y-126300000D03*
X138400156Y-116160476D03*
X117500156Y-117160476D03*
X127300156Y-114960476D03*
X116600156Y-115660476D03*
X97200000Y-117500000D03*
X125900156Y-110860476D03*
X116100156Y-119860476D03*
X97100000Y-133200000D03*
X104400156Y-113660476D03*
X92700000Y-114600000D03*
X121900156Y-114360476D03*
X115700156Y-110860476D03*
X138500156Y-118160476D03*
X96400000Y-126300000D03*
X95400000Y-118900000D03*
X136400000Y-126600000D03*
X135200156Y-127760476D03*
X92000000Y-129100000D03*
X103900000Y-111000000D03*
X130800156Y-133460476D03*
%TO.N,+3.3V*%
X102439136Y-119956997D03*
X110300156Y-127360476D03*
X101800654Y-122160351D03*
X112700656Y-112652058D03*
X102400000Y-118557997D03*
X109527191Y-120965845D03*
X115700156Y-126660476D03*
X101900156Y-124659476D03*
X114352466Y-112459984D03*
X104299500Y-118600000D03*
X109900156Y-118760476D03*
X112600156Y-116760476D03*
X114099656Y-116760476D03*
%TO.N,Net-(C11-Pad1)*%
X111800654Y-122200000D03*
X116495716Y-121448776D03*
%TO.N,Net-(J1-PadB5)*%
X96900000Y-124550000D03*
X92117330Y-124165819D03*
%TO.N,Net-(J1-PadA7)*%
X97000000Y-121700000D03*
X93000000Y-121200000D03*
%TO.N,Net-(R3-Pad2)*%
X111800156Y-119960476D03*
X105400156Y-121760476D03*
%TO.N,Net-(J1-PadA6)*%
X95288172Y-122870258D03*
X96900000Y-123150500D03*
%TO.N,Net-(R4-Pad2)*%
X107300156Y-123260476D03*
X111800156Y-121160476D03*
%TO.N,Net-(J1-PadA5)*%
X97100000Y-120300000D03*
X95288172Y-120829742D03*
%TO.N,Net-(R7-Pad1)*%
X108600156Y-130459976D03*
%TO.N,TGT_SWCLK*%
X114405534Y-132355098D03*
X116700156Y-130260976D03*
%TO.N,TGT_SWDIO*%
X115227621Y-130033011D03*
X113655534Y-131605098D03*
%TO.N,SWD_DIO*%
X119192761Y-119958453D03*
X102800156Y-122160976D03*
X102800156Y-123999500D03*
X119076156Y-116166737D03*
X107975656Y-114260476D03*
X92874455Y-122940141D03*
X109400156Y-114260476D03*
X114099656Y-114060476D03*
X112300156Y-114260476D03*
X101000000Y-123999500D03*
%TO.N,SWD_CLK*%
X97444193Y-119257497D03*
X114804241Y-113351558D03*
X119793957Y-119159976D03*
X93073487Y-120203203D03*
X107154926Y-113560976D03*
X110106911Y-113553721D03*
X119775656Y-117160476D03*
X111300156Y-113560476D03*
%TD*%
D13*
%TO.N,Net-(R7-Pad1)*%
X108600156Y-129432668D02*
X108971848Y-129060976D01*
X108600156Y-130459976D02*
X108600156Y-129432668D01*
%TO.N,+3.3V*%
X101900156Y-122259853D02*
X101800654Y-122160351D01*
X102400000Y-118557997D02*
X102400000Y-119917861D01*
X115700156Y-126660476D02*
X115000156Y-127360476D01*
X104299500Y-118600000D02*
X102442003Y-118600000D01*
X102400000Y-119917861D02*
X102439136Y-119956997D01*
X114160392Y-112652058D02*
X114352466Y-112459984D01*
X102442003Y-118600000D02*
X102400000Y-118557997D01*
X112700656Y-112652058D02*
X114160392Y-112652058D01*
X109527191Y-120965845D02*
X109900156Y-120592880D01*
X109900156Y-120592880D02*
X109900156Y-118760476D01*
X112600156Y-116760476D02*
X114099656Y-116760476D01*
X101900156Y-124659476D02*
X101900156Y-122259853D01*
X115000156Y-127360476D02*
X110300156Y-127360476D01*
%TO.N,Net-(C11-Pad1)*%
X115744492Y-122200000D02*
X116495716Y-121448776D01*
X111800654Y-122200000D02*
X115744492Y-122200000D01*
%TO.N,Net-(J1-PadB5)*%
X96600500Y-124250500D02*
X96900000Y-124550000D01*
X92117330Y-124165819D02*
X92202011Y-124250500D01*
X92202011Y-124250500D02*
X96600500Y-124250500D01*
%TO.N,Net-(J1-PadA7)*%
X93000000Y-121200000D02*
X93500000Y-121700000D01*
X93500000Y-121700000D02*
X97000000Y-121700000D01*
%TO.N,Net-(R3-Pad2)*%
X105400156Y-121760476D02*
X110000156Y-121760476D01*
X110000156Y-121760476D02*
X111800156Y-119960476D01*
%TO.N,Net-(J1-PadA6)*%
X95288172Y-122870258D02*
X96619758Y-122870258D01*
X96619758Y-122870258D02*
X96900000Y-123150500D01*
%TO.N,Net-(R4-Pad2)*%
X107300156Y-123260476D02*
X108400156Y-122160476D01*
X108400156Y-122160476D02*
X110165842Y-122160476D01*
X110165842Y-122160476D02*
X111165842Y-121160476D01*
X111165842Y-121160476D02*
X111800156Y-121160476D01*
%TO.N,Net-(J1-PadA5)*%
X95288172Y-120829742D02*
X95817914Y-120300000D01*
X95817914Y-120300000D02*
X97100000Y-120300000D01*
%TO.N,TGT_SWCLK*%
X116499656Y-130260976D02*
X116700156Y-130260976D01*
X114405534Y-132355098D02*
X116499656Y-130260976D01*
%TO.N,TGT_SWDIO*%
X113655534Y-131605098D02*
X115227621Y-130033011D01*
%TO.N,SWD_DIO*%
X95250500Y-123850500D02*
X100851000Y-123850500D01*
X119076156Y-119841848D02*
X119076156Y-116166737D01*
X92874455Y-122940141D02*
X94340141Y-122940141D01*
X113899656Y-114260476D02*
X114099656Y-114060476D01*
X107975656Y-114260476D02*
X109400156Y-114260476D01*
X112300156Y-114260476D02*
X113899656Y-114260476D01*
X102800156Y-123959976D02*
X102800156Y-122160976D01*
X119192761Y-119958453D02*
X119076156Y-119841848D01*
X100851000Y-123850500D02*
X101000000Y-123999500D01*
X94340141Y-122940141D02*
X95250500Y-123850500D01*
%TO.N,SWD_CLK*%
X93073487Y-120203203D02*
X93376690Y-119900000D01*
X119793957Y-117178777D02*
X119775656Y-117160476D01*
X93376690Y-119900000D02*
X96510050Y-119900000D01*
X97152553Y-119257497D02*
X97444193Y-119257497D01*
X96510050Y-119900000D02*
X97152553Y-119257497D01*
X111300156Y-113560476D02*
X111500156Y-113560476D01*
X112005086Y-113560976D02*
X111500656Y-113560976D01*
X119793957Y-119159976D02*
X119793957Y-117178777D01*
X112214504Y-113351558D02*
X112005086Y-113560976D01*
X107154926Y-113560976D02*
X107162181Y-113553721D01*
X114804241Y-113351558D02*
X112214504Y-113351558D01*
X111500656Y-113560976D02*
X111500156Y-113560476D01*
X107162181Y-113553721D02*
X110106911Y-113553721D01*
%TD*%
%TA.AperFunction,Conductor*%
%TO.N,GND*%
G36*
X136900143Y-110219578D02*
G01*
X136919497Y-110221078D01*
X136928832Y-110222531D01*
X136943277Y-110224780D01*
X136960476Y-110222531D01*
X136984412Y-110221697D01*
X137230216Y-110236560D01*
X137245302Y-110238391D01*
X137514413Y-110287703D01*
X137529152Y-110291336D01*
X137790331Y-110372718D01*
X137804554Y-110378112D01*
X138054009Y-110490378D01*
X138067482Y-110497449D01*
X138301583Y-110638964D01*
X138314105Y-110647607D01*
X138529441Y-110816307D01*
X138540830Y-110826396D01*
X138734265Y-111019826D01*
X138744353Y-111031213D01*
X138799178Y-111101190D01*
X138913062Y-111246548D01*
X138921706Y-111259070D01*
X138949074Y-111304343D01*
X139063224Y-111493167D01*
X139070295Y-111506639D01*
X139182566Y-111756090D01*
X139187962Y-111770317D01*
X139269347Y-112031485D01*
X139272988Y-112046258D01*
X139322299Y-112315327D01*
X139324133Y-112330432D01*
X139338545Y-112568680D01*
X139337276Y-112595667D01*
X139337233Y-112595940D01*
X139337233Y-112595946D01*
X139335852Y-112604815D01*
X139338200Y-112622768D01*
X139339761Y-112634705D01*
X139340823Y-112651707D01*
X139331505Y-114422067D01*
X139241369Y-131546833D01*
X139241302Y-131559493D01*
X139239805Y-131578207D01*
X139235852Y-131603594D01*
X139238101Y-131620794D01*
X139238935Y-131644728D01*
X139226814Y-131845150D01*
X139224070Y-131890525D01*
X139222236Y-131905630D01*
X139178914Y-132142042D01*
X139172930Y-132174695D01*
X139169290Y-132189465D01*
X139087910Y-132450632D01*
X139082517Y-132464851D01*
X138970246Y-132714308D01*
X138963177Y-132727777D01*
X138836303Y-132937652D01*
X138821663Y-132961870D01*
X138813021Y-132974390D01*
X138740876Y-133066477D01*
X138644317Y-133189725D01*
X138634227Y-133201114D01*
X138440803Y-133394537D01*
X138429414Y-133404627D01*
X138214075Y-133573332D01*
X138201557Y-133581972D01*
X137967457Y-133723487D01*
X137953992Y-133730554D01*
X137704537Y-133842821D01*
X137690310Y-133848216D01*
X137429151Y-133929593D01*
X137414379Y-133933234D01*
X137145311Y-133982539D01*
X137130211Y-133984372D01*
X136891555Y-133998803D01*
X136865121Y-133997558D01*
X136864697Y-133997553D01*
X136855829Y-133996172D01*
X136846926Y-133997336D01*
X136824664Y-134000246D01*
X136808170Y-134001309D01*
X89600221Y-133940950D01*
X89580999Y-133939450D01*
X89565760Y-133937078D01*
X89556884Y-133935696D01*
X89539686Y-133937945D01*
X89515745Y-133938778D01*
X89269953Y-133923911D01*
X89254848Y-133922077D01*
X88985783Y-133872770D01*
X88971010Y-133869129D01*
X88709844Y-133787747D01*
X88695627Y-133782356D01*
X88446160Y-133670080D01*
X88432704Y-133663017D01*
X88198603Y-133521498D01*
X88186081Y-133512855D01*
X87970744Y-133344149D01*
X87959356Y-133334059D01*
X87765935Y-133140638D01*
X87755853Y-133129259D01*
X87587134Y-132913905D01*
X87578508Y-132901408D01*
X87436982Y-132667294D01*
X87429914Y-132653827D01*
X87317645Y-132404372D01*
X87312250Y-132390146D01*
X87230870Y-132128987D01*
X87227229Y-132114213D01*
X87177923Y-131845150D01*
X87176089Y-131830046D01*
X87161659Y-131591472D01*
X87162918Y-131564703D01*
X87162920Y-131564534D01*
X87164301Y-131555665D01*
X87163137Y-131546762D01*
X87163137Y-131546757D01*
X87162551Y-131542277D01*
X87737009Y-131542277D01*
X87762625Y-131810769D01*
X87763710Y-131815203D01*
X87763711Y-131815209D01*
X87817163Y-132033649D01*
X87826731Y-132072750D01*
X87927985Y-132322733D01*
X88064265Y-132555482D01*
X88142914Y-132653827D01*
X88184686Y-132706060D01*
X88232716Y-132766119D01*
X88429809Y-132950234D01*
X88651416Y-133103968D01*
X88655499Y-133105999D01*
X88655502Y-133106001D01*
X88725126Y-133140638D01*
X88892894Y-133224101D01*
X88897228Y-133225522D01*
X88897231Y-133225523D01*
X89144853Y-133306698D01*
X89144859Y-133306699D01*
X89149186Y-133308118D01*
X89153677Y-133308898D01*
X89153678Y-133308898D01*
X89411140Y-133353601D01*
X89411148Y-133353602D01*
X89414921Y-133354257D01*
X89418758Y-133354448D01*
X89498578Y-133358422D01*
X89498586Y-133358422D01*
X89500149Y-133358500D01*
X89668512Y-133358500D01*
X89670780Y-133358335D01*
X89670792Y-133358335D01*
X89801884Y-133348823D01*
X89869004Y-133343953D01*
X89873459Y-133342969D01*
X89873462Y-133342969D01*
X90127912Y-133286791D01*
X90127916Y-133286790D01*
X90132372Y-133285806D01*
X90258480Y-133238028D01*
X90380318Y-133191868D01*
X90380321Y-133191867D01*
X90384588Y-133190250D01*
X90620368Y-133059286D01*
X90767354Y-132947110D01*
X90831141Y-132898429D01*
X90831142Y-132898428D01*
X90834773Y-132895657D01*
X90873411Y-132856133D01*
X90964891Y-132762553D01*
X91023312Y-132702792D01*
X91182034Y-132484730D01*
X91234521Y-132384969D01*
X91305490Y-132250079D01*
X91305493Y-132250073D01*
X91307615Y-132246039D01*
X91316024Y-132222229D01*
X91395902Y-131996033D01*
X91395902Y-131996032D01*
X91397425Y-131991720D01*
X91434956Y-131801304D01*
X91448700Y-131731572D01*
X91448701Y-131731566D01*
X91449581Y-131727100D01*
X91451549Y-131687576D01*
X91455655Y-131605098D01*
X112742030Y-131605098D01*
X112742720Y-131611663D01*
X112759493Y-131771245D01*
X112761992Y-131795026D01*
X112821007Y-131976654D01*
X112824310Y-131982376D01*
X112824311Y-131982377D01*
X112853663Y-132033215D01*
X112916494Y-132142042D01*
X112920912Y-132146949D01*
X112920913Y-132146950D01*
X113006253Y-132241730D01*
X113044281Y-132283964D01*
X113198782Y-132396216D01*
X113204810Y-132398900D01*
X113204812Y-132398901D01*
X113352939Y-132464851D01*
X113373246Y-132473892D01*
X113379701Y-132475264D01*
X113379704Y-132475265D01*
X113403548Y-132480333D01*
X113426302Y-132485169D01*
X113488775Y-132518897D01*
X113519937Y-132569479D01*
X113571007Y-132726654D01*
X113666494Y-132892042D01*
X113670912Y-132896949D01*
X113670913Y-132896950D01*
X113789859Y-133029053D01*
X113794281Y-133033964D01*
X113832656Y-133061845D01*
X113941105Y-133140638D01*
X113948782Y-133146216D01*
X113954810Y-133148900D01*
X113954812Y-133148901D01*
X114117215Y-133221207D01*
X114123246Y-133223892D01*
X114216647Y-133243745D01*
X114303590Y-133262226D01*
X114303595Y-133262226D01*
X114310047Y-133263598D01*
X114501021Y-133263598D01*
X114507473Y-133262226D01*
X114507478Y-133262226D01*
X114594421Y-133243745D01*
X114687822Y-133223892D01*
X114693853Y-133221207D01*
X114856256Y-133148901D01*
X114856258Y-133148900D01*
X114862286Y-133146216D01*
X114869964Y-133140638D01*
X114978412Y-133061845D01*
X115016787Y-133033964D01*
X115021209Y-133029053D01*
X115140155Y-132896950D01*
X115140156Y-132896949D01*
X115144574Y-132892042D01*
X115240061Y-132726654D01*
X115299076Y-132545026D01*
X115306553Y-132473892D01*
X115318348Y-132361663D01*
X115319038Y-132355098D01*
X115318850Y-132353312D01*
X115338350Y-132286902D01*
X115355253Y-132265928D01*
X115862571Y-131758610D01*
X125161656Y-131758610D01*
X125168411Y-131820792D01*
X125219541Y-131957181D01*
X125306895Y-132073737D01*
X125423451Y-132161091D01*
X125559840Y-132212221D01*
X125622022Y-132218976D01*
X127418290Y-132218976D01*
X127480472Y-132212221D01*
X127616861Y-132161091D01*
X127733417Y-132073737D01*
X127820771Y-131957181D01*
X127864954Y-131839324D01*
X127907596Y-131782560D01*
X127974157Y-131757860D01*
X128043506Y-131773068D01*
X128078173Y-131801056D01*
X128103374Y-131830149D01*
X128110736Y-131837359D01*
X128274590Y-131973392D01*
X128283037Y-131979307D01*
X128466912Y-132086755D01*
X128476198Y-132091205D01*
X128675157Y-132167179D01*
X128685055Y-132170055D01*
X128788406Y-132191082D01*
X128802455Y-132189886D01*
X128806156Y-132179541D01*
X128806156Y-132178993D01*
X129314156Y-132178993D01*
X129318220Y-132192835D01*
X129331634Y-132194869D01*
X129338340Y-132194010D01*
X129348418Y-132191868D01*
X129552411Y-132130667D01*
X129561998Y-132126909D01*
X129753251Y-132033215D01*
X129762101Y-132027940D01*
X129935484Y-131904268D01*
X129943356Y-131897615D01*
X130094208Y-131747288D01*
X130100886Y-131739441D01*
X130228178Y-131562295D01*
X130229435Y-131563198D01*
X130276529Y-131519838D01*
X130346467Y-131507621D01*
X130411907Y-131535154D01*
X130439735Y-131566987D01*
X130456733Y-131594725D01*
X130500143Y-131665564D01*
X130646406Y-131834414D01*
X130818282Y-131977108D01*
X131011156Y-132089814D01*
X131219848Y-132169506D01*
X131224916Y-132170537D01*
X131224919Y-132170538D01*
X131282201Y-132182192D01*
X131438753Y-132214043D01*
X131443928Y-132214233D01*
X131443930Y-132214233D01*
X131656829Y-132222040D01*
X131656833Y-132222040D01*
X131661993Y-132222229D01*
X131667113Y-132221573D01*
X131667115Y-132221573D01*
X131878444Y-132194501D01*
X131878445Y-132194501D01*
X131883572Y-132193844D01*
X131888522Y-132192359D01*
X132092585Y-132131137D01*
X132092590Y-132131135D01*
X132097540Y-132129650D01*
X132298150Y-132031372D01*
X132480016Y-131901649D01*
X132638252Y-131743965D01*
X132653645Y-131722544D01*
X132765591Y-131566753D01*
X132768609Y-131562553D01*
X132772014Y-131555665D01*
X132798164Y-131502753D01*
X134937165Y-131502753D01*
X134962781Y-131771245D01*
X134963866Y-131775679D01*
X134963867Y-131775685D01*
X135025698Y-132028368D01*
X135026887Y-132033226D01*
X135128141Y-132283209D01*
X135264421Y-132515958D01*
X135296029Y-132555482D01*
X135384842Y-132666536D01*
X135432872Y-132726595D01*
X135629965Y-132910710D01*
X135851572Y-133064444D01*
X135855655Y-133066475D01*
X135855658Y-133066477D01*
X135931019Y-133103968D01*
X136093050Y-133184577D01*
X136097384Y-133185998D01*
X136097387Y-133185999D01*
X136345009Y-133267174D01*
X136345015Y-133267175D01*
X136349342Y-133268594D01*
X136353833Y-133269374D01*
X136353834Y-133269374D01*
X136611296Y-133314077D01*
X136611304Y-133314078D01*
X136615077Y-133314733D01*
X136618914Y-133314924D01*
X136698734Y-133318898D01*
X136698742Y-133318898D01*
X136700305Y-133318976D01*
X136868668Y-133318976D01*
X136870936Y-133318811D01*
X136870948Y-133318811D01*
X137002040Y-133309299D01*
X137069160Y-133304429D01*
X137073615Y-133303445D01*
X137073618Y-133303445D01*
X137328068Y-133247267D01*
X137328072Y-133247266D01*
X137332528Y-133246282D01*
X137465974Y-133195724D01*
X137580474Y-133152344D01*
X137580477Y-133152343D01*
X137584744Y-133150726D01*
X137820524Y-133019762D01*
X137967510Y-132907586D01*
X138031297Y-132858905D01*
X138031298Y-132858904D01*
X138034929Y-132856133D01*
X138223468Y-132663268D01*
X138382190Y-132445206D01*
X138434677Y-132345445D01*
X138505646Y-132210555D01*
X138505649Y-132210549D01*
X138507771Y-132206515D01*
X138512944Y-132191868D01*
X138596058Y-131956509D01*
X138596058Y-131956508D01*
X138597581Y-131952196D01*
X138626353Y-131806217D01*
X138648856Y-131692048D01*
X138648857Y-131692042D01*
X138649737Y-131687576D01*
X138652468Y-131632720D01*
X138662920Y-131422768D01*
X138662920Y-131422762D01*
X138663147Y-131418199D01*
X138637531Y-131149707D01*
X138635992Y-131143415D01*
X138574511Y-130892164D01*
X138573425Y-130887726D01*
X138472171Y-130637743D01*
X138335891Y-130404994D01*
X138218084Y-130257684D01*
X138170292Y-130197923D01*
X138170291Y-130197921D01*
X138167440Y-130194357D01*
X137970347Y-130010242D01*
X137748740Y-129856508D01*
X137744657Y-129854477D01*
X137744654Y-129854475D01*
X137579231Y-129772179D01*
X137507262Y-129736375D01*
X137502928Y-129734954D01*
X137502925Y-129734953D01*
X137255303Y-129653778D01*
X137255297Y-129653777D01*
X137250970Y-129652358D01*
X137246478Y-129651578D01*
X136989016Y-129606875D01*
X136989008Y-129606874D01*
X136985235Y-129606219D01*
X136973973Y-129605658D01*
X136901578Y-129602054D01*
X136901570Y-129602054D01*
X136900007Y-129601976D01*
X136731644Y-129601976D01*
X136729376Y-129602141D01*
X136729364Y-129602141D01*
X136598272Y-129611653D01*
X136531152Y-129616523D01*
X136526697Y-129617507D01*
X136526694Y-129617507D01*
X136272244Y-129673685D01*
X136272240Y-129673686D01*
X136267784Y-129674670D01*
X136150450Y-129719124D01*
X136019838Y-129768608D01*
X136019835Y-129768609D01*
X136015568Y-129770226D01*
X135779788Y-129901190D01*
X135672585Y-129983005D01*
X135615664Y-130026446D01*
X135565383Y-130064819D01*
X135562190Y-130068085D01*
X135562188Y-130068087D01*
X135523551Y-130107611D01*
X135376844Y-130257684D01*
X135218122Y-130475746D01*
X135195205Y-130519304D01*
X135094666Y-130710397D01*
X135094663Y-130710403D01*
X135092541Y-130714437D01*
X135091021Y-130718742D01*
X135091019Y-130718746D01*
X135018636Y-130923716D01*
X135002731Y-130968756D01*
X135001848Y-130973238D01*
X134958379Y-131193783D01*
X134950575Y-131233376D01*
X134950348Y-131237929D01*
X134950348Y-131237932D01*
X134939407Y-131457723D01*
X134937165Y-131502753D01*
X132798164Y-131502753D01*
X132865292Y-131366929D01*
X132865293Y-131366927D01*
X132867586Y-131362287D01*
X132932526Y-131148545D01*
X132961685Y-130927066D01*
X132963312Y-130860476D01*
X132945008Y-130637837D01*
X132890587Y-130421178D01*
X132801510Y-130216316D01*
X132731186Y-130107611D01*
X132682978Y-130033093D01*
X132682973Y-130033086D01*
X132680170Y-130028753D01*
X132529826Y-129863527D01*
X132525775Y-129860328D01*
X132525771Y-129860324D01*
X132358570Y-129728276D01*
X132358566Y-129728274D01*
X132354515Y-129725074D01*
X132318184Y-129705018D01*
X132296960Y-129693302D01*
X132158945Y-129617114D01*
X132154076Y-129615390D01*
X132154072Y-129615388D01*
X131953243Y-129544271D01*
X131953239Y-129544270D01*
X131948368Y-129542545D01*
X131943275Y-129541638D01*
X131943272Y-129541637D01*
X131733529Y-129504276D01*
X131733523Y-129504275D01*
X131728440Y-129503370D01*
X131654608Y-129502468D01*
X131510237Y-129500704D01*
X131510235Y-129500704D01*
X131505067Y-129500641D01*
X131284247Y-129534431D01*
X131071912Y-129603833D01*
X131019312Y-129631215D01*
X130935836Y-129674670D01*
X130873763Y-129706983D01*
X130869630Y-129710086D01*
X130869627Y-129710088D01*
X130700856Y-129836805D01*
X130695121Y-129841111D01*
X130540785Y-130002614D01*
X130537871Y-130006886D01*
X130537870Y-130006887D01*
X130433054Y-130160542D01*
X130378143Y-130205545D01*
X130307618Y-130213716D01*
X130243871Y-130182462D01*
X130223174Y-130157978D01*
X130142582Y-130033402D01*
X130136292Y-130025233D01*
X129992962Y-129867716D01*
X129985429Y-129860691D01*
X129818295Y-129728698D01*
X129809708Y-129722993D01*
X129623273Y-129620075D01*
X129613861Y-129615845D01*
X129413115Y-129544756D01*
X129403144Y-129542122D01*
X129331993Y-129529448D01*
X129318696Y-129530908D01*
X129314156Y-129545465D01*
X129314156Y-132178993D01*
X128806156Y-132178993D01*
X128806156Y-129543578D01*
X128802238Y-129530234D01*
X128787962Y-129528247D01*
X128749480Y-129534136D01*
X128739444Y-129536527D01*
X128537024Y-129602688D01*
X128527515Y-129606685D01*
X128338619Y-129705018D01*
X128329894Y-129710512D01*
X128159589Y-129838381D01*
X128151882Y-129845224D01*
X128074634Y-129926060D01*
X128013110Y-129961490D01*
X127942198Y-129958033D01*
X127884411Y-129916787D01*
X127865558Y-129883239D01*
X127825318Y-129775899D01*
X127820771Y-129763771D01*
X127733417Y-129647215D01*
X127616861Y-129559861D01*
X127480472Y-129508731D01*
X127418290Y-129501976D01*
X125622022Y-129501976D01*
X125559840Y-129508731D01*
X125423451Y-129559861D01*
X125306895Y-129647215D01*
X125219541Y-129763771D01*
X125168411Y-129900160D01*
X125161656Y-129962342D01*
X125161656Y-131758610D01*
X115862571Y-131758610D01*
X116430143Y-131191038D01*
X116492455Y-131157012D01*
X116545434Y-131156886D01*
X116592356Y-131166859D01*
X116604669Y-131169476D01*
X116795643Y-131169476D01*
X116802095Y-131168104D01*
X116802100Y-131168104D01*
X116894115Y-131148545D01*
X116982444Y-131129770D01*
X117107994Y-131073872D01*
X117150878Y-131054779D01*
X117150880Y-131054778D01*
X117156908Y-131052094D01*
X117311409Y-130939842D01*
X117322913Y-130927066D01*
X117434777Y-130802828D01*
X117434778Y-130802827D01*
X117439196Y-130797920D01*
X117524653Y-130649904D01*
X117531379Y-130638255D01*
X117531380Y-130638254D01*
X117534683Y-130632532D01*
X117593698Y-130450904D01*
X117613660Y-130260976D01*
X117597541Y-130107611D01*
X117594388Y-130077611D01*
X117594388Y-130077609D01*
X117593698Y-130071048D01*
X117534683Y-129889420D01*
X117531115Y-129883239D01*
X117462139Y-129763771D01*
X117439196Y-129724032D01*
X117393864Y-129673685D01*
X117315831Y-129587021D01*
X117315830Y-129587020D01*
X117311409Y-129582110D01*
X117201622Y-129502345D01*
X117162250Y-129473739D01*
X117162249Y-129473738D01*
X117156908Y-129469858D01*
X117150880Y-129467174D01*
X117150878Y-129467173D01*
X116988475Y-129394867D01*
X116988474Y-129394867D01*
X116982444Y-129392182D01*
X116889044Y-129372329D01*
X116802100Y-129353848D01*
X116802095Y-129353848D01*
X116795643Y-129352476D01*
X116604669Y-129352476D01*
X116598217Y-129353848D01*
X116598212Y-129353848D01*
X116511268Y-129372329D01*
X116417868Y-129392182D01*
X116411838Y-129394867D01*
X116411837Y-129394867D01*
X116249434Y-129467173D01*
X116249432Y-129467174D01*
X116243404Y-129469858D01*
X116238063Y-129473738D01*
X116238062Y-129473739D01*
X116201035Y-129500641D01*
X116151643Y-129536527D01*
X116150993Y-129536999D01*
X116084126Y-129560857D01*
X116014974Y-129544777D01*
X115975649Y-129505819D01*
X115973845Y-129507129D01*
X115969962Y-129501784D01*
X115966661Y-129496067D01*
X115945485Y-129472548D01*
X115843296Y-129359056D01*
X115843295Y-129359055D01*
X115838874Y-129354145D01*
X115717808Y-129266185D01*
X115689715Y-129245774D01*
X115689714Y-129245773D01*
X115684373Y-129241893D01*
X115678345Y-129239209D01*
X115678343Y-129239208D01*
X115515940Y-129166902D01*
X115515939Y-129166902D01*
X115509909Y-129164217D01*
X115416509Y-129144364D01*
X115329565Y-129125883D01*
X115329560Y-129125883D01*
X115323108Y-129124511D01*
X115132134Y-129124511D01*
X115125682Y-129125883D01*
X115125677Y-129125883D01*
X115038733Y-129144364D01*
X114945333Y-129164217D01*
X114939303Y-129166902D01*
X114939302Y-129166902D01*
X114776899Y-129239208D01*
X114776897Y-129239209D01*
X114770869Y-129241893D01*
X114765528Y-129245773D01*
X114765527Y-129245774D01*
X114737434Y-129266185D01*
X114616368Y-129354145D01*
X114611947Y-129359055D01*
X114611946Y-129359056D01*
X114509758Y-129472548D01*
X114488581Y-129496067D01*
X114485281Y-129501782D01*
X114485280Y-129501784D01*
X114398346Y-129652358D01*
X114393094Y-129661455D01*
X114334079Y-129843083D01*
X114333389Y-129849644D01*
X114333389Y-129849646D01*
X114321185Y-129965759D01*
X114314117Y-130033011D01*
X114314305Y-130034797D01*
X114294805Y-130101207D01*
X114277902Y-130122181D01*
X113740390Y-130659693D01*
X113678078Y-130693719D01*
X113651295Y-130696598D01*
X113560047Y-130696598D01*
X113553595Y-130697970D01*
X113553590Y-130697970D01*
X113466647Y-130716451D01*
X113373246Y-130736304D01*
X113367216Y-130738989D01*
X113367215Y-130738989D01*
X113204812Y-130811295D01*
X113204810Y-130811296D01*
X113198782Y-130813980D01*
X113044281Y-130926232D01*
X113039860Y-130931142D01*
X113039859Y-130931143D01*
X113032027Y-130939842D01*
X112916494Y-131068154D01*
X112821007Y-131233542D01*
X112761992Y-131415170D01*
X112761302Y-131421731D01*
X112761302Y-131421733D01*
X112757039Y-131462292D01*
X112742030Y-131605098D01*
X91455655Y-131605098D01*
X91462764Y-131462292D01*
X91462764Y-131462286D01*
X91462991Y-131457723D01*
X91437375Y-131189231D01*
X91432206Y-131168104D01*
X91374355Y-130931688D01*
X91373269Y-130927250D01*
X91272015Y-130677267D01*
X91144786Y-130459976D01*
X107686652Y-130459976D01*
X107687342Y-130466541D01*
X107705390Y-130638255D01*
X107706614Y-130649904D01*
X107765629Y-130831532D01*
X107861116Y-130996920D01*
X107865534Y-131001827D01*
X107865535Y-131001828D01*
X107981970Y-131131142D01*
X107988903Y-131138842D01*
X108143404Y-131251094D01*
X108149432Y-131253778D01*
X108149434Y-131253779D01*
X108192381Y-131272900D01*
X108317868Y-131328770D01*
X108411269Y-131348623D01*
X108498212Y-131367104D01*
X108498217Y-131367104D01*
X108504669Y-131368476D01*
X108695643Y-131368476D01*
X108702095Y-131367104D01*
X108702100Y-131367104D01*
X108789043Y-131348623D01*
X108882444Y-131328770D01*
X109007931Y-131272900D01*
X109050878Y-131253779D01*
X109050880Y-131253778D01*
X109056908Y-131251094D01*
X109211409Y-131138842D01*
X109218342Y-131131142D01*
X109334777Y-131001828D01*
X109334778Y-131001827D01*
X109339196Y-130996920D01*
X109434683Y-130831532D01*
X109493698Y-130649904D01*
X109494923Y-130638255D01*
X109512970Y-130466541D01*
X109513660Y-130459976D01*
X109493698Y-130270048D01*
X109434683Y-130088420D01*
X109428443Y-130077611D01*
X109393485Y-130017063D01*
X109376747Y-129948068D01*
X109399967Y-129880976D01*
X109429834Y-129853792D01*
X109428600Y-129852094D01*
X109438572Y-129844849D01*
X109583101Y-129739842D01*
X109592188Y-129729750D01*
X109706469Y-129602828D01*
X109706470Y-129602827D01*
X109710888Y-129597920D01*
X109806375Y-129432532D01*
X109865390Y-129250904D01*
X109885352Y-129060976D01*
X109865390Y-128871048D01*
X109806375Y-128689420D01*
X109710888Y-128524032D01*
X109583101Y-128382110D01*
X109428600Y-128269858D01*
X109422572Y-128267174D01*
X109422570Y-128267173D01*
X109260167Y-128194867D01*
X109260166Y-128194867D01*
X109254136Y-128192182D01*
X109160735Y-128172329D01*
X109073792Y-128153848D01*
X109073787Y-128153848D01*
X109067335Y-128152476D01*
X108876361Y-128152476D01*
X108869909Y-128153848D01*
X108869904Y-128153848D01*
X108782961Y-128172329D01*
X108689560Y-128192182D01*
X108683530Y-128194867D01*
X108683529Y-128194867D01*
X108521126Y-128267173D01*
X108521124Y-128267174D01*
X108515096Y-128269858D01*
X108360595Y-128382110D01*
X108232808Y-128524032D01*
X108137321Y-128689420D01*
X108078306Y-128871048D01*
X108058344Y-129060976D01*
X108059034Y-129067541D01*
X108062515Y-129100660D01*
X108053614Y-129162049D01*
X108016809Y-129250904D01*
X108007318Y-129273818D01*
X107991656Y-129392783D01*
X107991656Y-129392788D01*
X107986406Y-129432668D01*
X107987484Y-129440856D01*
X107990578Y-129464358D01*
X107991656Y-129480804D01*
X107991656Y-129729686D01*
X107971654Y-129797807D01*
X107959292Y-129813996D01*
X107874636Y-129908016D01*
X107861116Y-129923032D01*
X107836448Y-129965759D01*
X107771870Y-130077611D01*
X107765629Y-130088420D01*
X107706614Y-130270048D01*
X107686652Y-130459976D01*
X91144786Y-130459976D01*
X91135735Y-130444518D01*
X91017928Y-130297208D01*
X90970136Y-130237447D01*
X90970135Y-130237445D01*
X90967284Y-130233881D01*
X90770191Y-130049766D01*
X90548584Y-129896032D01*
X90544501Y-129894001D01*
X90544498Y-129893999D01*
X90379606Y-129811967D01*
X90307106Y-129775899D01*
X90302772Y-129774478D01*
X90302769Y-129774477D01*
X90055147Y-129693302D01*
X90055141Y-129693301D01*
X90050814Y-129691882D01*
X90046322Y-129691102D01*
X89788860Y-129646399D01*
X89788852Y-129646398D01*
X89785079Y-129645743D01*
X89773817Y-129645182D01*
X89701422Y-129641578D01*
X89701414Y-129641578D01*
X89699851Y-129641500D01*
X89531488Y-129641500D01*
X89529220Y-129641665D01*
X89529208Y-129641665D01*
X89398116Y-129651177D01*
X89330996Y-129656047D01*
X89326541Y-129657031D01*
X89326538Y-129657031D01*
X89072088Y-129713209D01*
X89072084Y-129713210D01*
X89067628Y-129714194D01*
X88989682Y-129743725D01*
X88819682Y-129808132D01*
X88819679Y-129808133D01*
X88815412Y-129809750D01*
X88579632Y-129940714D01*
X88365227Y-130104343D01*
X88362034Y-130107609D01*
X88362032Y-130107611D01*
X88280283Y-130191236D01*
X88176688Y-130297208D01*
X88017966Y-130515270D01*
X88015844Y-130519304D01*
X87894510Y-130749921D01*
X87894507Y-130749927D01*
X87892385Y-130753961D01*
X87890865Y-130758266D01*
X87890863Y-130758270D01*
X87816532Y-130968756D01*
X87802575Y-131008280D01*
X87790774Y-131068154D01*
X87754188Y-131253779D01*
X87750419Y-131272900D01*
X87750192Y-131277453D01*
X87750192Y-131277456D01*
X87737364Y-131535154D01*
X87737009Y-131542277D01*
X87162551Y-131542277D01*
X87160174Y-131524095D01*
X87159110Y-131507759D01*
X87159110Y-127360476D01*
X109386652Y-127360476D01*
X109387342Y-127367041D01*
X109404111Y-127526585D01*
X109406614Y-127550404D01*
X109465629Y-127732032D01*
X109468932Y-127737754D01*
X109468933Y-127737755D01*
X109497889Y-127787908D01*
X109561116Y-127897420D01*
X109688903Y-128039342D01*
X109843404Y-128151594D01*
X109849432Y-128154278D01*
X109849434Y-128154279D01*
X109940597Y-128194867D01*
X110017868Y-128229270D01*
X110111269Y-128249123D01*
X110198212Y-128267604D01*
X110198217Y-128267604D01*
X110204669Y-128268976D01*
X110395643Y-128268976D01*
X110402095Y-128267604D01*
X110402100Y-128267604D01*
X110489043Y-128249123D01*
X110582444Y-128229270D01*
X110659715Y-128194867D01*
X110750878Y-128154279D01*
X110750880Y-128154278D01*
X110756908Y-128151594D01*
X110911409Y-128039342D01*
X110937230Y-128010665D01*
X110997676Y-127973426D01*
X111030866Y-127968976D01*
X114952020Y-127968976D01*
X114968463Y-127970054D01*
X115000156Y-127974226D01*
X115008345Y-127973148D01*
X115040030Y-127968977D01*
X115040040Y-127968976D01*
X115040041Y-127968976D01*
X115139613Y-127955867D01*
X115150820Y-127954392D01*
X115150822Y-127954391D01*
X115159007Y-127953314D01*
X115307032Y-127892000D01*
X115402228Y-127818953D01*
X115402231Y-127818950D01*
X115434143Y-127794463D01*
X115439173Y-127787908D01*
X115453608Y-127769097D01*
X115464475Y-127756706D01*
X115615300Y-127605881D01*
X115677612Y-127571855D01*
X115704395Y-127568976D01*
X115795643Y-127568976D01*
X115802095Y-127567604D01*
X115802100Y-127567604D01*
X115913893Y-127543841D01*
X115982444Y-127529270D01*
X115988475Y-127526585D01*
X116150878Y-127454279D01*
X116150880Y-127454278D01*
X116156908Y-127451594D01*
X116311409Y-127339342D01*
X116439196Y-127197420D01*
X116534683Y-127032032D01*
X116593698Y-126850404D01*
X116595922Y-126829250D01*
X116612970Y-126667041D01*
X116613660Y-126660476D01*
X116603801Y-126566673D01*
X116594388Y-126477111D01*
X116594388Y-126477109D01*
X116593698Y-126470548D01*
X116534683Y-126288920D01*
X116439196Y-126123532D01*
X116311409Y-125981610D01*
X116156908Y-125869358D01*
X116150880Y-125866674D01*
X116150878Y-125866673D01*
X115988475Y-125794367D01*
X115988474Y-125794367D01*
X115982444Y-125791682D01*
X115889043Y-125771829D01*
X115802100Y-125753348D01*
X115802095Y-125753348D01*
X115795643Y-125751976D01*
X115604669Y-125751976D01*
X115598217Y-125753348D01*
X115598212Y-125753348D01*
X115511269Y-125771829D01*
X115417868Y-125791682D01*
X115411838Y-125794367D01*
X115411837Y-125794367D01*
X115249434Y-125866673D01*
X115249432Y-125866674D01*
X115243404Y-125869358D01*
X115088903Y-125981610D01*
X114961116Y-126123532D01*
X114865629Y-126288920D01*
X114806614Y-126470548D01*
X114805924Y-126477109D01*
X114805924Y-126477111D01*
X114788894Y-126639146D01*
X114761881Y-126704803D01*
X114703659Y-126745433D01*
X114663584Y-126751976D01*
X111030866Y-126751976D01*
X110962745Y-126731974D01*
X110937230Y-126710287D01*
X110915824Y-126686513D01*
X110915822Y-126686512D01*
X110911409Y-126681610D01*
X110756908Y-126569358D01*
X110750880Y-126566674D01*
X110750878Y-126566673D01*
X110588475Y-126494367D01*
X110588474Y-126494367D01*
X110582444Y-126491682D01*
X110483017Y-126470548D01*
X110402100Y-126453348D01*
X110402095Y-126453348D01*
X110395643Y-126451976D01*
X110204669Y-126451976D01*
X110198217Y-126453348D01*
X110198212Y-126453348D01*
X110117295Y-126470548D01*
X110017868Y-126491682D01*
X110011838Y-126494367D01*
X110011837Y-126494367D01*
X109849434Y-126566673D01*
X109849432Y-126566674D01*
X109843404Y-126569358D01*
X109688903Y-126681610D01*
X109684482Y-126686520D01*
X109684481Y-126686521D01*
X109631437Y-126745433D01*
X109561116Y-126823532D01*
X109465629Y-126988920D01*
X109406614Y-127170548D01*
X109405924Y-127177109D01*
X109405924Y-127177111D01*
X109403274Y-127202328D01*
X109386652Y-127360476D01*
X87159110Y-127360476D01*
X87159110Y-124165819D01*
X91203826Y-124165819D01*
X91223788Y-124355747D01*
X91282803Y-124537375D01*
X91378290Y-124702763D01*
X91506077Y-124844685D01*
X91545439Y-124873283D01*
X91620753Y-124928002D01*
X91660578Y-124956937D01*
X91666606Y-124959621D01*
X91666608Y-124959622D01*
X91824638Y-125029981D01*
X91835042Y-125034613D01*
X91928438Y-125054465D01*
X92015386Y-125072947D01*
X92015391Y-125072947D01*
X92021843Y-125074319D01*
X92200186Y-125074319D01*
X92268307Y-125094321D01*
X92314800Y-125147977D01*
X92321662Y-125166859D01*
X92335051Y-125215466D01*
X92357961Y-125298641D01*
X92442422Y-125458836D01*
X92446827Y-125464049D01*
X92446830Y-125464053D01*
X92554906Y-125591943D01*
X92554910Y-125591947D01*
X92559313Y-125597157D01*
X92564737Y-125601304D01*
X92564738Y-125601305D01*
X92697757Y-125703006D01*
X92697761Y-125703009D01*
X92703178Y-125707150D01*
X92789872Y-125747576D01*
X92861131Y-125780805D01*
X92861134Y-125780806D01*
X92867308Y-125783685D01*
X92873956Y-125785171D01*
X92873959Y-125785172D01*
X92979921Y-125808857D01*
X93044043Y-125823190D01*
X93049588Y-125823500D01*
X93182744Y-125823500D01*
X93317537Y-125808857D01*
X93435690Y-125769094D01*
X93482704Y-125753272D01*
X93482706Y-125753271D01*
X93489175Y-125751094D01*
X93644405Y-125657823D01*
X93649362Y-125653135D01*
X93649365Y-125653133D01*
X93771027Y-125538082D01*
X93771029Y-125538080D01*
X93775985Y-125533393D01*
X93779817Y-125527755D01*
X93779820Y-125527751D01*
X93873942Y-125389255D01*
X93877777Y-125383612D01*
X93945030Y-125215466D01*
X93946144Y-125208738D01*
X93946145Y-125208734D01*
X93973493Y-125043539D01*
X93973493Y-125043536D01*
X93974608Y-125036802D01*
X93973977Y-125024748D01*
X93972239Y-124991594D01*
X93988649Y-124922520D01*
X94039798Y-124873283D01*
X94098066Y-124859000D01*
X95956610Y-124859000D01*
X96024731Y-124879002D01*
X96065729Y-124922000D01*
X96107913Y-124995064D01*
X96160960Y-125086944D01*
X96165378Y-125091851D01*
X96165379Y-125091852D01*
X96282387Y-125221803D01*
X96288747Y-125228866D01*
X96443248Y-125341118D01*
X96449276Y-125343802D01*
X96449278Y-125343803D01*
X96551366Y-125389255D01*
X96617712Y-125418794D01*
X96711112Y-125438647D01*
X96798056Y-125457128D01*
X96798061Y-125457128D01*
X96804513Y-125458500D01*
X96995487Y-125458500D01*
X97001939Y-125457128D01*
X97001944Y-125457128D01*
X97088888Y-125438647D01*
X97182288Y-125418794D01*
X97248634Y-125389255D01*
X97350722Y-125343803D01*
X97350724Y-125343802D01*
X97356752Y-125341118D01*
X97511253Y-125228866D01*
X97517613Y-125221803D01*
X97634621Y-125091852D01*
X97634622Y-125091851D01*
X97639040Y-125086944D01*
X97714100Y-124956937D01*
X97731223Y-124927279D01*
X97731224Y-124927278D01*
X97734527Y-124921556D01*
X97793542Y-124739928D01*
X97794232Y-124733365D01*
X97811210Y-124571829D01*
X97838223Y-124506173D01*
X97896445Y-124465543D01*
X97936520Y-124459000D01*
X100143502Y-124459000D01*
X100211623Y-124479002D01*
X100252620Y-124521999D01*
X100260960Y-124536444D01*
X100265378Y-124541351D01*
X100265379Y-124541352D01*
X100283152Y-124561091D01*
X100388747Y-124678366D01*
X100543248Y-124790618D01*
X100549276Y-124793302D01*
X100549278Y-124793303D01*
X100664685Y-124844685D01*
X100717712Y-124868294D01*
X100811113Y-124888147D01*
X100898056Y-124906628D01*
X100898061Y-124906628D01*
X100904513Y-124908000D01*
X100934109Y-124908000D01*
X101002230Y-124928002D01*
X101048723Y-124981658D01*
X101053942Y-124995064D01*
X101065629Y-125031032D01*
X101161116Y-125196420D01*
X101165534Y-125201327D01*
X101165535Y-125201328D01*
X101284481Y-125333431D01*
X101288903Y-125338342D01*
X101443404Y-125450594D01*
X101449432Y-125453278D01*
X101449434Y-125453279D01*
X101611837Y-125525585D01*
X101617868Y-125528270D01*
X101711269Y-125548123D01*
X101798212Y-125566604D01*
X101798217Y-125566604D01*
X101804669Y-125567976D01*
X101995643Y-125567976D01*
X102002095Y-125566604D01*
X102002100Y-125566604D01*
X102089043Y-125548123D01*
X102182444Y-125528270D01*
X102188475Y-125525585D01*
X102350878Y-125453279D01*
X102350880Y-125453278D01*
X102356908Y-125450594D01*
X102511409Y-125338342D01*
X102515831Y-125333431D01*
X102634777Y-125201328D01*
X102634778Y-125201327D01*
X102639196Y-125196420D01*
X102734683Y-125031032D01*
X102746370Y-124995064D01*
X102786443Y-124936458D01*
X102851840Y-124908821D01*
X102866203Y-124908000D01*
X102895643Y-124908000D01*
X102902095Y-124906628D01*
X102902100Y-124906628D01*
X102989043Y-124888147D01*
X103082444Y-124868294D01*
X103135471Y-124844685D01*
X103250878Y-124793303D01*
X103250880Y-124793302D01*
X103256908Y-124790618D01*
X103411409Y-124678366D01*
X103517004Y-124561091D01*
X103534777Y-124541352D01*
X103534778Y-124541351D01*
X103539196Y-124536444D01*
X103634683Y-124371056D01*
X103693698Y-124189428D01*
X103695490Y-124172384D01*
X103712970Y-124006065D01*
X103713660Y-123999500D01*
X103693698Y-123809572D01*
X103634683Y-123627944D01*
X103539196Y-123462556D01*
X103441020Y-123353520D01*
X103410302Y-123289513D01*
X103408656Y-123269210D01*
X103408656Y-122891266D01*
X103428658Y-122823145D01*
X103441020Y-122806956D01*
X103534777Y-122702828D01*
X103534778Y-122702827D01*
X103539196Y-122697920D01*
X103610239Y-122574870D01*
X103631379Y-122538255D01*
X103631380Y-122538254D01*
X103634683Y-122532532D01*
X103693698Y-122350904D01*
X103694454Y-122343716D01*
X103712970Y-122167541D01*
X103713660Y-122160976D01*
X103710565Y-122131525D01*
X103694388Y-121977611D01*
X103694388Y-121977609D01*
X103693698Y-121971048D01*
X103634683Y-121789420D01*
X103621763Y-121767041D01*
X103617973Y-121760476D01*
X104486652Y-121760476D01*
X104487342Y-121767041D01*
X104504059Y-121926090D01*
X104506614Y-121950404D01*
X104565629Y-122132032D01*
X104568932Y-122137754D01*
X104568933Y-122137755D01*
X104585769Y-122166916D01*
X104661116Y-122297420D01*
X104665534Y-122302327D01*
X104665535Y-122302328D01*
X104725545Y-122368976D01*
X104788903Y-122439342D01*
X104833349Y-122471634D01*
X104925045Y-122538255D01*
X104943404Y-122551594D01*
X104949432Y-122554278D01*
X104949434Y-122554279D01*
X105111837Y-122626585D01*
X105117868Y-122629270D01*
X105211269Y-122649123D01*
X105298212Y-122667604D01*
X105298217Y-122667604D01*
X105304669Y-122668976D01*
X105495643Y-122668976D01*
X105502095Y-122667604D01*
X105502100Y-122667604D01*
X105589043Y-122649123D01*
X105682444Y-122629270D01*
X105688475Y-122626585D01*
X105850878Y-122554279D01*
X105850880Y-122554278D01*
X105856908Y-122551594D01*
X105875268Y-122538255D01*
X105993761Y-122452164D01*
X106011409Y-122439342D01*
X106037230Y-122410665D01*
X106097676Y-122373426D01*
X106130866Y-122368976D01*
X106597848Y-122368976D01*
X106665969Y-122388978D01*
X106712462Y-122442634D01*
X106722566Y-122512908D01*
X106693072Y-122577488D01*
X106689340Y-122581293D01*
X106688903Y-122581610D01*
X106641743Y-122633987D01*
X106589508Y-122692000D01*
X106561116Y-122723532D01*
X106533216Y-122771856D01*
X106492810Y-122841842D01*
X106465629Y-122888920D01*
X106406614Y-123070548D01*
X106405924Y-123077109D01*
X106405924Y-123077111D01*
X106396024Y-123171307D01*
X106386652Y-123260476D01*
X106406614Y-123450404D01*
X106465629Y-123632032D01*
X106561116Y-123797420D01*
X106688903Y-123939342D01*
X106843404Y-124051594D01*
X106849432Y-124054278D01*
X106849434Y-124054279D01*
X107011837Y-124126585D01*
X107017868Y-124129270D01*
X107111268Y-124149123D01*
X107198212Y-124167604D01*
X107198217Y-124167604D01*
X107204669Y-124168976D01*
X107395643Y-124168976D01*
X107402095Y-124167604D01*
X107402100Y-124167604D01*
X107444412Y-124158610D01*
X126241656Y-124158610D01*
X126248411Y-124220792D01*
X126299541Y-124357181D01*
X126386895Y-124473737D01*
X126503451Y-124561091D01*
X126639840Y-124612221D01*
X126702022Y-124618976D01*
X128498290Y-124618976D01*
X128560472Y-124612221D01*
X128696861Y-124561091D01*
X128813417Y-124473737D01*
X128900771Y-124357181D01*
X128951901Y-124220792D01*
X128958656Y-124158610D01*
X128958656Y-122362342D01*
X128951901Y-122300160D01*
X128900771Y-122163771D01*
X128813417Y-122047215D01*
X128696861Y-121959861D01*
X128577843Y-121915243D01*
X128521079Y-121872601D01*
X128496379Y-121806040D01*
X128511586Y-121736691D01*
X128533133Y-121708011D01*
X128634208Y-121607288D01*
X128640886Y-121599441D01*
X128765159Y-121426496D01*
X128770469Y-121417659D01*
X128864826Y-121226743D01*
X128868625Y-121217148D01*
X128930533Y-121013386D01*
X128932711Y-121003313D01*
X128934142Y-120992438D01*
X128931931Y-120978254D01*
X128918773Y-120974476D01*
X126283381Y-120974476D01*
X126269850Y-120978449D01*
X126268413Y-120988442D01*
X126298721Y-121122922D01*
X126301801Y-121132751D01*
X126381926Y-121330079D01*
X126386569Y-121339270D01*
X126497850Y-121520864D01*
X126503933Y-121529175D01*
X126643369Y-121690143D01*
X126650733Y-121697355D01*
X126655678Y-121701461D01*
X126695312Y-121760365D01*
X126696809Y-121831346D01*
X126659693Y-121891868D01*
X126619420Y-121916386D01*
X126511861Y-121956708D01*
X126511860Y-121956709D01*
X126503451Y-121959861D01*
X126386895Y-122047215D01*
X126299541Y-122163771D01*
X126248411Y-122300160D01*
X126241656Y-122362342D01*
X126241656Y-124158610D01*
X107444412Y-124158610D01*
X107489044Y-124149123D01*
X107582444Y-124129270D01*
X107588475Y-124126585D01*
X107750878Y-124054279D01*
X107750880Y-124054278D01*
X107756908Y-124051594D01*
X107911409Y-123939342D01*
X108039196Y-123797420D01*
X108134683Y-123632032D01*
X108193698Y-123450404D01*
X108213660Y-123260476D01*
X108213472Y-123258691D01*
X108232972Y-123192281D01*
X108249874Y-123171307D01*
X108615299Y-122805881D01*
X108677612Y-122771856D01*
X108704395Y-122768976D01*
X110117706Y-122768976D01*
X110134149Y-122770054D01*
X110165842Y-122774226D01*
X110174031Y-122773148D01*
X110205716Y-122768977D01*
X110205726Y-122768976D01*
X110205727Y-122768976D01*
X110305299Y-122755867D01*
X110316506Y-122754392D01*
X110316508Y-122754391D01*
X110324693Y-122753314D01*
X110472718Y-122692000D01*
X110502724Y-122668976D01*
X110567914Y-122618953D01*
X110567917Y-122618950D01*
X110599829Y-122594463D01*
X110613015Y-122577279D01*
X110619294Y-122569097D01*
X110630161Y-122556706D01*
X110734703Y-122452164D01*
X110797015Y-122418138D01*
X110867830Y-122423203D01*
X110924666Y-122465750D01*
X110943631Y-122502322D01*
X110966127Y-122571556D01*
X110969430Y-122577278D01*
X110969431Y-122577279D01*
X110987545Y-122608653D01*
X111061614Y-122736944D01*
X111066032Y-122741851D01*
X111066033Y-122741852D01*
X111149279Y-122834306D01*
X111189401Y-122878866D01*
X111343902Y-122991118D01*
X111349930Y-122993802D01*
X111349932Y-122993803D01*
X111368049Y-123001869D01*
X111518366Y-123068794D01*
X111611766Y-123088647D01*
X111698710Y-123107128D01*
X111698715Y-123107128D01*
X111705167Y-123108500D01*
X111896141Y-123108500D01*
X111902593Y-123107128D01*
X111902598Y-123107128D01*
X111989542Y-123088647D01*
X112082942Y-123068794D01*
X112233259Y-123001869D01*
X112251376Y-122993803D01*
X112251378Y-122993802D01*
X112257406Y-122991118D01*
X112336606Y-122933576D01*
X112405946Y-122883197D01*
X112411907Y-122878866D01*
X112437728Y-122850189D01*
X112498174Y-122812950D01*
X112531364Y-122808500D01*
X115696356Y-122808500D01*
X115712799Y-122809578D01*
X115744492Y-122813750D01*
X115752681Y-122812672D01*
X115784366Y-122808501D01*
X115784376Y-122808500D01*
X115784377Y-122808500D01*
X115883949Y-122795391D01*
X115895156Y-122793916D01*
X115895158Y-122793915D01*
X115903343Y-122792838D01*
X116051368Y-122731524D01*
X116061784Y-122723532D01*
X116146564Y-122658477D01*
X116146567Y-122658474D01*
X116171926Y-122639015D01*
X116178479Y-122633987D01*
X116189769Y-122619274D01*
X116197944Y-122608621D01*
X116208811Y-122596230D01*
X116410860Y-122394181D01*
X116473172Y-122360155D01*
X116499955Y-122357276D01*
X116591203Y-122357276D01*
X116597655Y-122355904D01*
X116597660Y-122355904D01*
X116684604Y-122337423D01*
X116778004Y-122317570D01*
X116784035Y-122314885D01*
X116946438Y-122242579D01*
X116946440Y-122242578D01*
X116952468Y-122239894D01*
X116964399Y-122231226D01*
X117061949Y-122160351D01*
X117106969Y-122127642D01*
X117234756Y-121985720D01*
X117330243Y-121820332D01*
X117389258Y-121638704D01*
X117396316Y-121571556D01*
X117408530Y-121455341D01*
X117409220Y-121448776D01*
X117402345Y-121383365D01*
X117389948Y-121265411D01*
X117389948Y-121265409D01*
X117389258Y-121258848D01*
X117330243Y-121077220D01*
X117234756Y-120911832D01*
X117219031Y-120894367D01*
X117111391Y-120774821D01*
X117111390Y-120774820D01*
X117106969Y-120769910D01*
X116971597Y-120671556D01*
X116957810Y-120661539D01*
X116957809Y-120661538D01*
X116952468Y-120657658D01*
X116946440Y-120654974D01*
X116946438Y-120654973D01*
X116784035Y-120582667D01*
X116784034Y-120582667D01*
X116778004Y-120579982D01*
X116684603Y-120560129D01*
X116597660Y-120541648D01*
X116597655Y-120541648D01*
X116591203Y-120540276D01*
X116400229Y-120540276D01*
X116393777Y-120541648D01*
X116393772Y-120541648D01*
X116306829Y-120560129D01*
X116213428Y-120579982D01*
X116207398Y-120582667D01*
X116207397Y-120582667D01*
X116044994Y-120654973D01*
X116044992Y-120654974D01*
X116038964Y-120657658D01*
X116033623Y-120661538D01*
X116033622Y-120661539D01*
X116019835Y-120671556D01*
X115884463Y-120769910D01*
X115880042Y-120774820D01*
X115880041Y-120774821D01*
X115772402Y-120894367D01*
X115756676Y-120911832D01*
X115661189Y-121077220D01*
X115602174Y-121258848D01*
X115601484Y-121265409D01*
X115601484Y-121265411D01*
X115589087Y-121383365D01*
X115582212Y-121448776D01*
X115582400Y-121450562D01*
X115562900Y-121516972D01*
X115545997Y-121537946D01*
X115529348Y-121554595D01*
X115467036Y-121588621D01*
X115440253Y-121591500D01*
X112788785Y-121591500D01*
X112720664Y-121571498D01*
X112674171Y-121517842D01*
X112664067Y-121447568D01*
X112668952Y-121426564D01*
X112691658Y-121356682D01*
X112693698Y-121350404D01*
X112695346Y-121334729D01*
X112712970Y-121167041D01*
X112713660Y-121160476D01*
X112704308Y-121071497D01*
X112694388Y-120977111D01*
X112694388Y-120977109D01*
X112693698Y-120970548D01*
X112634683Y-120788920D01*
X112612675Y-120750800D01*
X112539196Y-120623532D01*
X112541933Y-120621952D01*
X112522507Y-120568129D01*
X112538334Y-120498919D01*
X112539270Y-120497463D01*
X112539196Y-120497420D01*
X112631379Y-120337755D01*
X112631380Y-120337754D01*
X112634683Y-120332032D01*
X112693698Y-120150404D01*
X112694601Y-120141818D01*
X112712970Y-119967041D01*
X112713660Y-119960476D01*
X112711126Y-119936363D01*
X112694388Y-119777111D01*
X112694388Y-119777109D01*
X112693698Y-119770548D01*
X112634683Y-119588920D01*
X112620886Y-119565022D01*
X112563778Y-119466109D01*
X112539196Y-119423532D01*
X112525452Y-119408267D01*
X112415831Y-119286521D01*
X112415830Y-119286520D01*
X112411409Y-119281610D01*
X112256908Y-119169358D01*
X112250880Y-119166674D01*
X112250878Y-119166673D01*
X112088475Y-119094367D01*
X112088474Y-119094367D01*
X112082444Y-119091682D01*
X111969002Y-119067569D01*
X111902100Y-119053348D01*
X111902095Y-119053348D01*
X111895643Y-119051976D01*
X111704669Y-119051976D01*
X111698217Y-119053348D01*
X111698212Y-119053348D01*
X111631310Y-119067569D01*
X111517868Y-119091682D01*
X111511838Y-119094367D01*
X111511837Y-119094367D01*
X111349434Y-119166673D01*
X111349432Y-119166674D01*
X111343404Y-119169358D01*
X111188903Y-119281610D01*
X111184482Y-119286520D01*
X111184481Y-119286521D01*
X111074861Y-119408267D01*
X111061116Y-119423532D01*
X111036534Y-119466109D01*
X110979427Y-119565022D01*
X110965629Y-119588920D01*
X110906614Y-119770548D01*
X110905924Y-119777109D01*
X110905924Y-119777111D01*
X110889186Y-119936363D01*
X110886652Y-119960476D01*
X110886840Y-119962262D01*
X110867340Y-120028672D01*
X110850437Y-120049646D01*
X110723751Y-120176332D01*
X110661439Y-120210358D01*
X110590624Y-120205293D01*
X110533788Y-120162746D01*
X110508977Y-120096226D01*
X110508656Y-120087237D01*
X110508656Y-119490766D01*
X110528658Y-119422645D01*
X110541020Y-119406456D01*
X110634777Y-119302328D01*
X110634778Y-119302327D01*
X110639196Y-119297420D01*
X110716689Y-119163198D01*
X110731379Y-119137755D01*
X110731380Y-119137754D01*
X110734683Y-119132032D01*
X110793698Y-118950404D01*
X110799488Y-118895320D01*
X110812970Y-118767041D01*
X110813660Y-118760476D01*
X110805442Y-118682287D01*
X110794388Y-118577111D01*
X110794388Y-118577109D01*
X110793698Y-118570548D01*
X110734683Y-118388920D01*
X110728342Y-118377936D01*
X110650849Y-118243716D01*
X110639196Y-118223532D01*
X110511409Y-118081610D01*
X110356908Y-117969358D01*
X110350880Y-117966674D01*
X110350878Y-117966673D01*
X110188475Y-117894367D01*
X110188474Y-117894367D01*
X110182444Y-117891682D01*
X110082509Y-117870440D01*
X110002100Y-117853348D01*
X110002095Y-117853348D01*
X109995643Y-117851976D01*
X109804669Y-117851976D01*
X109798217Y-117853348D01*
X109798212Y-117853348D01*
X109717803Y-117870440D01*
X109617868Y-117891682D01*
X109611838Y-117894367D01*
X109611837Y-117894367D01*
X109449434Y-117966673D01*
X109449432Y-117966674D01*
X109443404Y-117969358D01*
X109288903Y-118081610D01*
X109161116Y-118223532D01*
X109149463Y-118243716D01*
X109071971Y-118377936D01*
X109065629Y-118388920D01*
X109006614Y-118570548D01*
X109005924Y-118577109D01*
X109005924Y-118577111D01*
X108994870Y-118682287D01*
X108986652Y-118760476D01*
X108987342Y-118767041D01*
X109000825Y-118895320D01*
X109006614Y-118950404D01*
X109065629Y-119132032D01*
X109068932Y-119137754D01*
X109068933Y-119137755D01*
X109083623Y-119163198D01*
X109161116Y-119297420D01*
X109165534Y-119302327D01*
X109165535Y-119302328D01*
X109259292Y-119406456D01*
X109290010Y-119470463D01*
X109291656Y-119490766D01*
X109291656Y-119994409D01*
X109271654Y-120062530D01*
X109216905Y-120109516D01*
X109076469Y-120172042D01*
X109076467Y-120172043D01*
X109070439Y-120174727D01*
X108915938Y-120286979D01*
X108911517Y-120291889D01*
X108911516Y-120291890D01*
X108873352Y-120334276D01*
X108788151Y-120428901D01*
X108747726Y-120498919D01*
X108707768Y-120568129D01*
X108692664Y-120594289D01*
X108633649Y-120775917D01*
X108632959Y-120782478D01*
X108632959Y-120782480D01*
X108619880Y-120906924D01*
X108613687Y-120965845D01*
X108618336Y-121010072D01*
X108618623Y-121012805D01*
X108605851Y-121082643D01*
X108557349Y-121134490D01*
X108493313Y-121151976D01*
X106130866Y-121151976D01*
X106062745Y-121131974D01*
X106037230Y-121110287D01*
X106015824Y-121086513D01*
X106015822Y-121086512D01*
X106011409Y-121081610D01*
X105953455Y-121039504D01*
X105862250Y-120973239D01*
X105862249Y-120973238D01*
X105856908Y-120969358D01*
X105850880Y-120966674D01*
X105850878Y-120966673D01*
X105688475Y-120894367D01*
X105688474Y-120894367D01*
X105682444Y-120891682D01*
X105566104Y-120866953D01*
X105502100Y-120853348D01*
X105502095Y-120853348D01*
X105495643Y-120851976D01*
X105304669Y-120851976D01*
X105298217Y-120853348D01*
X105298212Y-120853348D01*
X105234208Y-120866953D01*
X105117868Y-120891682D01*
X105111838Y-120894367D01*
X105111837Y-120894367D01*
X104949434Y-120966673D01*
X104949432Y-120966674D01*
X104943404Y-120969358D01*
X104938063Y-120973238D01*
X104938062Y-120973239D01*
X104932733Y-120977111D01*
X104788903Y-121081610D01*
X104784482Y-121086520D01*
X104784481Y-121086521D01*
X104710418Y-121168777D01*
X104661116Y-121223532D01*
X104620291Y-121294243D01*
X104574755Y-121373114D01*
X104565629Y-121388920D01*
X104506614Y-121570548D01*
X104505924Y-121577109D01*
X104505924Y-121577111D01*
X104498791Y-121644982D01*
X104486652Y-121760476D01*
X103617973Y-121760476D01*
X103587681Y-121708011D01*
X103539196Y-121624032D01*
X103497100Y-121577279D01*
X103415831Y-121487021D01*
X103415830Y-121487020D01*
X103411409Y-121482110D01*
X103284532Y-121389928D01*
X103262250Y-121373739D01*
X103262249Y-121373738D01*
X103256908Y-121369858D01*
X103250880Y-121367174D01*
X103250878Y-121367173D01*
X103088475Y-121294867D01*
X103088474Y-121294867D01*
X103082444Y-121292182D01*
X102989043Y-121272329D01*
X102902100Y-121253848D01*
X102902095Y-121253848D01*
X102895643Y-121252476D01*
X102704669Y-121252476D01*
X102698217Y-121253848D01*
X102698212Y-121253848D01*
X102611269Y-121272329D01*
X102517868Y-121292182D01*
X102511841Y-121294865D01*
X102511833Y-121294868D01*
X102352355Y-121365872D01*
X102281988Y-121375306D01*
X102249859Y-121365872D01*
X102088977Y-121294243D01*
X102088969Y-121294240D01*
X102082942Y-121291557D01*
X101989541Y-121271704D01*
X101902598Y-121253223D01*
X101902593Y-121253223D01*
X101896141Y-121251851D01*
X101705167Y-121251851D01*
X101698715Y-121253223D01*
X101698710Y-121253223D01*
X101611767Y-121271704D01*
X101518366Y-121291557D01*
X101512336Y-121294242D01*
X101512335Y-121294242D01*
X101349932Y-121366548D01*
X101349930Y-121366549D01*
X101343902Y-121369233D01*
X101189401Y-121481485D01*
X101184980Y-121486395D01*
X101184979Y-121486396D01*
X101076128Y-121607288D01*
X101061614Y-121623407D01*
X100966127Y-121788795D01*
X100907112Y-121970423D01*
X100906422Y-121976984D01*
X100906422Y-121976986D01*
X100896483Y-122071556D01*
X100887150Y-122160351D01*
X100887840Y-122166916D01*
X100898274Y-122266186D01*
X100907112Y-122350279D01*
X100966127Y-122531907D01*
X100969430Y-122537629D01*
X100969431Y-122537630D01*
X100980445Y-122556706D01*
X101061614Y-122697295D01*
X101066032Y-122702202D01*
X101066033Y-122702203D01*
X101112054Y-122753314D01*
X101189401Y-122839217D01*
X101194743Y-122843098D01*
X101194745Y-122843100D01*
X101212410Y-122855934D01*
X101238531Y-122874912D01*
X101281884Y-122931133D01*
X101287960Y-123001869D01*
X101254828Y-123064661D01*
X101193008Y-123099572D01*
X101138273Y-123100094D01*
X101101946Y-123092373D01*
X101101947Y-123092373D01*
X101095487Y-123091000D01*
X100904513Y-123091000D01*
X100898061Y-123092372D01*
X100898056Y-123092372D01*
X100828637Y-123107128D01*
X100717712Y-123130706D01*
X100711682Y-123133391D01*
X100711681Y-123133391D01*
X100549278Y-123205697D01*
X100549276Y-123205698D01*
X100543248Y-123208382D01*
X100537907Y-123212262D01*
X100537906Y-123212263D01*
X100530098Y-123217936D01*
X100456037Y-123242000D01*
X97936572Y-123242000D01*
X97868451Y-123221998D01*
X97821958Y-123168342D01*
X97811262Y-123129170D01*
X97794232Y-122967135D01*
X97794232Y-122967133D01*
X97793542Y-122960572D01*
X97734527Y-122778944D01*
X97729395Y-122770054D01*
X97684330Y-122692000D01*
X97639040Y-122613556D01*
X97593744Y-122563249D01*
X97563028Y-122499244D01*
X97571792Y-122428791D01*
X97603068Y-122385307D01*
X97605910Y-122382748D01*
X97611253Y-122378866D01*
X97689736Y-122291702D01*
X97734621Y-122241852D01*
X97734622Y-122241851D01*
X97739040Y-122236944D01*
X97834527Y-122071556D01*
X97893542Y-121889928D01*
X97907160Y-121760365D01*
X97912814Y-121706565D01*
X97913504Y-121700000D01*
X97912468Y-121690143D01*
X97894232Y-121516635D01*
X97894232Y-121516633D01*
X97893542Y-121510072D01*
X97834527Y-121328444D01*
X97814781Y-121294242D01*
X97742343Y-121168777D01*
X97739040Y-121163056D01*
X97729064Y-121151976D01*
X97718137Y-121139841D01*
X97687420Y-121075833D01*
X97696183Y-121005380D01*
X97718134Y-120971224D01*
X97839040Y-120836944D01*
X97934527Y-120671556D01*
X97993542Y-120489928D01*
X97996364Y-120463083D01*
X98012814Y-120306565D01*
X98013504Y-120300000D01*
X98007751Y-120245259D01*
X97994233Y-120116642D01*
X97994232Y-120116638D01*
X97993542Y-120110072D01*
X97987992Y-120092991D01*
X97985963Y-120022023D01*
X98022624Y-119961224D01*
X98033752Y-119952124D01*
X98055446Y-119936363D01*
X98183233Y-119794441D01*
X98278720Y-119629053D01*
X98337735Y-119447425D01*
X98340340Y-119422645D01*
X98357007Y-119264062D01*
X98357697Y-119257497D01*
X98340552Y-119094367D01*
X98338425Y-119074132D01*
X98338425Y-119074130D01*
X98337735Y-119067569D01*
X98278720Y-118885941D01*
X98183233Y-118720553D01*
X98063986Y-118588115D01*
X98059868Y-118583542D01*
X98059867Y-118583541D01*
X98055446Y-118578631D01*
X98027046Y-118557997D01*
X101486496Y-118557997D01*
X101487186Y-118564562D01*
X101499039Y-118677333D01*
X101506458Y-118747925D01*
X101565473Y-118929553D01*
X101660960Y-119094941D01*
X101750983Y-119194921D01*
X101781698Y-119258926D01*
X101772935Y-119329379D01*
X101750984Y-119363536D01*
X101700096Y-119420053D01*
X101688082Y-119440862D01*
X101617799Y-119562596D01*
X101604609Y-119585441D01*
X101545594Y-119767069D01*
X101544904Y-119773630D01*
X101544904Y-119773632D01*
X101538146Y-119837932D01*
X101525632Y-119956997D01*
X101526322Y-119963562D01*
X101541721Y-120110072D01*
X101545594Y-120146925D01*
X101604609Y-120328553D01*
X101700096Y-120493941D01*
X101704514Y-120498848D01*
X101704515Y-120498849D01*
X101790450Y-120594289D01*
X101827883Y-120635863D01*
X101982384Y-120748115D01*
X101988412Y-120750799D01*
X101988414Y-120750800D01*
X102150817Y-120823106D01*
X102156848Y-120825791D01*
X102250249Y-120845644D01*
X102337192Y-120864125D01*
X102337197Y-120864125D01*
X102343649Y-120865497D01*
X102534623Y-120865497D01*
X102541075Y-120864125D01*
X102541080Y-120864125D01*
X102628023Y-120845644D01*
X102721424Y-120825791D01*
X102727455Y-120823106D01*
X102889858Y-120750800D01*
X102889860Y-120750799D01*
X102895888Y-120748115D01*
X103050389Y-120635863D01*
X103087822Y-120594289D01*
X103173757Y-120498849D01*
X103173758Y-120498848D01*
X103178176Y-120493941D01*
X103273663Y-120328553D01*
X103332678Y-120146925D01*
X103336552Y-120110072D01*
X103351950Y-119963562D01*
X103352640Y-119956997D01*
X103340126Y-119837932D01*
X103333368Y-119773632D01*
X103333368Y-119773630D01*
X103332678Y-119767069D01*
X103273663Y-119585441D01*
X103260474Y-119562596D01*
X103190190Y-119440862D01*
X103178176Y-119420053D01*
X103173756Y-119415145D01*
X103169877Y-119409805D01*
X103171994Y-119408267D01*
X103146338Y-119354792D01*
X103155108Y-119284339D01*
X103200576Y-119229812D01*
X103270693Y-119208500D01*
X103568790Y-119208500D01*
X103636911Y-119228502D01*
X103662426Y-119250189D01*
X103688247Y-119278866D01*
X103695780Y-119284339D01*
X103822374Y-119376315D01*
X103842748Y-119391118D01*
X103848776Y-119393802D01*
X103848778Y-119393803D01*
X104001213Y-119461671D01*
X104017212Y-119468794D01*
X104110613Y-119488647D01*
X104197556Y-119507128D01*
X104197561Y-119507128D01*
X104204013Y-119508500D01*
X104394987Y-119508500D01*
X104401439Y-119507128D01*
X104401444Y-119507128D01*
X104488387Y-119488647D01*
X104581788Y-119468794D01*
X104597787Y-119461671D01*
X104750222Y-119393803D01*
X104750224Y-119393802D01*
X104756252Y-119391118D01*
X104776627Y-119376315D01*
X104822011Y-119343341D01*
X104910753Y-119278866D01*
X104929994Y-119257497D01*
X105034121Y-119141852D01*
X105034122Y-119141851D01*
X105038540Y-119136944D01*
X105096814Y-119036010D01*
X105130723Y-118977279D01*
X105130724Y-118977278D01*
X105134027Y-118971556D01*
X105193042Y-118789928D01*
X105195448Y-118767041D01*
X105212314Y-118606565D01*
X105213004Y-118600000D01*
X105200298Y-118479110D01*
X105193732Y-118416635D01*
X105193732Y-118416633D01*
X105193042Y-118410072D01*
X105134027Y-118228444D01*
X105128358Y-118218624D01*
X105084140Y-118142038D01*
X105038540Y-118063056D01*
X105000721Y-118021053D01*
X104915175Y-117926045D01*
X104915174Y-117926044D01*
X104910753Y-117921134D01*
X104756252Y-117808882D01*
X104750224Y-117806198D01*
X104750222Y-117806197D01*
X104587819Y-117733891D01*
X104587818Y-117733891D01*
X104581788Y-117731206D01*
X104480992Y-117709781D01*
X104401444Y-117692872D01*
X104401439Y-117692872D01*
X104394987Y-117691500D01*
X104204013Y-117691500D01*
X104197561Y-117692872D01*
X104197556Y-117692872D01*
X104118008Y-117709781D01*
X104017212Y-117731206D01*
X104011182Y-117733891D01*
X104011181Y-117733891D01*
X103848778Y-117806197D01*
X103848776Y-117806198D01*
X103842748Y-117808882D01*
X103837407Y-117812762D01*
X103837406Y-117812763D01*
X103730672Y-117890310D01*
X103688247Y-117921134D01*
X103683834Y-117926036D01*
X103683832Y-117926037D01*
X103662426Y-117949811D01*
X103601980Y-117987050D01*
X103568790Y-117991500D01*
X103168528Y-117991500D01*
X103100407Y-117971498D01*
X103074897Y-117949815D01*
X103011253Y-117879131D01*
X102856752Y-117766879D01*
X102850724Y-117764195D01*
X102850722Y-117764194D01*
X102688319Y-117691888D01*
X102688318Y-117691888D01*
X102682288Y-117689203D01*
X102580673Y-117667604D01*
X102501944Y-117650869D01*
X102501939Y-117650869D01*
X102495487Y-117649497D01*
X102304513Y-117649497D01*
X102298061Y-117650869D01*
X102298056Y-117650869D01*
X102219327Y-117667604D01*
X102117712Y-117689203D01*
X102111682Y-117691888D01*
X102111681Y-117691888D01*
X101949278Y-117764194D01*
X101949276Y-117764195D01*
X101943248Y-117766879D01*
X101788747Y-117879131D01*
X101784326Y-117884041D01*
X101784325Y-117884042D01*
X101687570Y-117991500D01*
X101660960Y-118021053D01*
X101565473Y-118186441D01*
X101506458Y-118368069D01*
X101505768Y-118374630D01*
X101505768Y-118374632D01*
X101496125Y-118466379D01*
X101486496Y-118557997D01*
X98027046Y-118557997D01*
X97933412Y-118489968D01*
X97906287Y-118470260D01*
X97906286Y-118470259D01*
X97900945Y-118466379D01*
X97894917Y-118463695D01*
X97894915Y-118463694D01*
X97732512Y-118391388D01*
X97732511Y-118391388D01*
X97726481Y-118388703D01*
X97615076Y-118365023D01*
X97546137Y-118350369D01*
X97546132Y-118350369D01*
X97539680Y-118348997D01*
X97348706Y-118348997D01*
X97342254Y-118350369D01*
X97342249Y-118350369D01*
X97273310Y-118365023D01*
X97161905Y-118388703D01*
X97155875Y-118391388D01*
X97155874Y-118391388D01*
X96993471Y-118463694D01*
X96993469Y-118463695D01*
X96987441Y-118466379D01*
X96982100Y-118470259D01*
X96982099Y-118470260D01*
X96954974Y-118489968D01*
X96832940Y-118578631D01*
X96828519Y-118583541D01*
X96828518Y-118583542D01*
X96824401Y-118588115D01*
X96705153Y-118720553D01*
X96609666Y-118885941D01*
X96607626Y-118892221D01*
X96607625Y-118892222D01*
X96593073Y-118937008D01*
X96562335Y-118987166D01*
X96294906Y-119254595D01*
X96232594Y-119288621D01*
X96205811Y-119291500D01*
X94095996Y-119291500D01*
X94027875Y-119271498D01*
X93981382Y-119217842D01*
X93970169Y-119172095D01*
X93965487Y-119082765D01*
X93965130Y-119075953D01*
X93961092Y-119061291D01*
X93918852Y-118907941D01*
X93917039Y-118901359D01*
X93832578Y-118741164D01*
X93828173Y-118735951D01*
X93828170Y-118735947D01*
X93720094Y-118608057D01*
X93720090Y-118608053D01*
X93715687Y-118602843D01*
X93703382Y-118593435D01*
X93577243Y-118496994D01*
X93577239Y-118496991D01*
X93571822Y-118492850D01*
X93466686Y-118443825D01*
X93413869Y-118419195D01*
X93413866Y-118419194D01*
X93407692Y-118416315D01*
X93401044Y-118414829D01*
X93401041Y-118414828D01*
X93235994Y-118377936D01*
X93235995Y-118377936D01*
X93230957Y-118376810D01*
X93225412Y-118376500D01*
X93092256Y-118376500D01*
X92957463Y-118391143D01*
X92881716Y-118416635D01*
X92792296Y-118446728D01*
X92792294Y-118446729D01*
X92785825Y-118448906D01*
X92630595Y-118542177D01*
X92625638Y-118546865D01*
X92625635Y-118546867D01*
X92539047Y-118628750D01*
X92499015Y-118666607D01*
X92495183Y-118672245D01*
X92495180Y-118672249D01*
X92416230Y-118788420D01*
X92397223Y-118816388D01*
X92329970Y-118984534D01*
X92328856Y-118991262D01*
X92328855Y-118991266D01*
X92304738Y-119136944D01*
X92300392Y-119163198D01*
X92300749Y-119170015D01*
X92300749Y-119170019D01*
X92306197Y-119273963D01*
X92309870Y-119344047D01*
X92311681Y-119350620D01*
X92311681Y-119350623D01*
X92355168Y-119508500D01*
X92357961Y-119518641D01*
X92361143Y-119524677D01*
X92363166Y-119529785D01*
X92369647Y-119600485D01*
X92342114Y-119655552D01*
X92342746Y-119656011D01*
X92339983Y-119659814D01*
X92339649Y-119660481D01*
X92334447Y-119666259D01*
X92238960Y-119831647D01*
X92179945Y-120013275D01*
X92179255Y-120019836D01*
X92179255Y-120019838D01*
X92171140Y-120097051D01*
X92159983Y-120203203D01*
X92179945Y-120393131D01*
X92238960Y-120574759D01*
X92242259Y-120580474D01*
X92244948Y-120586513D01*
X92242181Y-120587745D01*
X92255813Y-120643979D01*
X92239077Y-120700959D01*
X92165473Y-120828444D01*
X92106458Y-121010072D01*
X92105768Y-121016633D01*
X92105768Y-121016635D01*
X92098740Y-121083505D01*
X92086496Y-121200000D01*
X92087186Y-121206565D01*
X92105751Y-121383197D01*
X92106458Y-121389928D01*
X92165473Y-121571556D01*
X92168776Y-121577278D01*
X92168777Y-121577279D01*
X92176988Y-121591500D01*
X92260960Y-121736944D01*
X92265378Y-121741851D01*
X92265379Y-121741852D01*
X92323174Y-121806040D01*
X92388747Y-121878866D01*
X92440389Y-121916386D01*
X92453745Y-121926090D01*
X92497099Y-121982312D01*
X92503174Y-122053049D01*
X92470042Y-122115840D01*
X92430930Y-122143134D01*
X92423734Y-122146337D01*
X92423728Y-122146341D01*
X92417703Y-122149023D01*
X92412362Y-122152903D01*
X92412361Y-122152904D01*
X92362298Y-122189277D01*
X92263202Y-122261275D01*
X92258781Y-122266185D01*
X92258780Y-122266186D01*
X92173082Y-122361364D01*
X92135415Y-122403197D01*
X92114547Y-122439342D01*
X92048188Y-122554279D01*
X92039928Y-122568585D01*
X91980913Y-122750213D01*
X91980223Y-122756774D01*
X91980223Y-122756776D01*
X91967807Y-122874911D01*
X91960951Y-122940141D01*
X91980913Y-123130069D01*
X91982955Y-123136353D01*
X91983039Y-123136749D01*
X91977639Y-123207540D01*
X91934824Y-123264174D01*
X91885990Y-123286196D01*
X91870383Y-123289513D01*
X91841500Y-123295652D01*
X91841497Y-123295653D01*
X91835042Y-123297025D01*
X91829012Y-123299710D01*
X91829011Y-123299710D01*
X91666608Y-123372016D01*
X91666606Y-123372017D01*
X91660578Y-123374701D01*
X91506077Y-123486953D01*
X91378290Y-123628875D01*
X91282803Y-123794263D01*
X91223788Y-123975891D01*
X91223098Y-123982452D01*
X91223098Y-123982454D01*
X91216239Y-124047713D01*
X91203826Y-124165819D01*
X87159110Y-124165819D01*
X87159110Y-116760476D01*
X111686652Y-116760476D01*
X111687342Y-116767041D01*
X111704073Y-116926223D01*
X111706614Y-116950404D01*
X111765629Y-117132032D01*
X111861116Y-117297420D01*
X111865534Y-117302327D01*
X111865535Y-117302328D01*
X111903897Y-117344933D01*
X111988903Y-117439342D01*
X112076351Y-117502877D01*
X112128914Y-117541066D01*
X112143404Y-117551594D01*
X112149432Y-117554278D01*
X112149434Y-117554279D01*
X112311837Y-117626585D01*
X112317868Y-117629270D01*
X112411269Y-117649123D01*
X112498212Y-117667604D01*
X112498217Y-117667604D01*
X112504669Y-117668976D01*
X112695643Y-117668976D01*
X112702095Y-117667604D01*
X112702100Y-117667604D01*
X112789043Y-117649123D01*
X112882444Y-117629270D01*
X112888475Y-117626585D01*
X113050878Y-117554279D01*
X113050880Y-117554278D01*
X113056908Y-117551594D01*
X113071399Y-117541066D01*
X113189827Y-117455022D01*
X113211409Y-117439342D01*
X113237230Y-117410665D01*
X113297676Y-117373426D01*
X113330866Y-117368976D01*
X113368946Y-117368976D01*
X113437067Y-117388978D01*
X113462582Y-117410665D01*
X113488403Y-117439342D01*
X113509985Y-117455022D01*
X113628414Y-117541066D01*
X113642904Y-117551594D01*
X113648932Y-117554278D01*
X113648934Y-117554279D01*
X113811337Y-117626585D01*
X113817368Y-117629270D01*
X113910769Y-117649123D01*
X113997712Y-117667604D01*
X113997717Y-117667604D01*
X114004169Y-117668976D01*
X114195143Y-117668976D01*
X114201595Y-117667604D01*
X114201600Y-117667604D01*
X114288543Y-117649123D01*
X114381944Y-117629270D01*
X114387975Y-117626585D01*
X114550378Y-117554279D01*
X114550380Y-117554278D01*
X114556408Y-117551594D01*
X114570899Y-117541066D01*
X114623461Y-117502877D01*
X114710909Y-117439342D01*
X114795915Y-117344933D01*
X114834277Y-117302328D01*
X114834278Y-117302327D01*
X114838696Y-117297420D01*
X114934183Y-117132032D01*
X114993198Y-116950404D01*
X114995740Y-116926223D01*
X115012470Y-116767041D01*
X115013160Y-116760476D01*
X114993198Y-116570548D01*
X114934183Y-116388920D01*
X114838696Y-116223532D01*
X114787558Y-116166737D01*
X118162652Y-116166737D01*
X118182614Y-116356665D01*
X118241629Y-116538293D01*
X118337116Y-116703681D01*
X118341534Y-116708588D01*
X118341535Y-116708589D01*
X118435292Y-116812717D01*
X118466010Y-116876724D01*
X118467656Y-116897027D01*
X118467656Y-119363612D01*
X118450775Y-119426611D01*
X118427971Y-119466109D01*
X118370864Y-119565022D01*
X118358234Y-119586897D01*
X118299219Y-119768525D01*
X118298529Y-119775086D01*
X118298529Y-119775088D01*
X118288848Y-119867203D01*
X118279257Y-119958453D01*
X118279947Y-119965018D01*
X118295193Y-120110072D01*
X118299219Y-120148381D01*
X118358234Y-120330009D01*
X118453721Y-120495397D01*
X118458139Y-120500304D01*
X118458140Y-120500305D01*
X118569094Y-120623532D01*
X118581508Y-120637319D01*
X118736009Y-120749571D01*
X118742037Y-120752255D01*
X118742039Y-120752256D01*
X118904442Y-120824562D01*
X118910473Y-120827247D01*
X119003874Y-120847100D01*
X119090817Y-120865581D01*
X119090822Y-120865581D01*
X119097274Y-120866953D01*
X119288248Y-120866953D01*
X119294700Y-120865581D01*
X119294705Y-120865581D01*
X119381648Y-120847100D01*
X119475049Y-120827247D01*
X119481080Y-120824562D01*
X119643483Y-120752256D01*
X119643485Y-120752255D01*
X119649513Y-120749571D01*
X119804014Y-120637319D01*
X119816428Y-120623532D01*
X119927382Y-120500305D01*
X119927383Y-120500304D01*
X119931801Y-120495397D01*
X120027288Y-120330009D01*
X120086303Y-120148381D01*
X120092381Y-120090547D01*
X120119394Y-120024891D01*
X120166442Y-119988612D01*
X120219435Y-119965018D01*
X120244677Y-119953780D01*
X120244680Y-119953778D01*
X120250709Y-119951094D01*
X120265646Y-119940242D01*
X120330115Y-119893402D01*
X120405210Y-119838842D01*
X120409632Y-119833931D01*
X120528578Y-119701828D01*
X120528579Y-119701827D01*
X120532997Y-119696920D01*
X120628484Y-119531532D01*
X120687499Y-119349904D01*
X120692500Y-119302328D01*
X120706771Y-119166541D01*
X120707461Y-119159976D01*
X120689022Y-118984534D01*
X120688189Y-118976611D01*
X120688189Y-118976609D01*
X120687499Y-118970048D01*
X120628484Y-118788420D01*
X120612351Y-118760476D01*
X120564348Y-118677333D01*
X120532997Y-118623032D01*
X120528578Y-118618124D01*
X120434821Y-118513996D01*
X120404103Y-118449989D01*
X120402457Y-118429686D01*
X120402457Y-118147171D01*
X126237407Y-118147171D01*
X126237704Y-118152324D01*
X126237704Y-118152327D01*
X126243167Y-118247066D01*
X126250266Y-118370191D01*
X126251403Y-118375237D01*
X126251404Y-118375243D01*
X126268798Y-118452424D01*
X126299378Y-118588115D01*
X126383422Y-118795092D01*
X126434175Y-118877914D01*
X126495629Y-118978197D01*
X126500143Y-118985564D01*
X126646406Y-119154414D01*
X126818282Y-119297108D01*
X126886950Y-119337234D01*
X126892111Y-119340250D01*
X126940835Y-119391888D01*
X126953906Y-119461671D01*
X126927175Y-119527443D01*
X126886718Y-119560803D01*
X126878613Y-119565022D01*
X126869894Y-119570512D01*
X126699589Y-119698381D01*
X126691882Y-119705224D01*
X126544746Y-119859193D01*
X126538260Y-119867203D01*
X126418254Y-120043125D01*
X126413156Y-120052099D01*
X126323494Y-120245259D01*
X126319931Y-120254946D01*
X126264545Y-120454659D01*
X126266068Y-120463083D01*
X126278448Y-120466476D01*
X128918500Y-120466476D01*
X128932031Y-120462503D01*
X128933336Y-120453423D01*
X128891370Y-120286351D01*
X128888050Y-120276600D01*
X128803128Y-120081290D01*
X128798261Y-120072215D01*
X128682582Y-119893402D01*
X128676292Y-119885233D01*
X128532962Y-119727716D01*
X128525429Y-119720691D01*
X128358295Y-119588698D01*
X128349712Y-119582996D01*
X128312758Y-119562596D01*
X128262787Y-119512163D01*
X128248015Y-119442721D01*
X128273131Y-119376315D01*
X128300483Y-119349708D01*
X128344182Y-119318538D01*
X128480016Y-119221649D01*
X128483837Y-119217842D01*
X128602247Y-119099844D01*
X128638252Y-119063965D01*
X128697750Y-118981165D01*
X128765591Y-118886753D01*
X128768609Y-118882553D01*
X128817631Y-118783365D01*
X128865292Y-118686929D01*
X128865293Y-118686927D01*
X128867586Y-118682287D01*
X128926017Y-118489968D01*
X128931021Y-118473499D01*
X128931021Y-118473497D01*
X128932526Y-118468545D01*
X128961685Y-118247066D01*
X128961767Y-118243716D01*
X128963230Y-118183841D01*
X128963230Y-118183837D01*
X128963312Y-118180476D01*
X128945008Y-117957837D01*
X128890587Y-117741178D01*
X128801510Y-117536316D01*
X128680170Y-117348753D01*
X128529826Y-117183527D01*
X128525775Y-117180328D01*
X128525771Y-117180324D01*
X128358570Y-117048276D01*
X128358566Y-117048274D01*
X128354515Y-117045074D01*
X128158945Y-116937114D01*
X128154076Y-116935390D01*
X128154072Y-116935388D01*
X127953243Y-116864271D01*
X127953239Y-116864270D01*
X127948368Y-116862545D01*
X127943275Y-116861638D01*
X127943272Y-116861637D01*
X127733529Y-116824276D01*
X127733523Y-116824275D01*
X127728440Y-116823370D01*
X127654608Y-116822468D01*
X127510237Y-116820704D01*
X127510235Y-116820704D01*
X127505067Y-116820641D01*
X127284247Y-116854431D01*
X127071912Y-116923833D01*
X126873763Y-117026983D01*
X126869630Y-117030086D01*
X126869627Y-117030088D01*
X126699256Y-117158006D01*
X126695121Y-117161111D01*
X126540785Y-117322614D01*
X126537871Y-117326886D01*
X126537870Y-117326887D01*
X126480721Y-117410665D01*
X126414899Y-117507156D01*
X126367871Y-117608469D01*
X126326582Y-117697420D01*
X126320844Y-117709781D01*
X126261145Y-117925046D01*
X126237407Y-118147171D01*
X120402457Y-118147171D01*
X120402457Y-117870440D01*
X120422459Y-117802319D01*
X120434815Y-117786137D01*
X120514696Y-117697420D01*
X120610183Y-117532032D01*
X120669198Y-117350404D01*
X120689160Y-117160476D01*
X120685510Y-117125747D01*
X120669888Y-116977111D01*
X120669888Y-116977109D01*
X120669198Y-116970548D01*
X120610183Y-116788920D01*
X120514696Y-116623532D01*
X120472899Y-116577111D01*
X120391331Y-116486521D01*
X120391330Y-116486520D01*
X120386909Y-116481610D01*
X120232408Y-116369358D01*
X120226380Y-116366674D01*
X120226378Y-116366673D01*
X120063721Y-116294254D01*
X120009625Y-116248274D01*
X119988970Y-116179147D01*
X119988970Y-116173302D01*
X119989660Y-116166737D01*
X119969698Y-115976809D01*
X119910683Y-115795181D01*
X119815196Y-115629793D01*
X119687409Y-115487871D01*
X119532908Y-115375619D01*
X119526880Y-115372935D01*
X119526878Y-115372934D01*
X119364475Y-115300628D01*
X119364474Y-115300628D01*
X119358444Y-115297943D01*
X119265044Y-115278090D01*
X119178100Y-115259609D01*
X119178095Y-115259609D01*
X119171643Y-115258237D01*
X118980669Y-115258237D01*
X118974217Y-115259609D01*
X118974212Y-115259609D01*
X118887268Y-115278090D01*
X118793868Y-115297943D01*
X118787838Y-115300628D01*
X118787837Y-115300628D01*
X118625434Y-115372934D01*
X118625432Y-115372935D01*
X118619404Y-115375619D01*
X118464903Y-115487871D01*
X118337116Y-115629793D01*
X118241629Y-115795181D01*
X118182614Y-115976809D01*
X118162652Y-116166737D01*
X114787558Y-116166737D01*
X114781647Y-116160172D01*
X114715331Y-116086521D01*
X114715330Y-116086520D01*
X114710909Y-116081610D01*
X114575697Y-115983372D01*
X114561750Y-115973239D01*
X114561749Y-115973238D01*
X114556408Y-115969358D01*
X114550380Y-115966674D01*
X114550378Y-115966673D01*
X114387975Y-115894367D01*
X114387974Y-115894367D01*
X114381944Y-115891682D01*
X114288543Y-115871829D01*
X114201600Y-115853348D01*
X114201595Y-115853348D01*
X114195143Y-115851976D01*
X114004169Y-115851976D01*
X113997717Y-115853348D01*
X113997712Y-115853348D01*
X113910769Y-115871829D01*
X113817368Y-115891682D01*
X113811338Y-115894367D01*
X113811337Y-115894367D01*
X113648934Y-115966673D01*
X113648932Y-115966674D01*
X113642904Y-115969358D01*
X113637563Y-115973238D01*
X113637562Y-115973239D01*
X113623615Y-115983372D01*
X113488403Y-116081610D01*
X113483990Y-116086512D01*
X113483988Y-116086513D01*
X113462582Y-116110287D01*
X113402136Y-116147526D01*
X113368946Y-116151976D01*
X113330866Y-116151976D01*
X113262745Y-116131974D01*
X113237230Y-116110287D01*
X113215824Y-116086513D01*
X113215822Y-116086512D01*
X113211409Y-116081610D01*
X113076197Y-115983372D01*
X113062250Y-115973239D01*
X113062249Y-115973238D01*
X113056908Y-115969358D01*
X113050880Y-115966674D01*
X113050878Y-115966673D01*
X112888475Y-115894367D01*
X112888474Y-115894367D01*
X112882444Y-115891682D01*
X112789043Y-115871829D01*
X112702100Y-115853348D01*
X112702095Y-115853348D01*
X112695643Y-115851976D01*
X112504669Y-115851976D01*
X112498217Y-115853348D01*
X112498212Y-115853348D01*
X112411269Y-115871829D01*
X112317868Y-115891682D01*
X112311838Y-115894367D01*
X112311837Y-115894367D01*
X112149434Y-115966673D01*
X112149432Y-115966674D01*
X112143404Y-115969358D01*
X112138063Y-115973238D01*
X112138062Y-115973239D01*
X112124115Y-115983372D01*
X111988903Y-116081610D01*
X111984482Y-116086520D01*
X111984481Y-116086521D01*
X111918166Y-116160172D01*
X111861116Y-116223532D01*
X111765629Y-116388920D01*
X111706614Y-116570548D01*
X111686652Y-116760476D01*
X87159110Y-116760476D01*
X87159110Y-112742277D01*
X87737009Y-112742277D01*
X87762625Y-113010769D01*
X87763710Y-113015203D01*
X87763711Y-113015209D01*
X87818095Y-113237457D01*
X87826731Y-113272750D01*
X87927985Y-113522733D01*
X88064265Y-113755482D01*
X88067118Y-113759049D01*
X88210433Y-113938255D01*
X88232716Y-113966119D01*
X88429809Y-114150234D01*
X88651416Y-114303968D01*
X88655499Y-114305999D01*
X88655502Y-114306001D01*
X88753551Y-114354779D01*
X88892894Y-114424101D01*
X88897228Y-114425522D01*
X88897231Y-114425523D01*
X89144853Y-114506698D01*
X89144859Y-114506699D01*
X89149186Y-114508118D01*
X89153677Y-114508898D01*
X89153678Y-114508898D01*
X89411140Y-114553601D01*
X89411148Y-114553602D01*
X89414921Y-114554257D01*
X89418758Y-114554448D01*
X89498578Y-114558422D01*
X89498586Y-114558422D01*
X89500149Y-114558500D01*
X89668512Y-114558500D01*
X89670780Y-114558335D01*
X89670792Y-114558335D01*
X89801884Y-114548823D01*
X89869004Y-114543953D01*
X89873459Y-114542969D01*
X89873462Y-114542969D01*
X90127912Y-114486791D01*
X90127916Y-114486790D01*
X90132372Y-114485806D01*
X90290887Y-114425750D01*
X90380318Y-114391868D01*
X90380321Y-114391867D01*
X90384588Y-114390250D01*
X90620368Y-114259286D01*
X90769645Y-114145361D01*
X90831141Y-114098429D01*
X90831142Y-114098428D01*
X90834773Y-114095657D01*
X90873411Y-114056133D01*
X91020117Y-113906060D01*
X91023312Y-113902792D01*
X91182034Y-113684730D01*
X91247144Y-113560976D01*
X106241422Y-113560976D01*
X106242112Y-113567541D01*
X106257803Y-113716829D01*
X106261384Y-113750904D01*
X106320399Y-113932532D01*
X106323702Y-113938254D01*
X106323703Y-113938255D01*
X106341592Y-113969240D01*
X106415886Y-114097920D01*
X106420304Y-114102827D01*
X106420305Y-114102828D01*
X106525593Y-114219762D01*
X106543673Y-114239842D01*
X106577535Y-114264444D01*
X106682847Y-114340958D01*
X106698174Y-114352094D01*
X106704202Y-114354778D01*
X106704204Y-114354779D01*
X106856343Y-114422515D01*
X106872638Y-114429770D01*
X106879099Y-114431143D01*
X106879104Y-114431145D01*
X107019297Y-114460945D01*
X107081771Y-114494673D01*
X107112933Y-114545254D01*
X107141129Y-114632032D01*
X107236616Y-114797420D01*
X107241034Y-114802327D01*
X107241035Y-114802328D01*
X107355334Y-114929270D01*
X107364403Y-114939342D01*
X107518904Y-115051594D01*
X107524932Y-115054278D01*
X107524934Y-115054279D01*
X107687337Y-115126585D01*
X107693368Y-115129270D01*
X107786769Y-115149123D01*
X107873712Y-115167604D01*
X107873717Y-115167604D01*
X107880169Y-115168976D01*
X108071143Y-115168976D01*
X108077595Y-115167604D01*
X108077600Y-115167604D01*
X108164543Y-115149123D01*
X108257944Y-115129270D01*
X108263975Y-115126585D01*
X108426378Y-115054279D01*
X108426380Y-115054278D01*
X108432408Y-115051594D01*
X108546122Y-114968976D01*
X108565327Y-114955022D01*
X108586909Y-114939342D01*
X108594270Y-114931166D01*
X108654717Y-114893928D01*
X108725701Y-114895280D01*
X108781542Y-114931166D01*
X108788903Y-114939342D01*
X108810485Y-114955022D01*
X108829691Y-114968976D01*
X108943404Y-115051594D01*
X108949432Y-115054278D01*
X108949434Y-115054279D01*
X109111837Y-115126585D01*
X109117868Y-115129270D01*
X109211269Y-115149123D01*
X109298212Y-115167604D01*
X109298217Y-115167604D01*
X109304669Y-115168976D01*
X109495643Y-115168976D01*
X109502095Y-115167604D01*
X109502100Y-115167604D01*
X109589043Y-115149123D01*
X109682444Y-115129270D01*
X109688475Y-115126585D01*
X109850878Y-115054279D01*
X109850880Y-115054278D01*
X109856908Y-115051594D01*
X110011409Y-114939342D01*
X110020478Y-114929270D01*
X110134777Y-114802328D01*
X110134778Y-114802327D01*
X110139196Y-114797420D01*
X110234683Y-114632032D01*
X110273867Y-114511437D01*
X110313941Y-114452832D01*
X110367501Y-114427128D01*
X110382736Y-114423889D01*
X110382738Y-114423888D01*
X110389199Y-114422515D01*
X110461668Y-114390250D01*
X110557633Y-114347524D01*
X110557635Y-114347523D01*
X110563663Y-114344839D01*
X110624823Y-114300403D01*
X110691692Y-114276544D01*
X110760843Y-114292625D01*
X110772946Y-114300403D01*
X110834107Y-114344839D01*
X110843404Y-114351594D01*
X110849432Y-114354278D01*
X110849434Y-114354279D01*
X111002696Y-114422515D01*
X111017868Y-114429270D01*
X111090291Y-114444664D01*
X111198212Y-114467604D01*
X111198217Y-114467604D01*
X111204669Y-114468976D01*
X111321105Y-114468976D01*
X111389226Y-114488978D01*
X111435719Y-114542634D01*
X111440935Y-114556033D01*
X111465629Y-114632032D01*
X111561116Y-114797420D01*
X111565534Y-114802327D01*
X111565535Y-114802328D01*
X111679834Y-114929270D01*
X111688903Y-114939342D01*
X111843404Y-115051594D01*
X111849432Y-115054278D01*
X111849434Y-115054279D01*
X112011837Y-115126585D01*
X112017868Y-115129270D01*
X112111269Y-115149123D01*
X112198212Y-115167604D01*
X112198217Y-115167604D01*
X112204669Y-115168976D01*
X112395643Y-115168976D01*
X112402095Y-115167604D01*
X112402100Y-115167604D01*
X112489043Y-115149123D01*
X112582444Y-115129270D01*
X112588475Y-115126585D01*
X112750878Y-115054279D01*
X112750880Y-115054278D01*
X112756908Y-115051594D01*
X112870622Y-114968976D01*
X112889827Y-114955022D01*
X112911409Y-114939342D01*
X112922896Y-114926585D01*
X112937230Y-114910665D01*
X112997676Y-114873426D01*
X113030866Y-114868976D01*
X113655162Y-114868976D01*
X113706411Y-114879869D01*
X113817368Y-114929270D01*
X113883021Y-114943225D01*
X113997712Y-114967604D01*
X113997717Y-114967604D01*
X114004169Y-114968976D01*
X114195143Y-114968976D01*
X114201595Y-114967604D01*
X114201600Y-114967604D01*
X114316291Y-114943225D01*
X114381944Y-114929270D01*
X114423732Y-114910665D01*
X114550378Y-114854279D01*
X114550380Y-114854278D01*
X114556408Y-114851594D01*
X114710909Y-114739342D01*
X114813188Y-114625750D01*
X114834277Y-114602328D01*
X114834278Y-114602327D01*
X114838696Y-114597420D01*
X114913074Y-114468594D01*
X114930879Y-114437755D01*
X114930880Y-114437754D01*
X114934183Y-114432032D01*
X114974283Y-114308618D01*
X115014357Y-114250013D01*
X115067917Y-114224309D01*
X115080066Y-114221726D01*
X115080068Y-114221725D01*
X115086529Y-114220352D01*
X115092560Y-114217667D01*
X115254963Y-114145361D01*
X115254965Y-114145360D01*
X115260993Y-114142676D01*
X115415494Y-114030424D01*
X115470584Y-113969240D01*
X115538862Y-113893410D01*
X115538863Y-113893409D01*
X115543281Y-113888502D01*
X115622358Y-113751537D01*
X115635464Y-113728837D01*
X115635465Y-113728836D01*
X115638768Y-113723114D01*
X115697783Y-113541486D01*
X115717745Y-113351558D01*
X115701399Y-113196033D01*
X115698473Y-113168193D01*
X115698473Y-113168191D01*
X115697783Y-113161630D01*
X115638768Y-112980002D01*
X115543281Y-112814614D01*
X115502533Y-112769358D01*
X115442561Y-112702753D01*
X134937165Y-112702753D01*
X134962781Y-112971245D01*
X134963866Y-112975679D01*
X134963867Y-112975685D01*
X135014767Y-113183697D01*
X135026887Y-113233226D01*
X135128141Y-113483209D01*
X135264421Y-113715958D01*
X135296029Y-113755482D01*
X135384842Y-113866536D01*
X135432872Y-113926595D01*
X135629965Y-114110710D01*
X135851572Y-114264444D01*
X135855655Y-114266475D01*
X135855658Y-114266477D01*
X135931019Y-114303968D01*
X136093050Y-114384577D01*
X136097384Y-114385998D01*
X136097387Y-114385999D01*
X136345009Y-114467174D01*
X136345015Y-114467175D01*
X136349342Y-114468594D01*
X136353833Y-114469374D01*
X136353834Y-114469374D01*
X136611296Y-114514077D01*
X136611304Y-114514078D01*
X136615077Y-114514733D01*
X136618914Y-114514924D01*
X136698734Y-114518898D01*
X136698742Y-114518898D01*
X136700305Y-114518976D01*
X136868668Y-114518976D01*
X136870936Y-114518811D01*
X136870948Y-114518811D01*
X137002040Y-114509299D01*
X137069160Y-114504429D01*
X137073615Y-114503445D01*
X137073618Y-114503445D01*
X137328068Y-114447267D01*
X137328072Y-114447266D01*
X137332528Y-114446282D01*
X137458636Y-114398504D01*
X137580474Y-114352344D01*
X137580477Y-114352343D01*
X137584744Y-114350726D01*
X137820524Y-114219762D01*
X138034929Y-114056133D01*
X138056266Y-114034307D01*
X138181636Y-113906060D01*
X138223468Y-113863268D01*
X138382190Y-113645206D01*
X138440213Y-113534923D01*
X138505646Y-113410555D01*
X138505649Y-113410549D01*
X138507771Y-113406515D01*
X138527179Y-113351558D01*
X138596058Y-113156509D01*
X138596058Y-113156508D01*
X138597581Y-113152196D01*
X138634143Y-112966693D01*
X138648856Y-112892048D01*
X138648857Y-112892042D01*
X138649737Y-112887576D01*
X138650126Y-112879758D01*
X138662920Y-112622768D01*
X138662920Y-112622762D01*
X138663147Y-112618199D01*
X138637531Y-112349707D01*
X138632815Y-112330432D01*
X138574511Y-112092164D01*
X138573425Y-112087726D01*
X138472171Y-111837743D01*
X138335891Y-111604994D01*
X138218084Y-111457684D01*
X138170292Y-111397923D01*
X138170291Y-111397921D01*
X138167440Y-111394357D01*
X137970347Y-111210242D01*
X137748740Y-111056508D01*
X137744657Y-111054477D01*
X137744654Y-111054475D01*
X137579762Y-110972443D01*
X137507262Y-110936375D01*
X137502928Y-110934954D01*
X137502925Y-110934953D01*
X137255303Y-110853778D01*
X137255297Y-110853777D01*
X137250970Y-110852358D01*
X137246478Y-110851578D01*
X136989016Y-110806875D01*
X136989008Y-110806874D01*
X136985235Y-110806219D01*
X136973973Y-110805658D01*
X136901578Y-110802054D01*
X136901570Y-110802054D01*
X136900007Y-110801976D01*
X136731644Y-110801976D01*
X136729376Y-110802141D01*
X136729364Y-110802141D01*
X136598272Y-110811653D01*
X136531152Y-110816523D01*
X136526697Y-110817507D01*
X136526694Y-110817507D01*
X136272244Y-110873685D01*
X136272240Y-110873686D01*
X136267784Y-110874670D01*
X136141676Y-110922448D01*
X136019838Y-110968608D01*
X136019835Y-110968609D01*
X136015568Y-110970226D01*
X135779788Y-111101190D01*
X135776156Y-111103962D01*
X135572915Y-111259071D01*
X135565383Y-111264819D01*
X135562190Y-111268085D01*
X135562188Y-111268087D01*
X135523551Y-111307611D01*
X135376844Y-111457684D01*
X135218122Y-111675746D01*
X135181723Y-111744930D01*
X135094666Y-111910397D01*
X135094663Y-111910403D01*
X135092541Y-111914437D01*
X135091021Y-111918742D01*
X135091019Y-111918746D01*
X135017388Y-112127250D01*
X135002731Y-112168756D01*
X134980706Y-112280502D01*
X134958379Y-112393783D01*
X134950575Y-112433376D01*
X134950348Y-112437929D01*
X134950348Y-112437932D01*
X134937558Y-112694867D01*
X134937165Y-112702753D01*
X115442561Y-112702753D01*
X115419916Y-112677603D01*
X115419915Y-112677602D01*
X115415494Y-112672692D01*
X115334325Y-112613719D01*
X115314661Y-112599432D01*
X115271307Y-112543209D01*
X115263412Y-112484327D01*
X115265280Y-112466552D01*
X115265280Y-112466549D01*
X115265970Y-112459984D01*
X115249601Y-112304240D01*
X115246698Y-112276619D01*
X115246698Y-112276617D01*
X115246008Y-112270056D01*
X115186993Y-112088428D01*
X115091506Y-111923040D01*
X115072056Y-111901438D01*
X114968141Y-111786029D01*
X114968140Y-111786028D01*
X114963719Y-111781118D01*
X114824240Y-111679780D01*
X114814560Y-111672747D01*
X114814559Y-111672746D01*
X114809218Y-111668866D01*
X114803190Y-111666182D01*
X114803188Y-111666181D01*
X114640785Y-111593875D01*
X114640784Y-111593875D01*
X114634754Y-111591190D01*
X114541354Y-111571337D01*
X114454410Y-111552856D01*
X114454405Y-111552856D01*
X114447953Y-111551484D01*
X114256979Y-111551484D01*
X114250527Y-111552856D01*
X114250522Y-111552856D01*
X114163578Y-111571337D01*
X114070178Y-111591190D01*
X114064148Y-111593875D01*
X114064147Y-111593875D01*
X113901744Y-111666181D01*
X113901742Y-111666182D01*
X113895714Y-111668866D01*
X113890373Y-111672746D01*
X113890372Y-111672747D01*
X113880692Y-111679780D01*
X113741213Y-111781118D01*
X113736792Y-111786028D01*
X113736791Y-111786029D01*
X113632877Y-111901438D01*
X113613426Y-111923040D01*
X113610125Y-111928758D01*
X113580218Y-111980558D01*
X113528836Y-112029551D01*
X113471099Y-112043558D01*
X113431366Y-112043558D01*
X113363245Y-112023556D01*
X113337730Y-112001869D01*
X113316324Y-111978095D01*
X113316322Y-111978094D01*
X113311909Y-111973192D01*
X113231040Y-111914437D01*
X113162750Y-111864821D01*
X113162749Y-111864820D01*
X113157408Y-111860940D01*
X113151380Y-111858256D01*
X113151378Y-111858255D01*
X112988975Y-111785949D01*
X112988974Y-111785949D01*
X112982944Y-111783264D01*
X112887808Y-111763042D01*
X112802600Y-111744930D01*
X112802595Y-111744930D01*
X112796143Y-111743558D01*
X112605169Y-111743558D01*
X112598717Y-111744930D01*
X112598712Y-111744930D01*
X112513504Y-111763042D01*
X112418368Y-111783264D01*
X112412338Y-111785949D01*
X112412337Y-111785949D01*
X112249934Y-111858255D01*
X112249932Y-111858256D01*
X112243904Y-111860940D01*
X112089403Y-111973192D01*
X112084982Y-111978102D01*
X112084981Y-111978103D01*
X112040344Y-112027678D01*
X111961616Y-112115114D01*
X111952047Y-112131688D01*
X111875785Y-112263778D01*
X111866129Y-112280502D01*
X111807114Y-112462130D01*
X111806425Y-112468689D01*
X111806424Y-112468692D01*
X111792150Y-112604504D01*
X111765137Y-112670160D01*
X111706915Y-112710790D01*
X111635970Y-112713493D01*
X111615591Y-112706440D01*
X111588475Y-112694367D01*
X111588474Y-112694367D01*
X111582444Y-112691682D01*
X111474836Y-112668809D01*
X111402100Y-112653348D01*
X111402095Y-112653348D01*
X111395643Y-112651976D01*
X111204669Y-112651976D01*
X111198217Y-112653348D01*
X111198212Y-112653348D01*
X111125476Y-112668809D01*
X111017868Y-112691682D01*
X111011838Y-112694367D01*
X111011837Y-112694367D01*
X110849434Y-112766673D01*
X110849432Y-112766674D01*
X110843404Y-112769358D01*
X110838063Y-112773238D01*
X110838062Y-112773239D01*
X110782243Y-112813794D01*
X110715375Y-112837653D01*
X110646224Y-112821572D01*
X110634121Y-112813794D01*
X110569005Y-112766484D01*
X110569004Y-112766483D01*
X110563663Y-112762603D01*
X110557635Y-112759919D01*
X110557633Y-112759918D01*
X110395230Y-112687612D01*
X110395229Y-112687612D01*
X110389199Y-112684927D01*
X110295798Y-112665074D01*
X110208855Y-112646593D01*
X110208850Y-112646593D01*
X110202398Y-112645221D01*
X110011424Y-112645221D01*
X110004972Y-112646593D01*
X110004967Y-112646593D01*
X109918024Y-112665074D01*
X109824623Y-112684927D01*
X109818593Y-112687612D01*
X109818592Y-112687612D01*
X109656189Y-112759918D01*
X109656187Y-112759919D01*
X109650159Y-112762603D01*
X109644818Y-112766483D01*
X109644817Y-112766484D01*
X109579701Y-112813794D01*
X109495658Y-112874855D01*
X109491245Y-112879757D01*
X109491243Y-112879758D01*
X109469837Y-112903532D01*
X109409391Y-112940771D01*
X109376201Y-112945221D01*
X107879103Y-112945221D01*
X107810982Y-112925219D01*
X107785466Y-112903530D01*
X107770603Y-112887022D01*
X107770596Y-112887016D01*
X107766179Y-112882110D01*
X107756194Y-112874855D01*
X107617020Y-112773739D01*
X107617019Y-112773738D01*
X107611678Y-112769858D01*
X107605650Y-112767174D01*
X107605648Y-112767173D01*
X107443245Y-112694867D01*
X107443244Y-112694867D01*
X107437214Y-112692182D01*
X107333609Y-112670160D01*
X107256870Y-112653848D01*
X107256865Y-112653848D01*
X107250413Y-112652476D01*
X107059439Y-112652476D01*
X107052987Y-112653848D01*
X107052982Y-112653848D01*
X106976243Y-112670160D01*
X106872638Y-112692182D01*
X106866608Y-112694867D01*
X106866607Y-112694867D01*
X106704204Y-112767173D01*
X106704202Y-112767174D01*
X106698174Y-112769858D01*
X106543673Y-112882110D01*
X106539252Y-112887020D01*
X106539251Y-112887021D01*
X106463416Y-112971245D01*
X106415886Y-113024032D01*
X106412585Y-113029750D01*
X106336444Y-113161630D01*
X106320399Y-113189420D01*
X106261384Y-113371048D01*
X106260694Y-113377609D01*
X106260694Y-113377611D01*
X106249181Y-113487152D01*
X106241422Y-113560976D01*
X91247144Y-113560976D01*
X91265190Y-113526676D01*
X91305490Y-113450079D01*
X91305493Y-113450073D01*
X91307615Y-113446039D01*
X91321573Y-113406515D01*
X91395902Y-113196033D01*
X91395902Y-113196032D01*
X91397425Y-113191720D01*
X91433987Y-113006217D01*
X91448700Y-112931572D01*
X91448701Y-112931566D01*
X91449581Y-112927100D01*
X91450754Y-112903532D01*
X91462764Y-112662292D01*
X91462764Y-112662286D01*
X91462991Y-112657723D01*
X91437375Y-112389231D01*
X91428818Y-112354259D01*
X91374355Y-112131688D01*
X91373269Y-112127250D01*
X91272015Y-111877267D01*
X91135735Y-111644518D01*
X91016617Y-111495569D01*
X90970136Y-111437447D01*
X90970135Y-111437445D01*
X90967284Y-111433881D01*
X90770191Y-111249766D01*
X90548584Y-111096032D01*
X90544501Y-111094001D01*
X90544498Y-111093999D01*
X90418296Y-111031215D01*
X90307106Y-110975899D01*
X90302772Y-110974478D01*
X90302769Y-110974477D01*
X90055147Y-110893302D01*
X90055141Y-110893301D01*
X90050814Y-110891882D01*
X90046322Y-110891102D01*
X89788860Y-110846399D01*
X89788852Y-110846398D01*
X89785079Y-110845743D01*
X89773817Y-110845182D01*
X89701422Y-110841578D01*
X89701414Y-110841578D01*
X89699851Y-110841500D01*
X89531488Y-110841500D01*
X89529220Y-110841665D01*
X89529208Y-110841665D01*
X89398116Y-110851177D01*
X89330996Y-110856047D01*
X89326541Y-110857031D01*
X89326538Y-110857031D01*
X89072088Y-110913209D01*
X89072084Y-110913210D01*
X89067628Y-110914194D01*
X89003714Y-110938409D01*
X88819682Y-111008132D01*
X88819679Y-111008133D01*
X88815412Y-111009750D01*
X88579632Y-111140714D01*
X88365227Y-111304343D01*
X88176688Y-111497208D01*
X88017966Y-111715270D01*
X87985365Y-111777235D01*
X87894510Y-111949921D01*
X87894507Y-111949927D01*
X87892385Y-111953961D01*
X87890865Y-111958266D01*
X87890863Y-111958270D01*
X87816532Y-112168756D01*
X87802575Y-112208280D01*
X87783662Y-112304240D01*
X87752542Y-112462130D01*
X87750419Y-112472900D01*
X87750192Y-112477453D01*
X87750192Y-112477456D01*
X87738442Y-112713493D01*
X87737009Y-112742277D01*
X87159110Y-112742277D01*
X87159110Y-112653250D01*
X87160856Y-112632345D01*
X87163380Y-112617344D01*
X87163380Y-112617341D01*
X87164186Y-112612552D01*
X87164339Y-112600000D01*
X87163650Y-112595186D01*
X87163649Y-112595177D01*
X87162479Y-112587006D01*
X87161437Y-112561540D01*
X87176087Y-112319344D01*
X87177921Y-112304240D01*
X87227229Y-112035176D01*
X87230870Y-112020403D01*
X87244054Y-111978095D01*
X87312254Y-111759233D01*
X87317648Y-111745011D01*
X87317685Y-111744930D01*
X87429914Y-111495567D01*
X87436984Y-111482096D01*
X87542464Y-111307611D01*
X87578501Y-111247999D01*
X87587143Y-111235478D01*
X87608955Y-111207638D01*
X87755851Y-111020140D01*
X87765941Y-111008752D01*
X87959362Y-110815331D01*
X87970751Y-110805241D01*
X87974919Y-110801976D01*
X88186079Y-110636543D01*
X88198600Y-110627900D01*
X88420915Y-110493506D01*
X88432699Y-110486382D01*
X88446172Y-110479311D01*
X88695627Y-110367042D01*
X88709850Y-110361648D01*
X88971010Y-110280268D01*
X88985784Y-110276627D01*
X89254848Y-110227320D01*
X89269953Y-110225486D01*
X89508557Y-110211054D01*
X89535187Y-110212306D01*
X89535459Y-110212309D01*
X89544332Y-110213691D01*
X89553234Y-110212527D01*
X89553238Y-110212527D01*
X89575817Y-110209574D01*
X89592183Y-110208510D01*
X136900143Y-110219578D01*
G37*
%TD.AperFunction*%
%TD*%
M02*
