%TF.GenerationSoftware,KiCad,Pcbnew,(6.0.7)*%
%TF.CreationDate,2023-03-22T16:10:42+01:00*%
%TF.ProjectId,PicoLink,5069636f-4c69-46e6-9b2e-6b696361645f,rev?*%
%TF.SameCoordinates,Original*%
%TF.FileFunction,Legend,Bot*%
%TF.FilePolarity,Positive*%
%FSLAX46Y46*%
G04 Gerber Fmt 4.6, Leading zero omitted, Abs format (unit mm)*
G04 Created by KiCad (PCBNEW (6.0.7)) date 2023-03-22 16:10:42*
%MOMM*%
%LPD*%
G01*
G04 APERTURE LIST*
%ADD10C,0.120000*%
%ADD11C,0.010000*%
G04 APERTURE END LIST*
D10*
X99626095Y-125447619D02*
X100426095Y-125447619D01*
X100426095Y-125142857D01*
X100388000Y-125066666D01*
X100349904Y-125028571D01*
X100273714Y-124990476D01*
X100159428Y-124990476D01*
X100083238Y-125028571D01*
X100045142Y-125066666D01*
X100007047Y-125142857D01*
X100007047Y-125447619D01*
X99626095Y-124647619D02*
X100159428Y-124647619D01*
X100426095Y-124647619D02*
X100388000Y-124685714D01*
X100349904Y-124647619D01*
X100388000Y-124609523D01*
X100426095Y-124647619D01*
X100349904Y-124647619D01*
X99664190Y-123923809D02*
X99626095Y-124000000D01*
X99626095Y-124152380D01*
X99664190Y-124228571D01*
X99702285Y-124266666D01*
X99778476Y-124304761D01*
X100007047Y-124304761D01*
X100083238Y-124266666D01*
X100121333Y-124228571D01*
X100159428Y-124152380D01*
X100159428Y-124000000D01*
X100121333Y-123923809D01*
X99626095Y-123466666D02*
X99664190Y-123542857D01*
X99702285Y-123580952D01*
X99778476Y-123619047D01*
X100007047Y-123619047D01*
X100083238Y-123580952D01*
X100121333Y-123542857D01*
X100159428Y-123466666D01*
X100159428Y-123352380D01*
X100121333Y-123276190D01*
X100083238Y-123238095D01*
X100007047Y-123200000D01*
X99778476Y-123200000D01*
X99702285Y-123238095D01*
X99664190Y-123276190D01*
X99626095Y-123352380D01*
X99626095Y-123466666D01*
X99626095Y-122857142D02*
X100426095Y-122857142D01*
X100426095Y-122666666D01*
X100388000Y-122552380D01*
X100311809Y-122476190D01*
X100235619Y-122438095D01*
X100083238Y-122400000D01*
X99968952Y-122400000D01*
X99816571Y-122438095D01*
X99740380Y-122476190D01*
X99664190Y-122552380D01*
X99626095Y-122666666D01*
X99626095Y-122857142D01*
X99854666Y-122095238D02*
X99854666Y-121714285D01*
X99626095Y-122171428D02*
X100426095Y-121904761D01*
X99626095Y-121638095D01*
X99626095Y-121371428D02*
X100426095Y-121371428D01*
X100426095Y-121066666D01*
X100388000Y-120990476D01*
X100349904Y-120952380D01*
X100273714Y-120914285D01*
X100159428Y-120914285D01*
X100083238Y-120952380D01*
X100045142Y-120990476D01*
X100007047Y-121066666D01*
X100007047Y-121371428D01*
X100426095Y-120076190D02*
X99626095Y-119809523D01*
X100426095Y-119542857D01*
X100426095Y-119123809D02*
X100426095Y-119047619D01*
X100388000Y-118971428D01*
X100349904Y-118933333D01*
X100273714Y-118895238D01*
X100121333Y-118857142D01*
X99930857Y-118857142D01*
X99778476Y-118895238D01*
X99702285Y-118933333D01*
X99664190Y-118971428D01*
X99626095Y-119047619D01*
X99626095Y-119123809D01*
X99664190Y-119200000D01*
X99702285Y-119238095D01*
X99778476Y-119276190D01*
X99930857Y-119314285D01*
X100121333Y-119314285D01*
X100273714Y-119276190D01*
X100349904Y-119238095D01*
X100388000Y-119200000D01*
X100426095Y-119123809D01*
X99702285Y-118514285D02*
X99664190Y-118476190D01*
X99626095Y-118514285D01*
X99664190Y-118552380D01*
X99702285Y-118514285D01*
X99626095Y-118514285D01*
X99626095Y-117714285D02*
X99626095Y-118171428D01*
X99626095Y-117942857D02*
X100426095Y-117942857D01*
X100311809Y-118019047D01*
X100235619Y-118095238D01*
X100197523Y-118171428D01*
X98757142Y-125085714D02*
X98757142Y-124819047D01*
X98338095Y-124704761D02*
X98338095Y-125085714D01*
X99138095Y-125085714D01*
X99138095Y-124704761D01*
X98338095Y-124361904D02*
X98871428Y-124361904D01*
X98719047Y-124361904D02*
X98795238Y-124323809D01*
X98833333Y-124285714D01*
X98871428Y-124209523D01*
X98871428Y-124133333D01*
X98338095Y-123866666D02*
X98871428Y-123866666D01*
X99138095Y-123866666D02*
X99100000Y-123904761D01*
X99061904Y-123866666D01*
X99100000Y-123828571D01*
X99138095Y-123866666D01*
X99061904Y-123866666D01*
X98376190Y-123142857D02*
X98338095Y-123219047D01*
X98338095Y-123371428D01*
X98376190Y-123447619D01*
X98414285Y-123485714D01*
X98490476Y-123523809D01*
X98719047Y-123523809D01*
X98795238Y-123485714D01*
X98833333Y-123447619D01*
X98871428Y-123371428D01*
X98871428Y-123219047D01*
X98833333Y-123142857D01*
X98338095Y-122800000D02*
X99138095Y-122800000D01*
X98338095Y-122457142D02*
X98757142Y-122457142D01*
X98833333Y-122495238D01*
X98871428Y-122571428D01*
X98871428Y-122685714D01*
X98833333Y-122761904D01*
X98795238Y-122800000D01*
X98376190Y-121504761D02*
X98338095Y-121390476D01*
X98338095Y-121200000D01*
X98376190Y-121123809D01*
X98414285Y-121085714D01*
X98490476Y-121047619D01*
X98566666Y-121047619D01*
X98642857Y-121085714D01*
X98680952Y-121123809D01*
X98719047Y-121200000D01*
X98757142Y-121352380D01*
X98795238Y-121428571D01*
X98833333Y-121466666D01*
X98909523Y-121504761D01*
X98985714Y-121504761D01*
X99061904Y-121466666D01*
X99100000Y-121428571D01*
X99138095Y-121352380D01*
X99138095Y-121161904D01*
X99100000Y-121047619D01*
X98871428Y-120819047D02*
X98871428Y-120514285D01*
X99138095Y-120704761D02*
X98452380Y-120704761D01*
X98376190Y-120666666D01*
X98338095Y-120590476D01*
X98338095Y-120514285D01*
X98871428Y-120323809D02*
X98338095Y-120133333D01*
X98871428Y-119942857D02*
X98338095Y-120133333D01*
X98147619Y-120209523D01*
X98109523Y-120247619D01*
X98071428Y-120323809D01*
X98871428Y-119295238D02*
X98223809Y-119295238D01*
X98147619Y-119333333D01*
X98109523Y-119371428D01*
X98071428Y-119447619D01*
X98071428Y-119561904D01*
X98109523Y-119638095D01*
X98376190Y-119295238D02*
X98338095Y-119371428D01*
X98338095Y-119523809D01*
X98376190Y-119600000D01*
X98414285Y-119638095D01*
X98490476Y-119676190D01*
X98719047Y-119676190D01*
X98795238Y-119638095D01*
X98833333Y-119600000D01*
X98871428Y-119523809D01*
X98871428Y-119371428D01*
X98833333Y-119295238D01*
X98376190Y-118609523D02*
X98338095Y-118685714D01*
X98338095Y-118838095D01*
X98376190Y-118914285D01*
X98452380Y-118952380D01*
X98757142Y-118952380D01*
X98833333Y-118914285D01*
X98871428Y-118838095D01*
X98871428Y-118685714D01*
X98833333Y-118609523D01*
X98757142Y-118571428D01*
X98680952Y-118571428D01*
X98604761Y-118952380D01*
X98338095Y-118228571D02*
X98871428Y-118228571D01*
X98719047Y-118228571D02*
X98795238Y-118190476D01*
X98833333Y-118152380D01*
X98871428Y-118076190D01*
X98871428Y-118000000D01*
X97773904Y-125790476D02*
X97812000Y-125752380D01*
X97850095Y-125676190D01*
X97850095Y-125485714D01*
X97812000Y-125409523D01*
X97773904Y-125371428D01*
X97697714Y-125333333D01*
X97621523Y-125333333D01*
X97507238Y-125371428D01*
X97050095Y-125828571D01*
X97050095Y-125333333D01*
X97850095Y-125066666D02*
X97850095Y-124571428D01*
X97545333Y-124838095D01*
X97545333Y-124723809D01*
X97507238Y-124647619D01*
X97469142Y-124609523D01*
X97392952Y-124571428D01*
X97202476Y-124571428D01*
X97126285Y-124609523D01*
X97088190Y-124647619D01*
X97050095Y-124723809D01*
X97050095Y-124952380D01*
X97088190Y-125028571D01*
X97126285Y-125066666D01*
X97354857Y-124228571D02*
X97354857Y-123619047D01*
X97050095Y-123238095D02*
X97850095Y-123238095D01*
X97278666Y-122971428D01*
X97850095Y-122704761D01*
X97050095Y-122704761D01*
X97050095Y-121980952D02*
X97469142Y-121980952D01*
X97545333Y-122019047D01*
X97583428Y-122095238D01*
X97583428Y-122247619D01*
X97545333Y-122323809D01*
X97088190Y-121980952D02*
X97050095Y-122057142D01*
X97050095Y-122247619D01*
X97088190Y-122323809D01*
X97164380Y-122361904D01*
X97240571Y-122361904D01*
X97316761Y-122323809D01*
X97354857Y-122247619D01*
X97354857Y-122057142D01*
X97392952Y-121980952D01*
X97050095Y-121600000D02*
X97583428Y-121600000D01*
X97431047Y-121600000D02*
X97507238Y-121561904D01*
X97545333Y-121523809D01*
X97583428Y-121447619D01*
X97583428Y-121371428D01*
X97354857Y-121104761D02*
X97354857Y-120495238D01*
X97773904Y-120152380D02*
X97812000Y-120114285D01*
X97850095Y-120038095D01*
X97850095Y-119847619D01*
X97812000Y-119771428D01*
X97773904Y-119733333D01*
X97697714Y-119695238D01*
X97621523Y-119695238D01*
X97507238Y-119733333D01*
X97050095Y-120190476D01*
X97050095Y-119695238D01*
X97850095Y-119200000D02*
X97850095Y-119123809D01*
X97812000Y-119047619D01*
X97773904Y-119009523D01*
X97697714Y-118971428D01*
X97545333Y-118933333D01*
X97354857Y-118933333D01*
X97202476Y-118971428D01*
X97126285Y-119009523D01*
X97088190Y-119047619D01*
X97050095Y-119123809D01*
X97050095Y-119200000D01*
X97088190Y-119276190D01*
X97126285Y-119314285D01*
X97202476Y-119352380D01*
X97354857Y-119390476D01*
X97545333Y-119390476D01*
X97697714Y-119352380D01*
X97773904Y-119314285D01*
X97812000Y-119276190D01*
X97850095Y-119200000D01*
X97773904Y-118628571D02*
X97812000Y-118590476D01*
X97850095Y-118514285D01*
X97850095Y-118323809D01*
X97812000Y-118247619D01*
X97773904Y-118209523D01*
X97697714Y-118171428D01*
X97621523Y-118171428D01*
X97507238Y-118209523D01*
X97050095Y-118666666D01*
X97050095Y-118171428D01*
X97850095Y-117904761D02*
X97850095Y-117409523D01*
X97545333Y-117676190D01*
X97545333Y-117561904D01*
X97507238Y-117485714D01*
X97469142Y-117447619D01*
X97392952Y-117409523D01*
X97202476Y-117409523D01*
X97126285Y-117447619D01*
X97088190Y-117485714D01*
X97050095Y-117561904D01*
X97050095Y-117790476D01*
X97088190Y-117866666D01*
X97126285Y-117904761D01*
%TO.C,H2*%
G36*
X115838500Y-126951500D02*
G01*
X115838500Y-124983000D01*
X116346500Y-124983000D01*
X116346500Y-126443500D01*
X117807000Y-126443500D01*
X117807000Y-124983000D01*
X116346500Y-124983000D01*
X115838500Y-124983000D01*
X115838500Y-124411500D01*
X118315000Y-124411500D01*
X118315000Y-126951500D01*
X115838500Y-126951500D01*
G37*
D11*
X115838500Y-126951500D02*
X115838500Y-124983000D01*
X116346500Y-124983000D01*
X116346500Y-126443500D01*
X117807000Y-126443500D01*
X117807000Y-124983000D01*
X116346500Y-124983000D01*
X115838500Y-124983000D01*
X115838500Y-124411500D01*
X118315000Y-124411500D01*
X118315000Y-126951500D01*
X115838500Y-126951500D01*
G36*
X115838500Y-118061500D02*
G01*
X115838500Y-116093000D01*
X116346500Y-116093000D01*
X116346500Y-117553500D01*
X117807000Y-117553500D01*
X117807000Y-116093000D01*
X116346500Y-116093000D01*
X115838500Y-116093000D01*
X115838500Y-115585000D01*
X118315000Y-115585000D01*
X118315000Y-118061500D01*
X115838500Y-118061500D01*
G37*
X115838500Y-118061500D02*
X115838500Y-116093000D01*
X116346500Y-116093000D01*
X116346500Y-117553500D01*
X117807000Y-117553500D01*
X117807000Y-116093000D01*
X116346500Y-116093000D01*
X115838500Y-116093000D01*
X115838500Y-115585000D01*
X118315000Y-115585000D01*
X118315000Y-118061500D01*
X115838500Y-118061500D01*
G36*
X118315000Y-121998500D02*
G01*
X118315000Y-122506500D01*
X117807000Y-122506500D01*
X117807000Y-123014500D01*
X117299000Y-123014500D01*
X117299000Y-122506500D01*
X116346500Y-122506500D01*
X116346500Y-121998500D01*
X115330500Y-121998500D01*
X115330500Y-121744500D01*
X115330004Y-121669550D01*
X115313788Y-121545668D01*
X115250549Y-121498189D01*
X115108250Y-121490500D01*
X114886000Y-121490500D01*
X114886000Y-121268250D01*
X115330500Y-121268250D01*
X115331068Y-121333830D01*
X115349601Y-121442227D01*
X115421873Y-121483771D01*
X115584500Y-121490500D01*
X115659450Y-121490003D01*
X115783332Y-121473787D01*
X115830811Y-121410548D01*
X115838500Y-121268250D01*
X116346500Y-121268250D01*
X116347068Y-121333830D01*
X116365601Y-121442227D01*
X116437873Y-121483771D01*
X116600500Y-121490500D01*
X116854500Y-121490500D01*
X116854500Y-121744500D01*
X116854997Y-121819449D01*
X116871213Y-121943331D01*
X116934452Y-121990810D01*
X117076750Y-121998500D01*
X117142331Y-121997932D01*
X117250728Y-121979399D01*
X117292272Y-121907127D01*
X117299000Y-121744500D01*
X117298504Y-121669550D01*
X117282288Y-121545668D01*
X117219049Y-121498189D01*
X117076750Y-121490500D01*
X117059834Y-121490472D01*
X116919790Y-121478298D01*
X116864330Y-121417208D01*
X116854500Y-121268250D01*
X116853933Y-121202669D01*
X116835400Y-121094272D01*
X116763128Y-121052728D01*
X116600500Y-121046000D01*
X116525551Y-121046496D01*
X116401669Y-121062712D01*
X116354190Y-121125951D01*
X116346500Y-121268250D01*
X115838500Y-121268250D01*
X115837933Y-121202669D01*
X115819400Y-121094272D01*
X115747128Y-121052728D01*
X115584500Y-121046000D01*
X115509551Y-121046496D01*
X115385669Y-121062712D01*
X115338190Y-121125951D01*
X115330500Y-121268250D01*
X114886000Y-121268250D01*
X114886000Y-120538000D01*
X115838500Y-120538000D01*
X115838500Y-121046000D01*
X116346500Y-121046000D01*
X116346500Y-120538000D01*
X117299000Y-120538000D01*
X117299000Y-121490500D01*
X117807000Y-121490500D01*
X117807000Y-121998500D01*
X118315000Y-121998500D01*
G37*
X118315000Y-121998500D02*
X118315000Y-122506500D01*
X117807000Y-122506500D01*
X117807000Y-123014500D01*
X117299000Y-123014500D01*
X117299000Y-122506500D01*
X116346500Y-122506500D01*
X116346500Y-121998500D01*
X115330500Y-121998500D01*
X115330500Y-121744500D01*
X115330004Y-121669550D01*
X115313788Y-121545668D01*
X115250549Y-121498189D01*
X115108250Y-121490500D01*
X114886000Y-121490500D01*
X114886000Y-121268250D01*
X115330500Y-121268250D01*
X115331068Y-121333830D01*
X115349601Y-121442227D01*
X115421873Y-121483771D01*
X115584500Y-121490500D01*
X115659450Y-121490003D01*
X115783332Y-121473787D01*
X115830811Y-121410548D01*
X115838500Y-121268250D01*
X116346500Y-121268250D01*
X116347068Y-121333830D01*
X116365601Y-121442227D01*
X116437873Y-121483771D01*
X116600500Y-121490500D01*
X116854500Y-121490500D01*
X116854500Y-121744500D01*
X116854997Y-121819449D01*
X116871213Y-121943331D01*
X116934452Y-121990810D01*
X117076750Y-121998500D01*
X117142331Y-121997932D01*
X117250728Y-121979399D01*
X117292272Y-121907127D01*
X117299000Y-121744500D01*
X117298504Y-121669550D01*
X117282288Y-121545668D01*
X117219049Y-121498189D01*
X117076750Y-121490500D01*
X117059834Y-121490472D01*
X116919790Y-121478298D01*
X116864330Y-121417208D01*
X116854500Y-121268250D01*
X116853933Y-121202669D01*
X116835400Y-121094272D01*
X116763128Y-121052728D01*
X116600500Y-121046000D01*
X116525551Y-121046496D01*
X116401669Y-121062712D01*
X116354190Y-121125951D01*
X116346500Y-121268250D01*
X115838500Y-121268250D01*
X115837933Y-121202669D01*
X115819400Y-121094272D01*
X115747128Y-121052728D01*
X115584500Y-121046000D01*
X115509551Y-121046496D01*
X115385669Y-121062712D01*
X115338190Y-121125951D01*
X115330500Y-121268250D01*
X114886000Y-121268250D01*
X114886000Y-120538000D01*
X115838500Y-120538000D01*
X115838500Y-121046000D01*
X116346500Y-121046000D01*
X116346500Y-120538000D01*
X117299000Y-120538000D01*
X117299000Y-121490500D01*
X117807000Y-121490500D01*
X117807000Y-121998500D01*
X118315000Y-121998500D01*
G36*
X109425000Y-120030000D02*
G01*
X108917000Y-120030000D01*
X108917000Y-120284000D01*
X108916504Y-120358949D01*
X108900288Y-120482831D01*
X108837049Y-120530310D01*
X108694750Y-120538000D01*
X108629170Y-120537432D01*
X108520773Y-120518899D01*
X108479229Y-120446627D01*
X108472500Y-120284000D01*
X108472997Y-120209050D01*
X108489213Y-120085168D01*
X108552452Y-120037689D01*
X108694750Y-120030000D01*
X108760331Y-120029432D01*
X108868728Y-120010899D01*
X108910272Y-119938627D01*
X108917000Y-119776000D01*
X108917000Y-119522000D01*
X109425000Y-119522000D01*
X109425000Y-120030000D01*
G37*
X109425000Y-120030000D02*
X108917000Y-120030000D01*
X108917000Y-120284000D01*
X108916504Y-120358949D01*
X108900288Y-120482831D01*
X108837049Y-120530310D01*
X108694750Y-120538000D01*
X108629170Y-120537432D01*
X108520773Y-120518899D01*
X108479229Y-120446627D01*
X108472500Y-120284000D01*
X108472997Y-120209050D01*
X108489213Y-120085168D01*
X108552452Y-120037689D01*
X108694750Y-120030000D01*
X108760331Y-120029432D01*
X108868728Y-120010899D01*
X108910272Y-119938627D01*
X108917000Y-119776000D01*
X108917000Y-119522000D01*
X109425000Y-119522000D01*
X109425000Y-120030000D01*
G36*
X108917000Y-124983000D02*
G01*
X108917000Y-123967000D01*
X109425000Y-123967000D01*
X109425000Y-124475000D01*
X109933000Y-124475000D01*
X109933000Y-123967000D01*
X109425000Y-123967000D01*
X108917000Y-123967000D01*
X108917000Y-123459000D01*
X110441000Y-123459000D01*
X110441000Y-124983000D01*
X108917000Y-124983000D01*
G37*
X108917000Y-124983000D02*
X108917000Y-123967000D01*
X109425000Y-123967000D01*
X109425000Y-124475000D01*
X109933000Y-124475000D01*
X109933000Y-123967000D01*
X109425000Y-123967000D01*
X108917000Y-123967000D01*
X108917000Y-123459000D01*
X110441000Y-123459000D01*
X110441000Y-124983000D01*
X108917000Y-124983000D01*
G36*
X111901500Y-124983000D02*
G01*
X110885500Y-124983000D01*
X110885500Y-124475000D01*
X111901500Y-124475000D01*
X111901500Y-124983000D01*
G37*
X111901500Y-124983000D02*
X110885500Y-124983000D01*
X110885500Y-124475000D01*
X111901500Y-124475000D01*
X111901500Y-124983000D01*
G36*
X114886000Y-119522000D02*
G01*
X114378000Y-119522000D01*
X114378000Y-120030000D01*
X113870000Y-120030000D01*
X113870000Y-119014000D01*
X114886000Y-119014000D01*
X114886000Y-119522000D01*
G37*
X114886000Y-119522000D02*
X114378000Y-119522000D01*
X114378000Y-120030000D01*
X113870000Y-120030000D01*
X113870000Y-119014000D01*
X114886000Y-119014000D01*
X114886000Y-119522000D01*
G36*
X110441000Y-121046000D02*
G01*
X109933000Y-121046000D01*
X109933000Y-120538000D01*
X110441000Y-120538000D01*
X110441000Y-121046000D01*
G37*
X110441000Y-121046000D02*
X109933000Y-121046000D01*
X109933000Y-120538000D01*
X110441000Y-120538000D01*
X110441000Y-121046000D01*
G36*
X113362000Y-124983000D02*
G01*
X113108000Y-124983000D01*
X113033051Y-124983496D01*
X112909169Y-124999712D01*
X112861690Y-125062951D01*
X112854000Y-125205250D01*
X112854000Y-125427500D01*
X113870000Y-125427500D01*
X113870000Y-125935500D01*
X112854000Y-125935500D01*
X112854000Y-125681500D01*
X112853504Y-125606550D01*
X112837288Y-125482668D01*
X112774049Y-125435189D01*
X112631750Y-125427500D01*
X112614834Y-125427472D01*
X112474790Y-125415298D01*
X112419330Y-125354208D01*
X112409500Y-125205250D01*
X112409528Y-125188333D01*
X112421702Y-125048289D01*
X112482792Y-124992829D01*
X112631750Y-124983000D01*
X112697331Y-124982432D01*
X112805728Y-124963899D01*
X112847272Y-124891627D01*
X112854000Y-124729000D01*
X112854000Y-124475000D01*
X113362000Y-124475000D01*
X113362000Y-124983000D01*
G37*
X113362000Y-124983000D02*
X113108000Y-124983000D01*
X113033051Y-124983496D01*
X112909169Y-124999712D01*
X112861690Y-125062951D01*
X112854000Y-125205250D01*
X112854000Y-125427500D01*
X113870000Y-125427500D01*
X113870000Y-125935500D01*
X112854000Y-125935500D01*
X112854000Y-125681500D01*
X112853504Y-125606550D01*
X112837288Y-125482668D01*
X112774049Y-125435189D01*
X112631750Y-125427500D01*
X112614834Y-125427472D01*
X112474790Y-125415298D01*
X112419330Y-125354208D01*
X112409500Y-125205250D01*
X112409528Y-125188333D01*
X112421702Y-125048289D01*
X112482792Y-124992829D01*
X112631750Y-124983000D01*
X112697331Y-124982432D01*
X112805728Y-124963899D01*
X112847272Y-124891627D01*
X112854000Y-124729000D01*
X112854000Y-124475000D01*
X113362000Y-124475000D01*
X113362000Y-124983000D01*
G36*
X112854000Y-119776000D02*
G01*
X112853504Y-119850949D01*
X112837288Y-119974831D01*
X112774049Y-120022310D01*
X112631750Y-120030000D01*
X112566170Y-120029432D01*
X112457773Y-120010899D01*
X112416229Y-119938627D01*
X112409500Y-119776000D01*
X112409997Y-119701050D01*
X112426213Y-119577168D01*
X112489452Y-119529689D01*
X112631750Y-119522000D01*
X112854000Y-119522000D01*
X112854000Y-119776000D01*
G37*
X112854000Y-119776000D02*
X112853504Y-119850949D01*
X112837288Y-119974831D01*
X112774049Y-120022310D01*
X112631750Y-120030000D01*
X112566170Y-120029432D01*
X112457773Y-120010899D01*
X112416229Y-119938627D01*
X112409500Y-119776000D01*
X112409997Y-119701050D01*
X112426213Y-119577168D01*
X112489452Y-119529689D01*
X112631750Y-119522000D01*
X112854000Y-119522000D01*
X112854000Y-119776000D01*
G36*
X111901500Y-123967000D02*
G01*
X110885500Y-123967000D01*
X110885500Y-122506500D01*
X111901500Y-122506500D01*
X111901500Y-123967000D01*
G37*
X111901500Y-123967000D02*
X110885500Y-123967000D01*
X110885500Y-122506500D01*
X111901500Y-122506500D01*
X111901500Y-123967000D01*
G36*
X106948500Y-118061500D02*
G01*
X106948500Y-116093000D01*
X107456500Y-116093000D01*
X107456500Y-117553500D01*
X108917000Y-117553500D01*
X108917000Y-116093000D01*
X107456500Y-116093000D01*
X106948500Y-116093000D01*
X106948500Y-115585000D01*
X109425000Y-115585000D01*
X109425000Y-118061500D01*
X106948500Y-118061500D01*
G37*
X106948500Y-118061500D02*
X106948500Y-116093000D01*
X107456500Y-116093000D01*
X107456500Y-117553500D01*
X108917000Y-117553500D01*
X108917000Y-116093000D01*
X107456500Y-116093000D01*
X106948500Y-116093000D01*
X106948500Y-115585000D01*
X109425000Y-115585000D01*
X109425000Y-118061500D01*
X106948500Y-118061500D01*
G36*
X111901500Y-125935500D02*
G01*
X112409500Y-125935500D01*
X112409500Y-126443500D01*
X111393500Y-126443500D01*
X111393500Y-125427500D01*
X111901500Y-125427500D01*
X111901500Y-125935500D01*
G37*
X111901500Y-125935500D02*
X112409500Y-125935500D01*
X112409500Y-126443500D01*
X111393500Y-126443500D01*
X111393500Y-125427500D01*
X111901500Y-125427500D01*
X111901500Y-125935500D01*
G36*
X113362000Y-118569500D02*
G01*
X113870000Y-118569500D01*
X113870000Y-118061500D01*
X114378000Y-118061500D01*
X114378000Y-118569500D01*
X114124000Y-118569500D01*
X114049051Y-118569996D01*
X113925169Y-118586212D01*
X113877690Y-118649451D01*
X113870000Y-118791750D01*
X113870000Y-119014000D01*
X113362000Y-119014000D01*
X113362000Y-119522000D01*
X112854000Y-119522000D01*
X112854000Y-118061500D01*
X113362000Y-118061500D01*
X113362000Y-118569500D01*
G37*
X113362000Y-118569500D02*
X113870000Y-118569500D01*
X113870000Y-118061500D01*
X114378000Y-118061500D01*
X114378000Y-118569500D01*
X114124000Y-118569500D01*
X114049051Y-118569996D01*
X113925169Y-118586212D01*
X113877690Y-118649451D01*
X113870000Y-118791750D01*
X113870000Y-119014000D01*
X113362000Y-119014000D01*
X113362000Y-119522000D01*
X112854000Y-119522000D01*
X112854000Y-118061500D01*
X113362000Y-118061500D01*
X113362000Y-118569500D01*
G36*
X112409500Y-121998500D02*
G01*
X111901500Y-121998500D01*
X111901500Y-121490500D01*
X112409500Y-121490500D01*
X112409500Y-121998500D01*
G37*
X112409500Y-121998500D02*
X111901500Y-121998500D01*
X111901500Y-121490500D01*
X112409500Y-121490500D01*
X112409500Y-121998500D01*
G36*
X109425000Y-122506500D02*
G01*
X108917000Y-122506500D01*
X108917000Y-121998500D01*
X109425000Y-121998500D01*
X109425000Y-122506500D01*
G37*
X109425000Y-122506500D02*
X108917000Y-122506500D01*
X108917000Y-121998500D01*
X109425000Y-121998500D01*
X109425000Y-122506500D01*
G36*
X110728831Y-125936067D02*
G01*
X110837228Y-125954600D01*
X110878772Y-126026872D01*
X110885500Y-126189500D01*
X110885500Y-126443500D01*
X111393500Y-126443500D01*
X111393500Y-126951500D01*
X110441000Y-126951500D01*
X110441000Y-125935500D01*
X110663250Y-125935500D01*
X110728831Y-125936067D01*
G37*
X110728831Y-125936067D02*
X110837228Y-125954600D01*
X110878772Y-126026872D01*
X110885500Y-126189500D01*
X110885500Y-126443500D01*
X111393500Y-126443500D01*
X111393500Y-126951500D01*
X110441000Y-126951500D01*
X110441000Y-125935500D01*
X110663250Y-125935500D01*
X110728831Y-125936067D01*
G36*
X105742000Y-127967500D02*
G01*
X105742000Y-127459500D01*
X106440500Y-127459500D01*
X107456500Y-127459500D01*
X107456500Y-126443500D01*
X106948500Y-126443500D01*
X106948500Y-125935500D01*
X106440500Y-125935500D01*
X106440500Y-127459500D01*
X105742000Y-127459500D01*
X105742000Y-124983000D01*
X106440500Y-124983000D01*
X106694500Y-124983000D01*
X106769450Y-124983496D01*
X106893332Y-124999712D01*
X106940811Y-125062951D01*
X106948500Y-125205250D01*
X106948500Y-125427500D01*
X107964500Y-125427500D01*
X107964500Y-125205250D01*
X107965068Y-125139669D01*
X107983601Y-125031272D01*
X108055873Y-124989728D01*
X108218500Y-124983000D01*
X108472500Y-124983000D01*
X108472500Y-125935500D01*
X107456500Y-125935500D01*
X107456500Y-126443500D01*
X107964500Y-126443500D01*
X107964500Y-127459500D01*
X108917000Y-127459500D01*
X108917000Y-127205500D01*
X108916504Y-127130550D01*
X108900288Y-127006668D01*
X108837049Y-126959189D01*
X108694750Y-126951500D01*
X108472500Y-126951500D01*
X108472500Y-125935500D01*
X108694750Y-125935500D01*
X108760331Y-125936067D01*
X108868728Y-125954600D01*
X108910272Y-126026872D01*
X108917000Y-126189500D01*
X108917000Y-126443500D01*
X109425000Y-126443500D01*
X109425000Y-125427500D01*
X109933000Y-125427500D01*
X109933000Y-127459500D01*
X112409500Y-127459500D01*
X113362000Y-127459500D01*
X114886000Y-127459500D01*
X114886000Y-127396000D01*
X115394000Y-127396000D01*
X118759500Y-127396000D01*
X118759500Y-124030500D01*
X115394000Y-124030500D01*
X115394000Y-127396000D01*
X114886000Y-127396000D01*
X114886000Y-126443500D01*
X114378000Y-126443500D01*
X114378000Y-126951500D01*
X113362000Y-126951500D01*
X113362000Y-127459500D01*
X112409500Y-127459500D01*
X112409500Y-126951500D01*
X113362000Y-126951500D01*
X113362000Y-126443500D01*
X113870000Y-126443500D01*
X113870000Y-125935500D01*
X114886000Y-125935500D01*
X114886000Y-125427500D01*
X114632000Y-125427500D01*
X114557051Y-125427003D01*
X114433169Y-125410787D01*
X114385690Y-125347548D01*
X114378000Y-125205250D01*
X114377433Y-125139669D01*
X114358900Y-125031272D01*
X114286628Y-124989728D01*
X114124000Y-124983000D01*
X113870000Y-124983000D01*
X113870000Y-124475000D01*
X113362000Y-124475000D01*
X113362000Y-123967000D01*
X113870000Y-123967000D01*
X114378000Y-123967000D01*
X114378000Y-124475000D01*
X114886000Y-124475000D01*
X114886000Y-123459000D01*
X113870000Y-123459000D01*
X113870000Y-123967000D01*
X113362000Y-123967000D01*
X112854000Y-123967000D01*
X112854000Y-123713000D01*
X112853504Y-123638050D01*
X112837288Y-123514168D01*
X112774049Y-123466689D01*
X112631750Y-123459000D01*
X112409500Y-123459000D01*
X112409500Y-122506500D01*
X112854000Y-122506500D01*
X112854000Y-121490500D01*
X113362000Y-121490500D01*
X113362000Y-121998500D01*
X113870000Y-121998500D01*
X113870000Y-122506500D01*
X114378000Y-122506500D01*
X114378000Y-121998500D01*
X113870000Y-121998500D01*
X113870000Y-121490500D01*
X113362000Y-121490500D01*
X112854000Y-121490500D01*
X112409500Y-121490500D01*
X112409500Y-120538000D01*
X111901500Y-120538000D01*
X111901500Y-121046000D01*
X111393500Y-121046000D01*
X111393500Y-121998500D01*
X110441000Y-121998500D01*
X110441000Y-122506500D01*
X109933000Y-122506500D01*
X109933000Y-121998500D01*
X109425000Y-121998500D01*
X109425000Y-121046000D01*
X109679000Y-121046000D01*
X109753950Y-121046496D01*
X109877832Y-121062712D01*
X109925311Y-121125951D01*
X109933000Y-121268250D01*
X109933000Y-121490500D01*
X110885500Y-121490500D01*
X110885500Y-120538000D01*
X110663250Y-120538000D01*
X110597670Y-120537432D01*
X110489273Y-120518899D01*
X110447729Y-120446627D01*
X110441000Y-120284000D01*
X110441000Y-120030000D01*
X109933000Y-120030000D01*
X109933000Y-119522000D01*
X110441000Y-119522000D01*
X110441000Y-120030000D01*
X111393500Y-120030000D01*
X111393500Y-119522000D01*
X110441000Y-119522000D01*
X109933000Y-119522000D01*
X109933000Y-119014000D01*
X108472500Y-119014000D01*
X108472500Y-120030000D01*
X107456500Y-120030000D01*
X107456500Y-120538000D01*
X108472500Y-120538000D01*
X108472500Y-120792000D01*
X108472997Y-120866949D01*
X108489213Y-120990831D01*
X108552452Y-121038310D01*
X108694750Y-121046000D01*
X108711667Y-121046027D01*
X108851711Y-121058201D01*
X108907171Y-121119291D01*
X108917000Y-121268250D01*
X108916973Y-121285166D01*
X108904799Y-121425210D01*
X108843709Y-121480670D01*
X108694750Y-121490500D01*
X108629170Y-121491067D01*
X108520773Y-121509600D01*
X108479229Y-121581872D01*
X108472500Y-121744500D01*
X108472500Y-121998500D01*
X107964500Y-121998500D01*
X107964500Y-122506500D01*
X108917000Y-122506500D01*
X108917000Y-122760500D01*
X108916504Y-122835449D01*
X108900288Y-122959331D01*
X108837049Y-123006810D01*
X108694750Y-123014500D01*
X108472500Y-123014500D01*
X108472500Y-123967000D01*
X107964500Y-123967000D01*
X107964500Y-124475000D01*
X107456500Y-124475000D01*
X107456500Y-123967000D01*
X106440500Y-123967000D01*
X106440500Y-124983000D01*
X105742000Y-124983000D01*
X105742000Y-123236750D01*
X106440500Y-123236750D01*
X106441068Y-123302330D01*
X106459601Y-123410727D01*
X106531873Y-123452271D01*
X106694500Y-123459000D01*
X106769450Y-123458503D01*
X106893332Y-123442287D01*
X106940811Y-123379048D01*
X106948500Y-123236750D01*
X106947933Y-123171169D01*
X106929400Y-123062772D01*
X106857128Y-123021228D01*
X106694500Y-123014500D01*
X106619551Y-123014996D01*
X106495669Y-123031212D01*
X106448190Y-123094451D01*
X106440500Y-123236750D01*
X105742000Y-123236750D01*
X105742000Y-121490500D01*
X106440500Y-121490500D01*
X107456500Y-121490500D01*
X107456500Y-121998500D01*
X106948500Y-121998500D01*
X106948500Y-122506500D01*
X107456500Y-122506500D01*
X107456500Y-121998500D01*
X107964500Y-121998500D01*
X107964500Y-121046000D01*
X106948500Y-121046000D01*
X106948500Y-120538000D01*
X106440500Y-120538000D01*
X106440500Y-121490500D01*
X105742000Y-121490500D01*
X105742000Y-119014000D01*
X106948500Y-119014000D01*
X106948500Y-120030000D01*
X107456500Y-120030000D01*
X107456500Y-119522000D01*
X107964500Y-119522000D01*
X107964500Y-119014000D01*
X106948500Y-119014000D01*
X105742000Y-119014000D01*
X105742000Y-115140500D01*
X106504000Y-115140500D01*
X106504000Y-118506000D01*
X109869500Y-118506000D01*
X109869500Y-118315500D01*
X110441000Y-118315500D01*
X110441497Y-118390449D01*
X110457713Y-118514331D01*
X110520952Y-118561810D01*
X110663250Y-118569500D01*
X110728831Y-118568932D01*
X110837228Y-118550399D01*
X110878772Y-118478127D01*
X110885500Y-118315500D01*
X110885500Y-118061500D01*
X111393500Y-118061500D01*
X111393500Y-119014000D01*
X111901500Y-119014000D01*
X111901500Y-118061500D01*
X111393500Y-118061500D01*
X111393500Y-116093000D01*
X111901500Y-116093000D01*
X111901500Y-117553500D01*
X112409500Y-117553500D01*
X112409500Y-116601000D01*
X112631750Y-116601000D01*
X112648667Y-116601027D01*
X112788711Y-116613201D01*
X112844171Y-116674291D01*
X112854000Y-116823250D01*
X112854000Y-117045500D01*
X114378000Y-117045500D01*
X114378000Y-117553500D01*
X113870000Y-117553500D01*
X113870000Y-118061500D01*
X113362000Y-118061500D01*
X113362000Y-117553500D01*
X112854000Y-117553500D01*
X112854000Y-117807500D01*
X112853504Y-117882449D01*
X112837288Y-118006331D01*
X112774049Y-118053810D01*
X112631750Y-118061500D01*
X112409500Y-118061500D01*
X112409500Y-119522000D01*
X111901500Y-119522000D01*
X111901500Y-120030000D01*
X112409500Y-120030000D01*
X112409500Y-120538000D01*
X112631750Y-120538000D01*
X112697331Y-120537432D01*
X112805728Y-120518899D01*
X112847272Y-120446627D01*
X112854000Y-120284000D01*
X112854000Y-120030000D01*
X113362000Y-120030000D01*
X113362000Y-120538000D01*
X114378000Y-120538000D01*
X114378000Y-121490500D01*
X114886000Y-121490500D01*
X114886000Y-121744500D01*
X114886497Y-121819449D01*
X114902713Y-121943331D01*
X114965952Y-121990810D01*
X115108250Y-121998500D01*
X115173831Y-121999067D01*
X115282228Y-122017600D01*
X115323772Y-122089872D01*
X115330500Y-122252500D01*
X115330500Y-122506500D01*
X115838500Y-122506500D01*
X115838500Y-123014500D01*
X114886000Y-123014500D01*
X114886000Y-122506500D01*
X114378000Y-122506500D01*
X114378000Y-123014500D01*
X114632000Y-123014500D01*
X114706950Y-123014996D01*
X114830832Y-123031212D01*
X114878311Y-123094451D01*
X114886000Y-123236750D01*
X114886000Y-123459000D01*
X116346500Y-123459000D01*
X116346500Y-123236750D01*
X116347068Y-123171169D01*
X116365601Y-123062772D01*
X116437873Y-123021228D01*
X116600500Y-123014500D01*
X116675450Y-123014996D01*
X116799332Y-123031212D01*
X116846811Y-123094451D01*
X116854500Y-123236750D01*
X116854500Y-123459000D01*
X118823000Y-123459000D01*
X118823000Y-123236750D01*
X118822433Y-123171169D01*
X118803900Y-123062772D01*
X118731628Y-123021228D01*
X118569000Y-123014500D01*
X118315000Y-123014500D01*
X118315000Y-122506500D01*
X118823000Y-122506500D01*
X118823000Y-121998500D01*
X118315000Y-121998500D01*
X118315000Y-121490500D01*
X118061000Y-121490500D01*
X117986051Y-121490003D01*
X117862169Y-121473787D01*
X117814690Y-121410548D01*
X117807000Y-121268250D01*
X117807568Y-121202669D01*
X117826101Y-121094272D01*
X117898373Y-121052728D01*
X118061000Y-121046000D01*
X118315000Y-121046000D01*
X118315000Y-120030000D01*
X117807000Y-120030000D01*
X117807000Y-119522000D01*
X117299000Y-119522000D01*
X117299000Y-119268000D01*
X117298504Y-119193050D01*
X117282288Y-119069168D01*
X117219049Y-119021689D01*
X117076750Y-119014000D01*
X117807000Y-119014000D01*
X117807000Y-119522000D01*
X118823000Y-119522000D01*
X118823000Y-119014000D01*
X117807000Y-119014000D01*
X117076750Y-119014000D01*
X117011170Y-119014567D01*
X116902773Y-119033100D01*
X116861229Y-119105372D01*
X116854500Y-119268000D01*
X116854997Y-119342949D01*
X116871213Y-119466831D01*
X116934452Y-119514310D01*
X117076750Y-119522000D01*
X117142331Y-119522567D01*
X117250728Y-119541100D01*
X117292272Y-119613372D01*
X117299000Y-119776000D01*
X117299000Y-120030000D01*
X115330500Y-120030000D01*
X115330500Y-119522000D01*
X115838500Y-119522000D01*
X115838500Y-119014000D01*
X114886000Y-119014000D01*
X114886000Y-117045500D01*
X114632000Y-117045500D01*
X114557051Y-117045003D01*
X114433169Y-117028787D01*
X114385690Y-116965548D01*
X114378000Y-116823250D01*
X114378568Y-116757669D01*
X114397101Y-116649272D01*
X114469373Y-116607728D01*
X114632000Y-116601000D01*
X114886000Y-116601000D01*
X114886000Y-115585000D01*
X114378000Y-115585000D01*
X114378000Y-116093000D01*
X113362000Y-116093000D01*
X113362000Y-115585000D01*
X112854000Y-115585000D01*
X112854000Y-115331000D01*
X112853504Y-115256050D01*
X112837288Y-115132168D01*
X112774049Y-115084689D01*
X112631750Y-115077000D01*
X113870000Y-115077000D01*
X113870000Y-115585000D01*
X114378000Y-115585000D01*
X114378000Y-115140500D01*
X115394000Y-115140500D01*
X115394000Y-118506000D01*
X118759500Y-118506000D01*
X118759500Y-115140500D01*
X115394000Y-115140500D01*
X114378000Y-115140500D01*
X114378000Y-115077000D01*
X113870000Y-115077000D01*
X112631750Y-115077000D01*
X112566170Y-115077567D01*
X112457773Y-115096100D01*
X112416229Y-115168372D01*
X112409500Y-115331000D01*
X112409500Y-115585000D01*
X111901500Y-115585000D01*
X111901500Y-115077000D01*
X111393500Y-115077000D01*
X111393500Y-116093000D01*
X110885500Y-116093000D01*
X110885500Y-115839000D01*
X110885004Y-115764050D01*
X110868788Y-115640168D01*
X110805549Y-115592689D01*
X110663250Y-115585000D01*
X110597670Y-115585567D01*
X110489273Y-115604100D01*
X110447729Y-115676372D01*
X110441000Y-115839000D01*
X110441497Y-115913949D01*
X110457713Y-116037831D01*
X110520952Y-116085310D01*
X110663250Y-116093000D01*
X110728831Y-116093567D01*
X110837228Y-116112100D01*
X110878772Y-116184372D01*
X110885500Y-116347000D01*
X110885004Y-116421949D01*
X110868788Y-116545831D01*
X110805549Y-116593310D01*
X110663250Y-116601000D01*
X110646334Y-116601027D01*
X110506290Y-116613201D01*
X110450830Y-116674291D01*
X110441000Y-116823250D01*
X110441028Y-116840166D01*
X110453202Y-116980210D01*
X110514292Y-117035670D01*
X110663250Y-117045500D01*
X110885500Y-117045500D01*
X110885500Y-118061500D01*
X110663250Y-118061500D01*
X110597670Y-118062067D01*
X110489273Y-118080600D01*
X110447729Y-118152872D01*
X110441000Y-118315500D01*
X109869500Y-118315500D01*
X109869500Y-115140500D01*
X106504000Y-115140500D01*
X105742000Y-115140500D01*
X105742000Y-114632500D01*
X119458000Y-114632500D01*
X119458000Y-127967500D01*
X105742000Y-127967500D01*
G37*
X105742000Y-127967500D02*
X105742000Y-127459500D01*
X106440500Y-127459500D01*
X107456500Y-127459500D01*
X107456500Y-126443500D01*
X106948500Y-126443500D01*
X106948500Y-125935500D01*
X106440500Y-125935500D01*
X106440500Y-127459500D01*
X105742000Y-127459500D01*
X105742000Y-124983000D01*
X106440500Y-124983000D01*
X106694500Y-124983000D01*
X106769450Y-124983496D01*
X106893332Y-124999712D01*
X106940811Y-125062951D01*
X106948500Y-125205250D01*
X106948500Y-125427500D01*
X107964500Y-125427500D01*
X107964500Y-125205250D01*
X107965068Y-125139669D01*
X107983601Y-125031272D01*
X108055873Y-124989728D01*
X108218500Y-124983000D01*
X108472500Y-124983000D01*
X108472500Y-125935500D01*
X107456500Y-125935500D01*
X107456500Y-126443500D01*
X107964500Y-126443500D01*
X107964500Y-127459500D01*
X108917000Y-127459500D01*
X108917000Y-127205500D01*
X108916504Y-127130550D01*
X108900288Y-127006668D01*
X108837049Y-126959189D01*
X108694750Y-126951500D01*
X108472500Y-126951500D01*
X108472500Y-125935500D01*
X108694750Y-125935500D01*
X108760331Y-125936067D01*
X108868728Y-125954600D01*
X108910272Y-126026872D01*
X108917000Y-126189500D01*
X108917000Y-126443500D01*
X109425000Y-126443500D01*
X109425000Y-125427500D01*
X109933000Y-125427500D01*
X109933000Y-127459500D01*
X112409500Y-127459500D01*
X113362000Y-127459500D01*
X114886000Y-127459500D01*
X114886000Y-127396000D01*
X115394000Y-127396000D01*
X118759500Y-127396000D01*
X118759500Y-124030500D01*
X115394000Y-124030500D01*
X115394000Y-127396000D01*
X114886000Y-127396000D01*
X114886000Y-126443500D01*
X114378000Y-126443500D01*
X114378000Y-126951500D01*
X113362000Y-126951500D01*
X113362000Y-127459500D01*
X112409500Y-127459500D01*
X112409500Y-126951500D01*
X113362000Y-126951500D01*
X113362000Y-126443500D01*
X113870000Y-126443500D01*
X113870000Y-125935500D01*
X114886000Y-125935500D01*
X114886000Y-125427500D01*
X114632000Y-125427500D01*
X114557051Y-125427003D01*
X114433169Y-125410787D01*
X114385690Y-125347548D01*
X114378000Y-125205250D01*
X114377433Y-125139669D01*
X114358900Y-125031272D01*
X114286628Y-124989728D01*
X114124000Y-124983000D01*
X113870000Y-124983000D01*
X113870000Y-124475000D01*
X113362000Y-124475000D01*
X113362000Y-123967000D01*
X113870000Y-123967000D01*
X114378000Y-123967000D01*
X114378000Y-124475000D01*
X114886000Y-124475000D01*
X114886000Y-123459000D01*
X113870000Y-123459000D01*
X113870000Y-123967000D01*
X113362000Y-123967000D01*
X112854000Y-123967000D01*
X112854000Y-123713000D01*
X112853504Y-123638050D01*
X112837288Y-123514168D01*
X112774049Y-123466689D01*
X112631750Y-123459000D01*
X112409500Y-123459000D01*
X112409500Y-122506500D01*
X112854000Y-122506500D01*
X112854000Y-121490500D01*
X113362000Y-121490500D01*
X113362000Y-121998500D01*
X113870000Y-121998500D01*
X113870000Y-122506500D01*
X114378000Y-122506500D01*
X114378000Y-121998500D01*
X113870000Y-121998500D01*
X113870000Y-121490500D01*
X113362000Y-121490500D01*
X112854000Y-121490500D01*
X112409500Y-121490500D01*
X112409500Y-120538000D01*
X111901500Y-120538000D01*
X111901500Y-121046000D01*
X111393500Y-121046000D01*
X111393500Y-121998500D01*
X110441000Y-121998500D01*
X110441000Y-122506500D01*
X109933000Y-122506500D01*
X109933000Y-121998500D01*
X109425000Y-121998500D01*
X109425000Y-121046000D01*
X109679000Y-121046000D01*
X109753950Y-121046496D01*
X109877832Y-121062712D01*
X109925311Y-121125951D01*
X109933000Y-121268250D01*
X109933000Y-121490500D01*
X110885500Y-121490500D01*
X110885500Y-120538000D01*
X110663250Y-120538000D01*
X110597670Y-120537432D01*
X110489273Y-120518899D01*
X110447729Y-120446627D01*
X110441000Y-120284000D01*
X110441000Y-120030000D01*
X109933000Y-120030000D01*
X109933000Y-119522000D01*
X110441000Y-119522000D01*
X110441000Y-120030000D01*
X111393500Y-120030000D01*
X111393500Y-119522000D01*
X110441000Y-119522000D01*
X109933000Y-119522000D01*
X109933000Y-119014000D01*
X108472500Y-119014000D01*
X108472500Y-120030000D01*
X107456500Y-120030000D01*
X107456500Y-120538000D01*
X108472500Y-120538000D01*
X108472500Y-120792000D01*
X108472997Y-120866949D01*
X108489213Y-120990831D01*
X108552452Y-121038310D01*
X108694750Y-121046000D01*
X108711667Y-121046027D01*
X108851711Y-121058201D01*
X108907171Y-121119291D01*
X108917000Y-121268250D01*
X108916973Y-121285166D01*
X108904799Y-121425210D01*
X108843709Y-121480670D01*
X108694750Y-121490500D01*
X108629170Y-121491067D01*
X108520773Y-121509600D01*
X108479229Y-121581872D01*
X108472500Y-121744500D01*
X108472500Y-121998500D01*
X107964500Y-121998500D01*
X107964500Y-122506500D01*
X108917000Y-122506500D01*
X108917000Y-122760500D01*
X108916504Y-122835449D01*
X108900288Y-122959331D01*
X108837049Y-123006810D01*
X108694750Y-123014500D01*
X108472500Y-123014500D01*
X108472500Y-123967000D01*
X107964500Y-123967000D01*
X107964500Y-124475000D01*
X107456500Y-124475000D01*
X107456500Y-123967000D01*
X106440500Y-123967000D01*
X106440500Y-124983000D01*
X105742000Y-124983000D01*
X105742000Y-123236750D01*
X106440500Y-123236750D01*
X106441068Y-123302330D01*
X106459601Y-123410727D01*
X106531873Y-123452271D01*
X106694500Y-123459000D01*
X106769450Y-123458503D01*
X106893332Y-123442287D01*
X106940811Y-123379048D01*
X106948500Y-123236750D01*
X106947933Y-123171169D01*
X106929400Y-123062772D01*
X106857128Y-123021228D01*
X106694500Y-123014500D01*
X106619551Y-123014996D01*
X106495669Y-123031212D01*
X106448190Y-123094451D01*
X106440500Y-123236750D01*
X105742000Y-123236750D01*
X105742000Y-121490500D01*
X106440500Y-121490500D01*
X107456500Y-121490500D01*
X107456500Y-121998500D01*
X106948500Y-121998500D01*
X106948500Y-122506500D01*
X107456500Y-122506500D01*
X107456500Y-121998500D01*
X107964500Y-121998500D01*
X107964500Y-121046000D01*
X106948500Y-121046000D01*
X106948500Y-120538000D01*
X106440500Y-120538000D01*
X106440500Y-121490500D01*
X105742000Y-121490500D01*
X105742000Y-119014000D01*
X106948500Y-119014000D01*
X106948500Y-120030000D01*
X107456500Y-120030000D01*
X107456500Y-119522000D01*
X107964500Y-119522000D01*
X107964500Y-119014000D01*
X106948500Y-119014000D01*
X105742000Y-119014000D01*
X105742000Y-115140500D01*
X106504000Y-115140500D01*
X106504000Y-118506000D01*
X109869500Y-118506000D01*
X109869500Y-118315500D01*
X110441000Y-118315500D01*
X110441497Y-118390449D01*
X110457713Y-118514331D01*
X110520952Y-118561810D01*
X110663250Y-118569500D01*
X110728831Y-118568932D01*
X110837228Y-118550399D01*
X110878772Y-118478127D01*
X110885500Y-118315500D01*
X110885500Y-118061500D01*
X111393500Y-118061500D01*
X111393500Y-119014000D01*
X111901500Y-119014000D01*
X111901500Y-118061500D01*
X111393500Y-118061500D01*
X111393500Y-116093000D01*
X111901500Y-116093000D01*
X111901500Y-117553500D01*
X112409500Y-117553500D01*
X112409500Y-116601000D01*
X112631750Y-116601000D01*
X112648667Y-116601027D01*
X112788711Y-116613201D01*
X112844171Y-116674291D01*
X112854000Y-116823250D01*
X112854000Y-117045500D01*
X114378000Y-117045500D01*
X114378000Y-117553500D01*
X113870000Y-117553500D01*
X113870000Y-118061500D01*
X113362000Y-118061500D01*
X113362000Y-117553500D01*
X112854000Y-117553500D01*
X112854000Y-117807500D01*
X112853504Y-117882449D01*
X112837288Y-118006331D01*
X112774049Y-118053810D01*
X112631750Y-118061500D01*
X112409500Y-118061500D01*
X112409500Y-119522000D01*
X111901500Y-119522000D01*
X111901500Y-120030000D01*
X112409500Y-120030000D01*
X112409500Y-120538000D01*
X112631750Y-120538000D01*
X112697331Y-120537432D01*
X112805728Y-120518899D01*
X112847272Y-120446627D01*
X112854000Y-120284000D01*
X112854000Y-120030000D01*
X113362000Y-120030000D01*
X113362000Y-120538000D01*
X114378000Y-120538000D01*
X114378000Y-121490500D01*
X114886000Y-121490500D01*
X114886000Y-121744500D01*
X114886497Y-121819449D01*
X114902713Y-121943331D01*
X114965952Y-121990810D01*
X115108250Y-121998500D01*
X115173831Y-121999067D01*
X115282228Y-122017600D01*
X115323772Y-122089872D01*
X115330500Y-122252500D01*
X115330500Y-122506500D01*
X115838500Y-122506500D01*
X115838500Y-123014500D01*
X114886000Y-123014500D01*
X114886000Y-122506500D01*
X114378000Y-122506500D01*
X114378000Y-123014500D01*
X114632000Y-123014500D01*
X114706950Y-123014996D01*
X114830832Y-123031212D01*
X114878311Y-123094451D01*
X114886000Y-123236750D01*
X114886000Y-123459000D01*
X116346500Y-123459000D01*
X116346500Y-123236750D01*
X116347068Y-123171169D01*
X116365601Y-123062772D01*
X116437873Y-123021228D01*
X116600500Y-123014500D01*
X116675450Y-123014996D01*
X116799332Y-123031212D01*
X116846811Y-123094451D01*
X116854500Y-123236750D01*
X116854500Y-123459000D01*
X118823000Y-123459000D01*
X118823000Y-123236750D01*
X118822433Y-123171169D01*
X118803900Y-123062772D01*
X118731628Y-123021228D01*
X118569000Y-123014500D01*
X118315000Y-123014500D01*
X118315000Y-122506500D01*
X118823000Y-122506500D01*
X118823000Y-121998500D01*
X118315000Y-121998500D01*
X118315000Y-121490500D01*
X118061000Y-121490500D01*
X117986051Y-121490003D01*
X117862169Y-121473787D01*
X117814690Y-121410548D01*
X117807000Y-121268250D01*
X117807568Y-121202669D01*
X117826101Y-121094272D01*
X117898373Y-121052728D01*
X118061000Y-121046000D01*
X118315000Y-121046000D01*
X118315000Y-120030000D01*
X117807000Y-120030000D01*
X117807000Y-119522000D01*
X117299000Y-119522000D01*
X117299000Y-119268000D01*
X117298504Y-119193050D01*
X117282288Y-119069168D01*
X117219049Y-119021689D01*
X117076750Y-119014000D01*
X117807000Y-119014000D01*
X117807000Y-119522000D01*
X118823000Y-119522000D01*
X118823000Y-119014000D01*
X117807000Y-119014000D01*
X117076750Y-119014000D01*
X117011170Y-119014567D01*
X116902773Y-119033100D01*
X116861229Y-119105372D01*
X116854500Y-119268000D01*
X116854997Y-119342949D01*
X116871213Y-119466831D01*
X116934452Y-119514310D01*
X117076750Y-119522000D01*
X117142331Y-119522567D01*
X117250728Y-119541100D01*
X117292272Y-119613372D01*
X117299000Y-119776000D01*
X117299000Y-120030000D01*
X115330500Y-120030000D01*
X115330500Y-119522000D01*
X115838500Y-119522000D01*
X115838500Y-119014000D01*
X114886000Y-119014000D01*
X114886000Y-117045500D01*
X114632000Y-117045500D01*
X114557051Y-117045003D01*
X114433169Y-117028787D01*
X114385690Y-116965548D01*
X114378000Y-116823250D01*
X114378568Y-116757669D01*
X114397101Y-116649272D01*
X114469373Y-116607728D01*
X114632000Y-116601000D01*
X114886000Y-116601000D01*
X114886000Y-115585000D01*
X114378000Y-115585000D01*
X114378000Y-116093000D01*
X113362000Y-116093000D01*
X113362000Y-115585000D01*
X112854000Y-115585000D01*
X112854000Y-115331000D01*
X112853504Y-115256050D01*
X112837288Y-115132168D01*
X112774049Y-115084689D01*
X112631750Y-115077000D01*
X113870000Y-115077000D01*
X113870000Y-115585000D01*
X114378000Y-115585000D01*
X114378000Y-115140500D01*
X115394000Y-115140500D01*
X115394000Y-118506000D01*
X118759500Y-118506000D01*
X118759500Y-115140500D01*
X115394000Y-115140500D01*
X114378000Y-115140500D01*
X114378000Y-115077000D01*
X113870000Y-115077000D01*
X112631750Y-115077000D01*
X112566170Y-115077567D01*
X112457773Y-115096100D01*
X112416229Y-115168372D01*
X112409500Y-115331000D01*
X112409500Y-115585000D01*
X111901500Y-115585000D01*
X111901500Y-115077000D01*
X111393500Y-115077000D01*
X111393500Y-116093000D01*
X110885500Y-116093000D01*
X110885500Y-115839000D01*
X110885004Y-115764050D01*
X110868788Y-115640168D01*
X110805549Y-115592689D01*
X110663250Y-115585000D01*
X110597670Y-115585567D01*
X110489273Y-115604100D01*
X110447729Y-115676372D01*
X110441000Y-115839000D01*
X110441497Y-115913949D01*
X110457713Y-116037831D01*
X110520952Y-116085310D01*
X110663250Y-116093000D01*
X110728831Y-116093567D01*
X110837228Y-116112100D01*
X110878772Y-116184372D01*
X110885500Y-116347000D01*
X110885004Y-116421949D01*
X110868788Y-116545831D01*
X110805549Y-116593310D01*
X110663250Y-116601000D01*
X110646334Y-116601027D01*
X110506290Y-116613201D01*
X110450830Y-116674291D01*
X110441000Y-116823250D01*
X110441028Y-116840166D01*
X110453202Y-116980210D01*
X110514292Y-117035670D01*
X110663250Y-117045500D01*
X110885500Y-117045500D01*
X110885500Y-118061500D01*
X110663250Y-118061500D01*
X110597670Y-118062067D01*
X110489273Y-118080600D01*
X110447729Y-118152872D01*
X110441000Y-118315500D01*
X109869500Y-118315500D01*
X109869500Y-115140500D01*
X106504000Y-115140500D01*
X105742000Y-115140500D01*
X105742000Y-114632500D01*
X119458000Y-114632500D01*
X119458000Y-127967500D01*
X105742000Y-127967500D01*
G36*
X117807000Y-120538000D02*
G01*
X117299000Y-120538000D01*
X117299000Y-120030000D01*
X117807000Y-120030000D01*
X117807000Y-120538000D01*
G37*
X117807000Y-120538000D02*
X117299000Y-120538000D01*
X117299000Y-120030000D01*
X117807000Y-120030000D01*
X117807000Y-120538000D01*
%TD*%
M02*
