<?xml version="1.0" encoding="UTF-8" standalone="no"?>
<svg
   xmlns:dc="http://purl.org/dc/elements/1.1/"
   xmlns:cc="http://creativecommons.org/ns#"
   xmlns:rdf="http://www.w3.org/1999/02/22-rdf-syntax-ns#"
   xmlns:svg="http://www.w3.org/2000/svg"
   xmlns="http://www.w3.org/2000/svg"
   xmlns:sodipodi="http://sodipodi.sourceforge.net/DTD/sodipodi-0.dtd"
   xmlns:inkscape="http://www.inkscape.org/namespaces/inkscape"
   version="1.1"
   width="90.853996mm"
   height="60.653999mm"
   viewBox="0 0 321.92388 214.91593"
   id="svg26"
   sodipodi:docname="Box.svg"
   inkscape:version="0.92.1 r15371">
  <metadata
     id="metadata32">
    <rdf:RDF>
      <cc:Work
         rdf:about="">
        <dc:format>image/svg+xml</dc:format>
        <dc:type
           rdf:resource="http://purl.org/dc/dcmitype/StillImage" />
        <dc:title></dc:title>
      </cc:Work>
    </rdf:RDF>
  </metadata>
  <defs
     id="defs30" />
  <sodipodi:namedview
     pagecolor="#ffffff"
     bordercolor="#666666"
     borderopacity="1"
     objecttolerance="10"
     gridtolerance="10"
     guidetolerance="10"
     inkscape:pageopacity="0"
     inkscape:pageshadow="2"
     inkscape:window-width="1495"
     inkscape:window-height="1018"
     id="namedview28"
     showgrid="false"
     fit-margin-top="0"
     fit-margin-left="0"
     fit-margin-right="0"
     fit-margin-bottom="0"
     inkscape:document-units="cm"
     inkscape:zoom="2.0694521"
     inkscape:cx="102.32338"
     inkscape:cy="11.794609"
     inkscape:window-x="171"
     inkscape:window-y="0"
     inkscape:window-maximized="0"
     inkscape:current-layer="svg26" />
  <!-- Front-->
  <!-- Back-->
  <!-- Left-->
  <!-- Right-->
  <!-- Top-->
  <!-- Bottom-->
  <g
     aria-label="1"
     transform="matrix(-1,0,0,1,-0.76577624,2.0420928)"
     style="font-style:normal;font-weight:normal;font-size:37.50003052px;line-height:1.25;font-family:sans-serif;letter-spacing:0px;word-spacing:0px;fill:none;fill-opacity:1;stroke:#0000ff;stroke-width:0.93750083;stroke-opacity:1"
     id="text4512">
    <path
       d="m -259.58733,63.582897 h -14.75831 v -2.783205 h 5.67628 V 42.525751 h -5.67628 v -2.490236 q 1.15357,0 2.47193,-0.183106 1.31836,-0.201416 1.99585,-0.567627 0.84228,-0.457764 1.31836,-1.153566 0.49438,-0.714112 0.56763,-1.904298 h 2.83813 v 24.572774 h 5.56641 z"
       style="fill:none;stroke:#0000ff;stroke-width:0.93750083;stroke-opacity:1"
       id="path4540"
       inkscape:connector-curvature="0" />
  </g>
  <g
     aria-label="2"
     transform="matrix(-1,0,0,1,-0.76577624,2.0420928)"
     style="font-style:normal;font-weight:normal;font-size:37.50003052px;line-height:1.25;font-family:sans-serif;letter-spacing:0px;word-spacing:0px;fill:none;fill-opacity:1;stroke:#0000ff;stroke-width:0.93750083;stroke-opacity:1"
     id="text4516">
    <path
       d="m -151.68048,66.145561 h -18.45705 v -3.826907 q 1.92261,-1.647951 3.84522,-3.295901 1.94092,-1.647951 3.60718,-3.277591 3.51563,-3.405764 4.81568,-5.401616 1.30005,-2.014161 1.30005,-4.339603 0,-2.124025 -1.40991,-3.314211 -1.3916,-1.208497 -3.90015,-1.208497 -1.66626,0 -3.60718,0.585937 -1.94092,0.585938 -3.79029,1.794436 h -0.1831 V 40.01639 q 1.30005,-0.64087 3.46069,-1.171876 2.17896,-0.531007 4.21143,-0.531007 4.19312,0 6.57349,2.032473 2.38038,2.014161 2.38038,5.474858 0,1.556397 -0.40284,2.911379 -0.38452,1.336671 -1.15356,2.545168 -0.71411,1.135255 -1.68457,2.233889 -0.95215,1.098633 -2.32544,2.435304 -1.95924,1.922609 -4.04664,3.735355 -2.0874,1.794435 -3.90015,3.332522 h 14.66676 z"
       style="fill:none;stroke:#0000ff;stroke-width:0.93750083;stroke-opacity:1"
       id="path4537"
       inkscape:connector-curvature="0" />
  </g>
  <g
     aria-label="3"
     transform="matrix(-1,0,0,1,-0.76577624,2.0420928)"
     style="font-style:normal;font-weight:normal;font-size:37.50003052px;line-height:1.25;font-family:sans-serif;letter-spacing:0px;word-spacing:0px;fill:none;fill-opacity:1;stroke:#0000ff;stroke-width:0.93750083;stroke-opacity:1"
     id="text4520">
    <path
       d="m -48.369369,51.735562 q 0.878907,0.787354 1.446534,1.977541 0.567627,1.190186 0.567627,3.076174 0,1.867677 -0.67749,3.424075 -0.677491,1.556398 -1.904299,2.709963 -1.373292,1.28174 -3.240969,1.904299 -1.849367,0.604248 -4.064945,0.604248 -2.27051,0 -4.467777,-0.549317 -2.197267,-0.531006 -3.607181,-1.171875 v -3.826908 h 0.274659 q 1.556398,1.025392 3.662112,1.702882 2.105715,0.677491 4.064945,0.677491 1.153565,0 2.453615,-0.384522 1.30005,-0.384521 2.105715,-1.135254 0.842286,-0.805665 1.245118,-1.776125 0.421143,-0.97046 0.421143,-2.453615 0,-1.464845 -0.476075,-2.416994 -0.457764,-0.97046 -1.281739,-1.519777 -0.823975,-0.567627 -1.995851,-0.769044 -1.171876,-0.219726 -2.526858,-0.219726 h -1.64795 v -3.039554 h 1.281739 q 2.783205,0 4.431156,-1.153565 1.666261,-1.171876 1.666261,-3.405765 0,-0.98877 -0.421143,-1.721192 -0.421143,-0.750733 -1.171876,-1.226808 -0.787354,-0.476075 -1.684572,-0.65918 -0.897217,-0.183106 -2.032472,-0.183106 -1.739503,0 -3.698733,0.622559 -1.95923,0.622559 -3.698734,1.757814 h -0.183105 v -3.826907 q 1.300049,-0.64087 3.460696,-1.171876 2.178957,-0.549317 4.211429,-0.549317 1.995851,0 3.515628,0.366211 1.519776,0.366211 2.746584,1.171876 1.318361,0.878907 1.995851,2.124025 0.677491,1.245119 0.677491,2.91138 0,2.270509 -1.611329,3.973392 -1.593019,1.684571 -3.771976,2.124025 v 0.256348 q 0.878907,0.146484 2.014162,0.622559 1.135255,0.457764 1.922609,1.153565 z"
       style="fill:none;stroke:#0000ff;stroke-width:0.93750083;stroke-opacity:1"
       id="path4534"
       inkscape:connector-curvature="0" />
  </g>
  <g
     aria-label="4"
     transform="matrix(-1,0,0,1,-2.1248462,3.4011528)"
     style="font-style:normal;font-weight:normal;font-size:37.50003052px;line-height:1.25;font-family:sans-serif;letter-spacing:0px;word-spacing:0px;fill:none;fill-opacity:1;stroke:#0000ff;stroke-width:0.93750083;stroke-opacity:1"
     id="text4524">
    <path
       d="m -257.40837,161.62055 h -4.04663 v 7.67213 h -3.51563 v -7.67213 h -13.05543 v -4.21143 l 13.20191,-15.38087 h 3.36915 v 16.66261 h 4.04663 z m -7.56226,-2.92969 v -12.30469 l -10.56519,12.30469 z"
       style="fill:none;stroke:#0000ff;stroke-width:0.93750083;stroke-opacity:1"
       id="path4549"
       inkscape:connector-curvature="0" />
  </g>
  <g
     aria-label="5"
     transform="matrix(-1,0,0,1,-2.1248462,3.4011528)"
     style="font-style:normal;font-weight:normal;font-size:37.50003052px;line-height:1.25;font-family:sans-serif;letter-spacing:0px;word-spacing:0px;fill:none;fill-opacity:1;stroke:#0000ff;stroke-width:0.93750083;stroke-opacity:1"
     id="text4528">
    <path
       d="m -153.82219,159.99113 q 0,1.9043 -0.6958,3.6438 -0.6958,1.7395 -1.9043,2.92969 -1.31836,1.28174 -3.14941,1.97754 -1.81275,0.67749 -4.21143,0.67749 -2.23389,0 -4.30298,-0.47607 -2.0691,-0.45777 -3.49732,-1.11695 v -3.86353 h 0.25635 q 1.50146,0.95215 3.51562,1.62964 2.01417,0.65918 3.95508,0.65918 1.30005,0 2.50855,-0.36621 1.22681,-0.36621 2.17896,-1.28174 0.80566,-0.78735 1.2085,-1.88598 0.42114,-1.09864 0.42114,-2.54517 0,-1.40992 -0.49439,-2.38038 -0.47607,-0.97046 -1.33667,-1.55639 -0.95215,-0.69581 -2.32544,-0.97046 -1.35498,-0.29297 -3.03955,-0.29297 -1.61133,0 -3.1128,0.21972 -1.48315,0.21973 -2.56348,0.43946 v -14.0442 h 16.40627 v 3.20435 h -12.87233 v 7.25098 q 0.78736,-0.0732 1.61133,-0.10987 0.82398,-0.0366 1.42823,-0.0366 2.21557,0 3.88183,0.38452 1.66627,0.36622 3.05787,1.31837 1.46484,1.00708 2.27051,2.6001 0.80566,1.59301 0.80566,3.9917 z"
       style="fill:none;stroke:#0000ff;stroke-width:0.93750083;stroke-opacity:1"
       id="path4546"
       inkscape:connector-curvature="0" />
  </g>
  <g
     aria-label="6"
     transform="matrix(-1,0,0,1,-2.1248462,3.4011528)"
     style="font-style:normal;font-weight:normal;font-size:37.50003052px;line-height:1.25;font-family:sans-serif;letter-spacing:0px;word-spacing:0px;fill:none;fill-opacity:1;stroke:#0000ff;stroke-width:0.93750083;stroke-opacity:1"
     id="text4532">
    <path
       d="m -45.567853,161.08936 q 0,4.1565 -2.746585,6.79322 -2.728273,2.61841 -6.701665,2.61841 -2.014162,0 -3.662113,-0.62256 -1.64795,-0.62256 -2.911379,-1.84936 -1.574708,-1.51978 -2.435305,-4.02833 -0.842285,-2.50854 -0.842285,-6.04248 0,-3.62549 0.769043,-6.42701 0.787354,-2.80152 2.490237,-4.98047 1.611329,-2.0691 4.156497,-3.22266 2.545168,-1.17188 5.932622,-1.17188 1.080323,0 1.812746,0.0916 0.732422,0.0915 1.483155,0.32959 v 3.49731 h -0.183105 q -0.512696,-0.27466 -1.556398,-0.51269 -1.025392,-0.25635 -2.105715,-0.25635 -3.936771,0 -6.280522,2.47193 -2.343752,2.45361 -2.728274,6.64673 1.538087,-0.93384 3.021243,-1.40991 1.501466,-0.49439 3.460696,-0.49439 1.739503,0 3.057864,0.32959 1.336671,0.31128 2.728273,1.28174 1.61133,1.11694 2.416994,2.81983 0.823976,1.70288 0.823976,4.13818 z m -3.717044,0.14649 q 0,-1.70288 -0.512696,-2.81983 -0.494385,-1.11694 -1.647951,-1.94092 -0.842286,-0.58594 -1.867677,-0.76904 -1.025391,-0.18311 -2.142336,-0.18311 -1.556397,0 -2.893068,0.36621 -1.336671,0.36622 -2.746585,1.13526 -0.03662,0.40283 -0.05493,0.78735 -0.01831,0.36621 -0.01831,0.93384 0,2.89307 0.585938,4.57764 0.604249,1.66626 1.647951,2.63672 0.842285,0.80567 1.812745,1.19019 0.988771,0.36621 2.142336,0.36621 2.655031,0 4.174808,-1.61133 1.519777,-1.62964 1.519777,-4.66919 z"
       style="fill:none;stroke:#0000ff;stroke-width:0.93750083;stroke-opacity:1"
       id="path4543"
       inkscape:connector-curvature="0" />
  </g>
  <g
     id="g4604"
     transform="translate(-22.050018,-22.050018)">
    <g
       id="g4562"
       transform="translate(22.500018,22.500018)">
      <path
         style="fill:none;stroke:#ff0000;stroke-width:0.90000075"
         d="M 0,21.968522 V 0 H 21.968522 V 14.17324 H 42.51972 V 0 H 64.488242 V 14.17324 H 85.03944 V 0 h 21.96852 V 21.968522 H 92.834722 V 42.51972 H 107.00796 V 64.488242 H 92.834722 V 85.03944 h 14.173238 v 21.96852 H 85.03944 V 92.834722 H 64.488242 V 107.00796 H 42.51972 V 92.834722 H 21.968522 V 107.00796 H 0 V 85.03944 H 14.17324 V 64.488242 H 0 V 42.51972 H 14.17324 V 21.968522 Z"
         id="polygon4560"
         inkscape:connector-curvature="0" />
    </g>
    <g
       id="g4566"
       transform="translate(129.50798,22.500018)">
      <path
         style="fill:none;stroke:#ff0000;stroke-width:0.90000075"
         d="M 0,21.968522 V 0 H 21.968522 V 14.17324 H 42.51972 V 0 H 64.488242 V 14.17324 H 85.03944 V 0 h 21.96852 V 21.968522 H 92.834722 V 42.51972 H 107.00796 V 64.488242 H 92.834722 V 85.03944 h 14.173238 v 21.96852 H 85.03944 V 92.834722 H 64.488242 V 107.00796 H 42.51972 V 92.834722 H 21.968522 V 107.00796 H 0 V 85.03944 H 14.17324 V 64.488242 H 0 V 42.51972 H 14.17324 V 21.968522 Z"
         id="polygon4564"
         inkscape:connector-curvature="0" />
    </g>
    <g
       id="g4570"
       transform="translate(236.51594,22.500018)">
      <path
         style="fill:none;stroke:#ff0000;stroke-width:0.90000075"
         d="M 14.17324,21.25986 V 0 h 7.795282 V 14.17324 H 42.51972 V 0 H 64.488242 V 14.17324 H 85.03944 V 0 h 7.795282 V 21.25986 H 107.00796 V 43.228382 H 92.834722 V 63.77958 H 107.00796 V 85.748102 H 92.834722 V 107.00796 H 85.03944 V 92.834722 H 64.488242 V 107.00796 H 42.51972 V 92.834722 H 21.968522 V 107.00796 H 14.17324 V 85.748102 H 0 V 63.77958 H 14.17324 V 43.228382 H 0 V 21.25986 Z"
         id="polygon4568"
         inkscape:connector-curvature="0" />
    </g>
    <g
       id="g4574"
       transform="translate(236.51594,129.50798)">
      <path
         style="fill:none;stroke:#ff0000;stroke-width:0.90000075"
         d="M 14.17324,21.25986 V 0 h 7.795282 V 14.17324 H 42.51972 V 0 H 64.488242 V 14.17324 H 85.03944 V 0 h 7.795282 V 21.25986 H 107.00796 V 43.228382 H 92.834722 V 63.77958 H 107.00796 V 85.748102 H 92.834722 V 107.00796 H 85.03944 V 92.834722 H 64.488242 V 107.00796 H 42.51972 V 92.834722 H 21.968522 V 107.00796 H 14.17324 V 85.748102 H 0 V 63.77958 H 14.17324 V 43.228382 H 0 V 21.25986 Z"
         id="polygon4572"
         inkscape:connector-curvature="0" />
    </g>
    <g
       id="g4578"
       transform="translate(22.500018,129.50798)">
      <path
         style="fill:none;stroke:#ff0000;stroke-width:0.90000075"
         d="m 14.17324,21.25986 v -7.08662 h 7.08662 V 0 H 43.228382 V 14.17324 H 63.77958 V 0 h 21.968522 v 14.17324 h 7.08662 v 7.08662 H 107.00796 V 43.228382 H 92.834722 V 63.77958 H 107.00796 V 85.748102 H 92.834722 v 7.08662 h -7.08662 V 107.00796 H 63.77958 V 92.834722 H 43.228382 V 107.00796 H 21.25986 V 92.834722 h -7.08662 v -7.08662 H 0 V 63.77958 H 14.17324 V 43.228382 H 0 V 21.25986 Z"
         id="polygon4576"
         inkscape:connector-curvature="0" />
    </g>
    <g
       id="g4582"
       transform="translate(129.50798,129.50798)">
      <path
         style="fill:none;stroke:#ff0000;stroke-width:0.90000075"
         d="m 14.17324,21.25986 v -7.08662 h 7.08662 V 0 H 43.228382 V 14.17324 H 63.77958 V 0 h 21.968522 v 14.17324 h 7.08662 v 7.08662 H 107.00796 V 43.228382 H 92.834722 V 63.77958 H 107.00796 V 85.748102 H 92.834722 v 7.08662 h -7.08662 V 107.00796 H 63.77958 V 92.834722 H 43.228382 V 107.00796 H 21.25986 V 92.834722 h -7.08662 v -7.08662 H 0 V 63.77958 H 14.17324 V 43.228382 H 0 V 21.25986 Z"
         id="polygon4580"
         inkscape:connector-curvature="0" />
    </g>
  </g>
</svg>
