<?xml version="1.0" encoding="UTF-8" standalone="no"?>
<!-- Created with Inkscape (http://www.inkscape.org/) -->

<svg
   xmlns:dc="http://purl.org/dc/elements/1.1/"
   xmlns:cc="http://creativecommons.org/ns#"
   xmlns:rdf="http://www.w3.org/1999/02/22-rdf-syntax-ns#"
   xmlns:svg="http://www.w3.org/2000/svg"
   xmlns="http://www.w3.org/2000/svg"
   xmlns:sodipodi="http://sodipodi.sourceforge.net/DTD/sodipodi-0.dtd"
   xmlns:inkscape="http://www.inkscape.org/namespaces/inkscape"
   width="210mm"
   height="297mm"
   viewBox="0 0 210 297"
   version="1.1"
   id="svg8"
   inkscape:version="0.92.1 r15371"
   sodipodi:docname="Distance Height.svg">
  <defs
     id="defs2" />
  <sodipodi:namedview
     id="base"
     pagecolor="#ffffff"
     bordercolor="#666666"
     borderopacity="1.0"
     inkscape:pageopacity="0.0"
     inkscape:pageshadow="2"
     inkscape:zoom="1.979899"
     inkscape:cx="122.04578"
     inkscape:cy="258.83096"
     inkscape:document-units="mm"
     inkscape:current-layer="layer1"
     showgrid="false"
     inkscape:window-width="1920"
     inkscape:window-height="1027"
     inkscape:window-x="-8"
     inkscape:window-y="1192"
     inkscape:window-maximized="1" />
  <metadata
     id="metadata5">
    <rdf:RDF>
      <cc:Work
         rdf:about="">
        <dc:format>image/svg+xml</dc:format>
        <dc:type
           rdf:resource="http://purl.org/dc/dcmitype/StillImage" />
        <dc:title></dc:title>
      </cc:Work>
    </rdf:RDF>
  </metadata>
  <g
     inkscape:label="Layer 1"
     inkscape:groupmode="layer"
     id="layer1">
    <g
       transform="matrix(-1,0,0,1,71.360826,166.40136)"
       id="layer1-2"
       inkscape:label="Layer 1">
      <rect
         transform="scale(-1,1)"
         y="14.861468"
         x="-60.764111"
         height="9.9133005"
         width="49.9133"
         id="rect4485"
         style="opacity:1;fill:none;fill-opacity:1;stroke:#ff0000;stroke-width:0.1;stroke-miterlimit:4;stroke-dasharray:none;stroke-opacity:1" />
      <ellipse
         transform="scale(-1,1)"
         ry="2.8591437"
         rx="2.859144"
         cy="19.914379"
         cx="-55.607269"
         id="path4493"
         style="opacity:1;fill:none;fill-opacity:1;stroke:#ff0000;stroke-width:0.082;stroke-miterlimit:4;stroke-dasharray:none;stroke-opacity:1" />
      <text
         transform="scale(-0.87524786,1.1425335)"
         id="text4506"
         y="19.359371"
         x="-36.65461"
         style="font-style:normal;font-weight:normal;font-size:5.49204731px;line-height:1.25;font-family:sans-serif;letter-spacing:0px;word-spacing:0px;fill:#000000;fill-opacity:1;stroke:none;stroke-width:0.13730118"
         xml:space="preserve"><tspan
           style="stroke-width:0.13730118"
           y="19.359371"
           x="-36.65461"
           id="tspan4504"
           sodipodi:role="line">9.5 mm</tspan></text>
    </g>
    <g
       transform="matrix(-1,0,0,1,71.359407,177.12911)"
       id="layer1-24"
       inkscape:label="Layer 1">
      <rect
         transform="scale(-1,1)"
         y="14.576187"
         x="-60.762691"
         height="10.197163"
         width="49.910461"
         id="rect4485-4"
         style="opacity:1;fill:none;fill-opacity:1;stroke:#ff0000;stroke-width:0.20283747;stroke-miterlimit:4;stroke-dasharray:none;stroke-opacity:1" />
      <g
         id="text4491"
         style="font-style:normal;font-weight:normal;font-size:6.34003448px;line-height:1.25;font-family:sans-serif;letter-spacing:0px;word-spacing:0px;fill:none;fill-opacity:1;stroke:#0000ff;stroke-width:0.15850087;stroke-opacity:1"
         transform="scale(-1.0832042,0.92318697)"
         aria-label="10 mm">
        <path
           inkscape:connector-curvature="0"
           id="path4495"
           style="fill:none;stroke:#0000ff;stroke-width:0.15850087;stroke-opacity:1"
           d="m -31.25646,23.91918 h -2.495151 v -0.47055 h 0.959674 v -3.089528 h -0.959674 v -0.421018 q 0.195031,0 0.417923,-0.03096 0.222891,-0.03405 0.337433,-0.09597 0.142403,-0.07739 0.222892,-0.195031 0.08358,-0.120733 0.09597,-0.321955 h 0.479837 v 4.154456 h 0.941099 z" />
        <path
           inkscape:connector-curvature="0"
           id="path4497"
           style="fill:none;stroke:#0000ff;stroke-width:0.15850087;stroke-opacity:1"
           d="m -26.962697,21.612869 q 0,1.241383 -0.39006,1.823379 -0.386965,0.578899 -1.204235,0.578899 -0.829653,0 -1.213523,-0.588187 -0.380773,-0.588186 -0.380773,-1.8079 0,-1.229001 0.386965,-1.814092 0.386965,-0.588187 1.207331,-0.588187 0.829653,0 1.210426,0.597474 0.383869,0.594378 0.383869,1.798614 z m -0.814174,1.405456 q 0.10835,-0.250753 0.145499,-0.588186 0.04024,-0.34053 0.04024,-0.81727 0,-0.47055 -0.04024,-0.817271 -0.03715,-0.34672 -0.148595,-0.588186 -0.10835,-0.238371 -0.297189,-0.359104 -0.185743,-0.120733 -0.479836,-0.120733 -0.290998,0 -0.482933,0.120733 -0.188839,0.120733 -0.300285,0.365295 -0.105254,0.229083 -0.145498,0.597474 -0.03715,0.368391 -0.03715,0.807983 0,0.482932 0.03405,0.807983 0.03405,0.32505 0.145499,0.581995 0.102159,0.241466 0.287902,0.368391 0.188839,0.126924 0.498411,0.126924 0.290997,0 0.482932,-0.120733 0.191935,-0.120733 0.297189,-0.365295 z" />
        <path
           inkscape:connector-curvature="0"
           id="path4499"
           style="fill:none;stroke:#0000ff;stroke-width:0.15850087;stroke-opacity:1"
           d="m -18.690933,23.91918 h -0.581995 v -1.968878 q 0,-0.222892 -0.02167,-0.430305 -0.01857,-0.207413 -0.08358,-0.331242 -0.0712,-0.133116 -0.204317,-0.201222 -0.133116,-0.06811 -0.38387,-0.06811 -0.244561,0 -0.489123,0.123829 -0.244562,0.120733 -0.489124,0.309572 0.0093,0.0712 0.01548,0.167169 0.0062,0.09287 0.0062,0.185743 v 2.21344 h -0.581995 v -1.968878 q 0,-0.229083 -0.02167,-0.433401 -0.01857,-0.207413 -0.08358,-0.331242 -0.0712,-0.133116 -0.204317,-0.198126 -0.133116,-0.06811 -0.38387,-0.06811 -0.23837,0 -0.479836,0.117638 -0.238371,0.117637 -0.476741,0.300284 v 2.581831 h -0.581996 v -3.457919 h 0.581996 v 0.383869 q 0.272423,-0.225988 0.541751,-0.352912 0.272423,-0.126925 0.578899,-0.126925 0.352913,0 0.597474,0.148595 0.247658,0.148595 0.368391,0.411731 0.352912,-0.297189 0.64391,-0.42721 0.290998,-0.133116 0.62224,-0.133116 0.569612,0 0.83894,0.346721 0.272423,0.343625 0.272423,0.962769 z" />
        <path
           inkscape:connector-curvature="0"
           id="path4501"
           style="fill:none;stroke:#0000ff;stroke-width:0.15850087;stroke-opacity:1"
           d="m -12.524258,23.91918 h -0.581996 v -1.968878 q 0,-0.222892 -0.02167,-0.430305 -0.01857,-0.207413 -0.08358,-0.331242 -0.0712,-0.133116 -0.204318,-0.201222 -0.133116,-0.06811 -0.383869,-0.06811 -0.244562,0 -0.489124,0.123829 -0.244562,0.120733 -0.489124,0.309572 0.0093,0.0712 0.01548,0.167169 0.0062,0.09287 0.0062,0.185743 v 2.21344 h -0.581996 v -1.968878 q 0,-0.229083 -0.02167,-0.433401 -0.01857,-0.207413 -0.08358,-0.331242 -0.0712,-0.133116 -0.204318,-0.198126 -0.133116,-0.06811 -0.383869,-0.06811 -0.238371,0 -0.479837,0.117638 -0.23837,0.117637 -0.476741,0.300284 v 2.581831 h -0.581995 v -3.457919 h 0.581995 v 0.383869 q 0.272424,-0.225988 0.541751,-0.352912 0.272424,-0.126925 0.5789,-0.126925 0.352912,0 0.597474,0.148595 0.247658,0.148595 0.368391,0.411731 0.352912,-0.297189 0.643909,-0.42721 0.290998,-0.133116 0.62224,-0.133116 0.569613,0 0.83894,0.346721 0.272424,0.343625 0.272424,0.962769 z" />
      </g>
      <ellipse
         transform="scale(-1,1)"
         ry="2.8591437"
         rx="2.859144"
         cy="19.914379"
         cx="-55.607269"
         id="path4493-7"
         style="opacity:1;fill:none;fill-opacity:1;stroke:#ff0000;stroke-width:0.082;stroke-miterlimit:4;stroke-dasharray:none;stroke-opacity:1" />
    </g>
  </g>
</svg>
