<?xml version="1.0" encoding="UTF-8" standalone="no"?>
<!-- Created with Inkscape (http://www.inkscape.org/) -->

<svg
   xmlns:dc="http://purl.org/dc/elements/1.1/"
   xmlns:cc="http://creativecommons.org/ns#"
   xmlns:rdf="http://www.w3.org/1999/02/22-rdf-syntax-ns#"
   xmlns:svg="http://www.w3.org/2000/svg"
   xmlns="http://www.w3.org/2000/svg"
   xmlns:sodipodi="http://sodipodi.sourceforge.net/DTD/sodipodi-0.dtd"
   xmlns:inkscape="http://www.inkscape.org/namespaces/inkscape"
   width="94.355843mm"
   height="113.30841mm"
   viewBox="0 0 94.355841 113.30841"
   version="1.1"
   id="svg8"
   inkscape:version="0.92.1 r15371"
   sodipodi:docname="Owl.svg">
  <defs
     id="defs2" />
  <sodipodi:namedview
     id="base"
     pagecolor="#ffffff"
     bordercolor="#666666"
     borderopacity="1.0"
     inkscape:pageopacity="0.0"
     inkscape:pageshadow="2"
     inkscape:zoom="0.9899495"
     inkscape:cx="168.73616"
     inkscape:cy="163.5866"
     inkscape:document-units="mm"
     inkscape:current-layer="layer1"
     showgrid="false"
     inkscape:window-width="1920"
     inkscape:window-height="1027"
     inkscape:window-x="-8"
     inkscape:window-y="-8"
     inkscape:window-maximized="1"
     fit-margin-top="0"
     fit-margin-left="0"
     fit-margin-right="0"
     fit-margin-bottom="0" />
  <metadata
     id="metadata5">
    <rdf:RDF>
      <cc:Work
         rdf:about="">
        <dc:format>image/svg+xml</dc:format>
        <dc:type
           rdf:resource="http://purl.org/dc/dcmitype/StillImage" />
        <dc:title></dc:title>
      </cc:Work>
    </rdf:RDF>
  </metadata>
  <g
     inkscape:label="Layer 1"
     inkscape:groupmode="layer"
     id="layer1"
     transform="translate(-40.021755,-45.079326)">
    <path
       style="fill:none;stroke:#ff0000;stroke-width:0.10749083;stroke-linecap:butt;stroke-linejoin:miter;stroke-miterlimit:4;stroke-dasharray:none;stroke-opacity:1"
       d="m 60.315729,47.371264 c 0,0 -6.379622,15.727178 -4.032262,41.081084 0,0 -19.637216,26.941532 -15.681012,45.138392 0.749874,3.44912 7.019123,-7.10039 7.019123,-7.10039 l 2.538828,7.77667 4.778975,-1.85966 c 2.600269,9.16728 6.163772,12.0211 15.047317,17.23371 -0.669217,1.57546 -2.801181,5.25099 -2.801181,5.25099 l 3.434884,-0.67623 1.045391,3.21211 2.688171,-2.874 3.28555,2.02871 0.149441,-4.9027 c 9.379126,3.30445 10.188748,2.40144 17.525049,0.94536 l -0.201206,4.4645 3.434893,-2.36679 3.43489,3.55018 0.59739,-3.71926 4.03224,0.16921 -3.43488,-5.57894 c 0,0 11.27658,-3.958 15.9797,-16.9058 l 4.33093,2.3668 2.38948,-8.791 c 0,0 7.29503,11.01387 7.99514,7.06788 3.9159,-22.06913 -18.95065,-41.365252 -18.74783,-46.627411 1.19075,-30.888505 -6.12304,-41.081053 -6.12304,-41.081053 0,0 -8.70205,12.989016 -11.947469,12.341184 C 90.270673,56.160766 84.301924,54.863331 72.860695,58.191081 69.210752,59.252651 60.3159,47.371358 60.3159,47.371358 Z"
       id="path4496"
       inkscape:connector-curvature="0"
       sodipodi:nodetypes="ccsccccccccccccccccccccsscssc" />
    <path
       style="fill:none;stroke:#ff0000;stroke-width:0.10749083;stroke-linecap:butt;stroke-linejoin:miter;stroke-miterlimit:4;stroke-dasharray:none;stroke-opacity:1"
       d="m 82.327007,90.841697 6.289205,-0.02429 -2.912165,7.438582 z"
       id="path4498"
       inkscape:connector-curvature="0"
       sodipodi:nodetypes="cccc" />
    <path
       style="fill:none;stroke:#ff0000;stroke-width:0.10749083;stroke-linecap:butt;stroke-linejoin:miter;stroke-miterlimit:4;stroke-dasharray:none;stroke-opacity:1"
       d="m 70.023014,109.337 c 0,0 5.275368,9.25894 10.093466,-0.31939 0,0 -0.262985,7.78977 -5.202146,7.7108 -4.919257,-0.0785 -4.89132,-7.39141 -4.89132,-7.39141"
       id="path4500"
       inkscape:connector-curvature="0"
       sodipodi:nodetypes="cssc" />
    <path
       style="fill:none;stroke:#ff0000;stroke-width:0.10749083;stroke-linecap:butt;stroke-linejoin:miter;stroke-miterlimit:4;stroke-dasharray:none;stroke-opacity:1"
       d="m 90.517196,109.0751 c 0,0 5.27538,9.25896 10.093494,-0.31935 0,0 -0.263,7.78977 -5.202165,7.71079 -4.919273,-0.0785 -4.891329,-7.39144 -4.891329,-7.39144"
       id="path4500-5"
       inkscape:connector-curvature="0"
       sodipodi:nodetypes="cssc" />
    <path
       style="fill:none;stroke:#ff0000;stroke-width:0.10749083;stroke-linecap:butt;stroke-linejoin:miter;stroke-miterlimit:4;stroke-dasharray:none;stroke-opacity:1"
       d="m 75.099387,118.57872 c 0,0 5.275375,9.25894 10.09346,-0.31939 0,0 -0.262998,7.78977 -5.202146,7.7108 -4.91925,-0.0785 -4.891314,-7.39141 -4.891314,-7.39141"
       id="path4500-4"
       inkscape:connector-curvature="0"
       sodipodi:nodetypes="cssc" />
    <path
       style="fill:none;stroke:#ff0000;stroke-width:0.10749083;stroke-linecap:butt;stroke-linejoin:miter;stroke-miterlimit:4;stroke-dasharray:none;stroke-opacity:1"
       d="m 85.192847,118.25933 c 0,0 5.275365,9.25896 10.093476,-0.31933 0,0 -0.262998,7.78974 -5.202162,7.71077 -4.919258,-0.0786 -4.891314,-7.39144 -4.891314,-7.39144"
       id="path4500-3"
       inkscape:connector-curvature="0"
       sodipodi:nodetypes="cssc" />
    <path
       style="fill:none;stroke:#ff0000;stroke-width:0.10749083;stroke-linecap:butt;stroke-linejoin:miter;stroke-miterlimit:4;stroke-dasharray:none;stroke-opacity:1"
       d="m 80.313461,129.15816 c 0,0 5.275348,9.25897 10.093459,-0.31936 0,0 -0.263248,7.78974 -5.202177,7.71078 -4.91926,-0.0785 -4.891282,-7.39142 -4.891282,-7.39142"
       id="path4500-2"
       inkscape:connector-curvature="0"
       sodipodi:nodetypes="cssc" />
    <path
       style="fill:none;stroke:#ff0000;stroke-width:0.10749083;stroke-linecap:butt;stroke-linejoin:miter;stroke-miterlimit:4;stroke-dasharray:none;stroke-opacity:1"
       d="m 60.933208,94.429312 c 0,0 22.141067,52.871898 -2.428835,34.906258 -1.138974,-0.83286 -2.132765,1.36832 -2.132765,1.36832 0,0 0.423686,-7.73531 1.921563,-5.67183 14.389701,19.82317 2.640037,-30.602748 2.640037,-30.602748 z"
       id="path4535"
       inkscape:connector-curvature="0"
       sodipodi:nodetypes="cscsc" />
    <path
       style="fill:none;stroke:#ff0000;stroke-width:0.10749083;stroke-linecap:butt;stroke-linejoin:miter;stroke-miterlimit:4;stroke-dasharray:none;stroke-opacity:1"
       d="m 112.36949,93.466055 c 0,0 -22.141072,52.871885 2.42884,34.906245 1.13896,-0.83286 2.13275,1.3683 2.13275,1.3683 0,0 -0.4237,-7.7353 -1.92157,-5.67183 -14.38971,19.82316 -2.64002,-30.602715 -2.64002,-30.602715 z"
       id="path4535-0"
       inkscape:connector-curvature="0"
       sodipodi:nodetypes="cscsc" />
    <path
       style="fill:none;stroke:#fd0000;stroke-width:0.10749083;stroke-linecap:butt;stroke-linejoin:miter;stroke-miterlimit:4;stroke-dasharray:none;stroke-opacity:1"
       d="m 63.451925,66.89747 c 0,0 17.755549,-5.66177 18.219833,10.904192 0.525301,18.741781 -17.47312,13.186544 -17.47312,13.186544 0,0 14.121012,0.09069 14.262272,-11.834068 C 78.625374,65.269831 63.451925,66.89747 63.451925,66.89747 Z"
       id="path4561"
       inkscape:connector-curvature="0"
       sodipodi:nodetypes="cscsc" />
    <path
       style="fill:none;stroke:#fd0000;stroke-width:0.10749083;stroke-linecap:butt;stroke-linejoin:miter;stroke-miterlimit:4;stroke-dasharray:none;stroke-opacity:1"
       d="m 105.92008,65.584488 c 0,0 -17.755528,-5.661769 -18.219835,10.904229 -0.52526,18.741766 17.473155,13.18653 17.473155,13.18653 0,0 -14.121005,0.09069 -14.262273,-11.834039 C 90.74639,63.95685 105.92008,65.584488 105.92008,65.584488 Z"
       id="path4561-9"
       inkscape:connector-curvature="0"
       sodipodi:nodetypes="cscsc" />
    <path
       style="fill:none;stroke:#fd0000;stroke-width:0.10749083;stroke-linecap:butt;stroke-linejoin:miter;stroke-miterlimit:4;stroke-dasharray:none;stroke-opacity:1"
       d="m 70.637216,72.445055 c 0,0 2.448885,-0.916012 4.788465,1.602842 2.0301,2.18567 1.245891,8.238796 -1.767633,9.150405 -6.425067,1.943681 -8.594073,-4.984983 -8.594073,-4.984983 0,0 4.539023,2.417308 6.297148,0.724081 2.670495,-2.571959 -0.723907,-6.492345 -0.723907,-6.492345 z"
       id="path4561-1"
       inkscape:connector-curvature="0"
       sodipodi:nodetypes="csscsc" />
    <path
       style="fill:none;stroke:#fd0000;stroke-width:0.10749083;stroke-linecap:butt;stroke-linejoin:miter;stroke-miterlimit:4;stroke-dasharray:none;stroke-opacity:1"
       d="m 98.621674,71.995334 c 0,0 -2.44886,-0.916056 -4.788415,1.602803 -2.030135,2.185684 -1.245955,8.23881 1.767564,9.150434 6.425117,1.943666 8.594097,-4.984983 8.594097,-4.984983 0,0 -4.539024,2.417323 -6.29715,0.724066 -2.670501,-2.571929 0.723904,-6.49232 0.723904,-6.49232 z"
       id="path4561-1-4"
       inkscape:connector-curvature="0"
       sodipodi:nodetypes="csscsc" />
  </g>
</svg>
