<?xml version="1.0" encoding="UTF-8" standalone="no"?>
<!-- Created with Inkscape (http://www.inkscape.org/) -->

<svg
   xmlns:dc="http://purl.org/dc/elements/1.1/"
   xmlns:cc="http://creativecommons.org/ns#"
   xmlns:rdf="http://www.w3.org/1999/02/22-rdf-syntax-ns#"
   xmlns:svg="http://www.w3.org/2000/svg"
   xmlns="http://www.w3.org/2000/svg"
   xmlns:sodipodi="http://sodipodi.sourceforge.net/DTD/sodipodi-0.dtd"
   xmlns:inkscape="http://www.inkscape.org/namespaces/inkscape"
   width="59.589951mm"
   height="103.36305mm"
   viewBox="0 0 59.58995 103.36305"
   version="1.1"
   id="svg8"
   inkscape:version="0.92.1 r15371"
   sodipodi:docname="WeatherBox_Front.svg">
  <sodipodi:namedview
     id="base"
     pagecolor="#ffffff"
     bordercolor="#666666"
     borderopacity="1.0"
     inkscape:pageopacity="0.0"
     inkscape:pageshadow="2"
     inkscape:zoom="2.1968193"
     inkscape:cx="112.65876"
     inkscape:cy="197.33073"
     inkscape:document-units="mm"
     inkscape:current-layer="layer1"
     showgrid="true"
     showguides="false"
     inkscape:guide-bbox="true"
     inkscape:window-width="1920"
     inkscape:window-height="1027"
     inkscape:window-x="-8"
     inkscape:window-y="-8"
     inkscape:window-maximized="1"
     inkscape:measure-start="51.3205,32.4871"
     inkscape:measure-end="51.3133,0.537885"
     inkscape:snap-intersection-paths="true"
     inkscape:snap-center="true"
     inkscape:snap-midpoints="true"
     fit-margin-top="0"
     fit-margin-left="0"
     fit-margin-right="0"
     fit-margin-bottom="0">
    <inkscape:grid
       type="xygrid"
       id="grid6865"
       visible="false"
       enabled="false"
       originx="-54.817706"
       originy="-230.82285" />
  </sodipodi:namedview>
  <defs
     id="defs2" />
  <metadata
     id="metadata5">
    <rdf:RDF>
      <cc:Work
         rdf:about="">
        <dc:format>image/svg+xml</dc:format>
        <dc:type
           rdf:resource="http://purl.org/dc/dcmitype/StillImage" />
        <dc:title />
      </cc:Work>
    </rdf:RDF>
  </metadata>
  <g
     inkscape:label="Layer 1"
     inkscape:groupmode="layer"
     id="layer1"
     transform="translate(-54.8177,37.185943)">
    <g
       id="g7899"
       transform="translate(-0.27150844,-23.603606)"
       style="fill:none;fill-opacity:1;stroke:#ff0000;stroke-opacity:1">
      <g
         id="g10258"
         style="fill:none;fill-opacity:1;stroke:#ff0000;stroke-opacity:1" />
    </g>
    <rect
       style="opacity:1;fill:none;fill-opacity:1;stroke:#ff0000;stroke-width:0.20107278;stroke-linecap:butt;stroke-miterlimit:4;stroke-dasharray:none;stroke-dashoffset:0;stroke-opacity:1"
       id="rect4496"
       width="42.643986"
       height="61.298927"
       x="63.219872"
       y="-19.650183" />
    <path
       style="fill:none;stroke:#ff0000;stroke-width:0.2;stroke-linecap:butt;stroke-linejoin:miter;stroke-miterlimit:4;stroke-dasharray:none;stroke-opacity:1"
       d="m 54.936725,-19.242048 c -0.186646,-13.482718 3.573036,-19.778479 15.678916,-19.936761 0.231335,-0.003 0.921162,-0.02067 0.921162,-0.02067 v 3.951894 h 5.5 v -3.875304 l 15.000334,-0.06814 0.036,3.943444 h 5.447 v -3.942701 l 1.483124,0.06852 c 13.512449,-0.08705 15.836159,7.187401 15.230619,18.976022 -0.001,0.220003 0.007,0.903696 0.007,0.903696 h -3.7419 v 5.342095 h 3.7419 l -0.10851,21.1162344 h -3.7419 l 0.003,5.3395476 h 3.7368 l 0.11092,22.706298 h -3.7419 v 5.342094 h 3.7419 c 0,0 0.0598,3.668591 0.0598,4.336762 0.11474,11.338458 -4.22237,12.448416 -12.55582,12.525112 l -4e-5,8.610891 -33.350792,-0.04219 c 6.35e-4,-1.44566 0.0019,-4.83713 0.0019,-8.453226 C 58.168715,57.457847 54.811594,54.803772 55.04808,45.607437 55.059517,45.1627 54.936737,40.604221 54.936737,40.604221 h 3.741897 v -5.342094 h -3.741897 l -1.6e-5,-22.703751 h 3.741898 V 7.2162814 h -3.741898 l 4e-6,-21.1162344 h 3.741898 v -5.342095 z"
       id="path4515"
       inkscape:connector-curvature="0"
       sodipodi:nodetypes="cscccccccccccccccccccccccccccscccccccccccc" />
    <rect
       style="opacity:1;fill:none;fill-opacity:1;stroke:#ff0000;stroke-width:0.2;stroke-linecap:butt;stroke-miterlimit:4;stroke-dasharray:none;stroke-dashoffset:0;stroke-opacity:1"
       id="rect4551"
       width="5.2671838"
       height="3.6671834"
       x="71.124046"
       y="54.18161" />
    <rect
       style="opacity:1;fill:none;fill-opacity:1;stroke:#ff0000;stroke-width:0.2;stroke-linecap:butt;stroke-miterlimit:4;stroke-dasharray:none;stroke-dashoffset:0;stroke-opacity:1"
       id="rect4551-0"
       width="5.2671838"
       height="3.6671834"
       x="93.311287"
       y="54.218597" />
    <path
       style="fill:none;stroke:#0000ff;stroke-width:0.2;stroke-linecap:butt;stroke-linejoin:miter;stroke-miterlimit:4;stroke-dasharray:none;stroke-opacity:1"
       d="m 80.507811,53.323906 c 0,0 6.065904,0.122307 8.102564,-0.02564 0.782821,-0.05687 1.827846,-0.67687 1.846154,-1.46154 0.03313,-1.419775 -1.692306,-1.28205 -1.692306,-1.28205 0,0 0.114203,-1.535211 -1.076924,-1.974359 -1.077678,-0.397321 -1.974358,0.358974 -1.974358,0.358974 0,0 -1.139362,-1.873299 -2.69231,-1.743589 -2.739319,0.228801 -2.666666,3.205129 -2.666666,3.205129 0,0 -1.259769,-0.429146 -1.461538,1.615384 -0.115432,1.169674 1.615384,1.307691 1.615384,1.307691 z"
       id="path6601"
       inkscape:connector-curvature="0"
       sodipodi:nodetypes="csscscscsc" />
    <path
       style="fill:none;stroke:#0000ff;stroke-width:0.26458332px;stroke-linecap:butt;stroke-linejoin:miter;stroke-opacity:1"
       d="m 87.47284,45.342037 -0.116295,-1.26392"
       id="path6603"
       inkscape:connector-curvature="0"
       sodipodi:nodetypes="cc" />
    <path
       style="fill:none;stroke:#0000ff;stroke-width:0.26458332px;stroke-linecap:butt;stroke-linejoin:miter;stroke-opacity:1"
       d="M 90.174478,46.888009 C 91.22576,46.298264 91.22576,46.298264 91.22576,46.298264"
       id="path6605"
       inkscape:connector-curvature="0" />
    <path
       style="fill:none;stroke:#0000ff;stroke-width:0.26458332px;stroke-linecap:butt;stroke-linejoin:miter;stroke-opacity:1"
       d="m 84.943708,46.862369 c -1.128205,-0.71795 -1.128205,-0.71795 -1.128205,-0.71795"
       id="path6609"
       inkscape:connector-curvature="0" />
    <path
       style="fill:none;stroke:#0000ff;stroke-width:0.26458332px;stroke-linecap:butt;stroke-linejoin:miter;stroke-opacity:1"
       d="m 89.764222,49.452111 1.153846,0.74359"
       id="path6626"
       inkscape:connector-curvature="0" />
    <path
       style="fill:none;stroke:#0000ff;stroke-width:0.2;stroke-linecap:butt;stroke-linejoin:miter;stroke-miterlimit:4;stroke-dasharray:none;stroke-opacity:1"
       d="m 85.779548,48.888524 c 0,0 -0.86122,-2.237547 1.416926,-2.748503 1.233252,-0.276601 2.217018,0.91478 2.247875,1.783983 0.03686,1.038348 -0.795021,1.729253 -0.795021,1.729253"
       id="path6628"
       inkscape:connector-curvature="0"
       sodipodi:nodetypes="cssc" />
    <path
       style="fill:none;stroke:#0000ff;stroke-width:0.26458332px;stroke-linecap:butt;stroke-linejoin:miter;stroke-opacity:1"
       d="M 86.009708,45.736799 85.248207,44.703336"
       id="path6647"
       inkscape:connector-curvature="0"
       sodipodi:nodetypes="cc" />
    <path
       style="fill:none;stroke:#0000ff;stroke-width:0.26458332px;stroke-linecap:butt;stroke-linejoin:miter;stroke-opacity:1"
       d="M 89.019444,45.93624 C 89.88973,44.648944 89.88973,44.648944 89.88973,44.648944"
       id="path6649"
       inkscape:connector-curvature="0" />
    <path
       style="fill:none;stroke:#0000ff;stroke-width:0.26458332px;stroke-linecap:butt;stroke-linejoin:miter;stroke-opacity:1"
       d="m 89.998516,48.311394 c 1.414214,0.235701 1.414214,0.235701 1.414214,0.235701"
       id="path6651"
       inkscape:connector-curvature="0" />
    <path
       style="fill:#000000;fill-opacity:1;stroke:none;stroke-width:0.2;stroke-linecap:butt;stroke-linejoin:miter;stroke-miterlimit:4;stroke-dasharray:none;stroke-opacity:1"
       d="m 79.97801,-24.517778 c 0,0 6.065904,0.122307 8.102564,-0.02564 0.782821,-0.05687 1.827846,-0.67687 1.846154,-1.46154 0.03313,-1.419776 -1.692306,-1.282049 -1.692306,-1.282049 0,0 0.114203,-1.535212 -1.076924,-1.97436 -1.077678,-0.397321 -1.974358,0.358974 -1.974358,0.358974 0,0 -1.139362,-1.873299 -2.69231,-1.743589 -2.739319,0.228802 -2.666666,3.20513 -2.666666,3.20513 0,0 -1.259769,-0.429146 -1.461538,1.615384 -0.115432,1.169674 1.615384,1.307691 1.615384,1.30769 z"
       id="path6601-3-4"
       inkscape:connector-curvature="0"
       sodipodi:nodetypes="csscscscsc" />
    <path
       style="fill:none;stroke:#0000ff;stroke-width:0.2;stroke-linecap:butt;stroke-linejoin:miter;stroke-miterlimit:4;stroke-dasharray:none;stroke-opacity:1"
       d="m 79.97801,-24.517778 c 0,0 6.065904,0.122307 8.102564,-0.02564 0.782821,-0.05687 1.827846,-0.67687 1.846154,-1.46154 0.03313,-1.419775 -1.692306,-1.282049 -1.692306,-1.282049 0,0 0.114203,-1.535212 -1.076924,-1.97436 -1.077678,-0.397321 -1.974358,0.358974 -1.974358,0.358974 0,0 -1.139362,-1.873299 -2.69231,-1.743589 -2.739319,0.228802 -2.666666,3.20513 -2.666666,3.20513 0,0 -1.259769,-0.429146 -1.461538,1.615384 -0.115432,1.169674 1.615384,1.307691 1.615384,1.30769 z"
       id="path6601-4"
       inkscape:connector-curvature="0"
       sodipodi:nodetypes="csscscscsc" />
    <path
       style="fill:none;stroke:#0000ff;stroke-width:0.26458332px;stroke-linecap:butt;stroke-linejoin:miter;stroke-opacity:1"
       d="m 86.943039,-32.499647 -0.116295,-1.26392"
       id="path6603-9"
       inkscape:connector-curvature="0"
       sodipodi:nodetypes="cc" />
    <path
       style="fill:none;stroke:#0000ff;stroke-width:0.26458332px;stroke-linecap:butt;stroke-linejoin:miter;stroke-opacity:1"
       d="m 89.644677,-30.953675 c 1.051282,-0.589745 1.051282,-0.589745 1.051282,-0.589745"
       id="path6605-3"
       inkscape:connector-curvature="0" />
    <path
       style="fill:none;stroke:#0000ff;stroke-width:0.26458332px;stroke-linecap:butt;stroke-linejoin:miter;stroke-opacity:1"
       d="m 84.413907,-30.979315 c -1.128205,-0.71795 -1.128205,-0.71795 -1.128205,-0.71795"
       id="path6609-0"
       inkscape:connector-curvature="0" />
    <path
       style="fill:none;stroke:#0000ff;stroke-width:0.26458332px;stroke-linecap:butt;stroke-linejoin:miter;stroke-opacity:1"
       d="m 89.234421,-28.389573 1.153846,0.74359"
       id="path6626-2"
       inkscape:connector-curvature="0" />
    <path
       style="fill:none;stroke:#0000ff;stroke-width:0.2;stroke-linecap:butt;stroke-linejoin:miter;stroke-miterlimit:4;stroke-dasharray:none;stroke-opacity:1"
       d="m 85.249747,-28.95316 c 0,0 -0.86122,-2.237547 1.416926,-2.748503 1.233252,-0.276601 2.217018,0.91478 2.247875,1.783983 0.03686,1.038348 -0.795021,1.729253 -0.795021,1.729253"
       id="path6628-8"
       inkscape:connector-curvature="0"
       sodipodi:nodetypes="cssc" />
    <path
       style="fill:none;stroke:#0000ff;stroke-width:0.26458332px;stroke-linecap:butt;stroke-linejoin:miter;stroke-opacity:1"
       d="m 85.479907,-32.104885 -0.761501,-1.033463"
       id="path6647-7"
       inkscape:connector-curvature="0"
       sodipodi:nodetypes="cc" />
    <path
       style="fill:none;stroke:#0000ff;stroke-width:0.26458332px;stroke-linecap:butt;stroke-linejoin:miter;stroke-opacity:1"
       d="m 88.489643,-31.905444 c 0.870286,-1.287296 0.870286,-1.287296 0.870286,-1.287296"
       id="path6649-0"
       inkscape:connector-curvature="0" />
    <path
       style="fill:none;stroke:#0000ff;stroke-width:0.26458332px;stroke-linecap:butt;stroke-linejoin:miter;stroke-opacity:1"
       d="m 89.468715,-29.53029 c 1.414214,0.235701 1.414214,0.235701 1.414214,0.235701"
       id="path6651-0"
       inkscape:connector-curvature="0" />
    <path
       style="fill:none;stroke:#0000ff;stroke-width:0.26458332px;stroke-linecap:butt;stroke-linejoin:miter;stroke-opacity:1"
       d="m 80.301239,-22.269974 1.243525,-1.84411"
       id="path6603-9-9"
       inkscape:connector-curvature="0"
       sodipodi:nodetypes="cc" />
    <path
       style="fill:none;stroke:#0000ff;stroke-width:0.26458332px;stroke-linecap:butt;stroke-linejoin:miter;stroke-opacity:1"
       d="m 82.172072,-22.269974 1.243525,-1.84411"
       id="path6603-9-9-2"
       inkscape:connector-curvature="0"
       sodipodi:nodetypes="cc" />
    <path
       style="fill:none;stroke:#0000ff;stroke-width:0.26458332px;stroke-linecap:butt;stroke-linejoin:miter;stroke-opacity:1"
       d="m 84.042909,-22.269974 1.243525,-1.84411"
       id="path6603-9-9-1"
       inkscape:connector-curvature="0"
       sodipodi:nodetypes="cc" />
    <path
       style="fill:none;stroke:#0000ff;stroke-width:0.26458332px;stroke-linecap:butt;stroke-linejoin:miter;stroke-opacity:1"
       d="m 85.913743,-22.269974 1.243525,-1.84411"
       id="path6603-9-9-9"
       inkscape:connector-curvature="0"
       sodipodi:nodetypes="cc" />
    <path
       style="opacity:1;fill:none;fill-opacity:1;stroke:#ff0000;stroke-width:0.25505331;stroke-linecap:butt;stroke-miterlimit:4;stroke-dasharray:none;stroke-dashoffset:0;stroke-opacity:1"
       d="m 65.187785,-14.281069 7.296803,-1.67e-4 v -3.665133 h 5.99982 v 3.665133 h 7.296801 V 9.0431115 l -0.999509,0.007 V 37.052302 h -6.297292 v 3.573084 h -5.99982 v -3.573084 h -7.296803 z"
       id="rect10118"
       inkscape:connector-curvature="0"
       sodipodi:nodetypes="ccccccccccccccc" />
    <rect
       style="opacity:1;fill:none;fill-opacity:1;stroke:#ff0000;stroke-width:0.14690223;stroke-linecap:butt;stroke-miterlimit:4;stroke-dasharray:none;stroke-dashoffset:0;stroke-opacity:1"
       id="rect10139"
       width="1.7530978"
       height="43.842915"
       x="75.484497"
       y="-10.581949" />
  </g>
</svg>
