M48
METRIC,TZ
T1C0.400
T2C0.500
T3C0.762
T4C1.200
%
G90
G05
T1
X80186Y-49681
X80811Y-64156
X81036Y-104906
X81036Y-122906
X81111Y-83506
X89161Y-129956
X90036Y-142406
X90461Y-47656
X96686Y-81006
X97936Y-84781
X99136Y-83381
X99536Y-104181
X100736Y-105381
X101861Y-74656
X105911Y-56231
X105936Y-122906
X105986Y-135431
X110236Y-74656
X113386Y-91306
X114136Y-83581
X114727Y-82774
X115271Y-104708
X115936Y-105456
X117786Y-122906
X119761Y-78481
X120961Y-89931
X121161Y-47731
X121211Y-142281
X123536Y-69981
X123886Y-125206
X124636Y-93906
X126686Y-113431
X127386Y-89956
X127486Y-103431
X128011Y-67706
X128235Y-108176
X128235Y-95682
X128336Y-107181
X128486Y-135381
X129101Y-96182
X129136Y-74431
X131211Y-49706
X132761Y-87156
X133636Y-117956
X133711Y-125181
X133986Y-99456
X134336Y-90231
X135086Y-71906
X135086Y-82831
X135587Y-100865
X136536Y-101181
X137336Y-63531
X138686Y-94481
X140411Y-107206
X140936Y-101781
X141536Y-102581
X141542Y-100974
X142136Y-88581
X142686Y-104931
X143586Y-99481
X145811Y-54381
X145861Y-64881
X146586Y-87206
X150061Y-94081
X150961Y-135431
X151011Y-122681
X155411Y-87206
X156336Y-48031
X156536Y-142506
X156986Y-99881
X157288Y-95131
X157736Y-109481
X158361Y-96381
X159661Y-96381
X160961Y-93231
X161111Y-88456
X161161Y-89881
X161586Y-80756
X162036Y-91381
X163711Y-121231
X163736Y-120231
X164211Y-64881
X164861Y-93006
X167286Y-73756
X168386Y-120281
X168386Y-121281
X168561Y-69831
X168561Y-70831
X168986Y-117756
X171636Y-54331
X172111Y-135431
X174736Y-120331
X174736Y-121331
X175311Y-70931
X175336Y-69931
X176311Y-73956
X177336Y-86181
X177911Y-92981
X178911Y-85156
X178921Y-102566
X179161Y-120331
X179161Y-120331
X179161Y-120331
X179186Y-121381
X180136Y-102181
X180136Y-103581
X180136Y-104581
X180136Y-105581
X181711Y-67031
X181961Y-89356
X183711Y-80806
X186136Y-69956
X187211Y-116956
X187336Y-48156
X187361Y-142331
X187436Y-125581
X187536Y-69256
X187536Y-86156
X189736Y-119406
X189811Y-70881
X189911Y-97631
X190986Y-101681
X191086Y-107681
X192311Y-118681
X194061Y-135456
X194136Y-54331
X199986Y-125481
T2
X122936Y-121581
X124246Y-121581
X125516Y-121581
X187536Y-67206
X188846Y-67206
X190116Y-67206
X132511Y-67156
X133821Y-67156
X135091Y-67156
X198736Y-122581
X200046Y-122581
X201316Y-122581
X198311Y-67181
X199621Y-67181
X200891Y-67181
X187736Y-122581
X189046Y-122581
X190316Y-122581
X132336Y-121581
X133646Y-121581
X134916Y-121581
X122236Y-67156
X123546Y-67156
X124816Y-67156
T3
X86336Y-50081
X86336Y-73081
X94336Y-50081
X94336Y-73081
X117336Y-50081
X117336Y-73081
X125336Y-50081
X125336Y-73081
X152336Y-50081
X152336Y-73081
X160336Y-50081
X160336Y-73081
X183336Y-50081
X183336Y-73081
X191336Y-50081
X191336Y-73081
X86336Y-117081
X86336Y-140081
X94336Y-117081
X94336Y-140081
X117336Y-117081
X117336Y-140081
X125336Y-117081
X125336Y-140081
X152336Y-117081
X152336Y-140081
X160336Y-117081
X160336Y-140081
X183336Y-117081
X183336Y-140081
X191336Y-117081
X191336Y-140081
T4
X196863Y-90161
X196863Y-93971
X196863Y-97781
X196863Y-101591
T0
M30
