M48
METRIC,TZ
T1C2.700
T2C3.500
T3C5.500
%
G90
G05
T1
X75586Y-45506
X138936Y-118256
X202386Y-45506
X202386Y-79256
X202386Y-110256
X75586Y-110256
X75586Y-79256
X75586Y-143581
X202386Y-143581
X138936Y-71031
T2
X80826Y-71141
X105826Y-49141
X130826Y-71141
X146826Y-71141
X171826Y-49141
X196826Y-71141
X80826Y-138141
X105826Y-116141
X130826Y-138141
X146826Y-138141
X171826Y-116141
X196826Y-138141
T3
X181336Y-128141
X115336Y-61141
X181336Y-61141
X115336Y-128141
T0
M30
