G04 #@! TF.GenerationSoftware,KiCad,Pcbnew,(5.1.2)-2*
G04 #@! TF.CreationDate,2019-10-17T08:09:51+02:00*
G04 #@! TF.ProjectId,StepperClock,53746570-7065-4724-936c-6f636b2e6b69,rev?*
G04 #@! TF.SameCoordinates,Original*
G04 #@! TF.FileFunction,Soldermask,Top*
G04 #@! TF.FilePolarity,Negative*
%FSLAX46Y46*%
G04 Gerber Fmt 4.6, Leading zero omitted, Abs format (unit mm)*
G04 Created by KiCad (PCBNEW (5.1.2)-2) date 2019-10-17 08:09:51*
%MOMM*%
%LPD*%
G04 APERTURE LIST*
%ADD10C,0.010000*%
%ADD11C,0.100000*%
G04 APERTURE END LIST*
D10*
G36*
X147099547Y-103359140D02*
G01*
X147644859Y-103359140D01*
X147446079Y-103560527D01*
X147116371Y-103923431D01*
X146901951Y-104197555D01*
X146823503Y-104301140D01*
X146728944Y-104421269D01*
X146628850Y-104544942D01*
X146533798Y-104659159D01*
X146454366Y-104750921D01*
X146429268Y-104778500D01*
X146347836Y-104865952D01*
X146417794Y-104957096D01*
X146553236Y-105146344D01*
X146640778Y-105285790D01*
X146695648Y-105368026D01*
X146756924Y-105447352D01*
X146762073Y-105453347D01*
X146831022Y-105536321D01*
X146911547Y-105638877D01*
X146994742Y-105749028D01*
X147071702Y-105854787D01*
X147133519Y-105944165D01*
X147169176Y-106001287D01*
X147204257Y-106054336D01*
X147262786Y-106132802D01*
X147334620Y-106223992D01*
X147409615Y-106315212D01*
X147477628Y-106393772D01*
X147514000Y-106432760D01*
X147537889Y-106458821D01*
X147580163Y-106506146D01*
X147588277Y-106515310D01*
X147649855Y-106584940D01*
X146523400Y-106584940D01*
X146523400Y-106506663D01*
X146506637Y-106430135D01*
X146459407Y-106324889D01*
X146386293Y-106198979D01*
X146291881Y-106060456D01*
X146204342Y-105946273D01*
X146133068Y-105854053D01*
X146067747Y-105763009D01*
X146020577Y-105690275D01*
X146014471Y-105679573D01*
X145974429Y-105613174D01*
X145939142Y-105565024D01*
X145930499Y-105556240D01*
X145895938Y-105517556D01*
X145855715Y-105460990D01*
X145818026Y-105412833D01*
X145787515Y-105391227D01*
X145786214Y-105391140D01*
X145777338Y-105415831D01*
X145770218Y-105487121D01*
X145765064Y-105600832D01*
X145762083Y-105752784D01*
X145761400Y-105887701D01*
X145762084Y-106067003D01*
X145764495Y-106203010D01*
X145769175Y-106303215D01*
X145776663Y-106375109D01*
X145787498Y-106426183D01*
X145802221Y-106463928D01*
X145803044Y-106465551D01*
X145838517Y-106525231D01*
X145870023Y-106563358D01*
X145872894Y-106565501D01*
X145857397Y-106571063D01*
X145798047Y-106576002D01*
X145701786Y-106580052D01*
X145575559Y-106582947D01*
X145426311Y-106584422D01*
X145374594Y-106584551D01*
X144848089Y-106584940D01*
X144877768Y-106515090D01*
X144905941Y-106456498D01*
X144928024Y-106421110D01*
X144931857Y-106391882D01*
X144935457Y-106316521D01*
X144938759Y-106199691D01*
X144941696Y-106046057D01*
X144944199Y-105860286D01*
X144946204Y-105647042D01*
X144947642Y-105410991D01*
X144948447Y-105156799D01*
X144948599Y-104985030D01*
X144948541Y-104681051D01*
X144948270Y-104423652D01*
X144947646Y-104208614D01*
X144946526Y-104031718D01*
X144944769Y-103888744D01*
X144942233Y-103775473D01*
X144938776Y-103687685D01*
X144934257Y-103621161D01*
X144928533Y-103571681D01*
X144921462Y-103535026D01*
X144912904Y-103506977D01*
X144902716Y-103483314D01*
X144897799Y-103473439D01*
X144867044Y-103411609D01*
X144848990Y-103372400D01*
X144846999Y-103366469D01*
X144871135Y-103364247D01*
X144938488Y-103362296D01*
X145041472Y-103360724D01*
X145172506Y-103359641D01*
X145324005Y-103359155D01*
X145357717Y-103359140D01*
X145530860Y-103359404D01*
X145659429Y-103360571D01*
X145749646Y-103363204D01*
X145807737Y-103367863D01*
X145839924Y-103375112D01*
X145852432Y-103385512D01*
X145851486Y-103399625D01*
X145849964Y-103403590D01*
X145816605Y-103492413D01*
X145792539Y-103580921D01*
X145776380Y-103679881D01*
X145766742Y-103800061D01*
X145762240Y-103952228D01*
X145761400Y-104091828D01*
X145761399Y-104511644D01*
X145837599Y-104438640D01*
X145885213Y-104388297D01*
X145911794Y-104351018D01*
X145913800Y-104344223D01*
X145928937Y-104318290D01*
X145968428Y-104264868D01*
X146023388Y-104194885D01*
X146084932Y-104119269D01*
X146144177Y-104048949D01*
X146192239Y-103994854D01*
X146219039Y-103968740D01*
X146241361Y-103941474D01*
X146279736Y-103885370D01*
X146307602Y-103841740D01*
X146365805Y-103754038D01*
X146428751Y-103667438D01*
X146451099Y-103639102D01*
X146495813Y-103572476D01*
X146521208Y-103511383D01*
X146523400Y-103495130D01*
X146523922Y-103451417D01*
X146529591Y-103418242D01*
X146546562Y-103394152D01*
X146580989Y-103377695D01*
X146639026Y-103367417D01*
X146726828Y-103361867D01*
X146850550Y-103359591D01*
X147016345Y-103359136D01*
X147099547Y-103359140D01*
X147099547Y-103359140D01*
G37*
X147099547Y-103359140D02*
X147644859Y-103359140D01*
X147446079Y-103560527D01*
X147116371Y-103923431D01*
X146901951Y-104197555D01*
X146823503Y-104301140D01*
X146728944Y-104421269D01*
X146628850Y-104544942D01*
X146533798Y-104659159D01*
X146454366Y-104750921D01*
X146429268Y-104778500D01*
X146347836Y-104865952D01*
X146417794Y-104957096D01*
X146553236Y-105146344D01*
X146640778Y-105285790D01*
X146695648Y-105368026D01*
X146756924Y-105447352D01*
X146762073Y-105453347D01*
X146831022Y-105536321D01*
X146911547Y-105638877D01*
X146994742Y-105749028D01*
X147071702Y-105854787D01*
X147133519Y-105944165D01*
X147169176Y-106001287D01*
X147204257Y-106054336D01*
X147262786Y-106132802D01*
X147334620Y-106223992D01*
X147409615Y-106315212D01*
X147477628Y-106393772D01*
X147514000Y-106432760D01*
X147537889Y-106458821D01*
X147580163Y-106506146D01*
X147588277Y-106515310D01*
X147649855Y-106584940D01*
X146523400Y-106584940D01*
X146523400Y-106506663D01*
X146506637Y-106430135D01*
X146459407Y-106324889D01*
X146386293Y-106198979D01*
X146291881Y-106060456D01*
X146204342Y-105946273D01*
X146133068Y-105854053D01*
X146067747Y-105763009D01*
X146020577Y-105690275D01*
X146014471Y-105679573D01*
X145974429Y-105613174D01*
X145939142Y-105565024D01*
X145930499Y-105556240D01*
X145895938Y-105517556D01*
X145855715Y-105460990D01*
X145818026Y-105412833D01*
X145787515Y-105391227D01*
X145786214Y-105391140D01*
X145777338Y-105415831D01*
X145770218Y-105487121D01*
X145765064Y-105600832D01*
X145762083Y-105752784D01*
X145761400Y-105887701D01*
X145762084Y-106067003D01*
X145764495Y-106203010D01*
X145769175Y-106303215D01*
X145776663Y-106375109D01*
X145787498Y-106426183D01*
X145802221Y-106463928D01*
X145803044Y-106465551D01*
X145838517Y-106525231D01*
X145870023Y-106563358D01*
X145872894Y-106565501D01*
X145857397Y-106571063D01*
X145798047Y-106576002D01*
X145701786Y-106580052D01*
X145575559Y-106582947D01*
X145426311Y-106584422D01*
X145374594Y-106584551D01*
X144848089Y-106584940D01*
X144877768Y-106515090D01*
X144905941Y-106456498D01*
X144928024Y-106421110D01*
X144931857Y-106391882D01*
X144935457Y-106316521D01*
X144938759Y-106199691D01*
X144941696Y-106046057D01*
X144944199Y-105860286D01*
X144946204Y-105647042D01*
X144947642Y-105410991D01*
X144948447Y-105156799D01*
X144948599Y-104985030D01*
X144948541Y-104681051D01*
X144948270Y-104423652D01*
X144947646Y-104208614D01*
X144946526Y-104031718D01*
X144944769Y-103888744D01*
X144942233Y-103775473D01*
X144938776Y-103687685D01*
X144934257Y-103621161D01*
X144928533Y-103571681D01*
X144921462Y-103535026D01*
X144912904Y-103506977D01*
X144902716Y-103483314D01*
X144897799Y-103473439D01*
X144867044Y-103411609D01*
X144848990Y-103372400D01*
X144846999Y-103366469D01*
X144871135Y-103364247D01*
X144938488Y-103362296D01*
X145041472Y-103360724D01*
X145172506Y-103359641D01*
X145324005Y-103359155D01*
X145357717Y-103359140D01*
X145530860Y-103359404D01*
X145659429Y-103360571D01*
X145749646Y-103363204D01*
X145807737Y-103367863D01*
X145839924Y-103375112D01*
X145852432Y-103385512D01*
X145851486Y-103399625D01*
X145849964Y-103403590D01*
X145816605Y-103492413D01*
X145792539Y-103580921D01*
X145776380Y-103679881D01*
X145766742Y-103800061D01*
X145762240Y-103952228D01*
X145761400Y-104091828D01*
X145761399Y-104511644D01*
X145837599Y-104438640D01*
X145885213Y-104388297D01*
X145911794Y-104351018D01*
X145913800Y-104344223D01*
X145928937Y-104318290D01*
X145968428Y-104264868D01*
X146023388Y-104194885D01*
X146084932Y-104119269D01*
X146144177Y-104048949D01*
X146192239Y-103994854D01*
X146219039Y-103968740D01*
X146241361Y-103941474D01*
X146279736Y-103885370D01*
X146307602Y-103841740D01*
X146365805Y-103754038D01*
X146428751Y-103667438D01*
X146451099Y-103639102D01*
X146495813Y-103572476D01*
X146521208Y-103511383D01*
X146523400Y-103495130D01*
X146523922Y-103451417D01*
X146529591Y-103418242D01*
X146546562Y-103394152D01*
X146580989Y-103377695D01*
X146639026Y-103367417D01*
X146726828Y-103361867D01*
X146850550Y-103359591D01*
X147016345Y-103359136D01*
X147099547Y-103359140D01*
G36*
X148682400Y-105322785D02*
G01*
X148682621Y-105594268D01*
X148683383Y-105819358D01*
X148684826Y-106002461D01*
X148687094Y-106147980D01*
X148690331Y-106260323D01*
X148694678Y-106343895D01*
X148700280Y-106403099D01*
X148707278Y-106442343D01*
X148715816Y-106466032D01*
X148719692Y-106472135D01*
X148745978Y-106509683D01*
X148756691Y-106537825D01*
X148746510Y-106557914D01*
X148710112Y-106571303D01*
X148642176Y-106579345D01*
X148537378Y-106583393D01*
X148390398Y-106584800D01*
X148276000Y-106584940D01*
X148125718Y-106584255D01*
X147994527Y-106582348D01*
X147890227Y-106579442D01*
X147820619Y-106575757D01*
X147793505Y-106571516D01*
X147793400Y-106571228D01*
X147803955Y-106542194D01*
X147830526Y-106485249D01*
X147844200Y-106457940D01*
X147857066Y-106430500D01*
X147867559Y-106400134D01*
X147875920Y-106361660D01*
X147882391Y-106309895D01*
X147887211Y-106239658D01*
X147890622Y-106145767D01*
X147892865Y-106023041D01*
X147894181Y-105866299D01*
X147894810Y-105670357D01*
X147894995Y-105430036D01*
X147895000Y-105365490D01*
X147894747Y-105108009D01*
X147893871Y-104896489D01*
X147892196Y-104726091D01*
X147889548Y-104591978D01*
X147885750Y-104489311D01*
X147880627Y-104413253D01*
X147874003Y-104358966D01*
X147865703Y-104321612D01*
X147856247Y-104297678D01*
X147817495Y-104222740D01*
X148682400Y-104222740D01*
X148682400Y-105322785D01*
X148682400Y-105322785D01*
G37*
X148682400Y-105322785D02*
X148682621Y-105594268D01*
X148683383Y-105819358D01*
X148684826Y-106002461D01*
X148687094Y-106147980D01*
X148690331Y-106260323D01*
X148694678Y-106343895D01*
X148700280Y-106403099D01*
X148707278Y-106442343D01*
X148715816Y-106466032D01*
X148719692Y-106472135D01*
X148745978Y-106509683D01*
X148756691Y-106537825D01*
X148746510Y-106557914D01*
X148710112Y-106571303D01*
X148642176Y-106579345D01*
X148537378Y-106583393D01*
X148390398Y-106584800D01*
X148276000Y-106584940D01*
X148125718Y-106584255D01*
X147994527Y-106582348D01*
X147890227Y-106579442D01*
X147820619Y-106575757D01*
X147793505Y-106571516D01*
X147793400Y-106571228D01*
X147803955Y-106542194D01*
X147830526Y-106485249D01*
X147844200Y-106457940D01*
X147857066Y-106430500D01*
X147867559Y-106400134D01*
X147875920Y-106361660D01*
X147882391Y-106309895D01*
X147887211Y-106239658D01*
X147890622Y-106145767D01*
X147892865Y-106023041D01*
X147894181Y-105866299D01*
X147894810Y-105670357D01*
X147894995Y-105430036D01*
X147895000Y-105365490D01*
X147894747Y-105108009D01*
X147893871Y-104896489D01*
X147892196Y-104726091D01*
X147889548Y-104591978D01*
X147885750Y-104489311D01*
X147880627Y-104413253D01*
X147874003Y-104358966D01*
X147865703Y-104321612D01*
X147856247Y-104297678D01*
X147817495Y-104222740D01*
X148682400Y-104222740D01*
X148682400Y-105322785D01*
G36*
X148441741Y-102456700D02*
G01*
X148559345Y-102523135D01*
X148652823Y-102625785D01*
X148696612Y-102711864D01*
X148727222Y-102850354D01*
X148718121Y-102988331D01*
X148670773Y-103109824D01*
X148658388Y-103128590D01*
X148567949Y-103216148D01*
X148449071Y-103276293D01*
X148316133Y-103306158D01*
X148183513Y-103302874D01*
X148065590Y-103263572D01*
X148044806Y-103250984D01*
X147962537Y-103172134D01*
X147894714Y-103063510D01*
X147852547Y-102946035D01*
X147844200Y-102876539D01*
X147863474Y-102767315D01*
X147913990Y-102652850D01*
X147984782Y-102553898D01*
X148040442Y-102505035D01*
X148172661Y-102444616D01*
X148309637Y-102429516D01*
X148441741Y-102456700D01*
X148441741Y-102456700D01*
G37*
X148441741Y-102456700D02*
X148559345Y-102523135D01*
X148652823Y-102625785D01*
X148696612Y-102711864D01*
X148727222Y-102850354D01*
X148718121Y-102988331D01*
X148670773Y-103109824D01*
X148658388Y-103128590D01*
X148567949Y-103216148D01*
X148449071Y-103276293D01*
X148316133Y-103306158D01*
X148183513Y-103302874D01*
X148065590Y-103263572D01*
X148044806Y-103250984D01*
X147962537Y-103172134D01*
X147894714Y-103063510D01*
X147852547Y-102946035D01*
X147844200Y-102876539D01*
X147863474Y-102767315D01*
X147913990Y-102652850D01*
X147984782Y-102553898D01*
X148040442Y-102505035D01*
X148172661Y-102444616D01*
X148309637Y-102429516D01*
X148441741Y-102456700D01*
D11*
G36*
X202704233Y-142215633D02*
G01*
X202794457Y-142233579D01*
X202900067Y-142277325D01*
X203049421Y-142339189D01*
X203049422Y-142339190D01*
X203278886Y-142492512D01*
X203474028Y-142687654D01*
X203576475Y-142840977D01*
X203627351Y-142917119D01*
X203732961Y-143172084D01*
X203786800Y-143442752D01*
X203786800Y-143718728D01*
X203732961Y-143989396D01*
X203627351Y-144244361D01*
X203627350Y-144244362D01*
X203474028Y-144473826D01*
X203278886Y-144668968D01*
X203125563Y-144771415D01*
X203049421Y-144822291D01*
X202900067Y-144884155D01*
X202794457Y-144927901D01*
X202704233Y-144945847D01*
X202523788Y-144981740D01*
X202247812Y-144981740D01*
X202067367Y-144945847D01*
X201977143Y-144927901D01*
X201871533Y-144884155D01*
X201722179Y-144822291D01*
X201646037Y-144771415D01*
X201492714Y-144668968D01*
X201297572Y-144473826D01*
X201144250Y-144244362D01*
X201144249Y-144244361D01*
X201038639Y-143989396D01*
X200984800Y-143718728D01*
X200984800Y-143442752D01*
X201038639Y-143172084D01*
X201144249Y-142917119D01*
X201195125Y-142840977D01*
X201297572Y-142687654D01*
X201492714Y-142492512D01*
X201722178Y-142339190D01*
X201722179Y-142339189D01*
X201871533Y-142277325D01*
X201977143Y-142233579D01*
X202067367Y-142215633D01*
X202247812Y-142179740D01*
X202523788Y-142179740D01*
X202704233Y-142215633D01*
X202704233Y-142215633D01*
G37*
G36*
X75904233Y-142215633D02*
G01*
X75994457Y-142233579D01*
X76100067Y-142277325D01*
X76249421Y-142339189D01*
X76249422Y-142339190D01*
X76478886Y-142492512D01*
X76674028Y-142687654D01*
X76776475Y-142840977D01*
X76827351Y-142917119D01*
X76932961Y-143172084D01*
X76986800Y-143442752D01*
X76986800Y-143718728D01*
X76932961Y-143989396D01*
X76827351Y-144244361D01*
X76827350Y-144244362D01*
X76674028Y-144473826D01*
X76478886Y-144668968D01*
X76325563Y-144771415D01*
X76249421Y-144822291D01*
X76100067Y-144884155D01*
X75994457Y-144927901D01*
X75904233Y-144945847D01*
X75723788Y-144981740D01*
X75447812Y-144981740D01*
X75267367Y-144945847D01*
X75177143Y-144927901D01*
X75071533Y-144884155D01*
X74922179Y-144822291D01*
X74846037Y-144771415D01*
X74692714Y-144668968D01*
X74497572Y-144473826D01*
X74344250Y-144244362D01*
X74344249Y-144244361D01*
X74238639Y-143989396D01*
X74184800Y-143718728D01*
X74184800Y-143442752D01*
X74238639Y-143172084D01*
X74344249Y-142917119D01*
X74395125Y-142840977D01*
X74497572Y-142687654D01*
X74692714Y-142492512D01*
X74922178Y-142339190D01*
X74922179Y-142339189D01*
X75071533Y-142277325D01*
X75177143Y-142233579D01*
X75267367Y-142215633D01*
X75447812Y-142179740D01*
X75723788Y-142179740D01*
X75904233Y-142215633D01*
X75904233Y-142215633D01*
G37*
G36*
X86572942Y-139298982D02*
G01*
X86720901Y-139360269D01*
X86854055Y-139449239D01*
X86967301Y-139562485D01*
X87056271Y-139695639D01*
X87117558Y-139843598D01*
X87148800Y-140000665D01*
X87148800Y-140160815D01*
X87117558Y-140317882D01*
X87056271Y-140465841D01*
X86967301Y-140598995D01*
X86854055Y-140712241D01*
X86720901Y-140801211D01*
X86572942Y-140862498D01*
X86415875Y-140893740D01*
X86255725Y-140893740D01*
X86098658Y-140862498D01*
X85950699Y-140801211D01*
X85817545Y-140712241D01*
X85704299Y-140598995D01*
X85615329Y-140465841D01*
X85554042Y-140317882D01*
X85522800Y-140160815D01*
X85522800Y-140000665D01*
X85554042Y-139843598D01*
X85615329Y-139695639D01*
X85704299Y-139562485D01*
X85817545Y-139449239D01*
X85950699Y-139360269D01*
X86098658Y-139298982D01*
X86255725Y-139267740D01*
X86415875Y-139267740D01*
X86572942Y-139298982D01*
X86572942Y-139298982D01*
G37*
G36*
X152572942Y-139298982D02*
G01*
X152720901Y-139360269D01*
X152854055Y-139449239D01*
X152967301Y-139562485D01*
X153056271Y-139695639D01*
X153117558Y-139843598D01*
X153148800Y-140000665D01*
X153148800Y-140160815D01*
X153117558Y-140317882D01*
X153056271Y-140465841D01*
X152967301Y-140598995D01*
X152854055Y-140712241D01*
X152720901Y-140801211D01*
X152572942Y-140862498D01*
X152415875Y-140893740D01*
X152255725Y-140893740D01*
X152098658Y-140862498D01*
X151950699Y-140801211D01*
X151817545Y-140712241D01*
X151704299Y-140598995D01*
X151615329Y-140465841D01*
X151554042Y-140317882D01*
X151522800Y-140160815D01*
X151522800Y-140000665D01*
X151554042Y-139843598D01*
X151615329Y-139695639D01*
X151704299Y-139562485D01*
X151817545Y-139449239D01*
X151950699Y-139360269D01*
X152098658Y-139298982D01*
X152255725Y-139267740D01*
X152415875Y-139267740D01*
X152572942Y-139298982D01*
X152572942Y-139298982D01*
G37*
G36*
X191572942Y-139298982D02*
G01*
X191720901Y-139360269D01*
X191854055Y-139449239D01*
X191967301Y-139562485D01*
X192056271Y-139695639D01*
X192117558Y-139843598D01*
X192148800Y-140000665D01*
X192148800Y-140160815D01*
X192117558Y-140317882D01*
X192056271Y-140465841D01*
X191967301Y-140598995D01*
X191854055Y-140712241D01*
X191720901Y-140801211D01*
X191572942Y-140862498D01*
X191415875Y-140893740D01*
X191255725Y-140893740D01*
X191098658Y-140862498D01*
X190950699Y-140801211D01*
X190817545Y-140712241D01*
X190704299Y-140598995D01*
X190615329Y-140465841D01*
X190554042Y-140317882D01*
X190522800Y-140160815D01*
X190522800Y-140000665D01*
X190554042Y-139843598D01*
X190615329Y-139695639D01*
X190704299Y-139562485D01*
X190817545Y-139449239D01*
X190950699Y-139360269D01*
X191098658Y-139298982D01*
X191255725Y-139267740D01*
X191415875Y-139267740D01*
X191572942Y-139298982D01*
X191572942Y-139298982D01*
G37*
G36*
X183572942Y-139298982D02*
G01*
X183720901Y-139360269D01*
X183854055Y-139449239D01*
X183967301Y-139562485D01*
X184056271Y-139695639D01*
X184117558Y-139843598D01*
X184148800Y-140000665D01*
X184148800Y-140160815D01*
X184117558Y-140317882D01*
X184056271Y-140465841D01*
X183967301Y-140598995D01*
X183854055Y-140712241D01*
X183720901Y-140801211D01*
X183572942Y-140862498D01*
X183415875Y-140893740D01*
X183255725Y-140893740D01*
X183098658Y-140862498D01*
X182950699Y-140801211D01*
X182817545Y-140712241D01*
X182704299Y-140598995D01*
X182615329Y-140465841D01*
X182554042Y-140317882D01*
X182522800Y-140160815D01*
X182522800Y-140000665D01*
X182554042Y-139843598D01*
X182615329Y-139695639D01*
X182704299Y-139562485D01*
X182817545Y-139449239D01*
X182950699Y-139360269D01*
X183098658Y-139298982D01*
X183255725Y-139267740D01*
X183415875Y-139267740D01*
X183572942Y-139298982D01*
X183572942Y-139298982D01*
G37*
G36*
X160572942Y-139298982D02*
G01*
X160720901Y-139360269D01*
X160854055Y-139449239D01*
X160967301Y-139562485D01*
X161056271Y-139695639D01*
X161117558Y-139843598D01*
X161148800Y-140000665D01*
X161148800Y-140160815D01*
X161117558Y-140317882D01*
X161056271Y-140465841D01*
X160967301Y-140598995D01*
X160854055Y-140712241D01*
X160720901Y-140801211D01*
X160572942Y-140862498D01*
X160415875Y-140893740D01*
X160255725Y-140893740D01*
X160098658Y-140862498D01*
X159950699Y-140801211D01*
X159817545Y-140712241D01*
X159704299Y-140598995D01*
X159615329Y-140465841D01*
X159554042Y-140317882D01*
X159522800Y-140160815D01*
X159522800Y-140000665D01*
X159554042Y-139843598D01*
X159615329Y-139695639D01*
X159704299Y-139562485D01*
X159817545Y-139449239D01*
X159950699Y-139360269D01*
X160098658Y-139298982D01*
X160255725Y-139267740D01*
X160415875Y-139267740D01*
X160572942Y-139298982D01*
X160572942Y-139298982D01*
G37*
G36*
X117572942Y-139298982D02*
G01*
X117720901Y-139360269D01*
X117854055Y-139449239D01*
X117967301Y-139562485D01*
X118056271Y-139695639D01*
X118117558Y-139843598D01*
X118148800Y-140000665D01*
X118148800Y-140160815D01*
X118117558Y-140317882D01*
X118056271Y-140465841D01*
X117967301Y-140598995D01*
X117854055Y-140712241D01*
X117720901Y-140801211D01*
X117572942Y-140862498D01*
X117415875Y-140893740D01*
X117255725Y-140893740D01*
X117098658Y-140862498D01*
X116950699Y-140801211D01*
X116817545Y-140712241D01*
X116704299Y-140598995D01*
X116615329Y-140465841D01*
X116554042Y-140317882D01*
X116522800Y-140160815D01*
X116522800Y-140000665D01*
X116554042Y-139843598D01*
X116615329Y-139695639D01*
X116704299Y-139562485D01*
X116817545Y-139449239D01*
X116950699Y-139360269D01*
X117098658Y-139298982D01*
X117255725Y-139267740D01*
X117415875Y-139267740D01*
X117572942Y-139298982D01*
X117572942Y-139298982D01*
G37*
G36*
X94572942Y-139298982D02*
G01*
X94720901Y-139360269D01*
X94854055Y-139449239D01*
X94967301Y-139562485D01*
X95056271Y-139695639D01*
X95117558Y-139843598D01*
X95148800Y-140000665D01*
X95148800Y-140160815D01*
X95117558Y-140317882D01*
X95056271Y-140465841D01*
X94967301Y-140598995D01*
X94854055Y-140712241D01*
X94720901Y-140801211D01*
X94572942Y-140862498D01*
X94415875Y-140893740D01*
X94255725Y-140893740D01*
X94098658Y-140862498D01*
X93950699Y-140801211D01*
X93817545Y-140712241D01*
X93704299Y-140598995D01*
X93615329Y-140465841D01*
X93554042Y-140317882D01*
X93522800Y-140160815D01*
X93522800Y-140000665D01*
X93554042Y-139843598D01*
X93615329Y-139695639D01*
X93704299Y-139562485D01*
X93817545Y-139449239D01*
X93950699Y-139360269D01*
X94098658Y-139298982D01*
X94255725Y-139267740D01*
X94415875Y-139267740D01*
X94572942Y-139298982D01*
X94572942Y-139298982D01*
G37*
G36*
X125572942Y-139298982D02*
G01*
X125720901Y-139360269D01*
X125854055Y-139449239D01*
X125967301Y-139562485D01*
X126056271Y-139695639D01*
X126117558Y-139843598D01*
X126148800Y-140000665D01*
X126148800Y-140160815D01*
X126117558Y-140317882D01*
X126056271Y-140465841D01*
X125967301Y-140598995D01*
X125854055Y-140712241D01*
X125720901Y-140801211D01*
X125572942Y-140862498D01*
X125415875Y-140893740D01*
X125255725Y-140893740D01*
X125098658Y-140862498D01*
X124950699Y-140801211D01*
X124817545Y-140712241D01*
X124704299Y-140598995D01*
X124615329Y-140465841D01*
X124554042Y-140317882D01*
X124522800Y-140160815D01*
X124522800Y-140000665D01*
X124554042Y-139843598D01*
X124615329Y-139695639D01*
X124704299Y-139562485D01*
X124817545Y-139449239D01*
X124950699Y-139360269D01*
X125098658Y-139298982D01*
X125255725Y-139267740D01*
X125415875Y-139267740D01*
X125572942Y-139298982D01*
X125572942Y-139298982D01*
G37*
G36*
X74958564Y-137935142D02*
G01*
X75081245Y-137959545D01*
X75244675Y-138027240D01*
X75290359Y-138046163D01*
X75312371Y-138055281D01*
X75417079Y-138125245D01*
X75520377Y-138194266D01*
X75697274Y-138371163D01*
X75836260Y-138579171D01*
X75931995Y-138810296D01*
X75980800Y-139055655D01*
X75980800Y-139305825D01*
X75931995Y-139551184D01*
X75836260Y-139782309D01*
X75703366Y-139981200D01*
X75697273Y-139990318D01*
X75520378Y-140167213D01*
X75312371Y-140306199D01*
X75312370Y-140306200D01*
X75312369Y-140306200D01*
X75244675Y-140334240D01*
X75081245Y-140401935D01*
X74958564Y-140426338D01*
X74835885Y-140450740D01*
X74585715Y-140450740D01*
X74463036Y-140426338D01*
X74340355Y-140401935D01*
X74176925Y-140334240D01*
X74109231Y-140306200D01*
X74109230Y-140306200D01*
X74109229Y-140306199D01*
X73901222Y-140167213D01*
X73724327Y-139990318D01*
X73718235Y-139981200D01*
X73585340Y-139782309D01*
X73489605Y-139551184D01*
X73440800Y-139305825D01*
X73440800Y-139055655D01*
X73489605Y-138810296D01*
X73585340Y-138579171D01*
X73724326Y-138371163D01*
X73901223Y-138194266D01*
X74004521Y-138125245D01*
X74109229Y-138055281D01*
X74131242Y-138046163D01*
X74176925Y-138027240D01*
X74340355Y-137959545D01*
X74463036Y-137935142D01*
X74585715Y-137910740D01*
X74835885Y-137910740D01*
X74958564Y-137935142D01*
X74958564Y-137935142D01*
G37*
G36*
X203733564Y-137610142D02*
G01*
X203856245Y-137634545D01*
X204087371Y-137730281D01*
X204192079Y-137800245D01*
X204295377Y-137869266D01*
X204472274Y-138046163D01*
X204611260Y-138254171D01*
X204706995Y-138485296D01*
X204755800Y-138730655D01*
X204755800Y-138980825D01*
X204740915Y-139055655D01*
X204706995Y-139226185D01*
X204676841Y-139298982D01*
X204611260Y-139457309D01*
X204472274Y-139665317D01*
X204295377Y-139842214D01*
X204250007Y-139872529D01*
X204087371Y-139981199D01*
X204087370Y-139981200D01*
X204087369Y-139981200D01*
X204065356Y-139990318D01*
X203856245Y-140076935D01*
X203733564Y-140101338D01*
X203610885Y-140125740D01*
X203360715Y-140125740D01*
X203238036Y-140101338D01*
X203115355Y-140076935D01*
X202906244Y-139990318D01*
X202884231Y-139981200D01*
X202884230Y-139981200D01*
X202884229Y-139981199D01*
X202721593Y-139872529D01*
X202676223Y-139842214D01*
X202499326Y-139665317D01*
X202360340Y-139457309D01*
X202294759Y-139298982D01*
X202264605Y-139226185D01*
X202230685Y-139055655D01*
X202215800Y-138980825D01*
X202215800Y-138730655D01*
X202264605Y-138485296D01*
X202360340Y-138254171D01*
X202499326Y-138046163D01*
X202676223Y-137869266D01*
X202779521Y-137800245D01*
X202884229Y-137730281D01*
X203115355Y-137634545D01*
X203238036Y-137610142D01*
X203360715Y-137585740D01*
X203610885Y-137585740D01*
X203733564Y-137610142D01*
X203733564Y-137610142D01*
G37*
G36*
X147351131Y-136408951D02*
G01*
X147678892Y-136544714D01*
X147973870Y-136741812D01*
X148224728Y-136992670D01*
X148421826Y-137287648D01*
X148557589Y-137615409D01*
X148626800Y-137963356D01*
X148626800Y-138318124D01*
X148557589Y-138666071D01*
X148421826Y-138993832D01*
X148224728Y-139288810D01*
X147973870Y-139539668D01*
X147678892Y-139736766D01*
X147351131Y-139872529D01*
X147003184Y-139941740D01*
X146648416Y-139941740D01*
X146300469Y-139872529D01*
X145972708Y-139736766D01*
X145677730Y-139539668D01*
X145426872Y-139288810D01*
X145229774Y-138993832D01*
X145094011Y-138666071D01*
X145024800Y-138318124D01*
X145024800Y-137963356D01*
X145094011Y-137615409D01*
X145229774Y-137287648D01*
X145426872Y-136992670D01*
X145677730Y-136741812D01*
X145972708Y-136544714D01*
X146300469Y-136408951D01*
X146648416Y-136339740D01*
X147003184Y-136339740D01*
X147351131Y-136408951D01*
X147351131Y-136408951D01*
G37*
G36*
X197351131Y-136408951D02*
G01*
X197678892Y-136544714D01*
X197973870Y-136741812D01*
X198224728Y-136992670D01*
X198421826Y-137287648D01*
X198557589Y-137615409D01*
X198626800Y-137963356D01*
X198626800Y-138318124D01*
X198557589Y-138666071D01*
X198421826Y-138993832D01*
X198224728Y-139288810D01*
X197973870Y-139539668D01*
X197678892Y-139736766D01*
X197351131Y-139872529D01*
X197003184Y-139941740D01*
X196648416Y-139941740D01*
X196300469Y-139872529D01*
X195972708Y-139736766D01*
X195677730Y-139539668D01*
X195426872Y-139288810D01*
X195229774Y-138993832D01*
X195094011Y-138666071D01*
X195024800Y-138318124D01*
X195024800Y-137963356D01*
X195094011Y-137615409D01*
X195229774Y-137287648D01*
X195426872Y-136992670D01*
X195677730Y-136741812D01*
X195972708Y-136544714D01*
X196300469Y-136408951D01*
X196648416Y-136339740D01*
X197003184Y-136339740D01*
X197351131Y-136408951D01*
X197351131Y-136408951D01*
G37*
G36*
X131351131Y-136408951D02*
G01*
X131678892Y-136544714D01*
X131973870Y-136741812D01*
X132224728Y-136992670D01*
X132421826Y-137287648D01*
X132557589Y-137615409D01*
X132626800Y-137963356D01*
X132626800Y-138318124D01*
X132557589Y-138666071D01*
X132421826Y-138993832D01*
X132224728Y-139288810D01*
X131973870Y-139539668D01*
X131678892Y-139736766D01*
X131351131Y-139872529D01*
X131003184Y-139941740D01*
X130648416Y-139941740D01*
X130300469Y-139872529D01*
X129972708Y-139736766D01*
X129677730Y-139539668D01*
X129426872Y-139288810D01*
X129229774Y-138993832D01*
X129094011Y-138666071D01*
X129024800Y-138318124D01*
X129024800Y-137963356D01*
X129094011Y-137615409D01*
X129229774Y-137287648D01*
X129426872Y-136992670D01*
X129677730Y-136741812D01*
X129972708Y-136544714D01*
X130300469Y-136408951D01*
X130648416Y-136339740D01*
X131003184Y-136339740D01*
X131351131Y-136408951D01*
X131351131Y-136408951D01*
G37*
G36*
X81351131Y-136408951D02*
G01*
X81678892Y-136544714D01*
X81973870Y-136741812D01*
X82224728Y-136992670D01*
X82421826Y-137287648D01*
X82557589Y-137615409D01*
X82626800Y-137963356D01*
X82626800Y-138318124D01*
X82557589Y-138666071D01*
X82421826Y-138993832D01*
X82224728Y-139288810D01*
X81973870Y-139539668D01*
X81678892Y-139736766D01*
X81351131Y-139872529D01*
X81003184Y-139941740D01*
X80648416Y-139941740D01*
X80300469Y-139872529D01*
X79972708Y-139736766D01*
X79677730Y-139539668D01*
X79426872Y-139288810D01*
X79229774Y-138993832D01*
X79094011Y-138666071D01*
X79024800Y-138318124D01*
X79024800Y-137963356D01*
X79094011Y-137615409D01*
X79229774Y-137287648D01*
X79426872Y-136992670D01*
X79677730Y-136741812D01*
X79972708Y-136544714D01*
X80300469Y-136408951D01*
X80648416Y-136339740D01*
X81003184Y-136339740D01*
X81351131Y-136408951D01*
X81351131Y-136408951D01*
G37*
G36*
X182152821Y-125447380D02*
G01*
X182662569Y-125658525D01*
X182662571Y-125658526D01*
X183121334Y-125965061D01*
X183511479Y-126355206D01*
X183818014Y-126813969D01*
X183818015Y-126813971D01*
X184029160Y-127323719D01*
X184136800Y-127864864D01*
X184136800Y-128416616D01*
X184029160Y-128957761D01*
X183818015Y-129467509D01*
X183818014Y-129467511D01*
X183511479Y-129926274D01*
X183121334Y-130316419D01*
X182662571Y-130622954D01*
X182662570Y-130622955D01*
X182662569Y-130622955D01*
X182152821Y-130834100D01*
X181611676Y-130941740D01*
X181059924Y-130941740D01*
X180518779Y-130834100D01*
X180009031Y-130622955D01*
X180009030Y-130622955D01*
X180009029Y-130622954D01*
X179550266Y-130316419D01*
X179160121Y-129926274D01*
X178853586Y-129467511D01*
X178853585Y-129467509D01*
X178642440Y-128957761D01*
X178534800Y-128416616D01*
X178534800Y-127864864D01*
X178642440Y-127323719D01*
X178853585Y-126813971D01*
X178853586Y-126813969D01*
X179160121Y-126355206D01*
X179550266Y-125965061D01*
X180009029Y-125658526D01*
X180009031Y-125658525D01*
X180518779Y-125447380D01*
X181059924Y-125339740D01*
X181611676Y-125339740D01*
X182152821Y-125447380D01*
X182152821Y-125447380D01*
G37*
G36*
X116152821Y-125447380D02*
G01*
X116662569Y-125658525D01*
X116662571Y-125658526D01*
X117121334Y-125965061D01*
X117511479Y-126355206D01*
X117818014Y-126813969D01*
X117818015Y-126813971D01*
X118029160Y-127323719D01*
X118136800Y-127864864D01*
X118136800Y-128416616D01*
X118029160Y-128957761D01*
X117818015Y-129467509D01*
X117818014Y-129467511D01*
X117511479Y-129926274D01*
X117121334Y-130316419D01*
X116662571Y-130622954D01*
X116662570Y-130622955D01*
X116662569Y-130622955D01*
X116152821Y-130834100D01*
X115611676Y-130941740D01*
X115059924Y-130941740D01*
X114518779Y-130834100D01*
X114009031Y-130622955D01*
X114009030Y-130622955D01*
X114009029Y-130622954D01*
X113550266Y-130316419D01*
X113160121Y-129926274D01*
X112853586Y-129467511D01*
X112853585Y-129467509D01*
X112642440Y-128957761D01*
X112534800Y-128416616D01*
X112534800Y-127864864D01*
X112642440Y-127323719D01*
X112853585Y-126813971D01*
X112853586Y-126813969D01*
X113160121Y-126355206D01*
X113550266Y-125965061D01*
X114009029Y-125658526D01*
X114009031Y-125658525D01*
X114518779Y-125447380D01*
X115059924Y-125339740D01*
X115611676Y-125339740D01*
X116152821Y-125447380D01*
X116152821Y-125447380D01*
G37*
G36*
X199286800Y-122344882D02*
G01*
X199289202Y-122369268D01*
X199296315Y-122392717D01*
X199307866Y-122414328D01*
X199323411Y-122433270D01*
X199342353Y-122448815D01*
X199363964Y-122460366D01*
X199387413Y-122467479D01*
X199411799Y-122469881D01*
X199436185Y-122467479D01*
X199459634Y-122460366D01*
X199481245Y-122448815D01*
X199500187Y-122433270D01*
X199515732Y-122414328D01*
X199527283Y-122392717D01*
X199557509Y-122319745D01*
X199617809Y-122229500D01*
X199617810Y-122229498D01*
X199694558Y-122152750D01*
X199784804Y-122092450D01*
X199784805Y-122092449D01*
X199885079Y-122050914D01*
X199991530Y-122029740D01*
X200100070Y-122029740D01*
X200206521Y-122050914D01*
X200306795Y-122092449D01*
X200306796Y-122092450D01*
X200397042Y-122152750D01*
X200473790Y-122229498D01*
X200473791Y-122229500D01*
X200534091Y-122319745D01*
X200565316Y-122395129D01*
X200576867Y-122416740D01*
X200592412Y-122435681D01*
X200611354Y-122451227D01*
X200632965Y-122462778D01*
X200656414Y-122469891D01*
X200680800Y-122472293D01*
X200705186Y-122469891D01*
X200728635Y-122462778D01*
X200750246Y-122451227D01*
X200769187Y-122435682D01*
X200784733Y-122416740D01*
X200796284Y-122395129D01*
X200827509Y-122319745D01*
X200887809Y-122229500D01*
X200887810Y-122229498D01*
X200964558Y-122152750D01*
X201054804Y-122092450D01*
X201054805Y-122092449D01*
X201155079Y-122050914D01*
X201261530Y-122029740D01*
X201370070Y-122029740D01*
X201476521Y-122050914D01*
X201576795Y-122092449D01*
X201576796Y-122092450D01*
X201667042Y-122152750D01*
X201743790Y-122229498D01*
X201743791Y-122229500D01*
X201804091Y-122319745D01*
X201845626Y-122420019D01*
X201866800Y-122526470D01*
X201866800Y-122635010D01*
X201845626Y-122741461D01*
X201804091Y-122841735D01*
X201804090Y-122841736D01*
X201743790Y-122931982D01*
X201667042Y-123008730D01*
X201621612Y-123039085D01*
X201576795Y-123069031D01*
X201476521Y-123110566D01*
X201370070Y-123131740D01*
X201261530Y-123131740D01*
X201155079Y-123110566D01*
X201054805Y-123069031D01*
X201009988Y-123039085D01*
X200964558Y-123008730D01*
X200887810Y-122931982D01*
X200827510Y-122841736D01*
X200827509Y-122841735D01*
X200796284Y-122766351D01*
X200784733Y-122744740D01*
X200769188Y-122725799D01*
X200750246Y-122710253D01*
X200728635Y-122698702D01*
X200705186Y-122691589D01*
X200680800Y-122689187D01*
X200656414Y-122691589D01*
X200632965Y-122698702D01*
X200611354Y-122710253D01*
X200592413Y-122725798D01*
X200576867Y-122744740D01*
X200565316Y-122766351D01*
X200534091Y-122841735D01*
X200534090Y-122841736D01*
X200473790Y-122931982D01*
X200397042Y-123008730D01*
X200351612Y-123039085D01*
X200306795Y-123069031D01*
X200206521Y-123110566D01*
X200100070Y-123131740D01*
X199991530Y-123131740D01*
X199885079Y-123110566D01*
X199784805Y-123069031D01*
X199739988Y-123039085D01*
X199694558Y-123008730D01*
X199617810Y-122931982D01*
X199557510Y-122841736D01*
X199557509Y-122841735D01*
X199527283Y-122768763D01*
X199515732Y-122747152D01*
X199500187Y-122728210D01*
X199481245Y-122712665D01*
X199459634Y-122701114D01*
X199436185Y-122694001D01*
X199411799Y-122691599D01*
X199387413Y-122694001D01*
X199363964Y-122701114D01*
X199342353Y-122712665D01*
X199323411Y-122728210D01*
X199307866Y-122747152D01*
X199296315Y-122768763D01*
X199289202Y-122792212D01*
X199286800Y-122816598D01*
X199286800Y-123131740D01*
X198184800Y-123131740D01*
X198184800Y-122029740D01*
X199286800Y-122029740D01*
X199286800Y-122344882D01*
X199286800Y-122344882D01*
G37*
G36*
X188286800Y-122344882D02*
G01*
X188289202Y-122369268D01*
X188296315Y-122392717D01*
X188307866Y-122414328D01*
X188323411Y-122433270D01*
X188342353Y-122448815D01*
X188363964Y-122460366D01*
X188387413Y-122467479D01*
X188411799Y-122469881D01*
X188436185Y-122467479D01*
X188459634Y-122460366D01*
X188481245Y-122448815D01*
X188500187Y-122433270D01*
X188515732Y-122414328D01*
X188527283Y-122392717D01*
X188557509Y-122319745D01*
X188617809Y-122229500D01*
X188617810Y-122229498D01*
X188694558Y-122152750D01*
X188784804Y-122092450D01*
X188784805Y-122092449D01*
X188885079Y-122050914D01*
X188991530Y-122029740D01*
X189100070Y-122029740D01*
X189206521Y-122050914D01*
X189306795Y-122092449D01*
X189306796Y-122092450D01*
X189397042Y-122152750D01*
X189473790Y-122229498D01*
X189473791Y-122229500D01*
X189534091Y-122319745D01*
X189565316Y-122395129D01*
X189576867Y-122416740D01*
X189592412Y-122435681D01*
X189611354Y-122451227D01*
X189632965Y-122462778D01*
X189656414Y-122469891D01*
X189680800Y-122472293D01*
X189705186Y-122469891D01*
X189728635Y-122462778D01*
X189750246Y-122451227D01*
X189769187Y-122435682D01*
X189784733Y-122416740D01*
X189796284Y-122395129D01*
X189827509Y-122319745D01*
X189887809Y-122229500D01*
X189887810Y-122229498D01*
X189964558Y-122152750D01*
X190054804Y-122092450D01*
X190054805Y-122092449D01*
X190155079Y-122050914D01*
X190261530Y-122029740D01*
X190370070Y-122029740D01*
X190476521Y-122050914D01*
X190576795Y-122092449D01*
X190576796Y-122092450D01*
X190667042Y-122152750D01*
X190743790Y-122229498D01*
X190743791Y-122229500D01*
X190804091Y-122319745D01*
X190845626Y-122420019D01*
X190866800Y-122526470D01*
X190866800Y-122635010D01*
X190845626Y-122741461D01*
X190804091Y-122841735D01*
X190804090Y-122841736D01*
X190743790Y-122931982D01*
X190667042Y-123008730D01*
X190621612Y-123039085D01*
X190576795Y-123069031D01*
X190476521Y-123110566D01*
X190370070Y-123131740D01*
X190261530Y-123131740D01*
X190155079Y-123110566D01*
X190054805Y-123069031D01*
X190009988Y-123039085D01*
X189964558Y-123008730D01*
X189887810Y-122931982D01*
X189827510Y-122841736D01*
X189827509Y-122841735D01*
X189796284Y-122766351D01*
X189784733Y-122744740D01*
X189769188Y-122725799D01*
X189750246Y-122710253D01*
X189728635Y-122698702D01*
X189705186Y-122691589D01*
X189680800Y-122689187D01*
X189656414Y-122691589D01*
X189632965Y-122698702D01*
X189611354Y-122710253D01*
X189592413Y-122725798D01*
X189576867Y-122744740D01*
X189565316Y-122766351D01*
X189534091Y-122841735D01*
X189534090Y-122841736D01*
X189473790Y-122931982D01*
X189397042Y-123008730D01*
X189351612Y-123039085D01*
X189306795Y-123069031D01*
X189206521Y-123110566D01*
X189100070Y-123131740D01*
X188991530Y-123131740D01*
X188885079Y-123110566D01*
X188784805Y-123069031D01*
X188739988Y-123039085D01*
X188694558Y-123008730D01*
X188617810Y-122931982D01*
X188557510Y-122841736D01*
X188557509Y-122841735D01*
X188527283Y-122768763D01*
X188515732Y-122747152D01*
X188500187Y-122728210D01*
X188481245Y-122712665D01*
X188459634Y-122701114D01*
X188436185Y-122694001D01*
X188411799Y-122691599D01*
X188387413Y-122694001D01*
X188363964Y-122701114D01*
X188342353Y-122712665D01*
X188323411Y-122728210D01*
X188307866Y-122747152D01*
X188296315Y-122768763D01*
X188289202Y-122792212D01*
X188286800Y-122816598D01*
X188286800Y-123131740D01*
X187184800Y-123131740D01*
X187184800Y-122029740D01*
X188286800Y-122029740D01*
X188286800Y-122344882D01*
X188286800Y-122344882D01*
G37*
G36*
X123486800Y-121344882D02*
G01*
X123489202Y-121369268D01*
X123496315Y-121392717D01*
X123507866Y-121414328D01*
X123523411Y-121433270D01*
X123542353Y-121448815D01*
X123563964Y-121460366D01*
X123587413Y-121467479D01*
X123611799Y-121469881D01*
X123636185Y-121467479D01*
X123659634Y-121460366D01*
X123681245Y-121448815D01*
X123700187Y-121433270D01*
X123715732Y-121414328D01*
X123727283Y-121392717D01*
X123757509Y-121319745D01*
X123817809Y-121229500D01*
X123817810Y-121229498D01*
X123894558Y-121152750D01*
X123984804Y-121092450D01*
X123984805Y-121092449D01*
X124085079Y-121050914D01*
X124191530Y-121029740D01*
X124300070Y-121029740D01*
X124406521Y-121050914D01*
X124506795Y-121092449D01*
X124506796Y-121092450D01*
X124597042Y-121152750D01*
X124673790Y-121229498D01*
X124673791Y-121229500D01*
X124734091Y-121319745D01*
X124765316Y-121395129D01*
X124776867Y-121416740D01*
X124792412Y-121435681D01*
X124811354Y-121451227D01*
X124832965Y-121462778D01*
X124856414Y-121469891D01*
X124880800Y-121472293D01*
X124905186Y-121469891D01*
X124928635Y-121462778D01*
X124950246Y-121451227D01*
X124969187Y-121435682D01*
X124984733Y-121416740D01*
X124996284Y-121395129D01*
X125027509Y-121319745D01*
X125087809Y-121229500D01*
X125087810Y-121229498D01*
X125164558Y-121152750D01*
X125254804Y-121092450D01*
X125254805Y-121092449D01*
X125355079Y-121050914D01*
X125461530Y-121029740D01*
X125570070Y-121029740D01*
X125676521Y-121050914D01*
X125776795Y-121092449D01*
X125776796Y-121092450D01*
X125867042Y-121152750D01*
X125943790Y-121229498D01*
X125943791Y-121229500D01*
X126004091Y-121319745D01*
X126045626Y-121420019D01*
X126066800Y-121526470D01*
X126066800Y-121635010D01*
X126045626Y-121741461D01*
X126004091Y-121841735D01*
X126004090Y-121841736D01*
X125943790Y-121931982D01*
X125867042Y-122008730D01*
X125835598Y-122029740D01*
X125776795Y-122069031D01*
X125676521Y-122110566D01*
X125570070Y-122131740D01*
X125461530Y-122131740D01*
X125355079Y-122110566D01*
X125254805Y-122069031D01*
X125196002Y-122029740D01*
X125164558Y-122008730D01*
X125087810Y-121931982D01*
X125027510Y-121841736D01*
X125027509Y-121841735D01*
X124996284Y-121766351D01*
X124984733Y-121744740D01*
X124969188Y-121725799D01*
X124950246Y-121710253D01*
X124928635Y-121698702D01*
X124905186Y-121691589D01*
X124880800Y-121689187D01*
X124856414Y-121691589D01*
X124832965Y-121698702D01*
X124811354Y-121710253D01*
X124792413Y-121725798D01*
X124776867Y-121744740D01*
X124765316Y-121766351D01*
X124734091Y-121841735D01*
X124734090Y-121841736D01*
X124673790Y-121931982D01*
X124597042Y-122008730D01*
X124565598Y-122029740D01*
X124506795Y-122069031D01*
X124406521Y-122110566D01*
X124300070Y-122131740D01*
X124191530Y-122131740D01*
X124085079Y-122110566D01*
X123984805Y-122069031D01*
X123926002Y-122029740D01*
X123894558Y-122008730D01*
X123817810Y-121931982D01*
X123757510Y-121841736D01*
X123757509Y-121841735D01*
X123727283Y-121768763D01*
X123715732Y-121747152D01*
X123700187Y-121728210D01*
X123681245Y-121712665D01*
X123659634Y-121701114D01*
X123636185Y-121694001D01*
X123611799Y-121691599D01*
X123587413Y-121694001D01*
X123563964Y-121701114D01*
X123542353Y-121712665D01*
X123523411Y-121728210D01*
X123507866Y-121747152D01*
X123496315Y-121768763D01*
X123489202Y-121792212D01*
X123486800Y-121816598D01*
X123486800Y-122131740D01*
X122384800Y-122131740D01*
X122384800Y-121029740D01*
X123486800Y-121029740D01*
X123486800Y-121344882D01*
X123486800Y-121344882D01*
G37*
G36*
X132886800Y-121344882D02*
G01*
X132889202Y-121369268D01*
X132896315Y-121392717D01*
X132907866Y-121414328D01*
X132923411Y-121433270D01*
X132942353Y-121448815D01*
X132963964Y-121460366D01*
X132987413Y-121467479D01*
X133011799Y-121469881D01*
X133036185Y-121467479D01*
X133059634Y-121460366D01*
X133081245Y-121448815D01*
X133100187Y-121433270D01*
X133115732Y-121414328D01*
X133127283Y-121392717D01*
X133157509Y-121319745D01*
X133217809Y-121229500D01*
X133217810Y-121229498D01*
X133294558Y-121152750D01*
X133384804Y-121092450D01*
X133384805Y-121092449D01*
X133485079Y-121050914D01*
X133591530Y-121029740D01*
X133700070Y-121029740D01*
X133806521Y-121050914D01*
X133906795Y-121092449D01*
X133906796Y-121092450D01*
X133997042Y-121152750D01*
X134073790Y-121229498D01*
X134073791Y-121229500D01*
X134134091Y-121319745D01*
X134165316Y-121395129D01*
X134176867Y-121416740D01*
X134192412Y-121435681D01*
X134211354Y-121451227D01*
X134232965Y-121462778D01*
X134256414Y-121469891D01*
X134280800Y-121472293D01*
X134305186Y-121469891D01*
X134328635Y-121462778D01*
X134350246Y-121451227D01*
X134369187Y-121435682D01*
X134384733Y-121416740D01*
X134396284Y-121395129D01*
X134427509Y-121319745D01*
X134487809Y-121229500D01*
X134487810Y-121229498D01*
X134564558Y-121152750D01*
X134654804Y-121092450D01*
X134654805Y-121092449D01*
X134755079Y-121050914D01*
X134861530Y-121029740D01*
X134970070Y-121029740D01*
X135076521Y-121050914D01*
X135176795Y-121092449D01*
X135176796Y-121092450D01*
X135267042Y-121152750D01*
X135343790Y-121229498D01*
X135343791Y-121229500D01*
X135404091Y-121319745D01*
X135445626Y-121420019D01*
X135466800Y-121526470D01*
X135466800Y-121635010D01*
X135445626Y-121741461D01*
X135404091Y-121841735D01*
X135404090Y-121841736D01*
X135343790Y-121931982D01*
X135267042Y-122008730D01*
X135235598Y-122029740D01*
X135176795Y-122069031D01*
X135076521Y-122110566D01*
X134970070Y-122131740D01*
X134861530Y-122131740D01*
X134755079Y-122110566D01*
X134654805Y-122069031D01*
X134596002Y-122029740D01*
X134564558Y-122008730D01*
X134487810Y-121931982D01*
X134427510Y-121841736D01*
X134427509Y-121841735D01*
X134396284Y-121766351D01*
X134384733Y-121744740D01*
X134369188Y-121725799D01*
X134350246Y-121710253D01*
X134328635Y-121698702D01*
X134305186Y-121691589D01*
X134280800Y-121689187D01*
X134256414Y-121691589D01*
X134232965Y-121698702D01*
X134211354Y-121710253D01*
X134192413Y-121725798D01*
X134176867Y-121744740D01*
X134165316Y-121766351D01*
X134134091Y-121841735D01*
X134134090Y-121841736D01*
X134073790Y-121931982D01*
X133997042Y-122008730D01*
X133965598Y-122029740D01*
X133906795Y-122069031D01*
X133806521Y-122110566D01*
X133700070Y-122131740D01*
X133591530Y-122131740D01*
X133485079Y-122110566D01*
X133384805Y-122069031D01*
X133326002Y-122029740D01*
X133294558Y-122008730D01*
X133217810Y-121931982D01*
X133157510Y-121841736D01*
X133157509Y-121841735D01*
X133127283Y-121768763D01*
X133115732Y-121747152D01*
X133100187Y-121728210D01*
X133081245Y-121712665D01*
X133059634Y-121701114D01*
X133036185Y-121694001D01*
X133011799Y-121691599D01*
X132987413Y-121694001D01*
X132963964Y-121701114D01*
X132942353Y-121712665D01*
X132923411Y-121728210D01*
X132907866Y-121747152D01*
X132896315Y-121768763D01*
X132889202Y-121792212D01*
X132886800Y-121816598D01*
X132886800Y-122131740D01*
X131784800Y-122131740D01*
X131784800Y-121029740D01*
X132886800Y-121029740D01*
X132886800Y-121344882D01*
X132886800Y-121344882D01*
G37*
G36*
X139254233Y-116890633D02*
G01*
X139344457Y-116908579D01*
X139450067Y-116952325D01*
X139599421Y-117014189D01*
X139599422Y-117014190D01*
X139828886Y-117167512D01*
X140024028Y-117362654D01*
X140092974Y-117465840D01*
X140177351Y-117592119D01*
X140227106Y-117712239D01*
X140282961Y-117847083D01*
X140300907Y-117937307D01*
X140336800Y-118117752D01*
X140336800Y-118393728D01*
X140282961Y-118664396D01*
X140177351Y-118919361D01*
X140177350Y-118919362D01*
X140024028Y-119148826D01*
X139828886Y-119343968D01*
X139675563Y-119446415D01*
X139599421Y-119497291D01*
X139450067Y-119559155D01*
X139344457Y-119602901D01*
X139254233Y-119620847D01*
X139073788Y-119656740D01*
X138797812Y-119656740D01*
X138617367Y-119620847D01*
X138527143Y-119602901D01*
X138421533Y-119559155D01*
X138272179Y-119497291D01*
X138196037Y-119446415D01*
X138042714Y-119343968D01*
X137847572Y-119148826D01*
X137694250Y-118919362D01*
X137694249Y-118919361D01*
X137588639Y-118664396D01*
X137534800Y-118393728D01*
X137534800Y-118117752D01*
X137570693Y-117937307D01*
X137588639Y-117847083D01*
X137644494Y-117712239D01*
X137694249Y-117592119D01*
X137778626Y-117465840D01*
X137847572Y-117362654D01*
X138042714Y-117167512D01*
X138272178Y-117014190D01*
X138272179Y-117014189D01*
X138421533Y-116952325D01*
X138527143Y-116908579D01*
X138617367Y-116890633D01*
X138797812Y-116854740D01*
X139073788Y-116854740D01*
X139254233Y-116890633D01*
X139254233Y-116890633D01*
G37*
G36*
X172351131Y-114408951D02*
G01*
X172678892Y-114544714D01*
X172973870Y-114741812D01*
X173224728Y-114992670D01*
X173421826Y-115287648D01*
X173557589Y-115615409D01*
X173626800Y-115963356D01*
X173626800Y-116318124D01*
X173557589Y-116666071D01*
X173421826Y-116993832D01*
X173224728Y-117288810D01*
X172973870Y-117539668D01*
X172678892Y-117736766D01*
X172351131Y-117872529D01*
X172003184Y-117941740D01*
X171648416Y-117941740D01*
X171300469Y-117872529D01*
X170972708Y-117736766D01*
X170677730Y-117539668D01*
X170426872Y-117288810D01*
X170229774Y-116993832D01*
X170094011Y-116666071D01*
X170024800Y-116318124D01*
X170024800Y-115963356D01*
X170094011Y-115615409D01*
X170229774Y-115287648D01*
X170426872Y-114992670D01*
X170677730Y-114741812D01*
X170972708Y-114544714D01*
X171300469Y-114408951D01*
X171648416Y-114339740D01*
X172003184Y-114339740D01*
X172351131Y-114408951D01*
X172351131Y-114408951D01*
G37*
G36*
X106351131Y-114408951D02*
G01*
X106678892Y-114544714D01*
X106973870Y-114741812D01*
X107224728Y-114992670D01*
X107421826Y-115287648D01*
X107557589Y-115615409D01*
X107626800Y-115963356D01*
X107626800Y-116318124D01*
X107557589Y-116666071D01*
X107421826Y-116993832D01*
X107224728Y-117288810D01*
X106973870Y-117539668D01*
X106678892Y-117736766D01*
X106351131Y-117872529D01*
X106003184Y-117941740D01*
X105648416Y-117941740D01*
X105300469Y-117872529D01*
X104972708Y-117736766D01*
X104677730Y-117539668D01*
X104426872Y-117288810D01*
X104229774Y-116993832D01*
X104094011Y-116666071D01*
X104024800Y-116318124D01*
X104024800Y-115963356D01*
X104094011Y-115615409D01*
X104229774Y-115287648D01*
X104426872Y-114992670D01*
X104677730Y-114741812D01*
X104972708Y-114544714D01*
X105300469Y-114408951D01*
X105648416Y-114339740D01*
X106003184Y-114339740D01*
X106351131Y-114408951D01*
X106351131Y-114408951D01*
G37*
G36*
X117572942Y-116298982D02*
G01*
X117720901Y-116360269D01*
X117854055Y-116449239D01*
X117967301Y-116562485D01*
X118056271Y-116695639D01*
X118117558Y-116843598D01*
X118148800Y-117000665D01*
X118148800Y-117160815D01*
X118117558Y-117317882D01*
X118056271Y-117465841D01*
X117967301Y-117598995D01*
X117854055Y-117712241D01*
X117720901Y-117801211D01*
X117572942Y-117862498D01*
X117415875Y-117893740D01*
X117255725Y-117893740D01*
X117098658Y-117862498D01*
X116950699Y-117801211D01*
X116817545Y-117712241D01*
X116704299Y-117598995D01*
X116615329Y-117465841D01*
X116554042Y-117317882D01*
X116522800Y-117160815D01*
X116522800Y-117000665D01*
X116554042Y-116843598D01*
X116615329Y-116695639D01*
X116704299Y-116562485D01*
X116817545Y-116449239D01*
X116950699Y-116360269D01*
X117098658Y-116298982D01*
X117255725Y-116267740D01*
X117415875Y-116267740D01*
X117572942Y-116298982D01*
X117572942Y-116298982D01*
G37*
G36*
X86572942Y-116298982D02*
G01*
X86720901Y-116360269D01*
X86854055Y-116449239D01*
X86967301Y-116562485D01*
X87056271Y-116695639D01*
X87117558Y-116843598D01*
X87148800Y-117000665D01*
X87148800Y-117160815D01*
X87117558Y-117317882D01*
X87056271Y-117465841D01*
X86967301Y-117598995D01*
X86854055Y-117712241D01*
X86720901Y-117801211D01*
X86572942Y-117862498D01*
X86415875Y-117893740D01*
X86255725Y-117893740D01*
X86098658Y-117862498D01*
X85950699Y-117801211D01*
X85817545Y-117712241D01*
X85704299Y-117598995D01*
X85615329Y-117465841D01*
X85554042Y-117317882D01*
X85522800Y-117160815D01*
X85522800Y-117000665D01*
X85554042Y-116843598D01*
X85615329Y-116695639D01*
X85704299Y-116562485D01*
X85817545Y-116449239D01*
X85950699Y-116360269D01*
X86098658Y-116298982D01*
X86255725Y-116267740D01*
X86415875Y-116267740D01*
X86572942Y-116298982D01*
X86572942Y-116298982D01*
G37*
G36*
X94572942Y-116298982D02*
G01*
X94720901Y-116360269D01*
X94854055Y-116449239D01*
X94967301Y-116562485D01*
X95056271Y-116695639D01*
X95117558Y-116843598D01*
X95148800Y-117000665D01*
X95148800Y-117160815D01*
X95117558Y-117317882D01*
X95056271Y-117465841D01*
X94967301Y-117598995D01*
X94854055Y-117712241D01*
X94720901Y-117801211D01*
X94572942Y-117862498D01*
X94415875Y-117893740D01*
X94255725Y-117893740D01*
X94098658Y-117862498D01*
X93950699Y-117801211D01*
X93817545Y-117712241D01*
X93704299Y-117598995D01*
X93615329Y-117465841D01*
X93554042Y-117317882D01*
X93522800Y-117160815D01*
X93522800Y-117000665D01*
X93554042Y-116843598D01*
X93615329Y-116695639D01*
X93704299Y-116562485D01*
X93817545Y-116449239D01*
X93950699Y-116360269D01*
X94098658Y-116298982D01*
X94255725Y-116267740D01*
X94415875Y-116267740D01*
X94572942Y-116298982D01*
X94572942Y-116298982D01*
G37*
G36*
X125572942Y-116298982D02*
G01*
X125720901Y-116360269D01*
X125854055Y-116449239D01*
X125967301Y-116562485D01*
X126056271Y-116695639D01*
X126117558Y-116843598D01*
X126148800Y-117000665D01*
X126148800Y-117160815D01*
X126117558Y-117317882D01*
X126056271Y-117465841D01*
X125967301Y-117598995D01*
X125854055Y-117712241D01*
X125720901Y-117801211D01*
X125572942Y-117862498D01*
X125415875Y-117893740D01*
X125255725Y-117893740D01*
X125098658Y-117862498D01*
X124950699Y-117801211D01*
X124817545Y-117712241D01*
X124704299Y-117598995D01*
X124615329Y-117465841D01*
X124554042Y-117317882D01*
X124522800Y-117160815D01*
X124522800Y-117000665D01*
X124554042Y-116843598D01*
X124615329Y-116695639D01*
X124704299Y-116562485D01*
X124817545Y-116449239D01*
X124950699Y-116360269D01*
X125098658Y-116298982D01*
X125255725Y-116267740D01*
X125415875Y-116267740D01*
X125572942Y-116298982D01*
X125572942Y-116298982D01*
G37*
G36*
X152572942Y-116298982D02*
G01*
X152720901Y-116360269D01*
X152854055Y-116449239D01*
X152967301Y-116562485D01*
X153056271Y-116695639D01*
X153117558Y-116843598D01*
X153148800Y-117000665D01*
X153148800Y-117160815D01*
X153117558Y-117317882D01*
X153056271Y-117465841D01*
X152967301Y-117598995D01*
X152854055Y-117712241D01*
X152720901Y-117801211D01*
X152572942Y-117862498D01*
X152415875Y-117893740D01*
X152255725Y-117893740D01*
X152098658Y-117862498D01*
X151950699Y-117801211D01*
X151817545Y-117712241D01*
X151704299Y-117598995D01*
X151615329Y-117465841D01*
X151554042Y-117317882D01*
X151522800Y-117160815D01*
X151522800Y-117000665D01*
X151554042Y-116843598D01*
X151615329Y-116695639D01*
X151704299Y-116562485D01*
X151817545Y-116449239D01*
X151950699Y-116360269D01*
X152098658Y-116298982D01*
X152255725Y-116267740D01*
X152415875Y-116267740D01*
X152572942Y-116298982D01*
X152572942Y-116298982D01*
G37*
G36*
X183572942Y-116298982D02*
G01*
X183720901Y-116360269D01*
X183854055Y-116449239D01*
X183967301Y-116562485D01*
X184056271Y-116695639D01*
X184117558Y-116843598D01*
X184148800Y-117000665D01*
X184148800Y-117160815D01*
X184117558Y-117317882D01*
X184056271Y-117465841D01*
X183967301Y-117598995D01*
X183854055Y-117712241D01*
X183720901Y-117801211D01*
X183572942Y-117862498D01*
X183415875Y-117893740D01*
X183255725Y-117893740D01*
X183098658Y-117862498D01*
X182950699Y-117801211D01*
X182817545Y-117712241D01*
X182704299Y-117598995D01*
X182615329Y-117465841D01*
X182554042Y-117317882D01*
X182522800Y-117160815D01*
X182522800Y-117000665D01*
X182554042Y-116843598D01*
X182615329Y-116695639D01*
X182704299Y-116562485D01*
X182817545Y-116449239D01*
X182950699Y-116360269D01*
X183098658Y-116298982D01*
X183255725Y-116267740D01*
X183415875Y-116267740D01*
X183572942Y-116298982D01*
X183572942Y-116298982D01*
G37*
G36*
X191572942Y-116298982D02*
G01*
X191720901Y-116360269D01*
X191854055Y-116449239D01*
X191967301Y-116562485D01*
X192056271Y-116695639D01*
X192117558Y-116843598D01*
X192148800Y-117000665D01*
X192148800Y-117160815D01*
X192117558Y-117317882D01*
X192056271Y-117465841D01*
X191967301Y-117598995D01*
X191854055Y-117712241D01*
X191720901Y-117801211D01*
X191572942Y-117862498D01*
X191415875Y-117893740D01*
X191255725Y-117893740D01*
X191098658Y-117862498D01*
X190950699Y-117801211D01*
X190817545Y-117712241D01*
X190704299Y-117598995D01*
X190615329Y-117465841D01*
X190554042Y-117317882D01*
X190522800Y-117160815D01*
X190522800Y-117000665D01*
X190554042Y-116843598D01*
X190615329Y-116695639D01*
X190704299Y-116562485D01*
X190817545Y-116449239D01*
X190950699Y-116360269D01*
X191098658Y-116298982D01*
X191255725Y-116267740D01*
X191415875Y-116267740D01*
X191572942Y-116298982D01*
X191572942Y-116298982D01*
G37*
G36*
X160572942Y-116298982D02*
G01*
X160720901Y-116360269D01*
X160854055Y-116449239D01*
X160967301Y-116562485D01*
X161056271Y-116695639D01*
X161117558Y-116843598D01*
X161148800Y-117000665D01*
X161148800Y-117160815D01*
X161117558Y-117317882D01*
X161056271Y-117465841D01*
X160967301Y-117598995D01*
X160854055Y-117712241D01*
X160720901Y-117801211D01*
X160572942Y-117862498D01*
X160415875Y-117893740D01*
X160255725Y-117893740D01*
X160098658Y-117862498D01*
X159950699Y-117801211D01*
X159817545Y-117712241D01*
X159704299Y-117598995D01*
X159615329Y-117465841D01*
X159554042Y-117317882D01*
X159522800Y-117160815D01*
X159522800Y-117000665D01*
X159554042Y-116843598D01*
X159615329Y-116695639D01*
X159704299Y-116562485D01*
X159817545Y-116449239D01*
X159950699Y-116360269D01*
X160098658Y-116298982D01*
X160255725Y-116267740D01*
X160415875Y-116267740D01*
X160572942Y-116298982D01*
X160572942Y-116298982D01*
G37*
G36*
X75904233Y-108890633D02*
G01*
X75994457Y-108908579D01*
X76074514Y-108941740D01*
X76249421Y-109014189D01*
X76249422Y-109014190D01*
X76478886Y-109167512D01*
X76674028Y-109362654D01*
X76776475Y-109515977D01*
X76827351Y-109592119D01*
X76889215Y-109741473D01*
X76926606Y-109831740D01*
X76932961Y-109847084D01*
X76986800Y-110117752D01*
X76986800Y-110393728D01*
X76932961Y-110664396D01*
X76827351Y-110919361D01*
X76827350Y-110919362D01*
X76674028Y-111148826D01*
X76478886Y-111343968D01*
X76325563Y-111446415D01*
X76249421Y-111497291D01*
X76100067Y-111559155D01*
X75994457Y-111602901D01*
X75904233Y-111620847D01*
X75723788Y-111656740D01*
X75447812Y-111656740D01*
X75267367Y-111620847D01*
X75177143Y-111602901D01*
X75071533Y-111559155D01*
X74922179Y-111497291D01*
X74846037Y-111446415D01*
X74692714Y-111343968D01*
X74497572Y-111148826D01*
X74344250Y-110919362D01*
X74344249Y-110919361D01*
X74238639Y-110664396D01*
X74184800Y-110393728D01*
X74184800Y-110117752D01*
X74238639Y-109847084D01*
X74244995Y-109831740D01*
X74282385Y-109741473D01*
X74344249Y-109592119D01*
X74395125Y-109515977D01*
X74497572Y-109362654D01*
X74692714Y-109167512D01*
X74922178Y-109014190D01*
X74922179Y-109014189D01*
X75097086Y-108941740D01*
X75177143Y-108908579D01*
X75267367Y-108890633D01*
X75447812Y-108854740D01*
X75723788Y-108854740D01*
X75904233Y-108890633D01*
X75904233Y-108890633D01*
G37*
G36*
X202704233Y-108890633D02*
G01*
X202794457Y-108908579D01*
X202874514Y-108941740D01*
X203049421Y-109014189D01*
X203049422Y-109014190D01*
X203278886Y-109167512D01*
X203474028Y-109362654D01*
X203576475Y-109515977D01*
X203627351Y-109592119D01*
X203689215Y-109741473D01*
X203726606Y-109831740D01*
X203732961Y-109847084D01*
X203786800Y-110117752D01*
X203786800Y-110393728D01*
X203732961Y-110664396D01*
X203627351Y-110919361D01*
X203627350Y-110919362D01*
X203474028Y-111148826D01*
X203278886Y-111343968D01*
X203125563Y-111446415D01*
X203049421Y-111497291D01*
X202900067Y-111559155D01*
X202794457Y-111602901D01*
X202704233Y-111620847D01*
X202523788Y-111656740D01*
X202247812Y-111656740D01*
X202067367Y-111620847D01*
X201977143Y-111602901D01*
X201871533Y-111559155D01*
X201722179Y-111497291D01*
X201646037Y-111446415D01*
X201492714Y-111343968D01*
X201297572Y-111148826D01*
X201144250Y-110919362D01*
X201144249Y-110919361D01*
X201038639Y-110664396D01*
X200984800Y-110393728D01*
X200984800Y-110117752D01*
X201038639Y-109847084D01*
X201044995Y-109831740D01*
X201082385Y-109741473D01*
X201144249Y-109592119D01*
X201195125Y-109515977D01*
X201297572Y-109362654D01*
X201492714Y-109167512D01*
X201722178Y-109014190D01*
X201722179Y-109014189D01*
X201897086Y-108941740D01*
X201977143Y-108908579D01*
X202067367Y-108890633D01*
X202247812Y-108854740D01*
X202523788Y-108854740D01*
X202704233Y-108890633D01*
X202704233Y-108890633D01*
G37*
G36*
X127236800Y-109831740D02*
G01*
X126234800Y-109831740D01*
X126234800Y-109229740D01*
X127236800Y-109229740D01*
X127236800Y-109831740D01*
X127236800Y-109831740D01*
G37*
G36*
X125236800Y-109831740D02*
G01*
X124234800Y-109831740D01*
X124234800Y-109229740D01*
X125236800Y-109229740D01*
X125236800Y-109831740D01*
X125236800Y-109831740D01*
G37*
G36*
X132436800Y-108941740D02*
G01*
X129934800Y-108941740D01*
X129934800Y-108099740D01*
X132436800Y-108099740D01*
X132436800Y-108941740D01*
X132436800Y-108941740D01*
G37*
G36*
X136336800Y-108941740D02*
G01*
X133834800Y-108941740D01*
X133834800Y-108099740D01*
X136336800Y-108099740D01*
X136336800Y-108941740D01*
X136336800Y-108941740D01*
G37*
G36*
X127236800Y-108331740D02*
G01*
X126234800Y-108331740D01*
X126234800Y-107729740D01*
X127236800Y-107729740D01*
X127236800Y-108331740D01*
X127236800Y-108331740D01*
G37*
G36*
X125236800Y-108331740D02*
G01*
X124234800Y-108331740D01*
X124234800Y-107729740D01*
X125236800Y-107729740D01*
X125236800Y-108331740D01*
X125236800Y-108331740D01*
G37*
G36*
X136336800Y-107671740D02*
G01*
X133834800Y-107671740D01*
X133834800Y-106829740D01*
X136336800Y-106829740D01*
X136336800Y-107671740D01*
X136336800Y-107671740D01*
G37*
G36*
X132436800Y-107671740D02*
G01*
X129934800Y-107671740D01*
X129934800Y-106829740D01*
X132436800Y-106829740D01*
X132436800Y-107671740D01*
X132436800Y-107671740D01*
G37*
G36*
X132436800Y-106401740D02*
G01*
X129934800Y-106401740D01*
X129934800Y-105559740D01*
X132436800Y-105559740D01*
X132436800Y-106401740D01*
X132436800Y-106401740D01*
G37*
G36*
X136336800Y-106401740D02*
G01*
X133834800Y-106401740D01*
X133834800Y-105559740D01*
X136336800Y-105559740D01*
X136336800Y-106401740D01*
X136336800Y-106401740D01*
G37*
G36*
X184661800Y-105836740D02*
G01*
X183009800Y-105836740D01*
X183009800Y-105134740D01*
X184661800Y-105134740D01*
X184661800Y-105836740D01*
X184661800Y-105836740D01*
G37*
G36*
X190061800Y-105836740D02*
G01*
X188409800Y-105836740D01*
X188409800Y-105134740D01*
X190061800Y-105134740D01*
X190061800Y-105836740D01*
X190061800Y-105836740D01*
G37*
G36*
X136336800Y-105131740D02*
G01*
X133834800Y-105131740D01*
X133834800Y-104289740D01*
X136336800Y-104289740D01*
X136336800Y-105131740D01*
X136336800Y-105131740D01*
G37*
G36*
X132436800Y-105131740D02*
G01*
X129934800Y-105131740D01*
X129934800Y-104289740D01*
X132436800Y-104289740D01*
X132436800Y-105131740D01*
X132436800Y-105131740D01*
G37*
G36*
X190061800Y-104566740D02*
G01*
X188409800Y-104566740D01*
X188409800Y-103864740D01*
X190061800Y-103864740D01*
X190061800Y-104566740D01*
X190061800Y-104566740D01*
G37*
G36*
X184661800Y-104566740D02*
G01*
X183009800Y-104566740D01*
X183009800Y-103864740D01*
X184661800Y-103864740D01*
X184661800Y-104566740D01*
X184661800Y-104566740D01*
G37*
G36*
X193836800Y-104431740D02*
G01*
X192834800Y-104431740D01*
X192834800Y-103829740D01*
X193836800Y-103829740D01*
X193836800Y-104431740D01*
X193836800Y-104431740D01*
G37*
G36*
X132436800Y-103861740D02*
G01*
X129934800Y-103861740D01*
X129934800Y-103019740D01*
X132436800Y-103019740D01*
X132436800Y-103861740D01*
X132436800Y-103861740D01*
G37*
G36*
X136336800Y-103861740D02*
G01*
X133834800Y-103861740D01*
X133834800Y-103019740D01*
X136336800Y-103019740D01*
X136336800Y-103861740D01*
X136336800Y-103861740D01*
G37*
G36*
X184661800Y-103296740D02*
G01*
X183009800Y-103296740D01*
X183009800Y-102594740D01*
X184661800Y-102594740D01*
X184661800Y-103296740D01*
X184661800Y-103296740D01*
G37*
G36*
X190061800Y-103296740D02*
G01*
X188409800Y-103296740D01*
X188409800Y-102594740D01*
X190061800Y-102594740D01*
X190061800Y-103296740D01*
X190061800Y-103296740D01*
G37*
G36*
X193836800Y-102931740D02*
G01*
X192834800Y-102931740D01*
X192834800Y-102329740D01*
X193836800Y-102329740D01*
X193836800Y-102931740D01*
X193836800Y-102931740D01*
G37*
G36*
X198013800Y-102741740D02*
G01*
X195711800Y-102741740D01*
X195711800Y-100439740D01*
X198013800Y-100439740D01*
X198013800Y-102741740D01*
X198013800Y-102741740D01*
G37*
G36*
X190061800Y-102026740D02*
G01*
X188409800Y-102026740D01*
X188409800Y-101324740D01*
X190061800Y-101324740D01*
X190061800Y-102026740D01*
X190061800Y-102026740D01*
G37*
G36*
X184661800Y-102026740D02*
G01*
X183009800Y-102026740D01*
X183009800Y-101324740D01*
X184661800Y-101324740D01*
X184661800Y-102026740D01*
X184661800Y-102026740D01*
G37*
G36*
X194021800Y-101556740D02*
G01*
X192649800Y-101556740D01*
X192649800Y-99204740D01*
X194021800Y-99204740D01*
X194021800Y-101556740D01*
X194021800Y-101556740D01*
G37*
G36*
X166521800Y-100031740D02*
G01*
X165919800Y-100031740D01*
X165919800Y-97929740D01*
X166521800Y-97929740D01*
X166521800Y-100031740D01*
X166521800Y-100031740D01*
G37*
G36*
X103261800Y-100031740D02*
G01*
X102659800Y-100031740D01*
X102659800Y-97929740D01*
X103261800Y-97929740D01*
X103261800Y-100031740D01*
X103261800Y-100031740D01*
G37*
G36*
X101991800Y-100031740D02*
G01*
X101389800Y-100031740D01*
X101389800Y-97929740D01*
X101991800Y-97929740D01*
X101991800Y-100031740D01*
X101991800Y-100031740D01*
G37*
G36*
X100721800Y-100031740D02*
G01*
X100119800Y-100031740D01*
X100119800Y-97929740D01*
X100721800Y-97929740D01*
X100721800Y-100031740D01*
X100721800Y-100031740D01*
G37*
G36*
X99451800Y-100031740D02*
G01*
X98849800Y-100031740D01*
X98849800Y-97929740D01*
X99451800Y-97929740D01*
X99451800Y-100031740D01*
X99451800Y-100031740D01*
G37*
G36*
X98181800Y-100031740D02*
G01*
X97579800Y-100031740D01*
X97579800Y-97929740D01*
X98181800Y-97929740D01*
X98181800Y-100031740D01*
X98181800Y-100031740D01*
G37*
G36*
X105801800Y-100031740D02*
G01*
X105199800Y-100031740D01*
X105199800Y-97929740D01*
X105801800Y-97929740D01*
X105801800Y-100031740D01*
X105801800Y-100031740D01*
G37*
G36*
X104531800Y-100031740D02*
G01*
X103929800Y-100031740D01*
X103929800Y-97929740D01*
X104531800Y-97929740D01*
X104531800Y-100031740D01*
X104531800Y-100031740D01*
G37*
G36*
X179221800Y-100031740D02*
G01*
X178619800Y-100031740D01*
X178619800Y-97929740D01*
X179221800Y-97929740D01*
X179221800Y-100031740D01*
X179221800Y-100031740D01*
G37*
G36*
X177951800Y-100031740D02*
G01*
X177349800Y-100031740D01*
X177349800Y-97929740D01*
X177951800Y-97929740D01*
X177951800Y-100031740D01*
X177951800Y-100031740D01*
G37*
G36*
X176681800Y-100031740D02*
G01*
X176079800Y-100031740D01*
X176079800Y-97929740D01*
X176681800Y-97929740D01*
X176681800Y-100031740D01*
X176681800Y-100031740D01*
G37*
G36*
X175411800Y-100031740D02*
G01*
X174809800Y-100031740D01*
X174809800Y-97929740D01*
X175411800Y-97929740D01*
X175411800Y-100031740D01*
X175411800Y-100031740D01*
G37*
G36*
X174141800Y-100031740D02*
G01*
X173539800Y-100031740D01*
X173539800Y-97929740D01*
X174141800Y-97929740D01*
X174141800Y-100031740D01*
X174141800Y-100031740D01*
G37*
G36*
X172871800Y-100031740D02*
G01*
X172269800Y-100031740D01*
X172269800Y-97929740D01*
X172871800Y-97929740D01*
X172871800Y-100031740D01*
X172871800Y-100031740D01*
G37*
G36*
X170331800Y-100031740D02*
G01*
X169729800Y-100031740D01*
X169729800Y-97929740D01*
X170331800Y-97929740D01*
X170331800Y-100031740D01*
X170331800Y-100031740D01*
G37*
G36*
X107071800Y-100031740D02*
G01*
X106469800Y-100031740D01*
X106469800Y-97929740D01*
X107071800Y-97929740D01*
X107071800Y-100031740D01*
X107071800Y-100031740D01*
G37*
G36*
X180491800Y-100031740D02*
G01*
X179889800Y-100031740D01*
X179889800Y-97929740D01*
X180491800Y-97929740D01*
X180491800Y-100031740D01*
X180491800Y-100031740D01*
G37*
G36*
X108341800Y-100031740D02*
G01*
X107739800Y-100031740D01*
X107739800Y-97929740D01*
X108341800Y-97929740D01*
X108341800Y-100031740D01*
X108341800Y-100031740D01*
G37*
G36*
X109611800Y-100031740D02*
G01*
X109009800Y-100031740D01*
X109009800Y-97929740D01*
X109611800Y-97929740D01*
X109611800Y-100031740D01*
X109611800Y-100031740D01*
G37*
G36*
X110881800Y-100031740D02*
G01*
X110279800Y-100031740D01*
X110279800Y-97929740D01*
X110881800Y-97929740D01*
X110881800Y-100031740D01*
X110881800Y-100031740D01*
G37*
G36*
X112151800Y-100031740D02*
G01*
X111549800Y-100031740D01*
X111549800Y-97929740D01*
X112151800Y-97929740D01*
X112151800Y-100031740D01*
X112151800Y-100031740D01*
G37*
G36*
X114691800Y-100031740D02*
G01*
X114089800Y-100031740D01*
X114089800Y-97929740D01*
X114691800Y-97929740D01*
X114691800Y-100031740D01*
X114691800Y-100031740D01*
G37*
G36*
X169061800Y-100031740D02*
G01*
X168459800Y-100031740D01*
X168459800Y-97929740D01*
X169061800Y-97929740D01*
X169061800Y-100031740D01*
X169061800Y-100031740D01*
G37*
G36*
X163981800Y-100031740D02*
G01*
X163379800Y-100031740D01*
X163379800Y-97929740D01*
X163981800Y-97929740D01*
X163981800Y-100031740D01*
X163981800Y-100031740D01*
G37*
G36*
X165251800Y-100031740D02*
G01*
X164649800Y-100031740D01*
X164649800Y-97929740D01*
X165251800Y-97929740D01*
X165251800Y-100031740D01*
X165251800Y-100031740D01*
G37*
G36*
X167791800Y-100031740D02*
G01*
X167189800Y-100031740D01*
X167189800Y-97929740D01*
X167791800Y-97929740D01*
X167791800Y-100031740D01*
X167791800Y-100031740D01*
G37*
G36*
X171601800Y-100031740D02*
G01*
X170999800Y-100031740D01*
X170999800Y-97929740D01*
X171601800Y-97929740D01*
X171601800Y-100031740D01*
X171601800Y-100031740D01*
G37*
G36*
X113421800Y-100031740D02*
G01*
X112819800Y-100031740D01*
X112819800Y-97929740D01*
X113421800Y-97929740D01*
X113421800Y-100031740D01*
X113421800Y-100031740D01*
G37*
G36*
X141718260Y-99708040D02*
G01*
X135866260Y-99708040D01*
X135866260Y-98306040D01*
X141718260Y-98306040D01*
X141718260Y-99708040D01*
X141718260Y-99708040D01*
G37*
G36*
X120436800Y-99606740D02*
G01*
X118734800Y-99606740D01*
X118734800Y-96504740D01*
X120436800Y-96504740D01*
X120436800Y-99606740D01*
X120436800Y-99606740D01*
G37*
G36*
X187361800Y-99581740D02*
G01*
X186509800Y-99581740D01*
X186509800Y-98679740D01*
X187361800Y-98679740D01*
X187361800Y-99581740D01*
X187361800Y-99581740D01*
G37*
G36*
X188961800Y-99581740D02*
G01*
X188109800Y-99581740D01*
X188109800Y-98679740D01*
X188961800Y-98679740D01*
X188961800Y-99581740D01*
X188961800Y-99581740D01*
G37*
G36*
X197087349Y-96651856D02*
G01*
X197198534Y-96673972D01*
X197408003Y-96760737D01*
X197596520Y-96886700D01*
X197756840Y-97047020D01*
X197882803Y-97235537D01*
X197969568Y-97445006D01*
X198013800Y-97667376D01*
X198013800Y-97894104D01*
X197969568Y-98116474D01*
X197882803Y-98325943D01*
X197756840Y-98514460D01*
X197596520Y-98674780D01*
X197408003Y-98800743D01*
X197198534Y-98887508D01*
X197087349Y-98909624D01*
X196976165Y-98931740D01*
X196749435Y-98931740D01*
X196638251Y-98909624D01*
X196527066Y-98887508D01*
X196317597Y-98800743D01*
X196129080Y-98674780D01*
X195968760Y-98514460D01*
X195842797Y-98325943D01*
X195756032Y-98116474D01*
X195711800Y-97894104D01*
X195711800Y-97667376D01*
X195756032Y-97445006D01*
X195842797Y-97235537D01*
X195968760Y-97047020D01*
X196129080Y-96886700D01*
X196317597Y-96760737D01*
X196527066Y-96673972D01*
X196638251Y-96651856D01*
X196749435Y-96629740D01*
X196976165Y-96629740D01*
X197087349Y-96651856D01*
X197087349Y-96651856D01*
G37*
G36*
X187361800Y-98081740D02*
G01*
X186509800Y-98081740D01*
X186509800Y-97179740D01*
X187361800Y-97179740D01*
X187361800Y-98081740D01*
X187361800Y-98081740D01*
G37*
G36*
X188961800Y-98081740D02*
G01*
X188109800Y-98081740D01*
X188109800Y-97179740D01*
X188961800Y-97179740D01*
X188961800Y-98081740D01*
X188961800Y-98081740D01*
G37*
G36*
X94711800Y-97706740D02*
G01*
X93809800Y-97706740D01*
X93809800Y-96854740D01*
X94711800Y-96854740D01*
X94711800Y-97706740D01*
X94711800Y-97706740D01*
G37*
G36*
X96211800Y-97706740D02*
G01*
X95309800Y-97706740D01*
X95309800Y-96854740D01*
X96211800Y-96854740D01*
X96211800Y-97706740D01*
X96211800Y-97706740D01*
G37*
G36*
X135143260Y-97583040D02*
G01*
X133741260Y-97583040D01*
X133741260Y-91731040D01*
X135143260Y-91731040D01*
X135143260Y-97583040D01*
X135143260Y-97583040D01*
G37*
G36*
X143843260Y-97583040D02*
G01*
X142441260Y-97583040D01*
X142441260Y-91731040D01*
X143843260Y-91731040D01*
X143843260Y-97583040D01*
X143843260Y-97583040D01*
G37*
G36*
X183361800Y-96831740D02*
G01*
X182509800Y-96831740D01*
X182509800Y-95929740D01*
X183361800Y-95929740D01*
X183361800Y-96831740D01*
X183361800Y-96831740D01*
G37*
G36*
X185161800Y-96831740D02*
G01*
X184309800Y-96831740D01*
X184309800Y-95929740D01*
X185161800Y-95929740D01*
X185161800Y-96831740D01*
X185161800Y-96831740D01*
G37*
G36*
X94711800Y-96081740D02*
G01*
X93809800Y-96081740D01*
X93809800Y-95229740D01*
X94711800Y-95229740D01*
X94711800Y-96081740D01*
X94711800Y-96081740D01*
G37*
G36*
X96211800Y-96081740D02*
G01*
X95309800Y-96081740D01*
X95309800Y-95229740D01*
X96211800Y-95229740D01*
X96211800Y-96081740D01*
X96211800Y-96081740D01*
G37*
G36*
X148211800Y-95656740D02*
G01*
X147359800Y-95656740D01*
X147359800Y-94754740D01*
X148211800Y-94754740D01*
X148211800Y-95656740D01*
X148211800Y-95656740D01*
G37*
G36*
X183361800Y-95331740D02*
G01*
X182509800Y-95331740D01*
X182509800Y-94429740D01*
X183361800Y-94429740D01*
X183361800Y-95331740D01*
X183361800Y-95331740D01*
G37*
G36*
X185161800Y-95331740D02*
G01*
X184309800Y-95331740D01*
X184309800Y-94429740D01*
X185161800Y-94429740D01*
X185161800Y-95331740D01*
X185161800Y-95331740D01*
G37*
G36*
X120436800Y-95206740D02*
G01*
X118734800Y-95206740D01*
X118734800Y-92104740D01*
X120436800Y-92104740D01*
X120436800Y-95206740D01*
X120436800Y-95206740D01*
G37*
G36*
X197087349Y-92841856D02*
G01*
X197198534Y-92863972D01*
X197408003Y-92950737D01*
X197596520Y-93076700D01*
X197756840Y-93237020D01*
X197882803Y-93425537D01*
X197969568Y-93635006D01*
X198013800Y-93857376D01*
X198013800Y-94084104D01*
X197969568Y-94306474D01*
X197882803Y-94515943D01*
X197756840Y-94704460D01*
X197596520Y-94864780D01*
X197408003Y-94990743D01*
X197198534Y-95077508D01*
X197087349Y-95099624D01*
X196976165Y-95121740D01*
X196749435Y-95121740D01*
X196638251Y-95099624D01*
X196527066Y-95077508D01*
X196317597Y-94990743D01*
X196129080Y-94864780D01*
X195968760Y-94704460D01*
X195842797Y-94515943D01*
X195756032Y-94306474D01*
X195711800Y-94084104D01*
X195711800Y-93857376D01*
X195756032Y-93635006D01*
X195842797Y-93425537D01*
X195968760Y-93237020D01*
X196129080Y-93076700D01*
X196317597Y-92950737D01*
X196527066Y-92863972D01*
X196638251Y-92841856D01*
X196749435Y-92819740D01*
X196976165Y-92819740D01*
X197087349Y-92841856D01*
X197087349Y-92841856D01*
G37*
G36*
X148211800Y-94156740D02*
G01*
X147359800Y-94156740D01*
X147359800Y-93254740D01*
X148211800Y-93254740D01*
X148211800Y-94156740D01*
X148211800Y-94156740D01*
G37*
G36*
X186086800Y-92231740D02*
G01*
X182984800Y-92231740D01*
X182984800Y-90529740D01*
X186086800Y-90529740D01*
X186086800Y-92231740D01*
X186086800Y-92231740D01*
G37*
G36*
X190486800Y-92231740D02*
G01*
X187384800Y-92231740D01*
X187384800Y-90529740D01*
X190486800Y-90529740D01*
X190486800Y-92231740D01*
X190486800Y-92231740D01*
G37*
G36*
X94386800Y-91806740D02*
G01*
X93784800Y-91806740D01*
X93784800Y-90804740D01*
X94386800Y-90804740D01*
X94386800Y-91806740D01*
X94386800Y-91806740D01*
G37*
G36*
X95886800Y-91806740D02*
G01*
X95284800Y-91806740D01*
X95284800Y-90804740D01*
X95886800Y-90804740D01*
X95886800Y-91806740D01*
X95886800Y-91806740D01*
G37*
G36*
X197087349Y-89031856D02*
G01*
X197198534Y-89053972D01*
X197408003Y-89140737D01*
X197596520Y-89266700D01*
X197756840Y-89427020D01*
X197882803Y-89615537D01*
X197969568Y-89825006D01*
X198013800Y-90047376D01*
X198013800Y-90274104D01*
X197969568Y-90496474D01*
X197882803Y-90705943D01*
X197756840Y-90894460D01*
X197596520Y-91054780D01*
X197408003Y-91180743D01*
X197198534Y-91267508D01*
X197087349Y-91289624D01*
X196976165Y-91311740D01*
X196749435Y-91311740D01*
X196638251Y-91289624D01*
X196527066Y-91267508D01*
X196317597Y-91180743D01*
X196129080Y-91054780D01*
X195968760Y-90894460D01*
X195842797Y-90705943D01*
X195756032Y-90496474D01*
X195711800Y-90274104D01*
X195711800Y-90047376D01*
X195756032Y-89825006D01*
X195842797Y-89615537D01*
X195968760Y-89427020D01*
X196129080Y-89266700D01*
X196317597Y-89140737D01*
X196527066Y-89053972D01*
X196638251Y-89031856D01*
X196749435Y-89009740D01*
X196976165Y-89009740D01*
X197087349Y-89031856D01*
X197087349Y-89031856D01*
G37*
G36*
X141718260Y-91008040D02*
G01*
X135866260Y-91008040D01*
X135866260Y-89606040D01*
X141718260Y-89606040D01*
X141718260Y-91008040D01*
X141718260Y-91008040D01*
G37*
G36*
X170331800Y-90031740D02*
G01*
X169729800Y-90031740D01*
X169729800Y-87929740D01*
X170331800Y-87929740D01*
X170331800Y-90031740D01*
X170331800Y-90031740D01*
G37*
G36*
X98181800Y-90031740D02*
G01*
X97579800Y-90031740D01*
X97579800Y-87929740D01*
X98181800Y-87929740D01*
X98181800Y-90031740D01*
X98181800Y-90031740D01*
G37*
G36*
X175411800Y-90031740D02*
G01*
X174809800Y-90031740D01*
X174809800Y-87929740D01*
X175411800Y-87929740D01*
X175411800Y-90031740D01*
X175411800Y-90031740D01*
G37*
G36*
X180491800Y-90031740D02*
G01*
X179889800Y-90031740D01*
X179889800Y-87929740D01*
X180491800Y-87929740D01*
X180491800Y-90031740D01*
X180491800Y-90031740D01*
G37*
G36*
X176681800Y-90031740D02*
G01*
X176079800Y-90031740D01*
X176079800Y-87929740D01*
X176681800Y-87929740D01*
X176681800Y-90031740D01*
X176681800Y-90031740D01*
G37*
G36*
X179221800Y-90031740D02*
G01*
X178619800Y-90031740D01*
X178619800Y-87929740D01*
X179221800Y-87929740D01*
X179221800Y-90031740D01*
X179221800Y-90031740D01*
G37*
G36*
X177951800Y-90031740D02*
G01*
X177349800Y-90031740D01*
X177349800Y-87929740D01*
X177951800Y-87929740D01*
X177951800Y-90031740D01*
X177951800Y-90031740D01*
G37*
G36*
X165251800Y-90031740D02*
G01*
X164649800Y-90031740D01*
X164649800Y-87929740D01*
X165251800Y-87929740D01*
X165251800Y-90031740D01*
X165251800Y-90031740D01*
G37*
G36*
X174141800Y-90031740D02*
G01*
X173539800Y-90031740D01*
X173539800Y-87929740D01*
X174141800Y-87929740D01*
X174141800Y-90031740D01*
X174141800Y-90031740D01*
G37*
G36*
X166521800Y-90031740D02*
G01*
X165919800Y-90031740D01*
X165919800Y-87929740D01*
X166521800Y-87929740D01*
X166521800Y-90031740D01*
X166521800Y-90031740D01*
G37*
G36*
X172871800Y-90031740D02*
G01*
X172269800Y-90031740D01*
X172269800Y-87929740D01*
X172871800Y-87929740D01*
X172871800Y-90031740D01*
X172871800Y-90031740D01*
G37*
G36*
X167791800Y-90031740D02*
G01*
X167189800Y-90031740D01*
X167189800Y-87929740D01*
X167791800Y-87929740D01*
X167791800Y-90031740D01*
X167791800Y-90031740D01*
G37*
G36*
X169061800Y-90031740D02*
G01*
X168459800Y-90031740D01*
X168459800Y-87929740D01*
X169061800Y-87929740D01*
X169061800Y-90031740D01*
X169061800Y-90031740D01*
G37*
G36*
X171601800Y-90031740D02*
G01*
X170999800Y-90031740D01*
X170999800Y-87929740D01*
X171601800Y-87929740D01*
X171601800Y-90031740D01*
X171601800Y-90031740D01*
G37*
G36*
X107071800Y-90031740D02*
G01*
X106469800Y-90031740D01*
X106469800Y-87929740D01*
X107071800Y-87929740D01*
X107071800Y-90031740D01*
X107071800Y-90031740D01*
G37*
G36*
X108341800Y-90031740D02*
G01*
X107739800Y-90031740D01*
X107739800Y-87929740D01*
X108341800Y-87929740D01*
X108341800Y-90031740D01*
X108341800Y-90031740D01*
G37*
G36*
X104531800Y-90031740D02*
G01*
X103929800Y-90031740D01*
X103929800Y-87929740D01*
X104531800Y-87929740D01*
X104531800Y-90031740D01*
X104531800Y-90031740D01*
G37*
G36*
X113421800Y-90031740D02*
G01*
X112819800Y-90031740D01*
X112819800Y-87929740D01*
X113421800Y-87929740D01*
X113421800Y-90031740D01*
X113421800Y-90031740D01*
G37*
G36*
X103261800Y-90031740D02*
G01*
X102659800Y-90031740D01*
X102659800Y-87929740D01*
X103261800Y-87929740D01*
X103261800Y-90031740D01*
X103261800Y-90031740D01*
G37*
G36*
X112151800Y-90031740D02*
G01*
X111549800Y-90031740D01*
X111549800Y-87929740D01*
X112151800Y-87929740D01*
X112151800Y-90031740D01*
X112151800Y-90031740D01*
G37*
G36*
X101991800Y-90031740D02*
G01*
X101389800Y-90031740D01*
X101389800Y-87929740D01*
X101991800Y-87929740D01*
X101991800Y-90031740D01*
X101991800Y-90031740D01*
G37*
G36*
X114691800Y-90031740D02*
G01*
X114089800Y-90031740D01*
X114089800Y-87929740D01*
X114691800Y-87929740D01*
X114691800Y-90031740D01*
X114691800Y-90031740D01*
G37*
G36*
X110881800Y-90031740D02*
G01*
X110279800Y-90031740D01*
X110279800Y-87929740D01*
X110881800Y-87929740D01*
X110881800Y-90031740D01*
X110881800Y-90031740D01*
G37*
G36*
X105801800Y-90031740D02*
G01*
X105199800Y-90031740D01*
X105199800Y-87929740D01*
X105801800Y-87929740D01*
X105801800Y-90031740D01*
X105801800Y-90031740D01*
G37*
G36*
X99451800Y-90031740D02*
G01*
X98849800Y-90031740D01*
X98849800Y-87929740D01*
X99451800Y-87929740D01*
X99451800Y-90031740D01*
X99451800Y-90031740D01*
G37*
G36*
X109611800Y-90031740D02*
G01*
X109009800Y-90031740D01*
X109009800Y-87929740D01*
X109611800Y-87929740D01*
X109611800Y-90031740D01*
X109611800Y-90031740D01*
G37*
G36*
X163981800Y-90031740D02*
G01*
X163379800Y-90031740D01*
X163379800Y-87929740D01*
X163981800Y-87929740D01*
X163981800Y-90031740D01*
X163981800Y-90031740D01*
G37*
G36*
X100721800Y-90031740D02*
G01*
X100119800Y-90031740D01*
X100119800Y-87929740D01*
X100721800Y-87929740D01*
X100721800Y-90031740D01*
X100721800Y-90031740D01*
G37*
G36*
X138736800Y-87956740D02*
G01*
X137834800Y-87956740D01*
X137834800Y-87104740D01*
X138736800Y-87104740D01*
X138736800Y-87956740D01*
X138736800Y-87956740D01*
G37*
G36*
X140236800Y-87956740D02*
G01*
X139334800Y-87956740D01*
X139334800Y-87104740D01*
X140236800Y-87104740D01*
X140236800Y-87956740D01*
X140236800Y-87956740D01*
G37*
G36*
X122136800Y-87156740D02*
G01*
X121134800Y-87156740D01*
X121134800Y-86054740D01*
X122136800Y-86054740D01*
X122136800Y-87156740D01*
X122136800Y-87156740D01*
G37*
G36*
X118036800Y-87156740D02*
G01*
X117034800Y-87156740D01*
X117034800Y-86054740D01*
X118036800Y-86054740D01*
X118036800Y-87156740D01*
X118036800Y-87156740D01*
G37*
G36*
X140236800Y-86556740D02*
G01*
X139334800Y-86556740D01*
X139334800Y-85704740D01*
X140236800Y-85704740D01*
X140236800Y-86556740D01*
X140236800Y-86556740D01*
G37*
G36*
X138736800Y-86556740D02*
G01*
X137834800Y-86556740D01*
X137834800Y-85704740D01*
X138736800Y-85704740D01*
X138736800Y-86556740D01*
X138736800Y-86556740D01*
G37*
G36*
X118036800Y-85556740D02*
G01*
X117034800Y-85556740D01*
X117034800Y-84454740D01*
X118036800Y-84454740D01*
X118036800Y-85556740D01*
X118036800Y-85556740D01*
G37*
G36*
X122136800Y-85556740D02*
G01*
X121134800Y-85556740D01*
X121134800Y-84454740D01*
X122136800Y-84454740D01*
X122136800Y-85556740D01*
X122136800Y-85556740D01*
G37*
G36*
X138736800Y-85106740D02*
G01*
X137834800Y-85106740D01*
X137834800Y-84254740D01*
X138736800Y-84254740D01*
X138736800Y-85106740D01*
X138736800Y-85106740D01*
G37*
G36*
X140236800Y-85106740D02*
G01*
X139334800Y-85106740D01*
X139334800Y-84254740D01*
X140236800Y-84254740D01*
X140236800Y-85106740D01*
X140236800Y-85106740D01*
G37*
G36*
X192186800Y-85081740D02*
G01*
X191284800Y-85081740D01*
X191284800Y-84079740D01*
X192186800Y-84079740D01*
X192186800Y-85081740D01*
X192186800Y-85081740D01*
G37*
G36*
X197186800Y-85031740D02*
G01*
X195484800Y-85031740D01*
X195484800Y-83929740D01*
X197186800Y-83929740D01*
X197186800Y-85031740D01*
X197186800Y-85031740D01*
G37*
G36*
X130761800Y-83131740D02*
G01*
X129859800Y-83131740D01*
X129859800Y-82229740D01*
X130761800Y-82229740D01*
X130761800Y-83131740D01*
X130761800Y-83131740D01*
G37*
G36*
X191236800Y-83081740D02*
G01*
X190334800Y-83081740D01*
X190334800Y-82079740D01*
X191236800Y-82079740D01*
X191236800Y-83081740D01*
X191236800Y-83081740D01*
G37*
G36*
X193136800Y-83081740D02*
G01*
X192234800Y-83081740D01*
X192234800Y-82079740D01*
X193136800Y-82079740D01*
X193136800Y-83081740D01*
X193136800Y-83081740D01*
G37*
G36*
X197186800Y-82031740D02*
G01*
X195484800Y-82031740D01*
X195484800Y-80929740D01*
X197186800Y-80929740D01*
X197186800Y-82031740D01*
X197186800Y-82031740D01*
G37*
G36*
X130761800Y-81531740D02*
G01*
X129859800Y-81531740D01*
X129859800Y-80629740D01*
X130761800Y-80629740D01*
X130761800Y-81531740D01*
X130761800Y-81531740D01*
G37*
G36*
X192936800Y-81006740D02*
G01*
X192034800Y-81006740D01*
X192034800Y-80154740D01*
X192936800Y-80154740D01*
X192936800Y-81006740D01*
X192936800Y-81006740D01*
G37*
G36*
X191436800Y-81006740D02*
G01*
X190534800Y-81006740D01*
X190534800Y-80154740D01*
X191436800Y-80154740D01*
X191436800Y-81006740D01*
X191436800Y-81006740D01*
G37*
G36*
X202704233Y-77890633D02*
G01*
X202794457Y-77908579D01*
X202900067Y-77952325D01*
X203049421Y-78014189D01*
X203049422Y-78014190D01*
X203278886Y-78167512D01*
X203474028Y-78362654D01*
X203576475Y-78515977D01*
X203627351Y-78592119D01*
X203732961Y-78847084D01*
X203786800Y-79117752D01*
X203786800Y-79393728D01*
X203732961Y-79664396D01*
X203627351Y-79919361D01*
X203627350Y-79919362D01*
X203474028Y-80148826D01*
X203278886Y-80343968D01*
X203125563Y-80446415D01*
X203049421Y-80497291D01*
X202900067Y-80559155D01*
X202794457Y-80602901D01*
X202704233Y-80620847D01*
X202523788Y-80656740D01*
X202247812Y-80656740D01*
X202067367Y-80620847D01*
X201977143Y-80602901D01*
X201871533Y-80559155D01*
X201722179Y-80497291D01*
X201646037Y-80446415D01*
X201492714Y-80343968D01*
X201297572Y-80148826D01*
X201144250Y-79919362D01*
X201144249Y-79919361D01*
X201038639Y-79664396D01*
X200984800Y-79393728D01*
X200984800Y-79117752D01*
X201038639Y-78847084D01*
X201144249Y-78592119D01*
X201195125Y-78515977D01*
X201297572Y-78362654D01*
X201492714Y-78167512D01*
X201722178Y-78014190D01*
X201722179Y-78014189D01*
X201871533Y-77952325D01*
X201977143Y-77908579D01*
X202067367Y-77890633D01*
X202247812Y-77854740D01*
X202523788Y-77854740D01*
X202704233Y-77890633D01*
X202704233Y-77890633D01*
G37*
G36*
X75904233Y-77890633D02*
G01*
X75994457Y-77908579D01*
X76100067Y-77952325D01*
X76249421Y-78014189D01*
X76249422Y-78014190D01*
X76478886Y-78167512D01*
X76674028Y-78362654D01*
X76776475Y-78515977D01*
X76827351Y-78592119D01*
X76932961Y-78847084D01*
X76986800Y-79117752D01*
X76986800Y-79393728D01*
X76932961Y-79664396D01*
X76827351Y-79919361D01*
X76827350Y-79919362D01*
X76674028Y-80148826D01*
X76478886Y-80343968D01*
X76325563Y-80446415D01*
X76249421Y-80497291D01*
X76100067Y-80559155D01*
X75994457Y-80602901D01*
X75904233Y-80620847D01*
X75723788Y-80656740D01*
X75447812Y-80656740D01*
X75267367Y-80620847D01*
X75177143Y-80602901D01*
X75071533Y-80559155D01*
X74922179Y-80497291D01*
X74846037Y-80446415D01*
X74692714Y-80343968D01*
X74497572Y-80148826D01*
X74344250Y-79919362D01*
X74344249Y-79919361D01*
X74238639Y-79664396D01*
X74184800Y-79393728D01*
X74184800Y-79117752D01*
X74238639Y-78847084D01*
X74344249Y-78592119D01*
X74395125Y-78515977D01*
X74497572Y-78362654D01*
X74692714Y-78167512D01*
X74922178Y-78014190D01*
X74922179Y-78014189D01*
X75071533Y-77952325D01*
X75177143Y-77908579D01*
X75267367Y-77890633D01*
X75447812Y-77854740D01*
X75723788Y-77854740D01*
X75904233Y-77890633D01*
X75904233Y-77890633D01*
G37*
G36*
X130811800Y-79856740D02*
G01*
X129809800Y-79856740D01*
X129809800Y-79254740D01*
X130811800Y-79254740D01*
X130811800Y-79856740D01*
X130811800Y-79856740D01*
G37*
G36*
X130811800Y-78356740D02*
G01*
X129809800Y-78356740D01*
X129809800Y-77754740D01*
X130811800Y-77754740D01*
X130811800Y-78356740D01*
X130811800Y-78356740D01*
G37*
G36*
X152572942Y-72298982D02*
G01*
X152720901Y-72360269D01*
X152854055Y-72449239D01*
X152967301Y-72562485D01*
X153056271Y-72695639D01*
X153117558Y-72843598D01*
X153148800Y-73000665D01*
X153148800Y-73160815D01*
X153117558Y-73317882D01*
X153056271Y-73465841D01*
X152967301Y-73598995D01*
X152854055Y-73712241D01*
X152720901Y-73801211D01*
X152572942Y-73862498D01*
X152415875Y-73893740D01*
X152255725Y-73893740D01*
X152098658Y-73862498D01*
X151950699Y-73801211D01*
X151817545Y-73712241D01*
X151704299Y-73598995D01*
X151615329Y-73465841D01*
X151554042Y-73317882D01*
X151522800Y-73160815D01*
X151522800Y-73000665D01*
X151554042Y-72843598D01*
X151615329Y-72695639D01*
X151704299Y-72562485D01*
X151817545Y-72449239D01*
X151950699Y-72360269D01*
X152098658Y-72298982D01*
X152255725Y-72267740D01*
X152415875Y-72267740D01*
X152572942Y-72298982D01*
X152572942Y-72298982D01*
G37*
G36*
X86572942Y-72298982D02*
G01*
X86720901Y-72360269D01*
X86854055Y-72449239D01*
X86967301Y-72562485D01*
X87056271Y-72695639D01*
X87117558Y-72843598D01*
X87148800Y-73000665D01*
X87148800Y-73160815D01*
X87117558Y-73317882D01*
X87056271Y-73465841D01*
X86967301Y-73598995D01*
X86854055Y-73712241D01*
X86720901Y-73801211D01*
X86572942Y-73862498D01*
X86415875Y-73893740D01*
X86255725Y-73893740D01*
X86098658Y-73862498D01*
X85950699Y-73801211D01*
X85817545Y-73712241D01*
X85704299Y-73598995D01*
X85615329Y-73465841D01*
X85554042Y-73317882D01*
X85522800Y-73160815D01*
X85522800Y-73000665D01*
X85554042Y-72843598D01*
X85615329Y-72695639D01*
X85704299Y-72562485D01*
X85817545Y-72449239D01*
X85950699Y-72360269D01*
X86098658Y-72298982D01*
X86255725Y-72267740D01*
X86415875Y-72267740D01*
X86572942Y-72298982D01*
X86572942Y-72298982D01*
G37*
G36*
X117572942Y-72298982D02*
G01*
X117720901Y-72360269D01*
X117854055Y-72449239D01*
X117967301Y-72562485D01*
X118056271Y-72695639D01*
X118117558Y-72843598D01*
X118148800Y-73000665D01*
X118148800Y-73160815D01*
X118117558Y-73317882D01*
X118056271Y-73465841D01*
X117967301Y-73598995D01*
X117854055Y-73712241D01*
X117720901Y-73801211D01*
X117572942Y-73862498D01*
X117415875Y-73893740D01*
X117255725Y-73893740D01*
X117098658Y-73862498D01*
X116950699Y-73801211D01*
X116817545Y-73712241D01*
X116704299Y-73598995D01*
X116615329Y-73465841D01*
X116554042Y-73317882D01*
X116522800Y-73160815D01*
X116522800Y-73000665D01*
X116554042Y-72843598D01*
X116615329Y-72695639D01*
X116704299Y-72562485D01*
X116817545Y-72449239D01*
X116950699Y-72360269D01*
X117098658Y-72298982D01*
X117255725Y-72267740D01*
X117415875Y-72267740D01*
X117572942Y-72298982D01*
X117572942Y-72298982D01*
G37*
G36*
X191572942Y-72298982D02*
G01*
X191720901Y-72360269D01*
X191854055Y-72449239D01*
X191967301Y-72562485D01*
X192056271Y-72695639D01*
X192117558Y-72843598D01*
X192148800Y-73000665D01*
X192148800Y-73160815D01*
X192117558Y-73317882D01*
X192056271Y-73465841D01*
X191967301Y-73598995D01*
X191854055Y-73712241D01*
X191720901Y-73801211D01*
X191572942Y-73862498D01*
X191415875Y-73893740D01*
X191255725Y-73893740D01*
X191098658Y-73862498D01*
X190950699Y-73801211D01*
X190817545Y-73712241D01*
X190704299Y-73598995D01*
X190615329Y-73465841D01*
X190554042Y-73317882D01*
X190522800Y-73160815D01*
X190522800Y-73000665D01*
X190554042Y-72843598D01*
X190615329Y-72695639D01*
X190704299Y-72562485D01*
X190817545Y-72449239D01*
X190950699Y-72360269D01*
X191098658Y-72298982D01*
X191255725Y-72267740D01*
X191415875Y-72267740D01*
X191572942Y-72298982D01*
X191572942Y-72298982D01*
G37*
G36*
X183572942Y-72298982D02*
G01*
X183720901Y-72360269D01*
X183854055Y-72449239D01*
X183967301Y-72562485D01*
X184056271Y-72695639D01*
X184117558Y-72843598D01*
X184148800Y-73000665D01*
X184148800Y-73160815D01*
X184117558Y-73317882D01*
X184056271Y-73465841D01*
X183967301Y-73598995D01*
X183854055Y-73712241D01*
X183720901Y-73801211D01*
X183572942Y-73862498D01*
X183415875Y-73893740D01*
X183255725Y-73893740D01*
X183098658Y-73862498D01*
X182950699Y-73801211D01*
X182817545Y-73712241D01*
X182704299Y-73598995D01*
X182615329Y-73465841D01*
X182554042Y-73317882D01*
X182522800Y-73160815D01*
X182522800Y-73000665D01*
X182554042Y-72843598D01*
X182615329Y-72695639D01*
X182704299Y-72562485D01*
X182817545Y-72449239D01*
X182950699Y-72360269D01*
X183098658Y-72298982D01*
X183255725Y-72267740D01*
X183415875Y-72267740D01*
X183572942Y-72298982D01*
X183572942Y-72298982D01*
G37*
G36*
X94572942Y-72298982D02*
G01*
X94720901Y-72360269D01*
X94854055Y-72449239D01*
X94967301Y-72562485D01*
X95056271Y-72695639D01*
X95117558Y-72843598D01*
X95148800Y-73000665D01*
X95148800Y-73160815D01*
X95117558Y-73317882D01*
X95056271Y-73465841D01*
X94967301Y-73598995D01*
X94854055Y-73712241D01*
X94720901Y-73801211D01*
X94572942Y-73862498D01*
X94415875Y-73893740D01*
X94255725Y-73893740D01*
X94098658Y-73862498D01*
X93950699Y-73801211D01*
X93817545Y-73712241D01*
X93704299Y-73598995D01*
X93615329Y-73465841D01*
X93554042Y-73317882D01*
X93522800Y-73160815D01*
X93522800Y-73000665D01*
X93554042Y-72843598D01*
X93615329Y-72695639D01*
X93704299Y-72562485D01*
X93817545Y-72449239D01*
X93950699Y-72360269D01*
X94098658Y-72298982D01*
X94255725Y-72267740D01*
X94415875Y-72267740D01*
X94572942Y-72298982D01*
X94572942Y-72298982D01*
G37*
G36*
X160572942Y-72298982D02*
G01*
X160720901Y-72360269D01*
X160854055Y-72449239D01*
X160967301Y-72562485D01*
X161056271Y-72695639D01*
X161117558Y-72843598D01*
X161148800Y-73000665D01*
X161148800Y-73160815D01*
X161117558Y-73317882D01*
X161056271Y-73465841D01*
X160967301Y-73598995D01*
X160854055Y-73712241D01*
X160720901Y-73801211D01*
X160572942Y-73862498D01*
X160415875Y-73893740D01*
X160255725Y-73893740D01*
X160098658Y-73862498D01*
X159950699Y-73801211D01*
X159817545Y-73712241D01*
X159704299Y-73598995D01*
X159615329Y-73465841D01*
X159554042Y-73317882D01*
X159522800Y-73160815D01*
X159522800Y-73000665D01*
X159554042Y-72843598D01*
X159615329Y-72695639D01*
X159704299Y-72562485D01*
X159817545Y-72449239D01*
X159950699Y-72360269D01*
X160098658Y-72298982D01*
X160255725Y-72267740D01*
X160415875Y-72267740D01*
X160572942Y-72298982D01*
X160572942Y-72298982D01*
G37*
G36*
X125572942Y-72298982D02*
G01*
X125720901Y-72360269D01*
X125854055Y-72449239D01*
X125967301Y-72562485D01*
X126056271Y-72695639D01*
X126117558Y-72843598D01*
X126148800Y-73000665D01*
X126148800Y-73160815D01*
X126117558Y-73317882D01*
X126056271Y-73465841D01*
X125967301Y-73598995D01*
X125854055Y-73712241D01*
X125720901Y-73801211D01*
X125572942Y-73862498D01*
X125415875Y-73893740D01*
X125255725Y-73893740D01*
X125098658Y-73862498D01*
X124950699Y-73801211D01*
X124817545Y-73712241D01*
X124704299Y-73598995D01*
X124615329Y-73465841D01*
X124554042Y-73317882D01*
X124522800Y-73160815D01*
X124522800Y-73000665D01*
X124554042Y-72843598D01*
X124615329Y-72695639D01*
X124704299Y-72562485D01*
X124817545Y-72449239D01*
X124950699Y-72360269D01*
X125098658Y-72298982D01*
X125255725Y-72267740D01*
X125415875Y-72267740D01*
X125572942Y-72298982D01*
X125572942Y-72298982D01*
G37*
G36*
X131351131Y-69408951D02*
G01*
X131678892Y-69544714D01*
X131973870Y-69741812D01*
X132224728Y-69992670D01*
X132421826Y-70287648D01*
X132557589Y-70615409D01*
X132626800Y-70963356D01*
X132626800Y-71318124D01*
X132557589Y-71666071D01*
X132421826Y-71993832D01*
X132224728Y-72288810D01*
X131973870Y-72539668D01*
X131678892Y-72736766D01*
X131351131Y-72872529D01*
X131003184Y-72941740D01*
X130648416Y-72941740D01*
X130300469Y-72872529D01*
X129972708Y-72736766D01*
X129677730Y-72539668D01*
X129426872Y-72288810D01*
X129229774Y-71993832D01*
X129094011Y-71666071D01*
X129024800Y-71318124D01*
X129024800Y-70963356D01*
X129094011Y-70615409D01*
X129229774Y-70287648D01*
X129426872Y-69992670D01*
X129677730Y-69741812D01*
X129972708Y-69544714D01*
X130300469Y-69408951D01*
X130648416Y-69339740D01*
X131003184Y-69339740D01*
X131351131Y-69408951D01*
X131351131Y-69408951D01*
G37*
G36*
X81351131Y-69408951D02*
G01*
X81678892Y-69544714D01*
X81973870Y-69741812D01*
X82224728Y-69992670D01*
X82421826Y-70287648D01*
X82557589Y-70615409D01*
X82626800Y-70963356D01*
X82626800Y-71318124D01*
X82557589Y-71666071D01*
X82421826Y-71993832D01*
X82224728Y-72288810D01*
X81973870Y-72539668D01*
X81678892Y-72736766D01*
X81351131Y-72872529D01*
X81003184Y-72941740D01*
X80648416Y-72941740D01*
X80300469Y-72872529D01*
X79972708Y-72736766D01*
X79677730Y-72539668D01*
X79426872Y-72288810D01*
X79229774Y-71993832D01*
X79094011Y-71666071D01*
X79024800Y-71318124D01*
X79024800Y-70963356D01*
X79094011Y-70615409D01*
X79229774Y-70287648D01*
X79426872Y-69992670D01*
X79677730Y-69741812D01*
X79972708Y-69544714D01*
X80300469Y-69408951D01*
X80648416Y-69339740D01*
X81003184Y-69339740D01*
X81351131Y-69408951D01*
X81351131Y-69408951D01*
G37*
G36*
X197351131Y-69408951D02*
G01*
X197678892Y-69544714D01*
X197973870Y-69741812D01*
X198224728Y-69992670D01*
X198421826Y-70287648D01*
X198557589Y-70615409D01*
X198626800Y-70963356D01*
X198626800Y-71318124D01*
X198557589Y-71666071D01*
X198421826Y-71993832D01*
X198224728Y-72288810D01*
X197973870Y-72539668D01*
X197678892Y-72736766D01*
X197351131Y-72872529D01*
X197003184Y-72941740D01*
X196648416Y-72941740D01*
X196300469Y-72872529D01*
X195972708Y-72736766D01*
X195677730Y-72539668D01*
X195426872Y-72288810D01*
X195229774Y-71993832D01*
X195094011Y-71666071D01*
X195024800Y-71318124D01*
X195024800Y-70963356D01*
X195094011Y-70615409D01*
X195229774Y-70287648D01*
X195426872Y-69992670D01*
X195677730Y-69741812D01*
X195972708Y-69544714D01*
X196300469Y-69408951D01*
X196648416Y-69339740D01*
X197003184Y-69339740D01*
X197351131Y-69408951D01*
X197351131Y-69408951D01*
G37*
G36*
X147351131Y-69408951D02*
G01*
X147678892Y-69544714D01*
X147973870Y-69741812D01*
X148224728Y-69992670D01*
X148421826Y-70287648D01*
X148557589Y-70615409D01*
X148626800Y-70963356D01*
X148626800Y-71318124D01*
X148557589Y-71666071D01*
X148421826Y-71993832D01*
X148224728Y-72288810D01*
X147973870Y-72539668D01*
X147678892Y-72736766D01*
X147351131Y-72872529D01*
X147003184Y-72941740D01*
X146648416Y-72941740D01*
X146300469Y-72872529D01*
X145972708Y-72736766D01*
X145677730Y-72539668D01*
X145426872Y-72288810D01*
X145229774Y-71993832D01*
X145094011Y-71666071D01*
X145024800Y-71318124D01*
X145024800Y-70963356D01*
X145094011Y-70615409D01*
X145229774Y-70287648D01*
X145426872Y-69992670D01*
X145677730Y-69741812D01*
X145972708Y-69544714D01*
X146300469Y-69408951D01*
X146648416Y-69339740D01*
X147003184Y-69339740D01*
X147351131Y-69408951D01*
X147351131Y-69408951D01*
G37*
G36*
X139254233Y-69665633D02*
G01*
X139344457Y-69683579D01*
X139450067Y-69727325D01*
X139599421Y-69789189D01*
X139599422Y-69789190D01*
X139828886Y-69942512D01*
X140024028Y-70137654D01*
X140124250Y-70287648D01*
X140177351Y-70367119D01*
X140239215Y-70516473D01*
X140280197Y-70615409D01*
X140282961Y-70622084D01*
X140336800Y-70892752D01*
X140336800Y-71168728D01*
X140282961Y-71439396D01*
X140177351Y-71694361D01*
X140177350Y-71694362D01*
X140024028Y-71923826D01*
X139828886Y-72118968D01*
X139675563Y-72221415D01*
X139599421Y-72272291D01*
X139450067Y-72334155D01*
X139344457Y-72377901D01*
X139254233Y-72395847D01*
X139073788Y-72431740D01*
X138797812Y-72431740D01*
X138617367Y-72395847D01*
X138527143Y-72377901D01*
X138421533Y-72334155D01*
X138272179Y-72272291D01*
X138196037Y-72221415D01*
X138042714Y-72118968D01*
X137847572Y-71923826D01*
X137694250Y-71694362D01*
X137694249Y-71694361D01*
X137588639Y-71439396D01*
X137534800Y-71168728D01*
X137534800Y-70892752D01*
X137588639Y-70622084D01*
X137591404Y-70615409D01*
X137632385Y-70516473D01*
X137694249Y-70367119D01*
X137747350Y-70287648D01*
X137847572Y-70137654D01*
X138042714Y-69942512D01*
X138272178Y-69789190D01*
X138272179Y-69789189D01*
X138421533Y-69727325D01*
X138527143Y-69683579D01*
X138617367Y-69665633D01*
X138797812Y-69629740D01*
X139073788Y-69629740D01*
X139254233Y-69665633D01*
X139254233Y-69665633D01*
G37*
G36*
X188086800Y-66969882D02*
G01*
X188089202Y-66994268D01*
X188096315Y-67017717D01*
X188107866Y-67039328D01*
X188123411Y-67058270D01*
X188142353Y-67073815D01*
X188163964Y-67085366D01*
X188187413Y-67092479D01*
X188211799Y-67094881D01*
X188236185Y-67092479D01*
X188259634Y-67085366D01*
X188281245Y-67073815D01*
X188300187Y-67058270D01*
X188315732Y-67039328D01*
X188327283Y-67017717D01*
X188357509Y-66944745D01*
X188417809Y-66854500D01*
X188417810Y-66854498D01*
X188494558Y-66777750D01*
X188584804Y-66717450D01*
X188584805Y-66717449D01*
X188685079Y-66675914D01*
X188791530Y-66654740D01*
X188900070Y-66654740D01*
X189006521Y-66675914D01*
X189106795Y-66717449D01*
X189106796Y-66717450D01*
X189197042Y-66777750D01*
X189273790Y-66854498D01*
X189273791Y-66854500D01*
X189334091Y-66944745D01*
X189365316Y-67020129D01*
X189376867Y-67041740D01*
X189392412Y-67060681D01*
X189411354Y-67076227D01*
X189432965Y-67087778D01*
X189456414Y-67094891D01*
X189480800Y-67097293D01*
X189505186Y-67094891D01*
X189528635Y-67087778D01*
X189550246Y-67076227D01*
X189569187Y-67060682D01*
X189584733Y-67041740D01*
X189596284Y-67020129D01*
X189627509Y-66944745D01*
X189687809Y-66854500D01*
X189687810Y-66854498D01*
X189764558Y-66777750D01*
X189854804Y-66717450D01*
X189854805Y-66717449D01*
X189955079Y-66675914D01*
X190061530Y-66654740D01*
X190170070Y-66654740D01*
X190276521Y-66675914D01*
X190376795Y-66717449D01*
X190376796Y-66717450D01*
X190467042Y-66777750D01*
X190543790Y-66854498D01*
X190543791Y-66854500D01*
X190604091Y-66944745D01*
X190645626Y-67045019D01*
X190666800Y-67151470D01*
X190666800Y-67260010D01*
X190645626Y-67366461D01*
X190604091Y-67466735D01*
X190604090Y-67466736D01*
X190543790Y-67556982D01*
X190467042Y-67633730D01*
X190451627Y-67644030D01*
X190376795Y-67694031D01*
X190276521Y-67735566D01*
X190170070Y-67756740D01*
X190061530Y-67756740D01*
X189955079Y-67735566D01*
X189854805Y-67694031D01*
X189779973Y-67644030D01*
X189764558Y-67633730D01*
X189687810Y-67556982D01*
X189627510Y-67466736D01*
X189627509Y-67466735D01*
X189596284Y-67391351D01*
X189584733Y-67369740D01*
X189569188Y-67350799D01*
X189550246Y-67335253D01*
X189528635Y-67323702D01*
X189505186Y-67316589D01*
X189480800Y-67314187D01*
X189456414Y-67316589D01*
X189432965Y-67323702D01*
X189411354Y-67335253D01*
X189392413Y-67350798D01*
X189376867Y-67369740D01*
X189365316Y-67391351D01*
X189334091Y-67466735D01*
X189334090Y-67466736D01*
X189273790Y-67556982D01*
X189197042Y-67633730D01*
X189181627Y-67644030D01*
X189106795Y-67694031D01*
X189006521Y-67735566D01*
X188900070Y-67756740D01*
X188791530Y-67756740D01*
X188685079Y-67735566D01*
X188584805Y-67694031D01*
X188509973Y-67644030D01*
X188494558Y-67633730D01*
X188417810Y-67556982D01*
X188357510Y-67466736D01*
X188357509Y-67466735D01*
X188327283Y-67393763D01*
X188315732Y-67372152D01*
X188300187Y-67353210D01*
X188281245Y-67337665D01*
X188259634Y-67326114D01*
X188236185Y-67319001D01*
X188211799Y-67316599D01*
X188187413Y-67319001D01*
X188163964Y-67326114D01*
X188142353Y-67337665D01*
X188123411Y-67353210D01*
X188107866Y-67372152D01*
X188096315Y-67393763D01*
X188089202Y-67417212D01*
X188086800Y-67441598D01*
X188086800Y-67756740D01*
X186984800Y-67756740D01*
X186984800Y-66654740D01*
X188086800Y-66654740D01*
X188086800Y-66969882D01*
X188086800Y-66969882D01*
G37*
G36*
X198861800Y-66944882D02*
G01*
X198864202Y-66969268D01*
X198871315Y-66992717D01*
X198882866Y-67014328D01*
X198898411Y-67033270D01*
X198917353Y-67048815D01*
X198938964Y-67060366D01*
X198962413Y-67067479D01*
X198986799Y-67069881D01*
X199011185Y-67067479D01*
X199034634Y-67060366D01*
X199056245Y-67048815D01*
X199075187Y-67033270D01*
X199090732Y-67014328D01*
X199102283Y-66992717D01*
X199132509Y-66919745D01*
X199192809Y-66829500D01*
X199192810Y-66829498D01*
X199269558Y-66752750D01*
X199314988Y-66722395D01*
X199359805Y-66692449D01*
X199460079Y-66650914D01*
X199566530Y-66629740D01*
X199675070Y-66629740D01*
X199781521Y-66650914D01*
X199881795Y-66692449D01*
X199926612Y-66722395D01*
X199972042Y-66752750D01*
X200048790Y-66829498D01*
X200048791Y-66829500D01*
X200109091Y-66919745D01*
X200140316Y-66995129D01*
X200151867Y-67016740D01*
X200167412Y-67035681D01*
X200186354Y-67051227D01*
X200207965Y-67062778D01*
X200231414Y-67069891D01*
X200255800Y-67072293D01*
X200280186Y-67069891D01*
X200303635Y-67062778D01*
X200325246Y-67051227D01*
X200344187Y-67035682D01*
X200359733Y-67016740D01*
X200371284Y-66995129D01*
X200402509Y-66919745D01*
X200462809Y-66829500D01*
X200462810Y-66829498D01*
X200539558Y-66752750D01*
X200584988Y-66722395D01*
X200629805Y-66692449D01*
X200730079Y-66650914D01*
X200836530Y-66629740D01*
X200945070Y-66629740D01*
X201051521Y-66650914D01*
X201151795Y-66692449D01*
X201196612Y-66722395D01*
X201242042Y-66752750D01*
X201318790Y-66829498D01*
X201318791Y-66829500D01*
X201379091Y-66919745D01*
X201420626Y-67020019D01*
X201441800Y-67126470D01*
X201441800Y-67235010D01*
X201420626Y-67341461D01*
X201379091Y-67441735D01*
X201379090Y-67441736D01*
X201318790Y-67531982D01*
X201242042Y-67608730D01*
X201204625Y-67633731D01*
X201151795Y-67669031D01*
X201051521Y-67710566D01*
X200945070Y-67731740D01*
X200836530Y-67731740D01*
X200730079Y-67710566D01*
X200629805Y-67669031D01*
X200576975Y-67633731D01*
X200539558Y-67608730D01*
X200462810Y-67531982D01*
X200402510Y-67441736D01*
X200402509Y-67441735D01*
X200371284Y-67366351D01*
X200359733Y-67344740D01*
X200344188Y-67325799D01*
X200325246Y-67310253D01*
X200303635Y-67298702D01*
X200280186Y-67291589D01*
X200255800Y-67289187D01*
X200231414Y-67291589D01*
X200207965Y-67298702D01*
X200186354Y-67310253D01*
X200167413Y-67325798D01*
X200151867Y-67344740D01*
X200140316Y-67366351D01*
X200109091Y-67441735D01*
X200109090Y-67441736D01*
X200048790Y-67531982D01*
X199972042Y-67608730D01*
X199934625Y-67633731D01*
X199881795Y-67669031D01*
X199781521Y-67710566D01*
X199675070Y-67731740D01*
X199566530Y-67731740D01*
X199460079Y-67710566D01*
X199359805Y-67669031D01*
X199306975Y-67633731D01*
X199269558Y-67608730D01*
X199192810Y-67531982D01*
X199132510Y-67441736D01*
X199132509Y-67441735D01*
X199102283Y-67368763D01*
X199090732Y-67347152D01*
X199075187Y-67328210D01*
X199056245Y-67312665D01*
X199034634Y-67301114D01*
X199011185Y-67294001D01*
X198986799Y-67291599D01*
X198962413Y-67294001D01*
X198938964Y-67301114D01*
X198917353Y-67312665D01*
X198898411Y-67328210D01*
X198882866Y-67347152D01*
X198871315Y-67368763D01*
X198864202Y-67392212D01*
X198861800Y-67416598D01*
X198861800Y-67731740D01*
X197759800Y-67731740D01*
X197759800Y-66629740D01*
X198861800Y-66629740D01*
X198861800Y-66944882D01*
X198861800Y-66944882D01*
G37*
G36*
X122786800Y-66919882D02*
G01*
X122789202Y-66944268D01*
X122796315Y-66967717D01*
X122807866Y-66989328D01*
X122823411Y-67008270D01*
X122842353Y-67023815D01*
X122863964Y-67035366D01*
X122887413Y-67042479D01*
X122911799Y-67044881D01*
X122936185Y-67042479D01*
X122959634Y-67035366D01*
X122981245Y-67023815D01*
X123000187Y-67008270D01*
X123015732Y-66989328D01*
X123027283Y-66967717D01*
X123057509Y-66894745D01*
X123117809Y-66804500D01*
X123117810Y-66804498D01*
X123194558Y-66727750D01*
X123239988Y-66697395D01*
X123284805Y-66667449D01*
X123385079Y-66625914D01*
X123491530Y-66604740D01*
X123600070Y-66604740D01*
X123706521Y-66625914D01*
X123806795Y-66667449D01*
X123851612Y-66697395D01*
X123897042Y-66727750D01*
X123973790Y-66804498D01*
X123973791Y-66804500D01*
X124034091Y-66894745D01*
X124065316Y-66970129D01*
X124076867Y-66991740D01*
X124092412Y-67010681D01*
X124111354Y-67026227D01*
X124132965Y-67037778D01*
X124156414Y-67044891D01*
X124180800Y-67047293D01*
X124205186Y-67044891D01*
X124228635Y-67037778D01*
X124250246Y-67026227D01*
X124269187Y-67010682D01*
X124284733Y-66991740D01*
X124296284Y-66970129D01*
X124327509Y-66894745D01*
X124387809Y-66804500D01*
X124387810Y-66804498D01*
X124464558Y-66727750D01*
X124509988Y-66697395D01*
X124554805Y-66667449D01*
X124655079Y-66625914D01*
X124761530Y-66604740D01*
X124870070Y-66604740D01*
X124976521Y-66625914D01*
X125076795Y-66667449D01*
X125121612Y-66697395D01*
X125167042Y-66727750D01*
X125243790Y-66804498D01*
X125243791Y-66804500D01*
X125304091Y-66894745D01*
X125345626Y-66995019D01*
X125366800Y-67101470D01*
X125366800Y-67210010D01*
X125345626Y-67316461D01*
X125304091Y-67416735D01*
X125304090Y-67416736D01*
X125243790Y-67506982D01*
X125167042Y-67583730D01*
X125129625Y-67608731D01*
X125076795Y-67644031D01*
X124976521Y-67685566D01*
X124870070Y-67706740D01*
X124761530Y-67706740D01*
X124655079Y-67685566D01*
X124554805Y-67644031D01*
X124501975Y-67608731D01*
X124464558Y-67583730D01*
X124387810Y-67506982D01*
X124327510Y-67416736D01*
X124327509Y-67416735D01*
X124296284Y-67341351D01*
X124284733Y-67319740D01*
X124269188Y-67300799D01*
X124250246Y-67285253D01*
X124228635Y-67273702D01*
X124205186Y-67266589D01*
X124180800Y-67264187D01*
X124156414Y-67266589D01*
X124132965Y-67273702D01*
X124111354Y-67285253D01*
X124092413Y-67300798D01*
X124076867Y-67319740D01*
X124065316Y-67341351D01*
X124034091Y-67416735D01*
X124034090Y-67416736D01*
X123973790Y-67506982D01*
X123897042Y-67583730D01*
X123859625Y-67608731D01*
X123806795Y-67644031D01*
X123706521Y-67685566D01*
X123600070Y-67706740D01*
X123491530Y-67706740D01*
X123385079Y-67685566D01*
X123284805Y-67644031D01*
X123231975Y-67608731D01*
X123194558Y-67583730D01*
X123117810Y-67506982D01*
X123057510Y-67416736D01*
X123057509Y-67416735D01*
X123027283Y-67343763D01*
X123015732Y-67322152D01*
X123000187Y-67303210D01*
X122981245Y-67287665D01*
X122959634Y-67276114D01*
X122936185Y-67269001D01*
X122911799Y-67266599D01*
X122887413Y-67269001D01*
X122863964Y-67276114D01*
X122842353Y-67287665D01*
X122823411Y-67303210D01*
X122807866Y-67322152D01*
X122796315Y-67343763D01*
X122789202Y-67367212D01*
X122786800Y-67391598D01*
X122786800Y-67706740D01*
X121684800Y-67706740D01*
X121684800Y-66604740D01*
X122786800Y-66604740D01*
X122786800Y-66919882D01*
X122786800Y-66919882D01*
G37*
G36*
X133061800Y-66919882D02*
G01*
X133064202Y-66944268D01*
X133071315Y-66967717D01*
X133082866Y-66989328D01*
X133098411Y-67008270D01*
X133117353Y-67023815D01*
X133138964Y-67035366D01*
X133162413Y-67042479D01*
X133186799Y-67044881D01*
X133211185Y-67042479D01*
X133234634Y-67035366D01*
X133256245Y-67023815D01*
X133275187Y-67008270D01*
X133290732Y-66989328D01*
X133302283Y-66967717D01*
X133332509Y-66894745D01*
X133392809Y-66804500D01*
X133392810Y-66804498D01*
X133469558Y-66727750D01*
X133514988Y-66697395D01*
X133559805Y-66667449D01*
X133660079Y-66625914D01*
X133766530Y-66604740D01*
X133875070Y-66604740D01*
X133981521Y-66625914D01*
X134081795Y-66667449D01*
X134126612Y-66697395D01*
X134172042Y-66727750D01*
X134248790Y-66804498D01*
X134248791Y-66804500D01*
X134309091Y-66894745D01*
X134340316Y-66970129D01*
X134351867Y-66991740D01*
X134367412Y-67010681D01*
X134386354Y-67026227D01*
X134407965Y-67037778D01*
X134431414Y-67044891D01*
X134455800Y-67047293D01*
X134480186Y-67044891D01*
X134503635Y-67037778D01*
X134525246Y-67026227D01*
X134544187Y-67010682D01*
X134559733Y-66991740D01*
X134571284Y-66970129D01*
X134602509Y-66894745D01*
X134662809Y-66804500D01*
X134662810Y-66804498D01*
X134739558Y-66727750D01*
X134784988Y-66697395D01*
X134829805Y-66667449D01*
X134930079Y-66625914D01*
X135036530Y-66604740D01*
X135145070Y-66604740D01*
X135251521Y-66625914D01*
X135351795Y-66667449D01*
X135396612Y-66697395D01*
X135442042Y-66727750D01*
X135518790Y-66804498D01*
X135518791Y-66804500D01*
X135579091Y-66894745D01*
X135620626Y-66995019D01*
X135641800Y-67101470D01*
X135641800Y-67210010D01*
X135620626Y-67316461D01*
X135579091Y-67416735D01*
X135579090Y-67416736D01*
X135518790Y-67506982D01*
X135442042Y-67583730D01*
X135404625Y-67608731D01*
X135351795Y-67644031D01*
X135251521Y-67685566D01*
X135145070Y-67706740D01*
X135036530Y-67706740D01*
X134930079Y-67685566D01*
X134829805Y-67644031D01*
X134776975Y-67608731D01*
X134739558Y-67583730D01*
X134662810Y-67506982D01*
X134602510Y-67416736D01*
X134602509Y-67416735D01*
X134571284Y-67341351D01*
X134559733Y-67319740D01*
X134544188Y-67300799D01*
X134525246Y-67285253D01*
X134503635Y-67273702D01*
X134480186Y-67266589D01*
X134455800Y-67264187D01*
X134431414Y-67266589D01*
X134407965Y-67273702D01*
X134386354Y-67285253D01*
X134367413Y-67300798D01*
X134351867Y-67319740D01*
X134340316Y-67341351D01*
X134309091Y-67416735D01*
X134309090Y-67416736D01*
X134248790Y-67506982D01*
X134172042Y-67583730D01*
X134134625Y-67608731D01*
X134081795Y-67644031D01*
X133981521Y-67685566D01*
X133875070Y-67706740D01*
X133766530Y-67706740D01*
X133660079Y-67685566D01*
X133559805Y-67644031D01*
X133506975Y-67608731D01*
X133469558Y-67583730D01*
X133392810Y-67506982D01*
X133332510Y-67416736D01*
X133332509Y-67416735D01*
X133302283Y-67343763D01*
X133290732Y-67322152D01*
X133275187Y-67303210D01*
X133256245Y-67287665D01*
X133234634Y-67276114D01*
X133211185Y-67269001D01*
X133186799Y-67266599D01*
X133162413Y-67269001D01*
X133138964Y-67276114D01*
X133117353Y-67287665D01*
X133098411Y-67303210D01*
X133082866Y-67322152D01*
X133071315Y-67343763D01*
X133064202Y-67367212D01*
X133061800Y-67391598D01*
X133061800Y-67706740D01*
X131959800Y-67706740D01*
X131959800Y-66604740D01*
X133061800Y-66604740D01*
X133061800Y-66919882D01*
X133061800Y-66919882D01*
G37*
G36*
X116152821Y-58447380D02*
G01*
X116662569Y-58658525D01*
X116662571Y-58658526D01*
X117121334Y-58965061D01*
X117511479Y-59355206D01*
X117818014Y-59813969D01*
X117818015Y-59813971D01*
X118029160Y-60323719D01*
X118136800Y-60864864D01*
X118136800Y-61416616D01*
X118029160Y-61957761D01*
X117818015Y-62467509D01*
X117818014Y-62467511D01*
X117511479Y-62926274D01*
X117121334Y-63316419D01*
X116662571Y-63622954D01*
X116662570Y-63622955D01*
X116662569Y-63622955D01*
X116152821Y-63834100D01*
X115611676Y-63941740D01*
X115059924Y-63941740D01*
X114518779Y-63834100D01*
X114009031Y-63622955D01*
X114009030Y-63622955D01*
X114009029Y-63622954D01*
X113550266Y-63316419D01*
X113160121Y-62926274D01*
X112853586Y-62467511D01*
X112853585Y-62467509D01*
X112642440Y-61957761D01*
X112534800Y-61416616D01*
X112534800Y-60864864D01*
X112642440Y-60323719D01*
X112853585Y-59813971D01*
X112853586Y-59813969D01*
X113160121Y-59355206D01*
X113550266Y-58965061D01*
X114009029Y-58658526D01*
X114009031Y-58658525D01*
X114518779Y-58447380D01*
X115059924Y-58339740D01*
X115611676Y-58339740D01*
X116152821Y-58447380D01*
X116152821Y-58447380D01*
G37*
G36*
X182152821Y-58447380D02*
G01*
X182662569Y-58658525D01*
X182662571Y-58658526D01*
X183121334Y-58965061D01*
X183511479Y-59355206D01*
X183818014Y-59813969D01*
X183818015Y-59813971D01*
X184029160Y-60323719D01*
X184136800Y-60864864D01*
X184136800Y-61416616D01*
X184029160Y-61957761D01*
X183818015Y-62467509D01*
X183818014Y-62467511D01*
X183511479Y-62926274D01*
X183121334Y-63316419D01*
X182662571Y-63622954D01*
X182662570Y-63622955D01*
X182662569Y-63622955D01*
X182152821Y-63834100D01*
X181611676Y-63941740D01*
X181059924Y-63941740D01*
X180518779Y-63834100D01*
X180009031Y-63622955D01*
X180009030Y-63622955D01*
X180009029Y-63622954D01*
X179550266Y-63316419D01*
X179160121Y-62926274D01*
X178853586Y-62467511D01*
X178853585Y-62467509D01*
X178642440Y-61957761D01*
X178534800Y-61416616D01*
X178534800Y-60864864D01*
X178642440Y-60323719D01*
X178853585Y-59813971D01*
X178853586Y-59813969D01*
X179160121Y-59355206D01*
X179550266Y-58965061D01*
X180009029Y-58658526D01*
X180009031Y-58658525D01*
X180518779Y-58447380D01*
X181059924Y-58339740D01*
X181611676Y-58339740D01*
X182152821Y-58447380D01*
X182152821Y-58447380D01*
G37*
G36*
X74908565Y-48985143D02*
G01*
X75031245Y-49009545D01*
X75262371Y-49105281D01*
X75367079Y-49175245D01*
X75470377Y-49244266D01*
X75647274Y-49421163D01*
X75666035Y-49449241D01*
X75786259Y-49629169D01*
X75881995Y-49860295D01*
X75930800Y-50105656D01*
X75930800Y-50355824D01*
X75881995Y-50601185D01*
X75786259Y-50832311D01*
X75647273Y-51040318D01*
X75470378Y-51217213D01*
X75262371Y-51356199D01*
X75031245Y-51451935D01*
X74908564Y-51476338D01*
X74785885Y-51500740D01*
X74535715Y-51500740D01*
X74413036Y-51476338D01*
X74290355Y-51451935D01*
X74059229Y-51356199D01*
X73851222Y-51217213D01*
X73674327Y-51040318D01*
X73535341Y-50832311D01*
X73439605Y-50601185D01*
X73390800Y-50355824D01*
X73390800Y-50105656D01*
X73439605Y-49860295D01*
X73535341Y-49629169D01*
X73655565Y-49449241D01*
X73674326Y-49421163D01*
X73851223Y-49244266D01*
X73954521Y-49175245D01*
X74059229Y-49105281D01*
X74290355Y-49009545D01*
X74413036Y-48985142D01*
X74535715Y-48960740D01*
X74785885Y-48960740D01*
X74908565Y-48985143D01*
X74908565Y-48985143D01*
G37*
G36*
X172351131Y-47408951D02*
G01*
X172678892Y-47544714D01*
X172973870Y-47741812D01*
X173224728Y-47992670D01*
X173421826Y-48287648D01*
X173557589Y-48615409D01*
X173626800Y-48963356D01*
X173626800Y-49318124D01*
X173557589Y-49666071D01*
X173421826Y-49993832D01*
X173224728Y-50288810D01*
X172973870Y-50539668D01*
X172678892Y-50736766D01*
X172351131Y-50872529D01*
X172003184Y-50941740D01*
X171648416Y-50941740D01*
X171300469Y-50872529D01*
X170972708Y-50736766D01*
X170677730Y-50539668D01*
X170426872Y-50288810D01*
X170229774Y-49993832D01*
X170094011Y-49666071D01*
X170024800Y-49318124D01*
X170024800Y-48963356D01*
X170094011Y-48615409D01*
X170229774Y-48287648D01*
X170426872Y-47992670D01*
X170677730Y-47741812D01*
X170972708Y-47544714D01*
X171300469Y-47408951D01*
X171648416Y-47339740D01*
X172003184Y-47339740D01*
X172351131Y-47408951D01*
X172351131Y-47408951D01*
G37*
G36*
X106351131Y-47408951D02*
G01*
X106678892Y-47544714D01*
X106973870Y-47741812D01*
X107224728Y-47992670D01*
X107421826Y-48287648D01*
X107557589Y-48615409D01*
X107626800Y-48963356D01*
X107626800Y-49318124D01*
X107557589Y-49666071D01*
X107421826Y-49993832D01*
X107224728Y-50288810D01*
X106973870Y-50539668D01*
X106678892Y-50736766D01*
X106351131Y-50872529D01*
X106003184Y-50941740D01*
X105648416Y-50941740D01*
X105300469Y-50872529D01*
X104972708Y-50736766D01*
X104677730Y-50539668D01*
X104426872Y-50288810D01*
X104229774Y-49993832D01*
X104094011Y-49666071D01*
X104024800Y-49318124D01*
X104024800Y-48963356D01*
X104094011Y-48615409D01*
X104229774Y-48287648D01*
X104426872Y-47992670D01*
X104677730Y-47741812D01*
X104972708Y-47544714D01*
X105300469Y-47408951D01*
X105648416Y-47339740D01*
X106003184Y-47339740D01*
X106351131Y-47408951D01*
X106351131Y-47408951D01*
G37*
G36*
X125572942Y-49298982D02*
G01*
X125720901Y-49360269D01*
X125854055Y-49449239D01*
X125967301Y-49562485D01*
X126056271Y-49695639D01*
X126117558Y-49843598D01*
X126148800Y-50000665D01*
X126148800Y-50160815D01*
X126117558Y-50317882D01*
X126056271Y-50465841D01*
X125967301Y-50598995D01*
X125854055Y-50712241D01*
X125720901Y-50801211D01*
X125572942Y-50862498D01*
X125415875Y-50893740D01*
X125255725Y-50893740D01*
X125098658Y-50862498D01*
X124950699Y-50801211D01*
X124817545Y-50712241D01*
X124704299Y-50598995D01*
X124615329Y-50465841D01*
X124554042Y-50317882D01*
X124522800Y-50160815D01*
X124522800Y-50000665D01*
X124554042Y-49843598D01*
X124615329Y-49695639D01*
X124704299Y-49562485D01*
X124817545Y-49449239D01*
X124950699Y-49360269D01*
X125098658Y-49298982D01*
X125255725Y-49267740D01*
X125415875Y-49267740D01*
X125572942Y-49298982D01*
X125572942Y-49298982D01*
G37*
G36*
X117572942Y-49298982D02*
G01*
X117720901Y-49360269D01*
X117854055Y-49449239D01*
X117967301Y-49562485D01*
X118056271Y-49695639D01*
X118117558Y-49843598D01*
X118148800Y-50000665D01*
X118148800Y-50160815D01*
X118117558Y-50317882D01*
X118056271Y-50465841D01*
X117967301Y-50598995D01*
X117854055Y-50712241D01*
X117720901Y-50801211D01*
X117572942Y-50862498D01*
X117415875Y-50893740D01*
X117255725Y-50893740D01*
X117098658Y-50862498D01*
X116950699Y-50801211D01*
X116817545Y-50712241D01*
X116704299Y-50598995D01*
X116615329Y-50465841D01*
X116554042Y-50317882D01*
X116522800Y-50160815D01*
X116522800Y-50000665D01*
X116554042Y-49843598D01*
X116615329Y-49695639D01*
X116704299Y-49562485D01*
X116817545Y-49449239D01*
X116950699Y-49360269D01*
X117098658Y-49298982D01*
X117255725Y-49267740D01*
X117415875Y-49267740D01*
X117572942Y-49298982D01*
X117572942Y-49298982D01*
G37*
G36*
X94572942Y-49298982D02*
G01*
X94720901Y-49360269D01*
X94854055Y-49449239D01*
X94967301Y-49562485D01*
X95056271Y-49695639D01*
X95117558Y-49843598D01*
X95148800Y-50000665D01*
X95148800Y-50160815D01*
X95117558Y-50317882D01*
X95056271Y-50465841D01*
X94967301Y-50598995D01*
X94854055Y-50712241D01*
X94720901Y-50801211D01*
X94572942Y-50862498D01*
X94415875Y-50893740D01*
X94255725Y-50893740D01*
X94098658Y-50862498D01*
X93950699Y-50801211D01*
X93817545Y-50712241D01*
X93704299Y-50598995D01*
X93615329Y-50465841D01*
X93554042Y-50317882D01*
X93522800Y-50160815D01*
X93522800Y-50000665D01*
X93554042Y-49843598D01*
X93615329Y-49695639D01*
X93704299Y-49562485D01*
X93817545Y-49449239D01*
X93950699Y-49360269D01*
X94098658Y-49298982D01*
X94255725Y-49267740D01*
X94415875Y-49267740D01*
X94572942Y-49298982D01*
X94572942Y-49298982D01*
G37*
G36*
X86572942Y-49298982D02*
G01*
X86720901Y-49360269D01*
X86854055Y-49449239D01*
X86967301Y-49562485D01*
X87056271Y-49695639D01*
X87117558Y-49843598D01*
X87148800Y-50000665D01*
X87148800Y-50160815D01*
X87117558Y-50317882D01*
X87056271Y-50465841D01*
X86967301Y-50598995D01*
X86854055Y-50712241D01*
X86720901Y-50801211D01*
X86572942Y-50862498D01*
X86415875Y-50893740D01*
X86255725Y-50893740D01*
X86098658Y-50862498D01*
X85950699Y-50801211D01*
X85817545Y-50712241D01*
X85704299Y-50598995D01*
X85615329Y-50465841D01*
X85554042Y-50317882D01*
X85522800Y-50160815D01*
X85522800Y-50000665D01*
X85554042Y-49843598D01*
X85615329Y-49695639D01*
X85704299Y-49562485D01*
X85817545Y-49449239D01*
X85950699Y-49360269D01*
X86098658Y-49298982D01*
X86255725Y-49267740D01*
X86415875Y-49267740D01*
X86572942Y-49298982D01*
X86572942Y-49298982D01*
G37*
G36*
X183572942Y-49298982D02*
G01*
X183720901Y-49360269D01*
X183854055Y-49449239D01*
X183967301Y-49562485D01*
X184056271Y-49695639D01*
X184117558Y-49843598D01*
X184148800Y-50000665D01*
X184148800Y-50160815D01*
X184117558Y-50317882D01*
X184056271Y-50465841D01*
X183967301Y-50598995D01*
X183854055Y-50712241D01*
X183720901Y-50801211D01*
X183572942Y-50862498D01*
X183415875Y-50893740D01*
X183255725Y-50893740D01*
X183098658Y-50862498D01*
X182950699Y-50801211D01*
X182817545Y-50712241D01*
X182704299Y-50598995D01*
X182615329Y-50465841D01*
X182554042Y-50317882D01*
X182522800Y-50160815D01*
X182522800Y-50000665D01*
X182554042Y-49843598D01*
X182615329Y-49695639D01*
X182704299Y-49562485D01*
X182817545Y-49449239D01*
X182950699Y-49360269D01*
X183098658Y-49298982D01*
X183255725Y-49267740D01*
X183415875Y-49267740D01*
X183572942Y-49298982D01*
X183572942Y-49298982D01*
G37*
G36*
X160572942Y-49298982D02*
G01*
X160720901Y-49360269D01*
X160854055Y-49449239D01*
X160967301Y-49562485D01*
X161056271Y-49695639D01*
X161117558Y-49843598D01*
X161148800Y-50000665D01*
X161148800Y-50160815D01*
X161117558Y-50317882D01*
X161056271Y-50465841D01*
X160967301Y-50598995D01*
X160854055Y-50712241D01*
X160720901Y-50801211D01*
X160572942Y-50862498D01*
X160415875Y-50893740D01*
X160255725Y-50893740D01*
X160098658Y-50862498D01*
X159950699Y-50801211D01*
X159817545Y-50712241D01*
X159704299Y-50598995D01*
X159615329Y-50465841D01*
X159554042Y-50317882D01*
X159522800Y-50160815D01*
X159522800Y-50000665D01*
X159554042Y-49843598D01*
X159615329Y-49695639D01*
X159704299Y-49562485D01*
X159817545Y-49449239D01*
X159950699Y-49360269D01*
X160098658Y-49298982D01*
X160255725Y-49267740D01*
X160415875Y-49267740D01*
X160572942Y-49298982D01*
X160572942Y-49298982D01*
G37*
G36*
X191572942Y-49298982D02*
G01*
X191720901Y-49360269D01*
X191854055Y-49449239D01*
X191967301Y-49562485D01*
X192056271Y-49695639D01*
X192117558Y-49843598D01*
X192148800Y-50000665D01*
X192148800Y-50160815D01*
X192117558Y-50317882D01*
X192056271Y-50465841D01*
X191967301Y-50598995D01*
X191854055Y-50712241D01*
X191720901Y-50801211D01*
X191572942Y-50862498D01*
X191415875Y-50893740D01*
X191255725Y-50893740D01*
X191098658Y-50862498D01*
X190950699Y-50801211D01*
X190817545Y-50712241D01*
X190704299Y-50598995D01*
X190615329Y-50465841D01*
X190554042Y-50317882D01*
X190522800Y-50160815D01*
X190522800Y-50000665D01*
X190554042Y-49843598D01*
X190615329Y-49695639D01*
X190704299Y-49562485D01*
X190817545Y-49449239D01*
X190950699Y-49360269D01*
X191098658Y-49298982D01*
X191255725Y-49267740D01*
X191415875Y-49267740D01*
X191572942Y-49298982D01*
X191572942Y-49298982D01*
G37*
G36*
X152572942Y-49298982D02*
G01*
X152720901Y-49360269D01*
X152854055Y-49449239D01*
X152967301Y-49562485D01*
X153056271Y-49695639D01*
X153117558Y-49843598D01*
X153148800Y-50000665D01*
X153148800Y-50160815D01*
X153117558Y-50317882D01*
X153056271Y-50465841D01*
X152967301Y-50598995D01*
X152854055Y-50712241D01*
X152720901Y-50801211D01*
X152572942Y-50862498D01*
X152415875Y-50893740D01*
X152255725Y-50893740D01*
X152098658Y-50862498D01*
X151950699Y-50801211D01*
X151817545Y-50712241D01*
X151704299Y-50598995D01*
X151615329Y-50465841D01*
X151554042Y-50317882D01*
X151522800Y-50160815D01*
X151522800Y-50000665D01*
X151554042Y-49843598D01*
X151615329Y-49695639D01*
X151704299Y-49562485D01*
X151817545Y-49449239D01*
X151950699Y-49360269D01*
X152098658Y-49298982D01*
X152255725Y-49267740D01*
X152415875Y-49267740D01*
X152572942Y-49298982D01*
X152572942Y-49298982D01*
G37*
G36*
X202704233Y-44140633D02*
G01*
X202794457Y-44158579D01*
X202900067Y-44202325D01*
X203049421Y-44264189D01*
X203049422Y-44264190D01*
X203278886Y-44417512D01*
X203474028Y-44612654D01*
X203552986Y-44730824D01*
X203627351Y-44842119D01*
X203732961Y-45097084D01*
X203786800Y-45367752D01*
X203786800Y-45643728D01*
X203732961Y-45914396D01*
X203627351Y-46169361D01*
X203627350Y-46169362D01*
X203474028Y-46398826D01*
X203278886Y-46593968D01*
X203125563Y-46696415D01*
X203049421Y-46747291D01*
X202900067Y-46809155D01*
X202794457Y-46852901D01*
X202704233Y-46870847D01*
X202523788Y-46906740D01*
X202247812Y-46906740D01*
X202067367Y-46870847D01*
X201977143Y-46852901D01*
X201871533Y-46809155D01*
X201722179Y-46747291D01*
X201646037Y-46696415D01*
X201492714Y-46593968D01*
X201297572Y-46398826D01*
X201144250Y-46169362D01*
X201144249Y-46169361D01*
X201038639Y-45914396D01*
X200984800Y-45643728D01*
X200984800Y-45367752D01*
X201038639Y-45097084D01*
X201144249Y-44842119D01*
X201218614Y-44730824D01*
X201297572Y-44612654D01*
X201492714Y-44417512D01*
X201722178Y-44264190D01*
X201722179Y-44264189D01*
X201871533Y-44202325D01*
X201977143Y-44158579D01*
X202067367Y-44140633D01*
X202247812Y-44104740D01*
X202523788Y-44104740D01*
X202704233Y-44140633D01*
X202704233Y-44140633D01*
G37*
G36*
X75904233Y-44140633D02*
G01*
X75994457Y-44158579D01*
X76100067Y-44202325D01*
X76249421Y-44264189D01*
X76249422Y-44264190D01*
X76478886Y-44417512D01*
X76674028Y-44612654D01*
X76752986Y-44730824D01*
X76827351Y-44842119D01*
X76932961Y-45097084D01*
X76986800Y-45367752D01*
X76986800Y-45643728D01*
X76932961Y-45914396D01*
X76827351Y-46169361D01*
X76827350Y-46169362D01*
X76674028Y-46398826D01*
X76478886Y-46593968D01*
X76325563Y-46696415D01*
X76249421Y-46747291D01*
X76100067Y-46809155D01*
X75994457Y-46852901D01*
X75904233Y-46870847D01*
X75723788Y-46906740D01*
X75447812Y-46906740D01*
X75267367Y-46870847D01*
X75177143Y-46852901D01*
X75071533Y-46809155D01*
X74922179Y-46747291D01*
X74846037Y-46696415D01*
X74692714Y-46593968D01*
X74497572Y-46398826D01*
X74344250Y-46169362D01*
X74344249Y-46169361D01*
X74238639Y-45914396D01*
X74184800Y-45643728D01*
X74184800Y-45367752D01*
X74238639Y-45097084D01*
X74344249Y-44842119D01*
X74418614Y-44730824D01*
X74497572Y-44612654D01*
X74692714Y-44417512D01*
X74922178Y-44264190D01*
X74922179Y-44264189D01*
X75071533Y-44202325D01*
X75177143Y-44158579D01*
X75267367Y-44140633D01*
X75447812Y-44104740D01*
X75723788Y-44104740D01*
X75904233Y-44140633D01*
X75904233Y-44140633D01*
G37*
G36*
X198258565Y-43360143D02*
G01*
X198381245Y-43384545D01*
X198612371Y-43480281D01*
X198820378Y-43619267D01*
X198997273Y-43796162D01*
X199136259Y-44004169D01*
X199231995Y-44235295D01*
X199256397Y-44357975D01*
X199280800Y-44480655D01*
X199280800Y-44730825D01*
X199231995Y-44976184D01*
X199136260Y-45207309D01*
X198997274Y-45415317D01*
X198820377Y-45592214D01*
X198717079Y-45661235D01*
X198612371Y-45731199D01*
X198381245Y-45826935D01*
X198258565Y-45851337D01*
X198135885Y-45875740D01*
X197885715Y-45875740D01*
X197763036Y-45851338D01*
X197640355Y-45826935D01*
X197409229Y-45731199D01*
X197304521Y-45661235D01*
X197201223Y-45592214D01*
X197024326Y-45415317D01*
X196885340Y-45207309D01*
X196789605Y-44976184D01*
X196740800Y-44730825D01*
X196740800Y-44480655D01*
X196765203Y-44357975D01*
X196789605Y-44235295D01*
X196885341Y-44004169D01*
X197024327Y-43796162D01*
X197201222Y-43619267D01*
X197409229Y-43480281D01*
X197640355Y-43384545D01*
X197763035Y-43360143D01*
X197885715Y-43335740D01*
X198135885Y-43335740D01*
X198258565Y-43360143D01*
X198258565Y-43360143D01*
G37*
M02*
