G04 #@! TF.GenerationSoftware,KiCad,Pcbnew,(5.1.5)-3*
G04 #@! TF.CreationDate,2020-03-12T08:41:59+01:00*
G04 #@! TF.ProjectId,StepperClockLedRing,53746570-7065-4724-936c-6f636b4c6564,V0.1*
G04 #@! TF.SameCoordinates,Original*
G04 #@! TF.FileFunction,Soldermask,Bot*
G04 #@! TF.FilePolarity,Negative*
%FSLAX46Y46*%
G04 Gerber Fmt 4.6, Leading zero omitted, Abs format (unit mm)*
G04 Created by KiCad (PCBNEW (5.1.5)-3) date 2020-03-12 08:41:59*
%MOMM*%
%LPD*%
G04 APERTURE LIST*
%ADD10C,0.100000*%
G04 APERTURE END LIST*
D10*
G36*
X63318433Y-148634893D02*
G01*
X63408657Y-148652839D01*
X63514267Y-148696585D01*
X63663621Y-148758449D01*
X63663622Y-148758450D01*
X63893086Y-148911772D01*
X64088228Y-149106914D01*
X64190675Y-149260237D01*
X64241551Y-149336379D01*
X64347161Y-149591344D01*
X64401000Y-149862012D01*
X64401000Y-150137988D01*
X64347161Y-150408656D01*
X64241551Y-150663621D01*
X64241550Y-150663622D01*
X64088228Y-150893086D01*
X63893086Y-151088228D01*
X63739763Y-151190675D01*
X63663621Y-151241551D01*
X63514267Y-151303415D01*
X63408657Y-151347161D01*
X63318433Y-151365107D01*
X63137988Y-151401000D01*
X62862012Y-151401000D01*
X62681567Y-151365107D01*
X62591343Y-151347161D01*
X62485733Y-151303415D01*
X62336379Y-151241551D01*
X62260237Y-151190675D01*
X62106914Y-151088228D01*
X61911772Y-150893086D01*
X61758450Y-150663622D01*
X61758449Y-150663621D01*
X61652839Y-150408656D01*
X61599000Y-150137988D01*
X61599000Y-149862012D01*
X61652839Y-149591344D01*
X61758449Y-149336379D01*
X61809325Y-149260237D01*
X61911772Y-149106914D01*
X62106914Y-148911772D01*
X62336378Y-148758450D01*
X62336379Y-148758449D01*
X62485733Y-148696585D01*
X62591343Y-148652839D01*
X62681567Y-148634893D01*
X62862012Y-148599000D01*
X63137988Y-148599000D01*
X63318433Y-148634893D01*
G37*
G36*
X126318433Y-148634893D02*
G01*
X126408657Y-148652839D01*
X126514267Y-148696585D01*
X126663621Y-148758449D01*
X126663622Y-148758450D01*
X126893086Y-148911772D01*
X127088228Y-149106914D01*
X127190675Y-149260237D01*
X127241551Y-149336379D01*
X127347161Y-149591344D01*
X127401000Y-149862012D01*
X127401000Y-150137988D01*
X127347161Y-150408656D01*
X127241551Y-150663621D01*
X127241550Y-150663622D01*
X127088228Y-150893086D01*
X126893086Y-151088228D01*
X126739763Y-151190675D01*
X126663621Y-151241551D01*
X126514267Y-151303415D01*
X126408657Y-151347161D01*
X126318433Y-151365107D01*
X126137988Y-151401000D01*
X125862012Y-151401000D01*
X125681567Y-151365107D01*
X125591343Y-151347161D01*
X125485733Y-151303415D01*
X125336379Y-151241551D01*
X125260237Y-151190675D01*
X125106914Y-151088228D01*
X124911772Y-150893086D01*
X124758450Y-150663622D01*
X124758449Y-150663621D01*
X124652839Y-150408656D01*
X124599000Y-150137988D01*
X124599000Y-149862012D01*
X124652839Y-149591344D01*
X124758449Y-149336379D01*
X124809325Y-149260237D01*
X124911772Y-149106914D01*
X125106914Y-148911772D01*
X125336378Y-148758450D01*
X125336379Y-148758449D01*
X125485733Y-148696585D01*
X125591343Y-148652839D01*
X125681567Y-148634893D01*
X125862012Y-148599000D01*
X126137988Y-148599000D01*
X126318433Y-148634893D01*
G37*
G36*
X63318433Y-101634893D02*
G01*
X63408657Y-101652839D01*
X63514267Y-101696585D01*
X63663621Y-101758449D01*
X63663622Y-101758450D01*
X63893086Y-101911772D01*
X64088228Y-102106914D01*
X64190675Y-102260237D01*
X64241551Y-102336379D01*
X64347161Y-102591344D01*
X64401000Y-102862012D01*
X64401000Y-103137988D01*
X64347161Y-103408656D01*
X64241551Y-103663621D01*
X64241550Y-103663622D01*
X64088228Y-103893086D01*
X63893086Y-104088228D01*
X63739763Y-104190675D01*
X63663621Y-104241551D01*
X63514267Y-104303415D01*
X63408657Y-104347161D01*
X63318433Y-104365107D01*
X63137988Y-104401000D01*
X62862012Y-104401000D01*
X62681567Y-104365107D01*
X62591343Y-104347161D01*
X62485733Y-104303415D01*
X62336379Y-104241551D01*
X62260237Y-104190675D01*
X62106914Y-104088228D01*
X61911772Y-103893086D01*
X61758450Y-103663622D01*
X61758449Y-103663621D01*
X61652839Y-103408656D01*
X61599000Y-103137988D01*
X61599000Y-102862012D01*
X61652839Y-102591344D01*
X61758449Y-102336379D01*
X61809325Y-102260237D01*
X61911772Y-102106914D01*
X62106914Y-101911772D01*
X62336378Y-101758450D01*
X62336379Y-101758449D01*
X62485733Y-101696585D01*
X62591343Y-101652839D01*
X62681567Y-101634893D01*
X62862012Y-101599000D01*
X63137988Y-101599000D01*
X63318433Y-101634893D01*
G37*
G36*
X126318433Y-101634893D02*
G01*
X126408657Y-101652839D01*
X126514267Y-101696585D01*
X126663621Y-101758449D01*
X126663622Y-101758450D01*
X126893086Y-101911772D01*
X127088228Y-102106914D01*
X127190675Y-102260237D01*
X127241551Y-102336379D01*
X127347161Y-102591344D01*
X127401000Y-102862012D01*
X127401000Y-103137988D01*
X127347161Y-103408656D01*
X127241551Y-103663621D01*
X127241550Y-103663622D01*
X127088228Y-103893086D01*
X126893086Y-104088228D01*
X126739763Y-104190675D01*
X126663621Y-104241551D01*
X126514267Y-104303415D01*
X126408657Y-104347161D01*
X126318433Y-104365107D01*
X126137988Y-104401000D01*
X125862012Y-104401000D01*
X125681567Y-104365107D01*
X125591343Y-104347161D01*
X125485733Y-104303415D01*
X125336379Y-104241551D01*
X125260237Y-104190675D01*
X125106914Y-104088228D01*
X124911772Y-103893086D01*
X124758450Y-103663622D01*
X124758449Y-103663621D01*
X124652839Y-103408656D01*
X124599000Y-103137988D01*
X124599000Y-102862012D01*
X124652839Y-102591344D01*
X124758449Y-102336379D01*
X124809325Y-102260237D01*
X124911772Y-102106914D01*
X125106914Y-101911772D01*
X125336378Y-101758450D01*
X125336379Y-101758449D01*
X125485733Y-101696585D01*
X125591343Y-101652839D01*
X125681567Y-101634893D01*
X125862012Y-101599000D01*
X126137988Y-101599000D01*
X126318433Y-101634893D01*
G37*
G36*
X72251000Y-99401000D02*
G01*
X70449000Y-99401000D01*
X70449000Y-97599000D01*
X72251000Y-97599000D01*
X72251000Y-99401000D01*
G37*
G36*
X117888512Y-97558927D02*
G01*
X118037812Y-97588624D01*
X118201784Y-97656544D01*
X118349354Y-97755147D01*
X118474853Y-97880646D01*
X118573456Y-98028216D01*
X118641376Y-98192188D01*
X118676000Y-98366259D01*
X118676000Y-98543741D01*
X118641376Y-98717812D01*
X118573456Y-98881784D01*
X118474853Y-99029354D01*
X118349354Y-99154853D01*
X118201784Y-99253456D01*
X118037812Y-99321376D01*
X117888512Y-99351073D01*
X117863742Y-99356000D01*
X117686258Y-99356000D01*
X117661488Y-99351073D01*
X117512188Y-99321376D01*
X117348216Y-99253456D01*
X117200646Y-99154853D01*
X117075147Y-99029354D01*
X116976544Y-98881784D01*
X116908624Y-98717812D01*
X116874000Y-98543741D01*
X116874000Y-98366259D01*
X116908624Y-98192188D01*
X116976544Y-98028216D01*
X117075147Y-97880646D01*
X117200646Y-97755147D01*
X117348216Y-97656544D01*
X117512188Y-97588624D01*
X117661488Y-97558927D01*
X117686258Y-97554000D01*
X117863742Y-97554000D01*
X117888512Y-97558927D01*
G37*
G36*
X71463512Y-95063927D02*
G01*
X71612812Y-95093624D01*
X71776784Y-95161544D01*
X71924354Y-95260147D01*
X72049853Y-95385646D01*
X72148456Y-95533216D01*
X72216376Y-95697188D01*
X72251000Y-95871259D01*
X72251000Y-96048741D01*
X72216376Y-96222812D01*
X72148456Y-96386784D01*
X72049853Y-96534354D01*
X71924354Y-96659853D01*
X71776784Y-96758456D01*
X71612812Y-96826376D01*
X71463512Y-96856073D01*
X71438742Y-96861000D01*
X71261258Y-96861000D01*
X71236488Y-96856073D01*
X71087188Y-96826376D01*
X70923216Y-96758456D01*
X70775646Y-96659853D01*
X70650147Y-96534354D01*
X70551544Y-96386784D01*
X70483624Y-96222812D01*
X70449000Y-96048741D01*
X70449000Y-95871259D01*
X70483624Y-95697188D01*
X70551544Y-95533216D01*
X70650147Y-95385646D01*
X70775646Y-95260147D01*
X70923216Y-95161544D01*
X71087188Y-95093624D01*
X71236488Y-95063927D01*
X71261258Y-95059000D01*
X71438742Y-95059000D01*
X71463512Y-95063927D01*
G37*
G36*
X117888512Y-95018927D02*
G01*
X118037812Y-95048624D01*
X118201784Y-95116544D01*
X118349354Y-95215147D01*
X118474853Y-95340646D01*
X118573456Y-95488216D01*
X118641376Y-95652188D01*
X118676000Y-95826259D01*
X118676000Y-96003741D01*
X118641376Y-96177812D01*
X118573456Y-96341784D01*
X118474853Y-96489354D01*
X118349354Y-96614853D01*
X118201784Y-96713456D01*
X118037812Y-96781376D01*
X117888512Y-96811073D01*
X117863742Y-96816000D01*
X117686258Y-96816000D01*
X117661488Y-96811073D01*
X117512188Y-96781376D01*
X117348216Y-96713456D01*
X117200646Y-96614853D01*
X117075147Y-96489354D01*
X116976544Y-96341784D01*
X116908624Y-96177812D01*
X116874000Y-96003741D01*
X116874000Y-95826259D01*
X116908624Y-95652188D01*
X116976544Y-95488216D01*
X117075147Y-95340646D01*
X117200646Y-95215147D01*
X117348216Y-95116544D01*
X117512188Y-95048624D01*
X117661488Y-95018927D01*
X117686258Y-95014000D01*
X117863742Y-95014000D01*
X117888512Y-95018927D01*
G37*
G36*
X71463512Y-92523927D02*
G01*
X71612812Y-92553624D01*
X71776784Y-92621544D01*
X71924354Y-92720147D01*
X72049853Y-92845646D01*
X72148456Y-92993216D01*
X72216376Y-93157188D01*
X72251000Y-93331259D01*
X72251000Y-93508741D01*
X72216376Y-93682812D01*
X72148456Y-93846784D01*
X72049853Y-93994354D01*
X71924354Y-94119853D01*
X71776784Y-94218456D01*
X71612812Y-94286376D01*
X71463512Y-94316073D01*
X71438742Y-94321000D01*
X71261258Y-94321000D01*
X71236488Y-94316073D01*
X71087188Y-94286376D01*
X70923216Y-94218456D01*
X70775646Y-94119853D01*
X70650147Y-93994354D01*
X70551544Y-93846784D01*
X70483624Y-93682812D01*
X70449000Y-93508741D01*
X70449000Y-93331259D01*
X70483624Y-93157188D01*
X70551544Y-92993216D01*
X70650147Y-92845646D01*
X70775646Y-92720147D01*
X70923216Y-92621544D01*
X71087188Y-92553624D01*
X71236488Y-92523927D01*
X71261258Y-92519000D01*
X71438742Y-92519000D01*
X71463512Y-92523927D01*
G37*
G36*
X118676000Y-94276000D02*
G01*
X116874000Y-94276000D01*
X116874000Y-92474000D01*
X118676000Y-92474000D01*
X118676000Y-94276000D01*
G37*
M02*
