M48
METRIC,TZ
T1C0.400
T2C1.000
%
G90
G05
T1
X61670Y-129170
X61850Y-124100
X61975Y-133950
X62530Y-118900
X62620Y-142450
X62780Y-110270
X63475Y-113100
X63475Y-138900
X65850Y-143700
X66150Y-108775
X68750Y-147875
X69450Y-104475
X72525Y-151650
X73375Y-100625
X75175Y-156725
X76700Y-154850
X77625Y-97750
X79290Y-94400
X81025Y-158050
X81900Y-95780
X86425Y-158975
X86950Y-94700
X90800Y-93870
X91525Y-159300
X92275Y-93750
X93350Y-93675
X97000Y-159325
X97050Y-94040
X102075Y-159150
X102650Y-94325
X105525Y-92475
X107375Y-157850
X107700Y-95875
X109750Y-94350
X111680Y-98350
X111950Y-155150
X115940Y-101440
X116200Y-155725
X116350Y-152125
X119625Y-148575
X120225Y-105275
X122750Y-144625
X123200Y-109775
X125060Y-113850
X125830Y-140720
X126560Y-110870
X126600Y-134140
X126740Y-139550
X127000Y-119000
X127310Y-123940
X127340Y-129010
T2
X117775Y-93375
X117775Y-95915
X117775Y-98455
X71350Y-93420
X71350Y-95960
X71350Y-98500
T0
M30
