<?xml version="1.0" encoding="UTF-8" standalone="no"?>
<!-- Created with Inkscape (http://www.inkscape.org/) -->

<svg
   xmlns:dc="http://purl.org/dc/elements/1.1/"
   xmlns:cc="http://creativecommons.org/ns#"
   xmlns:rdf="http://www.w3.org/1999/02/22-rdf-syntax-ns#"
   xmlns:svg="http://www.w3.org/2000/svg"
   xmlns="http://www.w3.org/2000/svg"
   xmlns:sodipodi="http://sodipodi.sourceforge.net/DTD/sodipodi-0.dtd"
   xmlns:inkscape="http://www.inkscape.org/namespaces/inkscape"
   width="172.076mm"
   height="139.89682mm"
   viewBox="0 0 172.076 139.89682"
   version="1.1"
   id="svg8"
   inkscape:version="0.92.1 r15371"
   sodipodi:docname="LaserCutterPanel.svg">
  <defs
     id="defs2" />
  <sodipodi:namedview
     id="base"
     pagecolor="#ffffff"
     bordercolor="#666666"
     borderopacity="1.0"
     inkscape:pageopacity="0.0"
     inkscape:pageshadow="2"
     inkscape:zoom="1.6931628"
     inkscape:cx="325.18299"
     inkscape:cy="203.43712"
     inkscape:document-units="mm"
     inkscape:current-layer="layer1"
     showgrid="false"
     fit-margin-top="0"
     fit-margin-left="0"
     fit-margin-right="0"
     fit-margin-bottom="0"
     inkscape:window-width="1920"
     inkscape:window-height="1027"
     inkscape:window-x="-8"
     inkscape:window-y="1192"
     inkscape:window-maximized="1"
     inkscape:measure-start="696.33,184.271"
     inkscape:measure-end="549.268,136.431" />
  <metadata
     id="metadata5">
    <rdf:RDF>
      <cc:Work
         rdf:about="">
        <dc:format>image/svg+xml</dc:format>
        <dc:type
           rdf:resource="http://purl.org/dc/dcmitype/StillImage" />
        <dc:title />
      </cc:Work>
    </rdf:RDF>
  </metadata>
  <g
     inkscape:label="Layer 1"
     inkscape:groupmode="layer"
     id="layer1"
     transform="translate(-19.616762,-52.562594)">
    <path
       style="opacity:0.77300002;fill:none;fill-opacity:1;stroke:#ff0000;stroke-width:0.076;stroke-linecap:round;stroke-linejoin:round;stroke-miterlimit:0;stroke-dasharray:none;stroke-dashoffset:0;stroke-opacity:1;paint-order:markers fill stroke"
       d="M 19.654762,52.600594 H 191.65476 V 192.42142 H 19.654762 Z"
       id="rect4485"
       inkscape:connector-curvature="0"
       sodipodi:nodetypes="ccccc" />
    <rect
       style="opacity:0.77300002;fill:none;fill-opacity:1;stroke:#ff0000;stroke-width:0.076;stroke-linecap:round;stroke-linejoin:round;stroke-miterlimit:0;stroke-dasharray:none;stroke-dashoffset:0;stroke-opacity:1;paint-order:markers fill stroke"
       id="rect4487"
       width="29"
       height="22"
       x="38.945541"
       y="138.82941" />
    <ellipse
       style="opacity:0.77300002;fill:none;fill-opacity:1;stroke:#ff0000;stroke-width:0.07599999;stroke-linecap:round;stroke-linejoin:round;stroke-miterlimit:0;stroke-dasharray:none;stroke-dashoffset:0;stroke-opacity:1;paint-order:markers fill stroke"
       id="path4489"
       cx="53.445541"
       cy="94.10762"
       rx="6.4619999"
       ry="6.0162306" />
    <ellipse
       style="opacity:0.77300002;fill:none;fill-opacity:1;stroke:#ff0000;stroke-width:0.07599999;stroke-linecap:round;stroke-linejoin:round;stroke-miterlimit:0;stroke-dasharray:none;stroke-dashoffset:0;stroke-opacity:1;paint-order:markers fill stroke"
       id="path4489-4"
       cx="53.445541"
       cy="121.68202"
       rx="6.4619999"
       ry="6.0162306" />
    <rect
       style="opacity:0.77300002;fill:none;fill-opacity:1;stroke:#ff0000;stroke-width:0.076;stroke-linecap:round;stroke-linejoin:round;stroke-miterlimit:0;stroke-dasharray:none;stroke-dashoffset:0;stroke-opacity:1;paint-order:markers fill stroke"
       id="rect4510"
       width="78"
       height="51"
       x="89.60965"
       y="86.181091" />
    <circle
       style="opacity:0.77300002;fill:none;fill-opacity:1;stroke:#ff0000;stroke-width:0.07600001;stroke-linecap:round;stroke-linejoin:round;stroke-miterlimit:0;stroke-dasharray:none;stroke-dashoffset:0;stroke-opacity:1;paint-order:markers fill stroke"
       id="path4512"
       cx="165.03816"
       cy="155.10957"
       r="3.9619999" />
    <path
       style="opacity:0.77300002;fill:none;fill-opacity:1;stroke:#ff0000;stroke-width:0.07599999;stroke-linecap:round;stroke-linejoin:round;stroke-miterlimit:0;stroke-dasharray:none;stroke-dashoffset:0;stroke-opacity:1;paint-order:markers fill stroke"
       d="m 134.6569,154.61871 c 0,2.86105 -0.0554,5.22843 -2.96199,5.18043 -2.90658,-0.048 -2.962,-2.31937 -2.962,-5.18043 0,-2.86108 1.8e-4,-5.18045 2.962,-5.18044 2.96182,1e-5 2.96199,2.31937 2.96199,5.18044 z"
       id="path4518"
       inkscape:connector-curvature="0"
       sodipodi:nodetypes="szszs" />
    <ellipse
       style="opacity:0.77300002;fill:none;fill-opacity:1;stroke:#ff0000;stroke-width:0.07599999;stroke-linecap:round;stroke-linejoin:round;stroke-miterlimit:0;stroke-dasharray:none;stroke-dashoffset:0;stroke-opacity:1;paint-order:markers fill stroke"
       id="path4489-2"
       cx="38.457718"
       cy="59.011337"
       rx="2.7120001"
       ry="2.4620001" />
    <circle
       style="opacity:0.77300002;fill:none;fill-opacity:1;stroke:#ff0000;stroke-width:0.07599999;stroke-linecap:round;stroke-linejoin:round;stroke-miterlimit:0;stroke-dasharray:none;stroke-dashoffset:0;stroke-opacity:1;paint-order:markers fill stroke"
       id="path4489-2-0"
       cx="38.377167"
       cy="186.22302"
       r="2.7120001" />
    <circle
       style="opacity:0.77300002;fill:none;fill-opacity:1;stroke:#ff0000;stroke-width:0.07599999;stroke-linecap:round;stroke-linejoin:round;stroke-miterlimit:0;stroke-dasharray:none;stroke-dashoffset:0;stroke-opacity:1;paint-order:markers fill stroke"
       id="path4489-2-9"
       cx="175.95987"
       cy="58.76133"
       r="2.7120001" />
    <circle
       style="opacity:0.77300002;fill:none;fill-opacity:1;stroke:#ff0000;stroke-width:0.07599999;stroke-linecap:round;stroke-linejoin:round;stroke-miterlimit:0;stroke-dasharray:none;stroke-dashoffset:0;stroke-opacity:1;paint-order:markers fill stroke"
       id="path4489-2-9-7"
       cx="176.09695"
       cy="186.22302"
       r="2.7120001" />
    <circle
       style="opacity:0.77300002;fill:none;fill-opacity:1;stroke:#ff0000;stroke-width:0.07600003;stroke-linecap:round;stroke-linejoin:round;stroke-miterlimit:0;stroke-dasharray:none;stroke-dashoffset:0;stroke-opacity:1;paint-order:markers fill stroke"
       id="path4512-3"
       cx="84.413589"
       cy="78.822601"
       r="1.512" />
    <circle
       style="opacity:0.77300002;fill:none;fill-opacity:1;stroke:#ff0000;stroke-width:0.07600003;stroke-linecap:round;stroke-linejoin:round;stroke-miterlimit:0;stroke-dasharray:none;stroke-dashoffset:0;stroke-opacity:1;paint-order:markers fill stroke"
       id="path4512-3-5"
       cx="84.410271"
       cy="144.35072"
       r="1.512" />
    <circle
       style="opacity:0.77300002;fill:none;fill-opacity:1;stroke:#ff0000;stroke-width:0.07600003;stroke-linecap:round;stroke-linejoin:round;stroke-miterlimit:0;stroke-dasharray:none;stroke-dashoffset:0;stroke-opacity:1;paint-order:markers fill stroke"
       id="path4512-3-4"
       cx="172.81387"
       cy="144.50699"
       r="1.512" />
    <circle
       style="opacity:0.77300002;fill:none;fill-opacity:1;stroke:#ff0000;stroke-width:0.07600003;stroke-linecap:round;stroke-linejoin:round;stroke-miterlimit:0;stroke-dasharray:none;stroke-dashoffset:0;stroke-opacity:1;paint-order:markers fill stroke"
       id="path4512-3-8"
       cx="172.65761"
       cy="78.904053"
       r="1.512" />
    <g
       aria-label="On Off"
       style="font-style:normal;font-variant:normal;font-weight:normal;font-stretch:normal;font-size:5.64444447px;line-height:1.25;font-family:sans-serif;-inkscape-font-specification:'sans-serif, Normal';font-variant-ligatures:normal;font-variant-caps:normal;font-variant-numeric:normal;font-feature-settings:normal;text-align:start;letter-spacing:0px;word-spacing:0px;writing-mode:lr-tb;text-anchor:start;fill:#000000;fill-opacity:1;stroke:none;stroke-width:0.26458332"
       id="text4625"
       transform="translate(0,-3.7041668)">
      <path
         d="m 46.825102,168.42271 q 0.250803,0.27561 0.383094,0.67524 0.135048,0.39963 0.135048,0.90675 0,0.50712 -0.137804,0.90951 -0.135048,0.39963 -0.380338,0.66697 -0.253559,0.27836 -0.600825,0.41892 -0.34451,0.14056 -0.788238,0.14056 -0.432704,0 -0.788238,-0.14332 -0.352777,-0.14331 -0.600824,-0.41616 -0.248047,-0.27286 -0.383095,-0.66973 -0.132292,-0.39688 -0.132292,-0.90675 0,-0.50161 0.132292,-0.89848 0.132292,-0.39963 0.385851,-0.68351 0.242534,-0.27009 0.600824,-0.41341 0.361046,-0.14331 0.785482,-0.14331 0.440972,0 0.790994,0.14607 0.352778,0.14331 0.598069,0.41065 z m -0.04961,1.58199 q 0,-0.79926 -0.35829,-1.23197 -0.35829,-0.43546 -0.978407,-0.43546 -0.625629,0 -0.983919,0.43546 -0.355534,0.43271 -0.355534,1.23197 0,0.80753 0.363802,1.23748 0.363802,0.42719 0.975651,0.42719 0.611849,0 0.972895,-0.42719 0.363802,-0.42995 0.363802,-1.23748 z"
         style="font-style:normal;font-variant:normal;font-weight:normal;font-stretch:normal;font-size:5.64444447px;font-family:sans-serif;-inkscape-font-specification:'sans-serif, Normal';font-variant-ligatures:normal;font-variant-caps:normal;font-variant-numeric:normal;font-feature-settings:normal;text-align:start;writing-mode:lr-tb;text-anchor:start;stroke-width:0.26458332"
         id="path4717"
         inkscape:connector-curvature="0" />
      <path
         d="m 50.741486,172.05522 h -0.518142 v -1.75286 q 0,-0.21222 -0.02481,-0.39688 -0.0248,-0.18741 -0.09095,-0.29214 -0.0689,-0.11576 -0.198438,-0.17088 -0.129535,-0.0579 -0.336241,-0.0579 -0.212218,0 -0.443728,0.10473 -0.231511,0.10474 -0.443729,0.26734 v 2.29857 h -0.518142 v -3.07854 h 0.518142 v 0.34176 q 0.242535,-0.2012 0.501606,-0.3142 0.259071,-0.11299 0.531923,-0.11299 0.49885,0 0.760677,0.30041 0.261827,0.30041 0.261827,0.86541 z"
         style="font-style:normal;font-variant:normal;font-weight:normal;font-stretch:normal;font-size:5.64444447px;font-family:sans-serif;-inkscape-font-specification:'sans-serif, Normal';font-variant-ligatures:normal;font-variant-caps:normal;font-variant-numeric:normal;font-feature-settings:normal;text-align:start;writing-mode:lr-tb;text-anchor:start;stroke-width:0.26458332"
         id="path4719"
         inkscape:connector-curvature="0" />
      <path
         d="m 56.824147,168.42271 q 0.250803,0.27561 0.383095,0.67524 0.135047,0.39963 0.135047,0.90675 0,0.50712 -0.137803,0.90951 -0.135048,0.39963 -0.380339,0.66697 -0.253559,0.27836 -0.600825,0.41892 -0.344509,0.14056 -0.788237,0.14056 -0.432704,0 -0.788238,-0.14332 -0.352778,-0.14331 -0.600825,-0.41616 -0.248047,-0.27286 -0.383095,-0.66973 -0.132291,-0.39688 -0.132291,-0.90675 0,-0.50161 0.132291,-0.89848 0.132292,-0.39963 0.385851,-0.68351 0.242535,-0.27009 0.600825,-0.41341 0.361046,-0.14331 0.785482,-0.14331 0.440972,0 0.790993,0.14607 0.352778,0.14331 0.598069,0.41065 z m -0.04961,1.58199 q 0,-0.79926 -0.35829,-1.23197 -0.35829,-0.43546 -0.978407,-0.43546 -0.62563,0 -0.98392,0.43546 -0.355534,0.43271 -0.355534,1.23197 0,0.80753 0.363803,1.23748 0.363802,0.42719 0.975651,0.42719 0.611849,0 0.972895,-0.42719 0.363802,-0.42995 0.363802,-1.23748 z"
         style="font-style:normal;font-variant:normal;font-weight:normal;font-stretch:normal;font-size:5.64444447px;font-family:sans-serif;-inkscape-font-specification:'sans-serif, Normal';font-variant-ligatures:normal;font-variant-caps:normal;font-variant-numeric:normal;font-feature-settings:normal;text-align:start;writing-mode:lr-tb;text-anchor:start;stroke-width:0.26458332"
         id="path4721"
         inkscape:connector-curvature="0" />
      <path
         d="m 59.822759,168.26837 h -0.02756 q -0.08544,-0.0248 -0.223242,-0.0496 -0.137804,-0.0276 -0.242535,-0.0276 -0.333485,0 -0.485069,0.14883 -0.148829,0.14607 -0.148829,0.53192 v 0.10473 h 0.93431 v 0.43546 H 58.71206 v 2.64308 h -0.518142 v -2.64308 h -0.350022 v -0.43546 h 0.350022 v -0.10197 q 0,-0.54846 0.272851,-0.8406 0.272852,-0.2949 0.788238,-0.2949 0.173633,0 0.311437,0.0165 0.14056,0.0165 0.256315,0.0386 z"
         style="font-style:normal;font-variant:normal;font-weight:normal;font-stretch:normal;font-size:5.64444447px;font-family:sans-serif;-inkscape-font-specification:'sans-serif, Normal';font-variant-ligatures:normal;font-variant-caps:normal;font-variant-numeric:normal;font-feature-settings:normal;text-align:start;writing-mode:lr-tb;text-anchor:start;stroke-width:0.26458332"
         id="path4723"
         inkscape:connector-curvature="0" />
      <path
         d="m 61.807134,168.26837 h -0.02756 q -0.08544,-0.0248 -0.223242,-0.0496 -0.137804,-0.0276 -0.242535,-0.0276 -0.333485,0 -0.485069,0.14883 -0.148829,0.14607 -0.148829,0.53192 v 0.10473 h 0.93431 v 0.43546 h -0.917773 v 2.64308 h -0.518142 v -2.64308 h -0.350022 v -0.43546 h 0.350022 v -0.10197 q 0,-0.54846 0.272851,-0.8406 0.272852,-0.2949 0.788238,-0.2949 0.173633,0 0.311437,0.0165 0.14056,0.0165 0.256315,0.0386 z"
         style="font-style:normal;font-variant:normal;font-weight:normal;font-stretch:normal;font-size:5.64444447px;font-family:sans-serif;-inkscape-font-specification:'sans-serif, Normal';font-variant-ligatures:normal;font-variant-caps:normal;font-variant-numeric:normal;font-feature-settings:normal;text-align:start;writing-mode:lr-tb;text-anchor:start;stroke-width:0.26458332"
         id="path4725"
         inkscape:connector-curvature="0" />
    </g>
    <g
       aria-label="Stop"
       style="font-style:normal;font-variant:normal;font-weight:normal;font-stretch:normal;font-size:5.64444447px;line-height:1.25;font-family:sans-serif;-inkscape-font-specification:'sans-serif, Normal';font-variant-ligatures:normal;font-variant-caps:normal;font-variant-numeric:normal;font-feature-settings:normal;text-align:start;letter-spacing:0px;word-spacing:0px;writing-mode:lr-tb;text-anchor:start;fill:#000000;fill-opacity:1;stroke:none;stroke-width:0.26458332"
       id="text4625-2"
       transform="translate(0,-3.7041668)">
      <path
         d="m 128.69351,170.88389 q 0,0.23978 -0.113,0.47404 -0.11024,0.23427 -0.31144,0.39688 -0.22048,0.17639 -0.51538,0.27561 -0.29215,0.0992 -0.70556,0.0992 -0.44373,0 -0.79926,-0.0827 -0.35278,-0.0827 -0.71934,-0.24529 v -0.6835 h 0.0386 q 0.31143,0.25907 0.71933,0.39963 0.4079,0.14056 0.76619,0.14056 0.50712,0 0.78824,-0.19017 0.28388,-0.19017 0.28388,-0.50712 0,-0.27285 -0.13505,-0.40239 -0.13229,-0.12953 -0.40515,-0.20119 -0.2067,-0.0551 -0.44924,-0.091 -0.23977,-0.0358 -0.50987,-0.0909 -0.5457,-0.11576 -0.81029,-0.39412 -0.26182,-0.28112 -0.26182,-0.73036 0,-0.51539 0.43546,-0.84336 0.43546,-0.33073 1.10518,-0.33073 0.43271,0 0.79375,0.0827 0.36105,0.0827 0.63941,0.20395 v 0.64492 h -0.0386 q -0.23427,-0.19843 -0.61736,-0.32797 -0.38034,-0.13229 -0.77997,-0.13229 -0.43822,0 -0.70556,0.1819 -0.26458,0.1819 -0.26458,0.46853 0,0.25632 0.13229,0.40239 0.13229,0.14607 0.46578,0.22324 0.17639,0.0386 0.5016,0.0937 0.32522,0.0551 0.55122,0.113 0.45751,0.12127 0.68902,0.36656 0.23151,0.24529 0.23151,0.68626 z"
         id="path4708"
         inkscape:connector-curvature="0" />
      <path
         d="m 131.12712,172.02766 q -0.14607,0.0386 -0.3197,0.0634 -0.17088,0.0248 -0.30593,0.0248 -0.47129,0 -0.71658,-0.25356 -0.24529,-0.25356 -0.24529,-0.81305 v -1.63711 h -0.35002 v -0.43546 h 0.35002 v -0.8847 h 0.51815 v 0.8847 h 1.06935 v 0.43546 h -1.06935 v 1.40285 q 0,0.24253 0.011,0.38034 0.011,0.13504 0.0772,0.25355 0.0606,0.11025 0.16536,0.16261 0.10749,0.0496 0.32522,0.0496 0.12678,0 0.26458,-0.0358 0.13781,-0.0386 0.19844,-0.0634 h 0.0276 z"
         id="path4710"
         inkscape:connector-curvature="0" />
      <path
         d="m 134.37929,170.51733 q 0,0.75241 -0.38585,1.18787 -0.38585,0.43546 -1.03353,0.43546 -0.65319,0 -1.03904,-0.43546 -0.38309,-0.43546 -0.38309,-1.18787 0,-0.75241 0.38309,-1.18787 0.38585,-0.43821 1.03904,-0.43821 0.64768,0 1.03353,0.43821 0.38585,0.43546 0.38585,1.18787 z m -0.53468,0 q 0,-0.59807 -0.23426,-0.88746 -0.23427,-0.29214 -0.65044,-0.29214 -0.42168,0 -0.65594,0.29214 -0.23151,0.28939 -0.23151,0.88746 0,0.57878 0.23426,0.87919 0.23427,0.29766 0.65319,0.29766 0.41342,0 0.64768,-0.2949 0.23702,-0.29766 0.23702,-0.88195 z"
         id="path4712"
         inkscape:connector-curvature="0" />
      <path
         d="m 137.89329,170.47875 q 0,0.37482 -0.10749,0.68626 -0.10748,0.30868 -0.30317,0.52365 -0.1819,0.20395 -0.42994,0.31695 -0.24529,0.11025 -0.5209,0.11025 -0.23978,0 -0.43546,-0.0524 -0.19293,-0.0524 -0.39412,-0.16261 v 1.28985 h -0.51814 v -4.21405 h 0.51814 v 0.32247 q 0.2067,-0.17364 0.46302,-0.28939 0.25907,-0.11851 0.55122,-0.11851 0.55672,0 0.8654,0.42168 0.31144,0.41892 0.31144,1.16582 z m -0.53468,0.0138 q 0,-0.55673 -0.19017,-0.83234 -0.19017,-0.27561 -0.58429,-0.27561 -0.22324,0 -0.44924,0.0965 -0.226,0.0965 -0.4327,0.25356 v 1.74459 q 0.22049,0.0992 0.37758,0.13505 0.15985,0.0358 0.36105,0.0358 0.4327,0 0.67524,-0.29215 0.24253,-0.29214 0.24253,-0.8654 z"
         id="path4714"
         inkscape:connector-curvature="0" />
    </g>
    <g
       aria-label="Menu"
       style="font-style:normal;font-variant:normal;font-weight:normal;font-stretch:normal;font-size:5.64444447px;line-height:1.25;font-family:sans-serif;-inkscape-font-specification:'sans-serif, Normal';font-variant-ligatures:normal;font-variant-caps:normal;font-variant-numeric:normal;font-feature-settings:normal;text-align:start;letter-spacing:0px;word-spacing:0px;writing-mode:lr-tb;text-anchor:start;fill:#000000;fill-opacity:1;stroke:none;stroke-width:0.26458332"
       id="text4625-2-3"
       transform="translate(0,-3.7041668)">
      <path
         d="m 161.30486,172.05522 h -0.5457 v -3.53604 l -1.14102,2.40605 h -0.32521 l -1.13275,-2.40605 v 3.53604 h -0.50987 v -4.1038 h 0.74414 l 1.09416,2.28479 1.05833,-2.28479 h 0.75792 z"
         id="path4699"
         inkscape:connector-curvature="0" />
      <path
         d="m 164.9484,170.5697 h -2.26825 q 0,0.28387 0.0854,0.49609 0.0854,0.20946 0.23427,0.34451 0.14332,0.13229 0.339,0.19844 0.19843,0.0661 0.43546,0.0661 0.31419,0 0.63114,-0.12402 0.3197,-0.12678 0.45475,-0.24805 h 0.0276 v 0.565 q -0.26182,0.11024 -0.53468,0.18466 -0.27285,0.0744 -0.57326,0.0744 -0.76619,0 -1.19614,-0.41341 -0.42995,-0.41617 -0.42995,-1.1796 0,-0.75517 0.41066,-1.1989 0.41341,-0.44372 1.08589,-0.44372 0.62288,0 0.95912,0.3638 0.339,0.3638 0.339,1.03353 z m -0.50437,-0.39688 q -0.003,-0.4079 -0.2067,-0.63114 -0.2012,-0.22324 -0.61461,-0.22324 -0.41616,0 -0.66421,0.24529 -0.24529,0.24529 -0.27836,0.60909 z"
         id="path4701"
         inkscape:connector-curvature="0" />
      <path
         d="m 168.30805,172.05522 h -0.51814 v -1.75286 q 0,-0.21222 -0.0248,-0.39688 -0.0248,-0.18741 -0.0909,-0.29214 -0.0689,-0.11576 -0.19844,-0.17088 -0.12954,-0.0579 -0.33624,-0.0579 -0.21222,0 -0.44373,0.10473 -0.23151,0.10474 -0.44373,0.26734 v 2.29857 h -0.51814 v -3.07854 h 0.51814 v 0.34176 q 0.24254,-0.2012 0.50161,-0.3142 0.25907,-0.11299 0.53192,-0.11299 0.49885,0 0.76068,0.30041 0.26182,0.30041 0.26182,0.86541 z"
         id="path4703"
         inkscape:connector-curvature="0" />
      <path
         d="m 171.85788,172.05522 h -0.51814 v -0.34175 q -0.26183,0.2067 -0.50161,0.31695 -0.23978,0.11024 -0.52917,0.11024 -0.48507,0 -0.75516,-0.2949 -0.2701,-0.29766 -0.2701,-0.87092 v -1.99816 h 0.51815 v 1.75287 q 0,0.23427 0.022,0.40239 0.0221,0.16536 0.0937,0.28387 0.0744,0.12127 0.19293,0.17639 0.11851,0.0551 0.34451,0.0551 0.20119,0 0.43821,-0.10473 0.23978,-0.10473 0.44649,-0.26734 v -2.29857 h 0.51814 z"
         id="path4705"
         inkscape:connector-curvature="0" />
    </g>
    <g
       aria-label="Up"
       style="font-style:normal;font-variant:normal;font-weight:normal;font-stretch:normal;font-size:5.64444447px;line-height:1.25;font-family:sans-serif;-inkscape-font-specification:'sans-serif, Normal';font-variant-ligatures:normal;font-variant-caps:normal;font-variant-numeric:normal;font-feature-settings:normal;text-align:start;letter-spacing:0px;word-spacing:0px;writing-mode:lr-tb;text-anchor:start;fill:#000000;fill-opacity:1;stroke:none;stroke-width:0.26458332"
       id="text4625-2-5">
      <path
         d="m 67.355029,93.565322 q 0,0.446484 -0.09922,0.779969 -0.09646,0.330729 -0.319705,0.551215 -0.212218,0.209462 -0.496094,0.305925 -0.283876,0.09646 -0.661458,0.09646 -0.385851,0 -0.672483,-0.101975 -0.286632,-0.101975 -0.482313,-0.300413 -0.223243,-0.225998 -0.322461,-0.545703 -0.09646,-0.319705 -0.09646,-0.785481 v -2.455665 h 0.545703 v 2.483225 q 0,0.333486 0.0441,0.526411 0.04685,0.192925 0.154341,0.350022 0.121267,0.179145 0.327973,0.270095 0.209462,0.09095 0.501606,0.09095 0.2949,0 0.501606,-0.08819 0.206705,-0.09095 0.330729,-0.272851 0.107487,-0.157097 0.151584,-0.35829 0.04685,-0.20395 0.04685,-0.504362 v -2.497006 h 0.545703 z"
         id="path4737"
         inkscape:connector-curvature="0" />
      <path
         d="m 71.067464,93.636979 q 0,0.374827 -0.107487,0.686264 -0.107487,0.30868 -0.303168,0.523654 -0.181901,0.20395 -0.429948,0.316949 -0.245291,0.110243 -0.520898,0.110243 -0.239779,0 -0.43546,-0.05237 -0.192926,-0.05236 -0.394119,-0.162608 v 1.289844 h -0.518143 v -4.214041 h 0.518143 v 0.322461 q 0.206705,-0.173633 0.463021,-0.289388 0.259071,-0.118512 0.551215,-0.118512 0.556727,0 0.865408,0.42168 0.311436,0.418924 0.311436,1.16582 z m -0.534678,0.01378 q 0,-0.556728 -0.19017,-0.832335 -0.190169,-0.275608 -0.584288,-0.275608 -0.223242,0 -0.44924,0.09646 -0.225999,0.09646 -0.432704,0.253559 v 1.744596 q 0.220486,0.09922 0.377582,0.135048 0.159853,0.03583 0.361046,0.03583 0.432704,0 0.675239,-0.292144 0.242535,-0.292144 0.242535,-0.865408 z"
         id="path4739"
         inkscape:connector-curvature="0" />
    </g>
    <g
       aria-label="Down"
       style="font-style:normal;font-variant:normal;font-weight:normal;font-stretch:normal;font-size:5.64444447px;line-height:1.25;font-family:sans-serif;-inkscape-font-specification:'sans-serif, Normal';font-variant-ligatures:normal;font-variant-caps:normal;font-variant-numeric:normal;font-feature-settings:normal;text-align:start;letter-spacing:0px;word-spacing:0px;writing-mode:lr-tb;text-anchor:start;fill:#000000;fill-opacity:1;stroke:none;stroke-width:0.26458332"
       id="text4625-2-2">
      <path
         d="m 67.732612,122.15634 q 0,0.55948 -0.245291,1.01423 -0.242535,0.45476 -0.647678,0.70556 -0.28112,0.17363 -0.628385,0.2508 -0.34451,0.0772 -0.909506,0.0772 h -1.036284 v -4.1038 h 1.02526 q 0.600825,0 0.953603,0.0882 0.355533,0.0854 0.600824,0.23702 0.418924,0.26183 0.65319,0.69729 0.234267,0.43546 0.234267,1.03353 z m -0.570508,-0.008 q 0,-0.48231 -0.168121,-0.81304 -0.16812,-0.33073 -0.501606,-0.5209 -0.242534,-0.13781 -0.515386,-0.19017 -0.272851,-0.0551 -0.65319,-0.0551 h -0.51263 v 3.16673 h 0.51263 q 0.394119,0 0.686263,-0.0579 0.2949,-0.0579 0.540191,-0.21497 0.305925,-0.19568 0.457509,-0.51539 0.15434,-0.3197 0.15434,-0.79926 z"
         id="path4728"
         inkscape:connector-curvature="0" />
      <path
         d="m 71.202512,122.66621 q 0,0.75241 -0.38585,1.18787 -0.385851,0.43546 -1.033529,0.43546 -0.65319,0 -1.039041,-0.43546 -0.383095,-0.43546 -0.383095,-1.18787 0,-0.75241 0.383095,-1.18787 0.385851,-0.43821 1.039041,-0.43821 0.647678,0 1.033529,0.43821 0.38585,0.43546 0.38585,1.18787 z m -0.534679,0 q 0,-0.59807 -0.234266,-0.88746 -0.234267,-0.29214 -0.650434,-0.29214 -0.42168,0 -0.655946,0.29214 -0.231511,0.28939 -0.231511,0.88746 0,0.57878 0.234267,0.87919 0.234266,0.29766 0.65319,0.29766 0.413411,0 0.647678,-0.2949 0.237022,-0.29766 0.237022,-0.88195 z"
         id="path4730"
         inkscape:connector-curvature="0" />
      <path
         d="m 75.879574,121.12556 -0.802018,3.07854 h -0.479557 l -0.790994,-2.37298 -0.785482,2.37298 h -0.476801 l -0.810287,-3.07854 h 0.540191 l 0.564996,2.38401 0.768945,-2.38401 h 0.427192 l 0.788238,2.38401 0.534679,-2.38401 z"
         id="path4732"
         inkscape:connector-curvature="0" />
      <path
         d="m 79.200646,124.2041 h -0.518143 v -1.75286 q 0,-0.21222 -0.0248,-0.39688 -0.02481,-0.18741 -0.09095,-0.29214 -0.0689,-0.11576 -0.198437,-0.17088 -0.129536,-0.0579 -0.336242,-0.0579 -0.212218,0 -0.443728,0.10473 -0.23151,0.10474 -0.443728,0.26734 v 2.29857 H 76.62647 v -3.07854 h 0.518143 v 0.34176 q 0.242534,-0.2012 0.501606,-0.3142 0.259071,-0.11299 0.531922,-0.11299 0.49885,0 0.760677,0.30041 0.261828,0.30041 0.261828,0.86541 z"
         id="path4734"
         inkscape:connector-curvature="0" />
    </g>
  </g>
</svg>
