%TF.GenerationSoftware,KiCad,Pcbnew,8.0.2*%
%TF.CreationDate,2024-06-11T14:04:34+02:00*%
%TF.ProjectId,PicoCard,5069636f-4361-4726-942e-6b696361645f,v1.0*%
%TF.SameCoordinates,Original*%
%TF.FileFunction,Soldermask,Top*%
%TF.FilePolarity,Negative*%
%FSLAX46Y46*%
G04 Gerber Fmt 4.6, Leading zero omitted, Abs format (unit mm)*
G04 Created by KiCad (PCBNEW 8.0.2) date 2024-06-11 14:04:34*
%MOMM*%
%LPD*%
G01*
G04 APERTURE LIST*
G04 Aperture macros list*
%AMRoundRect*
0 Rectangle with rounded corners*
0 $1 Rounding radius*
0 $2 $3 $4 $5 $6 $7 $8 $9 X,Y pos of 4 corners*
0 Add a 4 corners polygon primitive as box body*
4,1,4,$2,$3,$4,$5,$6,$7,$8,$9,$2,$3,0*
0 Add four circle primitives for the rounded corners*
1,1,$1+$1,$2,$3*
1,1,$1+$1,$4,$5*
1,1,$1+$1,$6,$7*
1,1,$1+$1,$8,$9*
0 Add four rect primitives between the rounded corners*
20,1,$1+$1,$2,$3,$4,$5,0*
20,1,$1+$1,$4,$5,$6,$7,0*
20,1,$1+$1,$6,$7,$8,$9,0*
20,1,$1+$1,$8,$9,$2,$3,0*%
%AMFreePoly0*
4,1,5,0.350000,-0.500000,-0.350000,-0.500000,-0.350000,0.500000,0.350000,0.500000,0.350000,-0.500000,0.350000,-0.500000,$1*%
%AMFreePoly1*
4,1,9,0.600000,-2.450000,-0.600000,-2.450000,-0.600000,-2.442127,-1.530000,-1.710000,-1.530000,1.810000,-0.600000,2.443191,-0.600000,2.450000,0.600000,2.450000,0.600000,-2.450000,0.600000,-2.450000,$1*%
G04 Aperture macros list end*
%ADD10R,1.100000X0.860000*%
%ADD11R,0.280000X0.400000*%
%ADD12RoundRect,0.087500X0.325000X0.087500X-0.325000X0.087500X-0.325000X-0.087500X0.325000X-0.087500X0*%
%ADD13RoundRect,0.087500X0.087500X0.325000X-0.087500X0.325000X-0.087500X-0.325000X0.087500X-0.325000X0*%
%ADD14R,2.600000X2.600000*%
%ADD15C,0.650000*%
%ADD16R,1.150000X0.280000*%
%ADD17R,1.150000X0.300000*%
%ADD18R,1.150000X0.290000*%
%ADD19R,1.150000X0.295000*%
%ADD20R,2.000000X2.180000*%
%ADD21R,0.250000X1.650000*%
%ADD22R,0.900000X0.280000*%
%ADD23RoundRect,0.140000X0.170000X-0.140000X0.170000X0.140000X-0.170000X0.140000X-0.170000X-0.140000X0*%
%ADD24RoundRect,0.218750X-0.256250X0.218750X-0.256250X-0.218750X0.256250X-0.218750X0.256250X0.218750X0*%
%ADD25RoundRect,0.140000X0.140000X0.170000X-0.140000X0.170000X-0.140000X-0.170000X0.140000X-0.170000X0*%
%ADD26C,2.000000*%
%ADD27RoundRect,0.045000X0.045000X-0.392500X0.045000X0.392500X-0.045000X0.392500X-0.045000X-0.392500X0*%
%ADD28RoundRect,0.045000X0.392500X-0.045000X0.392500X0.045000X-0.392500X0.045000X-0.392500X-0.045000X0*%
%ADD29R,3.200000X3.200000*%
%ADD30RoundRect,0.140000X-0.140000X-0.170000X0.140000X-0.170000X0.140000X0.170000X-0.140000X0.170000X0*%
%ADD31R,0.900000X0.800000*%
%ADD32RoundRect,0.200000X-0.275000X0.200000X-0.275000X-0.200000X0.275000X-0.200000X0.275000X0.200000X0*%
%ADD33RoundRect,0.200000X0.200000X0.275000X-0.200000X0.275000X-0.200000X-0.275000X0.200000X-0.275000X0*%
%ADD34R,0.500000X0.500000*%
%ADD35FreePoly0,0.000000*%
%ADD36RoundRect,0.250000X0.300000X0.300000X-0.300000X0.300000X-0.300000X-0.300000X0.300000X-0.300000X0*%
%ADD37FreePoly0,180.000000*%
%ADD38C,0.900000*%
%ADD39RoundRect,0.250000X-1.000000X0.375000X-1.000000X-0.375000X1.000000X-0.375000X1.000000X0.375000X0*%
%ADD40RoundRect,0.200000X-0.200000X-0.275000X0.200000X-0.275000X0.200000X0.275000X-0.200000X0.275000X0*%
%ADD41RoundRect,0.150000X-0.150000X0.512500X-0.150000X-0.512500X0.150000X-0.512500X0.150000X0.512500X0*%
%ADD42RoundRect,0.218750X0.218750X0.256250X-0.218750X0.256250X-0.218750X-0.256250X0.218750X-0.256250X0*%
%ADD43RoundRect,0.225000X0.250000X-0.225000X0.250000X0.225000X-0.250000X0.225000X-0.250000X-0.225000X0*%
%ADD44RoundRect,0.150000X0.512500X0.150000X-0.512500X0.150000X-0.512500X-0.150000X0.512500X-0.150000X0*%
%ADD45RoundRect,0.140000X-0.170000X0.140000X-0.170000X-0.140000X0.170000X-0.140000X0.170000X0.140000X0*%
%ADD46RoundRect,0.200000X0.275000X-0.200000X0.275000X0.200000X-0.275000X0.200000X-0.275000X-0.200000X0*%
%ADD47RoundRect,0.225000X-0.250000X0.225000X-0.250000X-0.225000X0.250000X-0.225000X0.250000X0.225000X0*%
%ADD48RoundRect,0.250000X-0.475000X0.250000X-0.475000X-0.250000X0.475000X-0.250000X0.475000X0.250000X0*%
%ADD49FreePoly1,0.000000*%
%ADD50FreePoly1,180.000000*%
%ADD51C,2.700000*%
%ADD52R,0.900000X1.000000*%
%ADD53R,1.700000X0.550000*%
%ADD54RoundRect,0.250000X0.475000X-0.250000X0.475000X0.250000X-0.475000X0.250000X-0.475000X-0.250000X0*%
%ADD55RoundRect,0.150000X0.150000X-0.512500X0.150000X0.512500X-0.150000X0.512500X-0.150000X-0.512500X0*%
%ADD56RoundRect,0.250000X-0.650000X0.325000X-0.650000X-0.325000X0.650000X-0.325000X0.650000X0.325000X0*%
%ADD57R,1.200000X0.650000*%
%ADD58R,1.900000X0.400000*%
G04 APERTURE END LIST*
D10*
%TO.C,U5*%
X135195310Y-98140000D03*
D11*
X135455310Y-97290000D03*
X134955310Y-97290000D03*
X134955310Y-98990000D03*
X135455310Y-98990000D03*
%TD*%
D12*
%TO.C,U7*%
X133289999Y-88826250D03*
X133289999Y-88176250D03*
X133289999Y-87526250D03*
X133289999Y-86876250D03*
D13*
X132302499Y-85888750D03*
X131652499Y-85888750D03*
X131002499Y-85888750D03*
X130352499Y-85888750D03*
D12*
X129364999Y-86876250D03*
X129364999Y-87526250D03*
X129364999Y-88176250D03*
X129364999Y-88826250D03*
D13*
X130352499Y-89813750D03*
X131002499Y-89813750D03*
X131652499Y-89813750D03*
X132302499Y-89813750D03*
D14*
X131327499Y-87851250D03*
%TD*%
D15*
%TO.C,J1*%
X106383602Y-93720000D03*
X106383602Y-99500000D03*
D16*
X107533602Y-93260000D03*
D17*
X107533602Y-94060000D03*
D16*
X107533602Y-95370000D03*
X107533602Y-96370000D03*
X107533602Y-96870000D03*
X107533602Y-97870000D03*
X107533602Y-99160000D03*
D17*
X107533602Y-99960000D03*
D18*
X107533602Y-99670000D03*
D19*
X107533602Y-98880000D03*
D16*
X107533602Y-98370000D03*
X107533602Y-97370000D03*
X107533602Y-95870000D03*
X107533602Y-94870000D03*
D17*
X107533602Y-94360000D03*
D16*
X107533602Y-93530000D03*
D20*
X106958602Y-91500000D03*
X103028602Y-91500000D03*
X106958602Y-101720000D03*
X103028602Y-101720000D03*
%TD*%
D21*
%TO.C,U3*%
X115730000Y-104130000D03*
D22*
X117130000Y-104870000D03*
X117130000Y-104370000D03*
X117130000Y-103870000D03*
X117130000Y-103370000D03*
X114330000Y-103370000D03*
X114330000Y-103870000D03*
X114330000Y-104370000D03*
X114330000Y-104870000D03*
%TD*%
D23*
%TO.C,C2*%
X123960000Y-98010000D03*
X123960000Y-97050000D03*
%TD*%
D24*
%TO.C,D21*%
X125570000Y-96852500D03*
X125570000Y-98427500D03*
%TD*%
D25*
%TO.C,C33*%
X161380000Y-125390000D03*
X160420000Y-125390000D03*
%TD*%
D26*
%TO.C,FID1*%
X136170000Y-81010000D03*
%TD*%
D27*
%TO.C,U2*%
X125284999Y-106995000D03*
X125684999Y-106995000D03*
X126084999Y-106995000D03*
X126484999Y-106995000D03*
X126884999Y-106995000D03*
X127284999Y-106995000D03*
X127684999Y-106995000D03*
X128084999Y-106995000D03*
X128484999Y-106995000D03*
X128884999Y-106995000D03*
X129284999Y-106995000D03*
X129684999Y-106995000D03*
X130084999Y-106995000D03*
X130484999Y-106995000D03*
D28*
X131312499Y-106147500D03*
X131312499Y-105747500D03*
X131312499Y-105347500D03*
X131312499Y-104947500D03*
X131312499Y-104547500D03*
X131312499Y-104147500D03*
X131312499Y-103747500D03*
X131312499Y-103347500D03*
X131312499Y-102947500D03*
X131312499Y-102547500D03*
X131312499Y-102147500D03*
X131312499Y-101747500D03*
X131312499Y-101347500D03*
X131312499Y-100947500D03*
D27*
X130484999Y-100120000D03*
X130084999Y-100120000D03*
X129684999Y-100120000D03*
X129284999Y-100120000D03*
X128884999Y-100120000D03*
X128484999Y-100120000D03*
X128084999Y-100120000D03*
X127684999Y-100120000D03*
X127284999Y-100120000D03*
X126884999Y-100120000D03*
X126484999Y-100120000D03*
X126084999Y-100120000D03*
X125684999Y-100120000D03*
X125284999Y-100120000D03*
D28*
X124437499Y-100947500D03*
X124437499Y-101347500D03*
X124437499Y-101747500D03*
X124437499Y-102147500D03*
X124437499Y-102547500D03*
X124437499Y-102947500D03*
X124437499Y-103347500D03*
X124437499Y-103747500D03*
X124437499Y-104147500D03*
X124437499Y-104547500D03*
X124437499Y-104947500D03*
X124437499Y-105347500D03*
X124437499Y-105747500D03*
X124437499Y-106147500D03*
D29*
X127874999Y-103557500D03*
%TD*%
D30*
%TO.C,C22*%
X129550000Y-69810000D03*
X130510000Y-69810000D03*
%TD*%
D31*
%TO.C,Q1*%
X111999999Y-87400000D03*
X109999999Y-86450000D03*
X111999999Y-85500000D03*
%TD*%
D32*
%TO.C,R16*%
X126740000Y-92335000D03*
X126740000Y-93985000D03*
%TD*%
D33*
%TO.C,R9*%
X120375000Y-82700000D03*
X118725000Y-82700000D03*
%TD*%
D34*
%TO.C,D3*%
X165250000Y-69750000D03*
D35*
X163320000Y-70000000D03*
D34*
X164400000Y-69750000D03*
D35*
X166330000Y-70000000D03*
%TD*%
D25*
%TO.C,C32*%
X151910000Y-125370000D03*
X150950000Y-125370000D03*
%TD*%
D36*
%TO.C,D9*%
X112000000Y-89590000D03*
X109200000Y-89590000D03*
%TD*%
D25*
%TO.C,C34*%
X170910000Y-125420000D03*
X169950000Y-125420000D03*
%TD*%
D34*
%TO.C,D19*%
X173550000Y-125490027D03*
D37*
X175480000Y-125240027D03*
D34*
X174400000Y-125490027D03*
D37*
X172470000Y-125240027D03*
%TD*%
D38*
%TO.C,SW2*%
X103800000Y-81540000D03*
X103800000Y-88340000D03*
D39*
X106550000Y-82440000D03*
X106550000Y-84940000D03*
X106550000Y-87440000D03*
%TD*%
D30*
%TO.C,C16*%
X186960000Y-69780000D03*
X187920000Y-69780000D03*
%TD*%
D40*
%TO.C,R4*%
X112305000Y-97590000D03*
X113955000Y-97590000D03*
%TD*%
D25*
%TO.C,C12*%
X121004999Y-102620000D03*
X120044999Y-102620000D03*
%TD*%
D23*
%TO.C,C26*%
X127234999Y-82530000D03*
X127234999Y-81570000D03*
%TD*%
D34*
%TO.C,D12*%
X116070000Y-125470000D03*
D37*
X118000000Y-125220000D03*
D34*
X116920000Y-125470000D03*
D37*
X114990000Y-125220000D03*
%TD*%
D41*
%TO.C,U6*%
X118572500Y-87212500D03*
X117622500Y-87212500D03*
X116672500Y-87212500D03*
X116672500Y-89487500D03*
X118572500Y-89487500D03*
%TD*%
D42*
%TO.C,D10*%
X117287500Y-84300000D03*
X115712500Y-84300000D03*
%TD*%
D34*
%TO.C,D2*%
X174840000Y-69750000D03*
D35*
X172910000Y-70000000D03*
D34*
X173990000Y-69750000D03*
D35*
X175920000Y-70000000D03*
%TD*%
D43*
%TO.C,C37*%
X115100000Y-90400000D03*
X115100000Y-88850000D03*
%TD*%
D34*
%TO.C,D5*%
X146080000Y-69750000D03*
D35*
X144150000Y-70000000D03*
D34*
X145230000Y-69750000D03*
D35*
X147160000Y-70000000D03*
%TD*%
D30*
%TO.C,C20*%
X148570000Y-69770000D03*
X149530000Y-69770000D03*
%TD*%
%TO.C,C10*%
X134294999Y-102670000D03*
X135254999Y-102670000D03*
%TD*%
D34*
%TO.C,D16*%
X144790000Y-125490027D03*
D37*
X146720000Y-125240027D03*
D34*
X145640000Y-125490027D03*
D37*
X143710000Y-125240027D03*
%TD*%
D44*
%TO.C,Q2*%
X124727499Y-88195000D03*
X124727499Y-86295000D03*
X122452499Y-87245000D03*
%TD*%
D32*
%TO.C,R8*%
X120120000Y-88075000D03*
X120120000Y-89725000D03*
%TD*%
D45*
%TO.C,C15*%
X121049999Y-92210000D03*
X121049999Y-93170000D03*
%TD*%
D46*
%TO.C,R13*%
X126509999Y-85850000D03*
X126509999Y-84200000D03*
%TD*%
D30*
%TO.C,C27*%
X134900000Y-88440000D03*
X135860000Y-88440000D03*
%TD*%
D34*
%TO.C,D4*%
X155670000Y-69750000D03*
D35*
X153740000Y-70000000D03*
D34*
X154820000Y-69750000D03*
D35*
X156750000Y-70000000D03*
%TD*%
D46*
%TO.C,R14*%
X126509999Y-88875000D03*
X126509999Y-87225000D03*
%TD*%
D23*
%TO.C,C5*%
X127559999Y-98550000D03*
X127559999Y-97590000D03*
%TD*%
D33*
%TO.C,R1*%
X110775000Y-104550000D03*
X109125000Y-104550000D03*
%TD*%
D32*
%TO.C,R12*%
X131987499Y-92357500D03*
X131987499Y-94007500D03*
%TD*%
D34*
%TO.C,D18*%
X164010000Y-125460000D03*
D37*
X165940000Y-125210000D03*
D34*
X164860000Y-125460000D03*
D37*
X162930000Y-125210000D03*
%TD*%
D33*
%TO.C,R6*%
X113955000Y-96090000D03*
X112305000Y-96090000D03*
%TD*%
D34*
%TO.C,D15*%
X135240000Y-125470000D03*
D37*
X137170000Y-125220000D03*
D34*
X136090000Y-125470000D03*
D37*
X134160000Y-125220000D03*
%TD*%
D47*
%TO.C,C36*%
X115100000Y-85800000D03*
X115100000Y-87350000D03*
%TD*%
D48*
%TO.C,C4*%
X112409999Y-91680000D03*
X112409999Y-93580000D03*
%TD*%
D23*
%TO.C,C9*%
X122974999Y-98000000D03*
X122974999Y-97040000D03*
%TD*%
D30*
%TO.C,C17*%
X177280000Y-69810000D03*
X178240000Y-69810000D03*
%TD*%
%TO.C,C21*%
X139060000Y-69770000D03*
X140020000Y-69770000D03*
%TD*%
D49*
%TO.C,L2*%
X130132499Y-82326250D03*
D50*
X132662499Y-82316250D03*
%TD*%
D51*
%TO.C,H9*%
X102889999Y-67676836D03*
%TD*%
D52*
%TO.C,SW3*%
X113130000Y-107945000D03*
X113130000Y-106345000D03*
X109030000Y-107945000D03*
X109030000Y-106345000D03*
D53*
X111080000Y-108570000D03*
%TD*%
D25*
%TO.C,C7*%
X121980000Y-98320000D03*
X121020000Y-98320000D03*
%TD*%
D34*
%TO.C,D8*%
X117330000Y-69750000D03*
D35*
X115400000Y-70000000D03*
D34*
X116480000Y-69750000D03*
D35*
X118410000Y-70000000D03*
%TD*%
D40*
%TO.C,R2*%
X122744999Y-89840000D03*
X124394999Y-89840000D03*
%TD*%
D52*
%TO.C,SW1*%
X120080000Y-107945000D03*
X120080000Y-106345000D03*
X115980000Y-107945000D03*
X115980000Y-106345000D03*
D53*
X118030000Y-108570000D03*
%TD*%
D24*
%TO.C,D13*%
X123649999Y-80582500D03*
X123649999Y-82157500D03*
%TD*%
D51*
%TO.C,H7*%
X196700000Y-67620000D03*
%TD*%
D25*
%TO.C,C11*%
X121980000Y-99300000D03*
X121020000Y-99300000D03*
%TD*%
D54*
%TO.C,C14*%
X118939999Y-94570000D03*
X118939999Y-92670000D03*
%TD*%
D30*
%TO.C,C19*%
X158140000Y-69780000D03*
X159100000Y-69780000D03*
%TD*%
D55*
%TO.C,U4*%
X122549999Y-94257500D03*
X123499999Y-94257500D03*
X124449999Y-94257500D03*
X124449999Y-91982500D03*
X122549999Y-91982500D03*
%TD*%
D34*
%TO.C,D6*%
X136500000Y-69750000D03*
D35*
X134570000Y-70000000D03*
D34*
X135650000Y-69750000D03*
D35*
X137580000Y-70000000D03*
%TD*%
D34*
%TO.C,D14*%
X125600000Y-125470000D03*
D37*
X127530000Y-125220000D03*
D34*
X126450000Y-125470000D03*
D37*
X124520000Y-125220000D03*
%TD*%
D26*
%TO.C,FID2*%
X134860000Y-108690000D03*
%TD*%
D33*
%TO.C,R7*%
X120325000Y-84300000D03*
X118675000Y-84300000D03*
%TD*%
D30*
%TO.C,C23*%
X120020000Y-69810000D03*
X120980000Y-69810000D03*
%TD*%
D46*
%TO.C,R11*%
X130487499Y-94007500D03*
X130487499Y-92357500D03*
%TD*%
D34*
%TO.C,D17*%
X154440000Y-125450000D03*
D37*
X156370000Y-125200000D03*
D34*
X155290000Y-125450000D03*
D37*
X153360000Y-125200000D03*
%TD*%
D25*
%TO.C,C31*%
X142330000Y-125410000D03*
X141370000Y-125410000D03*
%TD*%
D33*
%TO.C,R3*%
X113955000Y-100590000D03*
X112305000Y-100590000D03*
%TD*%
D34*
%TO.C,D1*%
X184430000Y-69750000D03*
D35*
X182500000Y-70000000D03*
D34*
X183580000Y-69750000D03*
D35*
X185510000Y-70000000D03*
%TD*%
D25*
%TO.C,C1*%
X121980000Y-97350000D03*
X121020000Y-97350000D03*
%TD*%
D56*
%TO.C,C28*%
X135149061Y-89852812D03*
X135149061Y-92802812D03*
%TD*%
D30*
%TO.C,C6*%
X128890000Y-108750000D03*
X129850000Y-108750000D03*
%TD*%
D26*
%TO.C,FID3*%
X103340000Y-105680000D03*
%TD*%
D23*
%TO.C,C13*%
X111950000Y-103780000D03*
X111950000Y-102820000D03*
%TD*%
D57*
%TO.C,U1*%
X114739999Y-92670000D03*
X114739999Y-93620000D03*
X114739999Y-94570000D03*
X117139999Y-94570000D03*
X117139999Y-92670000D03*
%TD*%
D25*
%TO.C,C30*%
X132900000Y-125400000D03*
X131940000Y-125400000D03*
%TD*%
D58*
%TO.C,Y1*%
X134899999Y-106720000D03*
X134899999Y-105520000D03*
X134899999Y-104320000D03*
%TD*%
D51*
%TO.C,H10*%
X102889999Y-126676836D03*
%TD*%
D43*
%TO.C,C24*%
X125434999Y-82375000D03*
X125434999Y-80825000D03*
%TD*%
D25*
%TO.C,C3*%
X124520000Y-108310000D03*
X123560000Y-108310000D03*
%TD*%
D30*
%TO.C,C18*%
X167730000Y-69780000D03*
X168690000Y-69780000D03*
%TD*%
D25*
%TO.C,C8*%
X121004999Y-101640000D03*
X120044999Y-101640000D03*
%TD*%
%TO.C,C25*%
X113740000Y-125400000D03*
X112780000Y-125400000D03*
%TD*%
D46*
%TO.C,R15*%
X110750000Y-83725000D03*
X110750000Y-82075000D03*
%TD*%
D42*
%TO.C,D11*%
X117287500Y-82700000D03*
X115712500Y-82700000D03*
%TD*%
D25*
%TO.C,C35*%
X180470000Y-125390000D03*
X179510000Y-125390000D03*
%TD*%
D40*
%TO.C,R10*%
X123034999Y-84645000D03*
X124684999Y-84645000D03*
%TD*%
D51*
%TO.C,H8*%
X196800000Y-126590000D03*
%TD*%
D40*
%TO.C,R5*%
X112305000Y-99090000D03*
X113955000Y-99090000D03*
%TD*%
D34*
%TO.C,D7*%
X126910000Y-69750000D03*
D35*
X124980000Y-70000000D03*
D34*
X126060000Y-69750000D03*
D35*
X127990000Y-70000000D03*
%TD*%
D34*
%TO.C,D20*%
X183140000Y-125460027D03*
D37*
X185070000Y-125210027D03*
D34*
X183990000Y-125460027D03*
D37*
X182060000Y-125210027D03*
%TD*%
D25*
%TO.C,C29*%
X123240000Y-125440000D03*
X122280000Y-125440000D03*
%TD*%
M02*
