%TF.GenerationSoftware,KiCad,Pcbnew,8.0.2*%
%TF.CreationDate,2024-06-11T14:04:34+02:00*%
%TF.ProjectId,PicoCard,5069636f-4361-4726-942e-6b696361645f,v1.0*%
%TF.SameCoordinates,Original*%
%TF.FileFunction,Legend,Top*%
%TF.FilePolarity,Positive*%
%FSLAX46Y46*%
G04 Gerber Fmt 4.6, Leading zero omitted, Abs format (unit mm)*
G04 Created by KiCad (PCBNEW 8.0.2) date 2024-06-11 14:04:34*
%MOMM*%
%LPD*%
G01*
G04 APERTURE LIST*
%ADD10C,0.200000*%
%ADD11C,0.100000*%
%ADD12C,0.150000*%
%ADD13C,0.050000*%
%ADD14C,0.120000*%
G04 APERTURE END LIST*
D10*
X100918304Y-80664435D02*
X100918304Y-80816816D01*
X100918304Y-80816816D02*
X100880209Y-80893006D01*
X100880209Y-80893006D02*
X100804019Y-80969197D01*
X100804019Y-80969197D02*
X100651638Y-81007292D01*
X100651638Y-81007292D02*
X100384971Y-81007292D01*
X100384971Y-81007292D02*
X100232590Y-80969197D01*
X100232590Y-80969197D02*
X100156400Y-80893006D01*
X100156400Y-80893006D02*
X100118304Y-80816816D01*
X100118304Y-80816816D02*
X100118304Y-80664435D01*
X100118304Y-80664435D02*
X100156400Y-80588244D01*
X100156400Y-80588244D02*
X100232590Y-80512054D01*
X100232590Y-80512054D02*
X100384971Y-80473958D01*
X100384971Y-80473958D02*
X100651638Y-80473958D01*
X100651638Y-80473958D02*
X100804019Y-80512054D01*
X100804019Y-80512054D02*
X100880209Y-80588244D01*
X100880209Y-80588244D02*
X100918304Y-80664435D01*
X100537352Y-81616815D02*
X100537352Y-81350149D01*
X100118304Y-81350149D02*
X100918304Y-81350149D01*
X100918304Y-81350149D02*
X100918304Y-81731101D01*
X100537352Y-82302529D02*
X100537352Y-82035863D01*
X100118304Y-82035863D02*
X100918304Y-82035863D01*
X100918304Y-82035863D02*
X100918304Y-82416815D01*
D11*
X109838646Y-109573228D02*
X109924360Y-109616085D01*
X109924360Y-109616085D02*
X109952931Y-109658942D01*
X109952931Y-109658942D02*
X109981503Y-109744657D01*
X109981503Y-109744657D02*
X109981503Y-109873228D01*
X109981503Y-109873228D02*
X109952931Y-109958942D01*
X109952931Y-109958942D02*
X109924360Y-110001800D01*
X109924360Y-110001800D02*
X109867217Y-110044657D01*
X109867217Y-110044657D02*
X109638646Y-110044657D01*
X109638646Y-110044657D02*
X109638646Y-109144657D01*
X109638646Y-109144657D02*
X109838646Y-109144657D01*
X109838646Y-109144657D02*
X109895789Y-109187514D01*
X109895789Y-109187514D02*
X109924360Y-109230371D01*
X109924360Y-109230371D02*
X109952931Y-109316085D01*
X109952931Y-109316085D02*
X109952931Y-109401800D01*
X109952931Y-109401800D02*
X109924360Y-109487514D01*
X109924360Y-109487514D02*
X109895789Y-109530371D01*
X109895789Y-109530371D02*
X109838646Y-109573228D01*
X109838646Y-109573228D02*
X109638646Y-109573228D01*
X110324360Y-110044657D02*
X110267217Y-110001800D01*
X110267217Y-110001800D02*
X110238646Y-109958942D01*
X110238646Y-109958942D02*
X110210074Y-109873228D01*
X110210074Y-109873228D02*
X110210074Y-109616085D01*
X110210074Y-109616085D02*
X110238646Y-109530371D01*
X110238646Y-109530371D02*
X110267217Y-109487514D01*
X110267217Y-109487514D02*
X110324360Y-109444657D01*
X110324360Y-109444657D02*
X110410074Y-109444657D01*
X110410074Y-109444657D02*
X110467217Y-109487514D01*
X110467217Y-109487514D02*
X110495789Y-109530371D01*
X110495789Y-109530371D02*
X110524360Y-109616085D01*
X110524360Y-109616085D02*
X110524360Y-109873228D01*
X110524360Y-109873228D02*
X110495789Y-109958942D01*
X110495789Y-109958942D02*
X110467217Y-110001800D01*
X110467217Y-110001800D02*
X110410074Y-110044657D01*
X110410074Y-110044657D02*
X110324360Y-110044657D01*
X110867217Y-110044657D02*
X110810074Y-110001800D01*
X110810074Y-110001800D02*
X110781503Y-109958942D01*
X110781503Y-109958942D02*
X110752931Y-109873228D01*
X110752931Y-109873228D02*
X110752931Y-109616085D01*
X110752931Y-109616085D02*
X110781503Y-109530371D01*
X110781503Y-109530371D02*
X110810074Y-109487514D01*
X110810074Y-109487514D02*
X110867217Y-109444657D01*
X110867217Y-109444657D02*
X110952931Y-109444657D01*
X110952931Y-109444657D02*
X111010074Y-109487514D01*
X111010074Y-109487514D02*
X111038646Y-109530371D01*
X111038646Y-109530371D02*
X111067217Y-109616085D01*
X111067217Y-109616085D02*
X111067217Y-109873228D01*
X111067217Y-109873228D02*
X111038646Y-109958942D01*
X111038646Y-109958942D02*
X111010074Y-110001800D01*
X111010074Y-110001800D02*
X110952931Y-110044657D01*
X110952931Y-110044657D02*
X110867217Y-110044657D01*
X111238645Y-109444657D02*
X111467217Y-109444657D01*
X111324360Y-109144657D02*
X111324360Y-109916085D01*
X111324360Y-109916085D02*
X111352931Y-110001800D01*
X111352931Y-110001800D02*
X111410074Y-110044657D01*
X111410074Y-110044657D02*
X111467217Y-110044657D01*
X111638645Y-110001800D02*
X111724360Y-110044657D01*
X111724360Y-110044657D02*
X111867217Y-110044657D01*
X111867217Y-110044657D02*
X111924360Y-110001800D01*
X111924360Y-110001800D02*
X111952931Y-109958942D01*
X111952931Y-109958942D02*
X111981502Y-109873228D01*
X111981502Y-109873228D02*
X111981502Y-109787514D01*
X111981502Y-109787514D02*
X111952931Y-109701800D01*
X111952931Y-109701800D02*
X111924360Y-109658942D01*
X111924360Y-109658942D02*
X111867217Y-109616085D01*
X111867217Y-109616085D02*
X111752931Y-109573228D01*
X111752931Y-109573228D02*
X111695788Y-109530371D01*
X111695788Y-109530371D02*
X111667217Y-109487514D01*
X111667217Y-109487514D02*
X111638645Y-109401800D01*
X111638645Y-109401800D02*
X111638645Y-109316085D01*
X111638645Y-109316085D02*
X111667217Y-109230371D01*
X111667217Y-109230371D02*
X111695788Y-109187514D01*
X111695788Y-109187514D02*
X111752931Y-109144657D01*
X111752931Y-109144657D02*
X111895788Y-109144657D01*
X111895788Y-109144657D02*
X111981502Y-109187514D01*
X112467217Y-110001800D02*
X112410074Y-110044657D01*
X112410074Y-110044657D02*
X112295789Y-110044657D01*
X112295789Y-110044657D02*
X112238646Y-110001800D01*
X112238646Y-110001800D02*
X112210074Y-109916085D01*
X112210074Y-109916085D02*
X112210074Y-109573228D01*
X112210074Y-109573228D02*
X112238646Y-109487514D01*
X112238646Y-109487514D02*
X112295789Y-109444657D01*
X112295789Y-109444657D02*
X112410074Y-109444657D01*
X112410074Y-109444657D02*
X112467217Y-109487514D01*
X112467217Y-109487514D02*
X112495789Y-109573228D01*
X112495789Y-109573228D02*
X112495789Y-109658942D01*
X112495789Y-109658942D02*
X112210074Y-109744657D01*
X112838646Y-110044657D02*
X112781503Y-110001800D01*
X112781503Y-110001800D02*
X112752932Y-109916085D01*
X112752932Y-109916085D02*
X112752932Y-109144657D01*
D10*
X100948304Y-87864435D02*
X100948304Y-88016816D01*
X100948304Y-88016816D02*
X100910209Y-88093006D01*
X100910209Y-88093006D02*
X100834019Y-88169197D01*
X100834019Y-88169197D02*
X100681638Y-88207292D01*
X100681638Y-88207292D02*
X100414971Y-88207292D01*
X100414971Y-88207292D02*
X100262590Y-88169197D01*
X100262590Y-88169197D02*
X100186400Y-88093006D01*
X100186400Y-88093006D02*
X100148304Y-88016816D01*
X100148304Y-88016816D02*
X100148304Y-87864435D01*
X100148304Y-87864435D02*
X100186400Y-87788244D01*
X100186400Y-87788244D02*
X100262590Y-87712054D01*
X100262590Y-87712054D02*
X100414971Y-87673958D01*
X100414971Y-87673958D02*
X100681638Y-87673958D01*
X100681638Y-87673958D02*
X100834019Y-87712054D01*
X100834019Y-87712054D02*
X100910209Y-87788244D01*
X100910209Y-87788244D02*
X100948304Y-87864435D01*
X100148304Y-88550149D02*
X100948304Y-88550149D01*
X100948304Y-88550149D02*
X100148304Y-89007292D01*
X100148304Y-89007292D02*
X100948304Y-89007292D01*
D11*
X122734656Y-82625639D02*
X122734656Y-82911353D01*
X122734656Y-82911353D02*
X121834656Y-82911353D01*
X122734656Y-82339925D02*
X122691799Y-82397068D01*
X122691799Y-82397068D02*
X122648941Y-82425639D01*
X122648941Y-82425639D02*
X122563227Y-82454211D01*
X122563227Y-82454211D02*
X122306084Y-82454211D01*
X122306084Y-82454211D02*
X122220370Y-82425639D01*
X122220370Y-82425639D02*
X122177513Y-82397068D01*
X122177513Y-82397068D02*
X122134656Y-82339925D01*
X122134656Y-82339925D02*
X122134656Y-82254211D01*
X122134656Y-82254211D02*
X122177513Y-82197068D01*
X122177513Y-82197068D02*
X122220370Y-82168497D01*
X122220370Y-82168497D02*
X122306084Y-82139925D01*
X122306084Y-82139925D02*
X122563227Y-82139925D01*
X122563227Y-82139925D02*
X122648941Y-82168497D01*
X122648941Y-82168497D02*
X122691799Y-82197068D01*
X122691799Y-82197068D02*
X122734656Y-82254211D01*
X122734656Y-82254211D02*
X122734656Y-82339925D01*
X122134656Y-81939925D02*
X122734656Y-81825640D01*
X122734656Y-81825640D02*
X122306084Y-81711354D01*
X122306084Y-81711354D02*
X122734656Y-81597068D01*
X122734656Y-81597068D02*
X122134656Y-81482782D01*
X122263227Y-81054211D02*
X122306084Y-80968497D01*
X122306084Y-80968497D02*
X122348941Y-80939926D01*
X122348941Y-80939926D02*
X122434656Y-80911354D01*
X122434656Y-80911354D02*
X122563227Y-80911354D01*
X122563227Y-80911354D02*
X122648941Y-80939926D01*
X122648941Y-80939926D02*
X122691799Y-80968497D01*
X122691799Y-80968497D02*
X122734656Y-81025640D01*
X122734656Y-81025640D02*
X122734656Y-81254211D01*
X122734656Y-81254211D02*
X121834656Y-81254211D01*
X121834656Y-81254211D02*
X121834656Y-81054211D01*
X121834656Y-81054211D02*
X121877513Y-80997069D01*
X121877513Y-80997069D02*
X121920370Y-80968497D01*
X121920370Y-80968497D02*
X122006084Y-80939926D01*
X122006084Y-80939926D02*
X122091799Y-80939926D01*
X122091799Y-80939926D02*
X122177513Y-80968497D01*
X122177513Y-80968497D02*
X122220370Y-80997069D01*
X122220370Y-80997069D02*
X122263227Y-81054211D01*
X122263227Y-81054211D02*
X122263227Y-81254211D01*
X122734656Y-80397069D02*
X122263227Y-80397069D01*
X122263227Y-80397069D02*
X122177513Y-80425640D01*
X122177513Y-80425640D02*
X122134656Y-80482783D01*
X122134656Y-80482783D02*
X122134656Y-80597069D01*
X122134656Y-80597069D02*
X122177513Y-80654211D01*
X122691799Y-80397069D02*
X122734656Y-80454211D01*
X122734656Y-80454211D02*
X122734656Y-80597069D01*
X122734656Y-80597069D02*
X122691799Y-80654211D01*
X122691799Y-80654211D02*
X122606084Y-80682783D01*
X122606084Y-80682783D02*
X122520370Y-80682783D01*
X122520370Y-80682783D02*
X122434656Y-80654211D01*
X122434656Y-80654211D02*
X122391799Y-80597069D01*
X122391799Y-80597069D02*
X122391799Y-80454211D01*
X122391799Y-80454211D02*
X122348941Y-80397069D01*
X122134656Y-80197069D02*
X122134656Y-79968497D01*
X121834656Y-80111354D02*
X122606084Y-80111354D01*
X122606084Y-80111354D02*
X122691799Y-80082783D01*
X122691799Y-80082783D02*
X122734656Y-80025640D01*
X122734656Y-80025640D02*
X122734656Y-79968497D01*
X117168646Y-109144657D02*
X117168646Y-109873228D01*
X117168646Y-109873228D02*
X117197217Y-109958942D01*
X117197217Y-109958942D02*
X117225789Y-110001800D01*
X117225789Y-110001800D02*
X117282931Y-110044657D01*
X117282931Y-110044657D02*
X117397217Y-110044657D01*
X117397217Y-110044657D02*
X117454360Y-110001800D01*
X117454360Y-110001800D02*
X117482931Y-109958942D01*
X117482931Y-109958942D02*
X117511503Y-109873228D01*
X117511503Y-109873228D02*
X117511503Y-109144657D01*
X117768645Y-110001800D02*
X117825788Y-110044657D01*
X117825788Y-110044657D02*
X117940074Y-110044657D01*
X117940074Y-110044657D02*
X117997217Y-110001800D01*
X117997217Y-110001800D02*
X118025788Y-109916085D01*
X118025788Y-109916085D02*
X118025788Y-109873228D01*
X118025788Y-109873228D02*
X117997217Y-109787514D01*
X117997217Y-109787514D02*
X117940074Y-109744657D01*
X117940074Y-109744657D02*
X117854360Y-109744657D01*
X117854360Y-109744657D02*
X117797217Y-109701800D01*
X117797217Y-109701800D02*
X117768645Y-109616085D01*
X117768645Y-109616085D02*
X117768645Y-109573228D01*
X117768645Y-109573228D02*
X117797217Y-109487514D01*
X117797217Y-109487514D02*
X117854360Y-109444657D01*
X117854360Y-109444657D02*
X117940074Y-109444657D01*
X117940074Y-109444657D02*
X117997217Y-109487514D01*
X118511502Y-110001800D02*
X118454359Y-110044657D01*
X118454359Y-110044657D02*
X118340074Y-110044657D01*
X118340074Y-110044657D02*
X118282931Y-110001800D01*
X118282931Y-110001800D02*
X118254359Y-109916085D01*
X118254359Y-109916085D02*
X118254359Y-109573228D01*
X118254359Y-109573228D02*
X118282931Y-109487514D01*
X118282931Y-109487514D02*
X118340074Y-109444657D01*
X118340074Y-109444657D02*
X118454359Y-109444657D01*
X118454359Y-109444657D02*
X118511502Y-109487514D01*
X118511502Y-109487514D02*
X118540074Y-109573228D01*
X118540074Y-109573228D02*
X118540074Y-109658942D01*
X118540074Y-109658942D02*
X118254359Y-109744657D01*
X118797217Y-110044657D02*
X118797217Y-109444657D01*
X118797217Y-109616085D02*
X118825788Y-109530371D01*
X118825788Y-109530371D02*
X118854360Y-109487514D01*
X118854360Y-109487514D02*
X118911502Y-109444657D01*
X118911502Y-109444657D02*
X118968645Y-109444657D01*
X113451503Y-82748942D02*
X113422931Y-82791800D01*
X113422931Y-82791800D02*
X113337217Y-82834657D01*
X113337217Y-82834657D02*
X113280074Y-82834657D01*
X113280074Y-82834657D02*
X113194360Y-82791800D01*
X113194360Y-82791800D02*
X113137217Y-82706085D01*
X113137217Y-82706085D02*
X113108646Y-82620371D01*
X113108646Y-82620371D02*
X113080074Y-82448942D01*
X113080074Y-82448942D02*
X113080074Y-82320371D01*
X113080074Y-82320371D02*
X113108646Y-82148942D01*
X113108646Y-82148942D02*
X113137217Y-82063228D01*
X113137217Y-82063228D02*
X113194360Y-81977514D01*
X113194360Y-81977514D02*
X113280074Y-81934657D01*
X113280074Y-81934657D02*
X113337217Y-81934657D01*
X113337217Y-81934657D02*
X113422931Y-81977514D01*
X113422931Y-81977514D02*
X113451503Y-82020371D01*
X113708646Y-82834657D02*
X113708646Y-81934657D01*
X113965789Y-82834657D02*
X113965789Y-82363228D01*
X113965789Y-82363228D02*
X113937217Y-82277514D01*
X113937217Y-82277514D02*
X113880074Y-82234657D01*
X113880074Y-82234657D02*
X113794360Y-82234657D01*
X113794360Y-82234657D02*
X113737217Y-82277514D01*
X113737217Y-82277514D02*
X113708646Y-82320371D01*
X114251503Y-82834657D02*
X114251503Y-82234657D01*
X114251503Y-82406085D02*
X114280074Y-82320371D01*
X114280074Y-82320371D02*
X114308646Y-82277514D01*
X114308646Y-82277514D02*
X114365788Y-82234657D01*
X114365788Y-82234657D02*
X114422931Y-82234657D01*
X114880075Y-82234657D02*
X114880075Y-82963228D01*
X114880075Y-82963228D02*
X114851503Y-83048942D01*
X114851503Y-83048942D02*
X114822932Y-83091800D01*
X114822932Y-83091800D02*
X114765789Y-83134657D01*
X114765789Y-83134657D02*
X114680075Y-83134657D01*
X114680075Y-83134657D02*
X114622932Y-83091800D01*
X114880075Y-82791800D02*
X114822932Y-82834657D01*
X114822932Y-82834657D02*
X114708646Y-82834657D01*
X114708646Y-82834657D02*
X114651503Y-82791800D01*
X114651503Y-82791800D02*
X114622932Y-82748942D01*
X114622932Y-82748942D02*
X114594360Y-82663228D01*
X114594360Y-82663228D02*
X114594360Y-82406085D01*
X114594360Y-82406085D02*
X114622932Y-82320371D01*
X114622932Y-82320371D02*
X114651503Y-82277514D01*
X114651503Y-82277514D02*
X114708646Y-82234657D01*
X114708646Y-82234657D02*
X114822932Y-82234657D01*
X114822932Y-82234657D02*
X114880075Y-82277514D01*
X113558646Y-84313228D02*
X113358646Y-84313228D01*
X113358646Y-84784657D02*
X113358646Y-83884657D01*
X113358646Y-83884657D02*
X113644360Y-83884657D01*
X114130075Y-84184657D02*
X114130075Y-84784657D01*
X113872932Y-84184657D02*
X113872932Y-84656085D01*
X113872932Y-84656085D02*
X113901503Y-84741800D01*
X113901503Y-84741800D02*
X113958646Y-84784657D01*
X113958646Y-84784657D02*
X114044360Y-84784657D01*
X114044360Y-84784657D02*
X114101503Y-84741800D01*
X114101503Y-84741800D02*
X114130075Y-84698942D01*
X114501503Y-84784657D02*
X114444360Y-84741800D01*
X114444360Y-84741800D02*
X114415789Y-84656085D01*
X114415789Y-84656085D02*
X114415789Y-83884657D01*
X114815789Y-84784657D02*
X114758646Y-84741800D01*
X114758646Y-84741800D02*
X114730075Y-84656085D01*
X114730075Y-84656085D02*
X114730075Y-83884657D01*
X131992857Y-90321157D02*
X131992857Y-91049728D01*
X131992857Y-91049728D02*
X132021428Y-91135442D01*
X132021428Y-91135442D02*
X132050000Y-91178300D01*
X132050000Y-91178300D02*
X132107142Y-91221157D01*
X132107142Y-91221157D02*
X132221428Y-91221157D01*
X132221428Y-91221157D02*
X132278571Y-91178300D01*
X132278571Y-91178300D02*
X132307142Y-91135442D01*
X132307142Y-91135442D02*
X132335714Y-91049728D01*
X132335714Y-91049728D02*
X132335714Y-90321157D01*
X132564285Y-90321157D02*
X132964285Y-90321157D01*
X132964285Y-90321157D02*
X132707142Y-91221157D01*
X102400268Y-95914895D02*
X102400268Y-96486323D01*
X102400268Y-96486323D02*
X102381221Y-96600609D01*
X102381221Y-96600609D02*
X102343125Y-96676800D01*
X102343125Y-96676800D02*
X102285983Y-96714895D01*
X102285983Y-96714895D02*
X102247887Y-96714895D01*
X102800268Y-96714895D02*
X102571697Y-96714895D01*
X102685983Y-96714895D02*
X102685983Y-95914895D01*
X102685983Y-95914895D02*
X102647887Y-96029180D01*
X102647887Y-96029180D02*
X102609792Y-96105371D01*
X102609792Y-96105371D02*
X102571697Y-96143466D01*
X115232857Y-101801157D02*
X115232857Y-102529728D01*
X115232857Y-102529728D02*
X115261428Y-102615442D01*
X115261428Y-102615442D02*
X115290000Y-102658300D01*
X115290000Y-102658300D02*
X115347142Y-102701157D01*
X115347142Y-102701157D02*
X115461428Y-102701157D01*
X115461428Y-102701157D02*
X115518571Y-102658300D01*
X115518571Y-102658300D02*
X115547142Y-102615442D01*
X115547142Y-102615442D02*
X115575714Y-102529728D01*
X115575714Y-102529728D02*
X115575714Y-101801157D01*
X115804285Y-101801157D02*
X116175713Y-101801157D01*
X116175713Y-101801157D02*
X115975713Y-102144014D01*
X115975713Y-102144014D02*
X116061428Y-102144014D01*
X116061428Y-102144014D02*
X116118571Y-102186871D01*
X116118571Y-102186871D02*
X116147142Y-102229728D01*
X116147142Y-102229728D02*
X116175713Y-102315442D01*
X116175713Y-102315442D02*
X116175713Y-102529728D01*
X116175713Y-102529728D02*
X116147142Y-102615442D01*
X116147142Y-102615442D02*
X116118571Y-102658300D01*
X116118571Y-102658300D02*
X116061428Y-102701157D01*
X116061428Y-102701157D02*
X115889999Y-102701157D01*
X115889999Y-102701157D02*
X115832856Y-102658300D01*
X115832856Y-102658300D02*
X115804285Y-102615442D01*
X123870000Y-96455442D02*
X123841428Y-96498300D01*
X123841428Y-96498300D02*
X123755714Y-96541157D01*
X123755714Y-96541157D02*
X123698571Y-96541157D01*
X123698571Y-96541157D02*
X123612857Y-96498300D01*
X123612857Y-96498300D02*
X123555714Y-96412585D01*
X123555714Y-96412585D02*
X123527143Y-96326871D01*
X123527143Y-96326871D02*
X123498571Y-96155442D01*
X123498571Y-96155442D02*
X123498571Y-96026871D01*
X123498571Y-96026871D02*
X123527143Y-95855442D01*
X123527143Y-95855442D02*
X123555714Y-95769728D01*
X123555714Y-95769728D02*
X123612857Y-95684014D01*
X123612857Y-95684014D02*
X123698571Y-95641157D01*
X123698571Y-95641157D02*
X123755714Y-95641157D01*
X123755714Y-95641157D02*
X123841428Y-95684014D01*
X123841428Y-95684014D02*
X123870000Y-95726871D01*
X124098571Y-95726871D02*
X124127143Y-95684014D01*
X124127143Y-95684014D02*
X124184286Y-95641157D01*
X124184286Y-95641157D02*
X124327143Y-95641157D01*
X124327143Y-95641157D02*
X124384286Y-95684014D01*
X124384286Y-95684014D02*
X124412857Y-95726871D01*
X124412857Y-95726871D02*
X124441428Y-95812585D01*
X124441428Y-95812585D02*
X124441428Y-95898300D01*
X124441428Y-95898300D02*
X124412857Y-96026871D01*
X124412857Y-96026871D02*
X124070000Y-96541157D01*
X124070000Y-96541157D02*
X124441428Y-96541157D01*
X124861428Y-96021157D02*
X124861428Y-95121157D01*
X124861428Y-95121157D02*
X125004285Y-95121157D01*
X125004285Y-95121157D02*
X125089999Y-95164014D01*
X125089999Y-95164014D02*
X125147142Y-95249728D01*
X125147142Y-95249728D02*
X125175713Y-95335442D01*
X125175713Y-95335442D02*
X125204285Y-95506871D01*
X125204285Y-95506871D02*
X125204285Y-95635442D01*
X125204285Y-95635442D02*
X125175713Y-95806871D01*
X125175713Y-95806871D02*
X125147142Y-95892585D01*
X125147142Y-95892585D02*
X125089999Y-95978300D01*
X125089999Y-95978300D02*
X125004285Y-96021157D01*
X125004285Y-96021157D02*
X124861428Y-96021157D01*
X125432856Y-95206871D02*
X125461428Y-95164014D01*
X125461428Y-95164014D02*
X125518571Y-95121157D01*
X125518571Y-95121157D02*
X125661428Y-95121157D01*
X125661428Y-95121157D02*
X125718571Y-95164014D01*
X125718571Y-95164014D02*
X125747142Y-95206871D01*
X125747142Y-95206871D02*
X125775713Y-95292585D01*
X125775713Y-95292585D02*
X125775713Y-95378300D01*
X125775713Y-95378300D02*
X125747142Y-95506871D01*
X125747142Y-95506871D02*
X125404285Y-96021157D01*
X125404285Y-96021157D02*
X125775713Y-96021157D01*
X126347142Y-96021157D02*
X126004285Y-96021157D01*
X126175714Y-96021157D02*
X126175714Y-95121157D01*
X126175714Y-95121157D02*
X126118571Y-95249728D01*
X126118571Y-95249728D02*
X126061428Y-95335442D01*
X126061428Y-95335442D02*
X126004285Y-95378300D01*
D12*
X126713094Y-107812319D02*
X126713094Y-108621842D01*
X126713094Y-108621842D02*
X126760713Y-108717080D01*
X126760713Y-108717080D02*
X126808332Y-108764700D01*
X126808332Y-108764700D02*
X126903570Y-108812319D01*
X126903570Y-108812319D02*
X127094046Y-108812319D01*
X127094046Y-108812319D02*
X127189284Y-108764700D01*
X127189284Y-108764700D02*
X127236903Y-108717080D01*
X127236903Y-108717080D02*
X127284522Y-108621842D01*
X127284522Y-108621842D02*
X127284522Y-107812319D01*
X127713094Y-107907557D02*
X127760713Y-107859938D01*
X127760713Y-107859938D02*
X127855951Y-107812319D01*
X127855951Y-107812319D02*
X128094046Y-107812319D01*
X128094046Y-107812319D02*
X128189284Y-107859938D01*
X128189284Y-107859938D02*
X128236903Y-107907557D01*
X128236903Y-107907557D02*
X128284522Y-108002795D01*
X128284522Y-108002795D02*
X128284522Y-108098033D01*
X128284522Y-108098033D02*
X128236903Y-108240890D01*
X128236903Y-108240890D02*
X127665475Y-108812319D01*
X127665475Y-108812319D02*
X128284522Y-108812319D01*
D11*
X109482857Y-85676871D02*
X109425714Y-85634014D01*
X109425714Y-85634014D02*
X109368571Y-85548300D01*
X109368571Y-85548300D02*
X109282857Y-85419728D01*
X109282857Y-85419728D02*
X109225714Y-85376871D01*
X109225714Y-85376871D02*
X109168571Y-85376871D01*
X109197142Y-85591157D02*
X109140000Y-85548300D01*
X109140000Y-85548300D02*
X109082857Y-85462585D01*
X109082857Y-85462585D02*
X109054285Y-85291157D01*
X109054285Y-85291157D02*
X109054285Y-84991157D01*
X109054285Y-84991157D02*
X109082857Y-84819728D01*
X109082857Y-84819728D02*
X109140000Y-84734014D01*
X109140000Y-84734014D02*
X109197142Y-84691157D01*
X109197142Y-84691157D02*
X109311428Y-84691157D01*
X109311428Y-84691157D02*
X109368571Y-84734014D01*
X109368571Y-84734014D02*
X109425714Y-84819728D01*
X109425714Y-84819728D02*
X109454285Y-84991157D01*
X109454285Y-84991157D02*
X109454285Y-85291157D01*
X109454285Y-85291157D02*
X109425714Y-85462585D01*
X109425714Y-85462585D02*
X109368571Y-85548300D01*
X109368571Y-85548300D02*
X109311428Y-85591157D01*
X109311428Y-85591157D02*
X109197142Y-85591157D01*
X110025713Y-85591157D02*
X109682856Y-85591157D01*
X109854285Y-85591157D02*
X109854285Y-84691157D01*
X109854285Y-84691157D02*
X109797142Y-84819728D01*
X109797142Y-84819728D02*
X109739999Y-84905442D01*
X109739999Y-84905442D02*
X109682856Y-84948300D01*
X126864285Y-95661157D02*
X126664285Y-95232585D01*
X126521428Y-95661157D02*
X126521428Y-94761157D01*
X126521428Y-94761157D02*
X126749999Y-94761157D01*
X126749999Y-94761157D02*
X126807142Y-94804014D01*
X126807142Y-94804014D02*
X126835713Y-94846871D01*
X126835713Y-94846871D02*
X126864285Y-94932585D01*
X126864285Y-94932585D02*
X126864285Y-95061157D01*
X126864285Y-95061157D02*
X126835713Y-95146871D01*
X126835713Y-95146871D02*
X126807142Y-95189728D01*
X126807142Y-95189728D02*
X126749999Y-95232585D01*
X126749999Y-95232585D02*
X126521428Y-95232585D01*
X127435713Y-95661157D02*
X127092856Y-95661157D01*
X127264285Y-95661157D02*
X127264285Y-94761157D01*
X127264285Y-94761157D02*
X127207142Y-94889728D01*
X127207142Y-94889728D02*
X127149999Y-94975442D01*
X127149999Y-94975442D02*
X127092856Y-95018300D01*
X127950000Y-94761157D02*
X127835714Y-94761157D01*
X127835714Y-94761157D02*
X127778571Y-94804014D01*
X127778571Y-94804014D02*
X127750000Y-94846871D01*
X127750000Y-94846871D02*
X127692857Y-94975442D01*
X127692857Y-94975442D02*
X127664285Y-95146871D01*
X127664285Y-95146871D02*
X127664285Y-95489728D01*
X127664285Y-95489728D02*
X127692857Y-95575442D01*
X127692857Y-95575442D02*
X127721428Y-95618300D01*
X127721428Y-95618300D02*
X127778571Y-95661157D01*
X127778571Y-95661157D02*
X127892857Y-95661157D01*
X127892857Y-95661157D02*
X127950000Y-95618300D01*
X127950000Y-95618300D02*
X127978571Y-95575442D01*
X127978571Y-95575442D02*
X128007142Y-95489728D01*
X128007142Y-95489728D02*
X128007142Y-95275442D01*
X128007142Y-95275442D02*
X127978571Y-95189728D01*
X127978571Y-95189728D02*
X127950000Y-95146871D01*
X127950000Y-95146871D02*
X127892857Y-95104014D01*
X127892857Y-95104014D02*
X127778571Y-95104014D01*
X127778571Y-95104014D02*
X127721428Y-95146871D01*
X127721428Y-95146871D02*
X127692857Y-95189728D01*
X127692857Y-95189728D02*
X127664285Y-95275442D01*
X119450000Y-81861157D02*
X119250000Y-81432585D01*
X119107143Y-81861157D02*
X119107143Y-80961157D01*
X119107143Y-80961157D02*
X119335714Y-80961157D01*
X119335714Y-80961157D02*
X119392857Y-81004014D01*
X119392857Y-81004014D02*
X119421428Y-81046871D01*
X119421428Y-81046871D02*
X119450000Y-81132585D01*
X119450000Y-81132585D02*
X119450000Y-81261157D01*
X119450000Y-81261157D02*
X119421428Y-81346871D01*
X119421428Y-81346871D02*
X119392857Y-81389728D01*
X119392857Y-81389728D02*
X119335714Y-81432585D01*
X119335714Y-81432585D02*
X119107143Y-81432585D01*
X119735714Y-81861157D02*
X119850000Y-81861157D01*
X119850000Y-81861157D02*
X119907143Y-81818300D01*
X119907143Y-81818300D02*
X119935714Y-81775442D01*
X119935714Y-81775442D02*
X119992857Y-81646871D01*
X119992857Y-81646871D02*
X120021428Y-81475442D01*
X120021428Y-81475442D02*
X120021428Y-81132585D01*
X120021428Y-81132585D02*
X119992857Y-81046871D01*
X119992857Y-81046871D02*
X119964286Y-81004014D01*
X119964286Y-81004014D02*
X119907143Y-80961157D01*
X119907143Y-80961157D02*
X119792857Y-80961157D01*
X119792857Y-80961157D02*
X119735714Y-81004014D01*
X119735714Y-81004014D02*
X119707143Y-81046871D01*
X119707143Y-81046871D02*
X119678571Y-81132585D01*
X119678571Y-81132585D02*
X119678571Y-81346871D01*
X119678571Y-81346871D02*
X119707143Y-81432585D01*
X119707143Y-81432585D02*
X119735714Y-81475442D01*
X119735714Y-81475442D02*
X119792857Y-81518300D01*
X119792857Y-81518300D02*
X119907143Y-81518300D01*
X119907143Y-81518300D02*
X119964286Y-81475442D01*
X119964286Y-81475442D02*
X119992857Y-81432585D01*
X119992857Y-81432585D02*
X120021428Y-81346871D01*
X107329644Y-89911157D02*
X107329644Y-89011157D01*
X107329644Y-89011157D02*
X107472501Y-89011157D01*
X107472501Y-89011157D02*
X107558215Y-89054014D01*
X107558215Y-89054014D02*
X107615358Y-89139728D01*
X107615358Y-89139728D02*
X107643929Y-89225442D01*
X107643929Y-89225442D02*
X107672501Y-89396871D01*
X107672501Y-89396871D02*
X107672501Y-89525442D01*
X107672501Y-89525442D02*
X107643929Y-89696871D01*
X107643929Y-89696871D02*
X107615358Y-89782585D01*
X107615358Y-89782585D02*
X107558215Y-89868300D01*
X107558215Y-89868300D02*
X107472501Y-89911157D01*
X107472501Y-89911157D02*
X107329644Y-89911157D01*
X107958215Y-89911157D02*
X108072501Y-89911157D01*
X108072501Y-89911157D02*
X108129644Y-89868300D01*
X108129644Y-89868300D02*
X108158215Y-89825442D01*
X108158215Y-89825442D02*
X108215358Y-89696871D01*
X108215358Y-89696871D02*
X108243929Y-89525442D01*
X108243929Y-89525442D02*
X108243929Y-89182585D01*
X108243929Y-89182585D02*
X108215358Y-89096871D01*
X108215358Y-89096871D02*
X108186787Y-89054014D01*
X108186787Y-89054014D02*
X108129644Y-89011157D01*
X108129644Y-89011157D02*
X108015358Y-89011157D01*
X108015358Y-89011157D02*
X107958215Y-89054014D01*
X107958215Y-89054014D02*
X107929644Y-89096871D01*
X107929644Y-89096871D02*
X107901072Y-89182585D01*
X107901072Y-89182585D02*
X107901072Y-89396871D01*
X107901072Y-89396871D02*
X107929644Y-89482585D01*
X107929644Y-89482585D02*
X107958215Y-89525442D01*
X107958215Y-89525442D02*
X108015358Y-89568300D01*
X108015358Y-89568300D02*
X108129644Y-89568300D01*
X108129644Y-89568300D02*
X108186787Y-89525442D01*
X108186787Y-89525442D02*
X108215358Y-89482585D01*
X108215358Y-89482585D02*
X108243929Y-89396871D01*
D12*
X103657200Y-86323332D02*
X103704819Y-86180475D01*
X103704819Y-86180475D02*
X103704819Y-85942380D01*
X103704819Y-85942380D02*
X103657200Y-85847142D01*
X103657200Y-85847142D02*
X103609580Y-85799523D01*
X103609580Y-85799523D02*
X103514342Y-85751904D01*
X103514342Y-85751904D02*
X103419104Y-85751904D01*
X103419104Y-85751904D02*
X103323866Y-85799523D01*
X103323866Y-85799523D02*
X103276247Y-85847142D01*
X103276247Y-85847142D02*
X103228628Y-85942380D01*
X103228628Y-85942380D02*
X103181009Y-86132856D01*
X103181009Y-86132856D02*
X103133390Y-86228094D01*
X103133390Y-86228094D02*
X103085771Y-86275713D01*
X103085771Y-86275713D02*
X102990533Y-86323332D01*
X102990533Y-86323332D02*
X102895295Y-86323332D01*
X102895295Y-86323332D02*
X102800057Y-86275713D01*
X102800057Y-86275713D02*
X102752438Y-86228094D01*
X102752438Y-86228094D02*
X102704819Y-86132856D01*
X102704819Y-86132856D02*
X102704819Y-85894761D01*
X102704819Y-85894761D02*
X102752438Y-85751904D01*
X102704819Y-85418570D02*
X103704819Y-85180475D01*
X103704819Y-85180475D02*
X102990533Y-84989999D01*
X102990533Y-84989999D02*
X103704819Y-84799523D01*
X103704819Y-84799523D02*
X102704819Y-84561428D01*
X102800057Y-84228094D02*
X102752438Y-84180475D01*
X102752438Y-84180475D02*
X102704819Y-84085237D01*
X102704819Y-84085237D02*
X102704819Y-83847142D01*
X102704819Y-83847142D02*
X102752438Y-83751904D01*
X102752438Y-83751904D02*
X102800057Y-83704285D01*
X102800057Y-83704285D02*
X102895295Y-83656666D01*
X102895295Y-83656666D02*
X102990533Y-83656666D01*
X102990533Y-83656666D02*
X103133390Y-83704285D01*
X103133390Y-83704285D02*
X103704819Y-84275713D01*
X103704819Y-84275713D02*
X103704819Y-83656666D01*
D11*
X115130000Y-98051157D02*
X114930000Y-97622585D01*
X114787143Y-98051157D02*
X114787143Y-97151157D01*
X114787143Y-97151157D02*
X115015714Y-97151157D01*
X115015714Y-97151157D02*
X115072857Y-97194014D01*
X115072857Y-97194014D02*
X115101428Y-97236871D01*
X115101428Y-97236871D02*
X115130000Y-97322585D01*
X115130000Y-97322585D02*
X115130000Y-97451157D01*
X115130000Y-97451157D02*
X115101428Y-97536871D01*
X115101428Y-97536871D02*
X115072857Y-97579728D01*
X115072857Y-97579728D02*
X115015714Y-97622585D01*
X115015714Y-97622585D02*
X114787143Y-97622585D01*
X115644286Y-97451157D02*
X115644286Y-98051157D01*
X115501428Y-97108300D02*
X115358571Y-97751157D01*
X115358571Y-97751157D02*
X115730000Y-97751157D01*
X118364284Y-102995442D02*
X118335712Y-103038300D01*
X118335712Y-103038300D02*
X118249998Y-103081157D01*
X118249998Y-103081157D02*
X118192855Y-103081157D01*
X118192855Y-103081157D02*
X118107141Y-103038300D01*
X118107141Y-103038300D02*
X118049998Y-102952585D01*
X118049998Y-102952585D02*
X118021427Y-102866871D01*
X118021427Y-102866871D02*
X117992855Y-102695442D01*
X117992855Y-102695442D02*
X117992855Y-102566871D01*
X117992855Y-102566871D02*
X118021427Y-102395442D01*
X118021427Y-102395442D02*
X118049998Y-102309728D01*
X118049998Y-102309728D02*
X118107141Y-102224014D01*
X118107141Y-102224014D02*
X118192855Y-102181157D01*
X118192855Y-102181157D02*
X118249998Y-102181157D01*
X118249998Y-102181157D02*
X118335712Y-102224014D01*
X118335712Y-102224014D02*
X118364284Y-102266871D01*
X118935712Y-103081157D02*
X118592855Y-103081157D01*
X118764284Y-103081157D02*
X118764284Y-102181157D01*
X118764284Y-102181157D02*
X118707141Y-102309728D01*
X118707141Y-102309728D02*
X118649998Y-102395442D01*
X118649998Y-102395442D02*
X118592855Y-102438300D01*
X119164284Y-102266871D02*
X119192856Y-102224014D01*
X119192856Y-102224014D02*
X119249999Y-102181157D01*
X119249999Y-102181157D02*
X119392856Y-102181157D01*
X119392856Y-102181157D02*
X119449999Y-102224014D01*
X119449999Y-102224014D02*
X119478570Y-102266871D01*
X119478570Y-102266871D02*
X119507141Y-102352585D01*
X119507141Y-102352585D02*
X119507141Y-102438300D01*
X119507141Y-102438300D02*
X119478570Y-102566871D01*
X119478570Y-102566871D02*
X119135713Y-103081157D01*
X119135713Y-103081157D02*
X119507141Y-103081157D01*
X126914284Y-80855442D02*
X126885712Y-80898300D01*
X126885712Y-80898300D02*
X126799998Y-80941157D01*
X126799998Y-80941157D02*
X126742855Y-80941157D01*
X126742855Y-80941157D02*
X126657141Y-80898300D01*
X126657141Y-80898300D02*
X126599998Y-80812585D01*
X126599998Y-80812585D02*
X126571427Y-80726871D01*
X126571427Y-80726871D02*
X126542855Y-80555442D01*
X126542855Y-80555442D02*
X126542855Y-80426871D01*
X126542855Y-80426871D02*
X126571427Y-80255442D01*
X126571427Y-80255442D02*
X126599998Y-80169728D01*
X126599998Y-80169728D02*
X126657141Y-80084014D01*
X126657141Y-80084014D02*
X126742855Y-80041157D01*
X126742855Y-80041157D02*
X126799998Y-80041157D01*
X126799998Y-80041157D02*
X126885712Y-80084014D01*
X126885712Y-80084014D02*
X126914284Y-80126871D01*
X127142855Y-80126871D02*
X127171427Y-80084014D01*
X127171427Y-80084014D02*
X127228570Y-80041157D01*
X127228570Y-80041157D02*
X127371427Y-80041157D01*
X127371427Y-80041157D02*
X127428570Y-80084014D01*
X127428570Y-80084014D02*
X127457141Y-80126871D01*
X127457141Y-80126871D02*
X127485712Y-80212585D01*
X127485712Y-80212585D02*
X127485712Y-80298300D01*
X127485712Y-80298300D02*
X127457141Y-80426871D01*
X127457141Y-80426871D02*
X127114284Y-80941157D01*
X127114284Y-80941157D02*
X127485712Y-80941157D01*
X127999999Y-80041157D02*
X127885713Y-80041157D01*
X127885713Y-80041157D02*
X127828570Y-80084014D01*
X127828570Y-80084014D02*
X127799999Y-80126871D01*
X127799999Y-80126871D02*
X127742856Y-80255442D01*
X127742856Y-80255442D02*
X127714284Y-80426871D01*
X127714284Y-80426871D02*
X127714284Y-80769728D01*
X127714284Y-80769728D02*
X127742856Y-80855442D01*
X127742856Y-80855442D02*
X127771427Y-80898300D01*
X127771427Y-80898300D02*
X127828570Y-80941157D01*
X127828570Y-80941157D02*
X127942856Y-80941157D01*
X127942856Y-80941157D02*
X127999999Y-80898300D01*
X127999999Y-80898300D02*
X128028570Y-80855442D01*
X128028570Y-80855442D02*
X128057141Y-80769728D01*
X128057141Y-80769728D02*
X128057141Y-80555442D01*
X128057141Y-80555442D02*
X128028570Y-80469728D01*
X128028570Y-80469728D02*
X127999999Y-80426871D01*
X127999999Y-80426871D02*
X127942856Y-80384014D01*
X127942856Y-80384014D02*
X127828570Y-80384014D01*
X127828570Y-80384014D02*
X127771427Y-80426871D01*
X127771427Y-80426871D02*
X127742856Y-80469728D01*
X127742856Y-80469728D02*
X127714284Y-80555442D01*
X116042857Y-90611157D02*
X116042857Y-91339728D01*
X116042857Y-91339728D02*
X116071428Y-91425442D01*
X116071428Y-91425442D02*
X116100000Y-91468300D01*
X116100000Y-91468300D02*
X116157142Y-91511157D01*
X116157142Y-91511157D02*
X116271428Y-91511157D01*
X116271428Y-91511157D02*
X116328571Y-91468300D01*
X116328571Y-91468300D02*
X116357142Y-91425442D01*
X116357142Y-91425442D02*
X116385714Y-91339728D01*
X116385714Y-91339728D02*
X116385714Y-90611157D01*
X116928571Y-90611157D02*
X116814285Y-90611157D01*
X116814285Y-90611157D02*
X116757142Y-90654014D01*
X116757142Y-90654014D02*
X116728571Y-90696871D01*
X116728571Y-90696871D02*
X116671428Y-90825442D01*
X116671428Y-90825442D02*
X116642856Y-90996871D01*
X116642856Y-90996871D02*
X116642856Y-91339728D01*
X116642856Y-91339728D02*
X116671428Y-91425442D01*
X116671428Y-91425442D02*
X116699999Y-91468300D01*
X116699999Y-91468300D02*
X116757142Y-91511157D01*
X116757142Y-91511157D02*
X116871428Y-91511157D01*
X116871428Y-91511157D02*
X116928571Y-91468300D01*
X116928571Y-91468300D02*
X116957142Y-91425442D01*
X116957142Y-91425442D02*
X116985713Y-91339728D01*
X116985713Y-91339728D02*
X116985713Y-91125442D01*
X116985713Y-91125442D02*
X116957142Y-91039728D01*
X116957142Y-91039728D02*
X116928571Y-90996871D01*
X116928571Y-90996871D02*
X116871428Y-90954014D01*
X116871428Y-90954014D02*
X116757142Y-90954014D01*
X116757142Y-90954014D02*
X116699999Y-90996871D01*
X116699999Y-90996871D02*
X116671428Y-91039728D01*
X116671428Y-91039728D02*
X116642856Y-91125442D01*
X116521428Y-86111157D02*
X116521428Y-85211157D01*
X116521428Y-85211157D02*
X116664285Y-85211157D01*
X116664285Y-85211157D02*
X116749999Y-85254014D01*
X116749999Y-85254014D02*
X116807142Y-85339728D01*
X116807142Y-85339728D02*
X116835713Y-85425442D01*
X116835713Y-85425442D02*
X116864285Y-85596871D01*
X116864285Y-85596871D02*
X116864285Y-85725442D01*
X116864285Y-85725442D02*
X116835713Y-85896871D01*
X116835713Y-85896871D02*
X116807142Y-85982585D01*
X116807142Y-85982585D02*
X116749999Y-86068300D01*
X116749999Y-86068300D02*
X116664285Y-86111157D01*
X116664285Y-86111157D02*
X116521428Y-86111157D01*
X117435713Y-86111157D02*
X117092856Y-86111157D01*
X117264285Y-86111157D02*
X117264285Y-85211157D01*
X117264285Y-85211157D02*
X117207142Y-85339728D01*
X117207142Y-85339728D02*
X117149999Y-85425442D01*
X117149999Y-85425442D02*
X117092856Y-85468300D01*
X117807142Y-85211157D02*
X117864285Y-85211157D01*
X117864285Y-85211157D02*
X117921428Y-85254014D01*
X117921428Y-85254014D02*
X117950000Y-85296871D01*
X117950000Y-85296871D02*
X117978571Y-85382585D01*
X117978571Y-85382585D02*
X118007142Y-85554014D01*
X118007142Y-85554014D02*
X118007142Y-85768300D01*
X118007142Y-85768300D02*
X117978571Y-85939728D01*
X117978571Y-85939728D02*
X117950000Y-86025442D01*
X117950000Y-86025442D02*
X117921428Y-86068300D01*
X117921428Y-86068300D02*
X117864285Y-86111157D01*
X117864285Y-86111157D02*
X117807142Y-86111157D01*
X117807142Y-86111157D02*
X117750000Y-86068300D01*
X117750000Y-86068300D02*
X117721428Y-86025442D01*
X117721428Y-86025442D02*
X117692857Y-85939728D01*
X117692857Y-85939728D02*
X117664285Y-85768300D01*
X117664285Y-85768300D02*
X117664285Y-85554014D01*
X117664285Y-85554014D02*
X117692857Y-85382585D01*
X117692857Y-85382585D02*
X117721428Y-85296871D01*
X117721428Y-85296871D02*
X117750000Y-85254014D01*
X117750000Y-85254014D02*
X117807142Y-85211157D01*
X114075442Y-90035714D02*
X114118300Y-90064286D01*
X114118300Y-90064286D02*
X114161157Y-90150000D01*
X114161157Y-90150000D02*
X114161157Y-90207143D01*
X114161157Y-90207143D02*
X114118300Y-90292857D01*
X114118300Y-90292857D02*
X114032585Y-90350000D01*
X114032585Y-90350000D02*
X113946871Y-90378571D01*
X113946871Y-90378571D02*
X113775442Y-90407143D01*
X113775442Y-90407143D02*
X113646871Y-90407143D01*
X113646871Y-90407143D02*
X113475442Y-90378571D01*
X113475442Y-90378571D02*
X113389728Y-90350000D01*
X113389728Y-90350000D02*
X113304014Y-90292857D01*
X113304014Y-90292857D02*
X113261157Y-90207143D01*
X113261157Y-90207143D02*
X113261157Y-90150000D01*
X113261157Y-90150000D02*
X113304014Y-90064286D01*
X113304014Y-90064286D02*
X113346871Y-90035714D01*
X113261157Y-89835714D02*
X113261157Y-89464286D01*
X113261157Y-89464286D02*
X113604014Y-89664286D01*
X113604014Y-89664286D02*
X113604014Y-89578571D01*
X113604014Y-89578571D02*
X113646871Y-89521429D01*
X113646871Y-89521429D02*
X113689728Y-89492857D01*
X113689728Y-89492857D02*
X113775442Y-89464286D01*
X113775442Y-89464286D02*
X113989728Y-89464286D01*
X113989728Y-89464286D02*
X114075442Y-89492857D01*
X114075442Y-89492857D02*
X114118300Y-89521429D01*
X114118300Y-89521429D02*
X114161157Y-89578571D01*
X114161157Y-89578571D02*
X114161157Y-89750000D01*
X114161157Y-89750000D02*
X114118300Y-89807143D01*
X114118300Y-89807143D02*
X114075442Y-89835714D01*
X113261157Y-89264285D02*
X113261157Y-88864285D01*
X113261157Y-88864285D02*
X114161157Y-89121428D01*
X134434285Y-101935442D02*
X134405713Y-101978300D01*
X134405713Y-101978300D02*
X134319999Y-102021157D01*
X134319999Y-102021157D02*
X134262856Y-102021157D01*
X134262856Y-102021157D02*
X134177142Y-101978300D01*
X134177142Y-101978300D02*
X134119999Y-101892585D01*
X134119999Y-101892585D02*
X134091428Y-101806871D01*
X134091428Y-101806871D02*
X134062856Y-101635442D01*
X134062856Y-101635442D02*
X134062856Y-101506871D01*
X134062856Y-101506871D02*
X134091428Y-101335442D01*
X134091428Y-101335442D02*
X134119999Y-101249728D01*
X134119999Y-101249728D02*
X134177142Y-101164014D01*
X134177142Y-101164014D02*
X134262856Y-101121157D01*
X134262856Y-101121157D02*
X134319999Y-101121157D01*
X134319999Y-101121157D02*
X134405713Y-101164014D01*
X134405713Y-101164014D02*
X134434285Y-101206871D01*
X135005713Y-102021157D02*
X134662856Y-102021157D01*
X134834285Y-102021157D02*
X134834285Y-101121157D01*
X134834285Y-101121157D02*
X134777142Y-101249728D01*
X134777142Y-101249728D02*
X134719999Y-101335442D01*
X134719999Y-101335442D02*
X134662856Y-101378300D01*
X135377142Y-101121157D02*
X135434285Y-101121157D01*
X135434285Y-101121157D02*
X135491428Y-101164014D01*
X135491428Y-101164014D02*
X135520000Y-101206871D01*
X135520000Y-101206871D02*
X135548571Y-101292585D01*
X135548571Y-101292585D02*
X135577142Y-101464014D01*
X135577142Y-101464014D02*
X135577142Y-101678300D01*
X135577142Y-101678300D02*
X135548571Y-101849728D01*
X135548571Y-101849728D02*
X135520000Y-101935442D01*
X135520000Y-101935442D02*
X135491428Y-101978300D01*
X135491428Y-101978300D02*
X135434285Y-102021157D01*
X135434285Y-102021157D02*
X135377142Y-102021157D01*
X135377142Y-102021157D02*
X135320000Y-101978300D01*
X135320000Y-101978300D02*
X135291428Y-101935442D01*
X135291428Y-101935442D02*
X135262857Y-101849728D01*
X135262857Y-101849728D02*
X135234285Y-101678300D01*
X135234285Y-101678300D02*
X135234285Y-101464014D01*
X135234285Y-101464014D02*
X135262857Y-101292585D01*
X135262857Y-101292585D02*
X135291428Y-101206871D01*
X135291428Y-101206871D02*
X135320000Y-101164014D01*
X135320000Y-101164014D02*
X135377142Y-101121157D01*
X122082856Y-86626871D02*
X122025713Y-86584014D01*
X122025713Y-86584014D02*
X121968570Y-86498300D01*
X121968570Y-86498300D02*
X121882856Y-86369728D01*
X121882856Y-86369728D02*
X121825713Y-86326871D01*
X121825713Y-86326871D02*
X121768570Y-86326871D01*
X121797141Y-86541157D02*
X121739999Y-86498300D01*
X121739999Y-86498300D02*
X121682856Y-86412585D01*
X121682856Y-86412585D02*
X121654284Y-86241157D01*
X121654284Y-86241157D02*
X121654284Y-85941157D01*
X121654284Y-85941157D02*
X121682856Y-85769728D01*
X121682856Y-85769728D02*
X121739999Y-85684014D01*
X121739999Y-85684014D02*
X121797141Y-85641157D01*
X121797141Y-85641157D02*
X121911427Y-85641157D01*
X121911427Y-85641157D02*
X121968570Y-85684014D01*
X121968570Y-85684014D02*
X122025713Y-85769728D01*
X122025713Y-85769728D02*
X122054284Y-85941157D01*
X122054284Y-85941157D02*
X122054284Y-86241157D01*
X122054284Y-86241157D02*
X122025713Y-86412585D01*
X122025713Y-86412585D02*
X121968570Y-86498300D01*
X121968570Y-86498300D02*
X121911427Y-86541157D01*
X121911427Y-86541157D02*
X121797141Y-86541157D01*
X122282855Y-85726871D02*
X122311427Y-85684014D01*
X122311427Y-85684014D02*
X122368570Y-85641157D01*
X122368570Y-85641157D02*
X122511427Y-85641157D01*
X122511427Y-85641157D02*
X122568570Y-85684014D01*
X122568570Y-85684014D02*
X122597141Y-85726871D01*
X122597141Y-85726871D02*
X122625712Y-85812585D01*
X122625712Y-85812585D02*
X122625712Y-85898300D01*
X122625712Y-85898300D02*
X122597141Y-86026871D01*
X122597141Y-86026871D02*
X122254284Y-86541157D01*
X122254284Y-86541157D02*
X122625712Y-86541157D01*
X119990000Y-91351157D02*
X119790000Y-90922585D01*
X119647143Y-91351157D02*
X119647143Y-90451157D01*
X119647143Y-90451157D02*
X119875714Y-90451157D01*
X119875714Y-90451157D02*
X119932857Y-90494014D01*
X119932857Y-90494014D02*
X119961428Y-90536871D01*
X119961428Y-90536871D02*
X119990000Y-90622585D01*
X119990000Y-90622585D02*
X119990000Y-90751157D01*
X119990000Y-90751157D02*
X119961428Y-90836871D01*
X119961428Y-90836871D02*
X119932857Y-90879728D01*
X119932857Y-90879728D02*
X119875714Y-90922585D01*
X119875714Y-90922585D02*
X119647143Y-90922585D01*
X120332857Y-90836871D02*
X120275714Y-90794014D01*
X120275714Y-90794014D02*
X120247143Y-90751157D01*
X120247143Y-90751157D02*
X120218571Y-90665442D01*
X120218571Y-90665442D02*
X120218571Y-90622585D01*
X120218571Y-90622585D02*
X120247143Y-90536871D01*
X120247143Y-90536871D02*
X120275714Y-90494014D01*
X120275714Y-90494014D02*
X120332857Y-90451157D01*
X120332857Y-90451157D02*
X120447143Y-90451157D01*
X120447143Y-90451157D02*
X120504286Y-90494014D01*
X120504286Y-90494014D02*
X120532857Y-90536871D01*
X120532857Y-90536871D02*
X120561428Y-90622585D01*
X120561428Y-90622585D02*
X120561428Y-90665442D01*
X120561428Y-90665442D02*
X120532857Y-90751157D01*
X120532857Y-90751157D02*
X120504286Y-90794014D01*
X120504286Y-90794014D02*
X120447143Y-90836871D01*
X120447143Y-90836871D02*
X120332857Y-90836871D01*
X120332857Y-90836871D02*
X120275714Y-90879728D01*
X120275714Y-90879728D02*
X120247143Y-90922585D01*
X120247143Y-90922585D02*
X120218571Y-91008300D01*
X120218571Y-91008300D02*
X120218571Y-91179728D01*
X120218571Y-91179728D02*
X120247143Y-91265442D01*
X120247143Y-91265442D02*
X120275714Y-91308300D01*
X120275714Y-91308300D02*
X120332857Y-91351157D01*
X120332857Y-91351157D02*
X120447143Y-91351157D01*
X120447143Y-91351157D02*
X120504286Y-91308300D01*
X120504286Y-91308300D02*
X120532857Y-91265442D01*
X120532857Y-91265442D02*
X120561428Y-91179728D01*
X120561428Y-91179728D02*
X120561428Y-91008300D01*
X120561428Y-91008300D02*
X120532857Y-90922585D01*
X120532857Y-90922585D02*
X120504286Y-90879728D01*
X120504286Y-90879728D02*
X120447143Y-90836871D01*
X120334284Y-94495442D02*
X120305712Y-94538300D01*
X120305712Y-94538300D02*
X120219998Y-94581157D01*
X120219998Y-94581157D02*
X120162855Y-94581157D01*
X120162855Y-94581157D02*
X120077141Y-94538300D01*
X120077141Y-94538300D02*
X120019998Y-94452585D01*
X120019998Y-94452585D02*
X119991427Y-94366871D01*
X119991427Y-94366871D02*
X119962855Y-94195442D01*
X119962855Y-94195442D02*
X119962855Y-94066871D01*
X119962855Y-94066871D02*
X119991427Y-93895442D01*
X119991427Y-93895442D02*
X120019998Y-93809728D01*
X120019998Y-93809728D02*
X120077141Y-93724014D01*
X120077141Y-93724014D02*
X120162855Y-93681157D01*
X120162855Y-93681157D02*
X120219998Y-93681157D01*
X120219998Y-93681157D02*
X120305712Y-93724014D01*
X120305712Y-93724014D02*
X120334284Y-93766871D01*
X120905712Y-94581157D02*
X120562855Y-94581157D01*
X120734284Y-94581157D02*
X120734284Y-93681157D01*
X120734284Y-93681157D02*
X120677141Y-93809728D01*
X120677141Y-93809728D02*
X120619998Y-93895442D01*
X120619998Y-93895442D02*
X120562855Y-93938300D01*
X121448570Y-93681157D02*
X121162856Y-93681157D01*
X121162856Y-93681157D02*
X121134284Y-94109728D01*
X121134284Y-94109728D02*
X121162856Y-94066871D01*
X121162856Y-94066871D02*
X121219999Y-94024014D01*
X121219999Y-94024014D02*
X121362856Y-94024014D01*
X121362856Y-94024014D02*
X121419999Y-94066871D01*
X121419999Y-94066871D02*
X121448570Y-94109728D01*
X121448570Y-94109728D02*
X121477141Y-94195442D01*
X121477141Y-94195442D02*
X121477141Y-94409728D01*
X121477141Y-94409728D02*
X121448570Y-94495442D01*
X121448570Y-94495442D02*
X121419999Y-94538300D01*
X121419999Y-94538300D02*
X121362856Y-94581157D01*
X121362856Y-94581157D02*
X121219999Y-94581157D01*
X121219999Y-94581157D02*
X121162856Y-94538300D01*
X121162856Y-94538300D02*
X121134284Y-94495442D01*
X128241156Y-86225714D02*
X127812584Y-86425714D01*
X128241156Y-86568571D02*
X127341156Y-86568571D01*
X127341156Y-86568571D02*
X127341156Y-86340000D01*
X127341156Y-86340000D02*
X127384013Y-86282857D01*
X127384013Y-86282857D02*
X127426870Y-86254286D01*
X127426870Y-86254286D02*
X127512584Y-86225714D01*
X127512584Y-86225714D02*
X127641156Y-86225714D01*
X127641156Y-86225714D02*
X127726870Y-86254286D01*
X127726870Y-86254286D02*
X127769727Y-86282857D01*
X127769727Y-86282857D02*
X127812584Y-86340000D01*
X127812584Y-86340000D02*
X127812584Y-86568571D01*
X128241156Y-85654286D02*
X128241156Y-85997143D01*
X128241156Y-85825714D02*
X127341156Y-85825714D01*
X127341156Y-85825714D02*
X127469727Y-85882857D01*
X127469727Y-85882857D02*
X127555441Y-85940000D01*
X127555441Y-85940000D02*
X127598299Y-85997143D01*
X127341156Y-85454285D02*
X127341156Y-85082857D01*
X127341156Y-85082857D02*
X127684013Y-85282857D01*
X127684013Y-85282857D02*
X127684013Y-85197142D01*
X127684013Y-85197142D02*
X127726870Y-85140000D01*
X127726870Y-85140000D02*
X127769727Y-85111428D01*
X127769727Y-85111428D02*
X127855441Y-85082857D01*
X127855441Y-85082857D02*
X128069727Y-85082857D01*
X128069727Y-85082857D02*
X128155441Y-85111428D01*
X128155441Y-85111428D02*
X128198299Y-85140000D01*
X128198299Y-85140000D02*
X128241156Y-85197142D01*
X128241156Y-85197142D02*
X128241156Y-85368571D01*
X128241156Y-85368571D02*
X128198299Y-85425714D01*
X128198299Y-85425714D02*
X128155441Y-85454285D01*
X134944285Y-87655442D02*
X134915713Y-87698300D01*
X134915713Y-87698300D02*
X134829999Y-87741157D01*
X134829999Y-87741157D02*
X134772856Y-87741157D01*
X134772856Y-87741157D02*
X134687142Y-87698300D01*
X134687142Y-87698300D02*
X134629999Y-87612585D01*
X134629999Y-87612585D02*
X134601428Y-87526871D01*
X134601428Y-87526871D02*
X134572856Y-87355442D01*
X134572856Y-87355442D02*
X134572856Y-87226871D01*
X134572856Y-87226871D02*
X134601428Y-87055442D01*
X134601428Y-87055442D02*
X134629999Y-86969728D01*
X134629999Y-86969728D02*
X134687142Y-86884014D01*
X134687142Y-86884014D02*
X134772856Y-86841157D01*
X134772856Y-86841157D02*
X134829999Y-86841157D01*
X134829999Y-86841157D02*
X134915713Y-86884014D01*
X134915713Y-86884014D02*
X134944285Y-86926871D01*
X135172856Y-86926871D02*
X135201428Y-86884014D01*
X135201428Y-86884014D02*
X135258571Y-86841157D01*
X135258571Y-86841157D02*
X135401428Y-86841157D01*
X135401428Y-86841157D02*
X135458571Y-86884014D01*
X135458571Y-86884014D02*
X135487142Y-86926871D01*
X135487142Y-86926871D02*
X135515713Y-87012585D01*
X135515713Y-87012585D02*
X135515713Y-87098300D01*
X135515713Y-87098300D02*
X135487142Y-87226871D01*
X135487142Y-87226871D02*
X135144285Y-87741157D01*
X135144285Y-87741157D02*
X135515713Y-87741157D01*
X135715714Y-86841157D02*
X136115714Y-86841157D01*
X136115714Y-86841157D02*
X135858571Y-87741157D01*
X128261156Y-89105714D02*
X127832584Y-89305714D01*
X128261156Y-89448571D02*
X127361156Y-89448571D01*
X127361156Y-89448571D02*
X127361156Y-89220000D01*
X127361156Y-89220000D02*
X127404013Y-89162857D01*
X127404013Y-89162857D02*
X127446870Y-89134286D01*
X127446870Y-89134286D02*
X127532584Y-89105714D01*
X127532584Y-89105714D02*
X127661156Y-89105714D01*
X127661156Y-89105714D02*
X127746870Y-89134286D01*
X127746870Y-89134286D02*
X127789727Y-89162857D01*
X127789727Y-89162857D02*
X127832584Y-89220000D01*
X127832584Y-89220000D02*
X127832584Y-89448571D01*
X128261156Y-88534286D02*
X128261156Y-88877143D01*
X128261156Y-88705714D02*
X127361156Y-88705714D01*
X127361156Y-88705714D02*
X127489727Y-88762857D01*
X127489727Y-88762857D02*
X127575441Y-88820000D01*
X127575441Y-88820000D02*
X127618299Y-88877143D01*
X127661156Y-88020000D02*
X128261156Y-88020000D01*
X127318299Y-88162857D02*
X127961156Y-88305714D01*
X127961156Y-88305714D02*
X127961156Y-87934285D01*
X127434999Y-96945442D02*
X127406427Y-96988300D01*
X127406427Y-96988300D02*
X127320713Y-97031157D01*
X127320713Y-97031157D02*
X127263570Y-97031157D01*
X127263570Y-97031157D02*
X127177856Y-96988300D01*
X127177856Y-96988300D02*
X127120713Y-96902585D01*
X127120713Y-96902585D02*
X127092142Y-96816871D01*
X127092142Y-96816871D02*
X127063570Y-96645442D01*
X127063570Y-96645442D02*
X127063570Y-96516871D01*
X127063570Y-96516871D02*
X127092142Y-96345442D01*
X127092142Y-96345442D02*
X127120713Y-96259728D01*
X127120713Y-96259728D02*
X127177856Y-96174014D01*
X127177856Y-96174014D02*
X127263570Y-96131157D01*
X127263570Y-96131157D02*
X127320713Y-96131157D01*
X127320713Y-96131157D02*
X127406427Y-96174014D01*
X127406427Y-96174014D02*
X127434999Y-96216871D01*
X127977856Y-96131157D02*
X127692142Y-96131157D01*
X127692142Y-96131157D02*
X127663570Y-96559728D01*
X127663570Y-96559728D02*
X127692142Y-96516871D01*
X127692142Y-96516871D02*
X127749285Y-96474014D01*
X127749285Y-96474014D02*
X127892142Y-96474014D01*
X127892142Y-96474014D02*
X127949285Y-96516871D01*
X127949285Y-96516871D02*
X127977856Y-96559728D01*
X127977856Y-96559728D02*
X128006427Y-96645442D01*
X128006427Y-96645442D02*
X128006427Y-96859728D01*
X128006427Y-96859728D02*
X127977856Y-96945442D01*
X127977856Y-96945442D02*
X127949285Y-96988300D01*
X127949285Y-96988300D02*
X127892142Y-97031157D01*
X127892142Y-97031157D02*
X127749285Y-97031157D01*
X127749285Y-97031157D02*
X127692142Y-96988300D01*
X127692142Y-96988300D02*
X127663570Y-96945442D01*
X109780000Y-103731157D02*
X109580000Y-103302585D01*
X109437143Y-103731157D02*
X109437143Y-102831157D01*
X109437143Y-102831157D02*
X109665714Y-102831157D01*
X109665714Y-102831157D02*
X109722857Y-102874014D01*
X109722857Y-102874014D02*
X109751428Y-102916871D01*
X109751428Y-102916871D02*
X109780000Y-103002585D01*
X109780000Y-103002585D02*
X109780000Y-103131157D01*
X109780000Y-103131157D02*
X109751428Y-103216871D01*
X109751428Y-103216871D02*
X109722857Y-103259728D01*
X109722857Y-103259728D02*
X109665714Y-103302585D01*
X109665714Y-103302585D02*
X109437143Y-103302585D01*
X110351428Y-103731157D02*
X110008571Y-103731157D01*
X110180000Y-103731157D02*
X110180000Y-102831157D01*
X110180000Y-102831157D02*
X110122857Y-102959728D01*
X110122857Y-102959728D02*
X110065714Y-103045442D01*
X110065714Y-103045442D02*
X110008571Y-103088300D01*
X131664284Y-95731157D02*
X131464284Y-95302585D01*
X131321427Y-95731157D02*
X131321427Y-94831157D01*
X131321427Y-94831157D02*
X131549998Y-94831157D01*
X131549998Y-94831157D02*
X131607141Y-94874014D01*
X131607141Y-94874014D02*
X131635712Y-94916871D01*
X131635712Y-94916871D02*
X131664284Y-95002585D01*
X131664284Y-95002585D02*
X131664284Y-95131157D01*
X131664284Y-95131157D02*
X131635712Y-95216871D01*
X131635712Y-95216871D02*
X131607141Y-95259728D01*
X131607141Y-95259728D02*
X131549998Y-95302585D01*
X131549998Y-95302585D02*
X131321427Y-95302585D01*
X132235712Y-95731157D02*
X131892855Y-95731157D01*
X132064284Y-95731157D02*
X132064284Y-94831157D01*
X132064284Y-94831157D02*
X132007141Y-94959728D01*
X132007141Y-94959728D02*
X131949998Y-95045442D01*
X131949998Y-95045442D02*
X131892855Y-95088300D01*
X132464284Y-94916871D02*
X132492856Y-94874014D01*
X132492856Y-94874014D02*
X132549999Y-94831157D01*
X132549999Y-94831157D02*
X132692856Y-94831157D01*
X132692856Y-94831157D02*
X132749999Y-94874014D01*
X132749999Y-94874014D02*
X132778570Y-94916871D01*
X132778570Y-94916871D02*
X132807141Y-95002585D01*
X132807141Y-95002585D02*
X132807141Y-95088300D01*
X132807141Y-95088300D02*
X132778570Y-95216871D01*
X132778570Y-95216871D02*
X132435713Y-95731157D01*
X132435713Y-95731157D02*
X132807141Y-95731157D01*
X115130000Y-96526157D02*
X114930000Y-96097585D01*
X114787143Y-96526157D02*
X114787143Y-95626157D01*
X114787143Y-95626157D02*
X115015714Y-95626157D01*
X115015714Y-95626157D02*
X115072857Y-95669014D01*
X115072857Y-95669014D02*
X115101428Y-95711871D01*
X115101428Y-95711871D02*
X115130000Y-95797585D01*
X115130000Y-95797585D02*
X115130000Y-95926157D01*
X115130000Y-95926157D02*
X115101428Y-96011871D01*
X115101428Y-96011871D02*
X115072857Y-96054728D01*
X115072857Y-96054728D02*
X115015714Y-96097585D01*
X115015714Y-96097585D02*
X114787143Y-96097585D01*
X115644286Y-95626157D02*
X115530000Y-95626157D01*
X115530000Y-95626157D02*
X115472857Y-95669014D01*
X115472857Y-95669014D02*
X115444286Y-95711871D01*
X115444286Y-95711871D02*
X115387143Y-95840442D01*
X115387143Y-95840442D02*
X115358571Y-96011871D01*
X115358571Y-96011871D02*
X115358571Y-96354728D01*
X115358571Y-96354728D02*
X115387143Y-96440442D01*
X115387143Y-96440442D02*
X115415714Y-96483300D01*
X115415714Y-96483300D02*
X115472857Y-96526157D01*
X115472857Y-96526157D02*
X115587143Y-96526157D01*
X115587143Y-96526157D02*
X115644286Y-96483300D01*
X115644286Y-96483300D02*
X115672857Y-96440442D01*
X115672857Y-96440442D02*
X115701428Y-96354728D01*
X115701428Y-96354728D02*
X115701428Y-96140442D01*
X115701428Y-96140442D02*
X115672857Y-96054728D01*
X115672857Y-96054728D02*
X115644286Y-96011871D01*
X115644286Y-96011871D02*
X115587143Y-95969014D01*
X115587143Y-95969014D02*
X115472857Y-95969014D01*
X115472857Y-95969014D02*
X115415714Y-96011871D01*
X115415714Y-96011871D02*
X115387143Y-96054728D01*
X115387143Y-96054728D02*
X115358571Y-96140442D01*
X114075442Y-87010714D02*
X114118300Y-87039286D01*
X114118300Y-87039286D02*
X114161157Y-87125000D01*
X114161157Y-87125000D02*
X114161157Y-87182143D01*
X114161157Y-87182143D02*
X114118300Y-87267857D01*
X114118300Y-87267857D02*
X114032585Y-87325000D01*
X114032585Y-87325000D02*
X113946871Y-87353571D01*
X113946871Y-87353571D02*
X113775442Y-87382143D01*
X113775442Y-87382143D02*
X113646871Y-87382143D01*
X113646871Y-87382143D02*
X113475442Y-87353571D01*
X113475442Y-87353571D02*
X113389728Y-87325000D01*
X113389728Y-87325000D02*
X113304014Y-87267857D01*
X113304014Y-87267857D02*
X113261157Y-87182143D01*
X113261157Y-87182143D02*
X113261157Y-87125000D01*
X113261157Y-87125000D02*
X113304014Y-87039286D01*
X113304014Y-87039286D02*
X113346871Y-87010714D01*
X113261157Y-86810714D02*
X113261157Y-86439286D01*
X113261157Y-86439286D02*
X113604014Y-86639286D01*
X113604014Y-86639286D02*
X113604014Y-86553571D01*
X113604014Y-86553571D02*
X113646871Y-86496429D01*
X113646871Y-86496429D02*
X113689728Y-86467857D01*
X113689728Y-86467857D02*
X113775442Y-86439286D01*
X113775442Y-86439286D02*
X113989728Y-86439286D01*
X113989728Y-86439286D02*
X114075442Y-86467857D01*
X114075442Y-86467857D02*
X114118300Y-86496429D01*
X114118300Y-86496429D02*
X114161157Y-86553571D01*
X114161157Y-86553571D02*
X114161157Y-86725000D01*
X114161157Y-86725000D02*
X114118300Y-86782143D01*
X114118300Y-86782143D02*
X114075442Y-86810714D01*
X113261157Y-85925000D02*
X113261157Y-86039285D01*
X113261157Y-86039285D02*
X113304014Y-86096428D01*
X113304014Y-86096428D02*
X113346871Y-86125000D01*
X113346871Y-86125000D02*
X113475442Y-86182142D01*
X113475442Y-86182142D02*
X113646871Y-86210714D01*
X113646871Y-86210714D02*
X113989728Y-86210714D01*
X113989728Y-86210714D02*
X114075442Y-86182142D01*
X114075442Y-86182142D02*
X114118300Y-86153571D01*
X114118300Y-86153571D02*
X114161157Y-86096428D01*
X114161157Y-86096428D02*
X114161157Y-85982142D01*
X114161157Y-85982142D02*
X114118300Y-85925000D01*
X114118300Y-85925000D02*
X114075442Y-85896428D01*
X114075442Y-85896428D02*
X113989728Y-85867857D01*
X113989728Y-85867857D02*
X113775442Y-85867857D01*
X113775442Y-85867857D02*
X113689728Y-85896428D01*
X113689728Y-85896428D02*
X113646871Y-85925000D01*
X113646871Y-85925000D02*
X113604014Y-85982142D01*
X113604014Y-85982142D02*
X113604014Y-86096428D01*
X113604014Y-86096428D02*
X113646871Y-86153571D01*
X113646871Y-86153571D02*
X113689728Y-86182142D01*
X113689728Y-86182142D02*
X113775442Y-86210714D01*
X112309999Y-95155442D02*
X112281427Y-95198300D01*
X112281427Y-95198300D02*
X112195713Y-95241157D01*
X112195713Y-95241157D02*
X112138570Y-95241157D01*
X112138570Y-95241157D02*
X112052856Y-95198300D01*
X112052856Y-95198300D02*
X111995713Y-95112585D01*
X111995713Y-95112585D02*
X111967142Y-95026871D01*
X111967142Y-95026871D02*
X111938570Y-94855442D01*
X111938570Y-94855442D02*
X111938570Y-94726871D01*
X111938570Y-94726871D02*
X111967142Y-94555442D01*
X111967142Y-94555442D02*
X111995713Y-94469728D01*
X111995713Y-94469728D02*
X112052856Y-94384014D01*
X112052856Y-94384014D02*
X112138570Y-94341157D01*
X112138570Y-94341157D02*
X112195713Y-94341157D01*
X112195713Y-94341157D02*
X112281427Y-94384014D01*
X112281427Y-94384014D02*
X112309999Y-94426871D01*
X112824285Y-94641157D02*
X112824285Y-95241157D01*
X112681427Y-94298300D02*
X112538570Y-94941157D01*
X112538570Y-94941157D02*
X112909999Y-94941157D01*
X122770000Y-96445442D02*
X122741428Y-96488300D01*
X122741428Y-96488300D02*
X122655714Y-96531157D01*
X122655714Y-96531157D02*
X122598571Y-96531157D01*
X122598571Y-96531157D02*
X122512857Y-96488300D01*
X122512857Y-96488300D02*
X122455714Y-96402585D01*
X122455714Y-96402585D02*
X122427143Y-96316871D01*
X122427143Y-96316871D02*
X122398571Y-96145442D01*
X122398571Y-96145442D02*
X122398571Y-96016871D01*
X122398571Y-96016871D02*
X122427143Y-95845442D01*
X122427143Y-95845442D02*
X122455714Y-95759728D01*
X122455714Y-95759728D02*
X122512857Y-95674014D01*
X122512857Y-95674014D02*
X122598571Y-95631157D01*
X122598571Y-95631157D02*
X122655714Y-95631157D01*
X122655714Y-95631157D02*
X122741428Y-95674014D01*
X122741428Y-95674014D02*
X122770000Y-95716871D01*
X123055714Y-96531157D02*
X123170000Y-96531157D01*
X123170000Y-96531157D02*
X123227143Y-96488300D01*
X123227143Y-96488300D02*
X123255714Y-96445442D01*
X123255714Y-96445442D02*
X123312857Y-96316871D01*
X123312857Y-96316871D02*
X123341428Y-96145442D01*
X123341428Y-96145442D02*
X123341428Y-95802585D01*
X123341428Y-95802585D02*
X123312857Y-95716871D01*
X123312857Y-95716871D02*
X123284286Y-95674014D01*
X123284286Y-95674014D02*
X123227143Y-95631157D01*
X123227143Y-95631157D02*
X123112857Y-95631157D01*
X123112857Y-95631157D02*
X123055714Y-95674014D01*
X123055714Y-95674014D02*
X123027143Y-95716871D01*
X123027143Y-95716871D02*
X122998571Y-95802585D01*
X122998571Y-95802585D02*
X122998571Y-96016871D01*
X122998571Y-96016871D02*
X123027143Y-96102585D01*
X123027143Y-96102585D02*
X123055714Y-96145442D01*
X123055714Y-96145442D02*
X123112857Y-96188300D01*
X123112857Y-96188300D02*
X123227143Y-96188300D01*
X123227143Y-96188300D02*
X123284286Y-96145442D01*
X123284286Y-96145442D02*
X123312857Y-96102585D01*
X123312857Y-96102585D02*
X123341428Y-96016871D01*
X134999999Y-85031157D02*
X134714285Y-85031157D01*
X134714285Y-85031157D02*
X134714285Y-84131157D01*
X135171427Y-84216871D02*
X135199999Y-84174014D01*
X135199999Y-84174014D02*
X135257142Y-84131157D01*
X135257142Y-84131157D02*
X135399999Y-84131157D01*
X135399999Y-84131157D02*
X135457142Y-84174014D01*
X135457142Y-84174014D02*
X135485713Y-84216871D01*
X135485713Y-84216871D02*
X135514284Y-84302585D01*
X135514284Y-84302585D02*
X135514284Y-84388300D01*
X135514284Y-84388300D02*
X135485713Y-84516871D01*
X135485713Y-84516871D02*
X135142856Y-85031157D01*
X135142856Y-85031157D02*
X135514284Y-85031157D01*
X110329999Y-107113300D02*
X110415714Y-107156157D01*
X110415714Y-107156157D02*
X110558571Y-107156157D01*
X110558571Y-107156157D02*
X110615714Y-107113300D01*
X110615714Y-107113300D02*
X110644285Y-107070442D01*
X110644285Y-107070442D02*
X110672856Y-106984728D01*
X110672856Y-106984728D02*
X110672856Y-106899014D01*
X110672856Y-106899014D02*
X110644285Y-106813300D01*
X110644285Y-106813300D02*
X110615714Y-106770442D01*
X110615714Y-106770442D02*
X110558571Y-106727585D01*
X110558571Y-106727585D02*
X110444285Y-106684728D01*
X110444285Y-106684728D02*
X110387142Y-106641871D01*
X110387142Y-106641871D02*
X110358571Y-106599014D01*
X110358571Y-106599014D02*
X110329999Y-106513300D01*
X110329999Y-106513300D02*
X110329999Y-106427585D01*
X110329999Y-106427585D02*
X110358571Y-106341871D01*
X110358571Y-106341871D02*
X110387142Y-106299014D01*
X110387142Y-106299014D02*
X110444285Y-106256157D01*
X110444285Y-106256157D02*
X110587142Y-106256157D01*
X110587142Y-106256157D02*
X110672856Y-106299014D01*
X110872857Y-106256157D02*
X111015714Y-107156157D01*
X111015714Y-107156157D02*
X111130000Y-106513300D01*
X111130000Y-106513300D02*
X111244285Y-107156157D01*
X111244285Y-107156157D02*
X111387143Y-106256157D01*
X111558571Y-106256157D02*
X111929999Y-106256157D01*
X111929999Y-106256157D02*
X111729999Y-106599014D01*
X111729999Y-106599014D02*
X111815714Y-106599014D01*
X111815714Y-106599014D02*
X111872857Y-106641871D01*
X111872857Y-106641871D02*
X111901428Y-106684728D01*
X111901428Y-106684728D02*
X111929999Y-106770442D01*
X111929999Y-106770442D02*
X111929999Y-106984728D01*
X111929999Y-106984728D02*
X111901428Y-107070442D01*
X111901428Y-107070442D02*
X111872857Y-107113300D01*
X111872857Y-107113300D02*
X111815714Y-107156157D01*
X111815714Y-107156157D02*
X111644285Y-107156157D01*
X111644285Y-107156157D02*
X111587142Y-107113300D01*
X111587142Y-107113300D02*
X111558571Y-107070442D01*
X119875000Y-98745442D02*
X119846428Y-98788300D01*
X119846428Y-98788300D02*
X119760714Y-98831157D01*
X119760714Y-98831157D02*
X119703571Y-98831157D01*
X119703571Y-98831157D02*
X119617857Y-98788300D01*
X119617857Y-98788300D02*
X119560714Y-98702585D01*
X119560714Y-98702585D02*
X119532143Y-98616871D01*
X119532143Y-98616871D02*
X119503571Y-98445442D01*
X119503571Y-98445442D02*
X119503571Y-98316871D01*
X119503571Y-98316871D02*
X119532143Y-98145442D01*
X119532143Y-98145442D02*
X119560714Y-98059728D01*
X119560714Y-98059728D02*
X119617857Y-97974014D01*
X119617857Y-97974014D02*
X119703571Y-97931157D01*
X119703571Y-97931157D02*
X119760714Y-97931157D01*
X119760714Y-97931157D02*
X119846428Y-97974014D01*
X119846428Y-97974014D02*
X119875000Y-98016871D01*
X120075000Y-97931157D02*
X120475000Y-97931157D01*
X120475000Y-97931157D02*
X120217857Y-98831157D01*
X125560000Y-90261157D02*
X125360000Y-89832585D01*
X125217143Y-90261157D02*
X125217143Y-89361157D01*
X125217143Y-89361157D02*
X125445714Y-89361157D01*
X125445714Y-89361157D02*
X125502857Y-89404014D01*
X125502857Y-89404014D02*
X125531428Y-89446871D01*
X125531428Y-89446871D02*
X125560000Y-89532585D01*
X125560000Y-89532585D02*
X125560000Y-89661157D01*
X125560000Y-89661157D02*
X125531428Y-89746871D01*
X125531428Y-89746871D02*
X125502857Y-89789728D01*
X125502857Y-89789728D02*
X125445714Y-89832585D01*
X125445714Y-89832585D02*
X125217143Y-89832585D01*
X125788571Y-89446871D02*
X125817143Y-89404014D01*
X125817143Y-89404014D02*
X125874286Y-89361157D01*
X125874286Y-89361157D02*
X126017143Y-89361157D01*
X126017143Y-89361157D02*
X126074286Y-89404014D01*
X126074286Y-89404014D02*
X126102857Y-89446871D01*
X126102857Y-89446871D02*
X126131428Y-89532585D01*
X126131428Y-89532585D02*
X126131428Y-89618300D01*
X126131428Y-89618300D02*
X126102857Y-89746871D01*
X126102857Y-89746871D02*
X125760000Y-90261157D01*
X125760000Y-90261157D02*
X126131428Y-90261157D01*
X117229999Y-107213300D02*
X117315714Y-107256157D01*
X117315714Y-107256157D02*
X117458571Y-107256157D01*
X117458571Y-107256157D02*
X117515714Y-107213300D01*
X117515714Y-107213300D02*
X117544285Y-107170442D01*
X117544285Y-107170442D02*
X117572856Y-107084728D01*
X117572856Y-107084728D02*
X117572856Y-106999014D01*
X117572856Y-106999014D02*
X117544285Y-106913300D01*
X117544285Y-106913300D02*
X117515714Y-106870442D01*
X117515714Y-106870442D02*
X117458571Y-106827585D01*
X117458571Y-106827585D02*
X117344285Y-106784728D01*
X117344285Y-106784728D02*
X117287142Y-106741871D01*
X117287142Y-106741871D02*
X117258571Y-106699014D01*
X117258571Y-106699014D02*
X117229999Y-106613300D01*
X117229999Y-106613300D02*
X117229999Y-106527585D01*
X117229999Y-106527585D02*
X117258571Y-106441871D01*
X117258571Y-106441871D02*
X117287142Y-106399014D01*
X117287142Y-106399014D02*
X117344285Y-106356157D01*
X117344285Y-106356157D02*
X117487142Y-106356157D01*
X117487142Y-106356157D02*
X117572856Y-106399014D01*
X117772857Y-106356157D02*
X117915714Y-107256157D01*
X117915714Y-107256157D02*
X118030000Y-106613300D01*
X118030000Y-106613300D02*
X118144285Y-107256157D01*
X118144285Y-107256157D02*
X118287143Y-106356157D01*
X118829999Y-107256157D02*
X118487142Y-107256157D01*
X118658571Y-107256157D02*
X118658571Y-106356157D01*
X118658571Y-106356157D02*
X118601428Y-106484728D01*
X118601428Y-106484728D02*
X118544285Y-106570442D01*
X118544285Y-106570442D02*
X118487142Y-106613300D01*
X122851428Y-79721157D02*
X122851428Y-78821157D01*
X122851428Y-78821157D02*
X122994285Y-78821157D01*
X122994285Y-78821157D02*
X123079999Y-78864014D01*
X123079999Y-78864014D02*
X123137142Y-78949728D01*
X123137142Y-78949728D02*
X123165713Y-79035442D01*
X123165713Y-79035442D02*
X123194285Y-79206871D01*
X123194285Y-79206871D02*
X123194285Y-79335442D01*
X123194285Y-79335442D02*
X123165713Y-79506871D01*
X123165713Y-79506871D02*
X123137142Y-79592585D01*
X123137142Y-79592585D02*
X123079999Y-79678300D01*
X123079999Y-79678300D02*
X122994285Y-79721157D01*
X122994285Y-79721157D02*
X122851428Y-79721157D01*
X123765713Y-79721157D02*
X123422856Y-79721157D01*
X123594285Y-79721157D02*
X123594285Y-78821157D01*
X123594285Y-78821157D02*
X123537142Y-78949728D01*
X123537142Y-78949728D02*
X123479999Y-79035442D01*
X123479999Y-79035442D02*
X123422856Y-79078300D01*
X123965714Y-78821157D02*
X124337142Y-78821157D01*
X124337142Y-78821157D02*
X124137142Y-79164014D01*
X124137142Y-79164014D02*
X124222857Y-79164014D01*
X124222857Y-79164014D02*
X124280000Y-79206871D01*
X124280000Y-79206871D02*
X124308571Y-79249728D01*
X124308571Y-79249728D02*
X124337142Y-79335442D01*
X124337142Y-79335442D02*
X124337142Y-79549728D01*
X124337142Y-79549728D02*
X124308571Y-79635442D01*
X124308571Y-79635442D02*
X124280000Y-79678300D01*
X124280000Y-79678300D02*
X124222857Y-79721157D01*
X124222857Y-79721157D02*
X124051428Y-79721157D01*
X124051428Y-79721157D02*
X123994285Y-79678300D01*
X123994285Y-79678300D02*
X123965714Y-79635442D01*
X119474285Y-99755442D02*
X119445713Y-99798300D01*
X119445713Y-99798300D02*
X119359999Y-99841157D01*
X119359999Y-99841157D02*
X119302856Y-99841157D01*
X119302856Y-99841157D02*
X119217142Y-99798300D01*
X119217142Y-99798300D02*
X119159999Y-99712585D01*
X119159999Y-99712585D02*
X119131428Y-99626871D01*
X119131428Y-99626871D02*
X119102856Y-99455442D01*
X119102856Y-99455442D02*
X119102856Y-99326871D01*
X119102856Y-99326871D02*
X119131428Y-99155442D01*
X119131428Y-99155442D02*
X119159999Y-99069728D01*
X119159999Y-99069728D02*
X119217142Y-98984014D01*
X119217142Y-98984014D02*
X119302856Y-98941157D01*
X119302856Y-98941157D02*
X119359999Y-98941157D01*
X119359999Y-98941157D02*
X119445713Y-98984014D01*
X119445713Y-98984014D02*
X119474285Y-99026871D01*
X120045713Y-99841157D02*
X119702856Y-99841157D01*
X119874285Y-99841157D02*
X119874285Y-98941157D01*
X119874285Y-98941157D02*
X119817142Y-99069728D01*
X119817142Y-99069728D02*
X119759999Y-99155442D01*
X119759999Y-99155442D02*
X119702856Y-99198300D01*
X120617142Y-99841157D02*
X120274285Y-99841157D01*
X120445714Y-99841157D02*
X120445714Y-98941157D01*
X120445714Y-98941157D02*
X120388571Y-99069728D01*
X120388571Y-99069728D02*
X120331428Y-99155442D01*
X120331428Y-99155442D02*
X120274285Y-99198300D01*
X118274285Y-91705442D02*
X118245713Y-91748300D01*
X118245713Y-91748300D02*
X118159999Y-91791157D01*
X118159999Y-91791157D02*
X118102856Y-91791157D01*
X118102856Y-91791157D02*
X118017142Y-91748300D01*
X118017142Y-91748300D02*
X117959999Y-91662585D01*
X117959999Y-91662585D02*
X117931428Y-91576871D01*
X117931428Y-91576871D02*
X117902856Y-91405442D01*
X117902856Y-91405442D02*
X117902856Y-91276871D01*
X117902856Y-91276871D02*
X117931428Y-91105442D01*
X117931428Y-91105442D02*
X117959999Y-91019728D01*
X117959999Y-91019728D02*
X118017142Y-90934014D01*
X118017142Y-90934014D02*
X118102856Y-90891157D01*
X118102856Y-90891157D02*
X118159999Y-90891157D01*
X118159999Y-90891157D02*
X118245713Y-90934014D01*
X118245713Y-90934014D02*
X118274285Y-90976871D01*
X118845713Y-91791157D02*
X118502856Y-91791157D01*
X118674285Y-91791157D02*
X118674285Y-90891157D01*
X118674285Y-90891157D02*
X118617142Y-91019728D01*
X118617142Y-91019728D02*
X118559999Y-91105442D01*
X118559999Y-91105442D02*
X118502856Y-91148300D01*
X119360000Y-91191157D02*
X119360000Y-91791157D01*
X119217142Y-90848300D02*
X119074285Y-91491157D01*
X119074285Y-91491157D02*
X119445714Y-91491157D01*
X120862857Y-95181157D02*
X120862857Y-95909728D01*
X120862857Y-95909728D02*
X120891428Y-95995442D01*
X120891428Y-95995442D02*
X120920000Y-96038300D01*
X120920000Y-96038300D02*
X120977142Y-96081157D01*
X120977142Y-96081157D02*
X121091428Y-96081157D01*
X121091428Y-96081157D02*
X121148571Y-96038300D01*
X121148571Y-96038300D02*
X121177142Y-95995442D01*
X121177142Y-95995442D02*
X121205714Y-95909728D01*
X121205714Y-95909728D02*
X121205714Y-95181157D01*
X121748571Y-95481157D02*
X121748571Y-96081157D01*
X121605713Y-95138300D02*
X121462856Y-95781157D01*
X121462856Y-95781157D02*
X121834285Y-95781157D01*
X119450000Y-86061157D02*
X119250000Y-85632585D01*
X119107143Y-86061157D02*
X119107143Y-85161157D01*
X119107143Y-85161157D02*
X119335714Y-85161157D01*
X119335714Y-85161157D02*
X119392857Y-85204014D01*
X119392857Y-85204014D02*
X119421428Y-85246871D01*
X119421428Y-85246871D02*
X119450000Y-85332585D01*
X119450000Y-85332585D02*
X119450000Y-85461157D01*
X119450000Y-85461157D02*
X119421428Y-85546871D01*
X119421428Y-85546871D02*
X119392857Y-85589728D01*
X119392857Y-85589728D02*
X119335714Y-85632585D01*
X119335714Y-85632585D02*
X119107143Y-85632585D01*
X119650000Y-85161157D02*
X120050000Y-85161157D01*
X120050000Y-85161157D02*
X119792857Y-86061157D01*
X129864284Y-95731157D02*
X129664284Y-95302585D01*
X129521427Y-95731157D02*
X129521427Y-94831157D01*
X129521427Y-94831157D02*
X129749998Y-94831157D01*
X129749998Y-94831157D02*
X129807141Y-94874014D01*
X129807141Y-94874014D02*
X129835712Y-94916871D01*
X129835712Y-94916871D02*
X129864284Y-95002585D01*
X129864284Y-95002585D02*
X129864284Y-95131157D01*
X129864284Y-95131157D02*
X129835712Y-95216871D01*
X129835712Y-95216871D02*
X129807141Y-95259728D01*
X129807141Y-95259728D02*
X129749998Y-95302585D01*
X129749998Y-95302585D02*
X129521427Y-95302585D01*
X130435712Y-95731157D02*
X130092855Y-95731157D01*
X130264284Y-95731157D02*
X130264284Y-94831157D01*
X130264284Y-94831157D02*
X130207141Y-94959728D01*
X130207141Y-94959728D02*
X130149998Y-95045442D01*
X130149998Y-95045442D02*
X130092855Y-95088300D01*
X131007141Y-95731157D02*
X130664284Y-95731157D01*
X130835713Y-95731157D02*
X130835713Y-94831157D01*
X130835713Y-94831157D02*
X130778570Y-94959728D01*
X130778570Y-94959728D02*
X130721427Y-95045442D01*
X130721427Y-95045442D02*
X130664284Y-95088300D01*
X115130000Y-101001157D02*
X114930000Y-100572585D01*
X114787143Y-101001157D02*
X114787143Y-100101157D01*
X114787143Y-100101157D02*
X115015714Y-100101157D01*
X115015714Y-100101157D02*
X115072857Y-100144014D01*
X115072857Y-100144014D02*
X115101428Y-100186871D01*
X115101428Y-100186871D02*
X115130000Y-100272585D01*
X115130000Y-100272585D02*
X115130000Y-100401157D01*
X115130000Y-100401157D02*
X115101428Y-100486871D01*
X115101428Y-100486871D02*
X115072857Y-100529728D01*
X115072857Y-100529728D02*
X115015714Y-100572585D01*
X115015714Y-100572585D02*
X114787143Y-100572585D01*
X115330000Y-100101157D02*
X115701428Y-100101157D01*
X115701428Y-100101157D02*
X115501428Y-100444014D01*
X115501428Y-100444014D02*
X115587143Y-100444014D01*
X115587143Y-100444014D02*
X115644286Y-100486871D01*
X115644286Y-100486871D02*
X115672857Y-100529728D01*
X115672857Y-100529728D02*
X115701428Y-100615442D01*
X115701428Y-100615442D02*
X115701428Y-100829728D01*
X115701428Y-100829728D02*
X115672857Y-100915442D01*
X115672857Y-100915442D02*
X115644286Y-100958300D01*
X115644286Y-100958300D02*
X115587143Y-101001157D01*
X115587143Y-101001157D02*
X115415714Y-101001157D01*
X115415714Y-101001157D02*
X115358571Y-100958300D01*
X115358571Y-100958300D02*
X115330000Y-100915442D01*
X119875000Y-97675442D02*
X119846428Y-97718300D01*
X119846428Y-97718300D02*
X119760714Y-97761157D01*
X119760714Y-97761157D02*
X119703571Y-97761157D01*
X119703571Y-97761157D02*
X119617857Y-97718300D01*
X119617857Y-97718300D02*
X119560714Y-97632585D01*
X119560714Y-97632585D02*
X119532143Y-97546871D01*
X119532143Y-97546871D02*
X119503571Y-97375442D01*
X119503571Y-97375442D02*
X119503571Y-97246871D01*
X119503571Y-97246871D02*
X119532143Y-97075442D01*
X119532143Y-97075442D02*
X119560714Y-96989728D01*
X119560714Y-96989728D02*
X119617857Y-96904014D01*
X119617857Y-96904014D02*
X119703571Y-96861157D01*
X119703571Y-96861157D02*
X119760714Y-96861157D01*
X119760714Y-96861157D02*
X119846428Y-96904014D01*
X119846428Y-96904014D02*
X119875000Y-96946871D01*
X120446428Y-97761157D02*
X120103571Y-97761157D01*
X120275000Y-97761157D02*
X120275000Y-96861157D01*
X120275000Y-96861157D02*
X120217857Y-96989728D01*
X120217857Y-96989728D02*
X120160714Y-97075442D01*
X120160714Y-97075442D02*
X120103571Y-97118300D01*
X134764284Y-94545442D02*
X134735712Y-94588300D01*
X134735712Y-94588300D02*
X134649998Y-94631157D01*
X134649998Y-94631157D02*
X134592855Y-94631157D01*
X134592855Y-94631157D02*
X134507141Y-94588300D01*
X134507141Y-94588300D02*
X134449998Y-94502585D01*
X134449998Y-94502585D02*
X134421427Y-94416871D01*
X134421427Y-94416871D02*
X134392855Y-94245442D01*
X134392855Y-94245442D02*
X134392855Y-94116871D01*
X134392855Y-94116871D02*
X134421427Y-93945442D01*
X134421427Y-93945442D02*
X134449998Y-93859728D01*
X134449998Y-93859728D02*
X134507141Y-93774014D01*
X134507141Y-93774014D02*
X134592855Y-93731157D01*
X134592855Y-93731157D02*
X134649998Y-93731157D01*
X134649998Y-93731157D02*
X134735712Y-93774014D01*
X134735712Y-93774014D02*
X134764284Y-93816871D01*
X134992855Y-93816871D02*
X135021427Y-93774014D01*
X135021427Y-93774014D02*
X135078570Y-93731157D01*
X135078570Y-93731157D02*
X135221427Y-93731157D01*
X135221427Y-93731157D02*
X135278570Y-93774014D01*
X135278570Y-93774014D02*
X135307141Y-93816871D01*
X135307141Y-93816871D02*
X135335712Y-93902585D01*
X135335712Y-93902585D02*
X135335712Y-93988300D01*
X135335712Y-93988300D02*
X135307141Y-94116871D01*
X135307141Y-94116871D02*
X134964284Y-94631157D01*
X134964284Y-94631157D02*
X135335712Y-94631157D01*
X135678570Y-94116871D02*
X135621427Y-94074014D01*
X135621427Y-94074014D02*
X135592856Y-94031157D01*
X135592856Y-94031157D02*
X135564284Y-93945442D01*
X135564284Y-93945442D02*
X135564284Y-93902585D01*
X135564284Y-93902585D02*
X135592856Y-93816871D01*
X135592856Y-93816871D02*
X135621427Y-93774014D01*
X135621427Y-93774014D02*
X135678570Y-93731157D01*
X135678570Y-93731157D02*
X135792856Y-93731157D01*
X135792856Y-93731157D02*
X135849999Y-93774014D01*
X135849999Y-93774014D02*
X135878570Y-93816871D01*
X135878570Y-93816871D02*
X135907141Y-93902585D01*
X135907141Y-93902585D02*
X135907141Y-93945442D01*
X135907141Y-93945442D02*
X135878570Y-94031157D01*
X135878570Y-94031157D02*
X135849999Y-94074014D01*
X135849999Y-94074014D02*
X135792856Y-94116871D01*
X135792856Y-94116871D02*
X135678570Y-94116871D01*
X135678570Y-94116871D02*
X135621427Y-94159728D01*
X135621427Y-94159728D02*
X135592856Y-94202585D01*
X135592856Y-94202585D02*
X135564284Y-94288300D01*
X135564284Y-94288300D02*
X135564284Y-94459728D01*
X135564284Y-94459728D02*
X135592856Y-94545442D01*
X135592856Y-94545442D02*
X135621427Y-94588300D01*
X135621427Y-94588300D02*
X135678570Y-94631157D01*
X135678570Y-94631157D02*
X135792856Y-94631157D01*
X135792856Y-94631157D02*
X135849999Y-94588300D01*
X135849999Y-94588300D02*
X135878570Y-94545442D01*
X135878570Y-94545442D02*
X135907141Y-94459728D01*
X135907141Y-94459728D02*
X135907141Y-94288300D01*
X135907141Y-94288300D02*
X135878570Y-94202585D01*
X135878570Y-94202585D02*
X135849999Y-94159728D01*
X135849999Y-94159728D02*
X135792856Y-94116871D01*
X130920000Y-109100442D02*
X130891428Y-109143300D01*
X130891428Y-109143300D02*
X130805714Y-109186157D01*
X130805714Y-109186157D02*
X130748571Y-109186157D01*
X130748571Y-109186157D02*
X130662857Y-109143300D01*
X130662857Y-109143300D02*
X130605714Y-109057585D01*
X130605714Y-109057585D02*
X130577143Y-108971871D01*
X130577143Y-108971871D02*
X130548571Y-108800442D01*
X130548571Y-108800442D02*
X130548571Y-108671871D01*
X130548571Y-108671871D02*
X130577143Y-108500442D01*
X130577143Y-108500442D02*
X130605714Y-108414728D01*
X130605714Y-108414728D02*
X130662857Y-108329014D01*
X130662857Y-108329014D02*
X130748571Y-108286157D01*
X130748571Y-108286157D02*
X130805714Y-108286157D01*
X130805714Y-108286157D02*
X130891428Y-108329014D01*
X130891428Y-108329014D02*
X130920000Y-108371871D01*
X131434286Y-108286157D02*
X131320000Y-108286157D01*
X131320000Y-108286157D02*
X131262857Y-108329014D01*
X131262857Y-108329014D02*
X131234286Y-108371871D01*
X131234286Y-108371871D02*
X131177143Y-108500442D01*
X131177143Y-108500442D02*
X131148571Y-108671871D01*
X131148571Y-108671871D02*
X131148571Y-109014728D01*
X131148571Y-109014728D02*
X131177143Y-109100442D01*
X131177143Y-109100442D02*
X131205714Y-109143300D01*
X131205714Y-109143300D02*
X131262857Y-109186157D01*
X131262857Y-109186157D02*
X131377143Y-109186157D01*
X131377143Y-109186157D02*
X131434286Y-109143300D01*
X131434286Y-109143300D02*
X131462857Y-109100442D01*
X131462857Y-109100442D02*
X131491428Y-109014728D01*
X131491428Y-109014728D02*
X131491428Y-108800442D01*
X131491428Y-108800442D02*
X131462857Y-108714728D01*
X131462857Y-108714728D02*
X131434286Y-108671871D01*
X131434286Y-108671871D02*
X131377143Y-108629014D01*
X131377143Y-108629014D02*
X131262857Y-108629014D01*
X131262857Y-108629014D02*
X131205714Y-108671871D01*
X131205714Y-108671871D02*
X131177143Y-108714728D01*
X131177143Y-108714728D02*
X131148571Y-108800442D01*
X111514285Y-102215442D02*
X111485713Y-102258300D01*
X111485713Y-102258300D02*
X111399999Y-102301157D01*
X111399999Y-102301157D02*
X111342856Y-102301157D01*
X111342856Y-102301157D02*
X111257142Y-102258300D01*
X111257142Y-102258300D02*
X111199999Y-102172585D01*
X111199999Y-102172585D02*
X111171428Y-102086871D01*
X111171428Y-102086871D02*
X111142856Y-101915442D01*
X111142856Y-101915442D02*
X111142856Y-101786871D01*
X111142856Y-101786871D02*
X111171428Y-101615442D01*
X111171428Y-101615442D02*
X111199999Y-101529728D01*
X111199999Y-101529728D02*
X111257142Y-101444014D01*
X111257142Y-101444014D02*
X111342856Y-101401157D01*
X111342856Y-101401157D02*
X111399999Y-101401157D01*
X111399999Y-101401157D02*
X111485713Y-101444014D01*
X111485713Y-101444014D02*
X111514285Y-101486871D01*
X112085713Y-102301157D02*
X111742856Y-102301157D01*
X111914285Y-102301157D02*
X111914285Y-101401157D01*
X111914285Y-101401157D02*
X111857142Y-101529728D01*
X111857142Y-101529728D02*
X111799999Y-101615442D01*
X111799999Y-101615442D02*
X111742856Y-101658300D01*
X112285714Y-101401157D02*
X112657142Y-101401157D01*
X112657142Y-101401157D02*
X112457142Y-101744014D01*
X112457142Y-101744014D02*
X112542857Y-101744014D01*
X112542857Y-101744014D02*
X112600000Y-101786871D01*
X112600000Y-101786871D02*
X112628571Y-101829728D01*
X112628571Y-101829728D02*
X112657142Y-101915442D01*
X112657142Y-101915442D02*
X112657142Y-102129728D01*
X112657142Y-102129728D02*
X112628571Y-102215442D01*
X112628571Y-102215442D02*
X112600000Y-102258300D01*
X112600000Y-102258300D02*
X112542857Y-102301157D01*
X112542857Y-102301157D02*
X112371428Y-102301157D01*
X112371428Y-102301157D02*
X112314285Y-102258300D01*
X112314285Y-102258300D02*
X112285714Y-102215442D01*
X116402857Y-95321157D02*
X116402857Y-96049728D01*
X116402857Y-96049728D02*
X116431428Y-96135442D01*
X116431428Y-96135442D02*
X116460000Y-96178300D01*
X116460000Y-96178300D02*
X116517142Y-96221157D01*
X116517142Y-96221157D02*
X116631428Y-96221157D01*
X116631428Y-96221157D02*
X116688571Y-96178300D01*
X116688571Y-96178300D02*
X116717142Y-96135442D01*
X116717142Y-96135442D02*
X116745714Y-96049728D01*
X116745714Y-96049728D02*
X116745714Y-95321157D01*
X117345713Y-96221157D02*
X117002856Y-96221157D01*
X117174285Y-96221157D02*
X117174285Y-95321157D01*
X117174285Y-95321157D02*
X117117142Y-95449728D01*
X117117142Y-95449728D02*
X117059999Y-95535442D01*
X117059999Y-95535442D02*
X117002856Y-95578300D01*
X132744285Y-106782585D02*
X132744285Y-107211157D01*
X132544285Y-106311157D02*
X132744285Y-106782585D01*
X132744285Y-106782585D02*
X132944285Y-106311157D01*
X133458571Y-107211157D02*
X133115714Y-107211157D01*
X133287143Y-107211157D02*
X133287143Y-106311157D01*
X133287143Y-106311157D02*
X133230000Y-106439728D01*
X133230000Y-106439728D02*
X133172857Y-106525442D01*
X133172857Y-106525442D02*
X133115714Y-106568300D01*
X125064285Y-79875442D02*
X125035713Y-79918300D01*
X125035713Y-79918300D02*
X124949999Y-79961157D01*
X124949999Y-79961157D02*
X124892856Y-79961157D01*
X124892856Y-79961157D02*
X124807142Y-79918300D01*
X124807142Y-79918300D02*
X124749999Y-79832585D01*
X124749999Y-79832585D02*
X124721428Y-79746871D01*
X124721428Y-79746871D02*
X124692856Y-79575442D01*
X124692856Y-79575442D02*
X124692856Y-79446871D01*
X124692856Y-79446871D02*
X124721428Y-79275442D01*
X124721428Y-79275442D02*
X124749999Y-79189728D01*
X124749999Y-79189728D02*
X124807142Y-79104014D01*
X124807142Y-79104014D02*
X124892856Y-79061157D01*
X124892856Y-79061157D02*
X124949999Y-79061157D01*
X124949999Y-79061157D02*
X125035713Y-79104014D01*
X125035713Y-79104014D02*
X125064285Y-79146871D01*
X125292856Y-79146871D02*
X125321428Y-79104014D01*
X125321428Y-79104014D02*
X125378571Y-79061157D01*
X125378571Y-79061157D02*
X125521428Y-79061157D01*
X125521428Y-79061157D02*
X125578571Y-79104014D01*
X125578571Y-79104014D02*
X125607142Y-79146871D01*
X125607142Y-79146871D02*
X125635713Y-79232585D01*
X125635713Y-79232585D02*
X125635713Y-79318300D01*
X125635713Y-79318300D02*
X125607142Y-79446871D01*
X125607142Y-79446871D02*
X125264285Y-79961157D01*
X125264285Y-79961157D02*
X125635713Y-79961157D01*
X126150000Y-79361157D02*
X126150000Y-79961157D01*
X126007142Y-79018300D02*
X125864285Y-79661157D01*
X125864285Y-79661157D02*
X126235714Y-79661157D01*
X122070000Y-108695442D02*
X122041428Y-108738300D01*
X122041428Y-108738300D02*
X121955714Y-108781157D01*
X121955714Y-108781157D02*
X121898571Y-108781157D01*
X121898571Y-108781157D02*
X121812857Y-108738300D01*
X121812857Y-108738300D02*
X121755714Y-108652585D01*
X121755714Y-108652585D02*
X121727143Y-108566871D01*
X121727143Y-108566871D02*
X121698571Y-108395442D01*
X121698571Y-108395442D02*
X121698571Y-108266871D01*
X121698571Y-108266871D02*
X121727143Y-108095442D01*
X121727143Y-108095442D02*
X121755714Y-108009728D01*
X121755714Y-108009728D02*
X121812857Y-107924014D01*
X121812857Y-107924014D02*
X121898571Y-107881157D01*
X121898571Y-107881157D02*
X121955714Y-107881157D01*
X121955714Y-107881157D02*
X122041428Y-107924014D01*
X122041428Y-107924014D02*
X122070000Y-107966871D01*
X122270000Y-107881157D02*
X122641428Y-107881157D01*
X122641428Y-107881157D02*
X122441428Y-108224014D01*
X122441428Y-108224014D02*
X122527143Y-108224014D01*
X122527143Y-108224014D02*
X122584286Y-108266871D01*
X122584286Y-108266871D02*
X122612857Y-108309728D01*
X122612857Y-108309728D02*
X122641428Y-108395442D01*
X122641428Y-108395442D02*
X122641428Y-108609728D01*
X122641428Y-108609728D02*
X122612857Y-108695442D01*
X122612857Y-108695442D02*
X122584286Y-108738300D01*
X122584286Y-108738300D02*
X122527143Y-108781157D01*
X122527143Y-108781157D02*
X122355714Y-108781157D01*
X122355714Y-108781157D02*
X122298571Y-108738300D01*
X122298571Y-108738300D02*
X122270000Y-108695442D01*
X118824999Y-101815442D02*
X118796427Y-101858300D01*
X118796427Y-101858300D02*
X118710713Y-101901157D01*
X118710713Y-101901157D02*
X118653570Y-101901157D01*
X118653570Y-101901157D02*
X118567856Y-101858300D01*
X118567856Y-101858300D02*
X118510713Y-101772585D01*
X118510713Y-101772585D02*
X118482142Y-101686871D01*
X118482142Y-101686871D02*
X118453570Y-101515442D01*
X118453570Y-101515442D02*
X118453570Y-101386871D01*
X118453570Y-101386871D02*
X118482142Y-101215442D01*
X118482142Y-101215442D02*
X118510713Y-101129728D01*
X118510713Y-101129728D02*
X118567856Y-101044014D01*
X118567856Y-101044014D02*
X118653570Y-101001157D01*
X118653570Y-101001157D02*
X118710713Y-101001157D01*
X118710713Y-101001157D02*
X118796427Y-101044014D01*
X118796427Y-101044014D02*
X118824999Y-101086871D01*
X119167856Y-101386871D02*
X119110713Y-101344014D01*
X119110713Y-101344014D02*
X119082142Y-101301157D01*
X119082142Y-101301157D02*
X119053570Y-101215442D01*
X119053570Y-101215442D02*
X119053570Y-101172585D01*
X119053570Y-101172585D02*
X119082142Y-101086871D01*
X119082142Y-101086871D02*
X119110713Y-101044014D01*
X119110713Y-101044014D02*
X119167856Y-101001157D01*
X119167856Y-101001157D02*
X119282142Y-101001157D01*
X119282142Y-101001157D02*
X119339285Y-101044014D01*
X119339285Y-101044014D02*
X119367856Y-101086871D01*
X119367856Y-101086871D02*
X119396427Y-101172585D01*
X119396427Y-101172585D02*
X119396427Y-101215442D01*
X119396427Y-101215442D02*
X119367856Y-101301157D01*
X119367856Y-101301157D02*
X119339285Y-101344014D01*
X119339285Y-101344014D02*
X119282142Y-101386871D01*
X119282142Y-101386871D02*
X119167856Y-101386871D01*
X119167856Y-101386871D02*
X119110713Y-101429728D01*
X119110713Y-101429728D02*
X119082142Y-101472585D01*
X119082142Y-101472585D02*
X119053570Y-101558300D01*
X119053570Y-101558300D02*
X119053570Y-101729728D01*
X119053570Y-101729728D02*
X119082142Y-101815442D01*
X119082142Y-101815442D02*
X119110713Y-101858300D01*
X119110713Y-101858300D02*
X119167856Y-101901157D01*
X119167856Y-101901157D02*
X119282142Y-101901157D01*
X119282142Y-101901157D02*
X119339285Y-101858300D01*
X119339285Y-101858300D02*
X119367856Y-101815442D01*
X119367856Y-101815442D02*
X119396427Y-101729728D01*
X119396427Y-101729728D02*
X119396427Y-101558300D01*
X119396427Y-101558300D02*
X119367856Y-101472585D01*
X119367856Y-101472585D02*
X119339285Y-101429728D01*
X119339285Y-101429728D02*
X119282142Y-101386871D01*
X110314285Y-81261157D02*
X110114285Y-80832585D01*
X109971428Y-81261157D02*
X109971428Y-80361157D01*
X109971428Y-80361157D02*
X110199999Y-80361157D01*
X110199999Y-80361157D02*
X110257142Y-80404014D01*
X110257142Y-80404014D02*
X110285713Y-80446871D01*
X110285713Y-80446871D02*
X110314285Y-80532585D01*
X110314285Y-80532585D02*
X110314285Y-80661157D01*
X110314285Y-80661157D02*
X110285713Y-80746871D01*
X110285713Y-80746871D02*
X110257142Y-80789728D01*
X110257142Y-80789728D02*
X110199999Y-80832585D01*
X110199999Y-80832585D02*
X109971428Y-80832585D01*
X110885713Y-81261157D02*
X110542856Y-81261157D01*
X110714285Y-81261157D02*
X110714285Y-80361157D01*
X110714285Y-80361157D02*
X110657142Y-80489728D01*
X110657142Y-80489728D02*
X110599999Y-80575442D01*
X110599999Y-80575442D02*
X110542856Y-80618300D01*
X111428571Y-80361157D02*
X111142857Y-80361157D01*
X111142857Y-80361157D02*
X111114285Y-80789728D01*
X111114285Y-80789728D02*
X111142857Y-80746871D01*
X111142857Y-80746871D02*
X111200000Y-80704014D01*
X111200000Y-80704014D02*
X111342857Y-80704014D01*
X111342857Y-80704014D02*
X111400000Y-80746871D01*
X111400000Y-80746871D02*
X111428571Y-80789728D01*
X111428571Y-80789728D02*
X111457142Y-80875442D01*
X111457142Y-80875442D02*
X111457142Y-81089728D01*
X111457142Y-81089728D02*
X111428571Y-81175442D01*
X111428571Y-81175442D02*
X111400000Y-81218300D01*
X111400000Y-81218300D02*
X111342857Y-81261157D01*
X111342857Y-81261157D02*
X111200000Y-81261157D01*
X111200000Y-81261157D02*
X111142857Y-81218300D01*
X111142857Y-81218300D02*
X111114285Y-81175442D01*
X116481428Y-81801157D02*
X116481428Y-80901157D01*
X116481428Y-80901157D02*
X116624285Y-80901157D01*
X116624285Y-80901157D02*
X116709999Y-80944014D01*
X116709999Y-80944014D02*
X116767142Y-81029728D01*
X116767142Y-81029728D02*
X116795713Y-81115442D01*
X116795713Y-81115442D02*
X116824285Y-81286871D01*
X116824285Y-81286871D02*
X116824285Y-81415442D01*
X116824285Y-81415442D02*
X116795713Y-81586871D01*
X116795713Y-81586871D02*
X116767142Y-81672585D01*
X116767142Y-81672585D02*
X116709999Y-81758300D01*
X116709999Y-81758300D02*
X116624285Y-81801157D01*
X116624285Y-81801157D02*
X116481428Y-81801157D01*
X117395713Y-81801157D02*
X117052856Y-81801157D01*
X117224285Y-81801157D02*
X117224285Y-80901157D01*
X117224285Y-80901157D02*
X117167142Y-81029728D01*
X117167142Y-81029728D02*
X117109999Y-81115442D01*
X117109999Y-81115442D02*
X117052856Y-81158300D01*
X117967142Y-81801157D02*
X117624285Y-81801157D01*
X117795714Y-81801157D02*
X117795714Y-80901157D01*
X117795714Y-80901157D02*
X117738571Y-81029728D01*
X117738571Y-81029728D02*
X117681428Y-81115442D01*
X117681428Y-81115442D02*
X117624285Y-81158300D01*
X123504284Y-83851157D02*
X123304284Y-83422585D01*
X123161427Y-83851157D02*
X123161427Y-82951157D01*
X123161427Y-82951157D02*
X123389998Y-82951157D01*
X123389998Y-82951157D02*
X123447141Y-82994014D01*
X123447141Y-82994014D02*
X123475712Y-83036871D01*
X123475712Y-83036871D02*
X123504284Y-83122585D01*
X123504284Y-83122585D02*
X123504284Y-83251157D01*
X123504284Y-83251157D02*
X123475712Y-83336871D01*
X123475712Y-83336871D02*
X123447141Y-83379728D01*
X123447141Y-83379728D02*
X123389998Y-83422585D01*
X123389998Y-83422585D02*
X123161427Y-83422585D01*
X124075712Y-83851157D02*
X123732855Y-83851157D01*
X123904284Y-83851157D02*
X123904284Y-82951157D01*
X123904284Y-82951157D02*
X123847141Y-83079728D01*
X123847141Y-83079728D02*
X123789998Y-83165442D01*
X123789998Y-83165442D02*
X123732855Y-83208300D01*
X124447141Y-82951157D02*
X124504284Y-82951157D01*
X124504284Y-82951157D02*
X124561427Y-82994014D01*
X124561427Y-82994014D02*
X124589999Y-83036871D01*
X124589999Y-83036871D02*
X124618570Y-83122585D01*
X124618570Y-83122585D02*
X124647141Y-83294014D01*
X124647141Y-83294014D02*
X124647141Y-83508300D01*
X124647141Y-83508300D02*
X124618570Y-83679728D01*
X124618570Y-83679728D02*
X124589999Y-83765442D01*
X124589999Y-83765442D02*
X124561427Y-83808300D01*
X124561427Y-83808300D02*
X124504284Y-83851157D01*
X124504284Y-83851157D02*
X124447141Y-83851157D01*
X124447141Y-83851157D02*
X124389999Y-83808300D01*
X124389999Y-83808300D02*
X124361427Y-83765442D01*
X124361427Y-83765442D02*
X124332856Y-83679728D01*
X124332856Y-83679728D02*
X124304284Y-83508300D01*
X124304284Y-83508300D02*
X124304284Y-83294014D01*
X124304284Y-83294014D02*
X124332856Y-83122585D01*
X124332856Y-83122585D02*
X124361427Y-83036871D01*
X124361427Y-83036871D02*
X124389999Y-82994014D01*
X124389999Y-82994014D02*
X124447141Y-82951157D01*
X115130000Y-99551157D02*
X114930000Y-99122585D01*
X114787143Y-99551157D02*
X114787143Y-98651157D01*
X114787143Y-98651157D02*
X115015714Y-98651157D01*
X115015714Y-98651157D02*
X115072857Y-98694014D01*
X115072857Y-98694014D02*
X115101428Y-98736871D01*
X115101428Y-98736871D02*
X115130000Y-98822585D01*
X115130000Y-98822585D02*
X115130000Y-98951157D01*
X115130000Y-98951157D02*
X115101428Y-99036871D01*
X115101428Y-99036871D02*
X115072857Y-99079728D01*
X115072857Y-99079728D02*
X115015714Y-99122585D01*
X115015714Y-99122585D02*
X114787143Y-99122585D01*
X115672857Y-98651157D02*
X115387143Y-98651157D01*
X115387143Y-98651157D02*
X115358571Y-99079728D01*
X115358571Y-99079728D02*
X115387143Y-99036871D01*
X115387143Y-99036871D02*
X115444286Y-98994014D01*
X115444286Y-98994014D02*
X115587143Y-98994014D01*
X115587143Y-98994014D02*
X115644286Y-99036871D01*
X115644286Y-99036871D02*
X115672857Y-99079728D01*
X115672857Y-99079728D02*
X115701428Y-99165442D01*
X115701428Y-99165442D02*
X115701428Y-99379728D01*
X115701428Y-99379728D02*
X115672857Y-99465442D01*
X115672857Y-99465442D02*
X115644286Y-99508300D01*
X115644286Y-99508300D02*
X115587143Y-99551157D01*
X115587143Y-99551157D02*
X115444286Y-99551157D01*
X115444286Y-99551157D02*
X115387143Y-99508300D01*
X115387143Y-99508300D02*
X115358571Y-99465442D01*
D13*
%TO.C,U5*%
X134145310Y-97140000D02*
X134145310Y-99090000D01*
X136245310Y-97140000D02*
X136245310Y-99090000D01*
X135895310Y-97040000D02*
X135745310Y-96840000D01*
X136045310Y-96840000D01*
X135895310Y-97040000D01*
G36*
X135895310Y-97040000D02*
G01*
X135745310Y-96840000D01*
X136045310Y-96840000D01*
X135895310Y-97040000D01*
G37*
D14*
%TO.C,U7*%
X133437499Y-89261250D02*
X133437499Y-89721250D01*
X133437499Y-85741250D02*
X133437499Y-86441250D01*
X132737499Y-89961250D02*
X133137499Y-89961250D01*
X132737499Y-85741250D02*
X133437499Y-85741250D01*
X129917499Y-89961250D02*
X129217499Y-89961250D01*
X129917499Y-85741250D02*
X129217499Y-85741250D01*
X129217499Y-89961250D02*
X129217499Y-89261250D01*
X129217499Y-85741250D02*
X129217499Y-86441250D01*
X133677499Y-90291250D02*
X133197499Y-90291250D01*
X133437499Y-89961250D01*
X133677499Y-90291250D01*
G36*
X133677499Y-90291250D02*
G01*
X133197499Y-90291250D01*
X133437499Y-89961250D01*
X133677499Y-90291250D01*
G37*
D12*
%TO.C,J1*%
X104233602Y-92010000D02*
X105733602Y-92010000D01*
X100133602Y-92010000D02*
X101833602Y-92010000D01*
X104233602Y-101210000D02*
X105733602Y-101210000D01*
X100133602Y-101210000D02*
X101833602Y-101210000D01*
D14*
%TO.C,U3*%
X117530000Y-105230000D02*
X114230000Y-105230000D01*
X117030000Y-103030000D02*
X114430000Y-103030000D01*
%TO.C,C2*%
X123600000Y-97637836D02*
X123600000Y-97422164D01*
X124320000Y-97637836D02*
X124320000Y-97422164D01*
%TO.C,D21*%
X124835000Y-96155000D02*
X124835000Y-98440000D01*
X126305000Y-96155000D02*
X124835000Y-96155000D01*
X126305000Y-98440000D02*
X126305000Y-96155000D01*
%TO.C,C33*%
X161007836Y-125030000D02*
X160792164Y-125030000D01*
X161007836Y-125750000D02*
X160792164Y-125750000D01*
%TO.C,U2*%
X124264999Y-99947500D02*
X124914999Y-99947500D01*
X124264999Y-100597500D02*
X124264999Y-99947500D01*
X124264999Y-106517500D02*
X124264999Y-107167500D01*
X131484999Y-99947500D02*
X130834999Y-99947500D01*
X131484999Y-100597500D02*
X131484999Y-99947500D01*
X131484999Y-106517500D02*
X131484999Y-107167500D01*
X131484999Y-107167500D02*
X130834999Y-107167500D01*
%TO.C,C22*%
X129922164Y-69450000D02*
X130137836Y-69450000D01*
X129922164Y-70170000D02*
X130137836Y-70170000D01*
%TO.C,Q1*%
X110239999Y-84870000D02*
X110239999Y-85800000D01*
X110239999Y-84870000D02*
X111699999Y-84870000D01*
X110239999Y-88030000D02*
X110239999Y-87100000D01*
X110239999Y-88030000D02*
X112399999Y-88030000D01*
%TO.C,R16*%
X126217500Y-92922742D02*
X126217500Y-93397258D01*
X127262500Y-92922742D02*
X127262500Y-93397258D01*
%TO.C,R9*%
X119787258Y-82177500D02*
X119312742Y-82177500D01*
X119787258Y-83222500D02*
X119312742Y-83222500D01*
%TO.C,D3*%
X162650000Y-69300000D02*
X166850000Y-69300000D01*
X162650000Y-70700000D02*
X162650000Y-70100000D01*
X162650000Y-70700000D02*
X163750000Y-70700000D01*
X165850000Y-70700000D02*
X166850000Y-70700000D01*
%TO.C,C32*%
X151537836Y-125010000D02*
X151322164Y-125010000D01*
X151537836Y-125730000D02*
X151322164Y-125730000D01*
%TO.C,D9*%
X112810000Y-88590000D02*
X108950000Y-88590000D01*
X112810000Y-90590000D02*
X108950000Y-90590000D01*
X112810000Y-90590000D02*
X112810000Y-88590000D01*
%TO.C,C34*%
X170537836Y-125060000D02*
X170322164Y-125060000D01*
X170537836Y-125780000D02*
X170322164Y-125780000D01*
%TO.C,D19*%
X172950000Y-124540027D02*
X171950000Y-124540027D01*
X176150000Y-124540027D02*
X175050000Y-124540027D01*
X176150000Y-124540027D02*
X176150000Y-125140027D01*
X176150000Y-125940027D02*
X171950000Y-125940027D01*
%TO.C,SW2*%
X103400000Y-80340000D02*
X105700000Y-80340000D01*
X105700000Y-80340000D02*
X105700000Y-81540000D01*
X105700000Y-84040000D02*
X105700000Y-83340000D01*
X105700000Y-86540000D02*
X105700000Y-85840000D01*
X105700000Y-88340000D02*
X105700000Y-89540000D01*
X105700000Y-89540000D02*
X103400000Y-89540000D01*
%TO.C,C16*%
X187332164Y-69420000D02*
X187547836Y-69420000D01*
X187332164Y-70140000D02*
X187547836Y-70140000D01*
%TO.C,R4*%
X112892742Y-97067500D02*
X113367258Y-97067500D01*
X112892742Y-98112500D02*
X113367258Y-98112500D01*
%TO.C,C12*%
X120632835Y-102260000D02*
X120417163Y-102260000D01*
X120632835Y-102980000D02*
X120417163Y-102980000D01*
%TO.C,C26*%
X126874999Y-82157836D02*
X126874999Y-81942164D01*
X127594999Y-82157836D02*
X127594999Y-81942164D01*
%TO.C,D12*%
X115470000Y-124520000D02*
X114470000Y-124520000D01*
X118670000Y-124520000D02*
X117570000Y-124520000D01*
X118670000Y-124520000D02*
X118670000Y-125120000D01*
X118670000Y-125920000D02*
X114470000Y-125920000D01*
%TO.C,U6*%
X116062500Y-88350000D02*
X116062500Y-87550000D01*
X116062500Y-88350000D02*
X116062500Y-89150000D01*
X119182500Y-88350000D02*
X119182500Y-87550000D01*
X119182500Y-88350000D02*
X119182500Y-89150000D01*
X119462500Y-87290000D02*
X119132500Y-87050000D01*
X119462500Y-86810000D01*
X119462500Y-87290000D01*
G36*
X119462500Y-87290000D02*
G01*
X119132500Y-87050000D01*
X119462500Y-86810000D01*
X119462500Y-87290000D01*
G37*
%TO.C,D10*%
X115700000Y-85035000D02*
X117985000Y-85035000D01*
X117985000Y-83565000D02*
X115700000Y-83565000D01*
X117985000Y-85035000D02*
X117985000Y-83565000D01*
%TO.C,D2*%
X172240000Y-69300000D02*
X176440000Y-69300000D01*
X172240000Y-70700000D02*
X172240000Y-70100000D01*
X172240000Y-70700000D02*
X173340000Y-70700000D01*
X175440000Y-70700000D02*
X176440000Y-70700000D01*
%TO.C,C37*%
X114590000Y-89765580D02*
X114590000Y-89484420D01*
X115610000Y-89765580D02*
X115610000Y-89484420D01*
%TO.C,D5*%
X143480000Y-69300000D02*
X147680000Y-69300000D01*
X143480000Y-70700000D02*
X143480000Y-70100000D01*
X143480000Y-70700000D02*
X144580000Y-70700000D01*
X146680000Y-70700000D02*
X147680000Y-70700000D01*
%TO.C,C20*%
X148942164Y-69410000D02*
X149157836Y-69410000D01*
X148942164Y-70130000D02*
X149157836Y-70130000D01*
%TO.C,C10*%
X134667163Y-102310000D02*
X134882835Y-102310000D01*
X134667163Y-103030000D02*
X134882835Y-103030000D01*
%TO.C,D16*%
X144190000Y-124540027D02*
X143190000Y-124540027D01*
X147390000Y-124540027D02*
X146290000Y-124540027D01*
X147390000Y-124540027D02*
X147390000Y-125140027D01*
X147390000Y-125940027D02*
X143190000Y-125940027D01*
%TO.C,Q2*%
X123589999Y-85685000D02*
X122789999Y-85685000D01*
X123589999Y-85685000D02*
X124389999Y-85685000D01*
X123589999Y-88805000D02*
X122789999Y-88805000D01*
X123589999Y-88805000D02*
X124389999Y-88805000D01*
X125129999Y-89085000D02*
X124649999Y-89085000D01*
X124889999Y-88755000D01*
X125129999Y-89085000D01*
G36*
X125129999Y-89085000D02*
G01*
X124649999Y-89085000D01*
X124889999Y-88755000D01*
X125129999Y-89085000D01*
G37*
%TO.C,R8*%
X119597500Y-88662742D02*
X119597500Y-89137258D01*
X120642500Y-88662742D02*
X120642500Y-89137258D01*
%TO.C,C15*%
X120689999Y-92582164D02*
X120689999Y-92797836D01*
X121409999Y-92582164D02*
X121409999Y-92797836D01*
%TO.C,R13*%
X125987499Y-85262258D02*
X125987499Y-84787742D01*
X127032499Y-85262258D02*
X127032499Y-84787742D01*
%TO.C,C27*%
X135272164Y-88080000D02*
X135487836Y-88080000D01*
X135272164Y-88800000D02*
X135487836Y-88800000D01*
%TO.C,D4*%
X153070000Y-69300000D02*
X157270000Y-69300000D01*
X153070000Y-70700000D02*
X153070000Y-70100000D01*
X153070000Y-70700000D02*
X154170000Y-70700000D01*
X156270000Y-70700000D02*
X157270000Y-70700000D01*
%TO.C,R14*%
X125987499Y-88287258D02*
X125987499Y-87812742D01*
X127032499Y-88287258D02*
X127032499Y-87812742D01*
%TO.C,C5*%
X127199999Y-98177836D02*
X127199999Y-97962164D01*
X127919999Y-98177836D02*
X127919999Y-97962164D01*
%TO.C,R1*%
X110187258Y-104027500D02*
X109712742Y-104027500D01*
X110187258Y-105072500D02*
X109712742Y-105072500D01*
%TO.C,R12*%
X131464999Y-92945242D02*
X131464999Y-93419758D01*
X132509999Y-92945242D02*
X132509999Y-93419758D01*
%TO.C,D18*%
X163410000Y-124510000D02*
X162410000Y-124510000D01*
X166610000Y-124510000D02*
X165510000Y-124510000D01*
X166610000Y-124510000D02*
X166610000Y-125110000D01*
X166610000Y-125910000D02*
X162410000Y-125910000D01*
%TO.C,R6*%
X113367258Y-95567500D02*
X112892742Y-95567500D01*
X113367258Y-96612500D02*
X112892742Y-96612500D01*
%TO.C,D15*%
X134640000Y-124520000D02*
X133640000Y-124520000D01*
X137840000Y-124520000D02*
X136740000Y-124520000D01*
X137840000Y-124520000D02*
X137840000Y-125120000D01*
X137840000Y-125920000D02*
X133640000Y-125920000D01*
%TO.C,C36*%
X114590000Y-86434420D02*
X114590000Y-86715580D01*
X115610000Y-86434420D02*
X115610000Y-86715580D01*
%TO.C,C4*%
X111674999Y-92368748D02*
X111674999Y-92891252D01*
X113144999Y-92368748D02*
X113144999Y-92891252D01*
%TO.C,C9*%
X122614999Y-97627836D02*
X122614999Y-97412164D01*
X123334999Y-97627836D02*
X123334999Y-97412164D01*
%TO.C,C17*%
X177652164Y-69450000D02*
X177867836Y-69450000D01*
X177652164Y-70170000D02*
X177867836Y-70170000D01*
%TO.C,C21*%
X139432164Y-69410000D02*
X139647836Y-69410000D01*
X139432164Y-70130000D02*
X139647836Y-70130000D01*
%TO.C,L2*%
X128272499Y-79626250D02*
X128272499Y-80026250D01*
X128272499Y-79626250D02*
X134472499Y-79626250D01*
X128272499Y-85026250D02*
X128272499Y-84626250D01*
X128272499Y-85026250D02*
X134472499Y-85026250D01*
X134472499Y-79626250D02*
X134472499Y-80026250D01*
X134472499Y-85026250D02*
X134472499Y-84626250D01*
%TO.C,C7*%
X121607836Y-97960000D02*
X121392164Y-97960000D01*
X121607836Y-98680000D02*
X121392164Y-98680000D01*
%TO.C,D8*%
X114730000Y-69300000D02*
X118930000Y-69300000D01*
X114730000Y-70700000D02*
X114730000Y-70100000D01*
X114730000Y-70700000D02*
X115830000Y-70700000D01*
X117930000Y-70700000D02*
X118930000Y-70700000D01*
%TO.C,R2*%
X123332741Y-89317500D02*
X123807257Y-89317500D01*
X123332741Y-90362500D02*
X123807257Y-90362500D01*
%TO.C,D13*%
X122914999Y-79885000D02*
X122914999Y-82170000D01*
X124384999Y-79885000D02*
X122914999Y-79885000D01*
X124384999Y-82170000D02*
X124384999Y-79885000D01*
%TO.C,C11*%
X121607836Y-98940000D02*
X121392164Y-98940000D01*
X121607836Y-99660000D02*
X121392164Y-99660000D01*
%TO.C,C14*%
X118204999Y-93881252D02*
X118204999Y-93358748D01*
X119674999Y-93881252D02*
X119674999Y-93358748D01*
%TO.C,C19*%
X158512164Y-69420000D02*
X158727836Y-69420000D01*
X158512164Y-70140000D02*
X158727836Y-70140000D01*
%TO.C,U4*%
X121939999Y-93120000D02*
X121939999Y-92320000D01*
X121939999Y-93120000D02*
X121939999Y-93920000D01*
X125059999Y-93120000D02*
X125059999Y-92320000D01*
X125059999Y-93120000D02*
X125059999Y-93920000D01*
X121989999Y-94420000D02*
X121659999Y-94660000D01*
X121659999Y-94180000D01*
X121989999Y-94420000D01*
G36*
X121989999Y-94420000D02*
G01*
X121659999Y-94660000D01*
X121659999Y-94180000D01*
X121989999Y-94420000D01*
G37*
%TO.C,D6*%
X133900000Y-69300000D02*
X138100000Y-69300000D01*
X133900000Y-70700000D02*
X133900000Y-70100000D01*
X133900000Y-70700000D02*
X135000000Y-70700000D01*
X137100000Y-70700000D02*
X138100000Y-70700000D01*
%TO.C,D14*%
X125000000Y-124520000D02*
X124000000Y-124520000D01*
X128200000Y-124520000D02*
X127100000Y-124520000D01*
X128200000Y-124520000D02*
X128200000Y-125120000D01*
X128200000Y-125920000D02*
X124000000Y-125920000D01*
%TO.C,R7*%
X119737258Y-83777500D02*
X119262742Y-83777500D01*
X119737258Y-84822500D02*
X119262742Y-84822500D01*
%TO.C,C23*%
X120392164Y-69450000D02*
X120607836Y-69450000D01*
X120392164Y-70170000D02*
X120607836Y-70170000D01*
%TO.C,R11*%
X129964999Y-93419758D02*
X129964999Y-92945242D01*
X131009999Y-93419758D02*
X131009999Y-92945242D01*
%TO.C,D17*%
X153840000Y-124500000D02*
X152840000Y-124500000D01*
X157040000Y-124500000D02*
X155940000Y-124500000D01*
X157040000Y-124500000D02*
X157040000Y-125100000D01*
X157040000Y-125900000D02*
X152840000Y-125900000D01*
%TO.C,C31*%
X141957836Y-125050000D02*
X141742164Y-125050000D01*
X141957836Y-125770000D02*
X141742164Y-125770000D01*
%TO.C,R3*%
X113367258Y-100067500D02*
X112892742Y-100067500D01*
X113367258Y-101112500D02*
X112892742Y-101112500D01*
%TO.C,D1*%
X181830000Y-69300000D02*
X186030000Y-69300000D01*
X181830000Y-70700000D02*
X181830000Y-70100000D01*
X181830000Y-70700000D02*
X182930000Y-70700000D01*
X185030000Y-70700000D02*
X186030000Y-70700000D01*
%TO.C,C1*%
X121607836Y-96990000D02*
X121392164Y-96990000D01*
X121607836Y-97710000D02*
X121392164Y-97710000D01*
%TO.C,C28*%
X134239061Y-90616560D02*
X134239061Y-92039064D01*
X136059061Y-90616560D02*
X136059061Y-92039064D01*
%TO.C,C6*%
X129262164Y-108390000D02*
X129477836Y-108390000D01*
X129262164Y-109110000D02*
X129477836Y-109110000D01*
%TO.C,C13*%
X111590000Y-103407836D02*
X111590000Y-103192164D01*
X112310000Y-103407836D02*
X112310000Y-103192164D01*
D12*
%TO.C,U1*%
X115139999Y-95070000D02*
X116739999Y-95070000D01*
X116739999Y-92170000D02*
X115139999Y-92170000D01*
X115239999Y-91820000D02*
G75*
G02*
X115139999Y-91820000I-50000J0D01*
G01*
X115139999Y-91820000D02*
G75*
G02*
X115239999Y-91820000I50000J0D01*
G01*
D14*
%TO.C,C30*%
X132527836Y-125040000D02*
X132312164Y-125040000D01*
X132527836Y-125760000D02*
X132312164Y-125760000D01*
%TO.C,Y1*%
X133699999Y-103720000D02*
X135699999Y-103720000D01*
X133699999Y-104520000D02*
X133699999Y-103720000D01*
X133699999Y-107320000D02*
X133699999Y-106320000D01*
X135699999Y-103720000D02*
X136099999Y-103720000D01*
X135699999Y-107320000D02*
X133699999Y-107320000D01*
X135699999Y-107320000D02*
X136099999Y-107320000D01*
X136099999Y-103720000D02*
X136099999Y-104520000D01*
X136099999Y-106320000D02*
X136099999Y-107320000D01*
%TO.C,C24*%
X124924999Y-81740580D02*
X124924999Y-81459420D01*
X125944999Y-81740580D02*
X125944999Y-81459420D01*
%TO.C,C3*%
X124147836Y-107950000D02*
X123932164Y-107950000D01*
X124147836Y-108670000D02*
X123932164Y-108670000D01*
%TO.C,C18*%
X168102164Y-69420000D02*
X168317836Y-69420000D01*
X168102164Y-70140000D02*
X168317836Y-70140000D01*
%TO.C,C8*%
X120632835Y-101280000D02*
X120417163Y-101280000D01*
X120632835Y-102000000D02*
X120417163Y-102000000D01*
%TO.C,C25*%
X113367836Y-125040000D02*
X113152164Y-125040000D01*
X113367836Y-125760000D02*
X113152164Y-125760000D01*
%TO.C,R15*%
X110227500Y-83137258D02*
X110227500Y-82662742D01*
X111272500Y-83137258D02*
X111272500Y-82662742D01*
%TO.C,D11*%
X115700000Y-83435000D02*
X117985000Y-83435000D01*
X117985000Y-81965000D02*
X115700000Y-81965000D01*
X117985000Y-83435000D02*
X117985000Y-81965000D01*
%TO.C,C35*%
X180097836Y-125030000D02*
X179882164Y-125030000D01*
X180097836Y-125750000D02*
X179882164Y-125750000D01*
%TO.C,R10*%
X123622741Y-84122500D02*
X124097257Y-84122500D01*
X123622741Y-85167500D02*
X124097257Y-85167500D01*
%TO.C,R5*%
X112892742Y-98567500D02*
X113367258Y-98567500D01*
X112892742Y-99612500D02*
X113367258Y-99612500D01*
%TO.C,D7*%
X124310000Y-69300000D02*
X128510000Y-69300000D01*
X124310000Y-70700000D02*
X124310000Y-70100000D01*
X124310000Y-70700000D02*
X125410000Y-70700000D01*
X127510000Y-70700000D02*
X128510000Y-70700000D01*
%TO.C,D20*%
X182540000Y-124510027D02*
X181540000Y-124510027D01*
X185740000Y-124510027D02*
X184640000Y-124510027D01*
X185740000Y-124510027D02*
X185740000Y-125110027D01*
X185740000Y-125910027D02*
X181540000Y-125910027D01*
%TO.C,C29*%
X122867836Y-125080000D02*
X122652164Y-125080000D01*
X122867836Y-125800000D02*
X122652164Y-125800000D01*
%TD*%
M02*
