M48
; DRILL file {KiCad 8.0.2} date 2024-06-11T14:04:40+0200
; FORMAT={-:-/ absolute / inch / decimal}
; #@! TF.CreationDate,2024-06-11T14:04:40+02:00
; #@! TF.GenerationSoftware,Kicad,Pcbnew,8.0.2
; #@! TF.FileFunction,Plated,1,2,PTH
FMAT,2
INCH
; #@! TA.AperFunction,Plated,PTH,ViaDrill
T1C0.0118
; #@! TA.AperFunction,Plated,PTH,ComponentDrill
T2C0.0118
%
G90
G05
T1
X3.9701Y-3.0677
X3.9752Y-2.9165
X4.0165Y-4.1016
X4.0291Y-3.6984
X4.0327Y-2.9996
X4.0335Y-3.3449
X4.0358Y-3.8504
X4.0394Y-3.1831
X4.0398Y-3.4307
X4.0402Y-3.5067
X4.0429Y-3.7437
X4.0457Y-2.8543
X4.0543Y-3.8949
X4.0606Y-4.0858
X4.0669Y-3.2618
X4.0752Y-4.2717
X4.0879Y-3.8035
X4.0902Y-3.7083
X4.1154Y-3.4157
X4.1185Y-3.8992
X4.1311Y-3.6799
X4.1319Y-3.1614
X4.1339Y-4.0819
X4.1559Y-4.2972
X4.1756Y-4.1575
X4.185Y-4.089
X4.1937Y-4.2335
X4.2169Y-3.5106
X4.2323Y-3.1437
X4.2769Y-3.6476
X4.2835Y-3.1673
X4.2835Y-3.2717
X4.2937Y-4.311
X4.3102Y-4.0079
X4.3114Y-3.936
X4.3156Y-4.375
X4.3185Y-4.0551
X4.3406Y-4.9642
X4.3535Y-3.4957
X4.3567Y-3.7114
X4.3665Y-3.8484
X4.3724Y-3.5697
X4.3748Y-4.3764
X4.3894Y-3.3559
X4.4171Y-3.2145
X4.4291Y-3.1028
X4.4449Y-3.1996
X4.4465Y-2.8906
X4.4531Y-3.2791
X4.4642Y-3.0043
X4.478Y-3.6858
X4.482Y-3.0709
X4.4882Y-3.1102
X4.4906Y-3.2413
X4.4921Y-3.5591
X4.5004Y-4.9669
X4.5039Y-3.1952
X4.5059Y-2.8366
X4.5091Y-2.7461
X4.5098Y-4.1969
X4.5126Y-4.3173
X4.5201Y-3.2815
X4.5264Y-3.8319
X4.5327Y-4.0465
X4.537Y-3.7839
X4.5409Y-3.9484
X4.5472Y-3.1102
X4.5756Y-4.3173
X4.5921Y-3.8617
X4.5925Y-3.9248
X4.5929Y-3.9677
X4.6201Y-3.8142
X4.6303Y-3.4839
X4.6308Y-3.3719
X4.639Y-3.111
X4.639Y-4.0465
X4.6421Y-3.9488
X4.6827Y-3.7508
X4.6831Y-3.8138
X4.6945Y-2.7256
X4.7177Y-4.3154
X4.7228Y-3.872
X4.724Y-3.4142
X4.7465Y-3.1094
X4.7646Y-3.7177
X4.7753Y-3.1634
X4.7753Y-3.2401
X4.7823Y-3.5283
X4.7913Y-4.3154
X4.8044Y-3.2692
X4.8122Y-3.1935
X4.8217Y-3.1157
X4.8386Y-3.9815
X4.8402Y-4.2165
X4.8435Y-4.0613
X4.8476Y-3.9035
X4.8642Y-3.6543
X4.8679Y-3.5478
X4.8681Y-3.6071
X4.8752Y-4.9661
X4.8776Y-3.4358
X4.881Y-3.3025
X4.8969Y-3.2087
X4.9358Y-4.0941
X4.9386Y-3.5051
X4.9429Y-3.6553
X4.9484Y-4.0456
X4.9736Y-3.7252
X4.9748Y-4.3126
X4.9787Y-3.8039
X4.985Y-3.1161
X4.989Y-3.8461
X5.0008Y-4.05
X5.0047Y-4.1142
X5.0098Y-4.2803
X5.0315Y-3.1169
X5.0338Y-3.4562
X5.0344Y-4.0771
X5.0374Y-3.5343
X5.0472Y-3.3689
X5.0677Y-4.1118
X5.0697Y-4.0469
X5.0705Y-2.7205
X5.087Y-3.576
X5.0897Y-3.8945
X5.1211Y-4.1307
X5.1224Y-3.8276
X5.1252Y-3.9907
X5.1256Y-4.0637
X5.1732Y-3.111
X5.1732Y-3.3433
X5.1732Y-3.8413
X5.2106Y-3.9516
X5.2209Y-4.3059
X5.2224Y-3.9949
X5.2303Y-3.8701
X5.2372Y-3.9152
X5.2461Y-4.2646
X5.248Y-4.1543
X5.252Y-3.3787
X5.2555Y-4.9669
X5.2598Y-3.6543
X5.2921Y-3.115
X5.3209Y-3.611
X5.3209Y-3.7055
X5.3346Y-3.9616
X5.376Y-4.2508
X5.376Y-3.2764
X5.3799Y-3.3303
X5.3803Y-3.3858
X5.3848Y-3.7864
X5.385Y-3.9457
X5.3854Y-4.1752
X5.3858Y-4.0402
X5.3874Y-4.0945
X5.4016Y-3.4831
X5.4457Y-2.722
X5.6291Y-4.9646
X5.8213Y-2.722
X6.0075Y-4.963
X6.2003Y-2.7237
X6.235Y-3.8685
X6.3839Y-4.961
X6.4035Y-3.8689
X6.5761Y-2.7223
X6.7594Y-4.9606
X6.9533Y-2.7219
X7.1362Y-4.9587
X7.3336Y-2.7251
T2
X5.1314Y-3.4197
X5.1314Y-3.4969
X5.1326Y-3.4583
X5.168Y-3.4213
X5.1692Y-3.4595
X5.17Y-3.4957
X5.2082Y-3.4591
X5.2082Y-3.4961
X5.209Y-3.4197
M30
