%TF.GenerationSoftware,KiCad,Pcbnew,8.0.2*%
%TF.CreationDate,2024-06-11T14:04:34+02:00*%
%TF.ProjectId,PicoCard,5069636f-4361-4726-942e-6b696361645f,v1.0*%
%TF.SameCoordinates,Original*%
%TF.FileFunction,Copper,L2,Bot*%
%TF.FilePolarity,Positive*%
%FSLAX46Y46*%
G04 Gerber Fmt 4.6, Leading zero omitted, Abs format (unit mm)*
G04 Created by KiCad (PCBNEW 8.0.2) date 2024-06-11 14:04:34*
%MOMM*%
%LPD*%
G01*
G04 APERTURE LIST*
G04 Aperture macros list*
%AMRoundRect*
0 Rectangle with rounded corners*
0 $1 Rounding radius*
0 $2 $3 $4 $5 $6 $7 $8 $9 X,Y pos of 4 corners*
0 Add a 4 corners polygon primitive as box body*
4,1,4,$2,$3,$4,$5,$6,$7,$8,$9,$2,$3,0*
0 Add four circle primitives for the rounded corners*
1,1,$1+$1,$2,$3*
1,1,$1+$1,$4,$5*
1,1,$1+$1,$6,$7*
1,1,$1+$1,$8,$9*
0 Add four rect primitives between the rounded corners*
20,1,$1+$1,$2,$3,$4,$5,0*
20,1,$1+$1,$4,$5,$6,$7,0*
20,1,$1+$1,$6,$7,$8,$9,0*
20,1,$1+$1,$8,$9,$2,$3,0*%
G04 Aperture macros list end*
%TA.AperFunction,HeatsinkPad*%
%ADD10C,0.700000*%
%TD*%
%TA.AperFunction,HeatsinkPad*%
%ADD11R,2.700000X2.700000*%
%TD*%
%TA.AperFunction,SMDPad,CuDef*%
%ADD12RoundRect,0.200000X0.200000X0.600000X-0.200000X0.600000X-0.200000X-0.600000X0.200000X-0.600000X0*%
%TD*%
%TA.AperFunction,SMDPad,CuDef*%
%ADD13RoundRect,0.250001X0.799999X1.249999X-0.799999X1.249999X-0.799999X-1.249999X0.799999X-1.249999X0*%
%TD*%
%TA.AperFunction,SMDPad,CuDef*%
%ADD14R,1.000000X1.000000*%
%TD*%
%TA.AperFunction,ViaPad*%
%ADD15C,0.700000*%
%TD*%
%TA.AperFunction,ViaPad*%
%ADD16C,0.600000*%
%TD*%
%TA.AperFunction,Conductor*%
%ADD17C,0.500000*%
%TD*%
%TA.AperFunction,Conductor*%
%ADD18C,0.200000*%
%TD*%
%TA.AperFunction,Conductor*%
%ADD19C,0.400000*%
%TD*%
G04 APERTURE END LIST*
D10*
%TO.P,U7,17,PAD*%
%TO.N,GND*%
X132307499Y-86861250D03*
X132287499Y-88801250D03*
X132287499Y-87861250D03*
D11*
X131327499Y-87851250D03*
D10*
X131317499Y-88791250D03*
X131297499Y-87871250D03*
X131267499Y-86901250D03*
X130367499Y-87841250D03*
X130337499Y-88821250D03*
X130337499Y-86861250D03*
%TD*%
D12*
%TO.P,J2,1,Pin_1*%
%TO.N,+BATT*%
X108765000Y-73400000D03*
%TO.P,J2,2,Pin_2*%
%TO.N,GND*%
X107515000Y-73400000D03*
D13*
%TO.P,J2,MP,MountPin*%
X111315000Y-76300000D03*
X104965000Y-76300000D03*
%TD*%
D14*
%TO.P,J5,1,Pin_1*%
%TO.N,SWD_CLK*%
X133974999Y-97420000D03*
%TD*%
%TO.P,J4,1,Pin_1*%
%TO.N,GND*%
X133974999Y-95395000D03*
%TD*%
%TO.P,J6,1,Pin_1*%
%TO.N,SWD_DIO*%
X133999999Y-99470000D03*
%TD*%
%TO.P,J3,1,Pin_1*%
%TO.N,Reset*%
X133999999Y-101520000D03*
%TD*%
D15*
%TO.N,GND*%
X116220000Y-109660000D03*
X134420000Y-79120000D03*
D16*
X127020000Y-102870000D03*
D15*
X102020000Y-104180000D03*
X103140000Y-103780000D03*
X117350000Y-96880000D03*
X126360000Y-109540000D03*
X103833602Y-96610000D03*
X102609999Y-87140000D03*
D16*
X117910000Y-100300000D03*
D15*
X119830000Y-109610000D03*
X108800000Y-83100000D03*
X102430000Y-76190000D03*
D16*
X110659999Y-94270000D03*
D15*
X102979999Y-98930000D03*
D16*
X133299999Y-105520000D03*
D15*
X103509999Y-108500000D03*
X132349999Y-100370000D03*
X106299999Y-103860000D03*
D16*
X125549999Y-92845000D03*
D15*
X131399999Y-97570000D03*
D16*
X121019999Y-94430000D03*
D15*
X122469999Y-79140000D03*
D16*
X126720000Y-97690000D03*
D15*
X131399999Y-79020000D03*
D16*
X109060000Y-109500000D03*
D15*
X136660000Y-86000000D03*
D16*
X117622500Y-85645000D03*
D15*
X113390000Y-76310000D03*
D16*
X115500000Y-79000000D03*
D15*
X121470000Y-89620000D03*
X136649999Y-84590000D03*
X114550000Y-106600000D03*
X127949999Y-89770000D03*
X136775000Y-96175000D03*
X102510000Y-97800000D03*
X133249999Y-108320000D03*
X122940000Y-107100000D03*
X104529999Y-86760000D03*
X135500000Y-100625000D03*
X119990000Y-86720000D03*
X105000000Y-103680000D03*
D16*
X117830000Y-102780000D03*
D15*
X105560000Y-109150000D03*
X109479999Y-101800000D03*
D16*
X127120000Y-104500000D03*
D15*
X102449999Y-84960000D03*
X107109999Y-89170000D03*
D16*
X113739999Y-93620000D03*
D15*
X102690000Y-95090000D03*
D16*
X115340000Y-100290000D03*
D15*
X106519999Y-107530000D03*
X136550000Y-83220000D03*
X102339999Y-93940000D03*
D16*
X109508602Y-99975000D03*
X127874999Y-103557500D03*
X115240000Y-96110000D03*
X128720000Y-104440000D03*
D15*
X103300000Y-82850000D03*
X103889999Y-94190000D03*
X123889999Y-87270000D03*
D16*
X123130000Y-99150000D03*
X133399999Y-85820000D03*
D15*
X135149999Y-91720000D03*
X136790000Y-106050000D03*
X102760000Y-72500000D03*
X100840000Y-77920000D03*
X128199999Y-85570000D03*
X102600000Y-80850000D03*
X136549999Y-107970000D03*
X114620000Y-109660000D03*
X104930000Y-93470000D03*
D16*
X126619999Y-79150000D03*
D15*
X104950000Y-80300000D03*
D16*
X131399999Y-84920000D03*
D15*
X109690000Y-103000000D03*
D16*
X123549999Y-92820000D03*
D15*
X137200000Y-88470000D03*
X106060000Y-105600000D03*
X132610000Y-109370000D03*
X120560000Y-78980000D03*
X108800000Y-80450000D03*
X100970000Y-74080000D03*
D16*
X128770000Y-102790000D03*
D15*
X136780000Y-100220000D03*
D16*
X130074999Y-104920000D03*
D15*
X121700000Y-109610000D03*
X104609999Y-99040000D03*
X112940000Y-73420000D03*
X133599999Y-92820000D03*
X117830000Y-79020000D03*
D16*
X108633602Y-92650000D03*
D15*
X117610000Y-88490000D03*
X127249999Y-108720000D03*
X127799999Y-79170000D03*
X136840000Y-104000000D03*
X107500000Y-79850000D03*
X102620000Y-89070000D03*
X136799999Y-102620000D03*
X129209999Y-90830000D03*
X135149999Y-94120000D03*
D16*
X119960000Y-98350000D03*
%TO.N,Net-(U2-VREG_VOUT)*%
X125370000Y-103990000D03*
X125689957Y-102757500D03*
%TO.N,VCC*%
X115130000Y-102780000D03*
X118949999Y-96869999D03*
X116660000Y-100780000D03*
X116650000Y-99690000D03*
X122900000Y-101130000D03*
X118939999Y-95270000D03*
X123024999Y-103157500D03*
X130191182Y-103218573D03*
X116640000Y-98087843D03*
X130180514Y-101364485D03*
%TO.N,SWD_DIO*%
X114970000Y-97330000D03*
X110910000Y-97750000D03*
X133024999Y-99445000D03*
%TO.N,Net-(U4-Y)*%
X123644999Y-90115000D03*
X123649999Y-91620000D03*
%TO.N,SWD_CLK*%
X132849999Y-98300000D03*
%TO.N,+5V*%
X111490000Y-85240000D03*
X110579669Y-88790332D03*
X152590000Y-126060000D03*
X186272902Y-69218018D03*
X119240000Y-69230000D03*
X176614376Y-69137499D03*
X128790000Y-69100000D03*
X142980000Y-126100000D03*
X171690000Y-126000000D03*
X147860000Y-69140000D03*
X123830000Y-126140000D03*
X138320000Y-69140000D03*
X162150000Y-126010000D03*
X181260000Y-125950000D03*
X133490000Y-126160000D03*
X167033555Y-69146445D03*
X110250000Y-126090000D03*
X114310000Y-126160000D03*
X113842157Y-78000000D03*
X157486364Y-69182629D03*
%TO.N,Reset*%
X132649999Y-101470000D03*
%TO.N,WS2812B*%
X129278694Y-98920000D03*
X130108759Y-97220000D03*
%TO.N,Net-(D1-DIN)*%
X121292279Y-80350000D03*
X121292279Y-82297721D03*
%TO.N,Net-(D12-DIN)*%
X114530000Y-69750000D03*
X109615767Y-111125817D03*
X112500000Y-78810000D03*
X114449669Y-72050331D03*
X114000000Y-79000000D03*
X111120000Y-111160000D03*
%TO.N,Net-(U5-Antenna_LA)*%
X162648495Y-98270310D03*
X158368495Y-98260310D03*
%TO.N,+BATT*%
X112195030Y-81648184D03*
X114060000Y-82330000D03*
%TO.N,V5_USB*%
X113110000Y-83290000D03*
X114810000Y-83350000D03*
X111059999Y-90670000D03*
X114100000Y-90400000D03*
%TO.N,Net-(D13-A)*%
X124379999Y-81500000D03*
X123976724Y-83883107D03*
%TO.N,V5_BAT_EN*%
X125439999Y-89030000D03*
X112899999Y-81270000D03*
X127857918Y-87787824D03*
X114399999Y-81156831D03*
X122230257Y-81114377D03*
X122032278Y-83037721D03*
%TO.N,Net-(D21-K)*%
X126330000Y-94620000D03*
X126460000Y-96620000D03*
%TD*%
D17*
%TO.N,GND*%
X111315000Y-78685661D02*
X112379339Y-79750000D01*
X107515000Y-73400000D02*
X107515000Y-76300000D01*
X104965000Y-76300000D02*
X107515000Y-76300000D01*
X114750000Y-79750000D02*
X115500000Y-79000000D01*
D18*
X117830000Y-100380000D02*
X117910000Y-100300000D01*
D17*
X107515000Y-76300000D02*
X107515000Y-79835000D01*
X107515000Y-79835000D02*
X107500000Y-79850000D01*
X111315000Y-76300000D02*
X111315000Y-78685661D01*
X112379339Y-79750000D02*
X114750000Y-79750000D01*
D18*
X117830000Y-102780000D02*
X117830000Y-100380000D01*
%TO.N,Net-(U2-VREG_VOUT)*%
X125366003Y-103081454D02*
X125689957Y-102757500D01*
X125366003Y-104008150D02*
X125366003Y-103081454D01*
%TO.N,VCC*%
X130180514Y-103207905D02*
X130191182Y-103218573D01*
X116650000Y-98097843D02*
X116640000Y-98087843D01*
X115130000Y-102780000D02*
X115130000Y-102310000D01*
X118939999Y-95270000D02*
X118939999Y-96859999D01*
X123024999Y-103157500D02*
X122900000Y-103032501D01*
X115130000Y-102310000D02*
X116660000Y-100780000D01*
X122900000Y-103032501D02*
X122900000Y-101130000D01*
X116650000Y-99690000D02*
X116650000Y-98097843D01*
X130180514Y-101364485D02*
X130180514Y-103207905D01*
X118939999Y-96859999D02*
X118949999Y-96869999D01*
%TO.N,SWD_DIO*%
X111330000Y-97330000D02*
X110910000Y-97750000D01*
X133049999Y-99470000D02*
X133024999Y-99445000D01*
X133999999Y-99470000D02*
X133049999Y-99470000D01*
X114970000Y-97330000D02*
X111330000Y-97330000D01*
%TO.N,Net-(U4-Y)*%
X123644999Y-90115000D02*
X123644999Y-91260000D01*
X123644999Y-91260000D02*
X123644999Y-91615000D01*
X123644999Y-91615000D02*
X123649999Y-91620000D01*
%TO.N,SWD_CLK*%
X132849999Y-98300000D02*
X133094999Y-98300000D01*
X133094999Y-98300000D02*
X133974999Y-97420000D01*
D19*
%TO.N,+5V*%
X115500000Y-77000000D02*
X115500000Y-71000000D01*
X116130000Y-70370000D02*
X118100000Y-70370000D01*
D17*
X110569999Y-85813122D02*
X111143121Y-85240000D01*
D19*
X113842157Y-78000000D02*
X114500000Y-78000000D01*
X118100000Y-70370000D02*
X119240000Y-69230000D01*
D17*
X110579669Y-88790332D02*
X110569999Y-88780662D01*
X111143121Y-85240000D02*
X111490000Y-85240000D01*
D19*
X115500000Y-71000000D02*
X116130000Y-70370000D01*
X114500000Y-78000000D02*
X115500000Y-77000000D01*
D17*
X110569999Y-88780662D02*
X110569999Y-85813122D01*
D18*
%TO.N,Reset*%
X132649999Y-101470000D02*
X133949999Y-101470000D01*
X133949999Y-101470000D02*
X133999999Y-101520000D01*
%TO.N,WS2812B*%
X130108759Y-97220000D02*
X130108759Y-98311240D01*
X130108759Y-98311240D02*
X129278694Y-99141305D01*
%TO.N,Net-(D1-DIN)*%
X121292279Y-82297721D02*
X121292279Y-80552720D01*
%TO.N,Net-(D12-DIN)*%
X109649950Y-111160000D02*
X109615767Y-111125817D01*
X111120000Y-111160000D02*
X109649950Y-111160000D01*
X114449669Y-72050331D02*
X114449669Y-69830331D01*
X112500000Y-78810000D02*
X113810000Y-78810000D01*
X113810000Y-78810000D02*
X114000000Y-79000000D01*
X114449669Y-69830331D02*
X114530000Y-69750000D01*
%TO.N,Net-(U5-Antenna_LA)*%
X158368495Y-98260310D02*
X162638495Y-98260310D01*
X162638495Y-98260310D02*
X162648495Y-98270310D01*
D17*
%TO.N,+BATT*%
X114040000Y-82310000D02*
X114060000Y-82330000D01*
X110624669Y-80055331D02*
X108765000Y-78195662D01*
X112899338Y-82330000D02*
X110624669Y-80055331D01*
X108765000Y-78195662D02*
X108765000Y-73400000D01*
X114060000Y-82330000D02*
X112899338Y-82330000D01*
D18*
%TO.N,V5_USB*%
X113110000Y-83290000D02*
X114610000Y-83290000D01*
D17*
X112795613Y-90680000D02*
X113820000Y-90680000D01*
X113820000Y-90680000D02*
X114100000Y-90400000D01*
D18*
X114750000Y-83290000D02*
X114810000Y-83350000D01*
D17*
X112795613Y-90680000D02*
X111069999Y-90680000D01*
X111069999Y-90680000D02*
X111059999Y-90670000D01*
D18*
X114610000Y-83290000D02*
X114750000Y-83290000D01*
%TO.N,Net-(D13-A)*%
X124379999Y-83479832D02*
X124379999Y-81500000D01*
X123976724Y-83883107D02*
X124379999Y-83479832D01*
%TO.N,V5_BAT_EN*%
X113013168Y-81156831D02*
X112899999Y-81270000D01*
X126682175Y-87787824D02*
X125439999Y-89030000D01*
X121892279Y-82897722D02*
X121892279Y-81452355D01*
X122032278Y-83037721D02*
X121892279Y-82897722D01*
X114399999Y-81156831D02*
X113013168Y-81156831D01*
X127857918Y-87787824D02*
X126682175Y-87787824D01*
X121892279Y-81452355D02*
X122230257Y-81114377D01*
%TO.N,Net-(D21-K)*%
X126330000Y-96490000D02*
X126460000Y-96620000D01*
X126330000Y-94620000D02*
X126330000Y-96490000D01*
%TD*%
%TA.AperFunction,Conductor*%
%TO.N,GND*%
G36*
X103891126Y-71652628D02*
G01*
X111069795Y-71657853D01*
X111077178Y-71658078D01*
X111423574Y-71679043D01*
X111438265Y-71680817D01*
X111776030Y-71742245D01*
X111790389Y-71745753D01*
X112118447Y-71846997D01*
X112132286Y-71852192D01*
X112445931Y-71991803D01*
X112459051Y-71998609D01*
X112753829Y-72174601D01*
X112766047Y-72182924D01*
X113001934Y-72365122D01*
X113037746Y-72392783D01*
X113048897Y-72402512D01*
X113293647Y-72643249D01*
X113303557Y-72654235D01*
X113517878Y-72922424D01*
X113526412Y-72934518D01*
X113707239Y-73226318D01*
X113714272Y-73239344D01*
X113859046Y-73550631D01*
X113864476Y-73564401D01*
X113971123Y-73890714D01*
X113974873Y-73905034D01*
X114041874Y-74241722D01*
X114043892Y-74256386D01*
X114070581Y-74602367D01*
X114070930Y-74609763D01*
X114077669Y-75000014D01*
X114116481Y-77247897D01*
X114021419Y-77214633D01*
X114021406Y-77214630D01*
X113842161Y-77194435D01*
X113842153Y-77194435D01*
X113662907Y-77214630D01*
X113662902Y-77214631D01*
X113492633Y-77274211D01*
X113339894Y-77370184D01*
X113212341Y-77497737D01*
X113116366Y-77650479D01*
X113101317Y-77693487D01*
X113060594Y-77750263D01*
X112995641Y-77776009D01*
X112927080Y-77762552D01*
X112876678Y-77714164D01*
X112860437Y-77646208D01*
X112860918Y-77639926D01*
X112864999Y-77599980D01*
X112865000Y-77599972D01*
X112865000Y-76550000D01*
X111565000Y-76550000D01*
X111565000Y-78300000D01*
X111655602Y-78300000D01*
X111722641Y-78319685D01*
X111768396Y-78372489D01*
X111778340Y-78441647D01*
X111772644Y-78464954D01*
X111714632Y-78630742D01*
X111714630Y-78630750D01*
X111694435Y-78809996D01*
X111694435Y-78810003D01*
X111714630Y-78989249D01*
X111714631Y-78989254D01*
X111774211Y-79159523D01*
X111786606Y-79179249D01*
X111870184Y-79312262D01*
X111997738Y-79439816D01*
X112150478Y-79535789D01*
X112320745Y-79595368D01*
X112320750Y-79595369D01*
X112499996Y-79615565D01*
X112500000Y-79615565D01*
X112500004Y-79615565D01*
X112679249Y-79595369D01*
X112679252Y-79595368D01*
X112679255Y-79595368D01*
X112849522Y-79535789D01*
X113002262Y-79439816D01*
X113002267Y-79439810D01*
X113005097Y-79437555D01*
X113007275Y-79436665D01*
X113008158Y-79436111D01*
X113008255Y-79436265D01*
X113069783Y-79411145D01*
X113082412Y-79410500D01*
X113243994Y-79410500D01*
X113311033Y-79430185D01*
X113348986Y-79468526D01*
X113370184Y-79502262D01*
X113497738Y-79629816D01*
X113588080Y-79686582D01*
X113641557Y-79720184D01*
X113650478Y-79725789D01*
X113820745Y-79785368D01*
X113820750Y-79785369D01*
X113999996Y-79805565D01*
X114000000Y-79805565D01*
X114000004Y-79805565D01*
X114179249Y-79785369D01*
X114179252Y-79785368D01*
X114179255Y-79785368D01*
X114349522Y-79725789D01*
X114502262Y-79629816D01*
X114629816Y-79502262D01*
X114725789Y-79349522D01*
X114785368Y-79179255D01*
X114785369Y-79179249D01*
X114805565Y-79000003D01*
X114805565Y-78999996D01*
X114785369Y-78820753D01*
X114785368Y-78820751D01*
X114785368Y-78820745D01*
X114768815Y-78773442D01*
X114765254Y-78703664D01*
X114799982Y-78643037D01*
X114827412Y-78623125D01*
X114831795Y-78620781D01*
X114831811Y-78620775D01*
X114843930Y-78612677D01*
X117077424Y-78621173D01*
X117077430Y-78621174D01*
X117077424Y-78621174D01*
X117590279Y-78623124D01*
X134808432Y-78688620D01*
X134815313Y-78688839D01*
X135139936Y-78708261D01*
X135153701Y-78709862D01*
X135470658Y-78764818D01*
X135484166Y-78767947D01*
X135793008Y-78857959D01*
X135806077Y-78862576D01*
X136102933Y-78986518D01*
X136115405Y-78992565D01*
X136396572Y-79148890D01*
X136408281Y-79156286D01*
X136627065Y-79312262D01*
X136670217Y-79343026D01*
X136681044Y-79351697D01*
X136920491Y-79566528D01*
X136930273Y-79576346D01*
X137134424Y-79805565D01*
X137144219Y-79816563D01*
X137152849Y-79827420D01*
X137338636Y-80090037D01*
X137345998Y-80101784D01*
X137460117Y-80308812D01*
X137501292Y-80383510D01*
X137507298Y-80396013D01*
X137630153Y-80693311D01*
X137634725Y-80706406D01*
X137723608Y-81015566D01*
X137726689Y-81029090D01*
X137780489Y-81346243D01*
X137782040Y-81360026D01*
X137800277Y-81684675D01*
X137800472Y-81691610D01*
X137802543Y-94767737D01*
X137804130Y-104795565D01*
X137804523Y-107273660D01*
X137804329Y-107280617D01*
X137786080Y-107606289D01*
X137784523Y-107620116D01*
X137730488Y-107938249D01*
X137727392Y-107951814D01*
X137638057Y-108261889D01*
X137633461Y-108275022D01*
X137509950Y-108573138D01*
X137503912Y-108585673D01*
X137347777Y-108868079D01*
X137340372Y-108879859D01*
X137153584Y-109142993D01*
X137144906Y-109153869D01*
X136929816Y-109394417D01*
X136919974Y-109404253D01*
X136679288Y-109619191D01*
X136668407Y-109627862D01*
X136405149Y-109814488D01*
X136393364Y-109821885D01*
X136110863Y-109977838D01*
X136098324Y-109983868D01*
X135870593Y-110078049D01*
X135823760Y-110087461D01*
X112140518Y-110193729D01*
X112140508Y-110193729D01*
X112035171Y-110205312D01*
X112035161Y-110205313D01*
X112035159Y-110205314D01*
X112035155Y-110205314D01*
X112035143Y-110205317D01*
X111984639Y-110216321D01*
X111984626Y-110216325D01*
X111876713Y-110252037D01*
X111876119Y-110250243D01*
X111835359Y-110259407D01*
X106541911Y-110255210D01*
X102997587Y-110252399D01*
X102990609Y-110252197D01*
X102956113Y-110250222D01*
X102663519Y-110233474D01*
X102649632Y-110231891D01*
X102330150Y-110177066D01*
X102316531Y-110173929D01*
X102005272Y-110083508D01*
X101992091Y-110078859D01*
X101692970Y-109953979D01*
X101680397Y-109947876D01*
X101397239Y-109790133D01*
X101385432Y-109782654D01*
X101121818Y-109594045D01*
X101110928Y-109585285D01*
X100870213Y-109368210D01*
X100860378Y-109358280D01*
X100645620Y-109115493D01*
X100636973Y-109104531D01*
X100475479Y-108874177D01*
X100450895Y-108839111D01*
X100443530Y-108827234D01*
X100288505Y-108542567D01*
X100282528Y-108529944D01*
X100220946Y-108378367D01*
X100211827Y-108331697D01*
X100211827Y-103989996D01*
X124564435Y-103989996D01*
X124564435Y-103990003D01*
X124584630Y-104169249D01*
X124584631Y-104169254D01*
X124644211Y-104339523D01*
X124740184Y-104492262D01*
X124867738Y-104619816D01*
X125020478Y-104715789D01*
X125190745Y-104775368D01*
X125190750Y-104775369D01*
X125369996Y-104795565D01*
X125370000Y-104795565D01*
X125370004Y-104795565D01*
X125549249Y-104775369D01*
X125549252Y-104775368D01*
X125549255Y-104775368D01*
X125719522Y-104715789D01*
X125872262Y-104619816D01*
X125999816Y-104492262D01*
X126095789Y-104339522D01*
X126155368Y-104169255D01*
X126173994Y-104003942D01*
X126175565Y-103990003D01*
X126175565Y-103989996D01*
X126155369Y-103810750D01*
X126155368Y-103810745D01*
X126095788Y-103640475D01*
X126075011Y-103607410D01*
X126056010Y-103540174D01*
X126076377Y-103473338D01*
X126114031Y-103436444D01*
X126192219Y-103387316D01*
X126319773Y-103259762D01*
X126415746Y-103107022D01*
X126475325Y-102936755D01*
X126475326Y-102936749D01*
X126495522Y-102757503D01*
X126495522Y-102757496D01*
X126475326Y-102578250D01*
X126475325Y-102578245D01*
X126455118Y-102520498D01*
X126415746Y-102407978D01*
X126319773Y-102255238D01*
X126192219Y-102127684D01*
X126191898Y-102127482D01*
X126039480Y-102031711D01*
X125869211Y-101972131D01*
X125869206Y-101972130D01*
X125689961Y-101951935D01*
X125689953Y-101951935D01*
X125510707Y-101972130D01*
X125510702Y-101972131D01*
X125340433Y-102031711D01*
X125187694Y-102127684D01*
X125060141Y-102255237D01*
X124964167Y-102407978D01*
X124904587Y-102578250D01*
X124893289Y-102678524D01*
X124877457Y-102726639D01*
X124841578Y-102788784D01*
X124806426Y-102849669D01*
X124765502Y-103002397D01*
X124765502Y-103002399D01*
X124765502Y-103170500D01*
X124765503Y-103170513D01*
X124765503Y-103412599D01*
X124745818Y-103479638D01*
X124741420Y-103485770D01*
X124644211Y-103640476D01*
X124584631Y-103810745D01*
X124584630Y-103810750D01*
X124564435Y-103989996D01*
X100211827Y-103989996D01*
X100211827Y-99424234D01*
X105808102Y-99424234D01*
X105808102Y-99575766D01*
X105826864Y-99645788D01*
X105847321Y-99722136D01*
X105858678Y-99741806D01*
X105923087Y-99853365D01*
X106030237Y-99960515D01*
X106161467Y-100036281D01*
X106307836Y-100075500D01*
X106307838Y-100075500D01*
X106459366Y-100075500D01*
X106459368Y-100075500D01*
X106605737Y-100036281D01*
X106736967Y-99960515D01*
X106844117Y-99853365D01*
X106919883Y-99722135D01*
X106959102Y-99575766D01*
X106959102Y-99424234D01*
X106919883Y-99277865D01*
X106912885Y-99265745D01*
X106901949Y-99246803D01*
X106844117Y-99146635D01*
X106736967Y-99039485D01*
X106671352Y-99001602D01*
X106605738Y-98963719D01*
X106532552Y-98944109D01*
X106459368Y-98924500D01*
X106307836Y-98924500D01*
X106161465Y-98963719D01*
X106030237Y-99039485D01*
X106030234Y-99039487D01*
X105923089Y-99146632D01*
X105923087Y-99146635D01*
X105847321Y-99277863D01*
X105830544Y-99340478D01*
X105808102Y-99424234D01*
X100211827Y-99424234D01*
X100211827Y-97749996D01*
X110104435Y-97749996D01*
X110104435Y-97750003D01*
X110124630Y-97929249D01*
X110124631Y-97929254D01*
X110184211Y-98099523D01*
X110280184Y-98252262D01*
X110407738Y-98379816D01*
X110560478Y-98475789D01*
X110704556Y-98526204D01*
X110730745Y-98535368D01*
X110730750Y-98535369D01*
X110909996Y-98555565D01*
X110910000Y-98555565D01*
X110910004Y-98555565D01*
X111089249Y-98535369D01*
X111089252Y-98535368D01*
X111089255Y-98535368D01*
X111259522Y-98475789D01*
X111412262Y-98379816D01*
X111539816Y-98252262D01*
X111635789Y-98099522D01*
X111665873Y-98013545D01*
X111706595Y-97956770D01*
X111771547Y-97931022D01*
X111782915Y-97930500D01*
X114387588Y-97930500D01*
X114454627Y-97950185D01*
X114464903Y-97957555D01*
X114467736Y-97959814D01*
X114467738Y-97959816D01*
X114620478Y-98055789D01*
X114712072Y-98087839D01*
X114790745Y-98115368D01*
X114790750Y-98115369D01*
X114969996Y-98135565D01*
X114970000Y-98135565D01*
X114970004Y-98135565D01*
X115149249Y-98115369D01*
X115149252Y-98115368D01*
X115149255Y-98115368D01*
X115319522Y-98055789D01*
X115472262Y-97959816D01*
X115599816Y-97832262D01*
X115649628Y-97752985D01*
X115701961Y-97706696D01*
X115771015Y-97696047D01*
X115834863Y-97724422D01*
X115873235Y-97782812D01*
X115873948Y-97852678D01*
X115871663Y-97859912D01*
X115854633Y-97908582D01*
X115854630Y-97908593D01*
X115834435Y-98087839D01*
X115834435Y-98087846D01*
X115854630Y-98267092D01*
X115854631Y-98267097D01*
X115914211Y-98437366D01*
X116010184Y-98590105D01*
X116013181Y-98593102D01*
X116014498Y-98595514D01*
X116014525Y-98595548D01*
X116014519Y-98595552D01*
X116046666Y-98654425D01*
X116049500Y-98680783D01*
X116049500Y-99107587D01*
X116029815Y-99174626D01*
X116022450Y-99184896D01*
X116020186Y-99187734D01*
X115924211Y-99340476D01*
X115864631Y-99510745D01*
X115864630Y-99510750D01*
X115844435Y-99689996D01*
X115844435Y-99690003D01*
X115864630Y-99869249D01*
X115864631Y-99869254D01*
X115924211Y-100039523D01*
X116010585Y-100176985D01*
X116029585Y-100244221D01*
X116010585Y-100308929D01*
X115934210Y-100430478D01*
X115874630Y-100600750D01*
X115864837Y-100687668D01*
X115837770Y-100752082D01*
X115829298Y-100761465D01*
X114761286Y-101829478D01*
X114649481Y-101941282D01*
X114649479Y-101941285D01*
X114631671Y-101972130D01*
X114610221Y-102009283D01*
X114597272Y-102031711D01*
X114570424Y-102078212D01*
X114570423Y-102078214D01*
X114570423Y-102078215D01*
X114557168Y-102127684D01*
X114531700Y-102222729D01*
X114503539Y-102271508D01*
X114504525Y-102272295D01*
X114500184Y-102277737D01*
X114404211Y-102430476D01*
X114344631Y-102600745D01*
X114344630Y-102600750D01*
X114324435Y-102779996D01*
X114324435Y-102780003D01*
X114344630Y-102959249D01*
X114344631Y-102959254D01*
X114404211Y-103129523D01*
X114460167Y-103218576D01*
X114500184Y-103282262D01*
X114627738Y-103409816D01*
X114780478Y-103505789D01*
X114784005Y-103507023D01*
X114950745Y-103565368D01*
X114950750Y-103565369D01*
X115129996Y-103585565D01*
X115130000Y-103585565D01*
X115130004Y-103585565D01*
X115309249Y-103565369D01*
X115309252Y-103565368D01*
X115309255Y-103565368D01*
X115479522Y-103505789D01*
X115632262Y-103409816D01*
X115759816Y-103282262D01*
X115855789Y-103129522D01*
X115915368Y-102959255D01*
X115917903Y-102936755D01*
X115935565Y-102780003D01*
X115935565Y-102779996D01*
X115915369Y-102600753D01*
X115915368Y-102600747D01*
X115915368Y-102600745D01*
X115887288Y-102520498D01*
X115882291Y-102506216D01*
X115878730Y-102436437D01*
X115911650Y-102377583D01*
X116678535Y-101610698D01*
X116739856Y-101577215D01*
X116752311Y-101575163D01*
X116839255Y-101565368D01*
X117009522Y-101505789D01*
X117162262Y-101409816D01*
X117289816Y-101282262D01*
X117385491Y-101129996D01*
X122094435Y-101129996D01*
X122094435Y-101130003D01*
X122114630Y-101309249D01*
X122114631Y-101309254D01*
X122174211Y-101479523D01*
X122270185Y-101632263D01*
X122272445Y-101635097D01*
X122273334Y-101637275D01*
X122273889Y-101638158D01*
X122273734Y-101638255D01*
X122298855Y-101699783D01*
X122299500Y-101712412D01*
X122299500Y-102786081D01*
X122292541Y-102827036D01*
X122239632Y-102978237D01*
X122239629Y-102978250D01*
X122219434Y-103157496D01*
X122219434Y-103157503D01*
X122239629Y-103336749D01*
X122239630Y-103336754D01*
X122299210Y-103507023D01*
X122337585Y-103568096D01*
X122395183Y-103659762D01*
X122522737Y-103787316D01*
X122675477Y-103883289D01*
X122845744Y-103942868D01*
X122845749Y-103942869D01*
X123024995Y-103963065D01*
X123024999Y-103963065D01*
X123025003Y-103963065D01*
X123204248Y-103942869D01*
X123204251Y-103942868D01*
X123204254Y-103942868D01*
X123374521Y-103883289D01*
X123527261Y-103787316D01*
X123654815Y-103659762D01*
X123750788Y-103507022D01*
X123810367Y-103336755D01*
X123819042Y-103259762D01*
X123830564Y-103157503D01*
X123830564Y-103157496D01*
X123810368Y-102978250D01*
X123810367Y-102978245D01*
X123772158Y-102869051D01*
X123750788Y-102807978D01*
X123654815Y-102655238D01*
X123536818Y-102537241D01*
X123503334Y-102475918D01*
X123500500Y-102449560D01*
X123500500Y-101712412D01*
X123520185Y-101645373D01*
X123527555Y-101635097D01*
X123529810Y-101632267D01*
X123529816Y-101632262D01*
X123625789Y-101479522D01*
X123666044Y-101364481D01*
X129374949Y-101364481D01*
X129374949Y-101364488D01*
X129395144Y-101543734D01*
X129395145Y-101543739D01*
X129454725Y-101714008D01*
X129550699Y-101866748D01*
X129552959Y-101869582D01*
X129553848Y-101871760D01*
X129554403Y-101872643D01*
X129554248Y-101872740D01*
X129579369Y-101934268D01*
X129580014Y-101946897D01*
X129580014Y-102650909D01*
X129561008Y-102716880D01*
X129550503Y-102733598D01*
X129465393Y-102869049D01*
X129405813Y-103039318D01*
X129405812Y-103039323D01*
X129385617Y-103218569D01*
X129385617Y-103218576D01*
X129405812Y-103397822D01*
X129405813Y-103397827D01*
X129465393Y-103568096D01*
X129476370Y-103585565D01*
X129561366Y-103720835D01*
X129688920Y-103848389D01*
X129841660Y-103944362D01*
X130011927Y-104003941D01*
X130011932Y-104003942D01*
X130191178Y-104024138D01*
X130191182Y-104024138D01*
X130191186Y-104024138D01*
X130370431Y-104003942D01*
X130370434Y-104003941D01*
X130370437Y-104003941D01*
X130540704Y-103944362D01*
X130693444Y-103848389D01*
X130820998Y-103720835D01*
X130916971Y-103568095D01*
X130976550Y-103397828D01*
X130976551Y-103397822D01*
X130996747Y-103218576D01*
X130996747Y-103218569D01*
X130976551Y-103039323D01*
X130976550Y-103039318D01*
X130948533Y-102959249D01*
X130916971Y-102869051D01*
X130904792Y-102849669D01*
X130861014Y-102779996D01*
X130820998Y-102716311D01*
X130817333Y-102712646D01*
X130783848Y-102651323D01*
X130781014Y-102624965D01*
X130781014Y-101946897D01*
X130800699Y-101879858D01*
X130808069Y-101869582D01*
X130810324Y-101866752D01*
X130810330Y-101866747D01*
X130906303Y-101714007D01*
X130965882Y-101543740D01*
X130970158Y-101505789D01*
X130974191Y-101469996D01*
X131844434Y-101469996D01*
X131844434Y-101470003D01*
X131864629Y-101649249D01*
X131864630Y-101649254D01*
X131924210Y-101819523D01*
X131972304Y-101896063D01*
X132020183Y-101972262D01*
X132147737Y-102099816D01*
X132300477Y-102195789D01*
X132450896Y-102248423D01*
X132470744Y-102255368D01*
X132470749Y-102255369D01*
X132649995Y-102275565D01*
X132649999Y-102275565D01*
X132650003Y-102275565D01*
X132829248Y-102255369D01*
X132829251Y-102255368D01*
X132829254Y-102255368D01*
X132829255Y-102255367D01*
X132829258Y-102255367D01*
X132881911Y-102236942D01*
X132919195Y-102223895D01*
X132988974Y-102220333D01*
X133049602Y-102255062D01*
X133059417Y-102266625D01*
X133142454Y-102377547D01*
X133257663Y-102463793D01*
X133257670Y-102463797D01*
X133392516Y-102514091D01*
X133392515Y-102514091D01*
X133399443Y-102514835D01*
X133452126Y-102520500D01*
X134547871Y-102520499D01*
X134607482Y-102514091D01*
X134742330Y-102463796D01*
X134857545Y-102377546D01*
X134943795Y-102262331D01*
X134994090Y-102127483D01*
X135000499Y-102067873D01*
X135000498Y-100972128D01*
X134994090Y-100912517D01*
X134975331Y-100862222D01*
X134943796Y-100777671D01*
X134943792Y-100777664D01*
X134874147Y-100684632D01*
X134857545Y-100662454D01*
X134766456Y-100594265D01*
X134724587Y-100538333D01*
X134719603Y-100468641D01*
X134753088Y-100407318D01*
X134766451Y-100395738D01*
X134857545Y-100327546D01*
X134943795Y-100212331D01*
X134994090Y-100077483D01*
X135000499Y-100017873D01*
X135000498Y-98922128D01*
X134994090Y-98862517D01*
X134971616Y-98802262D01*
X134943796Y-98727671D01*
X134943792Y-98727664D01*
X134857546Y-98612455D01*
X134857543Y-98612452D01*
X134753958Y-98534908D01*
X134712087Y-98478975D01*
X134707103Y-98409283D01*
X134740589Y-98347960D01*
X134753947Y-98336384D01*
X134832545Y-98277546D01*
X134918795Y-98162331D01*
X134969090Y-98027483D01*
X134975499Y-97967873D01*
X134975498Y-96872128D01*
X134969090Y-96812517D01*
X134964143Y-96799254D01*
X134918796Y-96677671D01*
X134918792Y-96677664D01*
X134832546Y-96562455D01*
X134757738Y-96506453D01*
X134715868Y-96450519D01*
X134710884Y-96380827D01*
X134744370Y-96319505D01*
X134757740Y-96307920D01*
X134832188Y-96252188D01*
X134832189Y-96252187D01*
X134918349Y-96137093D01*
X134918353Y-96137086D01*
X134968595Y-96002379D01*
X134968597Y-96002372D01*
X134974998Y-95942844D01*
X134974999Y-95942827D01*
X134974999Y-95645000D01*
X132974999Y-95645000D01*
X132974999Y-95942844D01*
X132981400Y-96002372D01*
X132981402Y-96002379D01*
X133031644Y-96137086D01*
X133031648Y-96137093D01*
X133117808Y-96252186D01*
X133192258Y-96307920D01*
X133234129Y-96363854D01*
X133239113Y-96433546D01*
X133205628Y-96494869D01*
X133192259Y-96506453D01*
X133117451Y-96562455D01*
X133031205Y-96677664D01*
X133031201Y-96677671D01*
X132980907Y-96812517D01*
X132974676Y-96870478D01*
X132974500Y-96872123D01*
X132974499Y-96872135D01*
X132974499Y-97370435D01*
X132954814Y-97437474D01*
X132902010Y-97483229D01*
X132856850Y-97493053D01*
X132856918Y-97493655D01*
X132851040Y-97494317D01*
X132850499Y-97494435D01*
X132849995Y-97494435D01*
X132670749Y-97514630D01*
X132670744Y-97514631D01*
X132500475Y-97574211D01*
X132347736Y-97670184D01*
X132220183Y-97797737D01*
X132124210Y-97950476D01*
X132064630Y-98120745D01*
X132064629Y-98120750D01*
X132044434Y-98299996D01*
X132044434Y-98300003D01*
X132064629Y-98479249D01*
X132064630Y-98479254D01*
X132124210Y-98649523D01*
X132220183Y-98802262D01*
X132311937Y-98894016D01*
X132345422Y-98955339D01*
X132340438Y-99025031D01*
X132329250Y-99047669D01*
X132299210Y-99095477D01*
X132299208Y-99095481D01*
X132239632Y-99265737D01*
X132239629Y-99265750D01*
X132219434Y-99444996D01*
X132219434Y-99445003D01*
X132239629Y-99624249D01*
X132239630Y-99624254D01*
X132299210Y-99794523D01*
X132346164Y-99869249D01*
X132395183Y-99947262D01*
X132522737Y-100074816D01*
X132523826Y-100075500D01*
X132660007Y-100161069D01*
X132675477Y-100170789D01*
X132794189Y-100212328D01*
X132845744Y-100230368D01*
X132845749Y-100230369D01*
X133031919Y-100251345D01*
X133031710Y-100253194D01*
X133089795Y-100270250D01*
X133122020Y-100300251D01*
X133142453Y-100327546D01*
X133142454Y-100327546D01*
X133142455Y-100327548D01*
X133233539Y-100395734D01*
X133275410Y-100451668D01*
X133280394Y-100521359D01*
X133246908Y-100582682D01*
X133233539Y-100594266D01*
X133142454Y-100662452D01*
X133142452Y-100662454D01*
X133118738Y-100694132D01*
X133062804Y-100736002D01*
X132993112Y-100740985D01*
X132978519Y-100736861D01*
X132829256Y-100684632D01*
X132829248Y-100684630D01*
X132650003Y-100664435D01*
X132649995Y-100664435D01*
X132470749Y-100684630D01*
X132470744Y-100684631D01*
X132300475Y-100744211D01*
X132147736Y-100840184D01*
X132020183Y-100967737D01*
X131924210Y-101120476D01*
X131864630Y-101290745D01*
X131864629Y-101290750D01*
X131844434Y-101469996D01*
X130974191Y-101469996D01*
X130986079Y-101364488D01*
X130986079Y-101364481D01*
X130965883Y-101185235D01*
X130965882Y-101185230D01*
X130943224Y-101120478D01*
X130906303Y-101014963D01*
X130810330Y-100862223D01*
X130682776Y-100734669D01*
X130618262Y-100694132D01*
X130530037Y-100638696D01*
X130359768Y-100579116D01*
X130359763Y-100579115D01*
X130180518Y-100558920D01*
X130180510Y-100558920D01*
X130001264Y-100579115D01*
X130001259Y-100579116D01*
X129830990Y-100638696D01*
X129678251Y-100734669D01*
X129550698Y-100862222D01*
X129454725Y-101014961D01*
X129395145Y-101185230D01*
X129395144Y-101185235D01*
X129374949Y-101364481D01*
X123666044Y-101364481D01*
X123685368Y-101309255D01*
X123687454Y-101290745D01*
X123705565Y-101130003D01*
X123705565Y-101129996D01*
X123685369Y-100950750D01*
X123685368Y-100950745D01*
X123625788Y-100780476D01*
X123571534Y-100694132D01*
X123529816Y-100627738D01*
X123402262Y-100500184D01*
X123249523Y-100404211D01*
X123079254Y-100344631D01*
X123079249Y-100344630D01*
X122900004Y-100324435D01*
X122899996Y-100324435D01*
X122720750Y-100344630D01*
X122720745Y-100344631D01*
X122550476Y-100404211D01*
X122397737Y-100500184D01*
X122270184Y-100627737D01*
X122174211Y-100780476D01*
X122114631Y-100950745D01*
X122114630Y-100950750D01*
X122094435Y-101129996D01*
X117385491Y-101129996D01*
X117385789Y-101129522D01*
X117445368Y-100959255D01*
X117445369Y-100959249D01*
X117465565Y-100780003D01*
X117465565Y-100779996D01*
X117445369Y-100600750D01*
X117445368Y-100600745D01*
X117399143Y-100468641D01*
X117385789Y-100430478D01*
X117385788Y-100430477D01*
X117385787Y-100430473D01*
X117299415Y-100293014D01*
X117280414Y-100225778D01*
X117299414Y-100161071D01*
X117375789Y-100039522D01*
X117435368Y-99869255D01*
X117437158Y-99853367D01*
X117455565Y-99690003D01*
X117455565Y-99689996D01*
X117435369Y-99510750D01*
X117435368Y-99510745D01*
X117375788Y-99340476D01*
X117279813Y-99187734D01*
X117277550Y-99184896D01*
X117276659Y-99182715D01*
X117276111Y-99181842D01*
X117276264Y-99181745D01*
X117251144Y-99120209D01*
X117250500Y-99107587D01*
X117250500Y-98919996D01*
X128473129Y-98919996D01*
X128473129Y-98920003D01*
X128493324Y-99099249D01*
X128493325Y-99099254D01*
X128552905Y-99269523D01*
X128648876Y-99422259D01*
X128648878Y-99422262D01*
X128776432Y-99549816D01*
X128929172Y-99645789D01*
X128974833Y-99661766D01*
X128974842Y-99661769D01*
X128995882Y-99671421D01*
X129046909Y-99700882D01*
X129199637Y-99741806D01*
X129199640Y-99741806D01*
X129357748Y-99741806D01*
X129357751Y-99741806D01*
X129510479Y-99700882D01*
X129561509Y-99671418D01*
X129582536Y-99661772D01*
X129628216Y-99645789D01*
X129780956Y-99549816D01*
X129908510Y-99422262D01*
X130004483Y-99269522D01*
X130004484Y-99269518D01*
X130005116Y-99268513D01*
X130022425Y-99246807D01*
X130467265Y-98801968D01*
X130467270Y-98801964D01*
X130477473Y-98791760D01*
X130477475Y-98791760D01*
X130589279Y-98679956D01*
X130661096Y-98555565D01*
X130668336Y-98543025D01*
X130709259Y-98390297D01*
X130709259Y-98232183D01*
X130709259Y-97802412D01*
X130728944Y-97735373D01*
X130736314Y-97725097D01*
X130738569Y-97722267D01*
X130738575Y-97722262D01*
X130834548Y-97569522D01*
X130894127Y-97399255D01*
X130894128Y-97399249D01*
X130914324Y-97220003D01*
X130914324Y-97219996D01*
X130894128Y-97040750D01*
X130894127Y-97040745D01*
X130834548Y-96870478D01*
X130821353Y-96849479D01*
X130771679Y-96770423D01*
X130738575Y-96717738D01*
X130611021Y-96590184D01*
X130566889Y-96562454D01*
X130458282Y-96494211D01*
X130288013Y-96434631D01*
X130288008Y-96434630D01*
X130108763Y-96414435D01*
X130108755Y-96414435D01*
X129929509Y-96434630D01*
X129929504Y-96434631D01*
X129759235Y-96494211D01*
X129606496Y-96590184D01*
X129478943Y-96717737D01*
X129382970Y-96870476D01*
X129323390Y-97040745D01*
X129323389Y-97040750D01*
X129303194Y-97219996D01*
X129303194Y-97220003D01*
X129323389Y-97399249D01*
X129323390Y-97399254D01*
X129382970Y-97569523D01*
X129478944Y-97722263D01*
X129481204Y-97725097D01*
X129482093Y-97727275D01*
X129482648Y-97728158D01*
X129482493Y-97728255D01*
X129507614Y-97789783D01*
X129508259Y-97802412D01*
X129508259Y-98001544D01*
X129488574Y-98068583D01*
X129435770Y-98114338D01*
X129370376Y-98124764D01*
X129278697Y-98114435D01*
X129278690Y-98114435D01*
X129099444Y-98134630D01*
X129099439Y-98134631D01*
X128929170Y-98194211D01*
X128776431Y-98290184D01*
X128648878Y-98417737D01*
X128552905Y-98570476D01*
X128493325Y-98740745D01*
X128493324Y-98740750D01*
X128473129Y-98919996D01*
X117250500Y-98919996D01*
X117250500Y-98656569D01*
X117269507Y-98590596D01*
X117282150Y-98570476D01*
X117365789Y-98437365D01*
X117425368Y-98267098D01*
X117429302Y-98232183D01*
X117445565Y-98087846D01*
X117445565Y-98087839D01*
X117425369Y-97908593D01*
X117425368Y-97908588D01*
X117425366Y-97908582D01*
X117365789Y-97738321D01*
X117358848Y-97727275D01*
X117313665Y-97655367D01*
X117269816Y-97585581D01*
X117142262Y-97458027D01*
X117090599Y-97425565D01*
X116989523Y-97362054D01*
X116819254Y-97302474D01*
X116819249Y-97302473D01*
X116640004Y-97282278D01*
X116639996Y-97282278D01*
X116460750Y-97302473D01*
X116460745Y-97302474D01*
X116290476Y-97362054D01*
X116137737Y-97458027D01*
X116010184Y-97585580D01*
X116010182Y-97585583D01*
X115960371Y-97664856D01*
X115908036Y-97711147D01*
X115838983Y-97721794D01*
X115775134Y-97693419D01*
X115736763Y-97635028D01*
X115736051Y-97565162D01*
X115738337Y-97557927D01*
X115755367Y-97509259D01*
X115755369Y-97509249D01*
X115775565Y-97330003D01*
X115775565Y-97329996D01*
X115755369Y-97150750D01*
X115755368Y-97150745D01*
X115719854Y-97049253D01*
X115695789Y-96980478D01*
X115599816Y-96827738D01*
X115472262Y-96700184D01*
X115436422Y-96677664D01*
X115319523Y-96604211D01*
X115149254Y-96544631D01*
X115149249Y-96544630D01*
X114970004Y-96524435D01*
X114969996Y-96524435D01*
X114790750Y-96544630D01*
X114790745Y-96544631D01*
X114620476Y-96604211D01*
X114467736Y-96700185D01*
X114464903Y-96702445D01*
X114462724Y-96703334D01*
X114461842Y-96703889D01*
X114461744Y-96703734D01*
X114400217Y-96728855D01*
X114387588Y-96729500D01*
X111416670Y-96729500D01*
X111416654Y-96729499D01*
X111409058Y-96729499D01*
X111250943Y-96729499D01*
X111174579Y-96749961D01*
X111098214Y-96770423D01*
X111098209Y-96770426D01*
X110961283Y-96849479D01*
X110891462Y-96919299D01*
X110830138Y-96952784D01*
X110817666Y-96954837D01*
X110730750Y-96964630D01*
X110560478Y-97024210D01*
X110407737Y-97120184D01*
X110280184Y-97247737D01*
X110184211Y-97400476D01*
X110124631Y-97570745D01*
X110124630Y-97570750D01*
X110104435Y-97749996D01*
X100211827Y-97749996D01*
X100211827Y-95269996D01*
X118134434Y-95269996D01*
X118134434Y-95270003D01*
X118154629Y-95449249D01*
X118154630Y-95449254D01*
X118214210Y-95619523D01*
X118310184Y-95772263D01*
X118312444Y-95775097D01*
X118313333Y-95777275D01*
X118313888Y-95778158D01*
X118313733Y-95778255D01*
X118338854Y-95839783D01*
X118339499Y-95852412D01*
X118339499Y-96301272D01*
X118320493Y-96367244D01*
X118224210Y-96520475D01*
X118164630Y-96690744D01*
X118164629Y-96690749D01*
X118144434Y-96869995D01*
X118144434Y-96870002D01*
X118164629Y-97049248D01*
X118164630Y-97049253D01*
X118224210Y-97219522D01*
X118319036Y-97370435D01*
X118320183Y-97372261D01*
X118447737Y-97499815D01*
X118538079Y-97556581D01*
X118584232Y-97585581D01*
X118600477Y-97595788D01*
X118770744Y-97655367D01*
X118770749Y-97655368D01*
X118949995Y-97675564D01*
X118949999Y-97675564D01*
X118950003Y-97675564D01*
X119129248Y-97655368D01*
X119129251Y-97655367D01*
X119129254Y-97655367D01*
X119299521Y-97595788D01*
X119452261Y-97499815D01*
X119579815Y-97372261D01*
X119675788Y-97219521D01*
X119735367Y-97049254D01*
X119743116Y-96980478D01*
X119755564Y-96870002D01*
X119755564Y-96869995D01*
X119735368Y-96690749D01*
X119735367Y-96690744D01*
X119710614Y-96620003D01*
X119675788Y-96520477D01*
X119659697Y-96494869D01*
X119621847Y-96434630D01*
X119579815Y-96367737D01*
X119576818Y-96364740D01*
X119575500Y-96362327D01*
X119575474Y-96362294D01*
X119575479Y-96362289D01*
X119543333Y-96303417D01*
X119540499Y-96277059D01*
X119540499Y-95852412D01*
X119560184Y-95785373D01*
X119567554Y-95775097D01*
X119569809Y-95772267D01*
X119569815Y-95772262D01*
X119665788Y-95619522D01*
X119725367Y-95449255D01*
X119745564Y-95270000D01*
X119732221Y-95151578D01*
X119725368Y-95090750D01*
X119725367Y-95090745D01*
X119665788Y-94920478D01*
X119569815Y-94767738D01*
X119442261Y-94640184D01*
X119410143Y-94620003D01*
X119410132Y-94619996D01*
X125524435Y-94619996D01*
X125524435Y-94620003D01*
X125544630Y-94799249D01*
X125544631Y-94799254D01*
X125604211Y-94969523D01*
X125700185Y-95122263D01*
X125702445Y-95125097D01*
X125703334Y-95127275D01*
X125703889Y-95128158D01*
X125703734Y-95128255D01*
X125728855Y-95189783D01*
X125729500Y-95202412D01*
X125729500Y-96262870D01*
X125722542Y-96303824D01*
X125674632Y-96440742D01*
X125674630Y-96440750D01*
X125654435Y-96619996D01*
X125654435Y-96620003D01*
X125674630Y-96799249D01*
X125674631Y-96799254D01*
X125734211Y-96969523D01*
X125784306Y-97049248D01*
X125830184Y-97122262D01*
X125957738Y-97249816D01*
X126009401Y-97282278D01*
X126085343Y-97329996D01*
X126110478Y-97345789D01*
X126266770Y-97400478D01*
X126280745Y-97405368D01*
X126280750Y-97405369D01*
X126459996Y-97425565D01*
X126460000Y-97425565D01*
X126460004Y-97425565D01*
X126639249Y-97405369D01*
X126639252Y-97405368D01*
X126639255Y-97405368D01*
X126809522Y-97345789D01*
X126962262Y-97249816D01*
X127089816Y-97122262D01*
X127185789Y-96969522D01*
X127245368Y-96799255D01*
X127245369Y-96799249D01*
X127265565Y-96620003D01*
X127265565Y-96619996D01*
X127245369Y-96440750D01*
X127245368Y-96440745D01*
X127202944Y-96319505D01*
X127185789Y-96270478D01*
X127174295Y-96252186D01*
X127146582Y-96208080D01*
X127089816Y-96117738D01*
X126966819Y-95994741D01*
X126933334Y-95933418D01*
X126930500Y-95907060D01*
X126930500Y-95202412D01*
X126950185Y-95135373D01*
X126957555Y-95125097D01*
X126959810Y-95122267D01*
X126959816Y-95122262D01*
X127055789Y-94969522D01*
X127098607Y-94847155D01*
X132974999Y-94847155D01*
X132974999Y-95145000D01*
X133724999Y-95145000D01*
X134224999Y-95145000D01*
X134974999Y-95145000D01*
X134974999Y-94847172D01*
X134974998Y-94847155D01*
X134968597Y-94787627D01*
X134968595Y-94787620D01*
X134918353Y-94652913D01*
X134918349Y-94652906D01*
X134832189Y-94537812D01*
X134832186Y-94537809D01*
X134717092Y-94451649D01*
X134717085Y-94451645D01*
X134582378Y-94401403D01*
X134582371Y-94401401D01*
X134522843Y-94395000D01*
X134224999Y-94395000D01*
X134224999Y-95145000D01*
X133724999Y-95145000D01*
X133724999Y-94395000D01*
X133427154Y-94395000D01*
X133367626Y-94401401D01*
X133367619Y-94401403D01*
X133232912Y-94451645D01*
X133232905Y-94451649D01*
X133117811Y-94537809D01*
X133117808Y-94537812D01*
X133031648Y-94652906D01*
X133031644Y-94652913D01*
X132981402Y-94787620D01*
X132981400Y-94787627D01*
X132974999Y-94847155D01*
X127098607Y-94847155D01*
X127115368Y-94799255D01*
X127118919Y-94767738D01*
X127135565Y-94620003D01*
X127135565Y-94619996D01*
X127115369Y-94440750D01*
X127115368Y-94440745D01*
X127099361Y-94395000D01*
X127055789Y-94270478D01*
X127046868Y-94256281D01*
X126999261Y-94180514D01*
X126959816Y-94117738D01*
X126832262Y-93990184D01*
X126679523Y-93894211D01*
X126509254Y-93834631D01*
X126509249Y-93834630D01*
X126330004Y-93814435D01*
X126329996Y-93814435D01*
X126150750Y-93834630D01*
X126150745Y-93834631D01*
X125980476Y-93894211D01*
X125827737Y-93990184D01*
X125700184Y-94117737D01*
X125604211Y-94270476D01*
X125544631Y-94440745D01*
X125544630Y-94440750D01*
X125524435Y-94619996D01*
X119410132Y-94619996D01*
X119289522Y-94544211D01*
X119119253Y-94484631D01*
X119119248Y-94484630D01*
X118940003Y-94464435D01*
X118939995Y-94464435D01*
X118760749Y-94484630D01*
X118760744Y-94484631D01*
X118590475Y-94544211D01*
X118437736Y-94640184D01*
X118310183Y-94767737D01*
X118214210Y-94920476D01*
X118154630Y-95090745D01*
X118154629Y-95090750D01*
X118134434Y-95269996D01*
X100211827Y-95269996D01*
X100211827Y-93644234D01*
X105808102Y-93644234D01*
X105808102Y-93795766D01*
X105818516Y-93834631D01*
X105847321Y-93942136D01*
X105875062Y-93990184D01*
X105923087Y-94073365D01*
X106030237Y-94180515D01*
X106161467Y-94256281D01*
X106307836Y-94295500D01*
X106307838Y-94295500D01*
X106459366Y-94295500D01*
X106459368Y-94295500D01*
X106605737Y-94256281D01*
X106736967Y-94180515D01*
X106844117Y-94073365D01*
X106919883Y-93942135D01*
X106959102Y-93795766D01*
X106959102Y-93644234D01*
X106919883Y-93497865D01*
X106844117Y-93366635D01*
X106736967Y-93259485D01*
X106671352Y-93221602D01*
X106605738Y-93183719D01*
X106532552Y-93164109D01*
X106459368Y-93144500D01*
X106307836Y-93144500D01*
X106161465Y-93183719D01*
X106030237Y-93259485D01*
X106030234Y-93259487D01*
X105923089Y-93366632D01*
X105923087Y-93366635D01*
X105847321Y-93497863D01*
X105808102Y-93644234D01*
X100211827Y-93644234D01*
X100211827Y-90669996D01*
X110254434Y-90669996D01*
X110254434Y-90670003D01*
X110274629Y-90849249D01*
X110274630Y-90849254D01*
X110334210Y-91019523D01*
X110395923Y-91117738D01*
X110430183Y-91172262D01*
X110557737Y-91299816D01*
X110710477Y-91395789D01*
X110829563Y-91437459D01*
X110880744Y-91455368D01*
X110880749Y-91455369D01*
X111059995Y-91475565D01*
X111059999Y-91475565D01*
X111060003Y-91475565D01*
X111239248Y-91455369D01*
X111239250Y-91455368D01*
X111239254Y-91455368D01*
X111239257Y-91455366D01*
X111239261Y-91455366D01*
X111290437Y-91437459D01*
X111331392Y-91430500D01*
X113893920Y-91430500D01*
X113991462Y-91411096D01*
X114038913Y-91401658D01*
X114175495Y-91345084D01*
X114243244Y-91299816D01*
X114298416Y-91262952D01*
X114408059Y-91153307D01*
X114444132Y-91130651D01*
X114443246Y-91128811D01*
X114449518Y-91125790D01*
X114449522Y-91125789D01*
X114602262Y-91029816D01*
X114729816Y-90902262D01*
X114825789Y-90749522D01*
X114885368Y-90579255D01*
X114898295Y-90464523D01*
X114905565Y-90400003D01*
X114905565Y-90399996D01*
X114885369Y-90220750D01*
X114885368Y-90220745D01*
X114848365Y-90114996D01*
X122839434Y-90114996D01*
X122839434Y-90115003D01*
X122859629Y-90294249D01*
X122859630Y-90294254D01*
X122919210Y-90464523D01*
X123015184Y-90617263D01*
X123017444Y-90620097D01*
X123018333Y-90622275D01*
X123018888Y-90623158D01*
X123018733Y-90623255D01*
X123043854Y-90684783D01*
X123044499Y-90697412D01*
X123044499Y-91043857D01*
X123024814Y-91110896D01*
X123022136Y-91114629D01*
X122924210Y-91270476D01*
X122864630Y-91440745D01*
X122864629Y-91440750D01*
X122844434Y-91619996D01*
X122844434Y-91620003D01*
X122864629Y-91799249D01*
X122864630Y-91799254D01*
X122924210Y-91969523D01*
X123020183Y-92122262D01*
X123147737Y-92249816D01*
X123300477Y-92345789D01*
X123470744Y-92405368D01*
X123470749Y-92405369D01*
X123649995Y-92425565D01*
X123649999Y-92425565D01*
X123650003Y-92425565D01*
X123829248Y-92405369D01*
X123829251Y-92405368D01*
X123829254Y-92405368D01*
X123999521Y-92345789D01*
X124152261Y-92249816D01*
X124279815Y-92122262D01*
X124375788Y-91969522D01*
X124435367Y-91799255D01*
X124455564Y-91620000D01*
X124439290Y-91475565D01*
X124435368Y-91440750D01*
X124435367Y-91440745D01*
X124375787Y-91270476D01*
X124289589Y-91133293D01*
X124279815Y-91117738D01*
X124279814Y-91117737D01*
X124275474Y-91112295D01*
X124277061Y-91111029D01*
X124248333Y-91058418D01*
X124245499Y-91032060D01*
X124245499Y-90697412D01*
X124265184Y-90630373D01*
X124272554Y-90620097D01*
X124274809Y-90617267D01*
X124274815Y-90617262D01*
X124370788Y-90464522D01*
X124430367Y-90294255D01*
X124450564Y-90115000D01*
X124443294Y-90050478D01*
X124430368Y-89935750D01*
X124430367Y-89935745D01*
X124417067Y-89897737D01*
X124370788Y-89765478D01*
X124364699Y-89755788D01*
X124313441Y-89674211D01*
X124274815Y-89612738D01*
X124147261Y-89485184D01*
X123994522Y-89389211D01*
X123824253Y-89329631D01*
X123824248Y-89329630D01*
X123645003Y-89309435D01*
X123644995Y-89309435D01*
X123465749Y-89329630D01*
X123465744Y-89329631D01*
X123295475Y-89389211D01*
X123142736Y-89485184D01*
X123015183Y-89612737D01*
X122919210Y-89765476D01*
X122859630Y-89935745D01*
X122859629Y-89935750D01*
X122839434Y-90114996D01*
X114848365Y-90114996D01*
X114825788Y-90050476D01*
X114759017Y-89944211D01*
X114729816Y-89897738D01*
X114602262Y-89770184D01*
X114602260Y-89770183D01*
X114449523Y-89674211D01*
X114279254Y-89614631D01*
X114279249Y-89614630D01*
X114100004Y-89594435D01*
X114099996Y-89594435D01*
X113920750Y-89614630D01*
X113920745Y-89614631D01*
X113750476Y-89674211D01*
X113597739Y-89770183D01*
X113474740Y-89893182D01*
X113413417Y-89926666D01*
X113387059Y-89929500D01*
X111388546Y-89929500D01*
X111347591Y-89922541D01*
X111239256Y-89884632D01*
X111239245Y-89884630D01*
X111060003Y-89864435D01*
X111059995Y-89864435D01*
X110880749Y-89884630D01*
X110880744Y-89884631D01*
X110710475Y-89944211D01*
X110557736Y-90040184D01*
X110430183Y-90167737D01*
X110334210Y-90320476D01*
X110274630Y-90490745D01*
X110274629Y-90490750D01*
X110254434Y-90669996D01*
X100211827Y-90669996D01*
X100211827Y-88408995D01*
X103099499Y-88408995D01*
X103126418Y-88544322D01*
X103126421Y-88544332D01*
X103179221Y-88671804D01*
X103179228Y-88671817D01*
X103255885Y-88786541D01*
X103255888Y-88786545D01*
X103353454Y-88884111D01*
X103353458Y-88884114D01*
X103468182Y-88960771D01*
X103468195Y-88960778D01*
X103595667Y-89013578D01*
X103595672Y-89013580D01*
X103595676Y-89013580D01*
X103595677Y-89013581D01*
X103731004Y-89040500D01*
X103731007Y-89040500D01*
X103868995Y-89040500D01*
X103960041Y-89022389D01*
X104004328Y-89013580D01*
X104131811Y-88960775D01*
X104246542Y-88884114D01*
X104340328Y-88790328D01*
X109774104Y-88790328D01*
X109774104Y-88790335D01*
X109794299Y-88969581D01*
X109794300Y-88969586D01*
X109853880Y-89139855D01*
X109903829Y-89219348D01*
X109949853Y-89292594D01*
X110077407Y-89420148D01*
X110230147Y-89516121D01*
X110395464Y-89573968D01*
X110400414Y-89575700D01*
X110400419Y-89575701D01*
X110579665Y-89595897D01*
X110579669Y-89595897D01*
X110579673Y-89595897D01*
X110758918Y-89575701D01*
X110758921Y-89575700D01*
X110758924Y-89575700D01*
X110929191Y-89516121D01*
X111081931Y-89420148D01*
X111209485Y-89292594D01*
X111305458Y-89139854D01*
X111343899Y-89029996D01*
X124634434Y-89029996D01*
X124634434Y-89030003D01*
X124654629Y-89209249D01*
X124654630Y-89209254D01*
X124714210Y-89379523D01*
X124739736Y-89420147D01*
X124810183Y-89532262D01*
X124937737Y-89659816D01*
X125090477Y-89755789D01*
X125118167Y-89765478D01*
X125260744Y-89815368D01*
X125260749Y-89815369D01*
X125439995Y-89835565D01*
X125439999Y-89835565D01*
X125440003Y-89835565D01*
X125619248Y-89815369D01*
X125619251Y-89815368D01*
X125619254Y-89815368D01*
X125789521Y-89755789D01*
X125942261Y-89659816D01*
X126028109Y-89573968D01*
X129938332Y-89573968D01*
X129938332Y-89573969D01*
X130073383Y-89634099D01*
X130073388Y-89634101D01*
X130248160Y-89671250D01*
X130426838Y-89671250D01*
X130601610Y-89634101D01*
X130601612Y-89634100D01*
X130740556Y-89572236D01*
X130724817Y-89562121D01*
X130706664Y-89543968D01*
X130918331Y-89543968D01*
X131053384Y-89604099D01*
X131053388Y-89604101D01*
X131228160Y-89641250D01*
X131406838Y-89641250D01*
X131581610Y-89604101D01*
X131581612Y-89604100D01*
X131697340Y-89552572D01*
X131885194Y-89552572D01*
X132023383Y-89614099D01*
X132023388Y-89614101D01*
X132198160Y-89651250D01*
X132376838Y-89651250D01*
X132551610Y-89614101D01*
X132551612Y-89614100D01*
X132686664Y-89553969D01*
X132686664Y-89553968D01*
X132287500Y-89154803D01*
X132287499Y-89154803D01*
X131895179Y-89547121D01*
X131885194Y-89552572D01*
X131697340Y-89552572D01*
X131716664Y-89543968D01*
X131317500Y-89144803D01*
X131317499Y-89144803D01*
X130918331Y-89543968D01*
X130706664Y-89543968D01*
X130337500Y-89174803D01*
X130337499Y-89174803D01*
X129938332Y-89573968D01*
X126028109Y-89573968D01*
X126069815Y-89532262D01*
X126165788Y-89379522D01*
X126225367Y-89209255D01*
X126235160Y-89122329D01*
X126262225Y-89057918D01*
X126270689Y-89048543D01*
X126497983Y-88821250D01*
X129482817Y-88821250D01*
X129501494Y-88998950D01*
X129501495Y-88998952D01*
X129556708Y-89168881D01*
X129556709Y-89168883D01*
X129585845Y-89219348D01*
X129585846Y-89219349D01*
X129983946Y-88821250D01*
X129954109Y-88791413D01*
X130187499Y-88791413D01*
X130187499Y-88851087D01*
X130210335Y-88906218D01*
X130252531Y-88948414D01*
X130307662Y-88971250D01*
X130367336Y-88971250D01*
X130422467Y-88948414D01*
X130464663Y-88906218D01*
X130487499Y-88851087D01*
X130487499Y-88821249D01*
X130691052Y-88821249D01*
X130691052Y-88821250D01*
X130812498Y-88942697D01*
X130963946Y-88791250D01*
X130934109Y-88761413D01*
X131167499Y-88761413D01*
X131167499Y-88821087D01*
X131190335Y-88876218D01*
X131232531Y-88918414D01*
X131287662Y-88941250D01*
X131347336Y-88941250D01*
X131402467Y-88918414D01*
X131444663Y-88876218D01*
X131467499Y-88821087D01*
X131467499Y-88791250D01*
X131671052Y-88791250D01*
X131807499Y-88927697D01*
X131933946Y-88801250D01*
X131904109Y-88771413D01*
X132137499Y-88771413D01*
X132137499Y-88831087D01*
X132160335Y-88886218D01*
X132202531Y-88928414D01*
X132257662Y-88951250D01*
X132317336Y-88951250D01*
X132372467Y-88928414D01*
X132414663Y-88886218D01*
X132437499Y-88831087D01*
X132437499Y-88801250D01*
X132641052Y-88801250D01*
X132641052Y-88801251D01*
X133039150Y-89199349D01*
X133039151Y-89199349D01*
X133068289Y-89148881D01*
X133123502Y-88978952D01*
X133123503Y-88978950D01*
X133142180Y-88801250D01*
X133123503Y-88623549D01*
X133123502Y-88623547D01*
X133068292Y-88453625D01*
X133068291Y-88453624D01*
X133036481Y-88398528D01*
X133023370Y-88418930D01*
X132641052Y-88801250D01*
X132437499Y-88801250D01*
X132437499Y-88771413D01*
X132414663Y-88716282D01*
X132372467Y-88674086D01*
X132317336Y-88651250D01*
X132257662Y-88651250D01*
X132202531Y-88674086D01*
X132160335Y-88716282D01*
X132137499Y-88771413D01*
X131904109Y-88771413D01*
X131797499Y-88664803D01*
X131671052Y-88791250D01*
X131467499Y-88791250D01*
X131467499Y-88761413D01*
X131444663Y-88706282D01*
X131402467Y-88664086D01*
X131347336Y-88641250D01*
X131287662Y-88641250D01*
X131232531Y-88664086D01*
X131190335Y-88706282D01*
X131167499Y-88761413D01*
X130934109Y-88761413D01*
X130847168Y-88674472D01*
X130837829Y-88674471D01*
X130691052Y-88821249D01*
X130487499Y-88821249D01*
X130487499Y-88791413D01*
X130464663Y-88736282D01*
X130422467Y-88694086D01*
X130367336Y-88671250D01*
X130307662Y-88671250D01*
X130252531Y-88694086D01*
X130210335Y-88736282D01*
X130187499Y-88791413D01*
X129954109Y-88791413D01*
X129596626Y-88433930D01*
X129588361Y-88418794D01*
X129556707Y-88473620D01*
X129501495Y-88643547D01*
X129501494Y-88643549D01*
X129482817Y-88821250D01*
X126497983Y-88821250D01*
X126894591Y-88424643D01*
X126955914Y-88391158D01*
X126982272Y-88388324D01*
X127275506Y-88388324D01*
X127342545Y-88408009D01*
X127352821Y-88415379D01*
X127355654Y-88417638D01*
X127355656Y-88417640D01*
X127444748Y-88473620D01*
X127492584Y-88503678D01*
X127508396Y-88513613D01*
X127596186Y-88544332D01*
X127678663Y-88573192D01*
X127678668Y-88573193D01*
X127857914Y-88593389D01*
X127857918Y-88593389D01*
X127857922Y-88593389D01*
X128037167Y-88573193D01*
X128037170Y-88573192D01*
X128037173Y-88573192D01*
X128207440Y-88513613D01*
X128360180Y-88417640D01*
X128431570Y-88346250D01*
X130216052Y-88346250D01*
X130337499Y-88467697D01*
X130483946Y-88321250D01*
X131201052Y-88321250D01*
X131317499Y-88437697D01*
X131413946Y-88341250D01*
X131403946Y-88331250D01*
X132171052Y-88331250D01*
X132287499Y-88447697D01*
X132403946Y-88331250D01*
X132287499Y-88214803D01*
X132171052Y-88331250D01*
X131403946Y-88331250D01*
X131297499Y-88224803D01*
X131201052Y-88321250D01*
X130483946Y-88321250D01*
X130488946Y-88316250D01*
X130367499Y-88194803D01*
X130216052Y-88346250D01*
X128431570Y-88346250D01*
X128487734Y-88290086D01*
X128583707Y-88137346D01*
X128643286Y-87967079D01*
X128644510Y-87956218D01*
X128657464Y-87841250D01*
X129512817Y-87841250D01*
X129531494Y-88018950D01*
X129531495Y-88018952D01*
X129586708Y-88188881D01*
X129586709Y-88188883D01*
X129615845Y-88239348D01*
X130013945Y-87841249D01*
X129984109Y-87811413D01*
X130217499Y-87811413D01*
X130217499Y-87871087D01*
X130240335Y-87926218D01*
X130282531Y-87968414D01*
X130337662Y-87991250D01*
X130397336Y-87991250D01*
X130452467Y-87968414D01*
X130494663Y-87926218D01*
X130517499Y-87871087D01*
X130517499Y-87841250D01*
X130721052Y-87841250D01*
X130847499Y-87967697D01*
X130943946Y-87871250D01*
X130914109Y-87841413D01*
X131147499Y-87841413D01*
X131147499Y-87901087D01*
X131170335Y-87956218D01*
X131212531Y-87998414D01*
X131267662Y-88021250D01*
X131327336Y-88021250D01*
X131382467Y-87998414D01*
X131424663Y-87956218D01*
X131447499Y-87901087D01*
X131447499Y-87871250D01*
X131651052Y-87871250D01*
X131782828Y-88003026D01*
X131792167Y-88003026D01*
X131933945Y-87861249D01*
X131904109Y-87831413D01*
X132137499Y-87831413D01*
X132137499Y-87891087D01*
X132160335Y-87946218D01*
X132202531Y-87988414D01*
X132257662Y-88011250D01*
X132317336Y-88011250D01*
X132372467Y-87988414D01*
X132414663Y-87946218D01*
X132437499Y-87891087D01*
X132437499Y-87861250D01*
X132641052Y-87861250D01*
X132641052Y-87861251D01*
X133023369Y-88243568D01*
X133035467Y-88265725D01*
X133068291Y-88208876D01*
X133123502Y-88038952D01*
X133123503Y-88038950D01*
X133142180Y-87861250D01*
X133123503Y-87683549D01*
X133123502Y-87683547D01*
X133068292Y-87513625D01*
X133068289Y-87513619D01*
X133039150Y-87463149D01*
X132641052Y-87861250D01*
X132437499Y-87861250D01*
X132437499Y-87831413D01*
X132414663Y-87776282D01*
X132372467Y-87734086D01*
X132317336Y-87711250D01*
X132257662Y-87711250D01*
X132202531Y-87734086D01*
X132160335Y-87776282D01*
X132137499Y-87831413D01*
X131904109Y-87831413D01*
X131797499Y-87724803D01*
X131651052Y-87871250D01*
X131447499Y-87871250D01*
X131447499Y-87841413D01*
X131424663Y-87786282D01*
X131382467Y-87744086D01*
X131327336Y-87721250D01*
X131267662Y-87721250D01*
X131212531Y-87744086D01*
X131170335Y-87786282D01*
X131147499Y-87841413D01*
X130914109Y-87841413D01*
X130817499Y-87744803D01*
X130721052Y-87841250D01*
X130517499Y-87841250D01*
X130517499Y-87811413D01*
X130494663Y-87756282D01*
X130452467Y-87714086D01*
X130397336Y-87691250D01*
X130337662Y-87691250D01*
X130282531Y-87714086D01*
X130240335Y-87756282D01*
X130217499Y-87811413D01*
X129984109Y-87811413D01*
X129615845Y-87443149D01*
X129586708Y-87493618D01*
X129531495Y-87663547D01*
X129531494Y-87663549D01*
X129512817Y-87841250D01*
X128657464Y-87841250D01*
X128663483Y-87787827D01*
X128663483Y-87787820D01*
X128643287Y-87608574D01*
X128643286Y-87608569D01*
X128583707Y-87438302D01*
X128519583Y-87336250D01*
X130216052Y-87336250D01*
X130367498Y-87487696D01*
X130479275Y-87375918D01*
X130479275Y-87366580D01*
X131155721Y-87366580D01*
X131155721Y-87375919D01*
X131297499Y-87517697D01*
X131413946Y-87401250D01*
X131413946Y-87401249D01*
X131383947Y-87371250D01*
X132151052Y-87371250D01*
X132287499Y-87507697D01*
X132443946Y-87351250D01*
X132307499Y-87214803D01*
X132151052Y-87371250D01*
X131383947Y-87371250D01*
X131267500Y-87254803D01*
X131155721Y-87366580D01*
X130479275Y-87366580D01*
X130479275Y-87356579D01*
X130337499Y-87214803D01*
X130216052Y-87336250D01*
X128519583Y-87336250D01*
X128487734Y-87285562D01*
X128360180Y-87158008D01*
X128207441Y-87062035D01*
X128037172Y-87002455D01*
X128037167Y-87002454D01*
X127857922Y-86982259D01*
X127857914Y-86982259D01*
X127678668Y-87002454D01*
X127678663Y-87002455D01*
X127508394Y-87062035D01*
X127355654Y-87158009D01*
X127352821Y-87160269D01*
X127350642Y-87161158D01*
X127349760Y-87161713D01*
X127349662Y-87161558D01*
X127288135Y-87186679D01*
X127275506Y-87187324D01*
X126761232Y-87187324D01*
X126603118Y-87187324D01*
X126450390Y-87228247D01*
X126450389Y-87228247D01*
X126450387Y-87228248D01*
X126450384Y-87228249D01*
X126415241Y-87248540D01*
X126415239Y-87248541D01*
X126313465Y-87307299D01*
X126313457Y-87307305D01*
X126201653Y-87419110D01*
X125421464Y-88199298D01*
X125360141Y-88232783D01*
X125347667Y-88234837D01*
X125260749Y-88244630D01*
X125090477Y-88304210D01*
X124937736Y-88400184D01*
X124810183Y-88527737D01*
X124714210Y-88680476D01*
X124654630Y-88850745D01*
X124654629Y-88850750D01*
X124634434Y-89029996D01*
X111343899Y-89029996D01*
X111365037Y-88969587D01*
X111366030Y-88960775D01*
X111385234Y-88790335D01*
X111385234Y-88790328D01*
X111365038Y-88611082D01*
X111365036Y-88611074D01*
X111327457Y-88503678D01*
X111320499Y-88462724D01*
X111320499Y-86861250D01*
X129482817Y-86861250D01*
X129501494Y-87038950D01*
X129501495Y-87038952D01*
X129556708Y-87208881D01*
X129556709Y-87208883D01*
X129587667Y-87262505D01*
X129596626Y-87248567D01*
X129983945Y-86861249D01*
X129954109Y-86831413D01*
X130187499Y-86831413D01*
X130187499Y-86891087D01*
X130210335Y-86946218D01*
X130252531Y-86988414D01*
X130307662Y-87011250D01*
X130367336Y-87011250D01*
X130422467Y-86988414D01*
X130464663Y-86946218D01*
X130487499Y-86891087D01*
X130487499Y-86831413D01*
X130464663Y-86776282D01*
X130422467Y-86734086D01*
X130367336Y-86711250D01*
X130307662Y-86711250D01*
X130252531Y-86734086D01*
X130210335Y-86776282D01*
X130187499Y-86831413D01*
X129954109Y-86831413D01*
X129585846Y-86463150D01*
X129556707Y-86513620D01*
X129501495Y-86683547D01*
X129501494Y-86683549D01*
X129482817Y-86861250D01*
X111320499Y-86861250D01*
X111320499Y-86175352D01*
X111340120Y-86108530D01*
X129938331Y-86108530D01*
X130337499Y-86507697D01*
X130822499Y-86992697D01*
X130943783Y-86871413D01*
X131117499Y-86871413D01*
X131117499Y-86931087D01*
X131140335Y-86986218D01*
X131182531Y-87028414D01*
X131237662Y-87051250D01*
X131297336Y-87051250D01*
X131352467Y-87028414D01*
X131394663Y-86986218D01*
X131417499Y-86931087D01*
X131417499Y-86901250D01*
X131621052Y-86901250D01*
X131767499Y-87047697D01*
X131953946Y-86861250D01*
X131924109Y-86831413D01*
X132157499Y-86831413D01*
X132157499Y-86891087D01*
X132180335Y-86946218D01*
X132222531Y-86988414D01*
X132277662Y-87011250D01*
X132337336Y-87011250D01*
X132392467Y-86988414D01*
X132434663Y-86946218D01*
X132457499Y-86891087D01*
X132457499Y-86861249D01*
X132661052Y-86861249D01*
X132661052Y-86861251D01*
X133059150Y-87259349D01*
X133088289Y-87208881D01*
X133143502Y-87038952D01*
X133143503Y-87038950D01*
X133162180Y-86861250D01*
X133143503Y-86683549D01*
X133143502Y-86683547D01*
X133088292Y-86513625D01*
X133088289Y-86513619D01*
X133059150Y-86463149D01*
X132661052Y-86861249D01*
X132457499Y-86861249D01*
X132457499Y-86831413D01*
X132434663Y-86776282D01*
X132392467Y-86734086D01*
X132337336Y-86711250D01*
X132277662Y-86711250D01*
X132222531Y-86734086D01*
X132180335Y-86776282D01*
X132157499Y-86831413D01*
X131924109Y-86831413D01*
X131807499Y-86714803D01*
X131621052Y-86901250D01*
X131417499Y-86901250D01*
X131417499Y-86871413D01*
X131394663Y-86816282D01*
X131352467Y-86774086D01*
X131297336Y-86751250D01*
X131237662Y-86751250D01*
X131182531Y-86774086D01*
X131140335Y-86816282D01*
X131117499Y-86871413D01*
X130943783Y-86871413D01*
X131267499Y-86547697D01*
X131666665Y-86148529D01*
X131576826Y-86108530D01*
X131908331Y-86108530D01*
X132307499Y-86507697D01*
X132307500Y-86507697D01*
X132706664Y-86108530D01*
X132706664Y-86108529D01*
X132571614Y-86048400D01*
X132571609Y-86048398D01*
X132396838Y-86011250D01*
X132218160Y-86011250D01*
X132043388Y-86048398D01*
X132043383Y-86048400D01*
X131908331Y-86108530D01*
X131576826Y-86108530D01*
X131531614Y-86088400D01*
X131531609Y-86088398D01*
X131356838Y-86051250D01*
X131178160Y-86051250D01*
X131003388Y-86088398D01*
X131003383Y-86088400D01*
X130892997Y-86137548D01*
X130823747Y-86146833D01*
X130769676Y-86124587D01*
X130764844Y-86121076D01*
X130764839Y-86121073D01*
X130601614Y-86048400D01*
X130601609Y-86048398D01*
X130426838Y-86011250D01*
X130248160Y-86011250D01*
X130073388Y-86048398D01*
X130073383Y-86048400D01*
X129938332Y-86108529D01*
X129938331Y-86108530D01*
X111340120Y-86108530D01*
X111340184Y-86108313D01*
X111356813Y-86087676D01*
X111365916Y-86078572D01*
X111427237Y-86045083D01*
X111467485Y-86043028D01*
X111490000Y-86045565D01*
X111490000Y-86045564D01*
X111490001Y-86045565D01*
X111490003Y-86045565D01*
X111669249Y-86025369D01*
X111669252Y-86025368D01*
X111669255Y-86025368D01*
X111839522Y-85965789D01*
X111992262Y-85869816D01*
X112119816Y-85742262D01*
X112215789Y-85589522D01*
X112275368Y-85419255D01*
X112277896Y-85396817D01*
X112295565Y-85240003D01*
X112295565Y-85239996D01*
X112275369Y-85060750D01*
X112275368Y-85060745D01*
X112215788Y-84890476D01*
X112119815Y-84737737D01*
X111992262Y-84610184D01*
X111839523Y-84514211D01*
X111669254Y-84454631D01*
X111669249Y-84454630D01*
X111490004Y-84434435D01*
X111489996Y-84434435D01*
X111310750Y-84454630D01*
X111310745Y-84454631D01*
X111230983Y-84482542D01*
X111190028Y-84489500D01*
X111069201Y-84489500D01*
X110924213Y-84518340D01*
X110924207Y-84518342D01*
X110787629Y-84574914D01*
X110787617Y-84574921D01*
X110738390Y-84607813D01*
X110664709Y-84657044D01*
X110664701Y-84657050D01*
X109987051Y-85334700D01*
X109987045Y-85334707D01*
X109945545Y-85396817D01*
X109945546Y-85396818D01*
X109904912Y-85457630D01*
X109848342Y-85594204D01*
X109848339Y-85594214D01*
X109819499Y-85739201D01*
X109819499Y-88517995D01*
X109812541Y-88558950D01*
X109794300Y-88611077D01*
X109794299Y-88611082D01*
X109774104Y-88790328D01*
X104340328Y-88790328D01*
X104344114Y-88786542D01*
X104420775Y-88671811D01*
X104473580Y-88544328D01*
X104492801Y-88447697D01*
X104500500Y-88408995D01*
X104500500Y-88271004D01*
X104473581Y-88135677D01*
X104473580Y-88135676D01*
X104473580Y-88135672D01*
X104473578Y-88135667D01*
X104420778Y-88008195D01*
X104420771Y-88008182D01*
X104344114Y-87893458D01*
X104344111Y-87893454D01*
X104246545Y-87795888D01*
X104246541Y-87795885D01*
X104131817Y-87719228D01*
X104131804Y-87719221D01*
X104004332Y-87666421D01*
X104004322Y-87666418D01*
X103868995Y-87639500D01*
X103868993Y-87639500D01*
X103731007Y-87639500D01*
X103731005Y-87639500D01*
X103595677Y-87666418D01*
X103595667Y-87666421D01*
X103468195Y-87719221D01*
X103468182Y-87719228D01*
X103353458Y-87795885D01*
X103353454Y-87795888D01*
X103255888Y-87893454D01*
X103255885Y-87893458D01*
X103179228Y-88008182D01*
X103179221Y-88008195D01*
X103126421Y-88135667D01*
X103126418Y-88135677D01*
X103099500Y-88271004D01*
X103099500Y-88271007D01*
X103099500Y-88408993D01*
X103099500Y-88408995D01*
X103099499Y-88408995D01*
X100211827Y-88408995D01*
X100211827Y-82759874D01*
X100211832Y-82758839D01*
X100212454Y-82688197D01*
X100221947Y-81608995D01*
X103099499Y-81608995D01*
X103126418Y-81744322D01*
X103126421Y-81744332D01*
X103179221Y-81871804D01*
X103179228Y-81871817D01*
X103255885Y-81986541D01*
X103255888Y-81986545D01*
X103353454Y-82084111D01*
X103353458Y-82084114D01*
X103468182Y-82160771D01*
X103468195Y-82160778D01*
X103595667Y-82213578D01*
X103595672Y-82213580D01*
X103595676Y-82213580D01*
X103595677Y-82213581D01*
X103731004Y-82240500D01*
X103731007Y-82240500D01*
X103868995Y-82240500D01*
X103960041Y-82222389D01*
X104004328Y-82213580D01*
X104131811Y-82160775D01*
X104246542Y-82084114D01*
X104344114Y-81986542D01*
X104420775Y-81871811D01*
X104473580Y-81744328D01*
X104486525Y-81679249D01*
X104500500Y-81608995D01*
X104500500Y-81471004D01*
X104473581Y-81335677D01*
X104473580Y-81335676D01*
X104473580Y-81335672D01*
X104456164Y-81293626D01*
X104420778Y-81208195D01*
X104420771Y-81208182D01*
X104344114Y-81093458D01*
X104344111Y-81093454D01*
X104246545Y-80995888D01*
X104246541Y-80995885D01*
X104131817Y-80919228D01*
X104131804Y-80919221D01*
X104004332Y-80866421D01*
X104004322Y-80866418D01*
X103868995Y-80839500D01*
X103868993Y-80839500D01*
X103731007Y-80839500D01*
X103731005Y-80839500D01*
X103595677Y-80866418D01*
X103595667Y-80866421D01*
X103468195Y-80919221D01*
X103468182Y-80919228D01*
X103353458Y-80995885D01*
X103353454Y-80995888D01*
X103255888Y-81093454D01*
X103255885Y-81093458D01*
X103179228Y-81208182D01*
X103179221Y-81208195D01*
X103126421Y-81335667D01*
X103126418Y-81335677D01*
X103099500Y-81471004D01*
X103099500Y-81471007D01*
X103099500Y-81608993D01*
X103099500Y-81608995D01*
X103099499Y-81608995D01*
X100221947Y-81608995D01*
X100249884Y-78433194D01*
X100249884Y-78433164D01*
X100250000Y-78420000D01*
X100250000Y-78226849D01*
X100250008Y-78220000D01*
X100250037Y-78220000D01*
X100250008Y-78219728D01*
X100250030Y-78213290D01*
X100250071Y-78213151D01*
X100250031Y-78213151D01*
X100250560Y-78097451D01*
X100252831Y-77599985D01*
X103415000Y-77599985D01*
X103425493Y-77702689D01*
X103425494Y-77702696D01*
X103480641Y-77869118D01*
X103480643Y-77869123D01*
X103572684Y-78018344D01*
X103696655Y-78142315D01*
X103845876Y-78234356D01*
X103845881Y-78234358D01*
X104012303Y-78289505D01*
X104012310Y-78289506D01*
X104115014Y-78299999D01*
X104115027Y-78300000D01*
X104715000Y-78300000D01*
X105215000Y-78300000D01*
X105814973Y-78300000D01*
X105814985Y-78299999D01*
X105917689Y-78289506D01*
X105917696Y-78289505D01*
X106084118Y-78234358D01*
X106084123Y-78234356D01*
X106233344Y-78142315D01*
X106357315Y-78018344D01*
X106449356Y-77869123D01*
X106449358Y-77869118D01*
X106504505Y-77702696D01*
X106504506Y-77702689D01*
X106514999Y-77599985D01*
X106515000Y-77599972D01*
X106515000Y-76550000D01*
X105215000Y-76550000D01*
X105215000Y-78300000D01*
X104715000Y-78300000D01*
X104715000Y-76550000D01*
X103415000Y-76550000D01*
X103415000Y-77599985D01*
X100252831Y-77599985D01*
X100264703Y-75000014D01*
X103415000Y-75000014D01*
X103415000Y-76050000D01*
X104715000Y-76050000D01*
X105215000Y-76050000D01*
X106515000Y-76050000D01*
X106515000Y-75000027D01*
X106514999Y-75000014D01*
X106504506Y-74897310D01*
X106504505Y-74897303D01*
X106449358Y-74730881D01*
X106449356Y-74730876D01*
X106357315Y-74581655D01*
X106233344Y-74457684D01*
X106084123Y-74365643D01*
X106084118Y-74365641D01*
X105917696Y-74310494D01*
X105917689Y-74310493D01*
X105814985Y-74300000D01*
X105215000Y-74300000D01*
X105215000Y-76050000D01*
X104715000Y-76050000D01*
X104715000Y-74300000D01*
X104115014Y-74300000D01*
X104012310Y-74310493D01*
X104012303Y-74310494D01*
X103845881Y-74365641D01*
X103845876Y-74365643D01*
X103696655Y-74457684D01*
X103572684Y-74581655D01*
X103480643Y-74730876D01*
X103480641Y-74730881D01*
X103425494Y-74897303D01*
X103425493Y-74897310D01*
X103415000Y-75000014D01*
X100264703Y-75000014D01*
X100266338Y-74641936D01*
X100266564Y-74635008D01*
X100271408Y-74555072D01*
X100286235Y-74310415D01*
X100287844Y-74296658D01*
X100329662Y-74056582D01*
X106615001Y-74056582D01*
X106621408Y-74127102D01*
X106621409Y-74127107D01*
X106671981Y-74289396D01*
X106759927Y-74434877D01*
X106880122Y-74555072D01*
X107025604Y-74643019D01*
X107025603Y-74643019D01*
X107187894Y-74693590D01*
X107187893Y-74693590D01*
X107258408Y-74699998D01*
X107258426Y-74699999D01*
X107264999Y-74699998D01*
X107265000Y-74699998D01*
X107265000Y-73650000D01*
X106615001Y-73650000D01*
X106615001Y-74056582D01*
X100329662Y-74056582D01*
X100343053Y-73979708D01*
X100346194Y-73966198D01*
X100436455Y-73657403D01*
X100441086Y-73644328D01*
X100474531Y-73564401D01*
X100565270Y-73347551D01*
X100571319Y-73335101D01*
X100727884Y-73054033D01*
X100735299Y-73042317D01*
X100922275Y-72780498D01*
X100930937Y-72769702D01*
X100954550Y-72743427D01*
X106615000Y-72743427D01*
X106615000Y-73150000D01*
X107265000Y-73150000D01*
X107265000Y-72100000D01*
X107765000Y-72100000D01*
X107765000Y-74699999D01*
X107771581Y-74699999D01*
X107842101Y-74693591D01*
X107853604Y-74690007D01*
X107923464Y-74688853D01*
X107982858Y-74725651D01*
X108012929Y-74788718D01*
X108014500Y-74808391D01*
X108014500Y-78269580D01*
X108014500Y-78269582D01*
X108014499Y-78269582D01*
X108043340Y-78414569D01*
X108043343Y-78414579D01*
X108099914Y-78551154D01*
X108132812Y-78600389D01*
X108132813Y-78600392D01*
X108182046Y-78674076D01*
X108182052Y-78674083D01*
X110037376Y-80529405D01*
X110037397Y-80529428D01*
X111429616Y-81921646D01*
X111458976Y-81968371D01*
X111469241Y-81997707D01*
X111469242Y-81997708D01*
X111475808Y-82008158D01*
X111565214Y-82150446D01*
X111692768Y-82278000D01*
X111724154Y-82297721D01*
X111845507Y-82373973D01*
X111864839Y-82380737D01*
X111874839Y-82384236D01*
X111921567Y-82413597D01*
X112345767Y-82837797D01*
X112379252Y-82899120D01*
X112375128Y-82966432D01*
X112324632Y-83110742D01*
X112324630Y-83110750D01*
X112304435Y-83289996D01*
X112304435Y-83290003D01*
X112324630Y-83469249D01*
X112324631Y-83469254D01*
X112384211Y-83639523D01*
X112421912Y-83699523D01*
X112480184Y-83792262D01*
X112607738Y-83919816D01*
X112760478Y-84015789D01*
X112893559Y-84062356D01*
X112930745Y-84075368D01*
X112930750Y-84075369D01*
X113109996Y-84095565D01*
X113110000Y-84095565D01*
X113110004Y-84095565D01*
X113289249Y-84075369D01*
X113289252Y-84075368D01*
X113289255Y-84075368D01*
X113459522Y-84015789D01*
X113612262Y-83919816D01*
X113612267Y-83919810D01*
X113615097Y-83917555D01*
X113617275Y-83916665D01*
X113618158Y-83916111D01*
X113618255Y-83916265D01*
X113679783Y-83891145D01*
X113692412Y-83890500D01*
X114167060Y-83890500D01*
X114234099Y-83910185D01*
X114254741Y-83926819D01*
X114307738Y-83979816D01*
X114364987Y-84015788D01*
X114459809Y-84075369D01*
X114460478Y-84075789D01*
X114516995Y-84095565D01*
X114630745Y-84135368D01*
X114630750Y-84135369D01*
X114809996Y-84155565D01*
X114810000Y-84155565D01*
X114810004Y-84155565D01*
X114989249Y-84135369D01*
X114989252Y-84135368D01*
X114989255Y-84135368D01*
X115159522Y-84075789D01*
X115312262Y-83979816D01*
X115408975Y-83883103D01*
X123171159Y-83883103D01*
X123171159Y-83883110D01*
X123191354Y-84062356D01*
X123191355Y-84062361D01*
X123250935Y-84232630D01*
X123346908Y-84385369D01*
X123474462Y-84512923D01*
X123627202Y-84608896D01*
X123764801Y-84657044D01*
X123797469Y-84668475D01*
X123797474Y-84668476D01*
X123976720Y-84688672D01*
X123976724Y-84688672D01*
X123976728Y-84688672D01*
X124155973Y-84668476D01*
X124155976Y-84668475D01*
X124155979Y-84668475D01*
X124326246Y-84608896D01*
X124478986Y-84512923D01*
X124606540Y-84385369D01*
X124702513Y-84232629D01*
X124762092Y-84062362D01*
X124771885Y-83975438D01*
X124798950Y-83911028D01*
X124807425Y-83901642D01*
X124860516Y-83848551D01*
X124860516Y-83848550D01*
X124860519Y-83848548D01*
X124931105Y-83726289D01*
X124939576Y-83711617D01*
X124980500Y-83558889D01*
X124980500Y-83400775D01*
X124980500Y-83393180D01*
X124980499Y-83393162D01*
X124980499Y-82082412D01*
X125000184Y-82015373D01*
X125007554Y-82005097D01*
X125009809Y-82002267D01*
X125009815Y-82002262D01*
X125105788Y-81849522D01*
X125165367Y-81679255D01*
X125172422Y-81616639D01*
X125185564Y-81500003D01*
X125185564Y-81499996D01*
X125165368Y-81320750D01*
X125165367Y-81320745D01*
X125125982Y-81208189D01*
X125105788Y-81150478D01*
X125009815Y-80997738D01*
X124882261Y-80870184D01*
X124863122Y-80858158D01*
X124729522Y-80774211D01*
X124559253Y-80714631D01*
X124559248Y-80714630D01*
X124380003Y-80694435D01*
X124379995Y-80694435D01*
X124200749Y-80714630D01*
X124200744Y-80714631D01*
X124030475Y-80774211D01*
X123877736Y-80870184D01*
X123750183Y-80997737D01*
X123654210Y-81150476D01*
X123594630Y-81320745D01*
X123594629Y-81320750D01*
X123574434Y-81499996D01*
X123574434Y-81500003D01*
X123594629Y-81679249D01*
X123594630Y-81679254D01*
X123654210Y-81849523D01*
X123712104Y-81941659D01*
X123747320Y-81997706D01*
X123750184Y-82002263D01*
X123752444Y-82005097D01*
X123753333Y-82007275D01*
X123753888Y-82008158D01*
X123753733Y-82008255D01*
X123778854Y-82069783D01*
X123779499Y-82082412D01*
X123779499Y-83016044D01*
X123759814Y-83083083D01*
X123707010Y-83128838D01*
X123696455Y-83133085D01*
X123627200Y-83157318D01*
X123627199Y-83157319D01*
X123474461Y-83253291D01*
X123346908Y-83380844D01*
X123250935Y-83533583D01*
X123191355Y-83703852D01*
X123191354Y-83703857D01*
X123171159Y-83883103D01*
X115408975Y-83883103D01*
X115439816Y-83852262D01*
X115535789Y-83699522D01*
X115595368Y-83529255D01*
X115595369Y-83529249D01*
X115615565Y-83350003D01*
X115615565Y-83349996D01*
X115595369Y-83170750D01*
X115595368Y-83170745D01*
X115535788Y-83000476D01*
X115439815Y-82847737D01*
X115312262Y-82720184D01*
X115159521Y-82624210D01*
X114989249Y-82564630D01*
X114964228Y-82561811D01*
X114899814Y-82534743D01*
X114860261Y-82477147D01*
X114854894Y-82424707D01*
X114865565Y-82330002D01*
X114865565Y-82329996D01*
X114845369Y-82150750D01*
X114845367Y-82150742D01*
X114783842Y-81974912D01*
X114780281Y-81905134D01*
X114815010Y-81844506D01*
X114834909Y-81828967D01*
X114902261Y-81786647D01*
X115029815Y-81659093D01*
X115125788Y-81506353D01*
X115185367Y-81336086D01*
X115185414Y-81335672D01*
X115205564Y-81156834D01*
X115205564Y-81156827D01*
X115185368Y-80977581D01*
X115185367Y-80977576D01*
X115125787Y-80807307D01*
X115062386Y-80706406D01*
X115029815Y-80654569D01*
X114902261Y-80527015D01*
X114834809Y-80484632D01*
X114749522Y-80431042D01*
X114579253Y-80371462D01*
X114579248Y-80371461D01*
X114400003Y-80351266D01*
X114399995Y-80351266D01*
X114220749Y-80371461D01*
X114220744Y-80371462D01*
X114050475Y-80431042D01*
X113897735Y-80527016D01*
X113894902Y-80529276D01*
X113892723Y-80530165D01*
X113891841Y-80530720D01*
X113891743Y-80530565D01*
X113830216Y-80555686D01*
X113817587Y-80556331D01*
X113302991Y-80556331D01*
X113256379Y-80545692D01*
X113256093Y-80546510D01*
X113079261Y-80484633D01*
X113079248Y-80484630D01*
X112900003Y-80464435D01*
X112899995Y-80464435D01*
X112720749Y-80484630D01*
X112720744Y-80484631D01*
X112550475Y-80544211D01*
X112403567Y-80636520D01*
X112336330Y-80655520D01*
X112269495Y-80635152D01*
X112249914Y-80619207D01*
X111980703Y-80349996D01*
X120486714Y-80349996D01*
X120486714Y-80350003D01*
X120506909Y-80529249D01*
X120506910Y-80529254D01*
X120566490Y-80699523D01*
X120662464Y-80852263D01*
X120664724Y-80855097D01*
X120665613Y-80857275D01*
X120666168Y-80858158D01*
X120666013Y-80858255D01*
X120691134Y-80919783D01*
X120691779Y-80932412D01*
X120691779Y-81715308D01*
X120672094Y-81782347D01*
X120664729Y-81792617D01*
X120662465Y-81795455D01*
X120566490Y-81948197D01*
X120506910Y-82118466D01*
X120506909Y-82118471D01*
X120486714Y-82297717D01*
X120486714Y-82297724D01*
X120506909Y-82476970D01*
X120506910Y-82476975D01*
X120566490Y-82647244D01*
X120592223Y-82688197D01*
X120662463Y-82799983D01*
X120790017Y-82927537D01*
X120851918Y-82966432D01*
X120906098Y-83000476D01*
X120942757Y-83023510D01*
X121113024Y-83083089D01*
X121135086Y-83085574D01*
X121199499Y-83112640D01*
X121239055Y-83170234D01*
X121244423Y-83194911D01*
X121246908Y-83216970D01*
X121306488Y-83387242D01*
X121395721Y-83529255D01*
X121402462Y-83539983D01*
X121530016Y-83667537D01*
X121682756Y-83763510D01*
X121853023Y-83823089D01*
X121853028Y-83823090D01*
X122032274Y-83843286D01*
X122032278Y-83843286D01*
X122032282Y-83843286D01*
X122211527Y-83823090D01*
X122211530Y-83823089D01*
X122211533Y-83823089D01*
X122381800Y-83763510D01*
X122534540Y-83667537D01*
X122662094Y-83539983D01*
X122758067Y-83387243D01*
X122817646Y-83216976D01*
X122820132Y-83194911D01*
X122837843Y-83037724D01*
X122837843Y-83037717D01*
X122817647Y-82858471D01*
X122817646Y-82858466D01*
X122758066Y-82688197D01*
X122717860Y-82624210D01*
X122662094Y-82535459D01*
X122534540Y-82407905D01*
X122529616Y-82402981D01*
X122531736Y-82400860D01*
X122499283Y-82354519D01*
X122492779Y-82314886D01*
X122492779Y-81958591D01*
X122512464Y-81891552D01*
X122565268Y-81845797D01*
X122575830Y-81841548D01*
X122576751Y-81841225D01*
X122579779Y-81840166D01*
X122732519Y-81744193D01*
X122860073Y-81616639D01*
X122956046Y-81463899D01*
X123015625Y-81293632D01*
X123015626Y-81293626D01*
X123035822Y-81114380D01*
X123035822Y-81114373D01*
X123015626Y-80935127D01*
X123015625Y-80935122D01*
X122970901Y-80807309D01*
X122956046Y-80764855D01*
X122860073Y-80612115D01*
X122732519Y-80484561D01*
X122700489Y-80464435D01*
X122579780Y-80388588D01*
X122409511Y-80329008D01*
X122409506Y-80329007D01*
X122230261Y-80308812D01*
X122230255Y-80308812D01*
X122218136Y-80310177D01*
X122149315Y-80298119D01*
X122097938Y-80250768D01*
X122081038Y-80200838D01*
X122077648Y-80170750D01*
X122077647Y-80170745D01*
X122018068Y-80000478D01*
X121922095Y-79847738D01*
X121794541Y-79720184D01*
X121641802Y-79624211D01*
X121471533Y-79564631D01*
X121471528Y-79564630D01*
X121292283Y-79544435D01*
X121292275Y-79544435D01*
X121113029Y-79564630D01*
X121113024Y-79564631D01*
X120942755Y-79624211D01*
X120790016Y-79720184D01*
X120662463Y-79847737D01*
X120566490Y-80000476D01*
X120506910Y-80170745D01*
X120506909Y-80170750D01*
X120486714Y-80349996D01*
X111980703Y-80349996D01*
X111098766Y-79468059D01*
X111098743Y-79468038D01*
X110319325Y-78688620D01*
X110071071Y-78440365D01*
X110037587Y-78379044D01*
X110042571Y-78309352D01*
X110084443Y-78253419D01*
X110149907Y-78229002D01*
X110197757Y-78234980D01*
X110362303Y-78289505D01*
X110362310Y-78289506D01*
X110465014Y-78299999D01*
X110465027Y-78300000D01*
X111065000Y-78300000D01*
X111065000Y-76550000D01*
X109765000Y-76550000D01*
X109765000Y-77599985D01*
X109775493Y-77702689D01*
X109775494Y-77702696D01*
X109830019Y-77867241D01*
X109832421Y-77937070D01*
X109796689Y-77997112D01*
X109734168Y-78028304D01*
X109664709Y-78020743D01*
X109624632Y-77993926D01*
X109551819Y-77921113D01*
X109518334Y-77859790D01*
X109515500Y-77833432D01*
X109515500Y-75000014D01*
X109765000Y-75000014D01*
X109765000Y-76050000D01*
X111065000Y-76050000D01*
X111565000Y-76050000D01*
X112865000Y-76050000D01*
X112865000Y-75000027D01*
X112864999Y-75000014D01*
X112854506Y-74897310D01*
X112854505Y-74897303D01*
X112799358Y-74730881D01*
X112799356Y-74730876D01*
X112707315Y-74581655D01*
X112583344Y-74457684D01*
X112434123Y-74365643D01*
X112434118Y-74365641D01*
X112267696Y-74310494D01*
X112267689Y-74310493D01*
X112164985Y-74300000D01*
X111565000Y-74300000D01*
X111565000Y-76050000D01*
X111065000Y-76050000D01*
X111065000Y-74300000D01*
X110465014Y-74300000D01*
X110362310Y-74310493D01*
X110362303Y-74310494D01*
X110195881Y-74365641D01*
X110195876Y-74365643D01*
X110046655Y-74457684D01*
X109922684Y-74581655D01*
X109830643Y-74730876D01*
X109830641Y-74730881D01*
X109775494Y-74897303D01*
X109775493Y-74897310D01*
X109765000Y-75000014D01*
X109515500Y-75000014D01*
X109515500Y-74477976D01*
X109533382Y-74413829D01*
X109608478Y-74289606D01*
X109659086Y-74127196D01*
X109665500Y-74056616D01*
X109665500Y-72743384D01*
X109659086Y-72672804D01*
X109608478Y-72510394D01*
X109520472Y-72364815D01*
X109520470Y-72364813D01*
X109520469Y-72364811D01*
X109400188Y-72244530D01*
X109355837Y-72217719D01*
X109254606Y-72156522D01*
X109092196Y-72105914D01*
X109092194Y-72105913D01*
X109092192Y-72105913D01*
X109042778Y-72101423D01*
X109021616Y-72099500D01*
X108508384Y-72099500D01*
X108489145Y-72101248D01*
X108437807Y-72105913D01*
X108275391Y-72156523D01*
X108203665Y-72199883D01*
X108136111Y-72217719D01*
X108075367Y-72199883D01*
X108004400Y-72156982D01*
X108004396Y-72156980D01*
X107842105Y-72106409D01*
X107842106Y-72106409D01*
X107771572Y-72100000D01*
X107765000Y-72100000D01*
X107265000Y-72100000D01*
X107264999Y-72099999D01*
X107258436Y-72100000D01*
X107258417Y-72100001D01*
X107187897Y-72106408D01*
X107187892Y-72106409D01*
X107025603Y-72156981D01*
X106880122Y-72244927D01*
X106759927Y-72365122D01*
X106671980Y-72510604D01*
X106621409Y-72672893D01*
X106615000Y-72743427D01*
X100954550Y-72743427D01*
X101145985Y-72530408D01*
X101155802Y-72520642D01*
X101396249Y-72306848D01*
X101407082Y-72298251D01*
X101669899Y-72112656D01*
X101681641Y-72105313D01*
X101963533Y-71950237D01*
X101976010Y-71944256D01*
X102273460Y-71821636D01*
X102286544Y-71817081D01*
X102595832Y-71728449D01*
X102609320Y-71725388D01*
X102926576Y-71671857D01*
X102940345Y-71670319D01*
X103265059Y-71652365D01*
X103271959Y-71652177D01*
X103891126Y-71652628D01*
G37*
%TD.AperFunction*%
%TD*%
%TA.AperFunction,Conductor*%
%TO.N,+5V*%
G36*
X185845118Y-124599098D02*
G01*
X185857169Y-124599697D01*
X186032785Y-124617031D01*
X186056455Y-124621727D01*
X186219569Y-124670995D01*
X186241883Y-124680188D01*
X186392363Y-124760118D01*
X186412471Y-124773457D01*
X186461432Y-124813312D01*
X186544618Y-124881026D01*
X186561764Y-124898012D01*
X186670566Y-125029137D01*
X186684097Y-125049122D01*
X186765440Y-125198843D01*
X186774843Y-125221071D01*
X186825641Y-125383712D01*
X186830560Y-125407341D01*
X186849543Y-125582781D01*
X186850256Y-125594842D01*
X186859503Y-126491853D01*
X186859023Y-126504105D01*
X186843175Y-126682480D01*
X186838609Y-126706544D01*
X186789749Y-126872416D01*
X186780541Y-126895113D01*
X186700034Y-127048137D01*
X186686546Y-127068580D01*
X186577532Y-127202795D01*
X186560287Y-127220190D01*
X186427014Y-127330361D01*
X186406687Y-127344025D01*
X186254361Y-127425850D01*
X186231744Y-127435253D01*
X186066304Y-127485541D01*
X186042281Y-127490315D01*
X185864052Y-127507701D01*
X185851805Y-127508287D01*
X110561458Y-127381700D01*
X110549263Y-127381078D01*
X110371831Y-127363241D01*
X110347921Y-127358427D01*
X110183280Y-127308001D01*
X110160774Y-127298599D01*
X110009187Y-127216921D01*
X109988957Y-127203295D01*
X109856296Y-127093528D01*
X109839131Y-127076214D01*
X109730508Y-126942586D01*
X109717070Y-126922255D01*
X109636705Y-126769948D01*
X109627503Y-126747367D01*
X109615387Y-126706544D01*
X109578512Y-126582295D01*
X109573906Y-126558345D01*
X109557612Y-126380747D01*
X109557097Y-126368583D01*
X109562982Y-125529935D01*
X109563659Y-125517852D01*
X109582182Y-125341777D01*
X109587054Y-125318061D01*
X109637636Y-125154772D01*
X109647025Y-125132452D01*
X109728380Y-124982099D01*
X109741918Y-124962044D01*
X109850947Y-124830361D01*
X109868129Y-124813315D01*
X110000668Y-124705335D01*
X110020820Y-124691962D01*
X110171837Y-124611788D01*
X110194205Y-124602587D01*
X110357901Y-124553296D01*
X110381656Y-124548613D01*
X110557864Y-124531486D01*
X110569958Y-124530905D01*
X185845118Y-124599098D01*
G37*
%TD.AperFunction*%
%TD*%
%TA.AperFunction,Conductor*%
%TO.N,+5V*%
G36*
X187752727Y-67957414D02*
G01*
X187765023Y-67958057D01*
X187944188Y-67976395D01*
X187968312Y-67981324D01*
X188134378Y-68032869D01*
X188157057Y-68042468D01*
X188309657Y-68125818D01*
X188329994Y-68139713D01*
X188463113Y-68251583D01*
X188480302Y-68269224D01*
X188588681Y-68405195D01*
X188602044Y-68425885D01*
X188681409Y-68580591D01*
X188690420Y-68603514D01*
X188737644Y-68770865D01*
X188741945Y-68795117D01*
X188755631Y-68974673D01*
X188755956Y-68986999D01*
X188732967Y-69968963D01*
X188732109Y-69980908D01*
X188711166Y-70154564D01*
X188706024Y-70177927D01*
X188653981Y-70338600D01*
X188644448Y-70360542D01*
X188562524Y-70508224D01*
X188548956Y-70527926D01*
X188440191Y-70657136D01*
X188423092Y-70673866D01*
X188291544Y-70779783D01*
X188271550Y-70792919D01*
X188122106Y-70871607D01*
X188099963Y-70880658D01*
X188038295Y-70899157D01*
X187938201Y-70929182D01*
X187914731Y-70933813D01*
X187740655Y-70950963D01*
X187728694Y-70951560D01*
X115174366Y-71066970D01*
X115107296Y-71047392D01*
X115061457Y-70994661D01*
X115050169Y-70942970D01*
X115050169Y-70413271D01*
X115069854Y-70346232D01*
X115086488Y-70325590D01*
X115159816Y-70252262D01*
X115255789Y-70099522D01*
X115315368Y-69929255D01*
X115335565Y-69750000D01*
X115315368Y-69570745D01*
X115255789Y-69400478D01*
X115159816Y-69247738D01*
X115032262Y-69120184D01*
X114879523Y-69024211D01*
X114709254Y-68964631D01*
X114709249Y-68964630D01*
X114530004Y-68944435D01*
X114529996Y-68944435D01*
X114350750Y-68964630D01*
X114350745Y-68964631D01*
X114180476Y-69024211D01*
X114027737Y-69120184D01*
X113900184Y-69247737D01*
X113804211Y-69400476D01*
X113744631Y-69570745D01*
X113744630Y-69570750D01*
X113724435Y-69749996D01*
X113724435Y-69750003D01*
X113744630Y-69929249D01*
X113744631Y-69929254D01*
X113804211Y-70099524D01*
X113830162Y-70140823D01*
X113849169Y-70206796D01*
X113849169Y-70743218D01*
X113829484Y-70810257D01*
X113776680Y-70856012D01*
X113707522Y-70865956D01*
X113646336Y-70838933D01*
X113576874Y-70781723D01*
X113559641Y-70764413D01*
X113542343Y-70743218D01*
X113450603Y-70630811D01*
X113437108Y-70610474D01*
X113356375Y-70458091D01*
X113347122Y-70435488D01*
X113324765Y-70360542D01*
X113297827Y-70270239D01*
X113293185Y-70246259D01*
X113285778Y-70166494D01*
X113276672Y-70068432D01*
X113276144Y-70056217D01*
X113283924Y-68772516D01*
X113284592Y-68760398D01*
X113303004Y-68584020D01*
X113307866Y-68560276D01*
X113358460Y-68396671D01*
X113367848Y-68374336D01*
X113449315Y-68223722D01*
X113462878Y-68203629D01*
X113572110Y-68071746D01*
X113589315Y-68054688D01*
X113722132Y-67946589D01*
X113742333Y-67933203D01*
X113893643Y-67853029D01*
X113916067Y-67843830D01*
X114080091Y-67794643D01*
X114103879Y-67789985D01*
X114280413Y-67773086D01*
X114292529Y-67772523D01*
X187752727Y-67957414D01*
G37*
%TD.AperFunction*%
%TD*%
%TA.AperFunction,NonConductor*%
G36*
X194372571Y-110349942D02*
G01*
X194418562Y-110402540D01*
X194430000Y-110454557D01*
X194430000Y-123755909D01*
X194410315Y-123822948D01*
X194357511Y-123868703D01*
X194305910Y-123879909D01*
X112094381Y-123820090D01*
X112027356Y-123800357D01*
X111981639Y-123747519D01*
X111970472Y-123695619D01*
X112019344Y-110822752D01*
X112039283Y-110755788D01*
X112092260Y-110710234D01*
X112142786Y-110699224D01*
X194305447Y-110330558D01*
X194372571Y-110349942D01*
G37*
%TD.AperFunction*%
%TA.AperFunction,NonConductor*%
G36*
X194549937Y-71454514D02*
G01*
X194596095Y-71506965D01*
X194607699Y-71559340D01*
X194607699Y-84860386D01*
X194588014Y-84927425D01*
X194535210Y-84973180D01*
X194483699Y-84984386D01*
X138652171Y-84984386D01*
X138585132Y-84964701D01*
X138539377Y-84911897D01*
X138528172Y-84859915D01*
X138548923Y-79393847D01*
X138577044Y-71986586D01*
X138596983Y-71919625D01*
X138649960Y-71874071D01*
X138700091Y-71863064D01*
X194482748Y-71435344D01*
X194549937Y-71454514D01*
G37*
%TD.AperFunction*%
M02*
