G04 #@! TF.GenerationSoftware,KiCad,Pcbnew,(5.1.5)-3*
G04 #@! TF.CreationDate,2020-05-12T20:49:58+02:00*
G04 #@! TF.ProjectId,TinyK22,54696e79-4b32-4322-9e6b-696361645f70,1.0*
G04 #@! TF.SameCoordinates,Original*
G04 #@! TF.FileFunction,Soldermask,Top*
G04 #@! TF.FilePolarity,Negative*
%FSLAX46Y46*%
G04 Gerber Fmt 4.6, Leading zero omitted, Abs format (unit mm)*
G04 Created by KiCad (PCBNEW (5.1.5)-3) date 2020-05-12 20:49:58*
%MOMM*%
%LPD*%
G04 APERTURE LIST*
%ADD10C,0.170000*%
%ADD11C,0.100000*%
G04 APERTURE END LIST*
D10*
X5407142Y-19657142D02*
X5407142Y-18757142D01*
X5921428Y-19657142D02*
X5535714Y-19142857D01*
X5921428Y-18757142D02*
X5407142Y-19271428D01*
X6264285Y-18842857D02*
X6307142Y-18800000D01*
X6392857Y-18757142D01*
X6607142Y-18757142D01*
X6692857Y-18800000D01*
X6735714Y-18842857D01*
X6778571Y-18928571D01*
X6778571Y-19014285D01*
X6735714Y-19142857D01*
X6221428Y-19657142D01*
X6778571Y-19657142D01*
X7335714Y-18757142D02*
X7421428Y-18757142D01*
X7507142Y-18800000D01*
X7550000Y-18842857D01*
X7592857Y-18928571D01*
X7635714Y-19100000D01*
X7635714Y-19314285D01*
X7592857Y-19485714D01*
X7550000Y-19571428D01*
X7507142Y-19614285D01*
X7421428Y-19657142D01*
X7335714Y-19657142D01*
X7250000Y-19614285D01*
X7207142Y-19571428D01*
X7164285Y-19485714D01*
X7121428Y-19314285D01*
X7121428Y-19100000D01*
X7164285Y-18928571D01*
X7207142Y-18842857D01*
X7250000Y-18800000D01*
X7335714Y-18757142D01*
X17792142Y-16762857D02*
X16892142Y-16762857D01*
X17792142Y-16248571D02*
X17277857Y-16634285D01*
X16892142Y-16248571D02*
X17406428Y-16762857D01*
X16977857Y-15905714D02*
X16935000Y-15862857D01*
X16892142Y-15777142D01*
X16892142Y-15562857D01*
X16935000Y-15477142D01*
X16977857Y-15434285D01*
X17063571Y-15391428D01*
X17149285Y-15391428D01*
X17277857Y-15434285D01*
X17792142Y-15948571D01*
X17792142Y-15391428D01*
X16977857Y-15048571D02*
X16935000Y-15005714D01*
X16892142Y-14920000D01*
X16892142Y-14705714D01*
X16935000Y-14620000D01*
X16977857Y-14577142D01*
X17063571Y-14534285D01*
X17149285Y-14534285D01*
X17277857Y-14577142D01*
X17792142Y-15091428D01*
X17792142Y-14534285D01*
X59064285Y-2842857D02*
X59107142Y-2800000D01*
X59192857Y-2757142D01*
X59407142Y-2757142D01*
X59492857Y-2800000D01*
X59535714Y-2842857D01*
X59578571Y-2928571D01*
X59578571Y-3014285D01*
X59535714Y-3142857D01*
X59021428Y-3657142D01*
X59578571Y-3657142D01*
X59921428Y-2842857D02*
X59964285Y-2800000D01*
X60050000Y-2757142D01*
X60264285Y-2757142D01*
X60350000Y-2800000D01*
X60392857Y-2842857D01*
X60435714Y-2928571D01*
X60435714Y-3014285D01*
X60392857Y-3142857D01*
X59878571Y-3657142D01*
X60435714Y-3657142D01*
X11207142Y-17957142D02*
X10692857Y-17957142D01*
X10950000Y-17957142D02*
X10950000Y-17057142D01*
X10864285Y-17185714D01*
X10778571Y-17271428D01*
X10692857Y-17314285D01*
X9787857Y-3326142D02*
X9787857Y-3926142D01*
X9573571Y-2983285D02*
X9359285Y-3626142D01*
X9916428Y-3626142D01*
X10216428Y-3111857D02*
X10259285Y-3069000D01*
X10345000Y-3026142D01*
X10559285Y-3026142D01*
X10645000Y-3069000D01*
X10687857Y-3111857D01*
X10730714Y-3197571D01*
X10730714Y-3283285D01*
X10687857Y-3411857D01*
X10173571Y-3926142D01*
X10730714Y-3926142D01*
X59064285Y-16842857D02*
X59107142Y-16800000D01*
X59192857Y-16757142D01*
X59407142Y-16757142D01*
X59492857Y-16800000D01*
X59535714Y-16842857D01*
X59578571Y-16928571D01*
X59578571Y-17014285D01*
X59535714Y-17142857D01*
X59021428Y-17657142D01*
X59578571Y-17657142D01*
X60435714Y-17657142D02*
X59921428Y-17657142D01*
X60178571Y-17657142D02*
X60178571Y-16757142D01*
X60092857Y-16885714D01*
X60007142Y-16971428D01*
X59921428Y-17014285D01*
X3696214Y-747142D02*
X4210500Y-747142D01*
X3953357Y-1647142D02*
X3953357Y-747142D01*
X4510500Y-1647142D02*
X4510500Y-1047142D01*
X4510500Y-747142D02*
X4467642Y-790000D01*
X4510500Y-832857D01*
X4553357Y-790000D01*
X4510500Y-747142D01*
X4510500Y-832857D01*
X4939071Y-1047142D02*
X4939071Y-1647142D01*
X4939071Y-1132857D02*
X4981928Y-1090000D01*
X5067642Y-1047142D01*
X5196214Y-1047142D01*
X5281928Y-1090000D01*
X5324785Y-1175714D01*
X5324785Y-1647142D01*
X5667642Y-1047142D02*
X5881928Y-1647142D01*
X6096214Y-1047142D02*
X5881928Y-1647142D01*
X5796214Y-1861428D01*
X5753357Y-1904285D01*
X5667642Y-1947142D01*
X6439071Y-1647142D02*
X6439071Y-747142D01*
X6953357Y-1647142D02*
X6567642Y-1132857D01*
X6953357Y-747142D02*
X6439071Y-1261428D01*
X7296214Y-832857D02*
X7339071Y-790000D01*
X7424785Y-747142D01*
X7639071Y-747142D01*
X7724785Y-790000D01*
X7767642Y-832857D01*
X7810499Y-918571D01*
X7810499Y-1004285D01*
X7767642Y-1132857D01*
X7253357Y-1647142D01*
X7810499Y-1647142D01*
X8153357Y-832857D02*
X8196214Y-790000D01*
X8281928Y-747142D01*
X8496214Y-747142D01*
X8581928Y-790000D01*
X8624785Y-832857D01*
X8667642Y-918571D01*
X8667642Y-1004285D01*
X8624785Y-1132857D01*
X8110499Y-1647142D01*
X8667642Y-1647142D01*
X3824785Y-3167142D02*
X3824785Y-2267142D01*
X4210500Y-3167142D02*
X4210500Y-2695714D01*
X4167642Y-2610000D01*
X4081928Y-2567142D01*
X3953357Y-2567142D01*
X3867642Y-2610000D01*
X3824785Y-2652857D01*
X4596214Y-3124285D02*
X4681928Y-3167142D01*
X4853357Y-3167142D01*
X4939071Y-3124285D01*
X4981928Y-3038571D01*
X4981928Y-2995714D01*
X4939071Y-2910000D01*
X4853357Y-2867142D01*
X4724785Y-2867142D01*
X4639071Y-2824285D01*
X4596214Y-2738571D01*
X4596214Y-2695714D01*
X4639071Y-2610000D01*
X4724785Y-2567142D01*
X4853357Y-2567142D01*
X4939071Y-2610000D01*
X5496214Y-3167142D02*
X5410500Y-3124285D01*
X5367642Y-3038571D01*
X5367642Y-2267142D01*
X6224785Y-2567142D02*
X6224785Y-3167142D01*
X5839071Y-2567142D02*
X5839071Y-3038571D01*
X5881928Y-3124285D01*
X5967642Y-3167142D01*
X6096214Y-3167142D01*
X6181928Y-3124285D01*
X6224785Y-3081428D01*
X6653357Y-3081428D02*
X6696214Y-3124285D01*
X6653357Y-3167142D01*
X6610500Y-3124285D01*
X6653357Y-3081428D01*
X6653357Y-3167142D01*
X7467642Y-3124285D02*
X7381928Y-3167142D01*
X7210500Y-3167142D01*
X7124785Y-3124285D01*
X7081928Y-3081428D01*
X7039071Y-2995714D01*
X7039071Y-2738571D01*
X7081928Y-2652857D01*
X7124785Y-2610000D01*
X7210500Y-2567142D01*
X7381928Y-2567142D01*
X7467642Y-2610000D01*
X7853357Y-3167142D02*
X7853357Y-2267142D01*
X8239071Y-3167142D02*
X8239071Y-2695714D01*
X8196214Y-2610000D01*
X8110500Y-2567142D01*
X7981928Y-2567142D01*
X7896214Y-2610000D01*
X7853357Y-2652857D01*
D11*
G36*
X10307520Y-18274586D02*
G01*
X10471310Y-18342430D01*
X10618717Y-18440924D01*
X10744076Y-18566283D01*
X10842570Y-18713690D01*
X10910414Y-18877480D01*
X10945000Y-19051358D01*
X10945000Y-19228642D01*
X10910414Y-19402520D01*
X10842570Y-19566310D01*
X10744076Y-19713717D01*
X10618717Y-19839076D01*
X10471310Y-19937570D01*
X10307520Y-20005414D01*
X10133642Y-20040000D01*
X9956358Y-20040000D01*
X9782480Y-20005414D01*
X9618690Y-19937570D01*
X9471283Y-19839076D01*
X9345924Y-19713717D01*
X9247430Y-19566310D01*
X9179586Y-19402520D01*
X9145000Y-19228642D01*
X9145000Y-19051358D01*
X9179586Y-18877480D01*
X9247430Y-18713690D01*
X9345924Y-18566283D01*
X9471283Y-18440924D01*
X9618690Y-18342430D01*
X9782480Y-18274586D01*
X9956358Y-18240000D01*
X10133642Y-18240000D01*
X10307520Y-18274586D01*
G37*
G36*
X38247520Y-18274586D02*
G01*
X38411310Y-18342430D01*
X38558717Y-18440924D01*
X38684076Y-18566283D01*
X38782570Y-18713690D01*
X38850414Y-18877480D01*
X38885000Y-19051358D01*
X38885000Y-19228642D01*
X38850414Y-19402520D01*
X38782570Y-19566310D01*
X38684076Y-19713717D01*
X38558717Y-19839076D01*
X38411310Y-19937570D01*
X38247520Y-20005414D01*
X38073642Y-20040000D01*
X37896358Y-20040000D01*
X37722480Y-20005414D01*
X37558690Y-19937570D01*
X37411283Y-19839076D01*
X37285924Y-19713717D01*
X37187430Y-19566310D01*
X37119586Y-19402520D01*
X37085000Y-19228642D01*
X37085000Y-19051358D01*
X37119586Y-18877480D01*
X37187430Y-18713690D01*
X37285924Y-18566283D01*
X37411283Y-18440924D01*
X37558690Y-18342430D01*
X37722480Y-18274586D01*
X37896358Y-18240000D01*
X38073642Y-18240000D01*
X38247520Y-18274586D01*
G37*
G36*
X61107520Y-18274586D02*
G01*
X61271310Y-18342430D01*
X61418717Y-18440924D01*
X61544076Y-18566283D01*
X61642570Y-18713690D01*
X61710414Y-18877480D01*
X61745000Y-19051358D01*
X61745000Y-19228642D01*
X61710414Y-19402520D01*
X61642570Y-19566310D01*
X61544076Y-19713717D01*
X61418717Y-19839076D01*
X61271310Y-19937570D01*
X61107520Y-20005414D01*
X60933642Y-20040000D01*
X60756358Y-20040000D01*
X60582480Y-20005414D01*
X60418690Y-19937570D01*
X60271283Y-19839076D01*
X60145924Y-19713717D01*
X60047430Y-19566310D01*
X59979586Y-19402520D01*
X59945000Y-19228642D01*
X59945000Y-19051358D01*
X59979586Y-18877480D01*
X60047430Y-18713690D01*
X60145924Y-18566283D01*
X60271283Y-18440924D01*
X60418690Y-18342430D01*
X60582480Y-18274586D01*
X60756358Y-18240000D01*
X60933642Y-18240000D01*
X61107520Y-18274586D01*
G37*
G36*
X58567520Y-18274586D02*
G01*
X58731310Y-18342430D01*
X58878717Y-18440924D01*
X59004076Y-18566283D01*
X59102570Y-18713690D01*
X59170414Y-18877480D01*
X59205000Y-19051358D01*
X59205000Y-19228642D01*
X59170414Y-19402520D01*
X59102570Y-19566310D01*
X59004076Y-19713717D01*
X58878717Y-19839076D01*
X58731310Y-19937570D01*
X58567520Y-20005414D01*
X58393642Y-20040000D01*
X58216358Y-20040000D01*
X58042480Y-20005414D01*
X57878690Y-19937570D01*
X57731283Y-19839076D01*
X57605924Y-19713717D01*
X57507430Y-19566310D01*
X57439586Y-19402520D01*
X57405000Y-19228642D01*
X57405000Y-19051358D01*
X57439586Y-18877480D01*
X57507430Y-18713690D01*
X57605924Y-18566283D01*
X57731283Y-18440924D01*
X57878690Y-18342430D01*
X58042480Y-18274586D01*
X58216358Y-18240000D01*
X58393642Y-18240000D01*
X58567520Y-18274586D01*
G37*
G36*
X56027520Y-18274586D02*
G01*
X56191310Y-18342430D01*
X56338717Y-18440924D01*
X56464076Y-18566283D01*
X56562570Y-18713690D01*
X56630414Y-18877480D01*
X56665000Y-19051358D01*
X56665000Y-19228642D01*
X56630414Y-19402520D01*
X56562570Y-19566310D01*
X56464076Y-19713717D01*
X56338717Y-19839076D01*
X56191310Y-19937570D01*
X56027520Y-20005414D01*
X55853642Y-20040000D01*
X55676358Y-20040000D01*
X55502480Y-20005414D01*
X55338690Y-19937570D01*
X55191283Y-19839076D01*
X55065924Y-19713717D01*
X54967430Y-19566310D01*
X54899586Y-19402520D01*
X54865000Y-19228642D01*
X54865000Y-19051358D01*
X54899586Y-18877480D01*
X54967430Y-18713690D01*
X55065924Y-18566283D01*
X55191283Y-18440924D01*
X55338690Y-18342430D01*
X55502480Y-18274586D01*
X55676358Y-18240000D01*
X55853642Y-18240000D01*
X56027520Y-18274586D01*
G37*
G36*
X53487520Y-18274586D02*
G01*
X53651310Y-18342430D01*
X53798717Y-18440924D01*
X53924076Y-18566283D01*
X54022570Y-18713690D01*
X54090414Y-18877480D01*
X54125000Y-19051358D01*
X54125000Y-19228642D01*
X54090414Y-19402520D01*
X54022570Y-19566310D01*
X53924076Y-19713717D01*
X53798717Y-19839076D01*
X53651310Y-19937570D01*
X53487520Y-20005414D01*
X53313642Y-20040000D01*
X53136358Y-20040000D01*
X52962480Y-20005414D01*
X52798690Y-19937570D01*
X52651283Y-19839076D01*
X52525924Y-19713717D01*
X52427430Y-19566310D01*
X52359586Y-19402520D01*
X52325000Y-19228642D01*
X52325000Y-19051358D01*
X52359586Y-18877480D01*
X52427430Y-18713690D01*
X52525924Y-18566283D01*
X52651283Y-18440924D01*
X52798690Y-18342430D01*
X52962480Y-18274586D01*
X53136358Y-18240000D01*
X53313642Y-18240000D01*
X53487520Y-18274586D01*
G37*
G36*
X50947520Y-18274586D02*
G01*
X51111310Y-18342430D01*
X51258717Y-18440924D01*
X51384076Y-18566283D01*
X51482570Y-18713690D01*
X51550414Y-18877480D01*
X51585000Y-19051358D01*
X51585000Y-19228642D01*
X51550414Y-19402520D01*
X51482570Y-19566310D01*
X51384076Y-19713717D01*
X51258717Y-19839076D01*
X51111310Y-19937570D01*
X50947520Y-20005414D01*
X50773642Y-20040000D01*
X50596358Y-20040000D01*
X50422480Y-20005414D01*
X50258690Y-19937570D01*
X50111283Y-19839076D01*
X49985924Y-19713717D01*
X49887430Y-19566310D01*
X49819586Y-19402520D01*
X49785000Y-19228642D01*
X49785000Y-19051358D01*
X49819586Y-18877480D01*
X49887430Y-18713690D01*
X49985924Y-18566283D01*
X50111283Y-18440924D01*
X50258690Y-18342430D01*
X50422480Y-18274586D01*
X50596358Y-18240000D01*
X50773642Y-18240000D01*
X50947520Y-18274586D01*
G37*
G36*
X48407520Y-18274586D02*
G01*
X48571310Y-18342430D01*
X48718717Y-18440924D01*
X48844076Y-18566283D01*
X48942570Y-18713690D01*
X49010414Y-18877480D01*
X49045000Y-19051358D01*
X49045000Y-19228642D01*
X49010414Y-19402520D01*
X48942570Y-19566310D01*
X48844076Y-19713717D01*
X48718717Y-19839076D01*
X48571310Y-19937570D01*
X48407520Y-20005414D01*
X48233642Y-20040000D01*
X48056358Y-20040000D01*
X47882480Y-20005414D01*
X47718690Y-19937570D01*
X47571283Y-19839076D01*
X47445924Y-19713717D01*
X47347430Y-19566310D01*
X47279586Y-19402520D01*
X47245000Y-19228642D01*
X47245000Y-19051358D01*
X47279586Y-18877480D01*
X47347430Y-18713690D01*
X47445924Y-18566283D01*
X47571283Y-18440924D01*
X47718690Y-18342430D01*
X47882480Y-18274586D01*
X48056358Y-18240000D01*
X48233642Y-18240000D01*
X48407520Y-18274586D01*
G37*
G36*
X45867520Y-18274586D02*
G01*
X46031310Y-18342430D01*
X46178717Y-18440924D01*
X46304076Y-18566283D01*
X46402570Y-18713690D01*
X46470414Y-18877480D01*
X46505000Y-19051358D01*
X46505000Y-19228642D01*
X46470414Y-19402520D01*
X46402570Y-19566310D01*
X46304076Y-19713717D01*
X46178717Y-19839076D01*
X46031310Y-19937570D01*
X45867520Y-20005414D01*
X45693642Y-20040000D01*
X45516358Y-20040000D01*
X45342480Y-20005414D01*
X45178690Y-19937570D01*
X45031283Y-19839076D01*
X44905924Y-19713717D01*
X44807430Y-19566310D01*
X44739586Y-19402520D01*
X44705000Y-19228642D01*
X44705000Y-19051358D01*
X44739586Y-18877480D01*
X44807430Y-18713690D01*
X44905924Y-18566283D01*
X45031283Y-18440924D01*
X45178690Y-18342430D01*
X45342480Y-18274586D01*
X45516358Y-18240000D01*
X45693642Y-18240000D01*
X45867520Y-18274586D01*
G37*
G36*
X43327520Y-18274586D02*
G01*
X43491310Y-18342430D01*
X43638717Y-18440924D01*
X43764076Y-18566283D01*
X43862570Y-18713690D01*
X43930414Y-18877480D01*
X43965000Y-19051358D01*
X43965000Y-19228642D01*
X43930414Y-19402520D01*
X43862570Y-19566310D01*
X43764076Y-19713717D01*
X43638717Y-19839076D01*
X43491310Y-19937570D01*
X43327520Y-20005414D01*
X43153642Y-20040000D01*
X42976358Y-20040000D01*
X42802480Y-20005414D01*
X42638690Y-19937570D01*
X42491283Y-19839076D01*
X42365924Y-19713717D01*
X42267430Y-19566310D01*
X42199586Y-19402520D01*
X42165000Y-19228642D01*
X42165000Y-19051358D01*
X42199586Y-18877480D01*
X42267430Y-18713690D01*
X42365924Y-18566283D01*
X42491283Y-18440924D01*
X42638690Y-18342430D01*
X42802480Y-18274586D01*
X42976358Y-18240000D01*
X43153642Y-18240000D01*
X43327520Y-18274586D01*
G37*
G36*
X40787520Y-18274586D02*
G01*
X40951310Y-18342430D01*
X41098717Y-18440924D01*
X41224076Y-18566283D01*
X41322570Y-18713690D01*
X41390414Y-18877480D01*
X41425000Y-19051358D01*
X41425000Y-19228642D01*
X41390414Y-19402520D01*
X41322570Y-19566310D01*
X41224076Y-19713717D01*
X41098717Y-19839076D01*
X40951310Y-19937570D01*
X40787520Y-20005414D01*
X40613642Y-20040000D01*
X40436358Y-20040000D01*
X40262480Y-20005414D01*
X40098690Y-19937570D01*
X39951283Y-19839076D01*
X39825924Y-19713717D01*
X39727430Y-19566310D01*
X39659586Y-19402520D01*
X39625000Y-19228642D01*
X39625000Y-19051358D01*
X39659586Y-18877480D01*
X39727430Y-18713690D01*
X39825924Y-18566283D01*
X39951283Y-18440924D01*
X40098690Y-18342430D01*
X40262480Y-18274586D01*
X40436358Y-18240000D01*
X40613642Y-18240000D01*
X40787520Y-18274586D01*
G37*
G36*
X2687520Y-18274586D02*
G01*
X2851310Y-18342430D01*
X2998717Y-18440924D01*
X3124076Y-18566283D01*
X3222570Y-18713690D01*
X3290414Y-18877480D01*
X3325000Y-19051358D01*
X3325000Y-19228642D01*
X3290414Y-19402520D01*
X3222570Y-19566310D01*
X3124076Y-19713717D01*
X2998717Y-19839076D01*
X2851310Y-19937570D01*
X2687520Y-20005414D01*
X2513642Y-20040000D01*
X2336358Y-20040000D01*
X2162480Y-20005414D01*
X1998690Y-19937570D01*
X1851283Y-19839076D01*
X1725924Y-19713717D01*
X1627430Y-19566310D01*
X1559586Y-19402520D01*
X1525000Y-19228642D01*
X1525000Y-19051358D01*
X1559586Y-18877480D01*
X1627430Y-18713690D01*
X1725924Y-18566283D01*
X1851283Y-18440924D01*
X1998690Y-18342430D01*
X2162480Y-18274586D01*
X2336358Y-18240000D01*
X2513642Y-18240000D01*
X2687520Y-18274586D01*
G37*
G36*
X33167520Y-18274586D02*
G01*
X33331310Y-18342430D01*
X33478717Y-18440924D01*
X33604076Y-18566283D01*
X33702570Y-18713690D01*
X33770414Y-18877480D01*
X33805000Y-19051358D01*
X33805000Y-19228642D01*
X33770414Y-19402520D01*
X33702570Y-19566310D01*
X33604076Y-19713717D01*
X33478717Y-19839076D01*
X33331310Y-19937570D01*
X33167520Y-20005414D01*
X32993642Y-20040000D01*
X32816358Y-20040000D01*
X32642480Y-20005414D01*
X32478690Y-19937570D01*
X32331283Y-19839076D01*
X32205924Y-19713717D01*
X32107430Y-19566310D01*
X32039586Y-19402520D01*
X32005000Y-19228642D01*
X32005000Y-19051358D01*
X32039586Y-18877480D01*
X32107430Y-18713690D01*
X32205924Y-18566283D01*
X32331283Y-18440924D01*
X32478690Y-18342430D01*
X32642480Y-18274586D01*
X32816358Y-18240000D01*
X32993642Y-18240000D01*
X33167520Y-18274586D01*
G37*
G36*
X30627520Y-18274586D02*
G01*
X30791310Y-18342430D01*
X30938717Y-18440924D01*
X31064076Y-18566283D01*
X31162570Y-18713690D01*
X31230414Y-18877480D01*
X31265000Y-19051358D01*
X31265000Y-19228642D01*
X31230414Y-19402520D01*
X31162570Y-19566310D01*
X31064076Y-19713717D01*
X30938717Y-19839076D01*
X30791310Y-19937570D01*
X30627520Y-20005414D01*
X30453642Y-20040000D01*
X30276358Y-20040000D01*
X30102480Y-20005414D01*
X29938690Y-19937570D01*
X29791283Y-19839076D01*
X29665924Y-19713717D01*
X29567430Y-19566310D01*
X29499586Y-19402520D01*
X29465000Y-19228642D01*
X29465000Y-19051358D01*
X29499586Y-18877480D01*
X29567430Y-18713690D01*
X29665924Y-18566283D01*
X29791283Y-18440924D01*
X29938690Y-18342430D01*
X30102480Y-18274586D01*
X30276358Y-18240000D01*
X30453642Y-18240000D01*
X30627520Y-18274586D01*
G37*
G36*
X28087520Y-18274586D02*
G01*
X28251310Y-18342430D01*
X28398717Y-18440924D01*
X28524076Y-18566283D01*
X28622570Y-18713690D01*
X28690414Y-18877480D01*
X28725000Y-19051358D01*
X28725000Y-19228642D01*
X28690414Y-19402520D01*
X28622570Y-19566310D01*
X28524076Y-19713717D01*
X28398717Y-19839076D01*
X28251310Y-19937570D01*
X28087520Y-20005414D01*
X27913642Y-20040000D01*
X27736358Y-20040000D01*
X27562480Y-20005414D01*
X27398690Y-19937570D01*
X27251283Y-19839076D01*
X27125924Y-19713717D01*
X27027430Y-19566310D01*
X26959586Y-19402520D01*
X26925000Y-19228642D01*
X26925000Y-19051358D01*
X26959586Y-18877480D01*
X27027430Y-18713690D01*
X27125924Y-18566283D01*
X27251283Y-18440924D01*
X27398690Y-18342430D01*
X27562480Y-18274586D01*
X27736358Y-18240000D01*
X27913642Y-18240000D01*
X28087520Y-18274586D01*
G37*
G36*
X25547520Y-18274586D02*
G01*
X25711310Y-18342430D01*
X25858717Y-18440924D01*
X25984076Y-18566283D01*
X26082570Y-18713690D01*
X26150414Y-18877480D01*
X26185000Y-19051358D01*
X26185000Y-19228642D01*
X26150414Y-19402520D01*
X26082570Y-19566310D01*
X25984076Y-19713717D01*
X25858717Y-19839076D01*
X25711310Y-19937570D01*
X25547520Y-20005414D01*
X25373642Y-20040000D01*
X25196358Y-20040000D01*
X25022480Y-20005414D01*
X24858690Y-19937570D01*
X24711283Y-19839076D01*
X24585924Y-19713717D01*
X24487430Y-19566310D01*
X24419586Y-19402520D01*
X24385000Y-19228642D01*
X24385000Y-19051358D01*
X24419586Y-18877480D01*
X24487430Y-18713690D01*
X24585924Y-18566283D01*
X24711283Y-18440924D01*
X24858690Y-18342430D01*
X25022480Y-18274586D01*
X25196358Y-18240000D01*
X25373642Y-18240000D01*
X25547520Y-18274586D01*
G37*
G36*
X23007520Y-18274586D02*
G01*
X23171310Y-18342430D01*
X23318717Y-18440924D01*
X23444076Y-18566283D01*
X23542570Y-18713690D01*
X23610414Y-18877480D01*
X23645000Y-19051358D01*
X23645000Y-19228642D01*
X23610414Y-19402520D01*
X23542570Y-19566310D01*
X23444076Y-19713717D01*
X23318717Y-19839076D01*
X23171310Y-19937570D01*
X23007520Y-20005414D01*
X22833642Y-20040000D01*
X22656358Y-20040000D01*
X22482480Y-20005414D01*
X22318690Y-19937570D01*
X22171283Y-19839076D01*
X22045924Y-19713717D01*
X21947430Y-19566310D01*
X21879586Y-19402520D01*
X21845000Y-19228642D01*
X21845000Y-19051358D01*
X21879586Y-18877480D01*
X21947430Y-18713690D01*
X22045924Y-18566283D01*
X22171283Y-18440924D01*
X22318690Y-18342430D01*
X22482480Y-18274586D01*
X22656358Y-18240000D01*
X22833642Y-18240000D01*
X23007520Y-18274586D01*
G37*
G36*
X20467520Y-18274586D02*
G01*
X20631310Y-18342430D01*
X20778717Y-18440924D01*
X20904076Y-18566283D01*
X21002570Y-18713690D01*
X21070414Y-18877480D01*
X21105000Y-19051358D01*
X21105000Y-19228642D01*
X21070414Y-19402520D01*
X21002570Y-19566310D01*
X20904076Y-19713717D01*
X20778717Y-19839076D01*
X20631310Y-19937570D01*
X20467520Y-20005414D01*
X20293642Y-20040000D01*
X20116358Y-20040000D01*
X19942480Y-20005414D01*
X19778690Y-19937570D01*
X19631283Y-19839076D01*
X19505924Y-19713717D01*
X19407430Y-19566310D01*
X19339586Y-19402520D01*
X19305000Y-19228642D01*
X19305000Y-19051358D01*
X19339586Y-18877480D01*
X19407430Y-18713690D01*
X19505924Y-18566283D01*
X19631283Y-18440924D01*
X19778690Y-18342430D01*
X19942480Y-18274586D01*
X20116358Y-18240000D01*
X20293642Y-18240000D01*
X20467520Y-18274586D01*
G37*
G36*
X17927520Y-18274586D02*
G01*
X18091310Y-18342430D01*
X18238717Y-18440924D01*
X18364076Y-18566283D01*
X18462570Y-18713690D01*
X18530414Y-18877480D01*
X18565000Y-19051358D01*
X18565000Y-19228642D01*
X18530414Y-19402520D01*
X18462570Y-19566310D01*
X18364076Y-19713717D01*
X18238717Y-19839076D01*
X18091310Y-19937570D01*
X17927520Y-20005414D01*
X17753642Y-20040000D01*
X17576358Y-20040000D01*
X17402480Y-20005414D01*
X17238690Y-19937570D01*
X17091283Y-19839076D01*
X16965924Y-19713717D01*
X16867430Y-19566310D01*
X16799586Y-19402520D01*
X16765000Y-19228642D01*
X16765000Y-19051358D01*
X16799586Y-18877480D01*
X16867430Y-18713690D01*
X16965924Y-18566283D01*
X17091283Y-18440924D01*
X17238690Y-18342430D01*
X17402480Y-18274586D01*
X17576358Y-18240000D01*
X17753642Y-18240000D01*
X17927520Y-18274586D01*
G37*
G36*
X15387520Y-18274586D02*
G01*
X15551310Y-18342430D01*
X15698717Y-18440924D01*
X15824076Y-18566283D01*
X15922570Y-18713690D01*
X15990414Y-18877480D01*
X16025000Y-19051358D01*
X16025000Y-19228642D01*
X15990414Y-19402520D01*
X15922570Y-19566310D01*
X15824076Y-19713717D01*
X15698717Y-19839076D01*
X15551310Y-19937570D01*
X15387520Y-20005414D01*
X15213642Y-20040000D01*
X15036358Y-20040000D01*
X14862480Y-20005414D01*
X14698690Y-19937570D01*
X14551283Y-19839076D01*
X14425924Y-19713717D01*
X14327430Y-19566310D01*
X14259586Y-19402520D01*
X14225000Y-19228642D01*
X14225000Y-19051358D01*
X14259586Y-18877480D01*
X14327430Y-18713690D01*
X14425924Y-18566283D01*
X14551283Y-18440924D01*
X14698690Y-18342430D01*
X14862480Y-18274586D01*
X15036358Y-18240000D01*
X15213642Y-18240000D01*
X15387520Y-18274586D01*
G37*
G36*
X12847520Y-18274586D02*
G01*
X13011310Y-18342430D01*
X13158717Y-18440924D01*
X13284076Y-18566283D01*
X13382570Y-18713690D01*
X13450414Y-18877480D01*
X13485000Y-19051358D01*
X13485000Y-19228642D01*
X13450414Y-19402520D01*
X13382570Y-19566310D01*
X13284076Y-19713717D01*
X13158717Y-19839076D01*
X13011310Y-19937570D01*
X12847520Y-20005414D01*
X12673642Y-20040000D01*
X12496358Y-20040000D01*
X12322480Y-20005414D01*
X12158690Y-19937570D01*
X12011283Y-19839076D01*
X11885924Y-19713717D01*
X11787430Y-19566310D01*
X11719586Y-19402520D01*
X11685000Y-19228642D01*
X11685000Y-19051358D01*
X11719586Y-18877480D01*
X11787430Y-18713690D01*
X11885924Y-18566283D01*
X12011283Y-18440924D01*
X12158690Y-18342430D01*
X12322480Y-18274586D01*
X12496358Y-18240000D01*
X12673642Y-18240000D01*
X12847520Y-18274586D01*
G37*
G36*
X35707520Y-18274586D02*
G01*
X35871310Y-18342430D01*
X36018717Y-18440924D01*
X36144076Y-18566283D01*
X36242570Y-18713690D01*
X36310414Y-18877480D01*
X36345000Y-19051358D01*
X36345000Y-19228642D01*
X36310414Y-19402520D01*
X36242570Y-19566310D01*
X36144076Y-19713717D01*
X36018717Y-19839076D01*
X35871310Y-19937570D01*
X35707520Y-20005414D01*
X35533642Y-20040000D01*
X35356358Y-20040000D01*
X35182480Y-20005414D01*
X35018690Y-19937570D01*
X34871283Y-19839076D01*
X34745924Y-19713717D01*
X34647430Y-19566310D01*
X34579586Y-19402520D01*
X34545000Y-19228642D01*
X34545000Y-19051358D01*
X34579586Y-18877480D01*
X34647430Y-18713690D01*
X34745924Y-18566283D01*
X34871283Y-18440924D01*
X35018690Y-18342430D01*
X35182480Y-18274586D01*
X35356358Y-18240000D01*
X35533642Y-18240000D01*
X35707520Y-18274586D01*
G37*
G36*
X4069058Y-17441656D02*
G01*
X4168296Y-17482762D01*
X4257608Y-17542438D01*
X4333562Y-17618392D01*
X4393238Y-17707704D01*
X4434344Y-17806942D01*
X4455300Y-17912293D01*
X4455300Y-18019707D01*
X4434344Y-18125058D01*
X4393238Y-18224296D01*
X4333562Y-18313608D01*
X4257608Y-18389562D01*
X4168296Y-18449238D01*
X4069058Y-18490344D01*
X3963707Y-18511300D01*
X3856293Y-18511300D01*
X3750942Y-18490344D01*
X3651704Y-18449238D01*
X3562392Y-18389562D01*
X3486438Y-18313608D01*
X3426762Y-18224296D01*
X3385656Y-18125058D01*
X3364700Y-18019707D01*
X3364700Y-17912293D01*
X3385656Y-17806942D01*
X3426762Y-17707704D01*
X3486438Y-17618392D01*
X3562392Y-17542438D01*
X3651704Y-17482762D01*
X3750942Y-17441656D01*
X3856293Y-17420700D01*
X3963707Y-17420700D01*
X4069058Y-17441656D01*
G37*
G36*
X6579423Y-17158351D02*
G01*
X6619797Y-17175074D01*
X6660170Y-17191797D01*
X6732843Y-17240357D01*
X6794643Y-17302157D01*
X6843203Y-17374830D01*
X6859926Y-17415203D01*
X6876649Y-17455577D01*
X6893700Y-17541299D01*
X6893700Y-17628701D01*
X6876649Y-17714423D01*
X6859926Y-17754797D01*
X6843203Y-17795170D01*
X6794643Y-17867843D01*
X6732843Y-17929643D01*
X6660170Y-17978203D01*
X6619797Y-17994925D01*
X6579423Y-18011649D01*
X6493701Y-18028700D01*
X6406299Y-18028700D01*
X6320577Y-18011649D01*
X6280203Y-17994925D01*
X6239830Y-17978203D01*
X6167157Y-17929643D01*
X6105357Y-17867843D01*
X6056797Y-17795170D01*
X6040075Y-17754797D01*
X6023351Y-17714423D01*
X6006300Y-17628701D01*
X6006300Y-17541299D01*
X6023351Y-17455577D01*
X6040075Y-17415203D01*
X6056797Y-17374830D01*
X6105357Y-17302157D01*
X6167157Y-17240357D01*
X6239830Y-17191797D01*
X6280203Y-17175074D01*
X6320577Y-17158351D01*
X6406299Y-17141300D01*
X6493701Y-17141300D01*
X6579423Y-17158351D01*
G37*
G36*
X5309423Y-17158351D02*
G01*
X5349797Y-17175074D01*
X5390170Y-17191797D01*
X5462843Y-17240357D01*
X5524643Y-17302157D01*
X5573203Y-17374830D01*
X5589926Y-17415203D01*
X5606649Y-17455577D01*
X5623700Y-17541299D01*
X5623700Y-17628701D01*
X5606649Y-17714423D01*
X5589926Y-17754797D01*
X5573203Y-17795170D01*
X5524643Y-17867843D01*
X5462843Y-17929643D01*
X5390170Y-17978203D01*
X5349797Y-17994925D01*
X5309423Y-18011649D01*
X5223701Y-18028700D01*
X5136299Y-18028700D01*
X5050577Y-18011649D01*
X5010203Y-17994925D01*
X4969830Y-17978203D01*
X4897157Y-17929643D01*
X4835357Y-17867843D01*
X4786797Y-17795170D01*
X4770075Y-17754797D01*
X4753351Y-17714423D01*
X4736300Y-17628701D01*
X4736300Y-17541299D01*
X4753351Y-17455577D01*
X4770075Y-17415203D01*
X4786797Y-17374830D01*
X4835357Y-17302157D01*
X4897157Y-17240357D01*
X4969830Y-17191797D01*
X5010203Y-17175074D01*
X5050577Y-17158351D01*
X5136299Y-17141300D01*
X5223701Y-17141300D01*
X5309423Y-17158351D01*
G37*
G36*
X7849423Y-17158351D02*
G01*
X7889797Y-17175074D01*
X7930170Y-17191797D01*
X8002843Y-17240357D01*
X8064643Y-17302157D01*
X8113203Y-17374830D01*
X8129926Y-17415203D01*
X8146649Y-17455577D01*
X8163700Y-17541299D01*
X8163700Y-17628701D01*
X8146649Y-17714423D01*
X8129926Y-17754797D01*
X8113203Y-17795170D01*
X8064643Y-17867843D01*
X8002843Y-17929643D01*
X7930170Y-17978203D01*
X7889797Y-17994925D01*
X7849423Y-18011649D01*
X7763701Y-18028700D01*
X7676299Y-18028700D01*
X7590577Y-18011649D01*
X7550203Y-17994925D01*
X7509830Y-17978203D01*
X7437157Y-17929643D01*
X7375357Y-17867843D01*
X7326797Y-17795170D01*
X7310075Y-17754797D01*
X7293351Y-17714423D01*
X7276300Y-17628701D01*
X7276300Y-17541299D01*
X7293351Y-17455577D01*
X7310075Y-17415203D01*
X7326797Y-17374830D01*
X7375357Y-17302157D01*
X7437157Y-17240357D01*
X7509830Y-17191797D01*
X7550203Y-17175074D01*
X7590577Y-17158351D01*
X7676299Y-17141300D01*
X7763701Y-17141300D01*
X7849423Y-17158351D01*
G37*
G36*
X9149058Y-16425656D02*
G01*
X9248296Y-16466762D01*
X9337608Y-16526438D01*
X9413562Y-16602392D01*
X9473238Y-16691704D01*
X9514344Y-16790942D01*
X9535300Y-16896293D01*
X9535300Y-17003707D01*
X9514344Y-17109058D01*
X9473238Y-17208296D01*
X9413562Y-17297608D01*
X9337608Y-17373562D01*
X9248296Y-17433238D01*
X9149058Y-17474344D01*
X9043707Y-17495300D01*
X8936293Y-17495300D01*
X8830942Y-17474344D01*
X8731704Y-17433238D01*
X8642392Y-17373562D01*
X8566438Y-17297608D01*
X8506762Y-17208296D01*
X8465656Y-17109058D01*
X8444700Y-17003707D01*
X8444700Y-16896293D01*
X8465656Y-16790942D01*
X8506762Y-16691704D01*
X8566438Y-16602392D01*
X8642392Y-16526438D01*
X8731704Y-16466762D01*
X8830942Y-16425656D01*
X8936293Y-16404700D01*
X9043707Y-16404700D01*
X9149058Y-16425656D01*
G37*
G36*
X15150000Y-16900000D02*
G01*
X13050000Y-16900000D01*
X13050000Y-16400000D01*
X15150000Y-16400000D01*
X15150000Y-16900000D01*
G37*
G36*
X7849423Y-15888351D02*
G01*
X7889797Y-15905074D01*
X7930170Y-15921797D01*
X8002843Y-15970357D01*
X8064643Y-16032157D01*
X8113203Y-16104830D01*
X8121266Y-16124296D01*
X8146649Y-16185577D01*
X8163700Y-16271299D01*
X8163700Y-16358701D01*
X8146649Y-16444423D01*
X8137396Y-16466762D01*
X8113203Y-16525170D01*
X8064643Y-16597843D01*
X8002843Y-16659643D01*
X7930170Y-16708203D01*
X7889797Y-16724925D01*
X7849423Y-16741649D01*
X7763701Y-16758700D01*
X7676299Y-16758700D01*
X7590577Y-16741649D01*
X7550203Y-16724925D01*
X7509830Y-16708203D01*
X7437157Y-16659643D01*
X7375357Y-16597843D01*
X7326797Y-16525170D01*
X7302604Y-16466762D01*
X7293351Y-16444423D01*
X7276300Y-16358701D01*
X7276300Y-16271299D01*
X7293351Y-16185577D01*
X7318734Y-16124296D01*
X7326797Y-16104830D01*
X7375357Y-16032157D01*
X7437157Y-15970357D01*
X7509830Y-15921797D01*
X7550203Y-15905074D01*
X7590577Y-15888351D01*
X7676299Y-15871300D01*
X7763701Y-15871300D01*
X7849423Y-15888351D01*
G37*
G36*
X5309423Y-15888351D02*
G01*
X5349797Y-15905074D01*
X5390170Y-15921797D01*
X5462843Y-15970357D01*
X5524643Y-16032157D01*
X5573203Y-16104830D01*
X5581266Y-16124296D01*
X5606649Y-16185577D01*
X5623700Y-16271299D01*
X5623700Y-16358701D01*
X5606649Y-16444423D01*
X5597396Y-16466762D01*
X5573203Y-16525170D01*
X5524643Y-16597843D01*
X5462843Y-16659643D01*
X5390170Y-16708203D01*
X5349797Y-16724925D01*
X5309423Y-16741649D01*
X5223701Y-16758700D01*
X5136299Y-16758700D01*
X5050577Y-16741649D01*
X5010203Y-16724925D01*
X4969830Y-16708203D01*
X4897157Y-16659643D01*
X4835357Y-16597843D01*
X4786797Y-16525170D01*
X4762604Y-16466762D01*
X4753351Y-16444423D01*
X4736300Y-16358701D01*
X4736300Y-16271299D01*
X4753351Y-16185577D01*
X4778734Y-16124296D01*
X4786797Y-16104830D01*
X4835357Y-16032157D01*
X4897157Y-15970357D01*
X4969830Y-15921797D01*
X5010203Y-15905074D01*
X5050577Y-15888351D01*
X5136299Y-15871300D01*
X5223701Y-15871300D01*
X5309423Y-15888351D01*
G37*
G36*
X6579423Y-15888351D02*
G01*
X6619797Y-15905074D01*
X6660170Y-15921797D01*
X6732843Y-15970357D01*
X6794643Y-16032157D01*
X6843203Y-16104830D01*
X6851266Y-16124296D01*
X6876649Y-16185577D01*
X6893700Y-16271299D01*
X6893700Y-16358701D01*
X6876649Y-16444423D01*
X6867396Y-16466762D01*
X6843203Y-16525170D01*
X6794643Y-16597843D01*
X6732843Y-16659643D01*
X6660170Y-16708203D01*
X6619797Y-16724925D01*
X6579423Y-16741649D01*
X6493701Y-16758700D01*
X6406299Y-16758700D01*
X6320577Y-16741649D01*
X6280203Y-16724925D01*
X6239830Y-16708203D01*
X6167157Y-16659643D01*
X6105357Y-16597843D01*
X6056797Y-16525170D01*
X6032604Y-16466762D01*
X6023351Y-16444423D01*
X6006300Y-16358701D01*
X6006300Y-16271299D01*
X6023351Y-16185577D01*
X6048734Y-16124296D01*
X6056797Y-16104830D01*
X6105357Y-16032157D01*
X6167157Y-15970357D01*
X6239830Y-15921797D01*
X6280203Y-15905074D01*
X6320577Y-15888351D01*
X6406299Y-15871300D01*
X6493701Y-15871300D01*
X6579423Y-15888351D01*
G37*
G36*
X51125000Y-16650000D02*
G01*
X50275000Y-16650000D01*
X50275000Y-15750000D01*
X51125000Y-15750000D01*
X51125000Y-16650000D01*
G37*
G36*
X41425000Y-16500000D02*
G01*
X41075000Y-16500000D01*
X41075000Y-15400000D01*
X41425000Y-15400000D01*
X41425000Y-16500000D01*
G37*
G36*
X39925000Y-16500000D02*
G01*
X39575000Y-16500000D01*
X39575000Y-15400000D01*
X39925000Y-15400000D01*
X39925000Y-16500000D01*
G37*
G36*
X33875000Y-16500000D02*
G01*
X33025000Y-16500000D01*
X33025000Y-15600000D01*
X33875000Y-15600000D01*
X33875000Y-16500000D01*
G37*
G36*
X40925000Y-16500000D02*
G01*
X40575000Y-16500000D01*
X40575000Y-15400000D01*
X40925000Y-15400000D01*
X40925000Y-16500000D01*
G37*
G36*
X41925000Y-16500000D02*
G01*
X41575000Y-16500000D01*
X41575000Y-15400000D01*
X41925000Y-15400000D01*
X41925000Y-16500000D01*
G37*
G36*
X42425000Y-16500000D02*
G01*
X42075000Y-16500000D01*
X42075000Y-15400000D01*
X42425000Y-15400000D01*
X42425000Y-16500000D01*
G37*
G36*
X42925000Y-16500000D02*
G01*
X42575000Y-16500000D01*
X42575000Y-15400000D01*
X42925000Y-15400000D01*
X42925000Y-16500000D01*
G37*
G36*
X43425000Y-16500000D02*
G01*
X43075000Y-16500000D01*
X43075000Y-15400000D01*
X43425000Y-15400000D01*
X43425000Y-16500000D01*
G37*
G36*
X40425000Y-16500000D02*
G01*
X40075000Y-16500000D01*
X40075000Y-15400000D01*
X40425000Y-15400000D01*
X40425000Y-16500000D01*
G37*
G36*
X43925000Y-16500000D02*
G01*
X43575000Y-16500000D01*
X43575000Y-15400000D01*
X43925000Y-15400000D01*
X43925000Y-16500000D01*
G37*
G36*
X47425000Y-16500000D02*
G01*
X47075000Y-16500000D01*
X47075000Y-15400000D01*
X47425000Y-15400000D01*
X47425000Y-16500000D01*
G37*
G36*
X46925000Y-16500000D02*
G01*
X46575000Y-16500000D01*
X46575000Y-15400000D01*
X46925000Y-15400000D01*
X46925000Y-16500000D01*
G37*
G36*
X46425000Y-16500000D02*
G01*
X46075000Y-16500000D01*
X46075000Y-15400000D01*
X46425000Y-15400000D01*
X46425000Y-16500000D01*
G37*
G36*
X44425000Y-16500000D02*
G01*
X44075000Y-16500000D01*
X44075000Y-15400000D01*
X44425000Y-15400000D01*
X44425000Y-16500000D01*
G37*
G36*
X45925000Y-16500000D02*
G01*
X45575000Y-16500000D01*
X45575000Y-15400000D01*
X45925000Y-15400000D01*
X45925000Y-16500000D01*
G37*
G36*
X45425000Y-16500000D02*
G01*
X45075000Y-16500000D01*
X45075000Y-15400000D01*
X45425000Y-15400000D01*
X45425000Y-16500000D01*
G37*
G36*
X44925000Y-16500000D02*
G01*
X44575000Y-16500000D01*
X44575000Y-15400000D01*
X44925000Y-15400000D01*
X44925000Y-16500000D01*
G37*
G36*
X4069058Y-15409656D02*
G01*
X4168296Y-15450762D01*
X4257608Y-15510438D01*
X4333562Y-15586392D01*
X4393238Y-15675704D01*
X4434344Y-15774942D01*
X4455300Y-15880293D01*
X4455300Y-15987707D01*
X4434344Y-16093058D01*
X4393238Y-16192296D01*
X4333562Y-16281608D01*
X4257608Y-16357562D01*
X4168296Y-16417238D01*
X4069058Y-16458344D01*
X3963707Y-16479300D01*
X3856293Y-16479300D01*
X3750942Y-16458344D01*
X3651704Y-16417238D01*
X3562392Y-16357562D01*
X3486438Y-16281608D01*
X3426762Y-16192296D01*
X3385656Y-16093058D01*
X3364700Y-15987707D01*
X3364700Y-15880293D01*
X3385656Y-15774942D01*
X3426762Y-15675704D01*
X3486438Y-15586392D01*
X3562392Y-15510438D01*
X3651704Y-15450762D01*
X3750942Y-15409656D01*
X3856293Y-15388700D01*
X3963707Y-15388700D01*
X4069058Y-15409656D01*
G37*
G36*
X53850000Y-16450000D02*
G01*
X51750000Y-16450000D01*
X51750000Y-15950000D01*
X53850000Y-15950000D01*
X53850000Y-16450000D01*
G37*
G36*
X18919058Y-15341656D02*
G01*
X19018296Y-15382762D01*
X19107608Y-15442438D01*
X19183562Y-15518392D01*
X19243238Y-15607704D01*
X19284344Y-15706942D01*
X19305300Y-15812293D01*
X19305300Y-15919707D01*
X19284344Y-16025058D01*
X19243238Y-16124296D01*
X19183562Y-16213608D01*
X19107608Y-16289562D01*
X19018296Y-16349238D01*
X18919058Y-16390344D01*
X18813707Y-16411300D01*
X18706293Y-16411300D01*
X18600942Y-16390344D01*
X18501704Y-16349238D01*
X18412392Y-16289562D01*
X18336438Y-16213608D01*
X18276762Y-16124296D01*
X18235656Y-16025058D01*
X18214700Y-15919707D01*
X18214700Y-15812293D01*
X18235656Y-15706942D01*
X18276762Y-15607704D01*
X18336438Y-15518392D01*
X18412392Y-15442438D01*
X18501704Y-15382762D01*
X18600942Y-15341656D01*
X18706293Y-15320700D01*
X18813707Y-15320700D01*
X18919058Y-15341656D01*
G37*
G36*
X28325000Y-16350000D02*
G01*
X27475000Y-16350000D01*
X27475000Y-15450000D01*
X28325000Y-15450000D01*
X28325000Y-16350000D01*
G37*
G36*
X26975000Y-16350000D02*
G01*
X26125000Y-16350000D01*
X26125000Y-15450000D01*
X26975000Y-15450000D01*
X26975000Y-16350000D01*
G37*
G36*
X31050000Y-16250000D02*
G01*
X30450000Y-16250000D01*
X30450000Y-15250000D01*
X31050000Y-15250000D01*
X31050000Y-16250000D01*
G37*
G36*
X29550000Y-16250000D02*
G01*
X28950000Y-16250000D01*
X28950000Y-15250000D01*
X29550000Y-15250000D01*
X29550000Y-16250000D01*
G37*
G36*
X60300000Y-15950000D02*
G01*
X59700000Y-15950000D01*
X59700000Y-14950000D01*
X60300000Y-14950000D01*
X60300000Y-15950000D01*
G37*
G36*
X58800000Y-15950000D02*
G01*
X58200000Y-15950000D01*
X58200000Y-14950000D01*
X58800000Y-14950000D01*
X58800000Y-15950000D01*
G37*
G36*
X21429423Y-15058351D02*
G01*
X21469797Y-15075074D01*
X21510170Y-15091797D01*
X21582843Y-15140357D01*
X21644643Y-15202157D01*
X21693203Y-15274830D01*
X21709926Y-15315203D01*
X21726649Y-15355577D01*
X21743700Y-15441299D01*
X21743700Y-15528701D01*
X21726649Y-15614423D01*
X21709925Y-15654797D01*
X21693203Y-15695170D01*
X21644643Y-15767843D01*
X21582843Y-15829643D01*
X21510170Y-15878203D01*
X21485667Y-15888352D01*
X21429423Y-15911649D01*
X21343701Y-15928700D01*
X21256299Y-15928700D01*
X21170577Y-15911649D01*
X21114333Y-15888352D01*
X21089830Y-15878203D01*
X21017157Y-15829643D01*
X20955357Y-15767843D01*
X20906797Y-15695170D01*
X20890075Y-15654797D01*
X20873351Y-15614423D01*
X20856300Y-15528701D01*
X20856300Y-15441299D01*
X20873351Y-15355577D01*
X20890074Y-15315203D01*
X20906797Y-15274830D01*
X20955357Y-15202157D01*
X21017157Y-15140357D01*
X21089830Y-15091797D01*
X21130203Y-15075074D01*
X21170577Y-15058351D01*
X21256299Y-15041300D01*
X21343701Y-15041300D01*
X21429423Y-15058351D01*
G37*
G36*
X22699423Y-15058351D02*
G01*
X22739797Y-15075074D01*
X22780170Y-15091797D01*
X22852843Y-15140357D01*
X22914643Y-15202157D01*
X22963203Y-15274830D01*
X22979926Y-15315203D01*
X22996649Y-15355577D01*
X23013700Y-15441299D01*
X23013700Y-15528701D01*
X22996649Y-15614423D01*
X22979925Y-15654797D01*
X22963203Y-15695170D01*
X22914643Y-15767843D01*
X22852843Y-15829643D01*
X22780170Y-15878203D01*
X22755667Y-15888352D01*
X22699423Y-15911649D01*
X22613701Y-15928700D01*
X22526299Y-15928700D01*
X22440577Y-15911649D01*
X22384333Y-15888352D01*
X22359830Y-15878203D01*
X22287157Y-15829643D01*
X22225357Y-15767843D01*
X22176797Y-15695170D01*
X22160075Y-15654797D01*
X22143351Y-15614423D01*
X22126300Y-15528701D01*
X22126300Y-15441299D01*
X22143351Y-15355577D01*
X22160074Y-15315203D01*
X22176797Y-15274830D01*
X22225357Y-15202157D01*
X22287157Y-15140357D01*
X22359830Y-15091797D01*
X22400203Y-15075074D01*
X22440577Y-15058351D01*
X22526299Y-15041300D01*
X22613701Y-15041300D01*
X22699423Y-15058351D01*
G37*
G36*
X20159423Y-15058351D02*
G01*
X20199797Y-15075074D01*
X20240170Y-15091797D01*
X20312843Y-15140357D01*
X20374643Y-15202157D01*
X20423203Y-15274830D01*
X20439926Y-15315203D01*
X20456649Y-15355577D01*
X20473700Y-15441299D01*
X20473700Y-15528701D01*
X20456649Y-15614423D01*
X20439925Y-15654797D01*
X20423203Y-15695170D01*
X20374643Y-15767843D01*
X20312843Y-15829643D01*
X20240170Y-15878203D01*
X20215667Y-15888352D01*
X20159423Y-15911649D01*
X20073701Y-15928700D01*
X19986299Y-15928700D01*
X19900577Y-15911649D01*
X19844333Y-15888352D01*
X19819830Y-15878203D01*
X19747157Y-15829643D01*
X19685357Y-15767843D01*
X19636797Y-15695170D01*
X19620075Y-15654797D01*
X19603351Y-15614423D01*
X19586300Y-15528701D01*
X19586300Y-15441299D01*
X19603351Y-15355577D01*
X19620074Y-15315203D01*
X19636797Y-15274830D01*
X19685357Y-15202157D01*
X19747157Y-15140357D01*
X19819830Y-15091797D01*
X19860203Y-15075074D01*
X19900577Y-15058351D01*
X19986299Y-15041300D01*
X20073701Y-15041300D01*
X20159423Y-15058351D01*
G37*
G36*
X15150000Y-15700000D02*
G01*
X13050000Y-15700000D01*
X13050000Y-15200000D01*
X15150000Y-15200000D01*
X15150000Y-15700000D01*
G37*
G36*
X36700000Y-15450000D02*
G01*
X35850000Y-15450000D01*
X35850000Y-13950000D01*
X36700000Y-13950000D01*
X36700000Y-15450000D01*
G37*
G36*
X35250000Y-15450000D02*
G01*
X34400000Y-15450000D01*
X34400000Y-13950000D01*
X35250000Y-13950000D01*
X35250000Y-15450000D01*
G37*
G36*
X23999058Y-14325656D02*
G01*
X24098296Y-14366762D01*
X24187608Y-14426438D01*
X24263562Y-14502392D01*
X24323238Y-14591704D01*
X24364344Y-14690942D01*
X24385300Y-14796293D01*
X24385300Y-14903707D01*
X24364344Y-15009058D01*
X24323238Y-15108296D01*
X24263562Y-15197608D01*
X24187608Y-15273562D01*
X24098296Y-15333238D01*
X23999058Y-15374344D01*
X23893707Y-15395300D01*
X23786293Y-15395300D01*
X23680942Y-15374344D01*
X23581704Y-15333238D01*
X23492392Y-15273562D01*
X23416438Y-15197608D01*
X23356762Y-15108296D01*
X23315656Y-15009058D01*
X23294700Y-14903707D01*
X23294700Y-14796293D01*
X23315656Y-14690942D01*
X23356762Y-14591704D01*
X23416438Y-14502392D01*
X23492392Y-14426438D01*
X23581704Y-14366762D01*
X23680942Y-14325656D01*
X23786293Y-14304700D01*
X23893707Y-14304700D01*
X23999058Y-14325656D01*
G37*
G36*
X53850000Y-15250000D02*
G01*
X51750000Y-15250000D01*
X51750000Y-14750000D01*
X53850000Y-14750000D01*
X53850000Y-15250000D01*
G37*
G36*
X51125000Y-15150000D02*
G01*
X50275000Y-15150000D01*
X50275000Y-14250000D01*
X51125000Y-14250000D01*
X51125000Y-15150000D01*
G37*
G36*
X33875000Y-15000000D02*
G01*
X33025000Y-15000000D01*
X33025000Y-14100000D01*
X33875000Y-14100000D01*
X33875000Y-15000000D01*
G37*
G36*
X32525000Y-15000000D02*
G01*
X31675000Y-15000000D01*
X31675000Y-14100000D01*
X32525000Y-14100000D01*
X32525000Y-15000000D01*
G37*
G36*
X26975000Y-14850000D02*
G01*
X26125000Y-14850000D01*
X26125000Y-13950000D01*
X26975000Y-13950000D01*
X26975000Y-14850000D01*
G37*
G36*
X28325000Y-14850000D02*
G01*
X27475000Y-14850000D01*
X27475000Y-13950000D01*
X28325000Y-13950000D01*
X28325000Y-14850000D01*
G37*
G36*
X31200000Y-14825000D02*
G01*
X30300000Y-14825000D01*
X30300000Y-13975000D01*
X31200000Y-13975000D01*
X31200000Y-14825000D01*
G37*
G36*
X29700000Y-14825000D02*
G01*
X28800000Y-14825000D01*
X28800000Y-13975000D01*
X29700000Y-13975000D01*
X29700000Y-14825000D01*
G37*
G36*
X22699423Y-13788351D02*
G01*
X22727546Y-13800000D01*
X22780170Y-13821797D01*
X22780171Y-13821798D01*
X22848749Y-13867621D01*
X22852843Y-13870357D01*
X22914643Y-13932157D01*
X22963203Y-14004830D01*
X22979926Y-14045203D01*
X22996649Y-14085577D01*
X23013700Y-14171299D01*
X23013700Y-14258701D01*
X22996649Y-14344423D01*
X22987396Y-14366762D01*
X22963203Y-14425170D01*
X22914643Y-14497843D01*
X22852843Y-14559643D01*
X22780170Y-14608203D01*
X22739797Y-14624926D01*
X22699423Y-14641649D01*
X22613701Y-14658700D01*
X22526299Y-14658700D01*
X22440577Y-14641649D01*
X22400203Y-14624926D01*
X22359830Y-14608203D01*
X22287157Y-14559643D01*
X22225357Y-14497843D01*
X22176797Y-14425170D01*
X22152604Y-14366762D01*
X22143351Y-14344423D01*
X22126300Y-14258701D01*
X22126300Y-14171299D01*
X22143351Y-14085577D01*
X22160074Y-14045203D01*
X22176797Y-14004830D01*
X22225357Y-13932157D01*
X22287157Y-13870357D01*
X22291252Y-13867621D01*
X22359829Y-13821798D01*
X22359830Y-13821797D01*
X22412454Y-13800000D01*
X22440577Y-13788351D01*
X22526299Y-13771300D01*
X22613701Y-13771300D01*
X22699423Y-13788351D01*
G37*
G36*
X21429423Y-13788351D02*
G01*
X21457546Y-13800000D01*
X21510170Y-13821797D01*
X21510171Y-13821798D01*
X21578749Y-13867621D01*
X21582843Y-13870357D01*
X21644643Y-13932157D01*
X21693203Y-14004830D01*
X21709926Y-14045203D01*
X21726649Y-14085577D01*
X21743700Y-14171299D01*
X21743700Y-14258701D01*
X21726649Y-14344423D01*
X21717396Y-14366762D01*
X21693203Y-14425170D01*
X21644643Y-14497843D01*
X21582843Y-14559643D01*
X21510170Y-14608203D01*
X21469797Y-14624926D01*
X21429423Y-14641649D01*
X21343701Y-14658700D01*
X21256299Y-14658700D01*
X21170577Y-14641649D01*
X21130203Y-14624926D01*
X21089830Y-14608203D01*
X21017157Y-14559643D01*
X20955357Y-14497843D01*
X20906797Y-14425170D01*
X20882604Y-14366762D01*
X20873351Y-14344423D01*
X20856300Y-14258701D01*
X20856300Y-14171299D01*
X20873351Y-14085577D01*
X20890074Y-14045203D01*
X20906797Y-14004830D01*
X20955357Y-13932157D01*
X21017157Y-13870357D01*
X21021252Y-13867621D01*
X21089829Y-13821798D01*
X21089830Y-13821797D01*
X21142454Y-13800000D01*
X21170577Y-13788351D01*
X21256299Y-13771300D01*
X21343701Y-13771300D01*
X21429423Y-13788351D01*
G37*
G36*
X20159423Y-13788351D02*
G01*
X20187546Y-13800000D01*
X20240170Y-13821797D01*
X20240171Y-13821798D01*
X20308749Y-13867621D01*
X20312843Y-13870357D01*
X20374643Y-13932157D01*
X20423203Y-14004830D01*
X20439926Y-14045203D01*
X20456649Y-14085577D01*
X20473700Y-14171299D01*
X20473700Y-14258701D01*
X20456649Y-14344423D01*
X20447396Y-14366762D01*
X20423203Y-14425170D01*
X20374643Y-14497843D01*
X20312843Y-14559643D01*
X20240170Y-14608203D01*
X20199797Y-14624926D01*
X20159423Y-14641649D01*
X20073701Y-14658700D01*
X19986299Y-14658700D01*
X19900577Y-14641649D01*
X19860203Y-14624926D01*
X19819830Y-14608203D01*
X19747157Y-14559643D01*
X19685357Y-14497843D01*
X19636797Y-14425170D01*
X19612604Y-14366762D01*
X19603351Y-14344423D01*
X19586300Y-14258701D01*
X19586300Y-14171299D01*
X19603351Y-14085577D01*
X19620074Y-14045203D01*
X19636797Y-14004830D01*
X19685357Y-13932157D01*
X19747157Y-13870357D01*
X19751252Y-13867621D01*
X19819829Y-13821798D01*
X19819830Y-13821797D01*
X19872454Y-13800000D01*
X19900577Y-13788351D01*
X19986299Y-13771300D01*
X20073701Y-13771300D01*
X20159423Y-13788351D01*
G37*
G36*
X15150000Y-14500000D02*
G01*
X13050000Y-14500000D01*
X13050000Y-14000000D01*
X15150000Y-14000000D01*
X15150000Y-14500000D01*
G37*
G36*
X61000000Y-13716841D02*
G01*
X61000120Y-13719291D01*
X61003145Y-13750000D01*
X61000120Y-13780709D01*
X61000000Y-13783159D01*
X61000000Y-13811282D01*
X60997782Y-13815432D01*
X60996000Y-13822546D01*
X60990595Y-13877422D01*
X60953427Y-13999948D01*
X60953425Y-13999951D01*
X60953425Y-13999952D01*
X60893070Y-14112869D01*
X60811844Y-14211844D01*
X60712869Y-14293070D01*
X60599952Y-14353425D01*
X60599948Y-14353427D01*
X60477422Y-14390595D01*
X60381932Y-14400000D01*
X59618068Y-14400000D01*
X59522578Y-14390595D01*
X59400052Y-14353427D01*
X59400048Y-14353425D01*
X59287131Y-14293070D01*
X59188156Y-14211844D01*
X59106930Y-14112869D01*
X59046575Y-13999952D01*
X59046575Y-13999951D01*
X59046573Y-13999948D01*
X59009405Y-13877422D01*
X59004000Y-13822544D01*
X59003045Y-13817742D01*
X59001169Y-13813215D01*
X59000000Y-13811466D01*
X59000000Y-13783159D01*
X58999880Y-13780709D01*
X58996855Y-13750000D01*
X58999880Y-13719291D01*
X59000000Y-13716841D01*
X59000000Y-12500000D01*
X61000000Y-12500000D01*
X61000000Y-13716841D01*
G37*
G36*
X8525000Y-14400000D02*
G01*
X7675000Y-14400000D01*
X7675000Y-13500000D01*
X8525000Y-13500000D01*
X8525000Y-14400000D01*
G37*
G36*
X3000000Y-13716841D02*
G01*
X3000120Y-13719291D01*
X3003145Y-13750000D01*
X3000120Y-13780709D01*
X3000000Y-13783159D01*
X3000000Y-13811282D01*
X2997782Y-13815432D01*
X2996000Y-13822546D01*
X2990595Y-13877422D01*
X2953427Y-13999948D01*
X2953425Y-13999951D01*
X2953425Y-13999952D01*
X2893070Y-14112869D01*
X2811844Y-14211844D01*
X2712869Y-14293070D01*
X2599952Y-14353425D01*
X2599948Y-14353427D01*
X2477422Y-14390595D01*
X2381932Y-14400000D01*
X1618068Y-14400000D01*
X1522578Y-14390595D01*
X1400052Y-14353427D01*
X1400048Y-14353425D01*
X1287131Y-14293070D01*
X1188156Y-14211844D01*
X1106930Y-14112869D01*
X1046575Y-13999952D01*
X1046575Y-13999951D01*
X1046573Y-13999948D01*
X1009405Y-13877422D01*
X1004000Y-13822544D01*
X1003045Y-13817742D01*
X1001169Y-13813215D01*
X1000000Y-13811466D01*
X1000000Y-13783159D01*
X999880Y-13780709D01*
X996855Y-13750000D01*
X999880Y-13719291D01*
X1000000Y-13716841D01*
X1000000Y-12500000D01*
X3000000Y-12500000D01*
X3000000Y-13716841D01*
G37*
G36*
X7175000Y-14400000D02*
G01*
X6325000Y-14400000D01*
X6325000Y-13500000D01*
X7175000Y-13500000D01*
X7175000Y-14400000D01*
G37*
G36*
X18919058Y-13309656D02*
G01*
X19018296Y-13350762D01*
X19107608Y-13410438D01*
X19183562Y-13486392D01*
X19243238Y-13575704D01*
X19284344Y-13674942D01*
X19305300Y-13780293D01*
X19305300Y-13887707D01*
X19284344Y-13993058D01*
X19243238Y-14092296D01*
X19183562Y-14181608D01*
X19107608Y-14257562D01*
X19018296Y-14317238D01*
X18919058Y-14358344D01*
X18813707Y-14379300D01*
X18706293Y-14379300D01*
X18600942Y-14358344D01*
X18501704Y-14317238D01*
X18412392Y-14257562D01*
X18336438Y-14181608D01*
X18276762Y-14092296D01*
X18235656Y-13993058D01*
X18214700Y-13887707D01*
X18214700Y-13780293D01*
X18235656Y-13674942D01*
X18276762Y-13575704D01*
X18336438Y-13486392D01*
X18412392Y-13410438D01*
X18501704Y-13350762D01*
X18600942Y-13309656D01*
X18706293Y-13288700D01*
X18813707Y-13288700D01*
X18919058Y-13309656D01*
G37*
G36*
X38350000Y-14175000D02*
G01*
X37250000Y-14175000D01*
X37250000Y-13825000D01*
X38350000Y-13825000D01*
X38350000Y-14175000D01*
G37*
G36*
X49750000Y-14175000D02*
G01*
X48650000Y-14175000D01*
X48650000Y-13825000D01*
X49750000Y-13825000D01*
X49750000Y-14175000D01*
G37*
G36*
X53850000Y-14050000D02*
G01*
X51750000Y-14050000D01*
X51750000Y-13550000D01*
X53850000Y-13550000D01*
X53850000Y-14050000D01*
G37*
G36*
X27725000Y-13700000D02*
G01*
X27175000Y-13700000D01*
X27175000Y-12900000D01*
X27725000Y-12900000D01*
X27725000Y-13700000D01*
G37*
G36*
X38350000Y-13675000D02*
G01*
X37250000Y-13675000D01*
X37250000Y-13325000D01*
X38350000Y-13325000D01*
X38350000Y-13675000D01*
G37*
G36*
X49750000Y-13675000D02*
G01*
X48650000Y-13675000D01*
X48650000Y-13325000D01*
X49750000Y-13325000D01*
X49750000Y-13675000D01*
G37*
G36*
X29550000Y-13550000D02*
G01*
X28950000Y-13550000D01*
X28950000Y-12550000D01*
X29550000Y-12550000D01*
X29550000Y-13550000D01*
G37*
G36*
X31050000Y-13550000D02*
G01*
X30450000Y-13550000D01*
X30450000Y-12550000D01*
X31050000Y-12550000D01*
X31050000Y-13550000D01*
G37*
G36*
X4876150Y-11994855D02*
G01*
X4926060Y-12004783D01*
X5067100Y-12063203D01*
X5194035Y-12148019D01*
X5301981Y-12255965D01*
X5386797Y-12382900D01*
X5445217Y-12523940D01*
X5475000Y-12673671D01*
X5475000Y-12826329D01*
X5445217Y-12976060D01*
X5386797Y-13117100D01*
X5301981Y-13244035D01*
X5194035Y-13351981D01*
X5067100Y-13436797D01*
X4926060Y-13495217D01*
X4876150Y-13505145D01*
X4776331Y-13525000D01*
X4623669Y-13525000D01*
X4523850Y-13505145D01*
X4473940Y-13495217D01*
X4332900Y-13436797D01*
X4205965Y-13351981D01*
X4098019Y-13244035D01*
X4013203Y-13117100D01*
X3954783Y-12976060D01*
X3925000Y-12826329D01*
X3925000Y-12673671D01*
X3954783Y-12523940D01*
X4013203Y-12382900D01*
X4098019Y-12255965D01*
X4205965Y-12148019D01*
X4332900Y-12063203D01*
X4473940Y-12004783D01*
X4523850Y-11994855D01*
X4623669Y-11975000D01*
X4776331Y-11975000D01*
X4876150Y-11994855D01*
G37*
G36*
X57476150Y-11994855D02*
G01*
X57526060Y-12004783D01*
X57667100Y-12063203D01*
X57794035Y-12148019D01*
X57901981Y-12255965D01*
X57986797Y-12382900D01*
X58045217Y-12523940D01*
X58075000Y-12673671D01*
X58075000Y-12826329D01*
X58045217Y-12976060D01*
X57986797Y-13117100D01*
X57901981Y-13244035D01*
X57794035Y-13351981D01*
X57667100Y-13436797D01*
X57526060Y-13495217D01*
X57476150Y-13505145D01*
X57376331Y-13525000D01*
X57223669Y-13525000D01*
X57123850Y-13505145D01*
X57073940Y-13495217D01*
X56932900Y-13436797D01*
X56805965Y-13351981D01*
X56698019Y-13244035D01*
X56613203Y-13117100D01*
X56554783Y-12976060D01*
X56525000Y-12826329D01*
X56525000Y-12673671D01*
X56554783Y-12523940D01*
X56613203Y-12382900D01*
X56698019Y-12255965D01*
X56805965Y-12148019D01*
X56932900Y-12063203D01*
X57073940Y-12004783D01*
X57123850Y-11994855D01*
X57223669Y-11975000D01*
X57376331Y-11975000D01*
X57476150Y-11994855D01*
G37*
G36*
X32525000Y-13500000D02*
G01*
X31675000Y-13500000D01*
X31675000Y-12600000D01*
X32525000Y-12600000D01*
X32525000Y-13500000D01*
G37*
G36*
X12525000Y-13450000D02*
G01*
X12175000Y-13450000D01*
X12175000Y-12650000D01*
X12525000Y-12650000D01*
X12525000Y-13450000D01*
G37*
G36*
X13525000Y-13450000D02*
G01*
X13175000Y-13450000D01*
X13175000Y-12650000D01*
X13525000Y-12650000D01*
X13525000Y-13450000D01*
G37*
G36*
X13025000Y-13450000D02*
G01*
X12675000Y-13450000D01*
X12675000Y-12650000D01*
X13025000Y-12650000D01*
X13025000Y-13450000D01*
G37*
G36*
X12025000Y-13450000D02*
G01*
X11675000Y-13450000D01*
X11675000Y-12650000D01*
X12025000Y-12650000D01*
X12025000Y-13450000D01*
G37*
G36*
X14525000Y-13450000D02*
G01*
X14175000Y-13450000D01*
X14175000Y-12650000D01*
X14525000Y-12650000D01*
X14525000Y-13450000D01*
G37*
G36*
X11025000Y-13450000D02*
G01*
X10675000Y-13450000D01*
X10675000Y-12650000D01*
X11025000Y-12650000D01*
X11025000Y-13450000D01*
G37*
G36*
X11525000Y-13450000D02*
G01*
X11175000Y-13450000D01*
X11175000Y-12650000D01*
X11525000Y-12650000D01*
X11525000Y-13450000D01*
G37*
G36*
X14025000Y-13450000D02*
G01*
X13675000Y-13450000D01*
X13675000Y-12650000D01*
X14025000Y-12650000D01*
X14025000Y-13450000D01*
G37*
G36*
X38350000Y-13175000D02*
G01*
X37250000Y-13175000D01*
X37250000Y-12825000D01*
X38350000Y-12825000D01*
X38350000Y-13175000D01*
G37*
G36*
X49750000Y-13175000D02*
G01*
X48650000Y-13175000D01*
X48650000Y-12825000D01*
X49750000Y-12825000D01*
X49750000Y-13175000D01*
G37*
G36*
X8525000Y-12900000D02*
G01*
X7675000Y-12900000D01*
X7675000Y-12000000D01*
X8525000Y-12000000D01*
X8525000Y-12900000D01*
G37*
G36*
X7175000Y-12900000D02*
G01*
X6325000Y-12900000D01*
X6325000Y-12000000D01*
X7175000Y-12000000D01*
X7175000Y-12900000D01*
G37*
G36*
X49750000Y-12675000D02*
G01*
X48650000Y-12675000D01*
X48650000Y-12325000D01*
X49750000Y-12325000D01*
X49750000Y-12675000D01*
G37*
G36*
X38350000Y-12675000D02*
G01*
X37250000Y-12675000D01*
X37250000Y-12325000D01*
X38350000Y-12325000D01*
X38350000Y-12675000D01*
G37*
G36*
X15400000Y-12575000D02*
G01*
X14600000Y-12575000D01*
X14600000Y-12225000D01*
X15400000Y-12225000D01*
X15400000Y-12575000D01*
G37*
G36*
X10600000Y-12575000D02*
G01*
X9800000Y-12575000D01*
X9800000Y-12225000D01*
X10600000Y-12225000D01*
X10600000Y-12575000D01*
G37*
G36*
X14375000Y-12425000D02*
G01*
X10825000Y-12425000D01*
X10825000Y-8875000D01*
X14375000Y-8875000D01*
X14375000Y-12425000D01*
G37*
G36*
X34800000Y-12425000D02*
G01*
X33900000Y-12425000D01*
X33900000Y-11575000D01*
X34800000Y-11575000D01*
X34800000Y-12425000D01*
G37*
G36*
X36300000Y-12425000D02*
G01*
X35400000Y-12425000D01*
X35400000Y-11575000D01*
X36300000Y-11575000D01*
X36300000Y-12425000D01*
G37*
G36*
X25650000Y-12300000D02*
G01*
X24650000Y-12300000D01*
X24650000Y-11200000D01*
X25650000Y-11200000D01*
X25650000Y-12300000D01*
G37*
G36*
X21550000Y-12300000D02*
G01*
X20550000Y-12300000D01*
X20550000Y-11200000D01*
X21550000Y-11200000D01*
X21550000Y-12300000D01*
G37*
G36*
X49750000Y-12175000D02*
G01*
X48650000Y-12175000D01*
X48650000Y-11825000D01*
X49750000Y-11825000D01*
X49750000Y-12175000D01*
G37*
G36*
X38350000Y-12175000D02*
G01*
X37250000Y-12175000D01*
X37250000Y-11825000D01*
X38350000Y-11825000D01*
X38350000Y-12175000D01*
G37*
G36*
X32600000Y-12150000D02*
G01*
X31600000Y-12150000D01*
X31600000Y-11550000D01*
X32600000Y-11550000D01*
X32600000Y-12150000D01*
G37*
G36*
X15400000Y-12075000D02*
G01*
X14600000Y-12075000D01*
X14600000Y-11725000D01*
X15400000Y-11725000D01*
X15400000Y-12075000D01*
G37*
G36*
X10600000Y-12075000D02*
G01*
X9800000Y-12075000D01*
X9800000Y-11725000D01*
X10600000Y-11725000D01*
X10600000Y-12075000D01*
G37*
G36*
X29550000Y-12050000D02*
G01*
X28950000Y-12050000D01*
X28950000Y-11050000D01*
X29550000Y-11050000D01*
X29550000Y-12050000D01*
G37*
G36*
X61000000Y-12050000D02*
G01*
X59000000Y-12050000D01*
X59000000Y-10450000D01*
X61000000Y-10450000D01*
X61000000Y-12050000D01*
G37*
G36*
X3000000Y-12050000D02*
G01*
X1000000Y-12050000D01*
X1000000Y-10450000D01*
X3000000Y-10450000D01*
X3000000Y-12050000D01*
G37*
G36*
X31050000Y-12050000D02*
G01*
X30450000Y-12050000D01*
X30450000Y-11050000D01*
X31050000Y-11050000D01*
X31050000Y-12050000D01*
G37*
G36*
X5425000Y-11800000D02*
G01*
X3975000Y-11800000D01*
X3975000Y-11300000D01*
X5425000Y-11300000D01*
X5425000Y-11800000D01*
G37*
G36*
X58025000Y-11800000D02*
G01*
X56575000Y-11800000D01*
X56575000Y-11300000D01*
X58025000Y-11300000D01*
X58025000Y-11800000D01*
G37*
G36*
X27075000Y-11700000D02*
G01*
X26525000Y-11700000D01*
X26525000Y-10900000D01*
X27075000Y-10900000D01*
X27075000Y-11700000D01*
G37*
G36*
X28375000Y-11700000D02*
G01*
X27825000Y-11700000D01*
X27825000Y-10900000D01*
X28375000Y-10900000D01*
X28375000Y-11700000D01*
G37*
G36*
X38350000Y-11675000D02*
G01*
X37250000Y-11675000D01*
X37250000Y-11325000D01*
X38350000Y-11325000D01*
X38350000Y-11675000D01*
G37*
G36*
X49750000Y-11675000D02*
G01*
X48650000Y-11675000D01*
X48650000Y-11325000D01*
X49750000Y-11325000D01*
X49750000Y-11675000D01*
G37*
G36*
X10600000Y-11575000D02*
G01*
X9800000Y-11575000D01*
X9800000Y-11225000D01*
X10600000Y-11225000D01*
X10600000Y-11575000D01*
G37*
G36*
X15400000Y-11575000D02*
G01*
X14600000Y-11575000D01*
X14600000Y-11225000D01*
X15400000Y-11225000D01*
X15400000Y-11575000D01*
G37*
G36*
X18300000Y-11240000D02*
G01*
X17700000Y-11240000D01*
X17700000Y-10240000D01*
X18300000Y-10240000D01*
X18300000Y-11240000D01*
G37*
G36*
X19800000Y-11240000D02*
G01*
X19200000Y-11240000D01*
X19200000Y-10240000D01*
X19800000Y-10240000D01*
X19800000Y-11240000D01*
G37*
G36*
X38350000Y-11175000D02*
G01*
X37250000Y-11175000D01*
X37250000Y-10825000D01*
X38350000Y-10825000D01*
X38350000Y-11175000D01*
G37*
G36*
X49750000Y-11175000D02*
G01*
X48650000Y-11175000D01*
X48650000Y-10825000D01*
X49750000Y-10825000D01*
X49750000Y-11175000D01*
G37*
G36*
X58025000Y-11150000D02*
G01*
X56575000Y-11150000D01*
X56575000Y-10650000D01*
X58025000Y-10650000D01*
X58025000Y-11150000D01*
G37*
G36*
X5425000Y-11150000D02*
G01*
X3975000Y-11150000D01*
X3975000Y-10650000D01*
X5425000Y-10650000D01*
X5425000Y-11150000D01*
G37*
G36*
X15400000Y-11075000D02*
G01*
X14600000Y-11075000D01*
X14600000Y-10725000D01*
X15400000Y-10725000D01*
X15400000Y-11075000D01*
G37*
G36*
X10600000Y-11075000D02*
G01*
X9800000Y-11075000D01*
X9800000Y-10725000D01*
X10600000Y-10725000D01*
X10600000Y-11075000D01*
G37*
G36*
X36150000Y-11050000D02*
G01*
X35450000Y-11050000D01*
X35450000Y-10250000D01*
X36150000Y-10250000D01*
X36150000Y-11050000D01*
G37*
G36*
X34750000Y-11050000D02*
G01*
X34050000Y-11050000D01*
X34050000Y-10250000D01*
X34750000Y-10250000D01*
X34750000Y-11050000D01*
G37*
G36*
X7200000Y-10700000D02*
G01*
X6600000Y-10700000D01*
X6600000Y-9700000D01*
X7200000Y-9700000D01*
X7200000Y-10700000D01*
G37*
G36*
X8700000Y-10700000D02*
G01*
X8100000Y-10700000D01*
X8100000Y-9700000D01*
X8700000Y-9700000D01*
X8700000Y-10700000D01*
G37*
G36*
X25650000Y-10700000D02*
G01*
X24650000Y-10700000D01*
X24650000Y-9600000D01*
X25650000Y-9600000D01*
X25650000Y-10700000D01*
G37*
G36*
X21550000Y-10700000D02*
G01*
X20550000Y-10700000D01*
X20550000Y-9600000D01*
X21550000Y-9600000D01*
X21550000Y-10700000D01*
G37*
G36*
X38350000Y-10675000D02*
G01*
X37250000Y-10675000D01*
X37250000Y-10325000D01*
X38350000Y-10325000D01*
X38350000Y-10675000D01*
G37*
G36*
X49750000Y-10675000D02*
G01*
X48650000Y-10675000D01*
X48650000Y-10325000D01*
X49750000Y-10325000D01*
X49750000Y-10675000D01*
G37*
G36*
X32600000Y-10650000D02*
G01*
X31600000Y-10650000D01*
X31600000Y-10050000D01*
X32600000Y-10050000D01*
X32600000Y-10650000D01*
G37*
G36*
X15400000Y-10575000D02*
G01*
X14600000Y-10575000D01*
X14600000Y-10225000D01*
X15400000Y-10225000D01*
X15400000Y-10575000D01*
G37*
G36*
X10600000Y-10575000D02*
G01*
X9800000Y-10575000D01*
X9800000Y-10225000D01*
X10600000Y-10225000D01*
X10600000Y-10575000D01*
G37*
G36*
X5425000Y-10500000D02*
G01*
X3975000Y-10500000D01*
X3975000Y-10000000D01*
X5425000Y-10000000D01*
X5425000Y-10500000D01*
G37*
G36*
X58025000Y-10500000D02*
G01*
X56575000Y-10500000D01*
X56575000Y-10000000D01*
X58025000Y-10000000D01*
X58025000Y-10500000D01*
G37*
G36*
X53550000Y-10250000D02*
G01*
X52950000Y-10250000D01*
X52950000Y-9250000D01*
X53550000Y-9250000D01*
X53550000Y-10250000D01*
G37*
G36*
X55050000Y-10250000D02*
G01*
X54450000Y-10250000D01*
X54450000Y-9250000D01*
X55050000Y-9250000D01*
X55050000Y-10250000D01*
G37*
G36*
X38350000Y-10175000D02*
G01*
X37250000Y-10175000D01*
X37250000Y-9825000D01*
X38350000Y-9825000D01*
X38350000Y-10175000D01*
G37*
G36*
X49750000Y-10175000D02*
G01*
X48650000Y-10175000D01*
X48650000Y-9825000D01*
X49750000Y-9825000D01*
X49750000Y-10175000D01*
G37*
G36*
X15400000Y-10075000D02*
G01*
X14600000Y-10075000D01*
X14600000Y-9725000D01*
X15400000Y-9725000D01*
X15400000Y-10075000D01*
G37*
G36*
X10600000Y-10075000D02*
G01*
X9800000Y-10075000D01*
X9800000Y-9725000D01*
X10600000Y-9725000D01*
X10600000Y-10075000D01*
G37*
G36*
X3000000Y-10050000D02*
G01*
X1000000Y-10050000D01*
X1000000Y-8450000D01*
X3000000Y-8450000D01*
X3000000Y-10050000D01*
G37*
G36*
X61000000Y-10050000D02*
G01*
X59000000Y-10050000D01*
X59000000Y-8450000D01*
X61000000Y-8450000D01*
X61000000Y-10050000D01*
G37*
G36*
X35689301Y-9302761D02*
G01*
X35715074Y-9310579D01*
X35738827Y-9323275D01*
X35759642Y-9340358D01*
X35776725Y-9361173D01*
X35789421Y-9384926D01*
X35797239Y-9410699D01*
X35800000Y-9438731D01*
X35800000Y-9761269D01*
X35797239Y-9789301D01*
X35789421Y-9815074D01*
X35776725Y-9838827D01*
X35759642Y-9859642D01*
X35738827Y-9876725D01*
X35715074Y-9889421D01*
X35689301Y-9897239D01*
X35661269Y-9900000D01*
X34838731Y-9900000D01*
X34810699Y-9897239D01*
X34784926Y-9889421D01*
X34761173Y-9876725D01*
X34740358Y-9859642D01*
X34723275Y-9838827D01*
X34710579Y-9815074D01*
X34702761Y-9789301D01*
X34700000Y-9761269D01*
X34700000Y-9438731D01*
X34702761Y-9410699D01*
X34710579Y-9384926D01*
X34723275Y-9361173D01*
X34740358Y-9340358D01*
X34761173Y-9323275D01*
X34784926Y-9310579D01*
X34810699Y-9302761D01*
X34838731Y-9300000D01*
X35661269Y-9300000D01*
X35689301Y-9302761D01*
G37*
G36*
X5425000Y-9850000D02*
G01*
X3975000Y-9850000D01*
X3975000Y-9350000D01*
X5425000Y-9350000D01*
X5425000Y-9850000D01*
G37*
G36*
X58025000Y-9850000D02*
G01*
X56575000Y-9850000D01*
X56575000Y-9350000D01*
X58025000Y-9350000D01*
X58025000Y-9850000D01*
G37*
G36*
X38350000Y-9675000D02*
G01*
X37250000Y-9675000D01*
X37250000Y-9325000D01*
X38350000Y-9325000D01*
X38350000Y-9675000D01*
G37*
G36*
X49750000Y-9675000D02*
G01*
X48650000Y-9675000D01*
X48650000Y-9325000D01*
X49750000Y-9325000D01*
X49750000Y-9675000D01*
G37*
G36*
X17600000Y-9625000D02*
G01*
X17000000Y-9625000D01*
X17000000Y-9150000D01*
X17600000Y-9150000D01*
X17600000Y-9625000D01*
G37*
G36*
X19300000Y-9625000D02*
G01*
X18700000Y-9625000D01*
X18700000Y-9150000D01*
X19300000Y-9150000D01*
X19300000Y-9625000D01*
G37*
G36*
X10600000Y-9575000D02*
G01*
X9800000Y-9575000D01*
X9800000Y-9225000D01*
X10600000Y-9225000D01*
X10600000Y-9575000D01*
G37*
G36*
X15400000Y-9575000D02*
G01*
X14600000Y-9575000D01*
X14600000Y-9225000D01*
X15400000Y-9225000D01*
X15400000Y-9575000D01*
G37*
G36*
X5425000Y-9200000D02*
G01*
X3975000Y-9200000D01*
X3975000Y-8700000D01*
X5425000Y-8700000D01*
X5425000Y-9200000D01*
G37*
G36*
X58025000Y-9200000D02*
G01*
X56575000Y-9200000D01*
X56575000Y-8700000D01*
X58025000Y-8700000D01*
X58025000Y-9200000D01*
G37*
G36*
X7200000Y-9200000D02*
G01*
X6600000Y-9200000D01*
X6600000Y-8200000D01*
X7200000Y-8200000D01*
X7200000Y-9200000D01*
G37*
G36*
X8700000Y-9200000D02*
G01*
X8100000Y-9200000D01*
X8100000Y-8200000D01*
X8700000Y-8200000D01*
X8700000Y-9200000D01*
G37*
G36*
X49750000Y-9175000D02*
G01*
X48650000Y-9175000D01*
X48650000Y-8825000D01*
X49750000Y-8825000D01*
X49750000Y-9175000D01*
G37*
G36*
X38350000Y-9175000D02*
G01*
X37250000Y-9175000D01*
X37250000Y-8825000D01*
X38350000Y-8825000D01*
X38350000Y-9175000D01*
G37*
G36*
X21439301Y-8552761D02*
G01*
X21465074Y-8560579D01*
X21488827Y-8573275D01*
X21509642Y-8590358D01*
X21526725Y-8611173D01*
X21539421Y-8634926D01*
X21547239Y-8660699D01*
X21550000Y-8688731D01*
X21550000Y-9011269D01*
X21547239Y-9039301D01*
X21539421Y-9065074D01*
X21526725Y-9088827D01*
X21509642Y-9109642D01*
X21488827Y-9126725D01*
X21465074Y-9139421D01*
X21439301Y-9147239D01*
X21411269Y-9150000D01*
X20588731Y-9150000D01*
X20560699Y-9147239D01*
X20534926Y-9139421D01*
X20511173Y-9126725D01*
X20490358Y-9109642D01*
X20473275Y-9088827D01*
X20460579Y-9065074D01*
X20452761Y-9039301D01*
X20450000Y-9011269D01*
X20450000Y-8688731D01*
X20452761Y-8660699D01*
X20460579Y-8634926D01*
X20473275Y-8611173D01*
X20490358Y-8590358D01*
X20511173Y-8573275D01*
X20534926Y-8560579D01*
X20560699Y-8552761D01*
X20588731Y-8550000D01*
X21411269Y-8550000D01*
X21439301Y-8552761D01*
G37*
G36*
X15400000Y-9075000D02*
G01*
X14600000Y-9075000D01*
X14600000Y-8725000D01*
X15400000Y-8725000D01*
X15400000Y-9075000D01*
G37*
G36*
X10600000Y-9075000D02*
G01*
X9800000Y-9075000D01*
X9800000Y-8725000D01*
X10600000Y-8725000D01*
X10600000Y-9075000D01*
G37*
G36*
X19450000Y-9050000D02*
G01*
X18700000Y-9050000D01*
X18700000Y-8650000D01*
X19450000Y-8650000D01*
X19450000Y-9050000D01*
G37*
G36*
X17600000Y-9050000D02*
G01*
X16850000Y-9050000D01*
X16850000Y-8650000D01*
X17600000Y-8650000D01*
X17600000Y-9050000D01*
G37*
G36*
X35689301Y-8402761D02*
G01*
X35715074Y-8410579D01*
X35738827Y-8423275D01*
X35759642Y-8440358D01*
X35776725Y-8461173D01*
X35789421Y-8484926D01*
X35797239Y-8510699D01*
X35800000Y-8538731D01*
X35800000Y-8861269D01*
X35797239Y-8889301D01*
X35789421Y-8915074D01*
X35776725Y-8938827D01*
X35759642Y-8959642D01*
X35738827Y-8976725D01*
X35715074Y-8989421D01*
X35689301Y-8997239D01*
X35661269Y-9000000D01*
X34838731Y-9000000D01*
X34810699Y-8997239D01*
X34784926Y-8989421D01*
X34761173Y-8976725D01*
X34740358Y-8959642D01*
X34723275Y-8938827D01*
X34710579Y-8915074D01*
X34702761Y-8889301D01*
X34700000Y-8861269D01*
X34700000Y-8538731D01*
X34702761Y-8510699D01*
X34710579Y-8484926D01*
X34723275Y-8461173D01*
X34740358Y-8440358D01*
X34761173Y-8423275D01*
X34784926Y-8410579D01*
X34810699Y-8402761D01*
X34838731Y-8400000D01*
X35661269Y-8400000D01*
X35689301Y-8402761D01*
G37*
G36*
X29700000Y-8975000D02*
G01*
X28800000Y-8975000D01*
X28800000Y-8125000D01*
X29700000Y-8125000D01*
X29700000Y-8975000D01*
G37*
G36*
X31200000Y-8975000D02*
G01*
X30300000Y-8975000D01*
X30300000Y-8125000D01*
X31200000Y-8125000D01*
X31200000Y-8975000D01*
G37*
G36*
X55050000Y-8750000D02*
G01*
X54450000Y-8750000D01*
X54450000Y-7750000D01*
X55050000Y-7750000D01*
X55050000Y-8750000D01*
G37*
G36*
X53550000Y-8750000D02*
G01*
X52950000Y-8750000D01*
X52950000Y-7750000D01*
X53550000Y-7750000D01*
X53550000Y-8750000D01*
G37*
G36*
X27125000Y-8700000D02*
G01*
X26275000Y-8700000D01*
X26275000Y-7800000D01*
X27125000Y-7800000D01*
X27125000Y-8700000D01*
G37*
G36*
X25775000Y-8700000D02*
G01*
X24925000Y-8700000D01*
X24925000Y-7800000D01*
X25775000Y-7800000D01*
X25775000Y-8700000D01*
G37*
G36*
X38350000Y-8675000D02*
G01*
X37250000Y-8675000D01*
X37250000Y-8325000D01*
X38350000Y-8325000D01*
X38350000Y-8675000D01*
G37*
G36*
X49750000Y-8675000D02*
G01*
X48650000Y-8675000D01*
X48650000Y-8325000D01*
X49750000Y-8325000D01*
X49750000Y-8675000D01*
G37*
G36*
X12525000Y-8650000D02*
G01*
X12175000Y-8650000D01*
X12175000Y-7850000D01*
X12525000Y-7850000D01*
X12525000Y-8650000D01*
G37*
G36*
X11525000Y-8650000D02*
G01*
X11175000Y-8650000D01*
X11175000Y-7850000D01*
X11525000Y-7850000D01*
X11525000Y-8650000D01*
G37*
G36*
X11025000Y-8650000D02*
G01*
X10675000Y-8650000D01*
X10675000Y-7850000D01*
X11025000Y-7850000D01*
X11025000Y-8650000D01*
G37*
G36*
X13025000Y-8650000D02*
G01*
X12675000Y-8650000D01*
X12675000Y-7850000D01*
X13025000Y-7850000D01*
X13025000Y-8650000D01*
G37*
G36*
X13525000Y-8650000D02*
G01*
X13175000Y-8650000D01*
X13175000Y-7850000D01*
X13525000Y-7850000D01*
X13525000Y-8650000D01*
G37*
G36*
X14025000Y-8650000D02*
G01*
X13675000Y-8650000D01*
X13675000Y-7850000D01*
X14025000Y-7850000D01*
X14025000Y-8650000D01*
G37*
G36*
X14525000Y-8650000D02*
G01*
X14175000Y-8650000D01*
X14175000Y-7850000D01*
X14525000Y-7850000D01*
X14525000Y-8650000D01*
G37*
G36*
X12025000Y-8650000D02*
G01*
X11675000Y-8650000D01*
X11675000Y-7850000D01*
X12025000Y-7850000D01*
X12025000Y-8650000D01*
G37*
G36*
X17600000Y-8550000D02*
G01*
X17000000Y-8550000D01*
X17000000Y-8075000D01*
X17600000Y-8075000D01*
X17600000Y-8550000D01*
G37*
G36*
X19300000Y-8550000D02*
G01*
X18700000Y-8550000D01*
X18700000Y-8075000D01*
X19300000Y-8075000D01*
X19300000Y-8550000D01*
G37*
G36*
X4876150Y-6994855D02*
G01*
X4926060Y-7004783D01*
X5067100Y-7063203D01*
X5194035Y-7148019D01*
X5301981Y-7255965D01*
X5386797Y-7382900D01*
X5445217Y-7523940D01*
X5445217Y-7523941D01*
X5474922Y-7673275D01*
X5475000Y-7673671D01*
X5475000Y-7826329D01*
X5445217Y-7976060D01*
X5386797Y-8117100D01*
X5301981Y-8244035D01*
X5194035Y-8351981D01*
X5067100Y-8436797D01*
X4926060Y-8495217D01*
X4876150Y-8505145D01*
X4776331Y-8525000D01*
X4623669Y-8525000D01*
X4523850Y-8505145D01*
X4473940Y-8495217D01*
X4332900Y-8436797D01*
X4205965Y-8351981D01*
X4098019Y-8244035D01*
X4013203Y-8117100D01*
X3954783Y-7976060D01*
X3925000Y-7826329D01*
X3925000Y-7673671D01*
X3925079Y-7673275D01*
X3954783Y-7523941D01*
X3954783Y-7523940D01*
X4013203Y-7382900D01*
X4098019Y-7255965D01*
X4205965Y-7148019D01*
X4332900Y-7063203D01*
X4473940Y-7004783D01*
X4523850Y-6994855D01*
X4623669Y-6975000D01*
X4776331Y-6975000D01*
X4876150Y-6994855D01*
G37*
G36*
X57476150Y-6994855D02*
G01*
X57526060Y-7004783D01*
X57667100Y-7063203D01*
X57794035Y-7148019D01*
X57901981Y-7255965D01*
X57986797Y-7382900D01*
X58045217Y-7523940D01*
X58045217Y-7523941D01*
X58074922Y-7673275D01*
X58075000Y-7673671D01*
X58075000Y-7826329D01*
X58045217Y-7976060D01*
X57986797Y-8117100D01*
X57901981Y-8244035D01*
X57794035Y-8351981D01*
X57667100Y-8436797D01*
X57526060Y-8495217D01*
X57476150Y-8505145D01*
X57376331Y-8525000D01*
X57223669Y-8525000D01*
X57123850Y-8505145D01*
X57073940Y-8495217D01*
X56932900Y-8436797D01*
X56805965Y-8351981D01*
X56698019Y-8244035D01*
X56613203Y-8117100D01*
X56554783Y-7976060D01*
X56525000Y-7826329D01*
X56525000Y-7673671D01*
X56525079Y-7673275D01*
X56554783Y-7523941D01*
X56554783Y-7523940D01*
X56613203Y-7382900D01*
X56698019Y-7255965D01*
X56805965Y-7148019D01*
X56932900Y-7063203D01*
X57073940Y-7004783D01*
X57123850Y-6994855D01*
X57223669Y-6975000D01*
X57376331Y-6975000D01*
X57476150Y-6994855D01*
G37*
G36*
X21439301Y-7652761D02*
G01*
X21465074Y-7660579D01*
X21488827Y-7673275D01*
X21509642Y-7690358D01*
X21526725Y-7711173D01*
X21539421Y-7734926D01*
X21547239Y-7760699D01*
X21550000Y-7788731D01*
X21550000Y-8111269D01*
X21547239Y-8139301D01*
X21539421Y-8165074D01*
X21526725Y-8188827D01*
X21509642Y-8209642D01*
X21488827Y-8226725D01*
X21465074Y-8239421D01*
X21439301Y-8247239D01*
X21411269Y-8250000D01*
X20588731Y-8250000D01*
X20560699Y-8247239D01*
X20534926Y-8239421D01*
X20511173Y-8226725D01*
X20490358Y-8209642D01*
X20473275Y-8188827D01*
X20460579Y-8165074D01*
X20452761Y-8139301D01*
X20450000Y-8111269D01*
X20450000Y-7788731D01*
X20452761Y-7760699D01*
X20460579Y-7734926D01*
X20473275Y-7711173D01*
X20490358Y-7690358D01*
X20511173Y-7673275D01*
X20534926Y-7660579D01*
X20560699Y-7652761D01*
X20588731Y-7650000D01*
X21411269Y-7650000D01*
X21439301Y-7652761D01*
G37*
G36*
X36300000Y-8225000D02*
G01*
X35400000Y-8225000D01*
X35400000Y-7375000D01*
X36300000Y-7375000D01*
X36300000Y-8225000D01*
G37*
G36*
X34800000Y-8225000D02*
G01*
X33900000Y-8225000D01*
X33900000Y-7375000D01*
X34800000Y-7375000D01*
X34800000Y-8225000D01*
G37*
G36*
X49750000Y-8175000D02*
G01*
X48650000Y-8175000D01*
X48650000Y-7825000D01*
X49750000Y-7825000D01*
X49750000Y-8175000D01*
G37*
G36*
X38350000Y-8175000D02*
G01*
X37250000Y-8175000D01*
X37250000Y-7825000D01*
X38350000Y-7825000D01*
X38350000Y-8175000D01*
G37*
G36*
X2477422Y-6109405D02*
G01*
X2599948Y-6146573D01*
X2599951Y-6146575D01*
X2599952Y-6146575D01*
X2712869Y-6206930D01*
X2811844Y-6288156D01*
X2893070Y-6387131D01*
X2907990Y-6415045D01*
X2953427Y-6500052D01*
X2990595Y-6622578D01*
X2996000Y-6677456D01*
X2996955Y-6682258D01*
X2998831Y-6686785D01*
X3000000Y-6688534D01*
X3000000Y-6716841D01*
X3000120Y-6719283D01*
X3003145Y-6750000D01*
X3000683Y-6775000D01*
X3000120Y-6780709D01*
X3000000Y-6783159D01*
X3000000Y-8000000D01*
X1000000Y-8000000D01*
X1000000Y-6783159D01*
X999880Y-6780709D01*
X999318Y-6775000D01*
X996855Y-6750000D01*
X999880Y-6719283D01*
X1000000Y-6716841D01*
X1000000Y-6688718D01*
X1002218Y-6684568D01*
X1004000Y-6677454D01*
X1009405Y-6622578D01*
X1046573Y-6500052D01*
X1092010Y-6415045D01*
X1106930Y-6387131D01*
X1188156Y-6288156D01*
X1287131Y-6206930D01*
X1400048Y-6146575D01*
X1400049Y-6146575D01*
X1400052Y-6146573D01*
X1522578Y-6109405D01*
X1618068Y-6100000D01*
X2381932Y-6100000D01*
X2477422Y-6109405D01*
G37*
G36*
X60477422Y-6109405D02*
G01*
X60599948Y-6146573D01*
X60599951Y-6146575D01*
X60599952Y-6146575D01*
X60712869Y-6206930D01*
X60811844Y-6288156D01*
X60893070Y-6387131D01*
X60907990Y-6415045D01*
X60953427Y-6500052D01*
X60990595Y-6622578D01*
X60996000Y-6677456D01*
X60996955Y-6682258D01*
X60998831Y-6686785D01*
X61000000Y-6688534D01*
X61000000Y-6716841D01*
X61000120Y-6719283D01*
X61003145Y-6750000D01*
X61000683Y-6775000D01*
X61000120Y-6780709D01*
X61000000Y-6783159D01*
X61000000Y-8000000D01*
X59000000Y-8000000D01*
X59000000Y-6783159D01*
X58999880Y-6780709D01*
X58999318Y-6775000D01*
X58996855Y-6750000D01*
X58999880Y-6719283D01*
X59000000Y-6716841D01*
X59000000Y-6688718D01*
X59002218Y-6684568D01*
X59004000Y-6677454D01*
X59009405Y-6622578D01*
X59046573Y-6500052D01*
X59092010Y-6415045D01*
X59106930Y-6387131D01*
X59188156Y-6288156D01*
X59287131Y-6206930D01*
X59400048Y-6146575D01*
X59400049Y-6146575D01*
X59400052Y-6146573D01*
X59522578Y-6109405D01*
X59618068Y-6100000D01*
X60381932Y-6100000D01*
X60477422Y-6109405D01*
G37*
G36*
X38350000Y-7675000D02*
G01*
X37250000Y-7675000D01*
X37250000Y-7325000D01*
X38350000Y-7325000D01*
X38350000Y-7675000D01*
G37*
G36*
X49750000Y-7675000D02*
G01*
X48650000Y-7675000D01*
X48650000Y-7325000D01*
X49750000Y-7325000D01*
X49750000Y-7675000D01*
G37*
G36*
X21700000Y-7400000D02*
G01*
X20700000Y-7400000D01*
X20700000Y-6500000D01*
X21700000Y-6500000D01*
X21700000Y-7400000D01*
G37*
G36*
X32130000Y-7325000D02*
G01*
X30970000Y-7325000D01*
X30970000Y-6575000D01*
X32130000Y-6575000D01*
X32130000Y-7325000D01*
G37*
G36*
X29930000Y-7325000D02*
G01*
X28770000Y-7325000D01*
X28770000Y-6575000D01*
X29930000Y-6575000D01*
X29930000Y-7325000D01*
G37*
G36*
X11645000Y-7250000D02*
G01*
X10745000Y-7250000D01*
X10745000Y-6350000D01*
X11645000Y-6350000D01*
X11645000Y-7250000D01*
G37*
G36*
X7475000Y-7200000D02*
G01*
X6625000Y-7200000D01*
X6625000Y-6300000D01*
X7475000Y-6300000D01*
X7475000Y-7200000D01*
G37*
G36*
X8825000Y-7200000D02*
G01*
X7975000Y-7200000D01*
X7975000Y-6300000D01*
X8825000Y-6300000D01*
X8825000Y-7200000D01*
G37*
G36*
X27125000Y-7200000D02*
G01*
X26275000Y-7200000D01*
X26275000Y-6300000D01*
X27125000Y-6300000D01*
X27125000Y-7200000D01*
G37*
G36*
X25775000Y-7200000D02*
G01*
X24925000Y-7200000D01*
X24925000Y-6300000D01*
X25775000Y-6300000D01*
X25775000Y-7200000D01*
G37*
G36*
X33425000Y-7200000D02*
G01*
X32575000Y-7200000D01*
X32575000Y-6300000D01*
X33425000Y-6300000D01*
X33425000Y-7200000D01*
G37*
G36*
X49750000Y-7175000D02*
G01*
X48650000Y-7175000D01*
X48650000Y-6825000D01*
X49750000Y-6825000D01*
X49750000Y-7175000D01*
G37*
G36*
X38350000Y-7175000D02*
G01*
X37250000Y-7175000D01*
X37250000Y-6825000D01*
X38350000Y-6825000D01*
X38350000Y-7175000D01*
G37*
G36*
X51575000Y-7050000D02*
G01*
X50725000Y-7050000D01*
X50725000Y-6150000D01*
X51575000Y-6150000D01*
X51575000Y-7050000D01*
G37*
G36*
X10250000Y-7050000D02*
G01*
X9250000Y-7050000D01*
X9250000Y-6450000D01*
X10250000Y-6450000D01*
X10250000Y-7050000D01*
G37*
G36*
X13100000Y-7050000D02*
G01*
X12100000Y-7050000D01*
X12100000Y-6450000D01*
X13100000Y-6450000D01*
X13100000Y-7050000D01*
G37*
G36*
X16775000Y-6900000D02*
G01*
X16025000Y-6900000D01*
X16025000Y-6400000D01*
X16775000Y-6400000D01*
X16775000Y-6900000D01*
G37*
G36*
X14875000Y-6900000D02*
G01*
X14125000Y-6900000D01*
X14125000Y-6400000D01*
X14875000Y-6400000D01*
X14875000Y-6900000D01*
G37*
G36*
X34800000Y-6875000D02*
G01*
X33900000Y-6875000D01*
X33900000Y-6025000D01*
X34800000Y-6025000D01*
X34800000Y-6875000D01*
G37*
G36*
X36300000Y-6875000D02*
G01*
X35400000Y-6875000D01*
X35400000Y-6025000D01*
X36300000Y-6025000D01*
X36300000Y-6875000D01*
G37*
G36*
X17600000Y-6775000D02*
G01*
X17000000Y-6775000D01*
X17000000Y-6300000D01*
X17600000Y-6300000D01*
X17600000Y-6775000D01*
G37*
G36*
X19300000Y-6775000D02*
G01*
X18700000Y-6775000D01*
X18700000Y-6300000D01*
X19300000Y-6300000D01*
X19300000Y-6775000D01*
G37*
G36*
X38350000Y-6675000D02*
G01*
X37250000Y-6675000D01*
X37250000Y-6325000D01*
X38350000Y-6325000D01*
X38350000Y-6675000D01*
G37*
G36*
X49750000Y-6675000D02*
G01*
X48650000Y-6675000D01*
X48650000Y-6325000D01*
X49750000Y-6325000D01*
X49750000Y-6675000D01*
G37*
G36*
X23700000Y-6450000D02*
G01*
X22700000Y-6450000D01*
X22700000Y-5550000D01*
X23700000Y-5550000D01*
X23700000Y-6450000D01*
G37*
G36*
X32130000Y-6375000D02*
G01*
X30970000Y-6375000D01*
X30970000Y-5625000D01*
X32130000Y-5625000D01*
X32130000Y-6375000D01*
G37*
G36*
X16775000Y-6250000D02*
G01*
X16025000Y-6250000D01*
X16025000Y-5750000D01*
X16775000Y-5750000D01*
X16775000Y-6250000D01*
G37*
G36*
X19450000Y-6200000D02*
G01*
X18700000Y-6200000D01*
X18700000Y-5800000D01*
X19450000Y-5800000D01*
X19450000Y-6200000D01*
G37*
G36*
X17600000Y-6200000D02*
G01*
X16850000Y-6200000D01*
X16850000Y-5800000D01*
X17600000Y-5800000D01*
X17600000Y-6200000D01*
G37*
G36*
X17600000Y-5700000D02*
G01*
X17000000Y-5700000D01*
X17000000Y-5225000D01*
X17600000Y-5225000D01*
X17600000Y-5700000D01*
G37*
G36*
X7475000Y-5700000D02*
G01*
X6625000Y-5700000D01*
X6625000Y-4800000D01*
X7475000Y-4800000D01*
X7475000Y-5700000D01*
G37*
G36*
X8825000Y-5700000D02*
G01*
X7975000Y-5700000D01*
X7975000Y-4800000D01*
X8825000Y-4800000D01*
X8825000Y-5700000D01*
G37*
G36*
X19300000Y-5700000D02*
G01*
X18700000Y-5700000D01*
X18700000Y-5225000D01*
X19300000Y-5225000D01*
X19300000Y-5700000D01*
G37*
G36*
X33425000Y-5700000D02*
G01*
X32575000Y-5700000D01*
X32575000Y-4800000D01*
X33425000Y-4800000D01*
X33425000Y-5700000D01*
G37*
G36*
X11645000Y-5650000D02*
G01*
X10745000Y-5650000D01*
X10745000Y-4750000D01*
X11645000Y-4750000D01*
X11645000Y-5650000D01*
G37*
G36*
X3900000Y-5600000D02*
G01*
X3300000Y-5600000D01*
X3300000Y-4600000D01*
X3900000Y-4600000D01*
X3900000Y-5600000D01*
G37*
G36*
X14875000Y-5600000D02*
G01*
X14125000Y-5600000D01*
X14125000Y-5100000D01*
X14875000Y-5100000D01*
X14875000Y-5600000D01*
G37*
G36*
X54150000Y-5600000D02*
G01*
X53550000Y-5600000D01*
X53550000Y-4600000D01*
X54150000Y-4600000D01*
X54150000Y-5600000D01*
G37*
G36*
X2400000Y-5600000D02*
G01*
X1800000Y-5600000D01*
X1800000Y-4600000D01*
X2400000Y-4600000D01*
X2400000Y-5600000D01*
G37*
G36*
X16775000Y-5600000D02*
G01*
X16025000Y-5600000D01*
X16025000Y-5100000D01*
X16775000Y-5100000D01*
X16775000Y-5600000D01*
G37*
G36*
X52650000Y-5600000D02*
G01*
X52050000Y-5600000D01*
X52050000Y-4600000D01*
X52650000Y-4600000D01*
X52650000Y-5600000D01*
G37*
G36*
X13100000Y-5550000D02*
G01*
X12100000Y-5550000D01*
X12100000Y-4950000D01*
X13100000Y-4950000D01*
X13100000Y-5550000D01*
G37*
G36*
X51575000Y-5550000D02*
G01*
X50725000Y-5550000D01*
X50725000Y-4650000D01*
X51575000Y-4650000D01*
X51575000Y-5550000D01*
G37*
G36*
X10250000Y-5550000D02*
G01*
X9250000Y-5550000D01*
X9250000Y-4950000D01*
X10250000Y-4950000D01*
X10250000Y-5550000D01*
G37*
G36*
X56900000Y-5550000D02*
G01*
X56000000Y-5550000D01*
X56000000Y-4650000D01*
X56900000Y-4650000D01*
X56900000Y-5550000D01*
G37*
G36*
X55300000Y-5550000D02*
G01*
X54400000Y-5550000D01*
X54400000Y-4650000D01*
X55300000Y-4650000D01*
X55300000Y-5550000D01*
G37*
G36*
X36300000Y-5525000D02*
G01*
X35400000Y-5525000D01*
X35400000Y-4675000D01*
X36300000Y-4675000D01*
X36300000Y-5525000D01*
G37*
G36*
X34800000Y-5525000D02*
G01*
X33900000Y-5525000D01*
X33900000Y-4675000D01*
X34800000Y-4675000D01*
X34800000Y-5525000D01*
G37*
G36*
X21700000Y-5500000D02*
G01*
X20700000Y-5500000D01*
X20700000Y-4600000D01*
X21700000Y-4600000D01*
X21700000Y-5500000D01*
G37*
G36*
X29930000Y-5425000D02*
G01*
X28770000Y-5425000D01*
X28770000Y-4675000D01*
X29930000Y-4675000D01*
X29930000Y-5425000D01*
G37*
G36*
X32130000Y-5425000D02*
G01*
X30970000Y-5425000D01*
X30970000Y-4675000D01*
X32130000Y-4675000D01*
X32130000Y-5425000D01*
G37*
G36*
X40925000Y-5100000D02*
G01*
X40575000Y-5100000D01*
X40575000Y-4000000D01*
X40925000Y-4000000D01*
X40925000Y-5100000D01*
G37*
G36*
X46425000Y-5100000D02*
G01*
X46075000Y-5100000D01*
X46075000Y-4000000D01*
X46425000Y-4000000D01*
X46425000Y-5100000D01*
G37*
G36*
X45425000Y-5100000D02*
G01*
X45075000Y-5100000D01*
X45075000Y-4000000D01*
X45425000Y-4000000D01*
X45425000Y-5100000D01*
G37*
G36*
X44425000Y-5100000D02*
G01*
X44075000Y-5100000D01*
X44075000Y-4000000D01*
X44425000Y-4000000D01*
X44425000Y-5100000D01*
G37*
G36*
X46925000Y-5100000D02*
G01*
X46575000Y-5100000D01*
X46575000Y-4000000D01*
X46925000Y-4000000D01*
X46925000Y-5100000D01*
G37*
G36*
X47425000Y-5100000D02*
G01*
X47075000Y-5100000D01*
X47075000Y-4000000D01*
X47425000Y-4000000D01*
X47425000Y-5100000D01*
G37*
G36*
X45925000Y-5100000D02*
G01*
X45575000Y-5100000D01*
X45575000Y-4000000D01*
X45925000Y-4000000D01*
X45925000Y-5100000D01*
G37*
G36*
X42425000Y-5100000D02*
G01*
X42075000Y-5100000D01*
X42075000Y-4000000D01*
X42425000Y-4000000D01*
X42425000Y-5100000D01*
G37*
G36*
X41425000Y-5100000D02*
G01*
X41075000Y-5100000D01*
X41075000Y-4000000D01*
X41425000Y-4000000D01*
X41425000Y-5100000D01*
G37*
G36*
X44925000Y-5100000D02*
G01*
X44575000Y-5100000D01*
X44575000Y-4000000D01*
X44925000Y-4000000D01*
X44925000Y-5100000D01*
G37*
G36*
X43925000Y-5100000D02*
G01*
X43575000Y-5100000D01*
X43575000Y-4000000D01*
X43925000Y-4000000D01*
X43925000Y-5100000D01*
G37*
G36*
X43425000Y-5100000D02*
G01*
X43075000Y-5100000D01*
X43075000Y-4000000D01*
X43425000Y-4000000D01*
X43425000Y-5100000D01*
G37*
G36*
X42925000Y-5100000D02*
G01*
X42575000Y-5100000D01*
X42575000Y-4000000D01*
X42925000Y-4000000D01*
X42925000Y-5100000D01*
G37*
G36*
X39925000Y-5100000D02*
G01*
X39575000Y-5100000D01*
X39575000Y-4000000D01*
X39925000Y-4000000D01*
X39925000Y-5100000D01*
G37*
G36*
X40425000Y-5100000D02*
G01*
X40075000Y-5100000D01*
X40075000Y-4000000D01*
X40425000Y-4000000D01*
X40425000Y-5100000D01*
G37*
G36*
X41925000Y-5100000D02*
G01*
X41575000Y-5100000D01*
X41575000Y-4000000D01*
X41925000Y-4000000D01*
X41925000Y-5100000D01*
G37*
G36*
X53487520Y-494586D02*
G01*
X53651310Y-562430D01*
X53798717Y-660924D01*
X53924076Y-786283D01*
X54022570Y-933690D01*
X54090414Y-1097480D01*
X54125000Y-1271358D01*
X54125000Y-1448642D01*
X54090414Y-1622520D01*
X54022570Y-1786310D01*
X53924076Y-1933717D01*
X53798717Y-2059076D01*
X53651310Y-2157570D01*
X53487520Y-2225414D01*
X53313642Y-2260000D01*
X53136358Y-2260000D01*
X52962480Y-2225414D01*
X52798690Y-2157570D01*
X52651283Y-2059076D01*
X52525924Y-1933717D01*
X52427430Y-1786310D01*
X52359586Y-1622520D01*
X52325000Y-1448642D01*
X52325000Y-1271358D01*
X52359586Y-1097480D01*
X52427430Y-933690D01*
X52525924Y-786283D01*
X52651283Y-660924D01*
X52798690Y-562430D01*
X52962480Y-494586D01*
X53136358Y-460000D01*
X53313642Y-460000D01*
X53487520Y-494586D01*
G37*
G36*
X12847520Y-494586D02*
G01*
X13011310Y-562430D01*
X13158717Y-660924D01*
X13284076Y-786283D01*
X13382570Y-933690D01*
X13450414Y-1097480D01*
X13485000Y-1271358D01*
X13485000Y-1448642D01*
X13450414Y-1622520D01*
X13382570Y-1786310D01*
X13284076Y-1933717D01*
X13158717Y-2059076D01*
X13011310Y-2157570D01*
X12847520Y-2225414D01*
X12673642Y-2260000D01*
X12496358Y-2260000D01*
X12322480Y-2225414D01*
X12158690Y-2157570D01*
X12011283Y-2059076D01*
X11885924Y-1933717D01*
X11787430Y-1786310D01*
X11719586Y-1622520D01*
X11685000Y-1448642D01*
X11685000Y-1271358D01*
X11719586Y-1097480D01*
X11787430Y-933690D01*
X11885924Y-786283D01*
X12011283Y-660924D01*
X12158690Y-562430D01*
X12322480Y-494586D01*
X12496358Y-460000D01*
X12673642Y-460000D01*
X12847520Y-494586D01*
G37*
G36*
X35707520Y-494586D02*
G01*
X35871310Y-562430D01*
X36018717Y-660924D01*
X36144076Y-786283D01*
X36242570Y-933690D01*
X36310414Y-1097480D01*
X36345000Y-1271358D01*
X36345000Y-1448642D01*
X36310414Y-1622520D01*
X36242570Y-1786310D01*
X36144076Y-1933717D01*
X36018717Y-2059076D01*
X35871310Y-2157570D01*
X35707520Y-2225414D01*
X35533642Y-2260000D01*
X35356358Y-2260000D01*
X35182480Y-2225414D01*
X35018690Y-2157570D01*
X34871283Y-2059076D01*
X34745924Y-1933717D01*
X34647430Y-1786310D01*
X34579586Y-1622520D01*
X34545000Y-1448642D01*
X34545000Y-1271358D01*
X34579586Y-1097480D01*
X34647430Y-933690D01*
X34745924Y-786283D01*
X34871283Y-660924D01*
X35018690Y-562430D01*
X35182480Y-494586D01*
X35356358Y-460000D01*
X35533642Y-460000D01*
X35707520Y-494586D01*
G37*
G36*
X38247520Y-494586D02*
G01*
X38411310Y-562430D01*
X38558717Y-660924D01*
X38684076Y-786283D01*
X38782570Y-933690D01*
X38850414Y-1097480D01*
X38885000Y-1271358D01*
X38885000Y-1448642D01*
X38850414Y-1622520D01*
X38782570Y-1786310D01*
X38684076Y-1933717D01*
X38558717Y-2059076D01*
X38411310Y-2157570D01*
X38247520Y-2225414D01*
X38073642Y-2260000D01*
X37896358Y-2260000D01*
X37722480Y-2225414D01*
X37558690Y-2157570D01*
X37411283Y-2059076D01*
X37285924Y-1933717D01*
X37187430Y-1786310D01*
X37119586Y-1622520D01*
X37085000Y-1448642D01*
X37085000Y-1271358D01*
X37119586Y-1097480D01*
X37187430Y-933690D01*
X37285924Y-786283D01*
X37411283Y-660924D01*
X37558690Y-562430D01*
X37722480Y-494586D01*
X37896358Y-460000D01*
X38073642Y-460000D01*
X38247520Y-494586D01*
G37*
G36*
X40787520Y-494586D02*
G01*
X40951310Y-562430D01*
X41098717Y-660924D01*
X41224076Y-786283D01*
X41322570Y-933690D01*
X41390414Y-1097480D01*
X41425000Y-1271358D01*
X41425000Y-1448642D01*
X41390414Y-1622520D01*
X41322570Y-1786310D01*
X41224076Y-1933717D01*
X41098717Y-2059076D01*
X40951310Y-2157570D01*
X40787520Y-2225414D01*
X40613642Y-2260000D01*
X40436358Y-2260000D01*
X40262480Y-2225414D01*
X40098690Y-2157570D01*
X39951283Y-2059076D01*
X39825924Y-1933717D01*
X39727430Y-1786310D01*
X39659586Y-1622520D01*
X39625000Y-1448642D01*
X39625000Y-1271358D01*
X39659586Y-1097480D01*
X39727430Y-933690D01*
X39825924Y-786283D01*
X39951283Y-660924D01*
X40098690Y-562430D01*
X40262480Y-494586D01*
X40436358Y-460000D01*
X40613642Y-460000D01*
X40787520Y-494586D01*
G37*
G36*
X43327520Y-494586D02*
G01*
X43491310Y-562430D01*
X43638717Y-660924D01*
X43764076Y-786283D01*
X43862570Y-933690D01*
X43930414Y-1097480D01*
X43965000Y-1271358D01*
X43965000Y-1448642D01*
X43930414Y-1622520D01*
X43862570Y-1786310D01*
X43764076Y-1933717D01*
X43638717Y-2059076D01*
X43491310Y-2157570D01*
X43327520Y-2225414D01*
X43153642Y-2260000D01*
X42976358Y-2260000D01*
X42802480Y-2225414D01*
X42638690Y-2157570D01*
X42491283Y-2059076D01*
X42365924Y-1933717D01*
X42267430Y-1786310D01*
X42199586Y-1622520D01*
X42165000Y-1448642D01*
X42165000Y-1271358D01*
X42199586Y-1097480D01*
X42267430Y-933690D01*
X42365924Y-786283D01*
X42491283Y-660924D01*
X42638690Y-562430D01*
X42802480Y-494586D01*
X42976358Y-460000D01*
X43153642Y-460000D01*
X43327520Y-494586D01*
G37*
G36*
X45867520Y-494586D02*
G01*
X46031310Y-562430D01*
X46178717Y-660924D01*
X46304076Y-786283D01*
X46402570Y-933690D01*
X46470414Y-1097480D01*
X46505000Y-1271358D01*
X46505000Y-1448642D01*
X46470414Y-1622520D01*
X46402570Y-1786310D01*
X46304076Y-1933717D01*
X46178717Y-2059076D01*
X46031310Y-2157570D01*
X45867520Y-2225414D01*
X45693642Y-2260000D01*
X45516358Y-2260000D01*
X45342480Y-2225414D01*
X45178690Y-2157570D01*
X45031283Y-2059076D01*
X44905924Y-1933717D01*
X44807430Y-1786310D01*
X44739586Y-1622520D01*
X44705000Y-1448642D01*
X44705000Y-1271358D01*
X44739586Y-1097480D01*
X44807430Y-933690D01*
X44905924Y-786283D01*
X45031283Y-660924D01*
X45178690Y-562430D01*
X45342480Y-494586D01*
X45516358Y-460000D01*
X45693642Y-460000D01*
X45867520Y-494586D01*
G37*
G36*
X48407520Y-494586D02*
G01*
X48571310Y-562430D01*
X48718717Y-660924D01*
X48844076Y-786283D01*
X48942570Y-933690D01*
X49010414Y-1097480D01*
X49045000Y-1271358D01*
X49045000Y-1448642D01*
X49010414Y-1622520D01*
X48942570Y-1786310D01*
X48844076Y-1933717D01*
X48718717Y-2059076D01*
X48571310Y-2157570D01*
X48407520Y-2225414D01*
X48233642Y-2260000D01*
X48056358Y-2260000D01*
X47882480Y-2225414D01*
X47718690Y-2157570D01*
X47571283Y-2059076D01*
X47445924Y-1933717D01*
X47347430Y-1786310D01*
X47279586Y-1622520D01*
X47245000Y-1448642D01*
X47245000Y-1271358D01*
X47279586Y-1097480D01*
X47347430Y-933690D01*
X47445924Y-786283D01*
X47571283Y-660924D01*
X47718690Y-562430D01*
X47882480Y-494586D01*
X48056358Y-460000D01*
X48233642Y-460000D01*
X48407520Y-494586D01*
G37*
G36*
X50947520Y-494586D02*
G01*
X51111310Y-562430D01*
X51258717Y-660924D01*
X51384076Y-786283D01*
X51482570Y-933690D01*
X51550414Y-1097480D01*
X51585000Y-1271358D01*
X51585000Y-1448642D01*
X51550414Y-1622520D01*
X51482570Y-1786310D01*
X51384076Y-1933717D01*
X51258717Y-2059076D01*
X51111310Y-2157570D01*
X50947520Y-2225414D01*
X50773642Y-2260000D01*
X50596358Y-2260000D01*
X50422480Y-2225414D01*
X50258690Y-2157570D01*
X50111283Y-2059076D01*
X49985924Y-1933717D01*
X49887430Y-1786310D01*
X49819586Y-1622520D01*
X49785000Y-1448642D01*
X49785000Y-1271358D01*
X49819586Y-1097480D01*
X49887430Y-933690D01*
X49985924Y-786283D01*
X50111283Y-660924D01*
X50258690Y-562430D01*
X50422480Y-494586D01*
X50596358Y-460000D01*
X50773642Y-460000D01*
X50947520Y-494586D01*
G37*
G36*
X61107520Y-494586D02*
G01*
X61271310Y-562430D01*
X61418717Y-660924D01*
X61544076Y-786283D01*
X61642570Y-933690D01*
X61710414Y-1097480D01*
X61745000Y-1271358D01*
X61745000Y-1448642D01*
X61710414Y-1622520D01*
X61642570Y-1786310D01*
X61544076Y-1933717D01*
X61418717Y-2059076D01*
X61271310Y-2157570D01*
X61107520Y-2225414D01*
X60933642Y-2260000D01*
X60756358Y-2260000D01*
X60582480Y-2225414D01*
X60418690Y-2157570D01*
X60271283Y-2059076D01*
X60145924Y-1933717D01*
X60047430Y-1786310D01*
X59979586Y-1622520D01*
X59945000Y-1448642D01*
X59945000Y-1271358D01*
X59979586Y-1097480D01*
X60047430Y-933690D01*
X60145924Y-786283D01*
X60271283Y-660924D01*
X60418690Y-562430D01*
X60582480Y-494586D01*
X60756358Y-460000D01*
X60933642Y-460000D01*
X61107520Y-494586D01*
G37*
G36*
X58567520Y-494586D02*
G01*
X58731310Y-562430D01*
X58878717Y-660924D01*
X59004076Y-786283D01*
X59102570Y-933690D01*
X59170414Y-1097480D01*
X59205000Y-1271358D01*
X59205000Y-1448642D01*
X59170414Y-1622520D01*
X59102570Y-1786310D01*
X59004076Y-1933717D01*
X58878717Y-2059076D01*
X58731310Y-2157570D01*
X58567520Y-2225414D01*
X58393642Y-2260000D01*
X58216358Y-2260000D01*
X58042480Y-2225414D01*
X57878690Y-2157570D01*
X57731283Y-2059076D01*
X57605924Y-1933717D01*
X57507430Y-1786310D01*
X57439586Y-1622520D01*
X57405000Y-1448642D01*
X57405000Y-1271358D01*
X57439586Y-1097480D01*
X57507430Y-933690D01*
X57605924Y-786283D01*
X57731283Y-660924D01*
X57878690Y-562430D01*
X58042480Y-494586D01*
X58216358Y-460000D01*
X58393642Y-460000D01*
X58567520Y-494586D01*
G37*
G36*
X30627520Y-494586D02*
G01*
X30791310Y-562430D01*
X30938717Y-660924D01*
X31064076Y-786283D01*
X31162570Y-933690D01*
X31230414Y-1097480D01*
X31265000Y-1271358D01*
X31265000Y-1448642D01*
X31230414Y-1622520D01*
X31162570Y-1786310D01*
X31064076Y-1933717D01*
X30938717Y-2059076D01*
X30791310Y-2157570D01*
X30627520Y-2225414D01*
X30453642Y-2260000D01*
X30276358Y-2260000D01*
X30102480Y-2225414D01*
X29938690Y-2157570D01*
X29791283Y-2059076D01*
X29665924Y-1933717D01*
X29567430Y-1786310D01*
X29499586Y-1622520D01*
X29465000Y-1448642D01*
X29465000Y-1271358D01*
X29499586Y-1097480D01*
X29567430Y-933690D01*
X29665924Y-786283D01*
X29791283Y-660924D01*
X29938690Y-562430D01*
X30102480Y-494586D01*
X30276358Y-460000D01*
X30453642Y-460000D01*
X30627520Y-494586D01*
G37*
G36*
X28087520Y-494586D02*
G01*
X28251310Y-562430D01*
X28398717Y-660924D01*
X28524076Y-786283D01*
X28622570Y-933690D01*
X28690414Y-1097480D01*
X28725000Y-1271358D01*
X28725000Y-1448642D01*
X28690414Y-1622520D01*
X28622570Y-1786310D01*
X28524076Y-1933717D01*
X28398717Y-2059076D01*
X28251310Y-2157570D01*
X28087520Y-2225414D01*
X27913642Y-2260000D01*
X27736358Y-2260000D01*
X27562480Y-2225414D01*
X27398690Y-2157570D01*
X27251283Y-2059076D01*
X27125924Y-1933717D01*
X27027430Y-1786310D01*
X26959586Y-1622520D01*
X26925000Y-1448642D01*
X26925000Y-1271358D01*
X26959586Y-1097480D01*
X27027430Y-933690D01*
X27125924Y-786283D01*
X27251283Y-660924D01*
X27398690Y-562430D01*
X27562480Y-494586D01*
X27736358Y-460000D01*
X27913642Y-460000D01*
X28087520Y-494586D01*
G37*
G36*
X10307520Y-494586D02*
G01*
X10471310Y-562430D01*
X10618717Y-660924D01*
X10744076Y-786283D01*
X10842570Y-933690D01*
X10910414Y-1097480D01*
X10945000Y-1271358D01*
X10945000Y-1448642D01*
X10910414Y-1622520D01*
X10842570Y-1786310D01*
X10744076Y-1933717D01*
X10618717Y-2059076D01*
X10471310Y-2157570D01*
X10307520Y-2225414D01*
X10133642Y-2260000D01*
X9956358Y-2260000D01*
X9782480Y-2225414D01*
X9618690Y-2157570D01*
X9471283Y-2059076D01*
X9345924Y-1933717D01*
X9247430Y-1786310D01*
X9179586Y-1622520D01*
X9145000Y-1448642D01*
X9145000Y-1271358D01*
X9179586Y-1097480D01*
X9247430Y-933690D01*
X9345924Y-786283D01*
X9471283Y-660924D01*
X9618690Y-562430D01*
X9782480Y-494586D01*
X9956358Y-460000D01*
X10133642Y-460000D01*
X10307520Y-494586D01*
G37*
G36*
X15387520Y-494586D02*
G01*
X15551310Y-562430D01*
X15698717Y-660924D01*
X15824076Y-786283D01*
X15922570Y-933690D01*
X15990414Y-1097480D01*
X16025000Y-1271358D01*
X16025000Y-1448642D01*
X15990414Y-1622520D01*
X15922570Y-1786310D01*
X15824076Y-1933717D01*
X15698717Y-2059076D01*
X15551310Y-2157570D01*
X15387520Y-2225414D01*
X15213642Y-2260000D01*
X15036358Y-2260000D01*
X14862480Y-2225414D01*
X14698690Y-2157570D01*
X14551283Y-2059076D01*
X14425924Y-1933717D01*
X14327430Y-1786310D01*
X14259586Y-1622520D01*
X14225000Y-1448642D01*
X14225000Y-1271358D01*
X14259586Y-1097480D01*
X14327430Y-933690D01*
X14425924Y-786283D01*
X14551283Y-660924D01*
X14698690Y-562430D01*
X14862480Y-494586D01*
X15036358Y-460000D01*
X15213642Y-460000D01*
X15387520Y-494586D01*
G37*
G36*
X17927520Y-494586D02*
G01*
X18091310Y-562430D01*
X18238717Y-660924D01*
X18364076Y-786283D01*
X18462570Y-933690D01*
X18530414Y-1097480D01*
X18565000Y-1271358D01*
X18565000Y-1448642D01*
X18530414Y-1622520D01*
X18462570Y-1786310D01*
X18364076Y-1933717D01*
X18238717Y-2059076D01*
X18091310Y-2157570D01*
X17927520Y-2225414D01*
X17753642Y-2260000D01*
X17576358Y-2260000D01*
X17402480Y-2225414D01*
X17238690Y-2157570D01*
X17091283Y-2059076D01*
X16965924Y-1933717D01*
X16867430Y-1786310D01*
X16799586Y-1622520D01*
X16765000Y-1448642D01*
X16765000Y-1271358D01*
X16799586Y-1097480D01*
X16867430Y-933690D01*
X16965924Y-786283D01*
X17091283Y-660924D01*
X17238690Y-562430D01*
X17402480Y-494586D01*
X17576358Y-460000D01*
X17753642Y-460000D01*
X17927520Y-494586D01*
G37*
G36*
X20467520Y-494586D02*
G01*
X20631310Y-562430D01*
X20778717Y-660924D01*
X20904076Y-786283D01*
X21002570Y-933690D01*
X21070414Y-1097480D01*
X21105000Y-1271358D01*
X21105000Y-1448642D01*
X21070414Y-1622520D01*
X21002570Y-1786310D01*
X20904076Y-1933717D01*
X20778717Y-2059076D01*
X20631310Y-2157570D01*
X20467520Y-2225414D01*
X20293642Y-2260000D01*
X20116358Y-2260000D01*
X19942480Y-2225414D01*
X19778690Y-2157570D01*
X19631283Y-2059076D01*
X19505924Y-1933717D01*
X19407430Y-1786310D01*
X19339586Y-1622520D01*
X19305000Y-1448642D01*
X19305000Y-1271358D01*
X19339586Y-1097480D01*
X19407430Y-933690D01*
X19505924Y-786283D01*
X19631283Y-660924D01*
X19778690Y-562430D01*
X19942480Y-494586D01*
X20116358Y-460000D01*
X20293642Y-460000D01*
X20467520Y-494586D01*
G37*
G36*
X23007520Y-494586D02*
G01*
X23171310Y-562430D01*
X23318717Y-660924D01*
X23444076Y-786283D01*
X23542570Y-933690D01*
X23610414Y-1097480D01*
X23645000Y-1271358D01*
X23645000Y-1448642D01*
X23610414Y-1622520D01*
X23542570Y-1786310D01*
X23444076Y-1933717D01*
X23318717Y-2059076D01*
X23171310Y-2157570D01*
X23007520Y-2225414D01*
X22833642Y-2260000D01*
X22656358Y-2260000D01*
X22482480Y-2225414D01*
X22318690Y-2157570D01*
X22171283Y-2059076D01*
X22045924Y-1933717D01*
X21947430Y-1786310D01*
X21879586Y-1622520D01*
X21845000Y-1448642D01*
X21845000Y-1271358D01*
X21879586Y-1097480D01*
X21947430Y-933690D01*
X22045924Y-786283D01*
X22171283Y-660924D01*
X22318690Y-562430D01*
X22482480Y-494586D01*
X22656358Y-460000D01*
X22833642Y-460000D01*
X23007520Y-494586D01*
G37*
G36*
X33167520Y-494586D02*
G01*
X33331310Y-562430D01*
X33478717Y-660924D01*
X33604076Y-786283D01*
X33702570Y-933690D01*
X33770414Y-1097480D01*
X33805000Y-1271358D01*
X33805000Y-1448642D01*
X33770414Y-1622520D01*
X33702570Y-1786310D01*
X33604076Y-1933717D01*
X33478717Y-2059076D01*
X33331310Y-2157570D01*
X33167520Y-2225414D01*
X32993642Y-2260000D01*
X32816358Y-2260000D01*
X32642480Y-2225414D01*
X32478690Y-2157570D01*
X32331283Y-2059076D01*
X32205924Y-1933717D01*
X32107430Y-1786310D01*
X32039586Y-1622520D01*
X32005000Y-1448642D01*
X32005000Y-1271358D01*
X32039586Y-1097480D01*
X32107430Y-933690D01*
X32205924Y-786283D01*
X32331283Y-660924D01*
X32478690Y-562430D01*
X32642480Y-494586D01*
X32816358Y-460000D01*
X32993642Y-460000D01*
X33167520Y-494586D01*
G37*
G36*
X25547520Y-494586D02*
G01*
X25711310Y-562430D01*
X25858717Y-660924D01*
X25984076Y-786283D01*
X26082570Y-933690D01*
X26150414Y-1097480D01*
X26185000Y-1271358D01*
X26185000Y-1448642D01*
X26150414Y-1622520D01*
X26082570Y-1786310D01*
X25984076Y-1933717D01*
X25858717Y-2059076D01*
X25711310Y-2157570D01*
X25547520Y-2225414D01*
X25373642Y-2260000D01*
X25196358Y-2260000D01*
X25022480Y-2225414D01*
X24858690Y-2157570D01*
X24711283Y-2059076D01*
X24585924Y-1933717D01*
X24487430Y-1786310D01*
X24419586Y-1622520D01*
X24385000Y-1448642D01*
X24385000Y-1271358D01*
X24419586Y-1097480D01*
X24487430Y-933690D01*
X24585924Y-786283D01*
X24711283Y-660924D01*
X24858690Y-562430D01*
X25022480Y-494586D01*
X25196358Y-460000D01*
X25373642Y-460000D01*
X25547520Y-494586D01*
G37*
G36*
X56027520Y-494586D02*
G01*
X56191310Y-562430D01*
X56338717Y-660924D01*
X56464076Y-786283D01*
X56562570Y-933690D01*
X56630414Y-1097480D01*
X56665000Y-1271358D01*
X56665000Y-1448642D01*
X56630414Y-1622520D01*
X56562570Y-1786310D01*
X56464076Y-1933717D01*
X56338717Y-2059076D01*
X56191310Y-2157570D01*
X56027520Y-2225414D01*
X55853642Y-2260000D01*
X55676358Y-2260000D01*
X55502480Y-2225414D01*
X55338690Y-2157570D01*
X55191283Y-2059076D01*
X55065924Y-1933717D01*
X54967430Y-1786310D01*
X54899586Y-1622520D01*
X54865000Y-1448642D01*
X54865000Y-1271358D01*
X54899586Y-1097480D01*
X54967430Y-933690D01*
X55065924Y-786283D01*
X55191283Y-660924D01*
X55338690Y-562430D01*
X55502480Y-494586D01*
X55676358Y-460000D01*
X55853642Y-460000D01*
X56027520Y-494586D01*
G37*
G36*
X2687520Y-484586D02*
G01*
X2851310Y-552430D01*
X2998717Y-650924D01*
X3124076Y-776283D01*
X3222570Y-923690D01*
X3290414Y-1087480D01*
X3325000Y-1261358D01*
X3325000Y-1438642D01*
X3290414Y-1612520D01*
X3222570Y-1776310D01*
X3124076Y-1923717D01*
X2998717Y-2049076D01*
X2851310Y-2147570D01*
X2687520Y-2215414D01*
X2513642Y-2250000D01*
X2336358Y-2250000D01*
X2162480Y-2215414D01*
X1998690Y-2147570D01*
X1851283Y-2049076D01*
X1725924Y-1923717D01*
X1627430Y-1776310D01*
X1559586Y-1612520D01*
X1525000Y-1438642D01*
X1525000Y-1261358D01*
X1559586Y-1087480D01*
X1627430Y-923690D01*
X1725924Y-776283D01*
X1851283Y-650924D01*
X1998690Y-552430D01*
X2162480Y-484586D01*
X2336358Y-450000D01*
X2513642Y-450000D01*
X2687520Y-484586D01*
G37*
M02*
