M48
METRIC,TZ
T1C0.300
T2C0.600
T3C0.850
T4C1.000
%
G90
G05
T1
X3450Y-10200
X3450Y-12150
X3450Y-16950
X4350Y-5100
X4650Y-18900
X5250Y-15450
X5850Y-13950
X6000Y-11400
X6300Y-15450
X6750Y-14850
X7050Y-4350
X7050Y-7650
X8100Y-14850
X8400Y-4350
X8400Y-7650
X8400Y-11550
X8700Y-18900
X9150Y-8850
X9150Y-10050
X9150Y-10800
X9150Y-12150
X9450Y-16050
X9900Y-14850
X10196Y-13500
X10200Y-7650
X11250Y-13950
X11400Y-17550
X11737Y-9788
X11737Y-11513
X11850Y-6000
X12150Y-13950
X12150Y-15150
X12450Y-16950
X12750Y-16050
X13463Y-9788
X13463Y-11513
X13650Y-5850
X13800Y-2250
X13950Y-7050
X14400Y-2700
X15450Y-5400
X15450Y-6600
X15750Y-2700
X16050Y-8400
X16050Y-10200
X16350Y-2250
X16350Y-11400
X16500Y-13200
X17250Y-10800
X17250Y-11700
X17550Y-14100
X18000Y-11700
X18150Y-5550
X18150Y-6450
X18150Y-7950
X18150Y-9450
X18300Y-14850
X18750Y-10800
X18750Y-11700
X18900Y-7500
X19200Y-14850
X19500Y-11700
X19650Y-7500
X19800Y-4950
X20100Y-17100
X20250Y-10950
X20250Y-13350
X21000Y-16350
X21300Y-17100
X22050Y-9000
X22050Y-16200
X22500Y-6900
X22650Y-13350
X23250Y-9300
X23250Y-15600
X23250Y-16950
X24000Y-6750
X24300Y-10200
X24300Y-13050
X24450Y-16950
X24600Y-6750
X25200Y-14250
X25200Y-16200
X25950Y-9150
X26400Y-17400
X26550Y-13650
X26700Y-9900
X26850Y-5550
X27170Y-16800
X28350Y-9150
X28500Y-16800
X28650Y-15750
X29100Y-9750
X29250Y-6000
X29400Y-4350
X29850Y-12300
X30000Y-16500
X30450Y-6150
X31500Y-7800
X31500Y-16500
X32400Y-7500
X33000Y-9300
X33000Y-11550
X33000Y-12300
X33000Y-13050
X33450Y-7800
X33450Y-17850
X34200Y-9450
X34950Y-7050
X36600Y-5550
X36750Y-7350
X36750Y-8250
X36750Y-11100
X36750Y-11850
X37200Y-14700
X37500Y-4950
X38250Y-5250
X38400Y-16200
X38850Y-12300
X38850Y-13050
X39150Y-16200
X39600Y-14250
X39750Y-11700
X39900Y-8850
X40350Y-13650
X40500Y-11700
X40650Y-8850
X40800Y-5700
X40800Y-7200
X41250Y-13650
X41400Y-8850
X41550Y-11850
X41700Y-5700
X41700Y-7200
X41700Y-10200
X42000Y-14550
X42150Y-8850
X42450Y-10650
X42600Y-14100
X43200Y-10800
X43200Y-14850
X43350Y-14100
X43500Y-12300
X43650Y-6750
X43800Y-11550
X43950Y-13350
X44100Y-9600
X44550Y-15000
X44700Y-7350
X44700Y-10350
X45000Y-5550
X45000Y-6450
X45300Y-9600
X46050Y-6900
X46050Y-13650
X46200Y-5550
X46200Y-10200
X46200Y-12000
X46800Y-13350
X47400Y-10200
X47700Y-7800
X47700Y-12150
X47700Y-13350
X47700Y-14400
X48150Y-8700
X48150Y-9450
X48150Y-10200
X48450Y-5550
X48750Y-4050
X49350Y-5550
X49500Y-3450
X49800Y-14700
X50250Y-6750
X50400Y-9750
X50700Y-7950
X51000Y-10650
X51150Y-9450
X51450Y-7950
X52500Y-6000
X52500Y-10950
X53100Y-4200
X54600Y-6900
X54600Y-10800
X55650Y-4200
X55800Y-6900
X55800Y-8550
X55800Y-11250
X56550Y-3000
X56550Y-4200
X57150Y-17100
X57750Y-3000
X57750Y-15450
X58500Y-3000
X58500Y-4200
X58500Y-7050
X58500Y-8550
X58500Y-17700
X59250Y-16200
X59400Y-2250
X59550Y-18150
X59945Y-4200
T3
X57300Y-7750
X57300Y-12750
X4700Y-7750
X4700Y-12750
T4
X10045Y-1360
X12585Y-1360
X15125Y-1360
X17665Y-1360
X20205Y-1360
X22745Y-1360
X25285Y-1360
X27825Y-1360
X30365Y-1360
X32905Y-1360
X35445Y-1360
X37985Y-1360
X40525Y-1360
X43065Y-1360
X45605Y-1360
X48145Y-1360
X50685Y-1360
X53225Y-1360
X55765Y-1360
X58305Y-1360
X60845Y-1360
X2425Y-1350
X10045Y-19140
X12585Y-19140
X15125Y-19140
X17665Y-19140
X20205Y-19140
X22745Y-19140
X25285Y-19140
X27825Y-19140
X30365Y-19140
X32905Y-19140
X35445Y-19140
X37985Y-19140
X40525Y-19140
X43065Y-19140
X45605Y-19140
X48145Y-19140
X50685Y-19140
X53225Y-19140
X55765Y-19140
X58305Y-19140
X60845Y-19140
X2425Y-19140
T2
X60350Y-6750G85X59650Y-6750
G05
X60350Y-13750G85X59650Y-13750
G05
X1650Y-6750G85X2350Y-6750
G05
X1650Y-13750G85X2350Y-13750
G05
T0
M30
