G04 #@! TF.GenerationSoftware,KiCad,Pcbnew,(5.1.5)-3*
G04 #@! TF.CreationDate,2020-05-12T20:49:58+02:00*
G04 #@! TF.ProjectId,TinyK22,54696e79-4b32-4322-9e6b-696361645f70,1.0*
G04 #@! TF.SameCoordinates,Original*
G04 #@! TF.FileFunction,Paste,Top*
G04 #@! TF.FilePolarity,Positive*
%FSLAX46Y46*%
G04 Gerber Fmt 4.6, Leading zero omitted, Abs format (unit mm)*
G04 Created by KiCad (PCBNEW (5.1.5)-3) date 2020-05-12 20:49:58*
%MOMM*%
%LPD*%
G04 APERTURE LIST*
%ADD10R,0.900000X1.000000*%
%ADD11R,0.800000X0.800000*%
%ADD12R,0.600000X0.700000*%
%ADD13R,0.500000X0.900000*%
%ADD14R,0.900000X0.800000*%
%ADD15R,0.500000X0.375000*%
%ADD16R,0.650000X0.300000*%
%ADD17R,0.650000X0.400000*%
%ADD18R,0.450000X0.700000*%
%ADD19R,0.800000X0.750000*%
%ADD20R,1.350000X0.400000*%
%ADD21R,1.900000X1.500000*%
%ADD22R,1.900000X1.200000*%
%ADD23C,1.524000*%
%ADD24O,1.900000X1.200000*%
%ADD25R,2.000000X0.400000*%
%ADD26R,1.060000X0.650000*%
%ADD27R,0.900000X0.500000*%
%ADD28R,0.750000X0.800000*%
%ADD29R,0.250000X1.000000*%
%ADD30R,1.000000X0.250000*%
%ADD31R,0.750000X1.400000*%
%ADD32R,1.035000X1.035000*%
%ADD33R,0.250000X0.700000*%
%ADD34R,0.700000X0.250000*%
G04 APERTURE END LIST*
D10*
X21050000Y-10150000D03*
X25150000Y-10150000D03*
X25150000Y-11750000D03*
X21050000Y-11750000D03*
D11*
X11195000Y-6800000D03*
X11195000Y-5200000D03*
X56450000Y-5100000D03*
X54850000Y-5100000D03*
D12*
X35800000Y-10650000D03*
X34400000Y-10650000D03*
D13*
X3600000Y-5100000D03*
X2100000Y-5100000D03*
X58500000Y-15450000D03*
X60000000Y-15450000D03*
X29250000Y-15750000D03*
X30750000Y-15750000D03*
X29250000Y-11550000D03*
X30750000Y-11550000D03*
D14*
X23200000Y-6000000D03*
X21200000Y-6950000D03*
X21200000Y-5050000D03*
D15*
X19000000Y-5462500D03*
X19000000Y-6537500D03*
D16*
X17225000Y-6000000D03*
X19075000Y-6000000D03*
D15*
X17300000Y-6537500D03*
X17300000Y-5462500D03*
D17*
X14500000Y-6650000D03*
X14500000Y-5350000D03*
X16400000Y-6000000D03*
X16400000Y-5350000D03*
X16400000Y-6650000D03*
D18*
X27450000Y-13300000D03*
X26800000Y-11300000D03*
X28100000Y-11300000D03*
D19*
X34350000Y-5100000D03*
X35850000Y-5100000D03*
D20*
X4700000Y-8950000D03*
D21*
X2000000Y-11250000D03*
X2000000Y-9250000D03*
D22*
X2000000Y-13150000D03*
X2000000Y-7350000D03*
D20*
X4700000Y-9600000D03*
X4700000Y-10250000D03*
X4700000Y-10900000D03*
X4700000Y-11550000D03*
D23*
X4700000Y-7750000D03*
X4700000Y-12750000D03*
D24*
X2000000Y-6750000D03*
X2000000Y-13750000D03*
D20*
X57300000Y-11550000D03*
D21*
X60000000Y-9250000D03*
X60000000Y-11250000D03*
D22*
X60000000Y-7350000D03*
X60000000Y-13150000D03*
D20*
X57300000Y-10900000D03*
X57300000Y-10250000D03*
X57300000Y-9600000D03*
X57300000Y-8950000D03*
D23*
X57300000Y-12750000D03*
X57300000Y-7750000D03*
D24*
X60000000Y-13750000D03*
X60000000Y-6750000D03*
D25*
X52800000Y-13800000D03*
X52800000Y-15000000D03*
X52800000Y-16200000D03*
X14100000Y-16650000D03*
X14100000Y-15450000D03*
X14100000Y-14250000D03*
D26*
X29350000Y-6950000D03*
X29350000Y-5050000D03*
X31550000Y-5050000D03*
X31550000Y-6000000D03*
X31550000Y-6950000D03*
D13*
X53850000Y-5100000D03*
X52350000Y-5100000D03*
X54750000Y-9750000D03*
X53250000Y-9750000D03*
X53250000Y-8250000D03*
X54750000Y-8250000D03*
D27*
X32100000Y-11850000D03*
X32100000Y-10350000D03*
D13*
X30750000Y-13050000D03*
X29250000Y-13050000D03*
X19500000Y-10740000D03*
X18000000Y-10740000D03*
D27*
X9750000Y-5250000D03*
X9750000Y-6750000D03*
X12600000Y-5250000D03*
X12600000Y-6750000D03*
D13*
X6900000Y-8700000D03*
X8400000Y-8700000D03*
X8400000Y-10200000D03*
X6900000Y-10200000D03*
D28*
X33450000Y-14550000D03*
X33450000Y-16050000D03*
D19*
X34350000Y-7800000D03*
X35850000Y-7800000D03*
D28*
X51150000Y-6600000D03*
X51150000Y-5100000D03*
X32100000Y-14550000D03*
X32100000Y-13050000D03*
D19*
X35850000Y-12000000D03*
X34350000Y-12000000D03*
D28*
X50700000Y-16200000D03*
X50700000Y-14700000D03*
D19*
X34350000Y-6450000D03*
X35850000Y-6450000D03*
D28*
X33000000Y-5250000D03*
X33000000Y-6750000D03*
D19*
X30750000Y-14400000D03*
X29250000Y-14400000D03*
D28*
X27900000Y-15900000D03*
X27900000Y-14400000D03*
X25350000Y-6750000D03*
X25350000Y-8250000D03*
D19*
X30750000Y-8550000D03*
X29250000Y-8550000D03*
D28*
X26700000Y-6750000D03*
X26700000Y-8250000D03*
X8400000Y-5250000D03*
X8400000Y-6750000D03*
X6750000Y-13950000D03*
X6750000Y-12450000D03*
X7050000Y-5250000D03*
X7050000Y-6750000D03*
X8100000Y-13950000D03*
X8100000Y-12450000D03*
X26550000Y-15900000D03*
X26550000Y-14400000D03*
D15*
X17300000Y-9387500D03*
X17300000Y-8312500D03*
D16*
X19075000Y-8850000D03*
X17225000Y-8850000D03*
D15*
X19000000Y-8312500D03*
X19000000Y-9387500D03*
D29*
X39750000Y-4550000D03*
X40250000Y-4550000D03*
X40750000Y-4550000D03*
X41250000Y-4550000D03*
X41750000Y-4550000D03*
X42250000Y-4550000D03*
X42750000Y-4550000D03*
X43250000Y-4550000D03*
X43750000Y-4550000D03*
X44250000Y-4550000D03*
X44750000Y-4550000D03*
X45250000Y-4550000D03*
X45750000Y-4550000D03*
X46250000Y-4550000D03*
X46750000Y-4550000D03*
X47250000Y-4550000D03*
D30*
X49200000Y-6500000D03*
X49200000Y-7000000D03*
X49200000Y-7500000D03*
X49200000Y-8000000D03*
X49200000Y-8500000D03*
X49200000Y-9000000D03*
X49200000Y-9500000D03*
X49200000Y-10000000D03*
X49200000Y-10500000D03*
X49200000Y-11000000D03*
X49200000Y-11500000D03*
X49200000Y-12000000D03*
X49200000Y-12500000D03*
X49200000Y-13000000D03*
X49200000Y-13500000D03*
X49200000Y-14000000D03*
D29*
X47250000Y-15950000D03*
X46750000Y-15950000D03*
X46250000Y-15950000D03*
X45750000Y-15950000D03*
X45250000Y-15950000D03*
X44750000Y-15950000D03*
X44250000Y-15950000D03*
X43750000Y-15950000D03*
X43250000Y-15950000D03*
X42750000Y-15950000D03*
X42250000Y-15950000D03*
X41750000Y-15950000D03*
X41250000Y-15950000D03*
X40750000Y-15950000D03*
X40250000Y-15950000D03*
X39750000Y-15950000D03*
D30*
X37800000Y-14000000D03*
X37800000Y-13500000D03*
X37800000Y-13000000D03*
X37800000Y-12500000D03*
X37800000Y-12000000D03*
X37800000Y-11500000D03*
X37800000Y-11000000D03*
X37800000Y-10500000D03*
X37800000Y-10000000D03*
X37800000Y-9500000D03*
X37800000Y-9000000D03*
X37800000Y-8500000D03*
X37800000Y-8000000D03*
X37800000Y-7500000D03*
X37800000Y-7000000D03*
X37800000Y-6500000D03*
D31*
X34825000Y-14700000D03*
X36275000Y-14700000D03*
D32*
X11737500Y-9787500D03*
X11737500Y-11512500D03*
X13462500Y-9787500D03*
X13462500Y-11512500D03*
D33*
X10850000Y-8250000D03*
X11350000Y-8250000D03*
X11850000Y-8250000D03*
X12350000Y-8250000D03*
X12850000Y-8250000D03*
X13350000Y-8250000D03*
X13850000Y-8250000D03*
X14350000Y-8250000D03*
D34*
X15000000Y-8900000D03*
X15000000Y-9400000D03*
X15000000Y-9900000D03*
X15000000Y-10400000D03*
X15000000Y-10900000D03*
X15000000Y-11400000D03*
X15000000Y-11900000D03*
X15000000Y-12400000D03*
D33*
X14350000Y-13050000D03*
X13850000Y-13050000D03*
X13350000Y-13050000D03*
X12850000Y-13050000D03*
X12350000Y-13050000D03*
X11850000Y-13050000D03*
X11350000Y-13050000D03*
X10850000Y-13050000D03*
D34*
X10200000Y-12400000D03*
X10200000Y-11900000D03*
X10200000Y-11400000D03*
X10200000Y-10900000D03*
X10200000Y-10400000D03*
X10200000Y-9900000D03*
X10200000Y-9400000D03*
X10200000Y-8900000D03*
M02*
