<?xml version="1.0" encoding="UTF-8" standalone="no"?>
<!-- Created with Inkscape (http://www.inkscape.org/) -->

<svg
   width="283.72861mm"
   height="303.16205mm"
   viewBox="0 0 283.72861 303.16205"
   version="1.1"
   id="svg5"
   xml:space="preserve"
   inkscape:version="1.2 (dc2aedaf03, 2022-05-15)"
   sodipodi:docname="HB_Front_3mm.svg"
   xmlns:inkscape="http://www.inkscape.org/namespaces/inkscape"
   xmlns:sodipodi="http://sodipodi.sourceforge.net/DTD/sodipodi-0.dtd"
   xmlns="http://www.w3.org/2000/svg"
   xmlns:svg="http://www.w3.org/2000/svg"><sodipodi:namedview
     id="namedview7"
     pagecolor="#ffffff"
     bordercolor="#666666"
     borderopacity="1.0"
     inkscape:showpageshadow="2"
     inkscape:pageopacity="0.0"
     inkscape:pagecheckerboard="0"
     inkscape:deskcolor="#d1d1d1"
     inkscape:document-units="mm"
     showgrid="false"
     inkscape:zoom="1.5358305"
     inkscape:cx="407.92261"
     inkscape:cy="575.58434"
     inkscape:window-width="1920"
     inkscape:window-height="1137"
     inkscape:window-x="-8"
     inkscape:window-y="2"
     inkscape:window-maximized="1"
     inkscape:current-layer="layer1" /><defs
     id="defs2" /><g
     inkscape:label="Layer 1"
     inkscape:groupmode="layer"
     id="layer1"
     transform="translate(36.591759,0.56535244)"><ellipse
       style="fill:#0000ff;fill-opacity:1;stroke:none;stroke-width:0.0171362;stroke-linejoin:bevel;stroke-opacity:1"
       id="path3653-9"
       cx="14.255973"
       cy="254.81683"
       rx="13.22214"
       ry="12.545809"
       transform="scale(-1,1)" /><path
       id="rect1219"
       style="fill:none;fill-opacity:1;stroke:#ff0000;stroke-width:0.105352;stroke-linejoin:bevel"
       d="M 206.33033,18.964603 4.19417,19.474339 c 0,0 -7.92591,-1.692513 -17.93765,8.260851 -6.71827,6.679069 -7.03688,19.72631 -7.03688,19.72631 l 39.80579,236.35309 174.47815,0.21356 39.65678,-234.976139 c 0,0 2.55096,-12.187363 -6.31498,-21.789569 -8.86593,-9.602207 -20.51505,-8.297839 -20.51505,-8.297839 z"
       sodipodi:nodetypes="ccscccczc" /><ellipse
       style="fill:#ffffff;fill-opacity:1;stroke:#ff0000;stroke-width:0.0656223;stroke-linejoin:bevel;stroke-opacity:1"
       id="path413"
       cx="-166.08464"
       cy="29.798452"
       rx="2.8171887"
       ry="2.817189"
       transform="scale(-1,1)" /><ellipse
       style="fill:#ffffff;fill-opacity:1;stroke:#ff0000;stroke-width:0.0656223;stroke-linejoin:bevel;stroke-opacity:1"
       id="path413-0"
       cx="-220.76373"
       cy="71.814331"
       rx="2.8171887"
       ry="2.817189"
       transform="scale(-1,1)" /><ellipse
       style="fill:#ffffff;fill-opacity:1;stroke:#ff0000;stroke-width:0.0656223;stroke-linejoin:bevel;stroke-opacity:1"
       id="path413-7"
       cx="-46.34861"
       cy="30.09938"
       rx="2.8171887"
       ry="2.817189"
       transform="scale(-1,1)" /><ellipse
       style="fill:#ffffff;fill-opacity:1;stroke:#ff0000;stroke-width:0.0656223;stroke-linejoin:bevel;stroke-opacity:1"
       id="path413-9"
       cx="7.0932841"
       cy="71.826668"
       rx="2.8171887"
       ry="2.817189"
       transform="scale(-1,1)" /><ellipse
       style="fill:#ffffff;fill-opacity:1;stroke:#ff0000;stroke-width:0.0656223;stroke-linejoin:bevel;stroke-opacity:1"
       id="path413-09"
       cx="-29.072334"
       cy="274.34723"
       rx="2.8171887"
       ry="2.817189"
       transform="scale(-1,1)" /><ellipse
       style="fill:#ffffff;fill-opacity:1;stroke:#ff0000;stroke-width:0.0656223;stroke-linejoin:bevel;stroke-opacity:1"
       id="path413-4"
       cx="-185.32472"
       cy="274.58057"
       rx="2.8171887"
       ry="2.817189"
       transform="scale(-1,1)" /><circle
       style="fill:#0000ff;fill-opacity:1;stroke:none;stroke-width:0.0850956;stroke-linejoin:bevel;stroke-opacity:1"
       id="path3653-1"
       cx="-106.36002"
       cy="151.46675"
       transform="scale(-1,1)"
       r="63.957451" /><path
       class="st0"
       d="m 104.09074,72.451396 c 7.70041,1.400897 13.02382,4.356339 13.02382,7.790798 0,4.790166 -10.3576,8.676527 -23.137401,8.676527 -12.779802,0 -23.137406,-3.886361 -23.137406,-8.676527 0,-3.434459 5.323411,-6.389901 13.023829,-7.790798 l 1.075528,1.409935 1.084565,1.43705 c -6.010302,0.840539 -10.845658,2.991594 -10.845658,4.934775 0,2.792757 8.414423,5.061307 18.799142,5.061307 10.384721,0 18.799141,-2.259512 18.799141,-5.052269 0,-1.952219 -4.83536,-4.003856 -10.84566,-4.844394"
       id="path193938"
       style="display:none;fill:#00ff00;fill-opacity:0.523596;stroke-width:0.0903805" /><path
       class="st0"
       d="m 95.567855,79.745101 c 10.664895,-15.455064 12.644235,-17.04576 12.644235,-22.721655 0,-7.78176 -6.30856,-14.090318 -14.090323,-14.090318 -7.78176,0 -14.08128,6.308558 -14.08128,14.090318 0,5.675895 1.979333,7.266591 12.644231,22.721655 0.686891,1.012262 2.187207,1.012262 2.883137,0 z M 94.121767,62.88914 c -3.244659,0 -5.865693,-2.630072 -5.865693,-5.865694 0,-3.235621 2.630072,-5.865694 5.865693,-5.865694 3.235622,0 5.865694,2.630073 5.865694,5.865694 0,3.235622 -2.621034,5.865694 -5.865694,5.865694 z"
       id="path193940"
       style="display:none;fill:#00ff00;fill-opacity:0.523596;stroke-width:0.0903805" /><g
       id="g193944"
       style="fill:#00ff00;fill-opacity:0.523596"
       transform="matrix(-0.09038049,0,0,0.09038049,112.68592,29.900261)">
	
</g><circle
       style="fill:#ffffff;fill-opacity:1;stroke:#ff0000;stroke-width:0.316113;stroke-linejoin:bevel"
       id="path40676-8-9"
       cx="123.53166"
       cy="-170.9649"
       transform="scale(1,-1)"
       r="5.8419437" /><g
       id="g21170"
       style="fill:#00ff00;fill-opacity:0.523596;stroke:none;stroke-opacity:1"
       transform="matrix(-1.1314685,0,0,1.1314685,323.09679,137.86148)" /><g
       id="g21181"
       style="fill:#00ff00;fill-opacity:0.523596;stroke:none;stroke-opacity:1"
       transform="matrix(-1.1314685,0,0,1.1314685,323.09679,137.86148)" /><rect
       style="fill:#ffffff;fill-opacity:1;stroke:none;stroke-width:0.10523;stroke-linejoin:bevel;stroke-dasharray:none;stroke-opacity:1"
       id="rect180052"
       width="23.89477"
       height="14.917727"
       x="-135.49228"
       y="145.9702"
       transform="scale(-1,1)" /><path
       style="fill:#ffffff;fill-opacity:1;stroke-width:0.0216654"
       d="m 106.9613,209.07242 c 1.33013,-0.0859 2.56757,-0.60156 3.67096,-1.53003 l 0.26857,-0.22597 0.39023,-0.14534 c 1.08121,-0.40268 2.03974,-0.92338 2.91891,-1.58559 0.16398,-0.1237 0.24854,-0.17152 0.36523,-0.20713 0.35019,-0.1068 0.88677,-0.40818 1.33653,-0.75046 0.28634,-0.21798 0.74335,-0.65 0.95472,-0.90264 0.60878,-0.72757 1.02028,-1.57399 1.18672,-2.44124 0.0338,-0.17565 0.11861,-0.45568 0.25978,-0.85622 0.23791,-0.67497 0.34418,-1.03639 0.42307,-1.43654 0.0436,-0.22101 0.0667,-0.29115 0.11297,-0.34457 0.61267,-0.70311 0.97249,-1.33981 1.17263,-2.07486 0.12101,-0.44385 0.15366,-0.69365 0.15398,-1.17699 2.7e-4,-0.24121 -0.0127,-0.51474 -0.029,-0.62651 -0.15175,-1.02087 -0.56767,-1.92856 -1.2584,-2.74621 -0.18709,-0.22165 -0.64385,-0.63197 -0.85986,-0.7727 -0.16415,-0.10679 -0.21228,-0.15306 -0.32733,-0.31325 l -0.13497,-0.18794 -0.0142,-0.34457 c -0.0991,-2.21275 -0.96605,-3.593 -2.89376,-4.60715 -0.1234,-0.0649 -0.22115,-0.12043 -0.21769,-0.12331 0.002,-0.003 0.10776,-0.0309 0.23125,-0.0619 0.32507,-0.0816 0.52663,-0.17451 0.68667,-0.31635 0.13511,-0.11977 0.24629,-0.29489 0.27894,-0.43967 0.0127,-0.0602 0.029,-0.0708 0.1638,-0.11113 0.34548,-0.10379 0.65043,-0.27295 0.79964,-0.44382 0.0891,-0.10209 0.1828,-0.26786 0.24308,-0.43085 0.0359,-0.0971 0.0884,-0.15762 0.36412,-0.41857 0.27207,-0.25772 0.33556,-0.33042 0.40859,-0.46772 0.0742,-0.13944 0.0871,-0.18466 0.0912,-0.31819 l 0.005,-0.15569 0.15778,-0.13578 c 0.29434,-0.25324 0.41375,-0.48667 0.41017,-0.80198 -9.2e-4,-0.0985 -0.0113,-0.21077 -0.0203,-0.24935 -0.0142,-0.0671 -0.0113,-0.0777 0.16877,-0.2424 0.33673,-0.31284 0.43697,-0.63846 0.27762,-0.90185 l -0.0508,-0.084 0.0833,-0.12095 c 0.10817,-0.15717 0.20881,-0.35837 0.2484,-0.49636 0.0654,-0.22759 0.0258,-0.42813 -0.12791,-0.65378 -0.0643,-0.0941 -0.0681,-0.10877 -0.0425,-0.16605 0.0868,-0.19658 0.11551,-0.33715 0.10748,-0.53279 -0.005,-0.15964 -0.0203,-0.22082 -0.0659,-0.31325 -0.0845,-0.16667 -0.19727,-0.27561 -0.377,-0.36338 -0.1997,-0.0975 -0.39809,-0.13675 -0.6981,-0.13828 l -0.23591,-8.8e-4 -0.0717,-0.0906 c -0.14177,-0.17925 -0.47777,-0.33437 -0.83865,-0.38727 -0.0802,-0.0105 -0.27636,-0.0214 -0.4356,-0.0218 l -0.28946,-1.6e-4 -0.0897,-0.0755 c -0.0495,-0.0414 -0.14669,-0.10025 -0.21625,-0.13052 -0.11748,-0.0513 -0.1489,-0.0551 -0.45525,-0.0566 l -0.32892,-8.8e-4 -0.0867,-0.0635 c -0.19645,-0.14365 -0.41949,-0.21465 -0.67578,-0.21503 -0.20337,-3e-4 -0.35555,0.0289 -0.56298,0.10837 l -0.16291,0.0624 -0.24162,-0.12868 -0.24158,-0.12882 -0.1828,0.0131 c -0.20759,0.0139 -0.41398,0.0672 -0.66265,0.17257 l -0.1711,0.0725 -0.12115,-0.0335 c -0.33025,-0.0916 -0.57587,-0.0603 -0.88519,0.11242 -0.0986,0.0552 -0.20515,0.11323 -0.23593,0.12856 -0.038,0.019 -0.1535,0.0289 -0.3596,0.0305 -0.21697,8.8e-4 -0.33675,0.0131 -0.42038,0.0378 -0.17215,0.0518 -0.41819,0.21519 -0.6468,0.4296 l -0.20193,0.1893 h -0.21009 c -0.20365,0 -0.21472,0.003 -0.36024,0.0815 -0.62861,0.34109 -1.16944,0.92258 -1.56554,1.68318 -0.13173,0.25275 -0.37079,0.80361 -0.40571,0.93455 -0.0113,0.0316 -0.0221,0.0573 -0.0302,0.0571 -0.007,-1.7e-4 -0.0538,-0.0919 -0.10182,-0.20362 -0.22608,-0.52709 -0.60142,-1.16299 -0.93508,-1.58411 -0.21847,-0.27561 -0.67889,-0.6989 -0.92446,-0.84974 l -0.1936,-0.11886 h -0.2086 -0.20858 l -0.2609,-0.23494 c -0.39725,-0.35769 -0.63652,-0.45147 -1.08238,-0.42423 l -0.21448,0.0131 -0.21253,-0.11899 c -0.34135,-0.1912 -0.38393,-0.20506 -0.6283,-0.20458 -0.13807,2.7e-4 -0.2619,0.0138 -0.35064,0.0379 l -0.13695,0.0375 -0.25623,-0.10339 c -0.32343,-0.13039 -0.45693,-0.16019 -0.64473,-0.14388 -0.154616,0.0138 -0.381768,0.0985 -0.514854,0.19283 l -0.07287,0.0518 -0.135677,-0.0529 c -0.448854,-0.17552 -0.914434,-0.15093 -1.413335,0.0748 l -0.232472,0.1051 -0.153983,-0.0221 c -0.219929,-0.0316 -0.443864,-0.0275 -0.585175,0.0105 -0.09407,0.0257 -0.149222,0.0592 -0.240614,0.14619 l -0.118474,0.11296 -0.263663,3.9e-4 c -0.14494,2.4e-4 -0.33072,0.009 -0.412729,0.0206 -0.368499,0.0495 -0.701415,0.1992 -0.854056,0.38395 l -0.07545,0.0911 -0.269967,0.0105 c -0.297857,0.0105 -0.438524,0.0487 -0.628798,0.16571 -0.329212,0.2026 -0.442853,0.66326 -0.266934,1.08207 l 0.06562,0.15664 -0.07333,0.18434 c -0.175349,0.44124 -0.149388,0.7055 0.104928,1.06846 l 0.09421,0.13451 -0.02619,0.14411 c -0.05257,0.29084 0.07361,0.64026 0.371421,1.02675 0.0714,0.0923 0.07168,0.0965 0.05063,0.22689 -0.02904,0.17673 0.0046,0.3482 0.105636,0.53906 0.06166,0.11637 0.121286,0.1864 0.266806,0.31325 l 0.187479,0.16339 0.02564,0.16199 c 0.04852,0.307 0.190935,0.54736 0.462941,0.78254 0.08997,0.0778 0.233226,0.17983 0.318369,0.22678 0.150335,0.083 0.15652,0.0896 0.213514,0.23349 0.166114,0.41856 0.441503,0.64034 1.014335,0.81747 0.145106,0.0449 0.152246,0.0502 0.17625,0.13357 0.0647,0.22374 0.227556,0.42278 0.44708,0.54664 0.111416,0.0629 0.435786,0.17514 0.673056,0.23283 l 0.07683,0.0187 -0.341858,0.1981 c -1.078892,0.62532 -1.74818,1.26838 -2.183939,2.09853 -0.371348,0.7074 -0.54326,1.42425 -0.59599,2.48516 l -0.01425,0.29236 -0.132286,0.18848 c -0.08013,0.11401 -0.161491,0.20406 -0.20562,0.22792 -0.171443,0.0921 -0.507686,0.34436 -0.721697,0.54132 -0.795343,0.73194 -1.348399,1.71731 -1.543038,2.74913 -0.07039,0.37345 -0.0862,0.98112 -0.03538,1.35287 0.136384,0.99518 0.615932,1.9337 1.404181,2.74828 0.107897,0.11138 0.167189,0.19234 0.184043,0.2506 0.06773,0.23489 0.271382,0.81081 0.514119,1.45297 0.193205,0.5105 0.279303,0.76942 0.303913,0.91144 0.164533,0.94993 0.595991,1.84509 1.262246,2.61885 0.207615,0.24107 0.691693,0.68935 0.951918,0.88144 0.427194,0.31538 1.010972,0.63405 1.314269,0.71743 0.08179,0.0224 0.189318,0.0881 0.388064,0.23622 0.890586,0.66421 1.840421,1.17262 2.950271,1.57919 0.3047,0.11165 0.33619,0.12842 0.48328,0.25872 1.1071,0.9802 2.38612,1.52084 3.80974,1.61033 0.35945,0.0227 0.4567,0.0224 0.82041,-8.8e-4 z m -1.05204,-1.03471 c -0.48001,-0.0612 -0.89516,-0.18672 -1.44288,-0.4364 -0.91626,-0.41772 -1.86618,-1.16927 -1.99999,-1.5823 -0.17037,-0.52595 0.85993,-1.08243 2.438,-1.31685 0.26915,-0.04 0.38563,-0.0448 1.02297,-0.0424 0.48921,8.8e-4 0.82825,0.0138 1.06015,0.0365 1.56764,0.15572 2.97219,0.63954 3.27804,1.1292 0.0765,0.12279 0.0896,0.2197 0.0459,0.34239 -0.0876,0.24492 -0.47133,0.6421 -0.93438,0.96703 -0.80163,0.56251 -1.64582,0.87489 -2.55052,0.94378 -0.16718,0.0131 -0.67284,-0.009 -0.91713,-0.0409 z m -6.133698,-3.2973 c -1.149157,-0.14105 -2.232718,-0.79753 -3.11608,-1.88787 -0.441153,-0.54448 -0.679645,-1.07357 -0.805939,-1.7878 -0.06258,-0.35582 -0.05652,-1.23828 0.01268,-1.60805 0.119035,-0.64691 0.350846,-1.2419 0.58058,-1.49125 0.0952,-0.10301 0.339432,-0.21736 0.54314,-0.25392 0.312552,-0.0562 0.726899,0.0222 1.161582,0.21962 0.731052,0.33191 1.483406,0.94095 2.349045,1.90146 0.64308,0.71361 1.13459,1.66424 1.33726,2.58646 0.19361,0.88034 0.086,1.57618 -0.29858,1.93358 -0.0965,0.0896 -0.18668,0.14649 -0.34324,0.21619 -0.41611,0.18532 -0.86503,0.2396 -1.419355,0.17157 z m 12.223278,-0.0508 c -0.30746,-0.0784 -0.44616,-0.14863 -0.56036,-0.28383 -0.23744,-0.28114 -0.32972,-0.55987 -0.34677,-1.04805 -0.0161,-0.51967 0.0551,-0.94889 0.25497,-1.49546 0.21622,-0.59097 0.54525,-1.12432 0.98186,-1.59098 0.70605,-0.7547 1.44364,-1.28215 2.18484,-1.56241 0.40967,-0.15492 0.59637,-0.19093 0.98894,-0.19077 0.31018,2.1e-4 0.35138,0.005 0.51449,0.0578 0.22119,0.0718 0.33483,0.1333 0.46021,0.24812 0.33432,0.30636 0.49605,0.77529 0.49711,1.44096 7.1e-4,0.48774 -0.0932,0.97463 -0.28917,1.50118 -0.26185,0.70317 -0.55999,1.1661 -1.075,1.66938 -0.71353,0.69721 -1.54802,1.12993 -2.47887,1.28534 -0.26406,0.044 -0.9061,0.0263 -1.13225,-0.0313 z m -6.19037,-1.31837 c -1.14861,-0.11636 -2.16529,-0.64737 -2.82439,-1.47501 -0.16362,-0.20569 -0.38117,-0.58348 -0.47244,-0.82096 -0.64552,-1.68024 0.25541,-3.46013 2.12331,-4.19469 0.83774,-0.32945 1.8821,-0.40522 2.78164,-0.2018 0.44374,0.10024 0.87765,0.27594 1.25289,0.50705 0.26757,0.1648 0.34311,0.22218 0.59211,0.44995 0.56111,0.51328 0.90714,1.12919 1.04058,1.85235 0.048,0.25888 0.0361,0.80531 -0.0221,1.06506 -0.18543,0.81417 -0.65596,1.49037 -1.4144,2.03245 -0.83148,0.59429 -1.99429,0.89322 -3.05598,0.7856 z m 11.65635,-5.20078 c -0.58174,-0.27575 -1.13202,-1.779 -1.32563,-3.62133 -0.037,-0.35383 -0.0369,-1.2972 6.6e-4,-1.55583 0.0845,-0.58338 0.2396,-0.93318 0.47904,-1.08042 0.0765,-0.0472 0.11904,-0.0576 0.23074,-0.0576 0.12453,0 0.15256,0.009 0.30936,0.0999 1.01746,0.58921 1.69646,1.49721 1.93205,2.58364 0.0459,0.21107 0.0522,0.30082 0.0522,0.74137 1.5e-4,0.32495 -0.0113,0.55628 -0.0301,0.65784 -0.12906,0.67695 -0.39773,1.28834 -0.77282,1.75853 -0.17163,0.21504 -0.48666,0.51048 -0.55914,0.52437 -0.087,0.0167 -0.21991,-0.004 -0.31688,-0.0503 z m -22.076765,-0.0807 c -0.08592,-0.0304 -0.39105,-0.32887 -0.560334,-0.54801 -0.08252,-0.1068 -0.220425,-0.32424 -0.306753,-0.48324 -0.716827,-1.32198 -0.647481,-2.92379 0.176066,-4.06821 0.298363,-0.41454 0.633319,-0.72649 1.093357,-1.01824 0.30905,-0.19598 0.390958,-0.23172 0.53146,-0.23172 0.494123,0 0.782579,0.60577 0.820477,1.72291 0.04981,1.46792 -0.416285,3.44782 -0.998804,4.24309 -0.107042,0.14614 -0.313351,0.33137 -0.414576,0.37226 -0.08528,0.0346 -0.25892,0.0402 -0.340939,0.0105 z m 15.482555,-0.86643 c -1.53468,-0.29423 -2.79302,-1.39916 -3.345,-2.93723 -0.51101,-1.42384 -0.25559,-2.88073 0.65996,-3.76456 0.45126,-0.43564 0.92148,-0.68482 1.52905,-0.81036 0.34075,-0.0704 0.93129,-0.0697 1.30366,8.8e-4 1.04939,0.20061 2.07411,0.81238 2.81433,1.68017 0.41233,0.4834 0.73206,1.18771 0.88362,1.94626 0.0511,0.25567 0.0696,0.93076 0.0335,1.21774 -0.0963,0.76689 -0.43868,1.43616 -0.9877,1.93084 -0.50079,0.45125 -1.13149,0.7213 -1.85603,0.79466 -0.22733,0.023 -0.76857,-0.008 -1.03549,-0.059 z m -10.37723,-0.18937 c -0.825604,-0.13591 -1.432448,-0.49833 -1.885998,-1.12622 -0.25949,-0.35929 -0.420035,-0.723 -0.529971,-1.2007 -0.05587,-0.24414 -0.06019,-0.29691 -0.05937,-0.76347 7.9e-4,-0.45569 0.0046,-0.5271 0.06093,-0.78626 0.349752,-1.66406 1.515202,-2.9885 3.049079,-3.46502 0.47605,-0.14789 0.64725,-0.17321 1.18082,-0.17472 0.41582,-8.8e-4 0.49984,0.004 0.70617,0.0473 1.13612,0.23631 1.98065,0.97443 2.36243,2.06468 0.14558,0.41642 0.18667,0.67369 0.18667,1.17579 0,0.56565 -0.0671,0.91946 -0.27062,1.43052 -0.15193,0.38116 -0.50882,0.94199 -0.83383,1.31024 -0.18587,0.21074 -0.58547,0.56596 -0.81347,0.72335 -0.62199,0.42933 -1.39464,0.71667 -2.1365,0.79459 -0.24863,0.0261 -0.76807,0.0105 -1.01607,-0.0302 z m -3.694361,-6.28258 c -0.05174,-0.0413 -0.06433,-0.0724 -0.07802,-0.19319 -0.02031,-0.18081 0.0113,-0.72956 0.05808,-1.00123 0.303693,-1.75356 1.587332,-2.95461 3.490631,-3.26595 0.50783,-0.0831 1.2929,-0.0886 1.8367,-0.0131 0.28204,0.0393 0.34044,0.074 0.31616,0.18849 -0.0663,0.31283 -0.73511,1.05016 -1.74344,1.92216 -1.60885,1.39136 -3.175524,2.40561 -3.724206,2.41105 -0.06754,6.2e-4 -0.111416,-0.0131 -0.156041,-0.0483 z m 19.085431,-0.15697 c -0.35394,-0.1275 -0.88235,-0.43435 -1.55157,-0.90133 -1.4425,-1.00657 -3.14777,-2.55883 -3.49168,-3.17841 -0.0749,-0.1348 -0.0918,-0.26581 -0.0396,-0.306 0.10183,-0.0784 1.21168,-0.13534 1.70398,-0.0875 0.55498,0.054 1.13097,0.20393 1.60165,0.41708 1.37923,0.62449 2.21275,1.79842 2.34883,3.30805 0.0485,0.53562 0.0268,0.73981 -0.0838,0.798 -0.0879,0.0464 -0.27334,0.0273 -0.48784,-0.0499 z m -10.5864,-1.19174 c -1.00429,-0.14309 -1.74924,-0.43825 -2.18687,-0.86631 -0.27005,-0.26414 -0.38866,-0.51557 -0.38838,-0.8232 1.8e-4,-0.22163 0.0425,-0.37812 0.15953,-0.5868 0.42366,-0.75659 1.6434,-1.45432 2.88756,-1.65172 0.51937,-0.0824 1.12539,-0.0561 1.67452,0.073 0.68974,0.16198 1.41005,0.50665 1.91302,0.91544 0.476,0.38683 0.75184,0.85705 0.7054,1.20255 -0.0913,0.67738 -0.9732,1.33897 -2.17644,1.6323 -0.22194,0.0541 -0.68655,0.13107 -0.92522,0.15321 -0.0495,0.004 -0.37312,0.005 -0.71926,0.003 -0.507,-0.005 -0.69049,-0.0147 -0.944,-0.0507 z m 6.66423,-4.12336 c -1.03598,-0.13497 -1.84116,-0.46349 -2.35549,-0.96124 -0.27715,-0.26822 -0.45191,-0.53458 -0.57461,-0.87561 l -0.0588,-0.1637 0.1516,-0.15751 c 0.34311,-0.35668 1.10734,-0.96503 1.80355,-1.43562 0.60791,-0.41092 1.47286,-0.92445 2.38252,-1.41458 0.41498,-0.22357 0.74527,-0.39297 1.80933,-0.92798 0.0989,-0.0498 0.1734,-0.0905 0.16559,-0.0908 -0.0333,-6.2e-4 -0.96988,0.30276 -1.32722,0.43031 -2.01255,0.71844 -3.73846,1.61624 -5.18285,2.69609 l -0.34331,0.25661 -0.11734,-0.0551 c -0.48604,-0.22759 -0.83397,-0.59871 -0.98637,-1.05202 -0.0461,-0.1369 -0.0527,-0.19882 -0.0527,-0.49078 0,-0.36903 0.0289,-0.53687 0.1497,-0.87153 0.20112,-0.55655 0.54417,-1.1186 1.00957,-1.6545 0.12002,-0.13827 0.25852,-0.28741 0.30753,-0.3313 l 0.0891,-0.0797 0.0161,0.17376 c 0.0113,0.0955 0.0301,0.20431 0.0469,0.24164 0.0311,0.0697 0.086,0.09 0.10705,0.0395 0.029,-0.0706 0.41522,-0.48852 0.72062,-0.78011 0.18442,-0.17607 0.33868,-0.31702 0.34282,-0.31319 0.005,0.004 -0.002,0.0909 -0.0143,0.19364 -0.0262,0.2126 0.005,0.33456 0.10169,0.39309 0.0502,0.0305 0.0551,0.0292 0.0925,-0.0243 0.10098,-0.14509 0.93941,-0.87857 0.89905,-0.78647 -0.0113,0.0224 -0.0221,0.10339 -0.0293,0.17989 -0.0113,0.1144 -0.002,0.15575 0.0364,0.23148 0.0264,0.0507 0.0705,0.11191 0.0982,0.13607 l 0.0502,0.0438 0.20214,-0.13706 c 0.11128,-0.0754 0.29333,-0.19318 0.40456,-0.2618 0.21993,-0.1355 0.70097,-0.36378 0.72319,-0.34308 0.006,0.006 -0.038,0.0845 -0.10169,0.17186 -0.0788,0.10837 -0.1155,0.18005 -0.1155,0.22498 1.1e-4,0.0844 0.0802,0.20957 0.12397,0.19394 0.0161,-0.006 0.12552,-0.0697 0.23937,-0.14083 0.36428,-0.2276 0.73427,-0.36495 1.1947,-0.4435 l 0.1759,-0.0299 -0.0472,0.047 c -0.0262,0.0259 -0.11551,0.0966 -0.19848,0.15702 -0.0829,0.0605 -0.17022,0.13383 -0.19381,0.16292 -0.0523,0.0648 -0.0551,0.15106 -0.005,0.22014 l 0.0362,0.0519 0.17501,-0.0507 c 0.26515,-0.0768 1.27186,-0.32193 1.28232,-0.31218 0.005,0.005 -0.0127,0.0194 -0.0398,0.0329 -0.0793,0.0394 -0.22508,0.16975 -0.25988,0.2323 -0.0447,0.0806 -0.0408,0.11688 0.0204,0.17363 l 0.053,0.0491 0.17749,-0.0477 c 0.30245,-0.0813 0.60536,-0.1203 0.95302,-0.12292 0.35207,-0.003 0.62935,0.0202 0.62935,0.0521 0,0.0105 -0.0853,0.12528 -0.18991,0.25416 l -0.18992,0.23432 0.80976,0.005 c 0.44536,0.003 0.80643,0.0131 0.80237,0.0208 -0.005,0.008 -0.0751,0.1329 -0.15763,0.27647 -0.15478,0.26861 -0.26515,0.50506 -0.33429,0.71525 l -0.0396,0.12004 h 0.33506 c 0.23373,0 0.33512,0.006 0.33512,0.0236 0,0.0131 -0.0322,0.0764 -0.0715,0.14097 -0.0997,0.16375 -0.37037,0.4067 -0.63862,0.57333 -0.12496,0.0776 -0.26054,0.17324 -0.30174,0.21271 l -0.0749,0.0718 0.088,0.0352 c 0.13934,0.0556 0.44288,0.0622 0.59895,0.0131 l 0.12863,-0.0405 -0.0559,0.0957 c -0.0887,0.15078 -0.23224,0.31936 -0.57212,0.67089 -0.17357,0.17946 -0.3463,0.3652 -0.38394,0.41277 l -0.0687,0.0865 0.32916,0.005 0.32917,0.005 -0.13088,0.0861 c -0.0722,0.0473 -0.28677,0.20536 -0.47715,0.35116 -0.19033,0.14578 -0.3999,0.29972 -0.46556,0.34204 -0.0659,0.0424 -0.11974,0.0845 -0.12017,0.0937 -0.002,0.0448 0.21621,0.10286 0.42827,0.11361 0.12186,0.006 0.21647,0.0184 0.21082,0.0273 -0.0203,0.0305 -0.51828,0.32829 -0.77476,0.46333 -0.14209,0.0748 -0.3828,0.19388 -0.53477,0.26457 -0.15192,0.0708 -0.27036,0.13743 -0.26314,0.14822 0.0282,0.0423 0.31097,0.10444 0.47999,0.10523 l 0.1718,8.8e-4 -0.10789,0.0899 c -0.11085,0.0923 -0.40318,0.24568 -0.62255,0.32661 -0.0678,0.0251 -0.32033,0.11033 -0.56075,0.18949 -0.24034,0.0792 -0.44624,0.15232 -0.45735,0.16267 -0.0127,0.0105 0.0275,0.0537 0.0965,0.10443 0.10055,0.0738 0.17894,0.1051 0.39322,0.15673 0.0264,0.006 -0.28796,0.0867 -0.45146,0.11545 -0.0632,0.0105 -0.27042,0.0303 -0.46074,0.043 -0.55758,0.0365 -0.62055,0.0435 -0.66378,0.073 -0.0388,0.0265 -0.0392,0.0316 -0.002,0.10181 0.0385,0.0746 0.22732,0.22952 0.30977,0.25386 0.0849,0.0251 0.0444,0.0502 -0.0955,0.0591 -0.27001,0.0172 -1.10895,-0.005 -1.34294,-0.0357 z m -12.419144,-0.0611 c 0.171645,-0.12881 0.304327,-0.25027 0.304327,-0.27877 0,-0.0478 -0.133132,-0.10772 -0.290175,-0.13039 -0.0817,-0.0105 -0.274543,-0.027 -0.429059,-0.0338 -0.516573,-0.023 -0.852449,-0.0807 -1.072708,-0.18477 l -0.1031,-0.0487 0.0959,-0.0141 c 0.05257,-0.008 0.127636,-0.0292 0.166481,-0.0476 0.107327,-0.0506 0.267421,-0.17756 0.246533,-0.19554 -0.0113,-0.008 -0.114384,-0.0411 -0.231994,-0.0721 -0.375291,-0.0988 -0.899923,-0.30224 -1.200381,-0.46563 l -0.155095,-0.0845 0.196219,0.003 c 0.195842,0.003 0.196256,0.003 0.263699,-0.0667 l 0.06754,-0.07 -0.51309,-0.23615 c -0.505344,-0.23261 -0.924515,-0.46852 -1.048107,-0.58994 l -0.06304,-0.0619 0.220379,-0.009 c 0.217723,-0.009 0.433939,-0.0686 0.433939,-0.11793 0,-0.023 -0.238391,-0.22483 -0.674305,-0.57057 -0.16718,-0.13231 -0.35398,-0.28508 -0.415817,-0.33937 -0.122839,-0.1081 -0.130596,-0.10562 0.133701,-0.0405 0.160251,0.0395 0.3153,0.0279 0.375658,-0.0281 0.04328,-0.04 0.03952,-0.0439 -0.317377,-0.3596 -0.348511,-0.30832 -0.581507,-0.56178 -0.678027,-0.73755 -0.04347,-0.0791 -0.04374,-0.0833 -0.0046,-0.0695 0.110148,0.0395 0.326566,0.074 0.465083,0.0743 0.153671,3.2e-4 0.306808,-0.0438 0.306808,-0.0886 0,-0.0237 -0.117481,-0.13162 -0.40965,-0.37567 -0.243813,-0.20366 -0.447577,-0.48478 -0.522445,-0.72058 l -0.01424,-0.047 h 0.340194 0.340149 l -0.01424,-0.047 c -0.09646,-0.28959 -0.194189,-0.46217 -0.466333,-0.81968 l -0.19054,-0.25061 0.80729,-0.0105 0.807318,-0.0105 -0.19156,-0.17705 c -0.105489,-0.0974 -0.191569,-0.18322 -0.191569,-0.19075 0,-0.006 0.02215,-0.0197 0.05082,-0.0273 0.250218,-0.0663 0.32289,-0.0768 0.533822,-0.0775 0.257404,-6.3e-4 0.453559,0.0329 0.908184,0.15628 0.247553,0.0671 0.271557,0.0701 0.320299,0.0405 0.09957,-0.0607 0.0714,-0.12606 -0.131873,-0.30398 -0.101822,-0.089 -0.17715,-0.16186 -0.167721,-0.16186 0.03685,0 0.743586,0.17028 1.083358,0.26088 0.196431,0.0524 0.370254,0.0906 0.386208,0.0849 0.03593,-0.0131 0.03795,-0.103 0.0018,-0.16443 -0.01268,-0.0252 -0.112547,-0.12921 -0.219203,-0.23154 -0.114375,-0.10955 -0.182186,-0.18964 -0.165571,-0.195 0.03924,-0.0131 0.712139,0.18867 0.971887,0.29064 0.117344,0.046 0.308518,0.13633 0.424648,0.20053 l 0.21104,0.11663 0.0528,-0.0572 c 0.0952,-0.10274 0.0691,-0.21804 -0.0982,-0.43416 -0.0437,-0.0566 -0.0731,-0.1085 -0.066,-0.11544 0.016,-0.0147 0.3958,0.15297 0.58736,0.25983 0.0742,0.0414 0.2678,0.16297 0.42989,0.27001 0.16202,0.10705 0.30161,0.19458 0.30997,0.19458 0.0398,0 0.15827,-0.10274 0.20659,-0.17934 0.0681,-0.10772 0.0684,-0.20477 9e-4,-0.32877 -0.0293,-0.0537 -0.0469,-0.0975 -0.0392,-0.0975 0.0281,1e-5 0.39667,0.21233 0.51251,0.29539 0.14701,0.10535 0.33637,0.29326 0.46111,0.45758 0.10732,0.14141 0.1196,0.13952 0.21005,-0.0329 0.0543,-0.10261 0.0574,-0.12397 0.0426,-0.28499 l -0.0143,-0.17404 0.0734,0.0627 c 0.0406,0.0343 0.24761,0.2506 0.46067,0.48032 0.21302,0.22973 0.42253,0.44868 0.46545,0.48658 l 0.078,0.0689 0.0522,-0.13163 c 0.0285,-0.0724 0.063,-0.1818 0.0768,-0.24319 l 0.0247,-0.11164 0.20277,0.19519 c 0.40296,0.38786 0.74841,0.83526 0.99716,1.29158 0.66396,1.21795 0.57644,2.22297 -0.24602,2.82645 -0.0965,0.0708 -0.22972,0.15597 -0.29659,0.1894 l -0.12128,0.0608 -0.16719,-0.1309 c -1.2051,-0.94456 -2.96026,-1.86492 -5.16191,-2.70673 -0.390729,-0.1494 -1.343042,-0.49363 -1.500866,-0.54248 -0.025,-0.008 0.144306,0.0805 0.375455,0.19567 2.667811,1.33012 4.338541,2.36814 5.498151,3.41596 0.10296,0.0929 0.2369,0.222 0.29785,0.28678 l 0.11086,0.11781 -0.045,0.13579 c -0.34532,1.03881 -1.45498,1.67973 -3.16911,1.83041 -0.40737,0.0357 -0.41581,0.0362 -0.854086,0.0386 l -0.415808,0.003 z"
       id="path197237-8-9" /><path
       class="st1"
       d="m 89.960825,106.81365 v 3.00597 c 0,2.24118 1.34707,4.11658 3.18873,4.75501 v 6.51737 c 0,2.62691 1.93927,4.76168 4.32757,4.76168 2.3883,0 4.327575,-2.13477 4.327575,-4.76168 v -1.75569 c 0,-1.38328 1.02169,-2.50719 2.27766,-2.50719 h 0.45552 v 10.02211 h -1.36659 c -0.2538,0 -0.45554,0.22612 -0.45554,0.49878 v 2.00176 c 0,0.27932 0.20174,0.49879 0.45554,0.49879 h 19.13238 c 0.2538,0 0.45554,-0.22613 0.45554,-0.49879 v -2.00176 c 0,-0.27932 -0.20174,-0.49878 -0.45554,-0.49878 h -1.36659 v -26.05619 c 0,-1.662576 -1.22343,-3.005946 -2.73321,-3.005946 h -10.93278 c -1.50978,0 -2.73321,1.34337 -2.73321,3.005946 v 13.0281 h -0.45552 c -2.76575,0 -5.010875,2.47395 -5.010875,5.51317 v 1.75569 c 0,0.96431 -0.71584,1.7557 -1.59436,1.7557 -0.87853,0 -1.59437,-0.78474 -1.59437,-1.7557 v -6.51737 c 1.84166,-0.63843 3.18873,-2.51383 3.18873,-4.75501 v -3.00597 c 0,-0.55197 -0.40997,-1.00421 -0.91106,-1.00421 h -0.91107 v -3.00597 c 0,-0.55198 -0.40998,-1.0042 -0.91107,-1.0042 -0.50108,0 -0.91107,0.44558 -0.91107,1.0042 v 3.00597 h -1.82212 v -3.00597 c 0,-0.55198 -0.40999,-1.0042 -0.91107,-1.0042 -0.50109,0 -0.91106,0.44558 -0.91106,1.0042 v 3.00597 h -0.91107 c -0.50108,0 -0.91107,0.44557 -0.91107,1.00421 z m 17.310265,-6.01861 h 10.93278 v 26.05619 h -10.93278 z m 9.10415,10.4943 -1.08678,-5.07422 c -0.0326,-0.23277 -0.24078,-0.40568 -0.48155,-0.40568 h -2.76575 c -0.31887,0 -0.55314,0.29261 -0.46854,0.59189 l 0.46854,2.27441 h -2.34924 c -0.37744,0 -0.61172,0.39239 -0.423,0.70496 l 3.81346,6.2181 c 0.0911,0.14631 0.25381,0.23275 0.423,0.23275 0.31236,0 0.54663,-0.27931 0.47505,-0.57858 l -0.50108,-3.43159 h 2.41432 c 0.29285,0 0.52061,-0.25272 0.48157,-0.53204 z m -23.681215,-2.47393 h 3.64426 v 1.00421 c 0,1.10396 -0.81995,2.00176 -1.82212,2.00176 -1.00219,0 -1.82214,-0.8978 -1.82214,-2.00176 z"
       id="path193942"
       style="fill:#ffffff;fill-opacity:1;stroke-width:0.0657861" /><g
       id="g23064"
       transform="matrix(1.5693031,0,0,1.6695486,-383.06772,-119.75314)"><path
         id="path250570-0"
         style="fill:#ffffff;fill-opacity:1;stroke:none;stroke-width:0.0398529;stroke-opacity:1"
         d="m 301.34762,155.01312 c 0.44479,-0.0637 0.91201,0.015 1.33915,0.24153 0.49435,0.26221 0.91411,0.79754 1.06114,1.34974 0.082,0.30789 0.0782,0.81683 -0.006,1.13852 -0.22871,0.87807 -1.02495,1.51317 -1.95931,1.5695 -0.50152,0.0302 -0.90425,-0.0792 -1.38652,-0.37332 l -0.073,-0.0447 -0.47511,0.47776 0.0297,0.94061 c -0.0837,0.23094 -0.44549,-0.48901 -0.34739,-0.34705 l 2.45419,2.45178 c 0.57087,0.5807 1.09662,1.12152 1.48419,1.52538 0.19379,0.20193 0.35296,0.36964 0.46629,0.49129 0.0567,0.0608 0.10166,0.1099 0.13445,0.1468 0.0164,0.0185 0.0297,0.0339 0.0403,0.0468 0.0106,0.0129 0.0159,0.0154 0.0297,0.0415 0.0546,0.10262 0.0709,0.22836 0.0709,0.35685 10e-6,0.1285 -0.0165,0.25527 -0.0703,0.35862 -0.0896,0.17232 -0.24365,0.31619 -0.41775,0.38216 -0.0456,0.0173 -0.0781,0.0186 -0.13297,0.0241 -0.0548,0.005 -0.12374,0.01 -0.20505,0.0138 -0.16263,0.008 -0.37396,0.0121 -0.60809,0.0121 h -0.68046 l -0.0106,3.10518 c -0.006,1.78762 -0.004,2.62694 -0.0383,3.05722 -0.0169,0.21514 -0.0398,0.3339 -0.0962,0.42511 -0.0564,0.0912 -0.1334,0.12384 -0.19622,0.16415 l -0.13092,0.0841 c -0.0183,0.0117 -0.0395,0.0179 -0.0612,0.018 l -7.33975,-0.009 h -3e-4 l -7.33975,-0.01 c -0.0286,-2e-5 -0.0561,-0.0108 -0.0771,-0.0303 l -0.1065,-0.0994 v -3.1e-4 c -0.0669,-0.0626 -0.134,-0.13701 -0.17357,-0.20534 -0.0177,-0.0305 -0.0162,-0.0412 -0.0191,-0.0565 -0.003,-0.0153 -0.005,-0.0316 -0.007,-0.0509 -0.004,-0.0387 -0.008,-0.0895 -0.0109,-0.15563 -0.007,-0.13221 -0.0127,-0.32513 -0.0179,-0.58926 -0.0105,-0.52826 -0.0184,-1.34103 -0.0256,-2.51179 l -0.0194,-3.11783 -0.72695,-0.0174 c -0.37612,-0.009 -0.58936,-0.0157 -0.73224,-0.0306 -0.14287,-0.0149 -0.22695,-0.0445 -0.29889,-0.0868 -0.34839,-0.20466 -0.47524,-0.6777 -0.28213,-1.03731 0.0282,-0.0525 0.0625,-0.0875 0.12385,-0.15828 0.0614,-0.0708 0.14357,-0.16195 0.24153,-0.268 0.19594,-0.21211 0.45448,-0.48353 0.72901,-0.76372 l 0.96318,-0.98319 0.001,-1.60833 c 4.5e-4,-0.93259 -0.002,-1.3904 0.0388,-1.661 0.0203,-0.1353 0.0544,-0.23155 0.11415,-0.30449 0.0598,-0.0729 0.13165,-0.11078 0.2074,-0.15474 0.078,-0.0453 0.15939,-0.0808 0.31302,-0.0918 0.15363,-0.011 0.39472,-0.008 0.86374,-0.003 0.45134,0.005 0.69356,0.008 0.84521,0.0215 0.15165,0.0131 0.2351,0.0487 0.29507,0.0935 0.21283,0.15904 0.3117,0.34477 0.33156,0.61927 4.5e-4,0.006 0.001,0.008 0.002,0.0141 0.011,-0.0109 0.0161,-0.0156 0.0282,-0.0277 0.10925,-0.10832 0.26567,-0.26458 0.45747,-0.45687 0.38359,-0.3846 0.90886,-0.91369 1.48301,-1.4942 0.57436,-0.58072 1.11355,-1.12336 1.51978,-1.52978 0.20312,-0.20322 0.37296,-0.3724 0.49748,-0.49542 0.12452,-0.12302 0.19416,-0.19184 0.23006,-0.22241 0.23266,-0.19812 0.49944,-0.26229 0.80255,-0.19446 l 0.21946,0.0491 c 0.0214,0.005 0.0409,0.0156 0.0562,0.0312 l 1.67336,1.69865 c 0.92042,0.93427 2.45569,2.4644 2.45569,2.4644 0,0 -0.28186,-0.28123 0,0 v 0 c 0.0191,-0.0231 0.39684,0.41569 0.39684,0.41569 l -0.0552,-0.61889 0.64172,-0.63568 -0.0215,-0.0333 c -0.57243,-0.88607 -0.45024,-1.99588 0.30213,-2.74479 0.33838,-0.33682 0.76084,-0.54264 1.20559,-0.60632 z m 0.29478,0.74312 h -3.1e-4 c -0.34706,0 -0.38601,0.006 -0.58396,0.0986 -0.27987,0.13047 -0.6255,0.48983 -0.73165,0.75371 -0.0712,0.17706 -0.0855,0.2686 -0.0856,0.56838 -1.1e-4,0.34318 10e-4,0.35558 0.11679,0.59161 0.14261,0.29177 0.41358,0.55724 0.70488,0.69135 0.27044,0.12451 0.80314,0.14731 1.06879,0.0488 0.60559,-0.22449 0.91971,-0.73853 0.94524,-1.27091 0.0255,-0.53237 -0.23816,-1.07659 -0.81962,-1.36268 -0.24356,-0.11985 -0.98325,-0.11886 -0.61456,-0.11886 z m -7.38588,-0.10308 c -0.005,4e-5 -0.008,-0.004 -0.0662,0.0385 -0.0583,0.0429 -0.1559,0.12838 -0.3142,0.27948 -0.31661,0.30219 -0.87892,0.86785 -1.91135,1.91165 -1.23047,1.24401 -2.4095,2.43982 -2.61506,2.65212 l -0.37862,0.39098 c -0.0699,0.0721 -0.19207,0.0245 -0.19475,-0.0759 l -0.02,-0.7899 -0.0174,-0.67958 h -0.78607 -0.78461 l -0.0185,1.62452 -0.02,1.7366 c -3e-4,0.0291 -0.0118,0.0571 -0.0321,0.078 l -1.05614,1.08409 c -0.3626,0.37217 -0.62703,0.65059 -0.8005,0.84285 -0.0867,0.0961 -0.15086,0.17096 -0.19181,0.22329 -0.0205,0.0262 -0.0353,0.0467 -0.0432,0.0594 -0.008,0.0127 -0.006,0.0241 -0.002,-0.005 -0.006,0.0505 3e-4,0.0682 -0.006,0.0559 -0.006,-0.0123 -0.0144,-0.006 0.0418,0.005 0.11228,0.0221 0.39817,0.0268 0.94582,0.0268 h 1.01142 c 0.0625,7e-5 0.1132,0.0507 0.11327,0.11326 v 3.38466 c 0,1.51182 0.002,2.35984 0.0106,2.83452 0.004,0.23734 0.0104,0.38198 0.0183,0.46511 0.008,0.0831 0.03,0.0965 9e-4,0.0674 -0.0273,-0.0272 -0.0154,-0.007 0.0644,9.1e-4 0.0802,0.008 0.2198,0.0139 0.44893,0.0182 0.45826,0.009 1.27643,0.0106 2.73391,0.0106 0.89761,0 1.71369,-0.004 2.30498,-0.009 0.29564,-0.003 0.53525,-0.006 0.70017,-0.01 0.008,-1.5e-4 0.0106,-4.5e-4 0.0182,-6e-4 -0.003,-0.003 -0.004,-0.005 -0.007,-0.008 -0.10201,-0.10729 -0.24349,-0.25201 -0.39922,-0.40745 l -0.53513,-0.53425 h -0.61132 -0.59015 l -0.0447,0.083 c -0.0611,0.11354 -0.17424,0.21834 -0.29213,0.28742 -0.28178,0.16514 -0.65625,0.14413 -0.91463,-0.0529 -0.4539,-0.34621 -0.43748,-1.03972 0.035,-1.35239 0.14491,-0.0959 0.26526,-0.12827 0.47336,-0.12827 0.21536,0 0.32802,0.0344 0.4654,0.13915 0.0965,0.0736 0.19294,0.16951 0.24595,0.26271 l 0.0318,0.0559 0.68487,3e-4 0.75078,3e-4 c 0.0306,-3e-5 0.0598,0.0123 0.0812,0.0341 l 0.62398,0.6381 c 0.17098,0.17474 0.33019,0.33381 0.44776,0.44834 0.0138,0.0134 0.0204,0.0193 0.033,0.0315 0.005,-0.14075 0.009,-0.33659 0.009,-0.5519 v -0.74136 l -0.75606,-0.75254 -0.75607,-0.75283 h -1.18971 -1.17499 l -0.0627,0.0968 c -0.16454,0.25305 -0.39434,0.38181 -0.68575,0.38097 -0.47305,-0.001 -0.83219,-0.3422 -0.83374,-0.80108 -9e-4,-0.26695 0.0905,-0.48923 0.27507,-0.64457 0.38918,-0.32746 0.95651,-0.22911 1.24413,0.2077 l 0.0627,0.0953 h 0.92847 c 0.2712,0 0.51784,-0.003 0.69546,-0.009 0.0246,-7.5e-4 0.0358,-0.002 0.0577,-0.003 -0.0184,-0.0194 -0.029,-0.031 -0.0503,-0.0532 -0.12561,-0.1309 -0.29939,-0.30786 -0.49071,-0.49894 l -0.69723,-0.69635 c -0.0213,-0.0213 -0.0333,-0.0502 -0.0332,-0.0803 v -0.61486 -0.56808 l -0.49482,-0.49954 c -0.25078,-0.25326 -0.38617,-0.3864 -0.45806,-0.44216 -0.0359,-0.0279 -0.0523,-0.0335 -0.055,-0.0341 -0.003,-6e-4 -0.002,-0.002 -0.0262,0.004 -0.42121,0.10634 -0.79105,-0.0861 -0.96465,-0.38597 -0.1736,-0.29989 -0.15218,-0.71385 0.15739,-1.01525 0.38917,-0.37891 1.05451,-0.26225 1.30326,0.22535 0.0722,0.1416 0.0922,0.26512 0.0765,0.4657 l -0.015,0.19122 0.29713,0.30596 c 0.0652,0.0672 0.11796,0.11695 0.17063,0.1671 9e-4,-0.0338 0.002,-0.0557 0.003,-0.0962 0.004,-0.19599 0.006,-0.46449 0.006,-0.75724 v -1.00849 l -0.11003,-0.0782 c -0.3022,-0.21569 -0.45102,-0.57032 -0.36156,-0.90258 0.0693,-0.25743 0.21541,-0.44533 0.43452,-0.54484 0.28377,-0.12887 0.58157,-0.10373 0.80579,0.0383 0.22421,0.14197 0.37271,0.40021 0.37362,0.71017 9e-4,0.29142 -0.12793,0.52122 -0.38098,0.68576 l -0.0965,0.063 v 1.05673 0.84579 l 0.16033,-0.15974 0.31684,-0.31508 -0.0159,-0.19593 c -0.0259,-0.32292 0.0721,-0.57313 0.30272,-0.74901 0.11553,-0.0881 0.26569,-0.13354 0.41922,-0.14739 0.15353,-0.0138 0.31135,0.004 0.44511,0.0677 0.22483,0.10668 0.41332,0.3516 0.45923,0.59632 0.10604,0.56523 -0.45452,1.09526 -1.00995,0.95288 l -0.10032,-0.0256 -0.48248,0.4807 -0.49482,0.49307 v 0.45187 0.45217 l 0.61485,0.61398 c 0.17772,0.17747 0.34263,0.33895 0.46453,0.4554 0.018,0.0172 0.0272,0.0252 0.0433,0.0403 0.003,-0.0668 0.006,-0.13185 0.006,-0.21682 v -0.39098 l -0.14327,-0.10561 h -3.1e-4 c -0.23819,-0.1756 -0.35967,-0.4344 -0.35361,-0.69135 0.006,-0.25695 0.13935,-0.51084 0.38509,-0.67811 0.30078,-0.20473 0.69023,-0.17833 0.97524,0.0615 0.4184,0.35205 0.37926,1.00348 -0.0744,1.32326 l -0.12385,0.0874 v 0.64133 0.6531 l 0.58426,0.58368 0.42452,0.42363 v -3.31346 -3.5397 l -0.45453,-0.4507 -0.44511,-0.44128 -0.14444,0.0306 c -0.19275,0.0409 -0.29259,0.0274 -0.49248,-0.0712 -0.28599,-0.14108 -0.45744,-0.37413 -0.486,-0.67134 -0.0225,-0.23452 0.0592,-0.45285 0.23329,-0.64428 0.36252,-0.39855 1.05108,-0.30296 1.31974,0.17505 0.0866,0.15404 0.10607,0.26361 0.0862,0.50071 l -0.018,0.21505 0.39833,0.39686 0.35538,0.3545 0.3751,-0.37391 c 0.20596,-0.20538 0.31873,-0.32233 0.36626,-0.38481 0.0238,-0.0312 0.0285,-0.0465 0.0283,-0.0453 -3e-4,0.001 0.002,0.0124 -0.002,9e-4 -0.14023,-0.36883 0.0584,-0.82285 0.42364,-1.01289 0.11586,-0.0603 0.25621,-0.0771 0.39804,-0.0683 0.14182,0.009 0.28511,0.0447 0.40362,0.11414 0.36474,0.21375 0.49558,0.70297 0.2992,1.08792 -0.0873,0.17112 -0.24333,0.29982 -0.41628,0.37597 -0.17296,0.0761 -0.36736,0.10256 -0.53896,0.0368 -0.0271,-0.0104 -0.029,-0.009 -0.0247,-0.009 0.004,-4.5e-4 -0.004,-0.001 -0.0362,0.0226 -0.064,0.0474 -0.19569,0.17565 -0.44628,0.4257 l -0.47718,0.47629 v 2.50385 2.27703 l 0.6834,-0.68281 0.84345,-0.84286 v -0.65516 -0.64163 l -0.10385,-0.0688 c -0.21954,-0.14528 -0.37494,-0.42462 -0.37333,-0.6834 v -3e-4 c 0.003,-0.41289 0.32929,-0.77847 0.73606,-0.81756 0.28649,-0.0275 0.52499,0.0612 0.71077,0.26683 0.35255,0.39024 0.2506,1.03639 -0.20858,1.27385 l -0.0562,0.0291 v 0.39539 0.19711 l 0.17651,-0.17092 c 0.20259,-0.19625 0.80351,-0.77922 1.33504,-1.29532 v -3e-4 l 0.93199,-0.90464 v -0.94082 -0.94229 l -1.02319,-1.0479 c -0.58016,-0.59419 -1.70551,-1.74016 -2.50033,-2.54622 -0.66843,-0.67788 -1.03307,-1.04466 -1.24118,-1.23766 -0.10406,-0.0965 -0.16949,-0.14943 -0.20711,-0.17327 -0.0376,-0.0238 -0.0351,-0.0202 -0.0491,-0.02 z m 1.60245,4.8253 c -0.0357,-0.008 -0.0895,0.002 -0.15886,0.0565 -0.0856,0.0673 -0.0899,0.17731 -0.005,0.25683 0.0839,0.0788 0.15637,0.0662 0.21476,0.0221 0.0584,-0.0441 0.0958,-0.1228 0.0494,-0.233 -0.0299,-0.071 -0.0645,-0.0949 -0.10002,-0.10238 z m -3.10841,0 c -0.0356,-0.007 -0.0899,0.002 -0.15916,0.0565 -0.0808,0.0635 -0.0859,0.19142 -0.0103,0.26183 0.0823,0.0767 0.15571,0.0639 0.21623,0.0179 0.0605,-0.046 0.0983,-0.12595 0.053,-0.23388 -0.0299,-0.0712 -0.0643,-0.0949 -0.0997,-0.10238 z m 7.20177,0.88346 c -0.006,0.14082 -0.01,0.34479 -0.01,0.60868 v 0.85668 c 3e-5,0.0306 -0.0123,0.0598 -0.0341,0.0812 l -0.72724,0.71017 c -0.39983,0.39051 -1.02298,1.0019 -1.38446,1.35798 l -0.46011,0.45305 0.16121,-3e-4 0.3748,-0.001 0.07,-0.11591 c 0.14388,-0.23738 0.38535,-0.3598 0.68928,-0.3598 0.25033,0 0.43928,0.0807 0.60986,0.26095 0.2386,0.25218 0.28401,0.6034 0.1268,0.92817 -0.26978,0.55729 -1.06179,0.61831 -1.41418,0.10914 l -0.0774,-0.11208 -0.61868,-0.002 -0.63074,-0.001 -1.01231,1.01289 -1.0129,1.01349 v 1.75572 c 0,0.49534 0.004,0.94562 0.009,1.27149 0.002,0.12386 0.005,0.20949 0.007,0.29272 0.0999,-0.0945 0.2339,-0.22507 0.37804,-0.36891 l 0.49512,-0.49424 -10e-4,-0.67046 -0.002,-0.65546 -0.0735,-0.0465 c -0.3072,-0.19356 -0.46174,-0.57154 -0.36098,-0.90787 0.10783,-0.35988 0.42081,-0.60454 0.78637,-0.6075 0.23116,-0.002 0.43437,0.0694 0.58074,0.20593 0.14636,0.13657 0.23133,0.33421 0.24447,0.56426 0.009,0.16199 -0.008,0.30195 -0.0671,0.4251 -0.0588,0.12316 -0.1566,0.22267 -0.28624,0.31067 l -0.11592,0.0786 v 0.37568 c 0,0.0795 0.003,0.13943 0.006,0.20269 0.0281,-0.0266 0.048,-0.0449 0.0824,-0.078 0.1462,-0.14073 0.34453,-0.33561 0.55896,-0.54984 l 0.74518,-0.74489 -0.0129,-0.23476 c -0.007,-0.12422 -0.008,-0.20889 0.005,-0.28831 0.0137,-0.0794 0.0445,-0.14665 0.0868,-0.21917 0.21526,-0.36935 0.70664,-0.50289 1.09498,-0.30478 0.60377,0.30802 0.58704,1.18557 -0.0262,1.48243 -0.15639,0.0757 -0.27262,0.0926 -0.48512,0.0703 l -0.19269,-0.02 -0.52013,0.53013 c -0.30682,0.31292 -0.6565,0.67307 -0.77431,0.79726 l -0.0359,0.0379 h 0.1621 0.35685 l 0.0303,-0.0585 c 0.20892,-0.40402 0.78508,-0.5272 1.17676,-0.268 0.31719,0.2099 0.45628,0.63176 0.32272,0.98524 -0.0688,0.18204 -0.23923,0.36199 -0.41804,0.45541 -0.10378,0.0542 -0.23167,0.0674 -0.36421,0.0671 -0.13254,-3e-4 -0.26159,-0.0147 -0.36568,-0.0686 -0.0886,-0.0458 -0.17525,-0.12738 -0.25624,-0.2127 -0.0405,-0.0427 -0.0771,-0.0853 -0.1062,-0.12532 -0.0121,-0.0167 -0.0222,-0.0333 -0.0318,-0.0503 -0.0257,-0.003 -0.058,-0.006 -0.10591,-0.009 -0.11294,-0.007 -0.27872,-0.0106 -0.47865,-0.0106 h -0.62103 l -0.54337,0.54484 -0.38392,0.3845 2.99397,-0.001 c 1.0723,-4.5e-4 1.89485,-0.004 2.45443,-0.0115 0.27979,-0.004 0.49403,-0.008 0.63986,-0.0129 0.0729,-0.003 0.12902,-0.005 0.16622,-0.008 0.001,-0.007 0.002,-0.005 0.003,-0.0153 0.008,-0.0649 0.0154,-0.19318 0.02,-0.42011 0.009,-0.45385 0.0103,-1.30632 0.0103,-2.90689 v -3.40554 c 7e-5,-0.0625 0.0507,-0.1132 0.11327,-0.11327 h 1.01525 0.95406 l 0.0297,-0.0456 3e-4,-3e-4 c 0.0207,-0.0316 0.0233,-0.0448 0.0232,-0.0441 -8e-5,7.6e-4 0.003,0.002 -0.009,-0.02 0.014,0.0261 0.006,0.009 -9.1e-4,0.001 -0.007,-0.008 -0.0181,-0.0205 -0.0324,-0.0362 -0.0285,-0.0313 -0.0699,-0.0755 -0.12179,-0.13033 -0.10378,-0.10971 -0.24993,-0.26216 -0.42422,-0.44246 -0.34859,-0.3606 -0.80976,-0.83343 -1.2712,-1.30385 -0.46144,-0.47042 -0.92314,-0.93863 -1.27325,-1.29032 -0.17506,-0.17584 -0.32229,-0.32239 -0.42717,-0.4254 -0.006,-0.005 -0.008,-0.007 -0.0132,-0.0127 z m -9.24492,0.28948 c -0.0763,0.2209 -0.37422,-0.0538 -0.0738,0.29596 0.0891,0.0837 0.19127,0.077 0.25624,-0.006 0.0526,-0.0669 0.0604,-0.11419 0.0515,-0.1518 -0.009,-0.0376 -0.0405,-0.0825 -0.1215,-0.12562 -0.0449,-0.0239 -0.0786,-0.0238 -0.11238,-0.0129 z m 5.77407,1.73984 c -0.0208,-0.001 -0.0486,0.007 -0.10091,0.0594 -0.0808,0.0808 -0.0813,0.1961 -0.0179,0.25947 0.0634,0.0634 0.17867,0.0629 0.25947,-0.0179 0.0523,-0.0523 0.0604,-0.0803 0.0594,-0.1012 -10e-4,-0.0209 -0.017,-0.0608 -0.078,-0.1218 -0.061,-0.061 -0.10107,-0.0769 -0.12209,-0.078 z m -4.1319,0.15386 c -0.15548,0.0889 -0.14063,0.0521 -0.17857,0.18564 0.0902,0.17469 0.0581,0.13769 0.18563,0.18563 0.16914,-0.10642 0.14013,0.0141 0.18563,-0.20064 -0.12656,-0.16099 0.0935,-0.11953 -0.19269,-0.17063 z m -3.22962,0.009 c -0.0591,0.0182 -0.11347,0.0765 -0.13121,0.13738 -0.0177,0.0609 -0.0119,0.11315 0.0559,0.16651 0.0684,0.0538 0.11928,0.0634 0.15504,0.0565 0.0358,-0.007 0.0738,-0.0319 0.1112,-0.10415 0.023,-0.0444 0.0279,-0.0636 0.0285,-0.0738 6e-4,-0.0102 -10e-4,-0.0256 -0.0188,-0.0677 -0.008,-0.0204 -0.0244,-0.0472 -0.0403,-0.0677 -0.0159,-0.0205 -0.036,-0.0347 -0.0288,-0.0309 -0.0515,-0.0276 -0.0923,-0.0283 -0.1315,-0.0162 z m 9.5397,2.04668 c -0.12176,-0.0385 -0.23266,0.30818 -0.2277,0.19504 0.0315,0.0992 0.35667,0.0981 0.2483,0.1471 0.0667,-0.0243 0.11914,-0.0803 0.11914,-0.17357 0,-0.10094 -0.0614,-0.15167 -0.13974,-0.16857 z m -6.11327,0.33538 c -0.13682,0 -0.22075,0.18122 -0.13209,0.28801 0.009,0.0106 0.0934,0.0625 0.13062,0.0697 0.043,0.008 0.0555,0.006 0.0641,0.003 0.009,-0.003 0.0268,-0.0135 0.0632,-0.05 0.0694,-0.0694 0.0753,-0.14262 0.0506,-0.20299 -0.0247,-0.0604 -0.0792,-0.10797 -0.17652,-0.10797 z m 5.87056,2.09522 c -0.1233,-0.0478 -0.23052,0.30415 -0.22387,0.19564 10e-4,0.0121 0.0112,0.0363 0.0544,0.0912 0.0964,0.12256 0.31272,0.057 0.31272,-0.0868 0,-0.11658 -0.0677,-0.17923 -0.14327,-0.20005 z m -9.1696,0.13651 c -0.14337,0 -0.22349,0.23044 -0.11062,0.32184 0.0671,0.0543 0.13636,0.0551 0.19475,0.0268 0.0584,-0.0283 0.10238,-0.0847 0.10238,-0.1724 0,-0.0304 -0.0214,-0.0789 -0.0603,-0.11649 -0.0389,-0.0376 -0.0905,-0.0597 -0.1262,-0.0597 z m 6.6231,0.20387 c -0.16841,0.0729 -0.1695,0.008 -0.19211,0.16592 0.14721,0.20188 -0.005,0.23562 0.23712,0.1874 0.14213,-0.16683 0.21002,-0.15637 0.0735,-0.2886 -0.0215,-0.0166 -0.10058,-0.0597 -0.11855,-0.0647 z m -5.34838,2.14759 c -0.0833,0 -0.13845,0.0436 -0.16622,0.1012 -0.0278,0.0576 -0.0268,0.12317 0.025,0.18445 0.0442,0.0522 0.0927,0.0698 0.14386,0.0665 0.0511,-0.003 0.10788,-0.0304 0.1568,-0.0935 0.0669,-0.0864 -0.0266,-0.25859 -0.15945,-0.25859 z m 7.54833,0.0535 c -0.22826,0.0124 -0.12209,-0.0724 -0.22623,0.0832 -0.0837,0.12262 0.26321,0.30821 0.1518,0.27419 0.14155,-0.0778 0.12631,-0.0696 0.17916,-0.14798 -0.0289,-0.17234 -0.0311,-0.16043 -0.10473,-0.20946 z"
         sodipodi:nodetypes="cssssccccccsssscssssssccsscccccccccssssscccssssscccsssssssscssssssscccccccccsscccsssscssssscsssssccccccccccsssccssccssscssssscccccccsssssscccccscsccccccsssccsscsscccccsscsssccccssccsssccccccccssssccccccsscscccsssccccccccccssssscccccsscsssssscccccccccccssssccccccccccssssssssssssssssssssssccccccccsssccccccssccccccsssssccscscccsssscccccccsssssssscssccccssccssccccccscssssssscsscssssscssscsccccccsssssssscscccscssssssssccsscsssssscccccssssssccccc" /><rect
         style="fill:#ffffff;fill-opacity:1;stroke:none;stroke-width:0.0159681;stroke-linejoin:bevel;stroke-dasharray:none;stroke-opacity:1"
         id="rect250678-5-6"
         width="1.8488312"
         height="0.79202795"
         x="-154.50636"
         y="-301.98331"
         ry="0.31115371"
         transform="matrix(0,-1,-1,0,0,0)" /><rect
         style="fill:#ffffff;fill-opacity:1;stroke:none;stroke-width:0.0159681;stroke-linejoin:bevel;stroke-dasharray:none;stroke-opacity:1"
         id="rect250678-5-6-6"
         width="1.8488312"
         height="0.79202795"
         x="-161.74803"
         y="-301.9913"
         ry="0.31115371"
         transform="matrix(0,-1,-1,0,0,0)" /><rect
         style="fill:#ffffff;fill-opacity:1;stroke:none;stroke-width:0.0159681;stroke-linejoin:bevel;stroke-dasharray:none;stroke-opacity:1"
         id="rect250678-5-6-6-0"
         width="1.8488312"
         height="0.79202795"
         x="297.1402"
         y="-157.58768"
         ry="0.31115371"
         transform="scale(1,-1)" /><rect
         style="fill:#ffffff;fill-opacity:1;stroke:none;stroke-width:0.0159681;stroke-linejoin:bevel;stroke-dasharray:none;stroke-opacity:1"
         id="rect250678-5-6-6-0-3"
         width="1.8488312"
         height="0.79202795"
         x="304.27133"
         y="-157.58768"
         ry="0.31115371"
         transform="scale(1,-1)" /><rect
         style="fill:#ffffff;fill-opacity:1;stroke:none;stroke-width:0.0159681;stroke-linejoin:bevel;stroke-dasharray:none;stroke-opacity:1"
         id="rect250678-5-6-6-0-9"
         width="1.8488312"
         height="0.79202795"
         x="332.22751"
         y="83.804688"
         ry="0.31115371"
         transform="matrix(0.74457293,0.66754112,0.66754112,-0.74457293,0,0)" /><rect
         style="fill:#ffffff;fill-opacity:1;stroke:none;stroke-width:0.0159681;stroke-linejoin:bevel;stroke-dasharray:none;stroke-opacity:1"
         id="rect250678-5-6-6-0-9-6"
         width="1.8488312"
         height="0.79202795"
         x="325.10925"
         y="83.855232"
         ry="0.31115371"
         transform="matrix(0.74457293,0.66754112,0.66754112,-0.74457293,0,0)" /><rect
         style="fill:#ffffff;fill-opacity:1;stroke:none;stroke-width:0.0159681;stroke-linejoin:bevel;stroke-dasharray:none;stroke-opacity:1"
         id="rect250678-5-6-6-0-9-9"
         width="1.8488312"
         height="0.79202795"
         x="86.92112"
         y="-330.28018"
         ry="0.31115371"
         transform="matrix(0.66754112,-0.74457293,-0.74457293,-0.66754112,0,0)" /></g><ellipse
       style="fill:none;fill-opacity:1;stroke:#ff0000;stroke-width:0.809897;stroke-linejoin:bevel"
       id="path40676-8-1"
       cx="-14.255973"
       cy="-254.81683"
       transform="scale(1,-1)"
       rx="15.242759"
       ry="14.696952" /><path
       style="fill:#ffffff;fill-opacity:1;stroke-width:0.0104242"
       d="m -13.941054,262.08328 c 0.696495,-0.0379 1.344455,-0.26595 1.922223,-0.67643 l 0.140631,-0.0999 0.204337,-0.0642 c 0.566154,-0.17802 1.068068,-0.40823 1.528428,-0.701 0.08586,-0.0547 0.130142,-0.0759 0.1912449,-0.0916 0.183369,-0.0472 0.464339,-0.18046 0.699847,-0.33179 0.149936,-0.0963 0.38924,-0.28736 0.499919,-0.39906 0.318776,-0.32167 0.534249,-0.69587 0.621402,-1.0793 0.0177,-0.0777 0.06211,-0.20145 0.136029,-0.37852 0.124576,-0.29842 0.180223,-0.4582 0.221532,-0.63511 0.02283,-0.0977 0.03493,-0.12873 0.05915,-0.15235 0.320813,-0.31084 0.509225,-0.59233 0.614024,-0.9173 0.06337,-0.19624 0.08046,-0.30667 0.08063,-0.52036 1.42e-4,-0.10664 -0.0067,-0.22757 -0.01519,-0.27698 -0.07946,-0.45134 -0.297249,-0.85264 -0.658935,-1.21413 -0.09797,-0.098 -0.33714,-0.2794 -0.450249,-0.34161 -0.08595,-0.0472 -0.111156,-0.0677 -0.1714,-0.13849 l -0.07067,-0.0831 -0.0075,-0.15234 c -0.05189,-0.97827 -0.505853,-1.58849 -1.515259,-2.03686 -0.06462,-0.0287 -0.1157999,-0.0532 -0.1139889,-0.0545 0.0011,-7.5e-4 0.05643,-0.0137 0.1210899,-0.0274 0.170217,-0.0361 0.275759,-0.0772 0.359561,-0.13986 0.07075,-0.053 0.128964,-0.13037 0.146061,-0.19438 0.0067,-0.0266 0.01519,-0.0313 0.08577,-0.0491 0.180904,-0.0459 0.340584,-0.12067 0.418715,-0.19621 0.04666,-0.0452 0.09572,-0.11843 0.127284,-0.19049 0.0188,-0.0429 0.04628,-0.0697 0.190665,-0.18505 0.142463,-0.11395 0.175708,-0.14608 0.213949,-0.20678 0.03885,-0.0617 0.04561,-0.0816 0.04775,-0.14068 l 0.0026,-0.0689 0.08262,-0.06 c 0.154125,-0.11197 0.216653,-0.21516 0.214778,-0.35456 -4.82e-4,-0.0436 -0.0059,-0.0932 -0.01063,-0.11024 -0.0075,-0.0297 -0.0059,-0.0344 0.08837,-0.10716 0.176321,-0.13833 0.228811,-0.28228 0.14537,-0.39873 l -0.02661,-0.0371 0.04362,-0.0535 c 0.05664,-0.0695 0.109339,-0.15844 0.13007,-0.21945 0.03424,-0.10061 0.01351,-0.18927 -0.06698,-0.28903 -0.03367,-0.0416 -0.03566,-0.0481 -0.02225,-0.0734 0.04545,-0.0869 0.06048,-0.14904 0.05628,-0.23554 -0.0026,-0.0707 -0.01063,-0.0976 -0.03451,-0.1385 -0.04425,-0.0737 -0.103297,-0.12184 -0.197409,-0.16064 -0.104568,-0.0431 -0.208452,-0.0605 -0.365545,-0.0612 l -0.12353,-3.9e-4 -0.03755,-0.04 c -0.07423,-0.0793 -0.250174,-0.14784 -0.439142,-0.17122 -0.042,-0.005 -0.14471,-0.01 -0.228093,-0.01 l -0.15157,-7e-5 -0.04697,-0.0334 c -0.02592,-0.0183 -0.07681,-0.0443 -0.113235,-0.0577 -0.06152,-0.0226 -0.07797,-0.0243 -0.238382,-0.025 l -0.172232,-3.9e-4 -0.04539,-0.0281 c -0.102867,-0.0636 -0.2196579,-0.0949 -0.3538589,-0.095 -0.106491,-1.3e-4 -0.186176,0.0128 -0.294793,0.0479 l -0.0853,0.0276 -0.126519,-0.0569 -0.126499,-0.0569 -0.09572,0.006 c -0.1087,0.006 -0.216772,0.0297 -0.346982,0.0763 l -0.08959,0.0321 -0.06344,-0.0148 c -0.172928,-0.0405 -0.301542,-0.0266 -0.463511,0.0497 -0.05164,0.0244 -0.107422,0.05 -0.12354,0.0568 -0.0199,0.008 -0.08038,0.0128 -0.188297,0.0135 -0.113612,3.9e-4 -0.176332,0.006 -0.220124,0.0167 -0.09014,0.0229 -0.218976,0.0951 -0.338684,0.18993 l -0.105736,0.0837 h -0.110009 c -0.106637,0 -0.112435,7.4e-4 -0.188633,0.0361 -0.329158,0.15079 -0.612354,0.40788 -0.819764,0.74415 -0.06897,0.11174 -0.194156,0.35527 -0.212441,0.41317 -0.0059,0.014 -0.01158,0.0253 -0.01581,0.0252 -0.0037,-8e-5 -0.02817,-0.0406 -0.05332,-0.09 -0.118383,-0.23303 -0.314922,-0.51417 -0.489637,-0.70035 -0.114397,-0.12185 -0.355486,-0.30898 -0.484074,-0.37567 l -0.101375,-0.0525 h -0.109229 -0.109219 l -0.136615,-0.10388 c -0.208011,-0.15813 -0.3333,-0.19959 -0.566766,-0.18754 l -0.112309,0.006 -0.111286,-0.0526 c -0.178741,-0.0845 -0.201037,-0.0907 -0.328996,-0.0905 -0.0723,1.2e-4 -0.137139,0.006 -0.183606,0.0168 l -0.07172,0.0166 -0.134169,-0.0457 c -0.169358,-0.0576 -0.239262,-0.0708 -0.3376,-0.0635 -0.08096,0.006 -0.199905,0.0435 -0.269593,0.0852 l -0.03816,0.0229 -0.07105,-0.0234 c -0.235033,-0.0776 -0.478825,-0.0668 -0.740065,0.0331 l -0.121729,0.0465 -0.08063,-0.01 c -0.115162,-0.014 -0.232421,-0.0121 -0.306416,0.005 -0.04926,0.0113 -0.07814,0.0262 -0.125992,0.0647 l -0.06203,0.05 -0.138062,1.8e-4 c -0.0759,1e-4 -0.173176,0.004 -0.216117,0.009 -0.192958,0.0219 -0.367282,0.0881 -0.44721,0.16975 l -0.03951,0.0403 -0.141363,0.005 c -0.155967,0.005 -0.229624,0.0216 -0.329257,0.0733 -0.172385,0.0896 -0.231892,0.29324 -0.139775,0.4784 l 0.03436,0.0692 -0.03839,0.0815 c -0.09182,0.19507 -0.07823,0.31191 0.05494,0.47237 l 0.04933,0.0595 -0.01371,0.0638 c -0.02753,0.12859 0.03854,0.28307 0.194487,0.45394 0.03739,0.0409 0.03753,0.0427 0.02651,0.10031 -0.01521,0.0782 0.0024,0.15394 0.05531,0.23832 0.03229,0.0515 0.06351,0.0824 0.139707,0.13849 l 0.09817,0.0722 0.01343,0.0716 c 0.0254,0.13572 0.09998,0.24199 0.242409,0.34597 0.04711,0.0343 0.122125,0.0795 0.166708,0.10026 0.07872,0.0367 0.08196,0.0397 0.111802,0.10322 0.08698,0.18506 0.231184,0.2831 0.531137,0.36141 0.07598,0.0199 0.07972,0.0223 0.09229,0.0591 0.03388,0.0989 0.119155,0.18691 0.234104,0.24168 0.05834,0.0278 0.22819,0.0775 0.352431,0.10293 l 0.04023,0.008 -0.179007,0.0876 c -0.564939,0.27646 -0.915399,0.56076 -1.143575,0.92778 -0.19445,0.31274 -0.284467,0.62967 -0.312078,1.09871 l -0.0075,0.12925 -0.06926,0.0833 c -0.04196,0.0503 -0.08456,0.0902 -0.107668,0.10076 -0.08977,0.0407 -0.26584,0.15225 -0.377902,0.23932 -0.416465,0.3236 -0.706062,0.75924 -0.807982,1.21541 -0.03686,0.1651 -0.04514,0.43377 -0.01852,0.59811 0.07142,0.43999 0.322519,0.85492 0.735271,1.21504 0.0565,0.0493 0.08754,0.085 0.09637,0.1108 0.03546,0.10384 0.142104,0.35846 0.269208,0.64237 0.101168,0.22569 0.146251,0.34016 0.159138,0.40296 0.08616,0.41996 0.312078,0.81572 0.66095,1.15781 0.108712,0.10657 0.362191,0.30476 0.498452,0.38968 0.223691,0.13943 0.529375,0.28032 0.688191,0.31719 0.04283,0.01 0.09913,0.0389 0.203201,0.10443 0.466337,0.29365 0.963699,0.51842 1.544849,0.69818 0.159551,0.0494 0.17604,0.0568 0.253061,0.11438 0.57971,0.43335 1.249443,0.67237 1.994893,0.71193 0.188219,0.01 0.239141,0.01 0.429591,-3.9e-4 z m -0.55088,-0.45745 c -0.251347,-0.027 -0.468732,-0.0825 -0.755535,-0.19293 -0.47978,-0.18468 -0.977187,-0.51695 -1.047254,-0.69955 -0.08921,-0.23253 0.450285,-0.47856 1.27661,-0.58219 0.140934,-0.0177 0.201926,-0.0198 0.535657,-0.0187 0.256164,3.9e-4 0.433696,0.006 0.555126,0.0161 0.820863,0.0688 1.556327,0.28275 1.716479,0.49922 0.04006,0.0544 0.04691,0.0971 0.02403,0.15137 -0.04586,0.10829 -0.246802,0.28388 -0.48927,0.42754 -0.419757,0.24869 -0.861799,0.38679 -1.335527,0.41725 -0.08754,0.006 -0.35232,-0.004 -0.480237,-0.0181 z m -3.211786,-1.45776 c -0.601733,-0.0624 -1.169118,-0.35259 -1.631673,-0.83465 -0.231001,-0.24071 -0.355881,-0.47463 -0.422014,-0.7904 -0.03277,-0.1573 -0.0296,-0.54745 0.0067,-0.71093 0.06233,-0.286 0.183714,-0.54905 0.30401,-0.65929 0.04984,-0.0456 0.177736,-0.0961 0.284403,-0.11226 0.163662,-0.0248 0.380626,0.01 0.608239,0.0971 0.382801,0.14674 0.776756,0.416 1.230031,0.84064 0.336735,0.3155 0.594104,0.73578 0.700228,1.1435 0.101381,0.3892 0.04503,0.69684 -0.156346,0.85485 -0.05053,0.0396 -0.09775,0.0648 -0.17973,0.0956 -0.217887,0.0819 -0.452955,0.10592 -0.743216,0.0759 z m 6.400471,-0.0225 c -0.160995,-0.0346 -0.233623,-0.0657 -0.293421,-0.12548 -0.12433,-0.12429 -0.172651,-0.24752 -0.181579,-0.46335 -0.0085,-0.22975 0.02885,-0.41952 0.13351,-0.66116 0.11322,-0.26127 0.285509,-0.49707 0.514131,-0.70338 0.369709,-0.33366 0.755933,-0.56685 1.1440469,-0.69075 0.214516,-0.0686 0.312277,-0.0844 0.517838,-0.0843 0.16242,9e-5 0.183994,0.002 0.269403,0.0255 0.115822,0.0318 0.175327,0.0589 0.24098,0.10969 0.17506,0.13544 0.259746,0.34276 0.260301,0.63706 3.71e-4,0.21563 -0.0488,0.43089 -0.151418,0.66368 -0.137113,0.31088 -0.293227,0.51554 -0.562903,0.73805 -0.373625,0.30824 -0.8105879,0.49955 -1.2980089,0.56826 -0.13827,0.0195 -0.474461,0.0117 -0.59288,-0.0138 z m -3.241462,-0.58286 c -0.601446,-0.0515 -1.13381,-0.28621 -1.478934,-0.65211 -0.08568,-0.091 -0.199592,-0.25797 -0.247384,-0.36295 -0.338013,-0.74285 0.13374,-1.52976 1.111829,-1.85451 0.438665,-0.14565 0.985522,-0.17915 1.456549,-0.0892 0.232356,0.0443 0.459564,0.12199 0.65605,0.22417 0.140108,0.0729 0.179663,0.0982 0.310047,0.19893 0.293814,0.22692 0.475005,0.49923 0.544878,0.81894 0.02513,0.11445 0.0189,0.35603 -0.01158,0.47086 -0.0971,0.35996 -0.343479,0.65891 -0.740621,0.89857 -0.435389,0.26274 -1.044269,0.3949 -1.600203,0.34732 z m 6.1036119,-2.2993 c -0.304617,-0.12192 -0.592759,-0.78651 -0.694139,-1.60102 -0.01937,-0.15643 -0.01932,-0.57351 3.45e-4,-0.68784 0.04425,-0.25792 0.125462,-0.41257 0.250839,-0.47767 0.04006,-0.0208 0.06233,-0.0254 0.120824,-0.0254 0.06521,0 0.07988,0.004 0.161989,0.0442 0.532773,0.26049 0.888317,0.66193 1.011679,1.14224 0.02403,0.0934 0.02733,0.133 0.02733,0.32777 7.9e-5,0.14367 -0.0059,0.24593 -0.01576,0.29083 -0.06758,0.29929 -0.208262,0.5696 -0.404671,0.77746 -0.08987,0.0951 -0.254829,0.22569 -0.292782,0.23183 -0.04556,0.007 -0.115151,-0.002 -0.165928,-0.0222 z m -11.5600499,-0.0357 c -0.04498,-0.0134 -0.204766,-0.1454 -0.293409,-0.24228 -0.04321,-0.0472 -0.115421,-0.14335 -0.160624,-0.21364 -0.375353,-0.58445 -0.339041,-1.29263 0.09219,-1.79859 0.156232,-0.18327 0.331625,-0.32119 0.572515,-0.45017 0.161827,-0.0866 0.204717,-0.10245 0.278288,-0.10245 0.258737,0 0.409782,0.26782 0.429626,0.76171 0.02608,0.64898 -0.217979,1.52431 -0.523004,1.87591 -0.05605,0.0647 -0.164079,0.1465 -0.217084,0.16457 -0.04465,0.0153 -0.135579,0.0178 -0.178525,0.005 z m 8.107125,-0.38305 c -0.803604,-0.13008 -1.462508,-0.61858 -1.751541,-1.29857 -0.26758,-0.6295 -0.133835,-1.2736 0.345574,-1.66435 0.236294,-0.19259 0.482515,-0.30276 0.800656,-0.35826 0.178427,-0.0311 0.487652,-0.0308 0.682636,3.8e-4 0.549492,0.0887 1.086065,0.35916 1.473667,0.74282 0.215908,0.21371 0.3833279,0.5251 0.4626889,0.86046 0.02676,0.11303 0.03645,0.4115 0.01755,0.53836 -0.05043,0.33906 -0.2297069,0.63495 -0.5171899,0.85365 -0.262229,0.1995 -0.592482,0.3189 -0.971872,0.35132 -0.119037,0.0102 -0.402447,-0.004 -0.542214,-0.0261 z m -5.433826,-0.0837 c -0.43231,-0.0601 -0.750072,-0.22032 -0.987564,-0.49791 -0.135877,-0.15885 -0.219943,-0.31965 -0.277509,-0.53085 -0.02926,-0.10793 -0.03152,-0.13126 -0.03109,-0.33753 4.14e-4,-0.20146 0.0024,-0.23304 0.03191,-0.34762 0.183141,-0.73568 0.793405,-1.32124 1.596589,-1.5319 0.249274,-0.0653 0.338919,-0.0766 0.618313,-0.0773 0.217735,-3.8e-4 0.26173,0.002 0.36977,0.021 0.594907,0.10447 1.037128,0.43081 1.237039,0.91281 0.07623,0.18411 0.09775,0.29785 0.09775,0.51983 0,0.25007 -0.03514,0.40649 -0.141704,0.63244 -0.07955,0.16852 -0.266434,0.41646 -0.436619,0.57927 -0.09733,0.0932 -0.306569,0.25021 -0.425957,0.3198 -0.325691,0.1898 -0.730275,0.31684 -1.118734,0.35129 -0.13019,0.0115 -0.402185,0.005 -0.532045,-0.0134 z m -1.934477,-2.77759 c -0.02709,-0.0183 -0.03368,-0.032 -0.04086,-0.0854 -0.01063,-0.0799 0.0059,-0.32255 0.03041,-0.44265 0.159023,-0.77527 0.831174,-1.30626 1.827798,-1.4439 0.265915,-0.0368 0.677001,-0.0391 0.961751,-0.006 0.147685,0.0174 0.178265,0.0326 0.165551,0.0833 -0.03472,0.13831 -0.384926,0.46429 -0.912918,0.8498 -0.84244,0.61514 -1.662798,1.06354 -1.950105,1.06594 -0.03537,2.8e-4 -0.05834,-0.006 -0.08171,-0.0214 z m 9.9936989,-0.0694 c -0.185333,-0.0564 -0.462024,-0.19203 -0.8124479,-0.39849 -0.755336,-0.445 -1.648266,-1.13127 -1.828347,-1.40519 -0.03922,-0.0596 -0.04807,-0.11753 -0.02073,-0.13529 0.05333,-0.0347 0.634472,-0.0598 0.892254,-0.0386 0.290603,0.0238 0.592209,0.0902 0.838671,0.1844 0.7222059,0.27609 1.1586619,0.79508 1.2299169,1.46251 0.0254,0.2368 0.01403,0.32707 -0.04388,0.3528 -0.04603,0.0205 -0.143128,0.012 -0.255447,-0.022 z m -5.5433529,-0.52688 c -0.525877,-0.0633 -0.915955,-0.19375 -1.145111,-0.383 -0.141407,-0.11678 -0.203513,-0.22794 -0.203366,-0.36394 9.4e-5,-0.098 0.02225,-0.16717 0.08353,-0.25943 0.221841,-0.33449 0.860533,-0.64297 1.512013,-0.73024 0.271957,-0.0365 0.589287,-0.0248 0.876828,0.0323 0.361168,0.0716 0.738343,0.22398 1.001714,0.40471 0.249247,0.17102 0.393686,0.37891 0.369369,0.53166 -0.0478,0.29948 -0.509597,0.59196 -1.13965,0.72165 -0.116214,0.0239 -0.359497,0.058 -0.484472,0.0677 -0.02592,0.002 -0.195377,0.002 -0.376626,7.5e-4 -0.26548,-0.002 -0.361561,-0.007 -0.494307,-0.0225 z m 3.489588,-1.82297 c -0.54247,-0.0597 -0.964086,-0.20491 -1.233404,-0.42497 -0.145124,-0.11859 -0.236634,-0.23634 -0.300883,-0.38712 l -0.03078,-0.0724 0.07939,-0.0696 c 0.179662,-0.1577 0.579835,-0.42665 0.944392,-0.6347 0.31832,-0.18167 0.771233,-0.40871 1.247559,-0.6254 0.217295,-0.0988 0.390245,-0.17373 0.9474179,-0.41026 0.05178,-0.022 0.0908,-0.04 0.08671,-0.0401 -0.01744,-2.7e-4 -0.5078589,0.13386 -0.6949719,0.19025 -1.053831,0.31763 -1.957569,0.71455 -2.713894,1.19196 l -0.179768,0.11345 -0.06144,-0.0243 c -0.254504,-0.10062 -0.436691,-0.2647 -0.516493,-0.4651 -0.02414,-0.0605 -0.02759,-0.0879 -0.02759,-0.21698 0,-0.16315 0.01513,-0.23736 0.07839,-0.38531 0.105312,-0.24605 0.284944,-0.49455 0.52864,-0.73147 0.06285,-0.0611 0.135369,-0.12706 0.161033,-0.14647 l 0.04666,-0.0352 0.0085,0.0769 c 0.0059,0.0422 0.01576,0.0903 0.02456,0.10684 0.01628,0.0308 0.04503,0.0398 0.05606,0.0175 0.01519,-0.0312 0.217421,-0.21597 0.377338,-0.3449 0.09657,-0.0779 0.177343,-0.14015 0.17951,-0.13846 0.0026,0.002 -0.0011,0.0403 -0.0075,0.0856 -0.01372,0.0939 0.0026,0.1479 0.05324,0.17378 0.02629,0.0135 0.02885,0.0129 0.04843,-0.0108 0.05288,-0.0642 0.491903,-0.38842 0.47077,-0.3477 -0.0059,0.01 -0.01158,0.0457 -0.01534,0.0796 -0.0059,0.0505 -0.0011,0.0688 0.01906,0.10235 0.01382,0.0224 0.03691,0.0494 0.05142,0.0602 l 0.02628,0.0193 0.105847,-0.0606 c 0.05827,-0.0334 0.153596,-0.0854 0.21184,-0.11574 0.115161,-0.0599 0.367048,-0.16082 0.378684,-0.15168 0.0031,0.003 -0.0199,0.0373 -0.05325,0.076 -0.04126,0.0479 -0.06048,0.0795 -0.06048,0.0995 5.8e-5,0.0373 0.042,0.0926 0.06492,0.0857 0.0084,-0.003 0.06573,-0.0308 0.125341,-0.0623 0.190748,-0.10063 0.384485,-0.16135 0.62558,-0.19609 l 0.09211,-0.0132 -0.02472,0.0208 c -0.01372,0.0114 -0.06048,0.0427 -0.103929,0.0694 -0.04341,0.0267 -0.08913,0.0592 -0.101485,0.072 -0.02739,0.0286 -0.02885,0.0668 -0.0026,0.0973 l 0.01895,0.0229 0.09164,-0.0225 c 0.138841,-0.034 0.6659839,-0.14234 0.6714599,-0.13802 0.0026,0.002 -0.0067,0.009 -0.02084,0.0145 -0.04153,0.0174 -0.117859,0.0751 -0.136081,0.1027 -0.02341,0.0356 -0.02137,0.0517 0.01069,0.0768 l 0.02775,0.0217 0.09294,-0.0211 c 0.158373,-0.0359 0.316985,-0.0532 0.49903,-0.0543 0.184354,-7.5e-4 0.329546,0.009 0.329546,0.023 0,0.005 -0.04467,0.0554 -0.09944,0.11237 l -0.09945,0.10359 0.424014,0.002 c 0.233204,7.5e-4 0.422272,0.006 0.420145,0.009 -0.0026,0.004 -0.03933,0.0588 -0.08254,0.12223 -0.08105,0.11876 -0.138841,0.22329 -0.175044,0.31622 l -0.02073,0.053 h 0.175447 c 0.122389,0 0.175479,0.003 0.175479,0.0105 0,0.006 -0.01686,0.0337 -0.03744,0.0623 -0.0522,0.0724 -0.193936,0.17982 -0.334401,0.25348 -0.06543,0.0343 -0.136425,0.0766 -0.158,0.094 l -0.03922,0.0318 0.04608,0.0156 c 0.07296,0.0246 0.231904,0.0275 0.313627,0.006 l 0.06736,-0.0179 -0.02927,0.0423 c -0.04644,0.0666 -0.121607,0.1412 -0.299579,0.29661 -0.09089,0.0793 -0.181333,0.16146 -0.201042,0.18249 l -0.03598,0.0382 0.172359,0.002 0.172363,0.002 -0.06853,0.038 c -0.0378,0.021 -0.150162,0.0908 -0.249851,0.15525 -0.09966,0.0644 -0.209399,0.1325 -0.243781,0.15122 -0.03451,0.0187 -0.0627,0.0373 -0.06292,0.0414 -0.0011,0.0198 0.113214,0.0455 0.224255,0.0503 0.0638,0.003 0.11335,0.008 0.110392,0.0121 -0.01063,0.0135 -0.271387,0.14514 -0.405687,0.20485 -0.0744,0.0331 -0.200445,0.0857 -0.280021,0.11696 -0.07955,0.0313 -0.14157,0.0608 -0.137789,0.0656 0.01477,0.0187 0.162833,0.0462 0.251337,0.0464 l 0.08996,4e-4 -0.05649,0.0397 c -0.05804,0.0409 -0.211116,0.10862 -0.325986,0.14441 -0.0355,0.0111 -0.167733,0.0488 -0.293625,0.0838 -0.1258489,0.035 -0.2336639,0.0674 -0.2394819,0.0719 -0.0067,0.005 0.0144,0.0238 0.05053,0.0461 0.05265,0.0326 0.0937,0.0465 0.2059009,0.0693 0.01382,0.003 -0.1507839,0.0383 -0.2363969,0.0511 -0.03309,0.005 -0.1416,0.0134 -0.241257,0.019 -0.291966,0.0162 -0.324939,0.0193 -0.347576,0.0323 -0.02031,0.0117 -0.02053,0.014 -0.0011,0.045 0.02016,0.0329 0.119032,0.10147 0.162205,0.11223 0.04445,0.0111 0.02325,0.0223 -0.05001,0.0261 -0.141386,0.008 -0.58068,-0.002 -0.703205,-0.0158 z m -6.503033,-0.027 c 0.08988,-0.0569 0.159355,-0.11065 0.159355,-0.12324 0,-0.0211 -0.06971,-0.0477 -0.151944,-0.0576 -0.04278,-0.005 -0.143759,-0.0119 -0.224669,-0.0149 -0.270492,-0.0102 -0.446367,-0.0356 -0.561701,-0.0816 l -0.05399,-0.0216 0.05022,-0.006 c 0.02753,-0.004 0.06683,-0.0129 0.08718,-0.0211 0.0562,-0.0223 0.14003,-0.0785 0.129092,-0.0864 -0.0059,-0.004 -0.05989,-0.0182 -0.121478,-0.0319 -0.196514,-0.0437 -0.471228,-0.13362 -0.628556,-0.20585 l -0.08121,-0.0373 0.102747,7.5e-4 c 0.102548,7.5e-4 0.102765,7.5e-4 0.13808,-0.0295 l 0.03537,-0.031 -0.26867,-0.1044 c -0.264613,-0.10284 -0.484103,-0.20713 -0.54882,-0.26082 l -0.03301,-0.0273 0.115396,-0.004 c 0.114007,-0.004 0.227224,-0.0303 0.227224,-0.0521 0,-0.0102 -0.124829,-0.0994 -0.353086,-0.25225 -0.08754,-0.0585 -0.185355,-0.12604 -0.217734,-0.15004 -0.06432,-0.0478 -0.06839,-0.0467 0.07001,-0.0179 0.08391,0.0175 0.1651,0.0123 0.196705,-0.0124 0.02267,-0.0177 0.0207,-0.0193 -0.166188,-0.15897 -0.18249,-0.13632 -0.304494,-0.24838 -0.355034,-0.32608 -0.02276,-0.035 -0.0229,-0.0368 -0.0024,-0.0307 0.05767,0.0175 0.170999,0.0326 0.24353,0.0329 0.08047,1.5e-4 0.160654,-0.0193 0.160654,-0.0391 0,-0.0105 -0.06152,-0.0582 -0.214505,-0.16608 -0.127667,-0.09 -0.234364,-0.21433 -0.273567,-0.31857 l -0.0075,-0.0208 h 0.178136 0.178113 l -0.0075,-0.0208 c -0.05051,-0.12804 -0.101683,-0.20433 -0.244186,-0.36239 l -0.09977,-0.1108 0.422722,-0.005 0.422736,-0.005 -0.100307,-0.0783 c -0.05523,-0.0431 -0.100311,-0.0811 -0.100311,-0.0843 0,-0.003 0.0116,-0.009 0.02661,-0.0121 0.131022,-0.0293 0.169074,-0.034 0.279525,-0.0343 0.134785,-2.8e-4 0.237497,0.0145 0.475552,0.0691 0.129626,0.0297 0.142195,0.031 0.167718,0.0179 0.05214,-0.0268 0.03739,-0.0557 -0.06905,-0.13439 -0.05332,-0.0394 -0.09276,-0.0715 -0.08782,-0.0715 0.0193,0 0.389364,0.0753 0.567279,0.11534 0.102858,0.0231 0.193876,0.04 0.20223,0.0376 0.01882,-0.006 0.01987,-0.0456 9.54e-4,-0.0727 -0.0067,-0.0111 -0.05894,-0.0571 -0.114782,-0.10236 -0.05989,-0.0485 -0.0954,-0.0838 -0.0867,-0.0862 0.02054,-0.006 0.372897,0.0834 0.508909,0.1285 0.06144,0.0204 0.161549,0.0603 0.222358,0.0887 l 0.110507,0.0515 0.02764,-0.0253 c 0.04985,-0.0454 0.03619,-0.0964 -0.05142,-0.19194 -0.02289,-0.025 -0.03827,-0.048 -0.03456,-0.0511 0.0084,-0.007 0.207253,0.0677 0.307559,0.11488 0.03885,0.0183 0.140228,0.072 0.225103,0.11937 0.08484,0.0474 0.157932,0.086 0.16231,0.086 0.02084,0 0.08287,-0.0454 0.108176,-0.0793 0.03566,-0.0477 0.03581,-0.0906 4.72e-4,-0.14536 -0.01534,-0.0237 -0.02456,-0.0431 -0.02053,-0.0431 0.01472,2e-5 0.207709,0.0939 0.268366,0.1306 0.07698,0.0466 0.176134,0.12965 0.241452,0.2023 0.0562,0.0626 0.06263,0.0617 0.109988,-0.0145 0.02844,-0.0454 0.03006,-0.0548 0.02231,-0.12599 l -0.0075,-0.077 0.03844,0.0277 c 0.02125,0.0152 0.129656,0.11079 0.241221,0.21235 0.111543,0.10156 0.221249,0.19836 0.243723,0.21512 l 0.04084,0.0305 0.02733,-0.0582 c 0.01492,-0.032 0.03299,-0.0803 0.04022,-0.10753 l 0.01294,-0.0494 0.106177,0.0863 c 0.211001,0.17148 0.391889,0.36928 0.522141,0.57103 0.347669,0.53846 0.301842,0.98279 -0.128823,1.24959 -0.05053,0.0313 -0.120288,0.0689 -0.155303,0.0837 l -0.0635,0.0269 -0.08754,-0.0579 c -0.631026,-0.41759 -1.55008,-0.82449 -2.702929,-1.19666 -0.204598,-0.066 -0.703258,-0.21824 -0.785898,-0.23983 -0.01309,-0.004 0.07556,0.0356 0.196599,0.0865 1.396945,0.58805 2.271789,1.04696 2.878996,1.51021 0.05391,0.0411 0.124048,0.0981 0.155963,0.12679 l 0.05804,0.052 -0.02356,0.06 c -0.18082,0.45927 -0.76187,0.74263 -1.65944,0.80924 -0.213311,0.0158 -0.21773,0.016 -0.447225,0.0171 l -0.21773,7.4e-4 z"
       id="path197237-8-9-6" /></g></svg>
