<?xml version="1.0" encoding="UTF-8" standalone="no"?>
<!-- Created with Inkscape (http://www.inkscape.org/) -->

<svg
   xmlns:dc="http://purl.org/dc/elements/1.1/"
   xmlns:cc="http://creativecommons.org/ns#"
   xmlns:rdf="http://www.w3.org/1999/02/22-rdf-syntax-ns#"
   xmlns:svg="http://www.w3.org/2000/svg"
   xmlns="http://www.w3.org/2000/svg"
   xmlns:sodipodi="http://sodipodi.sourceforge.net/DTD/sodipodi-0.dtd"
   xmlns:inkscape="http://www.inkscape.org/namespaces/inkscape"
   width="68.5989mm"
   height="35.04932mm"
   viewBox="0 0 68.5989 35.04932"
   version="1.1"
   id="svg8"
   inkscape:version="0.92.1 r15371"
   sodipodi:docname="Martina Box Front.svg">
  <sodipodi:namedview
     id="base"
     pagecolor="#ffffff"
     bordercolor="#666666"
     borderopacity="1.0"
     inkscape:pageopacity="0.0"
     inkscape:pageshadow="2"
     inkscape:zoom="31.243762"
     inkscape:cx="130.73832"
     inkscape:cy="115.16712"
     inkscape:document-units="mm"
     inkscape:current-layer="layer1"
     showgrid="true"
     showguides="true"
     inkscape:guide-bbox="true"
     inkscape:window-width="1920"
     inkscape:window-height="1027"
     inkscape:window-x="925"
     inkscape:window-y="1203"
     inkscape:window-maximized="1"
     inkscape:measure-start="-43.5287,104.469"
     inkscape:measure-end="15.1181,101.491"
     inkscape:snap-intersection-paths="true"
     inkscape:snap-center="true"
     inkscape:snap-midpoints="true"
     fit-margin-top="0"
     fit-margin-left="0"
     fit-margin-right="0"
     fit-margin-bottom="0">
    <inkscape:grid
       type="xygrid"
       id="grid6865"
       visible="false"
       enabled="false"
       originx="-123.6683"
       originy="-154.68878" />
  </sodipodi:namedview>
  <defs
     id="defs2" />
  <metadata
     id="metadata5">
    <rdf:RDF>
      <cc:Work
         rdf:about="">
        <dc:format>image/svg+xml</dc:format>
        <dc:type
           rdf:resource="http://purl.org/dc/dcmitype/StillImage" />
        <dc:title />
      </cc:Work>
    </rdf:RDF>
  </metadata>
  <g
     inkscape:label="Layer 1"
     inkscape:groupmode="layer"
     id="layer1"
     transform="translate(-123.6683,-107.26188)">
    <g
       style="fill:none;fill-opacity:1;stroke:#ff0000;stroke-width:0.2;stroke-miterlimit:4;stroke-dasharray:none;stroke-opacity:1"
       id="g10567"
       transform="translate(73.667296,-69.392749)">
      <path
         sodipodi:nodetypes="cccccccccccccccccccccccccccccccccccccccc"
         inkscape:connector-curvature="0"
         id="polyline5243"
         d="M 118.49991,176.75501 V 184.851 H 114.602 v 6.09616 h 3.89791 v 5.715 H 114.602 v 6.0959 h 3.89791 v 8.84589 h -7.79824 v -3.9 h -6.04834 v 3.9 h -5.715001 v -3.9 h -5.715 v 3.9 h -5.715 v -3.9 h -5.715 v 3.9 h -5.715 v -3.9 h -5.715 v 3.9 h -5.715 v -3.9 h -6.748912 v 3.9 h -7.798409 v -8.84589 h 3.899996 v -6.0959 h -3.899996 v -5.715 h 3.899996 V 184.851 h -3.899996 v -8.09599"
         style="fill:none;fill-opacity:1;stroke:#ff0000;stroke-width:0.2;stroke-miterlimit:4;stroke-dasharray:none;stroke-opacity:1" />
      <path
         sodipodi:nodetypes="cc"
         inkscape:connector-curvature="0"
         id="line5251"
         d="m 118.49991,176.75501 -31.154376,-3.8e-4"
         style="fill:none;fill-opacity:1;stroke:#ff0000;stroke-width:0.2;stroke-miterlimit:4;stroke-dasharray:none;stroke-opacity:1" />
      <path
         inkscape:connector-curvature="0"
         id="path6091"
         d="m 81.306954,176.75463 -4.34394,4.34394 2.55627,5.81314 h 9.53962 l 2.579,-5.86483 -4.29237,-4.29225"
         style="fill:none;fill-opacity:1;stroke:#ff0000;stroke-width:0.2;stroke-linecap:butt;stroke-linejoin:miter;stroke-miterlimit:4;stroke-dasharray:none;stroke-opacity:1"
         sodipodi:nodetypes="cccccc" />
      <path
         sodipodi:nodetypes="cc"
         inkscape:connector-curvature="0"
         id="line5247"
         d="m 81.306954,176.75463 -31.205946,3.8e-4"
         style="fill:none;fill-opacity:1;stroke:#ff0000;stroke-width:0.19899258;stroke-miterlimit:4;stroke-dasharray:none;stroke-opacity:1" />
    </g>
    <path
       inkscape:connector-curvature="0"
       d="m 137.09764,126.61541 c -0.11348,-0.0979 -0.22697,-0.19886 -0.36495,-0.26005 -0.13796,-0.0643 -0.30263,-0.0948 -0.47842,-0.0673 -0.17357,0.0275 -0.35827,0.11014 -0.53406,0.22945 -0.17581,0.11626 -0.34271,0.26923 -0.48067,0.44668 -0.1402,0.17439 -0.25368,0.37019 -0.34047,0.59353 -0.0846,0.22334 -0.14241,0.47115 -0.18247,0.7465 -0.0401,0.27535 -0.0645,0.57824 -0.0512,0.9056 0.0134,0.33041 0.0623,0.68225 0.11349,0.93924 0.0512,0.26005 0.10681,0.4222 0.23588,0.6792 0.12685,0.26005 0.32934,0.61188 0.54296,0.88111 0.21364,0.26923 0.44061,0.4528 0.67872,0.59659 0.23811,0.1438 0.48733,0.24476 0.74769,0.309 0.25813,0.0643 0.52962,0.0887 0.82781,0.0581 0.30041,-0.0306 0.62751,-0.12237 0.98355,-0.28146 0.35606,-0.16215 0.73881,-0.39467 1.17941,-0.75262 0.43838,-0.35796 0.93238,-0.84135 1.44198,-1.38899 0.51181,-0.54764 1.0392,-1.15952 1.48426,-1.71634 0.44505,-0.55376 0.81,-1.0555 1.17938,-1.56643 0.36719,-0.51093 0.73659,-1.03409 1.00806,-1.40122 0.27148,-0.37019 0.44506,-0.58741 0.6164,-0.80463 -0.25146,0.0153 -0.50291,0.0336 -0.79219,0.0153 -0.28706,-0.0153 -0.61417,-0.0612 -0.95242,-0.18969 -0.34047,-0.12849 -0.69429,-0.33348 -0.99247,-0.56293 -0.29819,-0.22946 -0.54075,-0.48339 -0.76106,-0.78016 -0.22029,-0.29676 -0.41834,-0.64248 -0.58301,-1.04327 -0.16244,-0.40384 -0.28928,-0.86582 -0.36939,-1.2819 -0.0801,-0.41608 -0.11126,-0.78321 -0.11126,-1.14729 0,-0.36407 0.0312,-0.71896 0.0734,-1.02797 0.0423,-0.30594 0.0935,-0.56599 0.18246,-0.85052 0.0912,-0.28758 0.2203,-0.60271 0.3872,-0.91783 0.16689,-0.31206 0.37385,-0.62412 0.58969,-0.88724 0.21809,-0.26617 0.44729,-0.48338 0.72323,-0.64859 0.27815,-0.16827 0.60304,-0.28453 0.899,-0.33348 0.29597,-0.0459 0.56078,-0.0184 0.80333,0.0336 0.24032,0.052 0.4584,0.13155 0.6787,0.26005 0.22031,0.1285 0.44506,0.309 0.63643,0.51704 0.19138,0.2111 0.35161,0.4528 0.48066,0.74039 0.12906,0.28758 0.22921,0.618 0.28261,0.89947 0.0556,0.28453 0.0645,0.52011 0.0668,0.83523 0.002,0.31206 -0.002,0.70367 -0.0979,1.03408 -0.0935,0.33042 -0.27816,0.59659 -0.46731,0.7924 -0.19138,0.1958 -0.38498,0.32124 -0.5808,0.38243 -0.19582,0.0612 -0.39609,0.0612 -0.56967,0.0214 -0.17358,-0.0398 -0.32489,-0.11932 -0.4406,-0.22028 -0.11571,-0.10096 -0.19582,-0.2264 -0.26258,-0.40079 -0.0645,-0.17439 -0.11571,-0.40079 -0.13129,-0.58435 -0.0133,-0.18357 0.007,-0.3243 0.0334,-0.46809 0.0267,-0.14074 0.0579,-0.28759 0.11793,-0.44056 0.0601,-0.14991 0.1491,-0.30595 0.26703,-0.42526 0.11795,-0.11932 0.26482,-0.20193 0.38942,-0.2417 0.1224,-0.0367 0.22253,-0.0306 0.31377,0.0184 0.0912,0.052 0.17357,0.14685 0.25813,0.2417 -0.0245,-0.18663 -0.0467,-0.37326 -0.0957,-0.55988 -0.0489,-0.18663 -0.12239,-0.37325 -0.22252,-0.52928 -0.0979,-0.15603 -0.22253,-0.28147 -0.40724,-0.39467 -0.1847,-0.11014 -0.4317,-0.20498 -0.66759,-0.23558 -0.23586,-0.0306 -0.46507,0.003 -0.71208,0.1132 -0.24701,0.10709 -0.51404,0.29065 -0.70763,0.48645 -0.19583,0.19581 -0.32044,0.40385 -0.44284,0.70062 -0.12015,0.2937 -0.2381,0.67307 -0.30708,1.09527 -0.069,0.42526 -0.089,0.89336 -0.0623,1.30944 0.0245,0.41302 0.0957,0.77098 0.20473,1.12281 0.10904,0.3549 0.25813,0.70061 0.42058,0.96678 0.16244,0.26923 0.34047,0.45586 0.54964,0.62107 0.21139,0.16215 0.45396,0.29982 0.74992,0.42526 0.29819,0.12544 0.65201,0.23864 0.95909,0.28147 0.3071,0.0428 0.56968,0.009 0.84782,-0.0643 0.27816,-0.0765 0.57413,-0.19275 0.99248,-0.36714 0.41835,-0.17132 0.95909,-0.39772 1.46201,-0.59047 0.50068,-0.19274 0.96576,-0.35183 1.40637,-0.47115 0.44061,-0.12238 0.85673,-0.20498 1.28176,-0.26005 0.42724,-0.052 0.8634,-0.0795 1.3218,-0.0367 0.4584,0.0428 0.93906,0.14991 1.33293,0.28147 0.39165,0.12849 0.6965,0.28147 1.06146,0.54152 0.36271,0.26005 0.78551,0.62718 1.20386,1.14116 0.41612,0.51399 0.82779,1.17483 1.11707,1.73776 0.2893,0.56294 0.45841,1.02491 0.58971,1.441 0.12906,0.41302 0.22252,0.78321 0.31599,1.1534 0.0912,-0.37019 0.18469,-0.74038 0.31375,-1.1534 0.13129,-0.41609 0.30041,-0.87806 0.5897,-1.441 0.28928,-0.56293 0.70095,-1.22377 1.11932,-1.73776 0.41612,-0.51398 0.83891,-0.88111 1.20386,-1.14116 0.36272,-0.26005 0.66756,-0.41303 1.06144,-0.54152 0.39164,-0.13156 0.87231,-0.23864 1.3307,-0.28147 0.45841,-0.0428 0.89679,-0.0153 1.32182,0.0367 0.42724,0.0551 0.84337,0.13767 1.28175,0.26005 0.4406,0.11932 0.90567,0.27841 1.40858,0.47115 0.50069,0.19275 1.04143,0.41915 1.45978,0.59047 0.41834,0.17439 0.71431,0.29065 0.99247,0.36714 0.27815,0.0734 0.54074,0.10708 0.84782,0.0643 0.30708,-0.0428 0.6609,-0.15603 0.95908,-0.28147 0.29819,-0.12544 0.54075,-0.26311 0.74992,-0.42526 0.20917,-0.16521 0.3872,-0.35184 0.54965,-0.62107 0.16243,-0.26617 0.31153,-0.61188 0.42056,-0.96678 0.10904,-0.35183 0.18026,-0.70979 0.20473,-1.12281 0.0267,-0.41608 0.007,-0.88418 -0.0623,-1.30944 -0.069,-0.4222 -0.18692,-0.80157 -0.3071,-1.09527 -0.12016,-0.29677 -0.247,-0.50481 -0.44059,-0.70062 -0.19583,-0.1958 -0.46064,-0.37936 -0.70987,-0.48645 -0.247,-0.11013 -0.47397,-0.14379 -0.71208,-0.1132 -0.23588,0.0306 -0.48066,0.12544 -0.66536,0.23558 -0.18469,0.1132 -0.31152,0.23864 -0.40944,0.39467 -0.10014,0.15603 -0.17358,0.34266 -0.22252,0.52928 -0.049,0.18662 -0.0712,0.37325 -0.0935,0.55988 0.0823,-0.0948 0.16465,-0.18969 0.25588,-0.2417 0.0912,-0.049 0.19139,-0.0551 0.316,-0.0184 0.1224,0.0398 0.26926,0.12238 0.38942,0.2417 0.11571,0.11932 0.20473,0.27535 0.2648,0.42526 0.0601,0.15297 0.0912,0.29982 0.11794,0.44056 0.0267,0.14379 0.0489,0.28452 0.0334,0.46809 -0.0156,0.18357 -0.0667,0.40996 -0.13129,0.58435 -0.0668,0.17439 -0.14687,0.29983 -0.26258,0.40079 -0.11571,0.10096 -0.26702,0.1805 -0.4406,0.22028 -0.17358,0.0398 -0.37384,0.0398 -0.56967,-0.0214 -0.19583,-0.0612 -0.38941,-0.18663 -0.57858,-0.38243 -0.19137,-0.19581 -0.37607,-0.46198 -0.46951,-0.79239 -0.0957,-0.33042 -0.10014,-0.72203 -0.0979,-1.03409 0.002,-0.31512 0.0111,-0.5507 0.0668,-0.83523 0.0534,-0.28147 0.15354,-0.61189 0.28261,-0.89947 0.12906,-0.28759 0.28927,-0.52929 0.48064,-0.74039 0.19139,-0.20804 0.41614,-0.38854 0.63643,-0.51704 0.22031,-0.1285 0.43839,-0.20804 0.67872,-0.26005 0.24254,-0.052 0.50735,-0.0795 0.8033,-0.0336 0.29597,0.0489 0.62085,0.16521 0.89901,0.33348 0.27594,0.16521 0.50514,0.38242 0.72322,0.64859 0.21584,0.26312 0.42279,0.57518 0.58968,0.88724 0.1669,0.31512 0.2982,0.63025 0.3872,0.91783 0.0912,0.28453 0.14019,0.54458 0.18248,0.85052 0.0423,0.30901 0.0734,0.6639 0.0734,1.02797 0,0.36408 -0.0312,0.73121 -0.11127,1.14729 -0.0801,0.41608 -0.20695,0.87806 -0.3694,1.28191 -0.16245,0.40078 -0.36271,0.7465 -0.58301,1.04326 -0.22031,0.29677 -0.46286,0.5507 -0.76105,0.78016 -0.29818,0.22945 -0.65199,0.43444 -0.99024,0.56293 -0.34046,0.1285 -0.66535,0.17439 -0.95463,0.18969 -0.28929,0.0184 -0.54075,0 -0.79221,-0.0153 0.17358,0.21722 0.34715,0.43444 0.6164,0.80463 0.2715,0.36713 0.64312,0.8903 1.01028,1.40122 0.36718,0.51093 0.73211,1.01267 1.17716,1.56643 0.44729,0.55682 0.97245,1.1687 1.48424,1.71634 0.50959,0.54764 1.0036,1.03103 1.4442,1.38899 0.43838,0.35795 0.82112,0.59047 1.17717,0.75262 0.35604,0.15909 0.68538,0.25087 0.98356,0.28146 0.29819,0.0306 0.56968,0.006 0.83003,-0.0581 0.26035,-0.0643 0.50959,-0.1652 0.74769,-0.309 0.2381,-0.14379 0.46285,-0.32736 0.67648,-0.59659 0.21363,-0.26923 0.41613,-0.62106 0.54296,-0.88111 0.12907,-0.257 0.1847,-0.41915 0.23588,-0.6792 0.0534,-0.25699 0.10013,-0.60882 0.11349,-0.93924 0.0134,-0.32736 -0.0111,-0.63025 -0.0512,-0.9056 -0.0401,-0.27535 -0.0979,-0.52316 -0.18247,-0.7465 -0.0868,-0.22334 -0.20026,-0.41914 -0.33824,-0.59353 -0.14019,-0.17745 -0.30708,-0.33042 -0.48287,-0.44667 -0.1758,-0.11932 -0.3605,-0.20193 -0.53407,-0.22946 -0.17579,-0.0275 -0.33824,0.003 -0.47842,0.0673 -0.13798,0.0612 -0.25147,0.16215 -0.36496,0.26005 0.0489,0.006 0.0957,0.0123 0.1491,0.0337 0.0534,0.0214 0.11126,0.0551 0.17134,0.1132 0.0579,0.0612 0.11572,0.14379 0.1669,0.25393 0.0489,0.11014 0.0868,0.24476 0.11795,0.39773 0.0311,0.15297 0.0556,0.32124 0.0556,0.49563 0,0.17132 -0.0245,0.34571 -0.0801,0.53234 -0.0579,0.18662 -0.14687,0.38242 -0.2737,0.54763 -0.12684,0.16522 -0.28929,0.29371 -0.44506,0.37631 -0.158,0.0795 -0.30708,0.11014 -0.46287,0.0979 -0.15575,-0.009 -0.31599,-0.0612 -0.46731,-0.14379 -0.15353,-0.0857 -0.29818,-0.20498 -0.41611,-0.35795 -0.11794,-0.14991 -0.2114,-0.33042 -0.27148,-0.47115 -0.0623,-0.1438 -0.0912,-0.24476 -0.12684,-0.40385 -0.0356,-0.15909 -0.0779,-0.37631 -0.0868,-0.59353 -0.007,-0.21416 0.02,-0.43138 0.069,-0.66084 0.0489,-0.23251 0.11795,-0.47421 0.2181,-0.70673 0.0979,-0.22945 0.22697,-0.44973 0.37384,-0.6333 0.14463,-0.18357 0.30707,-0.33348 0.45839,-0.44056 0.15132,-0.10708 0.2915,-0.17438 0.48067,-0.24169 0.19137,-0.0673 0.4317,-0.13462 0.6431,-0.15297 0.20917,-0.0184 0.39165,0.0122 0.61193,0.0734 0.22253,0.0612 0.48289,0.14991 0.71655,0.27535 0.23365,0.12237 0.43837,0.2784 0.62085,0.45891 0.18469,0.18357 0.34491,0.39161 0.49622,0.62412 0.15355,0.22946 0.29819,0.48339 0.42726,0.79852 0.13129,0.31206 0.24477,0.68531 0.32488,0.99431 0.0801,0.30595 0.1224,0.54458 0.14243,0.78016 0.0178,0.23557 0.0156,0.46809 0.005,0.69143 -0.0111,0.22028 -0.0312,0.43138 -0.0645,0.68837 -0.0334,0.25394 -0.0823,0.5507 -0.15578,0.84747 -0.0734,0.2937 -0.17134,0.58435 -0.28705,0.83828 -0.11571,0.25087 -0.24478,0.46504 -0.39388,0.6792 -0.14686,0.21416 -0.3093,0.42832 -0.46952,0.62106 -0.15799,0.19274 -0.31154,0.36101 -0.49178,0.51093 -0.18025,0.15297 -0.38721,0.28758 -0.60083,0.3916 -0.21363,0.10402 -0.43169,0.17439 -0.652,0.23864 -0.22253,0.0643 -0.44283,0.11932 -0.66758,0.14685 -0.22252,0.0245 -0.44727,0.0214 -0.72322,-0.0184 -0.27371,-0.0398 -0.59636,-0.11932 -0.88342,-0.21722 -0.28706,-0.0979 -0.53629,-0.21416 -0.77438,-0.34265 -0.2382,-0.12544 -0.46517,-0.26006 -0.71216,-0.44668 -0.24924,-0.18663 -0.52073,-0.42526 -0.78108,-0.66696 -0.25814,-0.2417 -0.50292,-0.48645 -0.8189,-0.81993 -0.31376,-0.33042 -0.6965,-0.74956 -1.00137,-1.09222 -0.30485,-0.33959 -0.53406,-0.60576 -0.83001,-0.98819 -0.29374,-0.37937 -0.65423,-0.87806 -0.9769,-1.32168 -0.32267,-0.44668 -0.6075,-0.84134 -0.82111,-1.13811 -0.21363,-0.2937 -0.35604,-0.48951 -0.49846,-0.68531 0.0534,0.38549 0.10681,0.77404 0.14242,1.19012 0.0356,0.41914 0.0534,0.87194 0.0512,1.25437 -0.003,0.38549 -0.0245,0.70367 -0.069,1.05244 -0.0445,0.34572 -0.10904,0.72203 -0.19583,1.06162 -0.089,0.3396 -0.20027,0.63943 -0.33601,0.93925 -0.13797,0.29677 -0.30264,0.58741 -0.48065,0.86276 -0.18025,0.27535 -0.37385,0.5354 -0.58971,0.7465 -0.21361,0.21416 -0.4495,0.37937 -0.7143,0.50787 -0.2648,0.13156 -0.55853,0.22334 -0.8367,0.26617 -0.28038,0.0459 -0.54519,0.0367 -0.80554,-0.003 -0.26036,-0.0398 -0.51626,-0.1132 -0.7655,-0.23252 -0.24922,-0.11932 -0.49177,-0.28452 -0.68983,-0.45891 -0.19581,-0.17439 -0.34935,-0.35796 -0.49177,-0.57212 -0.1402,-0.21416 -0.27149,-0.46197 -0.3783,-0.74956 -0.1046,-0.28758 -0.18693,-0.61494 -0.25369,-0.93312 -0.0667,-0.31819 -0.12016,-0.62719 -0.14017,-0.87194 -0.02,-0.24476 -0.0111,-0.42526 0.0111,-0.63331 0.02,-0.2111 0.0534,-0.44667 0.11572,-0.72508 0.0601,-0.27841 0.15354,-0.59965 0.25145,-0.86582 0.10013,-0.26617 0.20695,-0.47421 0.32266,-0.66696 0.11571,-0.19274 0.23811,-0.36713 0.40056,-0.51092 0.16021,-0.1438 0.35826,-0.25699 0.52738,-0.34572 0.17134,-0.0887 0.31598,-0.14991 0.4584,-0.18357 0.14242,-0.0336 0.28261,-0.0367 0.43837,-0.006 0.15578,0.0306 0.32935,0.0918 0.49846,0.18356 0.16913,0.0948 0.33158,0.21722 0.46954,0.35795 0.13573,0.14074 0.24477,0.29983 0.33379,0.51093 0.089,0.20804 0.15798,0.47115 0.19359,0.71285 0.0378,0.24169 0.0401,0.46197 0.0289,0.67919 -0.0111,0.21416 -0.0378,0.42832 -0.0957,0.61495 -0.0556,0.18968 -0.14243,0.35183 -0.24256,0.48033 -0.10236,0.12544 -0.21808,0.22028 -0.35826,0.26923 -0.1402,0.052 -0.30487,0.0612 -0.45173,0.0428 -0.14687,-0.0184 -0.27816,-0.0643 -0.39833,-0.1285 -0.12016,-0.0643 -0.2292,-0.14685 -0.32044,-0.24781 -0.0912,-0.10402 -0.16467,-0.22334 -0.21139,-0.37019 -0.0467,-0.14685 -0.069,-0.3243 -0.0712,-0.48339 -0.005,-0.15603 0.009,-0.29371 0.0334,-0.41303 0.0267,-0.11625 0.0623,-0.2111 0.10013,-0.28147 0.0356,-0.0673 0.0712,-0.11013 0.10681,-0.15602 -0.0579,-0.009 -0.11571,-0.0214 -0.18469,-0.0184 -0.0712,0.003 -0.15577,0.0214 -0.23811,0.052 -0.0846,0.0306 -0.16466,0.0765 -0.2559,0.16826 -0.089,0.0948 -0.19137,0.23558 -0.26703,0.39467 -0.0779,0.15909 -0.13129,0.33654 -0.17358,0.54152 -0.0423,0.20498 -0.0712,0.4375 -0.0734,0.65778 0,0.22028 0.0245,0.43138 0.0734,0.6486 0.0467,0.22028 0.11794,0.44668 0.20028,0.6639 0.0846,0.22028 0.18248,0.43138 0.31821,0.62718 0.13796,0.19581 0.31377,0.37631 0.49623,0.52928 0.18248,0.15298 0.37162,0.27841 0.57635,0.3549 0.20695,0.0765 0.42947,0.10708 0.66312,0.0734 0.23366,-0.0367 0.47621,-0.13156 0.69652,-0.28147 0.22252,-0.14685 0.42057,-0.34572 0.55853,-0.49563 0.13798,-0.14991 0.21586,-0.25087 0.32267,-0.46504 0.1068,-0.21721 0.24032,-0.54763 0.34491,-0.86887 0.10236,-0.31819 0.17357,-0.62719 0.23589,-0.95455 0.0601,-0.3243 0.11125,-0.66695 0.13351,-0.96066 0.02,-0.29064 0.0111,-0.53234 -0.009,-0.79239 -0.0178,-0.25699 -0.0467,-0.53234 -0.0979,-0.85359 -0.0489,-0.32124 -0.12238,-0.69143 -0.20472,-0.97901 -0.0801,-0.28759 -0.17357,-0.49869 -0.32266,-0.76792 -0.14686,-0.26923 -0.3516,-0.59659 -0.57635,-0.88724 -0.22252,-0.29064 -0.46508,-0.54458 -0.70095,-0.74344 -0.23366,-0.19886 -0.46064,-0.34572 -0.71431,-0.48339 -0.25369,-0.13767 -0.53629,-0.26617 -0.8011,-0.36713 -0.26258,-0.0979 -0.5118,-0.17133 -0.81444,-0.20804 -0.30487,-0.0398 -0.66536,-0.0428 -1.01027,-0.0153 -0.34714,0.0306 -0.68094,0.0948 -1.01249,0.19887 -0.33379,0.10402 -0.66759,0.24781 -0.97912,0.44362 -0.31153,0.19274 -0.60082,0.43444 -0.83669,0.67001 -0.23589,0.23864 -0.42058,0.47116 -0.60304,0.73121 -0.18248,0.26311 -0.36496,0.55069 -0.53408,0.89335 -0.1669,0.3396 -0.31821,0.72815 -0.46284,1.17176 -0.14465,0.44668 -0.27817,0.94537 -0.37162,1.34004 -0.0912,0.39466 -0.14243,0.68837 -0.1669,0.9576 -0.0222,0.26923 -0.0222,0.51399 -0.02,0.68837 0.002,0.17439 0.007,0.27535 0.0289,0.45892 0.0222,0.18356 0.0645,0.44973 0.10459,0.64554 0.0423,0.19886 0.0846,0.3243 0.15799,0.49563 0.0757,0.17438 0.18248,0.38854 0.3249,0.60576 0.14018,0.21722 0.31597,0.43444 0.46062,0.57212 0.14687,0.14073 0.26258,0.20192 0.3872,0.24781 0.1246,0.0428 0.26035,0.0704 0.40276,0.0704 0.1402,0 0.28929,-0.0275 0.39834,-0.0765 0.10902,-0.052 0.18246,-0.12543 0.27814,-0.26005 0.0979,-0.13461 0.22253,-0.33042 0.29819,-0.5048 0.0734,-0.17133 0.10014,-0.32431 0.11571,-0.4834 0.0134,-0.15603 0.0156,-0.31818 0,-0.47727 -0.0156,-0.15909 -0.0512,-0.31206 -0.0957,-0.42526 -0.0467,-0.11626 -0.10235,-0.19274 -0.16021,-0.27229 -0.0134,0.0734 -0.0267,0.14686 -0.069,0.2264 -0.0445,0.0795 -0.1157,0.16521 -0.19804,0.24475 -0.0823,0.0796 -0.17358,0.15298 -0.27593,0.20193 -0.10237,0.0459 -0.21586,0.0704 -0.34269,0.0337 -0.12462,-0.0367 -0.26482,-0.13462 -0.36495,-0.26617 -0.10013,-0.13156 -0.16245,-0.29983 -0.18914,-0.47727 -0.0267,-0.17745 -0.0178,-0.36102 0.0245,-0.5354 0.0445,-0.17439 0.12017,-0.33654 0.20918,-0.4681 0.0912,-0.13156 0.19582,-0.23252 0.32267,-0.30288 0.12906,-0.0704 0.28038,-0.11014 0.44728,-0.10402 0.16466,0.006 0.34268,0.0581 0.53405,0.18356 0.19137,0.12238 0.39831,0.32124 0.54074,0.52317 0.1424,0.20192 0.22475,0.40996 0.29818,0.66389 0.0734,0.25394 0.14019,0.55682 0.16468,0.85053 0.0222,0.2937 0.002,0.57517 -0.0712,0.88417 -0.0712,0.30594 -0.1936,0.63942 -0.30709,0.875 -0.11571,0.23864 -0.22029,0.38243 -0.37606,0.53846 -0.15799,0.15603 -0.36272,0.3243 -0.56744,0.41914 -0.20473,0.0979 -0.40723,0.12544 -0.62085,0.1132 -0.2114,-0.0122 -0.43392,-0.0581 -0.63643,-0.13461 -0.20471,-0.0765 -0.38941,-0.18357 -0.57856,-0.32736 -0.19136,-0.1438 -0.38718,-0.33042 -0.55854,-0.56294 -0.16912,-0.23558 -0.31153,-0.51705 -0.4317,-0.79545 -0.12016,-0.27535 -0.21807,-0.54152 -0.31375,-0.80769 -0.0979,0.26617 -0.19583,0.53234 -0.31599,0.80769 -0.12018,0.2784 -0.26258,0.55987 -0.43171,0.79545 -0.17134,0.23252 -0.36717,0.41914 -0.55631,0.56294 -0.19137,0.14379 -0.37607,0.25087 -0.5808,0.32735 -0.2025,0.0765 -0.42501,0.12238 -0.63642,0.13462 -0.21362,0.0122 -0.41612,-0.0153 -0.62085,-0.1132 -0.20472,-0.0948 -0.40945,-0.26311 -0.56522,-0.41914 -0.15576,-0.15603 -0.26258,-0.29982 -0.37828,-0.53846 -0.11349,-0.23558 -0.23589,-0.56906 -0.3071,-0.875 -0.0712,-0.309 -0.0935,-0.59047 -0.069,-0.88418 0.0222,-0.2937 0.089,-0.59658 0.16243,-0.85052 0.0757,-0.25393 0.15578,-0.46197 0.29819,-0.66389 0.14465,-0.20193 0.34937,-0.40079 0.54074,-0.52317 0.19137,-0.12544 0.36939,-0.17745 0.53629,-0.18356 0.16468,-0.006 0.31599,0.0336 0.44506,0.10402 0.12905,0.0704 0.23142,0.17132 0.32266,0.30288 0.089,0.13155 0.16689,0.2937 0.20917,0.46809 0.0423,0.17439 0.0512,0.35796 0.0245,0.5354 -0.0267,0.17745 -0.089,0.34572 -0.18915,0.47728 -0.10013,0.13155 -0.2381,0.22945 -0.36493,0.26617 -0.12462,0.0367 -0.23811,0.0122 -0.3427,-0.0337 -0.10236,-0.0489 -0.1936,-0.12238 -0.27592,-0.20193 -0.0823,-0.0795 -0.15356,-0.16521 -0.19583,-0.24475 -0.0445,-0.0795 -0.0579,-0.15297 -0.0712,-0.2264 -0.0579,0.0795 -0.11349,0.15603 -0.16021,0.27229 -0.0445,0.1132 -0.0801,0.26617 -0.0957,0.42526 -0.0156,0.15909 -0.0133,0.32124 0,0.47727 0.0156,0.15909 0.0423,0.31207 0.11793,0.48339 0.0734,0.17439 0.19805,0.3702 0.29596,0.50481 0.0979,0.13462 0.16912,0.20804 0.27816,0.26005 0.10903,0.0489 0.25812,0.0765 0.39832,0.0765 0.14241,0 0.27816,-0.0275 0.40277,-0.0704 0.12462,-0.0459 0.24033,-0.10708 0.3872,-0.24781 0.14464,-0.13768 0.32043,-0.3549 0.46286,-0.57212 0.14018,-0.21722 0.24922,-0.43138 0.32266,-0.60576 0.0757,-0.17133 0.11571,-0.29677 0.15798,-0.49563 0.0423,-0.19581 0.0823,-0.46198 0.1046,-0.64554 0.0222,-0.18357 0.0267,-0.28453 0.0289,-0.45892 0.002,-0.17439 0.005,-0.41914 -0.02,-0.68837 -0.0245,-0.26923 -0.0734,-0.56294 -0.1669,-0.9576 -0.0912,-0.39467 -0.22697,-0.89336 -0.37161,-1.34004 -0.14464,-0.44361 -0.29596,-0.83216 -0.46286,-1.17176 -0.16911,-0.34266 -0.35159,-0.63024 -0.53407,-0.89335 -0.18246,-0.26006 -0.36715,-0.49257 -0.60304,-0.73121 -0.23587,-0.23558 -0.52516,-0.47727 -0.83669,-0.67002 -0.31154,-0.1958 -0.64533,-0.33959 -0.97689,-0.44361 -0.33379,-0.10402 -0.66758,-0.16827 -1.01249,-0.19887 -0.34715,-0.0275 -0.70764,-0.0245 -1.0125,0.0153 -0.30263,0.0367 -0.54964,0.11014 -0.81445,0.20805 -0.26481,0.10096 -0.54741,0.22945 -0.80109,0.36713 -0.25368,0.13767 -0.48066,0.28452 -0.71433,0.48339 -0.23587,0.19886 -0.47842,0.45279 -0.70095,0.74344 -0.22475,0.29065 -0.42725,0.61801 -0.57635,0.88724 -0.1491,0.26923 -0.24032,0.48033 -0.32267,0.76791 -0.0823,0.28759 -0.15354,0.65778 -0.20472,0.97902 -0.0489,0.32124 -0.0779,0.59659 -0.0979,0.85358 -0.02,0.26006 -0.029,0.50175 -0.007,0.7924 0.02,0.29371 0.0712,0.63636 0.13129,0.96066 0.0623,0.32736 0.13352,0.63636 0.23587,0.95454 0.10459,0.32125 0.24033,0.65166 0.34492,0.86888 0.10682,0.21416 0.1847,0.31512 0.32267,0.46504 0.13797,0.14991 0.33602,0.34877 0.55855,0.49563 0.22029,0.14991 0.46507,0.24475 0.69873,0.28146 0.23143,0.0337 0.45618,0.003 0.66091,-0.0734 0.20472,-0.0765 0.39387,-0.20192 0.57634,-0.35489 0.18248,-0.15297 0.36049,-0.33348 0.49623,-0.52928 0.13798,-0.1958 0.23366,-0.4069 0.31821,-0.62719 0.0823,-0.21722 0.15354,-0.44361 0.2025,-0.66389 0.0467,-0.21722 0.0734,-0.42832 0.0712,-0.6486 -0.002,-0.22028 -0.0312,-0.4528 -0.0734,-0.65778 -0.0401,-0.20498 -0.0957,-0.38243 -0.17134,-0.54152 -0.0779,-0.15909 -0.17803,-0.29983 -0.26927,-0.39467 -0.0912,-0.0918 -0.17134,-0.13767 -0.25367,-0.16827 -0.0846,-0.0306 -0.1669,-0.049 -0.23811,-0.052 -0.0712,-0.003 -0.12906,0.009 -0.18692,0.0184 0.0356,0.0459 0.0712,0.0887 0.10682,0.15603 0.0378,0.0704 0.0734,0.16521 0.10013,0.28147 0.0245,0.11932 0.0378,0.25699 0.0356,0.41303 -0.005,0.15909 -0.0267,0.33653 -0.0734,0.48339 -0.0467,0.14685 -0.11794,0.26617 -0.20917,0.37019 -0.0912,0.10096 -0.20251,0.18356 -0.32266,0.24781 -0.12016,0.0643 -0.24923,0.11014 -0.39833,0.1285 -0.14686,0.0184 -0.31154,0.009 -0.45173,-0.0428 -0.1402,-0.0489 -0.25591,-0.1438 -0.35604,-0.26923 -0.10237,-0.1285 -0.18915,-0.29065 -0.24478,-0.48033 -0.0579,-0.18663 -0.0846,-0.40079 -0.0957,-0.61495 -0.0111,-0.21722 -0.007,-0.4375 0.029,-0.67919 0.0356,-0.2417 0.10459,-0.50481 0.19359,-0.71285 0.089,-0.2111 0.19805,-0.37019 0.33379,-0.51093 0.13796,-0.14073 0.30042,-0.26311 0.46954,-0.35795 0.16912,-0.0918 0.34269,-0.15297 0.49847,-0.18357 0.15798,-0.0306 0.29596,-0.0275 0.43837,0.006 0.14243,0.0337 0.28706,0.0948 0.45841,0.18357 0.17134,0.0887 0.36716,0.20192 0.52961,0.34571 0.16021,0.1438 0.28261,0.31819 0.39832,0.51093 0.11571,0.19275 0.22253,0.40079 0.32266,0.66696 0.10015,0.26617 0.19137,0.58741 0.25146,0.86582 0.0623,0.27841 0.0957,0.51398 0.11572,0.72508 0.0222,0.20804 0.0334,0.38855 0.0111,0.63331 -0.02,0.24475 -0.0712,0.55375 -0.14019,0.87193 -0.0668,0.31819 -0.1491,0.64555 -0.25369,0.93313 -0.1068,0.28759 -0.23809,0.53541 -0.37829,0.74957 -0.14241,0.21416 -0.29373,0.39772 -0.49178,0.57211 -0.19805,0.17439 -0.4406,0.3396 -0.68984,0.45891 -0.24922,0.11932 -0.50291,0.19275 -0.76325,0.23252 -0.26258,0.0398 -0.52741,0.049 -0.80779,0.003 -0.27815,-0.0428 -0.57189,-0.13461 -0.83669,-0.26617 -0.26481,-0.1285 -0.5007,-0.2937 -0.71432,-0.50786 -0.21586,-0.2111 -0.40945,-0.47116 -0.5897,-0.74651 -0.17802,-0.27535 -0.34269,-0.56599 -0.47843,-0.86276 -0.13797,-0.29982 -0.24923,-0.59965 -0.33825,-0.93924 -0.0868,-0.3396 -0.15131,-0.71591 -0.19583,-1.06163 -0.0445,-0.34877 -0.0668,-0.66695 -0.069,-1.05244 -0.002,-0.38243 0.0156,-0.83523 0.0512,-1.25437 0.0378,-0.41608 0.089,-0.80463 0.14242,-1.19012 -0.14242,0.1958 -0.2826,0.39161 -0.49621,0.68531 -0.21586,0.29677 -0.5007,0.69143 -0.82336,1.13811 -0.32267,0.44362 -0.68316,0.94231 -0.97689,1.32168 -0.29597,0.38243 -0.52295,0.6486 -0.83005,0.9882 -0.30485,0.34265 -0.68759,0.76179 -1.00135,1.09221 -0.31377,0.33348 -0.56078,0.57823 -0.81892,0.81993 -0.25812,0.2417 -0.5296,0.48033 -0.77883,0.66696 -0.24924,0.18662 -0.47622,0.32124 -0.71432,0.44668 -0.23811,0.12849 -0.48733,0.24475 -0.7744,0.34265 -0.28483,0.0979 -0.60972,0.17745 -0.88344,0.21722 -0.2737,0.0398 -0.50067,0.0428 -0.7232,0.0184 -0.22475,-0.0275 -0.44506,-0.0826 -0.66536,-0.14685 -0.22253,-0.0643 -0.44061,-0.13462 -0.65424,-0.23864 -0.21362,-0.10402 -0.42057,-0.23863 -0.60082,-0.3916 -0.18024,-0.14992 -0.33378,-0.31819 -0.49178,-0.51093 -0.15799,-0.19274 -0.32267,-0.40691 -0.46954,-0.62107 -0.14909,-0.21416 -0.27816,-0.42832 -0.39387,-0.67919 -0.11349,-0.25393 -0.21362,-0.54458 -0.28705,-0.83829 -0.0734,-0.29676 -0.12018,-0.59353 -0.15355,-0.84746 -0.0334,-0.25699 -0.0534,-0.46809 -0.0645,-0.68837 -0.0134,-0.22334 -0.0156,-0.45586 0.005,-0.69143 0.0178,-0.23558 0.0623,-0.47421 0.1402,-0.78016 0.0801,-0.309 0.19582,-0.68225 0.32489,-0.99431 0.12907,-0.31513 0.27371,-0.56906 0.42725,-0.79852 0.15132,-0.23251 0.31378,-0.44055 0.49624,-0.62412 0.18247,-0.18051 0.38942,-0.33654 0.62086,-0.45892 0.23365,-0.12543 0.49623,-0.21416 0.71654,-0.27535 0.22029,-0.0612 0.40277,-0.0918 0.61416,-0.0734 0.20919,0.0184 0.44951,0.0857 0.64089,0.15297 0.18914,0.0673 0.32933,0.13462 0.48065,0.2417 0.15131,0.10708 0.31376,0.25699 0.46064,0.44056 0.14465,0.18356 0.2737,0.40384 0.37162,0.6333 0.10013,0.23252 0.17135,0.47421 0.21807,0.70673 0.0489,0.22946 0.0756,0.44668 0.069,0.66084 -0.009,0.21722 -0.0489,0.43444 -0.0846,0.59353 -0.0356,0.15909 -0.0667,0.26005 -0.12683,0.40384 -0.0623,0.14074 -0.15577,0.32124 -0.27371,0.47116 -0.11794,0.15297 -0.26258,0.27228 -0.41391,0.35795 -0.15354,0.0826 -0.31377,0.13462 -0.46953,0.14379 -0.15577,0.0122 -0.30486,-0.0184 -0.46286,-0.0979 -0.15576,-0.0826 -0.31821,-0.2111 -0.44504,-0.37631 -0.12684,-0.16521 -0.21586,-0.36101 -0.27372,-0.54764 -0.0556,-0.18662 -0.0801,-0.36101 -0.0801,-0.53234 0,-0.17439 0.0245,-0.34265 0.0556,-0.49563 0.0312,-0.15297 0.0712,-0.28758 0.12016,-0.39772 0.0489,-0.11014 0.10682,-0.19274 0.1669,-0.25393 0.0579,-0.0581 0.11793,-0.0918 0.16912,-0.11321 0.0534,-0.0214 0.10235,-0.0275 0.14909,-0.0337 z"
       id="path187-9-6"
       style="fill:#000000;fill-opacity:1;stroke:none;stroke-width:0.03974598;stroke-linecap:round;stroke-linejoin:round;stroke-opacity:1" />
    <path
       inkscape:connector-curvature="0"
       d="m 137.09765,126.61536 c -0.11349,-0.0979 -0.22698,-0.19886 -0.36495,-0.26005 -0.13796,-0.0643 -0.30264,-0.0948 -0.47843,-0.0673 -0.17356,0.0275 -0.35826,0.11014 -0.53405,0.22945 -0.17582,0.11626 -0.34271,0.26923 -0.48068,0.44668 -0.1402,0.17439 -0.25368,0.37019 -0.34046,0.59353 -0.0846,0.22334 -0.14242,0.47115 -0.18247,0.7465 -0.0401,0.27535 -0.0645,0.57824 -0.0512,0.9056 0.0134,0.33041 0.0623,0.68225 0.11348,0.93924 0.0512,0.26005 0.10682,0.4222 0.23589,0.6792 0.12684,0.26005 0.32933,0.61188 0.54296,0.88111 0.21363,0.26923 0.44061,0.4528 0.67871,0.59659 0.23811,0.1438 0.48734,0.24476 0.74769,0.309 0.25814,0.0643 0.52962,0.0887 0.82781,0.0581 0.30041,-0.0306 0.62752,-0.12237 0.98356,-0.28146 0.35605,-0.16215 0.7388,-0.39467 1.1794,-0.75262 0.43839,-0.35796 0.93239,-0.84135 1.44198,-1.38899 0.51182,-0.54764 1.03921,-1.15952 1.48426,-1.71634 0.44506,-0.55376 0.81001,-1.0555 1.17939,-1.56643 0.36719,-0.51093 0.73658,-1.03409 1.00806,-1.40122 0.27147,-0.37019 0.44505,-0.58741 0.6164,-0.80463 -0.25147,0.0153 -0.50292,0.0336 -0.79219,0.0153 -0.28707,-0.0153 -0.61418,-0.0612 -0.95243,-0.18969 -0.34046,-0.12849 -0.69428,-0.33348 -0.99247,-0.56293 -0.29818,-0.22946 -0.54074,-0.48339 -0.76105,-0.78016 -0.22029,-0.29676 -0.41834,-0.64248 -0.58302,-1.04327 -0.16243,-0.40384 -0.28928,-0.86582 -0.36939,-1.2819 -0.0801,-0.41608 -0.11126,-0.78321 -0.11126,-1.14729 0,-0.36407 0.0312,-0.71896 0.0734,-1.02797 0.0423,-0.30594 0.0935,-0.56599 0.18247,-0.85052 0.0912,-0.28758 0.2203,-0.60271 0.3872,-0.91783 0.16689,-0.31206 0.37384,-0.62412 0.58969,-0.88724 0.21808,-0.26617 0.44728,-0.48338 0.72322,-0.64859 0.27816,-0.16827 0.60304,-0.28453 0.89901,-0.33348 0.29597,-0.0459 0.56077,-0.0184 0.80333,0.0336 0.24031,0.052 0.4584,0.13155 0.6787,0.26005 0.2203,0.1285 0.44505,0.309 0.63643,0.51704 0.19138,0.2111 0.3516,0.4528 0.48066,0.74039 0.12906,0.28758 0.22921,0.618 0.2826,0.89947 0.0556,0.28453 0.0645,0.52011 0.0668,0.83523 0.002,0.31206 -0.002,0.70367 -0.0979,1.03408 -0.0935,0.33042 -0.27816,0.59659 -0.4673,0.7924 -0.19138,0.1958 -0.38499,0.32124 -0.58081,0.38243 -0.19581,0.0612 -0.39609,0.0612 -0.56966,0.0214 -0.17358,-0.0398 -0.3249,-0.11932 -0.44061,-0.22028 -0.11571,-0.10096 -0.19582,-0.2264 -0.26258,-0.40079 -0.0645,-0.17439 -0.11571,-0.40079 -0.13129,-0.58435 -0.0133,-0.18357 0.007,-0.3243 0.0334,-0.46809 0.0267,-0.14074 0.0579,-0.28759 0.11794,-0.44056 0.0601,-0.14991 0.14909,-0.30595 0.26702,-0.42526 0.11795,-0.11932 0.26482,-0.20193 0.38943,-0.2417 0.12239,-0.0367 0.22253,-0.0306 0.31376,0.0184 0.0912,0.052 0.17357,0.14685 0.25814,0.2417 -0.0245,-0.18663 -0.0467,-0.37326 -0.0957,-0.55988 -0.0489,-0.18663 -0.1224,-0.37325 -0.22253,-0.52928 -0.0979,-0.15603 -0.22253,-0.28147 -0.40723,-0.39467 -0.1847,-0.11014 -0.43171,-0.20498 -0.66759,-0.23558 -0.23587,-0.0306 -0.46507,0.003 -0.71208,0.1132 -0.24702,0.10708 -0.51405,0.29065 -0.70764,0.48645 -0.19583,0.19581 -0.32043,0.40385 -0.44283,0.70061 -0.12016,0.29371 -0.23811,0.67308 -0.30708,1.09528 -0.069,0.42526 -0.089,0.89336 -0.0623,1.30944 0.0245,0.41302 0.0957,0.77098 0.20473,1.12281 0.10903,0.35489 0.25813,0.70061 0.42058,0.96678 0.16243,0.26923 0.34046,0.45586 0.54963,0.62107 0.2114,0.16215 0.45396,0.29982 0.74993,0.42526 0.29818,0.12544 0.652,0.23863 0.95908,0.28146 0.30711,0.0428 0.56969,0.009 0.84782,-0.0642 0.27816,-0.0765 0.57413,-0.19275 0.99248,-0.36714 0.41836,-0.17132 0.9591,-0.39772 1.46201,-0.59047 0.50069,-0.19274 0.96577,-0.35183 1.40637,-0.47115 0.44061,-0.12238 0.85673,-0.20498 1.28176,-0.26005 0.42724,-0.052 0.8634,-0.0795 1.32181,-0.0367 0.45839,0.0428 0.93905,0.14991 1.33293,0.28147 0.39165,0.12849 0.6965,0.28146 1.06145,0.54152 0.36271,0.26005 0.78552,0.62718 1.20387,1.14116 0.41612,0.51399 0.82779,1.17483 1.11707,1.73776 0.28929,0.56294 0.45841,1.02491 0.5897,1.441 0.12907,0.41302 0.22253,0.78321 0.31599,1.1534 0.0912,-0.37019 0.1847,-0.74038 0.31375,-1.1534 0.13129,-0.41609 0.30041,-0.87806 0.5897,-1.441 0.28928,-0.56293 0.70096,-1.22377 1.11932,-1.73776 0.41612,-0.51398 0.83891,-0.88111 1.20386,-1.14116 0.36272,-0.26006 0.66756,-0.41303 1.06144,-0.54152 0.39164,-0.13156 0.87231,-0.23864 1.3307,-0.28147 0.45841,-0.0428 0.89679,-0.0153 1.32182,0.0367 0.42724,0.0551 0.84337,0.13767 1.28175,0.26005 0.4406,0.11932 0.90567,0.27841 1.40858,0.47115 0.50069,0.19275 1.04143,0.41915 1.45978,0.59047 0.41834,0.17439 0.71431,0.29065 0.99247,0.36714 0.27815,0.0734 0.54074,0.10708 0.84782,0.0642 0.30708,-0.0428 0.6609,-0.15602 0.95908,-0.28146 0.29819,-0.12544 0.54075,-0.26311 0.74992,-0.42526 0.20917,-0.16521 0.3872,-0.35184 0.54965,-0.62107 0.16243,-0.26617 0.31153,-0.61189 0.42056,-0.96678 0.10904,-0.35183 0.18026,-0.70979 0.20473,-1.12281 0.0267,-0.41608 0.007,-0.88418 -0.0623,-1.30944 -0.069,-0.4222 -0.18692,-0.80157 -0.3071,-1.09528 -0.12016,-0.29676 -0.247,-0.5048 -0.44059,-0.70061 -0.19583,-0.1958 -0.46064,-0.37937 -0.70987,-0.48645 -0.247,-0.11014 -0.47397,-0.14379 -0.71208,-0.1132 -0.23588,0.0306 -0.48066,0.12544 -0.66536,0.23558 -0.18469,0.1132 -0.31152,0.23864 -0.40944,0.39467 -0.10014,0.15603 -0.17358,0.34265 -0.22252,0.52928 -0.049,0.18662 -0.0712,0.37325 -0.0935,0.55988 0.0823,-0.0948 0.16466,-0.18969 0.25589,-0.2417 0.0912,-0.049 0.19139,-0.0551 0.31599,-0.0184 0.1224,0.0398 0.26926,0.12238 0.38943,0.2417 0.11571,0.11931 0.20472,0.27535 0.2648,0.42526 0.0601,0.15297 0.0912,0.29982 0.11793,0.44056 0.0267,0.14379 0.0489,0.28452 0.0334,0.46809 -0.0156,0.18356 -0.0667,0.40996 -0.13128,0.58435 -0.0668,0.17439 -0.14687,0.29983 -0.26258,0.40079 -0.11572,0.10096 -0.26703,0.1805 -0.4406,0.22028 -0.17358,0.0398 -0.37385,0.0398 -0.56967,-0.0214 -0.19583,-0.0612 -0.38942,-0.18663 -0.57858,-0.38243 -0.19137,-0.19581 -0.37607,-0.46198 -0.46952,-0.7924 -0.0957,-0.33041 -0.10014,-0.72202 -0.0979,-1.03408 0.002,-0.31512 0.0111,-0.5507 0.0668,-0.83523 0.0534,-0.28147 0.15354,-0.61189 0.28261,-0.89947 0.12906,-0.28759 0.28927,-0.52929 0.48064,-0.74039 0.19139,-0.20804 0.41614,-0.38854 0.63643,-0.51704 0.22031,-0.1285 0.43839,-0.20804 0.67872,-0.26005 0.24254,-0.052 0.50735,-0.0795 0.8033,-0.0336 0.29597,0.0489 0.62085,0.16521 0.89901,0.33348 0.27594,0.16521 0.50514,0.38242 0.72322,0.64859 0.21584,0.26312 0.42279,0.57518 0.58968,0.88724 0.1669,0.31512 0.2982,0.63025 0.3872,0.91783 0.0912,0.28453 0.14019,0.54458 0.18248,0.85052 0.0423,0.30901 0.0734,0.6639 0.0734,1.02797 0,0.36408 -0.0312,0.73121 -0.11127,1.14729 -0.0801,0.41608 -0.20695,0.87806 -0.3694,1.2819 -0.16245,0.40079 -0.36271,0.74651 -0.58301,1.04327 -0.22031,0.29677 -0.46286,0.5507 -0.76105,0.78016 -0.29818,0.22945 -0.65199,0.43444 -0.99023,0.56293 -0.34047,0.1285 -0.66536,0.17439 -0.95464,0.18969 -0.28929,0.0184 -0.54074,0 -0.7922,-0.0153 0.17358,0.21722 0.34714,0.43444 0.6164,0.80463 0.27149,0.36713 0.64311,0.89029 1.01027,1.40122 0.36718,0.51093 0.73211,1.01267 1.17717,1.56643 0.44728,0.55682 0.97244,1.1687 1.48424,1.71634 0.50959,0.54764 1.00359,1.03103 1.4442,1.38899 0.43837,0.35795 0.82112,0.59047 1.17717,0.75262 0.35604,0.15909 0.68537,0.25087 0.98355,0.28146 0.2982,0.0306 0.56969,0.006 0.83004,-0.0581 0.26035,-0.0643 0.50959,-0.1652 0.74769,-0.309 0.2381,-0.14379 0.46285,-0.32736 0.67648,-0.59659 0.21363,-0.26923 0.41613,-0.62106 0.54296,-0.88111 0.12907,-0.257 0.1847,-0.41915 0.23588,-0.6792 0.0534,-0.25699 0.10013,-0.60883 0.11349,-0.93924 0.0134,-0.32736 -0.0111,-0.63025 -0.0512,-0.9056 -0.0401,-0.27535 -0.0979,-0.52316 -0.18247,-0.7465 -0.0868,-0.22334 -0.20026,-0.41914 -0.33824,-0.59353 -0.14019,-0.17745 -0.30708,-0.33042 -0.48287,-0.44668 -0.1758,-0.11931 -0.3605,-0.20192 -0.53407,-0.22945 -0.17579,-0.0275 -0.33824,0.003 -0.47842,0.0673 -0.13798,0.0612 -0.25147,0.16215 -0.36496,0.26005 0.0489,0.006 0.0957,0.0123 0.1491,0.0337 0.0534,0.0214 0.11126,0.0551 0.17134,0.1132 0.0579,0.0612 0.11572,0.14379 0.1669,0.25393 0.0489,0.11014 0.0868,0.24476 0.11795,0.39773 0.0311,0.15297 0.0556,0.32124 0.0556,0.49563 0,0.17132 -0.0245,0.34571 -0.0801,0.53234 -0.0579,0.18662 -0.14687,0.38242 -0.2737,0.54763 -0.12684,0.16522 -0.28929,0.29371 -0.44506,0.37631 -0.158,0.0795 -0.30708,0.11014 -0.46287,0.0979 -0.15576,-0.009 -0.31599,-0.0612 -0.46731,-0.14379 -0.15353,-0.0857 -0.29818,-0.20498 -0.41611,-0.35795 -0.11794,-0.14991 -0.2114,-0.33042 -0.27148,-0.47115 -0.0623,-0.1438 -0.0912,-0.24476 -0.12684,-0.40385 -0.0356,-0.15909 -0.0779,-0.37631 -0.0868,-0.59353 -0.007,-0.21416 0.02,-0.43138 0.069,-0.66084 0.0489,-0.23251 0.11794,-0.47421 0.21809,-0.70673 0.0979,-0.22946 0.22697,-0.44973 0.37384,-0.6333 0.14463,-0.18357 0.30708,-0.33348 0.4584,-0.44056 0.15132,-0.10708 0.2915,-0.17439 0.48067,-0.24169 0.19137,-0.0673 0.4317,-0.13462 0.6431,-0.15297 0.20917,-0.0184 0.39165,0.0122 0.61193,0.0734 0.22253,0.0612 0.48289,0.14991 0.71655,0.27534 0.23365,0.12238 0.43837,0.27841 0.62085,0.45892 0.18469,0.18357 0.34491,0.39161 0.49622,0.62412 0.15355,0.22946 0.29819,0.48339 0.42726,0.79852 0.13129,0.31206 0.24477,0.68531 0.32488,0.99431 0.0801,0.30595 0.1224,0.54458 0.14243,0.78016 0.0178,0.23557 0.0156,0.46809 0.005,0.69143 -0.0111,0.22028 -0.0312,0.43138 -0.0645,0.68837 -0.0334,0.25394 -0.0823,0.5507 -0.15578,0.84747 -0.0734,0.2937 -0.17134,0.58435 -0.28705,0.83828 -0.11571,0.25087 -0.24478,0.46504 -0.39388,0.6792 -0.14686,0.21416 -0.3093,0.42832 -0.46952,0.62106 -0.15799,0.19274 -0.31154,0.36101 -0.49178,0.51093 -0.18025,0.15297 -0.38721,0.28758 -0.60083,0.3916 -0.21363,0.10402 -0.43169,0.17439 -0.652,0.23864 -0.22253,0.0643 -0.44283,0.11932 -0.66758,0.14685 -0.22252,0.0245 -0.44728,0.0214 -0.72322,-0.0184 -0.27371,-0.0398 -0.59637,-0.11932 -0.88342,-0.21722 -0.28706,-0.0979 -0.53629,-0.21416 -0.77439,-0.34265 -0.23819,-0.12544 -0.46516,-0.26006 -0.71216,-0.44668 -0.24924,-0.18663 -0.52072,-0.42526 -0.78107,-0.66696 -0.25814,-0.2417 -0.50292,-0.48645 -0.81891,-0.81993 -0.31375,-0.33042 -0.6965,-0.74956 -1.00136,-1.09222 -0.30485,-0.33959 -0.53407,-0.60576 -0.83002,-0.98819 -0.29374,-0.37937 -0.65423,-0.87806 -0.97689,-1.32168 -0.32267,-0.44668 -0.6075,-0.84134 -0.82112,-1.13811 -0.21363,-0.2937 -0.35604,-0.48951 -0.49846,-0.68531 0.0534,0.38549 0.10681,0.77404 0.14242,1.19012 0.0356,0.41914 0.0534,0.87194 0.0512,1.25437 -0.003,0.38549 -0.0245,0.70367 -0.069,1.05244 -0.0445,0.34572 -0.10904,0.72203 -0.19583,1.06162 -0.089,0.3396 -0.20027,0.63943 -0.33602,0.93925 -0.13797,0.29677 -0.30263,0.58741 -0.48065,0.86276 -0.18025,0.27535 -0.37384,0.5354 -0.5897,0.7465 -0.21362,0.21416 -0.44951,0.37937 -0.71431,0.50787 -0.2648,0.13156 -0.55853,0.22334 -0.83669,0.26617 -0.28038,0.0459 -0.54519,0.0367 -0.80554,-0.003 -0.26036,-0.0398 -0.51627,-0.1132 -0.7655,-0.23252 -0.24922,-0.11932 -0.49178,-0.28452 -0.68983,-0.45891 -0.19582,-0.17439 -0.34936,-0.35796 -0.49178,-0.57212 -0.14019,-0.21416 -0.27148,-0.46197 -0.37829,-0.74956 -0.1046,-0.28758 -0.18693,-0.61494 -0.25369,-0.93312 -0.0667,-0.31819 -0.12016,-0.62719 -0.14018,-0.87194 -0.02,-0.24476 -0.0111,-0.42526 0.0111,-0.63331 0.02,-0.2111 0.0534,-0.44667 0.11572,-0.72508 0.0601,-0.27841 0.15354,-0.59965 0.25145,-0.86582 0.10013,-0.26617 0.20695,-0.47421 0.32266,-0.66696 0.11571,-0.19274 0.23811,-0.36713 0.40056,-0.51092 0.16021,-0.1438 0.35826,-0.257 0.52738,-0.34572 0.17134,-0.0887 0.31598,-0.14991 0.4584,-0.18357 0.14242,-0.0336 0.28261,-0.0367 0.43837,-0.006 0.15578,0.0306 0.32935,0.0918 0.49846,0.18357 0.16913,0.0948 0.33158,0.21722 0.46954,0.35795 0.13573,0.14074 0.24477,0.29983 0.33379,0.51093 0.089,0.20804 0.15798,0.47115 0.19359,0.71285 0.0378,0.24169 0.0401,0.46197 0.0289,0.67919 -0.0111,0.21416 -0.0378,0.42832 -0.0957,0.61495 -0.0556,0.18968 -0.14243,0.35183 -0.24256,0.48033 -0.10236,0.12544 -0.21808,0.22028 -0.35826,0.26923 -0.1402,0.052 -0.30487,0.0612 -0.45173,0.0428 -0.14687,-0.0184 -0.27816,-0.0643 -0.39833,-0.1285 -0.12016,-0.0643 -0.2292,-0.14685 -0.32044,-0.24781 -0.0912,-0.10402 -0.16467,-0.22334 -0.21139,-0.37019 -0.0467,-0.14686 -0.069,-0.3243 -0.0712,-0.48339 -0.005,-0.15603 0.009,-0.29371 0.0334,-0.41303 0.0267,-0.11625 0.0623,-0.2111 0.10013,-0.28147 0.0356,-0.0673 0.0712,-0.11013 0.10681,-0.15603 -0.0579,-0.009 -0.11571,-0.0214 -0.18469,-0.0183 -0.0712,0.003 -0.15577,0.0214 -0.23811,0.052 -0.0846,0.0306 -0.16466,0.0765 -0.2559,0.16826 -0.089,0.0948 -0.19137,0.23558 -0.26703,0.39467 -0.0779,0.15909 -0.13129,0.33654 -0.17358,0.54152 -0.0423,0.20498 -0.0712,0.4375 -0.0734,0.65778 0,0.22028 0.0245,0.43138 0.0734,0.6486 0.0467,0.22028 0.11795,0.44668 0.20028,0.6639 0.0846,0.22028 0.18248,0.43138 0.31821,0.62718 0.13796,0.19581 0.31377,0.37631 0.49623,0.52928 0.18248,0.15297 0.37162,0.27841 0.57635,0.3549 0.20695,0.0765 0.42947,0.10708 0.66312,0.0734 0.23366,-0.0367 0.47621,-0.13156 0.69652,-0.28147 0.22252,-0.14686 0.42057,-0.34572 0.55853,-0.49563 0.13798,-0.14991 0.21586,-0.25088 0.32267,-0.46504 0.1068,-0.21721 0.24032,-0.54763 0.34491,-0.86887 0.10236,-0.31819 0.17357,-0.62719 0.23589,-0.95455 0.0601,-0.3243 0.11125,-0.66695 0.13351,-0.96066 0.02,-0.29065 0.0111,-0.53234 -0.009,-0.79239 -0.0178,-0.25699 -0.0467,-0.53234 -0.0979,-0.85359 -0.0489,-0.32124 -0.12239,-0.69143 -0.20472,-0.97901 -0.0801,-0.28759 -0.17357,-0.49869 -0.32266,-0.76792 -0.14687,-0.26923 -0.3516,-0.59659 -0.57635,-0.88724 -0.22253,-0.29064 -0.46508,-0.54458 -0.70095,-0.74344 -0.23366,-0.19886 -0.46064,-0.34572 -0.71431,-0.48339 -0.25369,-0.13767 -0.53629,-0.26617 -0.8011,-0.36713 -0.26258,-0.0979 -0.5118,-0.17133 -0.81444,-0.20804 -0.30487,-0.0398 -0.66536,-0.0428 -1.01027,-0.0153 -0.34714,0.0306 -0.68094,0.0948 -1.01249,0.19887 -0.33379,0.10402 -0.66759,0.24781 -0.97912,0.44362 -0.31153,0.19274 -0.60082,0.43444 -0.83669,0.67001 -0.23589,0.23864 -0.42058,0.47116 -0.60304,0.73121 -0.18248,0.26311 -0.36496,0.55069 -0.53408,0.89335 -0.1669,0.3396 -0.31821,0.72815 -0.46284,1.17176 -0.14465,0.44668 -0.27817,0.94537 -0.37162,1.34004 -0.0912,0.39466 -0.14243,0.68837 -0.1669,0.9576 -0.0222,0.26923 -0.0222,0.51398 -0.02,0.68837 0.002,0.17439 0.007,0.27535 0.0289,0.45892 0.0222,0.18356 0.0645,0.44973 0.10459,0.64554 0.0423,0.19886 0.0846,0.3243 0.15799,0.49563 0.0757,0.17438 0.18248,0.38854 0.32489,0.60576 0.14019,0.21722 0.31598,0.43444 0.46063,0.57212 0.14687,0.14073 0.26258,0.20192 0.3872,0.24781 0.1246,0.0428 0.26035,0.0704 0.40276,0.0704 0.1402,0 0.28929,-0.0275 0.39834,-0.0765 0.10902,-0.052 0.18246,-0.12543 0.27814,-0.26005 0.0979,-0.13461 0.22253,-0.33042 0.29819,-0.5048 0.0734,-0.17133 0.10014,-0.32431 0.11571,-0.4834 0.0134,-0.15603 0.0156,-0.31818 0,-0.47727 -0.0156,-0.15909 -0.0512,-0.31206 -0.0957,-0.42526 -0.0467,-0.11626 -0.10235,-0.19274 -0.16021,-0.27229 -0.0134,0.0734 -0.0267,0.14685 -0.069,0.2264 -0.0445,0.0795 -0.1157,0.16521 -0.19804,0.24475 -0.0823,0.0795 -0.17358,0.15298 -0.27593,0.20193 -0.10237,0.0459 -0.21586,0.0704 -0.34269,0.0337 -0.12462,-0.0367 -0.26482,-0.13462 -0.36495,-0.26617 -0.10013,-0.13156 -0.16244,-0.29983 -0.18914,-0.47728 -0.0267,-0.17744 -0.0178,-0.36101 0.0245,-0.5354 0.0445,-0.17438 0.12017,-0.33653 0.20918,-0.46809 0.0912,-0.13156 0.19582,-0.23252 0.32267,-0.30288 0.12906,-0.0704 0.28038,-0.11014 0.44728,-0.10402 0.16466,0.006 0.34268,0.0581 0.53405,0.18356 0.19137,0.12238 0.39831,0.32124 0.54074,0.52317 0.1424,0.20192 0.22475,0.40996 0.29818,0.66389 0.0734,0.25394 0.14019,0.55682 0.16468,0.85052 0.0222,0.29371 0.002,0.57518 -0.0712,0.88418 -0.0712,0.30594 -0.1936,0.63942 -0.30709,0.875 -0.11571,0.23864 -0.22029,0.38243 -0.37606,0.53846 -0.15799,0.15603 -0.36272,0.3243 -0.56744,0.41914 -0.20473,0.0979 -0.40723,0.12544 -0.62085,0.1132 -0.2114,-0.0122 -0.43392,-0.0581 -0.63643,-0.13461 -0.20471,-0.0765 -0.38941,-0.18357 -0.57856,-0.32736 -0.19136,-0.1438 -0.38718,-0.33042 -0.55854,-0.56294 -0.16912,-0.23558 -0.31153,-0.51705 -0.4317,-0.79545 -0.12016,-0.27535 -0.21807,-0.54152 -0.31375,-0.80769 -0.0979,0.26617 -0.19583,0.53234 -0.31599,0.80769 -0.12018,0.2784 -0.26258,0.55987 -0.43171,0.79545 -0.17134,0.23252 -0.36717,0.41914 -0.55631,0.56294 -0.19137,0.14379 -0.37607,0.25087 -0.5808,0.32735 -0.2025,0.0765 -0.42501,0.12238 -0.63642,0.13462 -0.21362,0.0122 -0.41612,-0.0153 -0.62085,-0.1132 -0.20472,-0.0948 -0.40945,-0.26311 -0.56522,-0.41914 -0.15576,-0.15603 -0.26258,-0.29982 -0.37828,-0.53846 -0.11349,-0.23558 -0.23589,-0.56906 -0.3071,-0.875 -0.0712,-0.309 -0.0935,-0.59047 -0.069,-0.88418 0.0222,-0.2937 0.089,-0.59658 0.16243,-0.85052 0.0757,-0.25393 0.15578,-0.46197 0.29819,-0.66389 0.14465,-0.20193 0.34937,-0.40079 0.54074,-0.52317 0.19137,-0.12544 0.36939,-0.17745 0.53629,-0.18356 0.16468,-0.006 0.31599,0.0336 0.44506,0.10402 0.12905,0.0704 0.23142,0.17132 0.32266,0.30288 0.089,0.13155 0.16689,0.2937 0.20917,0.46809 0.0423,0.17439 0.0512,0.35796 0.0245,0.5354 -0.0267,0.17745 -0.089,0.34572 -0.18915,0.47728 -0.10013,0.13155 -0.2381,0.22945 -0.36493,0.26617 -0.12462,0.0367 -0.23811,0.0122 -0.3427,-0.0337 -0.10236,-0.0489 -0.1936,-0.12238 -0.27592,-0.20193 -0.0823,-0.0795 -0.15356,-0.16521 -0.19583,-0.24475 -0.0445,-0.0795 -0.0579,-0.15297 -0.0712,-0.2264 -0.0579,0.0795 -0.11349,0.15603 -0.16021,0.27229 -0.0445,0.1132 -0.0801,0.26617 -0.0957,0.42526 -0.0156,0.15909 -0.0133,0.32124 0,0.47727 0.0156,0.15909 0.0423,0.31207 0.11793,0.48339 0.0734,0.17439 0.19805,0.3702 0.29596,0.50481 0.0979,0.13462 0.16912,0.20804 0.27816,0.26005 0.10903,0.0489 0.25812,0.0765 0.39832,0.0765 0.14241,0 0.27816,-0.0275 0.40277,-0.0704 0.12462,-0.0459 0.24033,-0.10708 0.3872,-0.24781 0.14464,-0.13768 0.32043,-0.3549 0.46286,-0.57212 0.14018,-0.21722 0.24922,-0.43138 0.32266,-0.60576 0.0757,-0.17133 0.11571,-0.29677 0.15798,-0.49563 0.0423,-0.19581 0.0823,-0.46198 0.1046,-0.64554 0.0222,-0.18357 0.0267,-0.28453 0.0289,-0.45892 0.002,-0.17439 0.005,-0.41914 -0.02,-0.68837 -0.0245,-0.26923 -0.0734,-0.56294 -0.1669,-0.9576 -0.0912,-0.39467 -0.22697,-0.89336 -0.37161,-1.34004 -0.14464,-0.44361 -0.29596,-0.83216 -0.46286,-1.17176 -0.16911,-0.34266 -0.35159,-0.63024 -0.53407,-0.89335 -0.18246,-0.26006 -0.36715,-0.49257 -0.60304,-0.73121 -0.23587,-0.23558 -0.52516,-0.47727 -0.83669,-0.67002 -0.31154,-0.1958 -0.64533,-0.33959 -0.97689,-0.44361 -0.33379,-0.10402 -0.66758,-0.16827 -1.01249,-0.19887 -0.34715,-0.0275 -0.70764,-0.0245 -1.0125,0.0153 -0.30263,0.0367 -0.54964,0.11014 -0.81445,0.20805 -0.26481,0.10096 -0.54741,0.22945 -0.80109,0.36713 -0.25368,0.13767 -0.48066,0.28452 -0.71433,0.48339 -0.23587,0.19886 -0.47842,0.45279 -0.70095,0.74344 -0.22475,0.29065 -0.42725,0.61801 -0.57635,0.88724 -0.1491,0.26923 -0.24032,0.48033 -0.32267,0.76791 -0.0823,0.28759 -0.15354,0.65778 -0.20472,0.97902 -0.0489,0.32124 -0.0779,0.59659 -0.0979,0.85358 -0.02,0.26006 -0.029,0.50175 -0.007,0.7924 0.02,0.29371 0.0712,0.63636 0.13129,0.96066 0.0623,0.32736 0.13352,0.63636 0.23587,0.95454 0.10459,0.32125 0.24033,0.65166 0.34492,0.86888 0.10682,0.21416 0.1847,0.31512 0.32267,0.46504 0.13797,0.14991 0.33602,0.34877 0.55855,0.49563 0.22029,0.14991 0.46507,0.24475 0.69873,0.28146 0.23143,0.0337 0.45618,0.003 0.66091,-0.0734 0.20472,-0.0765 0.39387,-0.20192 0.57634,-0.35489 0.18248,-0.15297 0.36049,-0.33348 0.49623,-0.52928 0.13798,-0.1958 0.23366,-0.4069 0.31821,-0.62719 0.0823,-0.21722 0.15354,-0.44361 0.2025,-0.66389 0.0467,-0.21722 0.0734,-0.42832 0.0712,-0.6486 -0.002,-0.22028 -0.0312,-0.4528 -0.0734,-0.65778 -0.0401,-0.20498 -0.0957,-0.38243 -0.17134,-0.54152 -0.0779,-0.15909 -0.17803,-0.29983 -0.26927,-0.39467 -0.0912,-0.0918 -0.17134,-0.13767 -0.25367,-0.16827 -0.0846,-0.0306 -0.1669,-0.049 -0.23811,-0.052 -0.0712,-0.003 -0.12906,0.009 -0.18692,0.0184 0.0356,0.0459 0.0712,0.0887 0.10682,0.15603 0.0378,0.0704 0.0734,0.16521 0.10013,0.28147 0.0245,0.11932 0.0378,0.25699 0.0356,0.41303 -0.005,0.15909 -0.0267,0.33653 -0.0734,0.48339 -0.0467,0.14685 -0.11794,0.26617 -0.20917,0.37019 -0.0912,0.10096 -0.20251,0.18356 -0.32266,0.24781 -0.12016,0.0643 -0.24923,0.11014 -0.39833,0.1285 -0.14686,0.0184 -0.31154,0.009 -0.45173,-0.0428 -0.1402,-0.0489 -0.25591,-0.1438 -0.35604,-0.26923 -0.10237,-0.1285 -0.18915,-0.29065 -0.24478,-0.48033 -0.0579,-0.18663 -0.0846,-0.40079 -0.0957,-0.61495 -0.0111,-0.21722 -0.007,-0.4375 0.029,-0.67919 0.0356,-0.2417 0.10459,-0.50481 0.19359,-0.71285 0.089,-0.2111 0.19805,-0.37019 0.33379,-0.51093 0.13796,-0.14073 0.30042,-0.26311 0.46954,-0.35795 0.16912,-0.0918 0.34269,-0.15297 0.49847,-0.18357 0.15798,-0.0306 0.29596,-0.0275 0.43837,0.006 0.14243,0.0337 0.28706,0.0948 0.45841,0.18357 0.17134,0.0887 0.36716,0.20192 0.52961,0.34571 0.16021,0.1438 0.28261,0.31819 0.39832,0.51093 0.11571,0.19275 0.22253,0.40079 0.32266,0.66696 0.10015,0.26617 0.19137,0.58741 0.25146,0.86582 0.0623,0.2784 0.0957,0.51398 0.11572,0.72508 0.0222,0.20804 0.0334,0.38855 0.0111,0.6333 -0.02,0.24476 -0.0712,0.55376 -0.14019,0.87194 -0.0668,0.31819 -0.1491,0.64555 -0.25369,0.93313 -0.1068,0.28759 -0.23809,0.5354 -0.37829,0.74956 -0.14241,0.21416 -0.29372,0.39773 -0.49178,0.57212 -0.19805,0.17439 -0.44059,0.33959 -0.68983,0.45891 -0.24923,0.11932 -0.50291,0.19275 -0.76326,0.23252 -0.26258,0.0398 -0.52741,0.049 -0.80779,0.003 -0.27815,-0.0428 -0.57189,-0.13461 -0.83669,-0.26617 -0.2648,-0.1285 -0.5007,-0.29371 -0.71432,-0.50787 -0.21586,-0.2111 -0.40945,-0.47115 -0.5897,-0.7465 -0.17802,-0.27535 -0.34269,-0.56599 -0.47843,-0.86276 -0.13797,-0.29982 -0.24923,-0.59965 -0.33825,-0.93925 -0.0868,-0.33959 -0.15131,-0.7159 -0.19583,-1.06162 -0.0445,-0.34877 -0.0668,-0.66695 -0.069,-1.05244 -0.002,-0.38243 0.0156,-0.83523 0.0512,-1.25437 0.0378,-0.41608 0.089,-0.80463 0.14243,-1.19012 -0.14243,0.1958 -0.28261,0.39161 -0.49622,0.68531 -0.21586,0.29677 -0.5007,0.69143 -0.82336,1.13811 -0.32267,0.44362 -0.68316,0.94231 -0.97689,1.32168 -0.29597,0.38243 -0.52295,0.6486 -0.83004,0.98819 -0.30486,0.34266 -0.6876,0.7618 -1.00136,1.09222 -0.31377,0.33348 -0.56078,0.57823 -0.81891,0.81993 -0.25813,0.2417 -0.52961,0.48033 -0.77884,0.66696 -0.24924,0.18662 -0.47622,0.32124 -0.71432,0.44667 -0.23811,0.1285 -0.48733,0.24476 -0.7744,0.34266 -0.28483,0.0979 -0.60972,0.17745 -0.88344,0.21722 -0.27369,0.0398 -0.50067,0.0428 -0.7232,0.0184 -0.22475,-0.0275 -0.44506,-0.0826 -0.66536,-0.14685 -0.22253,-0.0643 -0.44061,-0.13462 -0.65424,-0.23864 -0.21362,-0.10402 -0.42057,-0.23863 -0.60082,-0.39161 -0.18024,-0.14991 -0.33378,-0.31818 -0.49178,-0.51092 -0.15798,-0.19275 -0.32267,-0.40691 -0.46954,-0.62107 -0.14909,-0.21416 -0.27816,-0.42832 -0.39387,-0.67919 -0.11349,-0.25393 -0.21362,-0.54458 -0.28705,-0.83829 -0.0734,-0.29676 -0.12017,-0.59353 -0.15355,-0.84746 -0.0334,-0.25699 -0.0534,-0.46809 -0.0645,-0.68837 -0.0134,-0.22334 -0.0156,-0.45586 0.005,-0.69143 0.0178,-0.23558 0.0623,-0.47421 0.1402,-0.78016 0.0801,-0.309 0.19582,-0.68225 0.32489,-0.99432 0.12907,-0.31512 0.27371,-0.56905 0.42725,-0.79851 0.15132,-0.23251 0.31378,-0.44056 0.49624,-0.62412 0.18248,-0.18051 0.38942,-0.33654 0.62086,-0.45892 0.23365,-0.12543 0.49623,-0.21416 0.71654,-0.27535 0.22029,-0.0612 0.40277,-0.0918 0.61416,-0.0734 0.20919,0.0184 0.44951,0.0857 0.64089,0.15297 0.18915,0.0673 0.32933,0.13462 0.48065,0.2417 0.15131,0.10708 0.31376,0.25699 0.46064,0.44056 0.14465,0.18356 0.27371,0.40384 0.37163,0.6333 0.10013,0.23252 0.17134,0.47421 0.21806,0.70673 0.0489,0.22946 0.0756,0.44668 0.069,0.66084 -0.009,0.21722 -0.0489,0.43444 -0.0846,0.59353 -0.0356,0.15909 -0.0667,0.26005 -0.12683,0.40384 -0.0623,0.14074 -0.15577,0.32124 -0.27371,0.47116 -0.11793,0.15297 -0.26258,0.27228 -0.41391,0.35795 -0.15354,0.0826 -0.31376,0.13462 -0.46953,0.14379 -0.15576,0.0122 -0.30485,-0.0184 -0.46286,-0.0979 -0.15576,-0.0826 -0.31821,-0.2111 -0.44504,-0.37631 -0.12684,-0.16521 -0.21586,-0.36101 -0.27371,-0.54764 -0.0556,-0.18662 -0.0801,-0.36101 -0.0801,-0.53234 0,-0.17439 0.0245,-0.34265 0.0556,-0.49563 0.0312,-0.15297 0.0712,-0.28758 0.12015,-0.39772 0.0489,-0.11014 0.10682,-0.19275 0.1669,-0.25393 0.0579,-0.0581 0.11793,-0.0918 0.16912,-0.11321 0.0534,-0.0214 0.10235,-0.0275 0.14909,-0.0337 z"
       id="path187-9"
       style="fill:none;stroke:#0000ff;stroke-width:0.2;stroke-linecap:round;stroke-linejoin:round;stroke-miterlimit:4;stroke-dasharray:none;stroke-opacity:1" />
  </g>
</svg>
