<?xml version="1.0" encoding="UTF-8" standalone="no"?>
<!-- Created with Inkscape (http://www.inkscape.org/) -->

<svg
   xmlns:dc="http://purl.org/dc/elements/1.1/"
   xmlns:cc="http://creativecommons.org/ns#"
   xmlns:rdf="http://www.w3.org/1999/02/22-rdf-syntax-ns#"
   xmlns:svg="http://www.w3.org/2000/svg"
   xmlns="http://www.w3.org/2000/svg"
   xmlns:sodipodi="http://sodipodi.sourceforge.net/DTD/sodipodi-0.dtd"
   xmlns:inkscape="http://www.inkscape.org/namespaces/inkscape"
   width="58.850418mm"
   height="48.145786mm"
   viewBox="0 0 58.850418 48.145787"
   version="1.1"
   id="svg8"
   inkscape:version="0.92.1 r15371"
   sodipodi:docname="Martina Box Right.svg">
  <sodipodi:namedview
     id="base"
     pagecolor="#ffffff"
     bordercolor="#666666"
     borderopacity="1.0"
     inkscape:pageopacity="0.0"
     inkscape:pageshadow="2"
     inkscape:zoom="3.3340837"
     inkscape:cx="75.22325"
     inkscape:cy="97.258087"
     inkscape:document-units="mm"
     inkscape:current-layer="layer1"
     showgrid="true"
     showguides="true"
     inkscape:guide-bbox="true"
     inkscape:window-width="1920"
     inkscape:window-height="1027"
     inkscape:window-x="-8"
     inkscape:window-y="-8"
     inkscape:window-maximized="1"
     inkscape:measure-start="-20.4907,69.0611"
     inkscape:measure-end="15.4885,56.8545"
     inkscape:snap-intersection-paths="true"
     inkscape:snap-center="true"
     inkscape:snap-midpoints="true"
     fit-margin-top="0"
     fit-margin-left="0"
     fit-margin-right="0"
     fit-margin-bottom="0">
    <inkscape:grid
       type="xygrid"
       id="grid6865"
       visible="false"
       enabled="false"
       originx="-108.41339"
       originy="-268.97275" />
  </sodipodi:namedview>
  <defs
     id="defs2" />
  <metadata
     id="metadata5">
    <rdf:RDF>
      <cc:Work
         rdf:about="">
        <dc:format>image/svg+xml</dc:format>
        <dc:type
           rdf:resource="http://purl.org/dc/dcmitype/StillImage" />
        <dc:title />
      </cc:Work>
    </rdf:RDF>
  </metadata>
  <g
     inkscape:label="Layer 1"
     inkscape:groupmode="layer"
     id="layer1"
     transform="translate(-108.41339,20.118555)">
    <path
       style="fill:none;fill-opacity:1;stroke:#ff0000;stroke-width:0.2;stroke-miterlimit:4;stroke-dasharray:none;stroke-opacity:1"
       inkscape:connector-curvature="0"
       d="m 163.06689,-6.92302 c 0,-7.232736 -10.70226,-13.095535 -25.26032,-13.095535 -14.55806,0 -25.39318,5.862919 -25.39318,13.095536"
       id="path4499-8"
       sodipodi:nodetypes="csc" />
    <path
       style="fill:none;fill-opacity:1;stroke:#ff0000;stroke-width:0.2;stroke-miterlimit:4;stroke-dasharray:none;stroke-opacity:1"
       d="m 163.06689,-6.92302 v 8.09625 h 4.09691 l -4.1e-4,6.09625 h -4.0975 v 5.715 h 4.0975 v 6.09675 h -4.0975 v 8.846 h -3.79615 v -3.899999 h -7.14375 v 3.899999 h -5.715 v -3.899999 h -5.715 v 3.899999 h -5.715 v -3.899999 h -5.715 v 3.899999 h -5.715 v -3.899999 l -7.14375,-0.098 v 3.998 h -3.99385 v -8.846 h -3.89999 v -6.09675 h 3.89999 l 0.098,-5.715 h -3.99799 l 4e-4,-6.09625 h 3.89959 v -8.09625"
       id="polyline4495-2"
       inkscape:connector-curvature="0"
       sodipodi:nodetypes="cccccccccccccccccccccccccccccccccccc" />
    <path
       inkscape:connector-curvature="0"
       d="m 129.4321,9.4047388 c -0.0759,-0.33005 -0.30889,-0.6536 -0.4945,-0.98228 -0.18494,-0.32868 -0.32219,-0.66185 -0.44888,-1.00358 -0.12703,-0.34208 -0.24385,-0.69206 -0.33342,-1.04857 -0.0895,-0.35617 -0.1519,-0.71851 -0.19584,-1.08326 -0.0439,-0.36475 -0.0695,-0.73122 -0.0763,-1.09838 -0.007,-0.36715 0.006,-0.73465 0.0368,-1.10078 0.0314,-0.36612 0.0828,-0.73018 0.15735,-1.08944 0.0749,-0.35925 0.17301,-0.71404 0.29119,-1.06093 0.1185,-0.34723 0.25747,-0.68725 0.41312,-1.01939 0.15564,-0.33212 0.32865,-0.65564 0.5146,-0.97163 0.18596,-0.31598 0.38519,-0.62371 0.5943,-0.92425 0.20877,-0.30051 0.42811,-0.59349 0.65151,-0.88404 0.22308,-0.29057 0.45127,-0.57941 0.6774,-0.86414 0.22615,-0.28506 0.45058,-0.56669 0.63722,-0.89436 0.18697,-0.32765 0.3358,-0.70134 0.60281,-0.91737 0.26633,-0.21604 0.6505,-0.27545 0.9812,-0.17036 0.33035,0.1054 0.60724,0.37471 0.93112,0.41078 0.32354,0.0364 0.69409,-0.16039 1.0534,-0.29125 0.35896,-0.13051 0.70668,-0.19509 1.06224,-0.25485 0.35556,-0.0598 0.71895,-0.115 1.08302,-0.14116 0.36374,-0.0262 0.72849,-0.023 1.09154,0 0.36304,0.023 0.72542,0.066 1.08574,0.12121 0.35999,0.0553 0.71759,0.12261 1.07417,0.19887 0.35658,0.0762 0.71214,0.16141 1.06327,0.25312 0.35113,0.092 0.69851,0.19096 1.05578,0.28302 0.35759,0.0924 0.72508,0.17755 1.06768,0.2301 0.34296,0.0526 0.66106,0.0726 1.08916,0.0787 0.42843,0.006 0.96689,-0.002 1.0677,0.17345 0.10076,0.17585 -0.23637,0.53511 -0.31436,0.86482 -0.0779,0.32937 0.10281,0.62887 0.3181,0.916 0.21524,0.28713 0.46488,0.56189 0.68183,0.86036 0.2166,0.29846 0.40051,0.62062 0.54219,0.95927 0.14168,0.33865 0.24146,0.69344 0.31946,1.10799 0.078,0.41454 0.1352,0.88818 0.006,1.22649 -0.12908,0.3383 -0.44411,0.54128 -0.62121,0.80025 -0.17744,0.25896 -0.21695,0.57459 -0.19037,0.91977 0.0265,0.34517 0.11923,0.72023 0.15496,1.08944 0.0357,0.36921 0.0153,0.73294 -0.0279,1.09975 -0.0432,0.3668 -0.10897,0.73672 -0.18426,1.08531 -0.0749,0.34862 -0.15939,0.67593 -0.31979,1.05202 -0.16109,0.37643 -0.39813,0.80127 -0.69784,0.77999 -0.2997,-0.0213 -0.66173,-0.48943 -0.94134,-0.51382 -0.27893,-0.0241 -0.47544,0.396 -0.6539,0.75526 -0.17812,0.35926 -0.33853,0.65807 -0.54866,0.95173 -0.21014,0.29329 -0.47033,0.58214 -0.74961,0.7937092 -0.27961,0.21157 -0.57863,0.34621 -0.97403,0.48874 -0.39541,0.14219 -0.8872,0.29263 -1.07383,0.10685 -0.18698,-0.18547 -0.0684,-0.7071692 -0.20025,-0.9517092 -0.1318,-0.2442 -0.51393,-0.21191 -0.87835,-0.14323 -0.36475,0.0684 -0.71213,0.17311 -1.07075,0.21088 -0.35863,0.0377 -0.72814,0.009 -1.08746,-0.0581 -0.35963,-0.067 -0.70906,-0.17137 -1.04488,-0.31425 -0.33545,-0.14288 -0.65764,-0.32457 -0.93758,-0.55778 -0.28001,-0.23319 -0.51806,-0.51758 -0.69345,-0.84317 -0.17507,-0.32527 -0.28678,-0.69138 -0.31708,-1.04549 -0.0303,-0.35411 0.0211,-0.69618 0.2023,-1.06953 0.18118,-0.37333 0.49247,-0.77792 0.73529,-0.78857 0.24351,-0.011 0.41858,0.37265 0.67843,0.63815 0.26053,0.26549 0.60587,0.41317 0.96825,0.45644 0.36236,0.0433 0.74074,-0.0175 1.0762,-0.12947 0.33581,-0.11232 0.6287,-0.27614 0.98596,-0.4702 0.35727,-0.19404 0.77855,-0.41902 0.87289,-0.65737 0.0944,-0.23836 -0.13759,-0.49079 -0.38757,-0.72607 -0.24998,-0.23526 -0.51733,-0.45336 -0.4315,-0.65462 0.0862,-0.20126 0.52584,-0.3857 0.89434,-0.6323 0.3685,-0.24661 0.66547,-0.55538 0.73019,-0.81262 0.0643,-0.2576 -0.10354,-0.46333 -0.36271,-0.66734 -0.25918,-0.20401 -0.60963,-0.40631 -0.54764,-0.62097 0.0617,-0.21467 0.53469,-0.44168 0.79421,-0.7422 0.25952,-0.30053 0.30516,-0.67455 0.31435,-1.04584 0.01,-0.37127 -0.0177,-0.73945 -0.11959,-1.08771 -0.10221,-0.34828 -0.27927,-0.67695 -0.4843,-0.98366 -0.20503,-0.3067 -0.43764,-0.59178 -0.7118,-0.83219 -0.2745,-0.24043 -0.59021,-0.43585 -0.92942,-0.56602 -0.33887,-0.13052 -0.70124,-0.19543 -1.06361,-0.24042 -0.36271,-0.0451 -0.7261,-0.0701 -1.08949,-0.0687 -0.36373,0.001 -0.72848,0.0289 -1.08779,0.0879 -0.35964,0.0588 -0.71486,0.14941 -1.05578,0.27683 -0.34125,0.12777 -0.66821,0.29297 -0.98153,0.4805 -0.31298,0.18786 -0.612,0.39841 -0.89911,0.6244 -0.2871,0.22599 -0.56194,0.46744 -0.82759,0.71885 -0.26565,0.25107 -0.52176,0.51245 -0.76799,0.78308 -0.24623,0.27065 -0.48225,0.5509 -0.70499,0.84113 -0.22273,0.29022 -0.43286,0.59074 -0.62427,0.90328 -0.19174,0.31256 -0.36544,0.63746 -0.50814,0.9785 -0.1427,0.34106 -0.25405,0.69825 -0.33784,1.05957 -0.0834,0.36132 -0.13896,0.72675 -0.17471,1.09288 -0.0355,0.36612 -0.0511,0.73328 -0.0426,1.10077 0.008,0.36717 0.0415,0.73467 0.0906,1.10044 0.049,0.36578 0.11379,0.73053 0.19957,1.0891 0.0858,0.35857 0.19208,0.71095 0.32524,1.05269 0.13317,0.34174 0.29256,0.67284 0.46693,0.995 0.17438,0.32215 0.36339,0.63608 0.56332,0.94346 0.19957,0.30775 0.4097,0.6103292 0.6372,0.8943692 0.22751,0.28438 0.47238,0.55091 0.72201,0.82602 0.2493,0.27544 0.50371,0.55949 0.8385,0.7034 0.33444,0.14424 0.74925,0.14871 0.77855,-0.0443 0.029,-0.19337 -0.32729,-0.5832 -0.61746,-0.89437 -0.29017,-0.31186 -0.51393,-0.54471 -0.72679,-0.82223 -0.21285,-0.2771692 -0.4155,-0.5986392 -0.5868,-0.9273292 -0.17164,-0.3287 -0.31264,-0.66527 -0.43048,-1.01148 -0.1179,-0.3462 -0.21185,-0.70305 -0.2728,-1.06574 -0.0609,-0.36269 -0.0879,-0.73122 -0.0903,-1.09666 -0.004,-0.36544 0.0204,-0.72847 0.0504,-1.10009 0.0299,-0.37163 0.0681,-0.75217 0.10559,-1.09666 0.0375,-0.34448 0.0742,-0.65256 0.077,-1.09905 0.004,-0.44616 -0.0282,-1.03038 0.11754,-1.09322 0.1461,-0.0628 0.46896,0.39531 0.71588,0.47362 0.24725,0.0783 0.41787,-0.2236 0.60144,-0.51827 0.18391,-0.29469 0.38077,-0.58285 0.62326,-0.85178 0.24214,-0.26892 0.53027,-0.5193 0.84598,-0.70614 0.31571,-0.18684 0.65968,-0.31014 1.01287,-0.39257 0.35316,-0.0824 0.71621,-0.12399 1.0837,-0.10648 0.36748,0.0179 0.74006,0.0952 1.07246,0.22152 0.3324,0.12639 0.62597,0.30156 0.85143,0.53305 0.22581,0.23183 0.38417,0.51999 0.47408,0.83872 0.0896,0.31906 0.1103,0.6687 -0.077,0.69652 -0.18766,0.0281 -0.5834,-0.26514 -0.95974,-0.3613 -0.37633,-0.0962 -0.73325,0.006 -1.05884,0.15592 -0.32525,0.15044 -0.61916,0.34998 -0.84939,0.67763 -0.23056,0.32801 -0.39711,0.78411 -0.15905,1.01766 0.23841,0.2339 0.88175,0.2449 1.01322,0.37575 0.13111,0.13086 -0.24965,0.38123 -0.6127,0.5406 -0.36271,0.15902 -0.70771,0.22634 -1.01559,0.39773 -0.30754,0.17137 -0.57829,0.44647 -0.78161,0.75491 -0.20333,0.30843 -0.33921,0.6505 -0.44819,1.00117 -0.10897,0.35032 -0.19174,0.70889 -0.2476,1.07193 -0.0559,0.36303 -0.0851,0.73019 -0.0804,1.09733 0.005,0.36716 0.0432,0.73467 0.12227,1.09323 0.0787,0.35822 0.1982,0.7075192 0.35657,1.0382592 0.15871,0.33076 0.35658,0.64262 0.59703,0.9191 0.24044,0.27614 0.52346,0.51587 0.83917,0.69687 0.31537,0.181 0.66309,0.30292 1.01592,0.39566 0.35318,0.0931 0.71147,0.15593 1.07316,0.20058 0.36168,0.0447 0.72745,0.0701 1.09017,0.023 0.36271,-0.0471 0.72303,-0.16623 1.0241,-0.351 0.30141,-0.18479 0.54389,-0.43552 0.82725,-0.67386 0.28268,-0.23837 0.60622,-0.46504 0.89128,-0.45166 0.28438,0.0138 0.53028,0.26756 0.78945,0.48565 0.25951,0.21776 0.53231,0.39944 0.88923,0.5382 0.35726,0.1384 0.79797,0.23389 0.9519,0.52823 0.1536,0.29366 0.0211,0.78686 -0.24078,0.91497 -0.26156,0.12811 -0.65151,-0.10819 -1.01116,-0.33864 -0.35999,-0.23081 -0.68966,-0.45543 -1.00061,-0.41215 -0.31128,0.043 -0.60417,0.35375 -0.92839,0.53888 -0.32423,0.18547 -0.67979,0.24556 -1.04045,0.25277 -0.36068,0.009 -0.72611,-0.0368 -1.09052,-0.0649 -0.36408,-0.0285 -0.72747,-0.0409 -1.09052,-0.0663 -0.3627,-0.0254 -0.72542,-0.0639 -1.08574,-0.11913 -0.36033,-0.0553 -0.71758,-0.12742 -1.07008,-0.22015 -0.35215,-0.0931 -0.69954,-0.20676 -1.03909,-0.339 -0.33921,-0.13222 -0.67093,-0.283 -0.9989,-0.44477 -0.32797,-0.16177 -0.6522,-0.33419 -0.93726,-0.56465 -0.28506,-0.23012 -0.53095,-0.51827 -0.83236,-0.71129 -0.3014,-0.19337 -0.65866,-0.29057 -0.79728,-0.0337 -0.13896,0.25725 -0.06,0.86929 -0.18628,1.03586 -0.12636,0.16659 -0.45808,-0.11231 -0.66514,-0.0824 -0.20742,0.0302 -0.29085,0.36922 -0.43355,0.73776 -0.14305,0.36853 -0.34569,0.7666 -0.50678,0.77105 -0.16178,0.005 -0.28199,-0.38364 -0.35113,-0.70133 -0.0695,-0.3177 -0.0875,-0.56465 -0.032,-0.91462 0.0551,-0.35068 0.18459,-0.80438 0.39507,-1.12002 0.21013,-0.31529 0.50235,-0.49182 0.68863,-0.74872 0.18698,-0.25314 0.26837,-0.5897292 0.19277,-0.9194392 z"
       id="path1437"
       style="fill:none;stroke:#0000ff;stroke-width:0.2;stroke-linecap:round;stroke-linejoin:round;stroke-miterlimit:4;stroke-dasharray:none;stroke-opacity:1" />
    <path
       inkscape:connector-curvature="0"
       d="m 129.43248,9.4047411 c -0.0759,-0.33005 -0.30889,-0.6536 -0.49451,-0.98228 -0.18493,-0.32868 -0.32219,-0.66184 -0.44887,-1.00357 -0.12704,-0.34209 -0.24385,-0.69207 -0.33343,-1.04858 -0.0895,-0.35617 -0.15189,-0.71851 -0.19583,-1.08326 -0.0439,-0.36475 -0.0695,-0.73122 -0.0763,-1.09838 -0.007,-0.36715 0.006,-0.73465 0.0368,-1.10078 0.0314,-0.36612 0.0828,-0.73018 0.15735,-1.08944 0.0749,-0.35925 0.17301,-0.71404 0.29119,-1.06092989 0.1185,-0.34723 0.25747,-0.68725 0.41312,-1.01939 0.15563,-0.33212 0.32865,-0.65564 0.51459,-0.97163011 0.18597,-0.31598 0.3852,-0.62371 0.59431,-0.92425 0.20877,-0.30051 0.4281,-0.59349 0.65151,-0.88404 0.22308,-0.29057 0.45127,-0.57941 0.6774,-0.86414 0.22615,-0.28506 0.45058,-0.56669 0.63721,-0.89436 0.18698,-0.32765 0.33581,-0.70134 0.60281,-0.91737 0.26634,-0.21604 0.65051,-0.27545 0.9812,-0.17036 0.33035,0.1054 0.60724,0.37471 0.93112,0.41078 0.32355,0.0364 0.69409,-0.16039 1.0534,-0.29125 0.35896,-0.13051 0.70669,-0.19509 1.06225,-0.25485 0.35556,-0.0598 0.71895,-0.115 1.08301,-0.14116 0.36374,-0.0262 0.7285,-0.023 1.09155,0 0.36304,0.023 0.72541,0.066 1.08574,0.12121 0.35999,0.0553 0.71758,0.12261 1.07417,0.19887 0.35658,0.0762 0.71214,0.16141 1.06327,0.25312 0.35113,0.092 0.6985,0.19096 1.05577,0.28302 0.3576,0.0924 0.72508,0.17755 1.06769,0.2301 0.34296,0.0526 0.66106,0.0726 1.08916,0.0787 0.42843,0.006 0.96689,-0.002 1.0677,0.17345 0.10076,0.17585 -0.23637,0.53511 -0.31436,0.86482 -0.0779,0.32937 0.10281,0.62887 0.3181,0.916 0.21524,0.28713 0.46488,0.56189 0.68183,0.86036 0.2166,0.29846 0.4005,0.62062 0.54219,0.95927 0.14167,0.33865011 0.24146,0.69344011 0.31945,1.10799011 0.078,0.41454 0.13521,0.88818 0.006,1.22648989 -0.12907,0.3383 -0.44411,0.54128 -0.6212,0.80025 -0.17744,0.25897 -0.21695,0.57459 -0.19038,0.91977 0.0266,0.34517 0.11924,0.72023 0.15496,1.08944 0.0357,0.36921 0.0153,0.73294 -0.0279,1.09975 -0.0432,0.3668 -0.10897,0.73672 -0.18425,1.08531 -0.0749,0.34862 -0.15939,0.67593 -0.31979,1.05202 -0.16109,0.37643 -0.39814,0.80127 -0.69785,0.78 -0.29969,-0.0213 -0.66172,-0.48944 -0.94134,-0.51383 -0.27893,-0.0241 -0.47543,0.39601 -0.65389,0.75527 -0.17813,0.35925 -0.33853,0.65806 -0.54866,0.95173 -0.21015,0.29328 -0.47033,0.58214 -0.74961,0.7936999 -0.27961,0.21157 -0.57863,0.34622 -0.97403,0.48875 -0.39541,0.14219 -0.8872,0.29262 -1.07383,0.10684 -0.18698,-0.18547 -0.0684,-0.7071599 -0.20025,-0.9517099 -0.13181,-0.2442 -0.51394,-0.21191 -0.87835,-0.14323 -0.36476,0.0684 -0.71213,0.17311 -1.07075,0.21088 -0.35863,0.0377 -0.72815,0.009 -1.08746,-0.0581 -0.35963,-0.067 -0.70906,-0.17137 -1.04488,-0.31425 -0.33545,-0.14288 -0.65764,-0.32457 -0.93759,-0.55778 -0.28,-0.23319 -0.51806,-0.51758 -0.69345,-0.84317 -0.17506,-0.32527 -0.28677,-0.69138 -0.31707,-1.04549 -0.0303,-0.35411 0.0211,-0.69618 0.2023,-1.06953 0.18118,-0.37333 0.49246,-0.77792 0.73529,-0.78857 0.24351,-0.011 0.41857,0.37265 0.67842,0.63815 0.26054,0.26549 0.60588,0.41317 0.96825,0.45644 0.36237,0.0433 0.74075,-0.0175 1.07621,-0.12947 0.3358,-0.11232 0.6287,-0.27614 0.98596,-0.4702 0.35727,-0.19404 0.77855,-0.41902 0.87289,-0.65737 0.0944,-0.23836 -0.13759,-0.49079 -0.38757,-0.72607 -0.24998,-0.23526 -0.51733,-0.45336 -0.4315,-0.65462 0.0862,-0.20126 0.52584,-0.3857 0.89433,-0.6323 0.36851,-0.24661 0.66548,-0.55538 0.7302,-0.81262 0.0643,-0.2576 -0.10354,-0.46333 -0.36271,-0.66734 -0.25918,-0.20401 -0.60963,-0.40631 -0.54764,-0.62096989 0.0617,-0.21467 0.53469,-0.44168 0.79421,-0.7422 0.25951,-0.30053 0.30515,-0.67455 0.31435,-1.04584 0.01,-0.37127011 -0.0177,-0.73945011 -0.1196,-1.08771011 -0.10221,-0.34828 -0.27926,-0.67695 -0.48429,-0.98366 -0.20503,-0.3067 -0.43764,-0.59178 -0.7118,-0.83219 -0.2745,-0.24043 -0.59022,-0.43585 -0.92942,-0.56602 -0.33887,-0.13052 -0.70125,-0.19543 -1.06361,-0.24042 -0.36272,-0.0451 -0.72611,-0.0701 -1.08949,-0.0687 -0.36373,0.001 -0.72849,0.0289 -1.0878,0.0879 -0.35963,0.0588 -0.71486,0.14941 -1.05578,0.27683 -0.34124,0.12777 -0.6682,0.29297 -0.98152,0.4805 -0.31298,0.18786 -0.61201,0.39841 -0.89912,0.6244 -0.2871,0.22599 -0.56193,0.46744 -0.82759,0.71885 -0.26564,0.25107 -0.52175,0.51245 -0.76799,0.78308 -0.24623,0.27065 -0.48224,0.5509 -0.70498,0.84113011 -0.22274,0.29022 -0.43287,0.59074 -0.62427,0.90328 -0.19174,0.31256 -0.36544,0.63746 -0.50814,0.9785 -0.1427,0.34105989 -0.25406,0.69824989 -0.33784,1.05956989 -0.0834,0.36132 -0.13896,0.72675 -0.17472,1.09288 -0.0355,0.36612 -0.0511,0.73328 -0.0426,1.10077 0.008,0.36717 0.0415,0.73467 0.0906,1.10044 0.049,0.36578 0.1138,0.73053 0.19958,1.0891 0.0858,0.35857 0.19207,0.71095 0.32524,1.05269 0.13317,0.34174 0.29255,0.67284 0.46693,0.995 0.17438,0.32215 0.36339,0.63608 0.56331,0.94346 0.19957,0.30775 0.40971,0.6103299 0.6372,0.8943699 0.22751,0.28438 0.47239,0.55091 0.72202,0.82602 0.2493,0.27544 0.50371,0.55949 0.8385,0.7034 0.33444,0.14424 0.74925,0.14871 0.77855,-0.0443 0.029,-0.19337 -0.3273,-0.5832 -0.61746,-0.89437 -0.29018,-0.31186 -0.51393,-0.54471 -0.72679,-0.82223 -0.21285,-0.2771699 -0.4155,-0.5986399 -0.5868,-0.9273299 -0.17165,-0.3287 -0.31265,-0.66527 -0.43049,-1.01148 -0.1179,-0.3462 -0.21184,-0.70305 -0.27279,-1.06574 -0.0609,-0.36269 -0.0879,-0.73122 -0.0903,-1.09666 -0.004,-0.36544 0.0204,-0.72847 0.0504,-1.10009 0.0299,-0.37163 0.0681,-0.75217 0.10559,-1.09666 0.0375,-0.34448 0.0742,-0.65256 0.077,-1.09905 0.004,-0.44616 -0.0282,-1.03038 0.11753,-1.09322 0.14611,-0.0628 0.46897,0.39531 0.71589,0.47362 0.24725,0.0783 0.41787,-0.2236 0.60144,-0.51827 0.18391,-0.29469 0.38077,-0.58284989 0.62326,-0.85177989 0.24214,-0.26892 0.53027,-0.5193 0.84598,-0.70614 0.31571,-0.18684 0.65968,-0.31014 1.01286,-0.39257 0.35317,-0.0824 0.71622,-0.12399 1.0837,-0.10648 0.36749,0.0179 0.74007,0.0952 1.07247,0.22152 0.3324,0.12639 0.62597,0.30156 0.85143,0.53305 0.22581,0.23183 0.38417,0.51999 0.47408,0.83871989 0.0896,0.31906 0.1103,0.6687 -0.077,0.69652 -0.18766,0.0281 -0.5834,-0.26514 -0.95974,-0.3613 -0.37633,-0.0962 -0.73325,0.006 -1.05884,0.15592 -0.32525,0.15044 -0.61917,0.34998 -0.84939,0.67763 -0.23056,0.32801 -0.39711,0.78411 -0.15905,1.01766 0.23841,0.2339 0.88175,0.2449 1.01321,0.37575 0.13112,0.13086 -0.24964,0.38123 -0.61269,0.5406 -0.36271,0.15902 -0.70771,0.22634 -1.01559,0.39773 -0.30754,0.17137 -0.57829,0.44647 -0.78161,0.75491 -0.20333,0.30843 -0.33921,0.6505 -0.44819,1.00117 -0.10897,0.35032 -0.19174,0.70889 -0.2476,1.07193 -0.0559,0.36303 -0.0851,0.73019 -0.0804,1.09733 0.005,0.36716 0.0432,0.73467 0.12226,1.09323 0.0787,0.35822 0.19821,0.7075199 0.35658,1.0382599 0.15871,0.33076 0.35658,0.64262 0.59703,0.9191 0.24044,0.27614 0.52346,0.51587 0.83917,0.69687 0.31536,0.181 0.66309,0.30292 1.01592,0.39566 0.35318,0.0931 0.71147,0.15593 1.07315,0.20058 0.36169,0.0447 0.72746,0.0701 1.09017,0.023 0.36272,-0.0471 0.72304,-0.16623 1.0241,-0.351 0.30141,-0.18479 0.5439,-0.43552 0.82726,-0.67386 0.28268,-0.23837 0.60622,-0.46504 0.89128,-0.45166 0.28437,0.0138 0.53027,0.26756 0.78945,0.48565 0.25951,0.21776 0.53231,0.39944 0.88923,0.5382 0.35726,0.1384 0.79797,0.23389 0.9519,0.52823 0.1536,0.29366 0.0211,0.78686 -0.24078,0.91497 -0.26157,0.12811 -0.65152,-0.10819 -1.01117,-0.33864 -0.35998,-0.23081 -0.68966,-0.45543 -1.0006,-0.41215 -0.31128,0.043 -0.60417,0.35375 -0.92839,0.53888 -0.32423,0.18547 -0.67979,0.24556 -1.04045,0.25277 -0.36068,0.009 -0.72611,-0.0368 -1.09052,-0.0649 -0.36408,-0.0285 -0.72747,-0.0409 -1.09052,-0.0663 -0.36271,-0.0254 -0.72542,-0.0639 -1.08574,-0.11913 -0.36033,-0.0553 -0.71759,-0.12742 -1.07008,-0.22015 -0.35216,-0.0931 -0.69954,-0.20676 -1.03909,-0.339 -0.33922,-0.13222 -0.67093,-0.283 -0.9989,-0.44477 -0.32797,-0.16177 -0.6522,-0.33419 -0.93726,-0.56465 -0.28506,-0.23012 -0.53095,-0.51827 -0.83236,-0.71129 -0.3014,-0.19337 -0.65866,-0.29057 -0.79728,-0.0337 -0.13896,0.25725 -0.06,0.86929 -0.18629,1.03586 -0.12635,0.16659 -0.45807,-0.11231 -0.66513,-0.0824 -0.20742,0.0302 -0.29086,0.36922 -0.43355,0.73776 -0.14305,0.36853 -0.34569,0.7666 -0.50678,0.77105 -0.16178,0.005 -0.282,-0.38364 -0.35113,-0.70133 -0.0695,-0.3177 -0.0875,-0.56465 -0.032,-0.91462 0.0551,-0.35068 0.18458,-0.80438 0.39507,-1.12002 0.21013,-0.31529 0.50234,-0.49182 0.68863,-0.74872 0.18698,-0.25314 0.26837,-0.5897299 0.19277,-0.9194399 z"
       id="path1437-7"
       style="fill:#000000;fill-opacity:1;stroke:none;stroke-width:0.08550286;stroke-linecap:round;stroke-linejoin:round;stroke-opacity:1" />
  </g>
</svg>
