  0
SECTION
  2
HEADER
  9
$ACADVER
  1
AC1014
  9
$ACADMAINTVER
 70
     0
  9
$DWGCODEPAGE
  3
ANSI_1252
  9
$INSBASE
 10
0.0
 20
0.0
 30
0.0
  9
$EXTMIN
 10
0.0
 20
0.0
 30
0.0
  9
$EXTMAX
 10
420.0
 20
594.0
 30
0.0
  9
$LIMMIN
 10
0.0
 20
0.0
  9
$LIMMAX
 10
12.0
 20
9.0
  9
$ORTHOMODE
 70
     0
  9
$REGENMODE
 70
     1
  9
$FILLMODE
 70
     0
  9
$QTEXTMODE
 70
     0
  9
$MIRRTEXT
 70
     1
  9
$DRAGMODE
 70
     2
  9
$LTSCALE
 40
1.0
  9
$OSMODE
 70
    37
  9
$ATTMODE
 70
     1
  9
$TEXTSIZE
 40
0.2
  9
$TRACEWID
 40
0.05
  9
$TEXTSTYLE
  7
STANDARD
  9
$CLAYER
  8
0
  9
$CELTYPE
  6
BYLAYER
  9
$CECOLOR
 62
   256
  9
$CELTSCALE
 40
1.0
  9
$DELOBJ
 70
     1
  9
$DISPSILH
 70
     0
  9
$DIMSCALE
 40
1.0
  9
$DIMASZ
 40
0.18
  9
$DIMEXO
 40
0.0625
  9
$DIMDLI
 40
0.38
  9
$DIMRND
 40
0.0
  9
$DIMDLE
 40
0.0
  9
$DIMEXE
 40
0.18
  9
$DIMTP
 40
0.0
  9
$DIMTM
 40
0.0
  9
$DIMTXT
 40
0.18
  9
$DIMCEN
 40
0.09
  9
$DIMTSZ
 40
0.0
  9
$DIMTOL
 70
     0
  9
$DIMLIM
 70
     0
  9
$DIMTIH
 70
     0
  9
$DIMTOH
 70
     0
  9
$DIMSE1
 70
     0
  9
$DIMSE2
 70
     0
  9
$DIMTAD
 70
     1
  9
$DIMZIN
 70
     0
  9
$DIMBLK
  1

  9
$DIMASO
 70
     1
  9
$DIMSHO
 70
     1
  9
$DIMPOST
  1

  9
$DIMAPOST
  1

  9
$DIMALT
 70
     0
  9
$DIMALTD
 70
     2
  9
$DIMALTF
 40
25.4
  9
$DIMLFAC
 40
1.0
  9
$DIMTOFL
 70
     0
  9
$DIMTVP
 40
0.0
  9
$DIMTIX
 70
     0
  9
$DIMSOXD
 70
     0
  9
$DIMSAH
 70
     0
  9
$DIMBLK1
  1

  9
$DIMBLK2
  1

  9
$DIMSTYLE
  2
STANDARD
  9
$DIMCLRD
 70
     0
  9
$DIMCLRE
 70
     0
  9
$DIMCLRT
 70
     0
  9
$DIMTFAC
 40
1.0
  9
$DIMGAP
 40
0.09
  9
$DIMJUST
 70
     0
  9
$DIMSD1
 70
     0
  9
$DIMSD2
 70
     0
  9
$DIMTOLJ
 70
     1
  9
$DIMTZIN
 70
     0
  9
$DIMALTZ
 70
     0
  9
$DIMALTTZ
 70
     0
  9
$DIMFIT
 70
     5
  9
$DIMUPT
 70
     0
  9
$DIMUNIT
 70
     2
  9
$DIMDEC
 70
     2
  9
$DIMTDEC
 70
     4
  9
$DIMALTU
 70
     2
  9
$DIMALTTD
 70
     2
  9
$DIMTXSTY
  7
STANDARD
  9
$DIMAUNIT
 70
     0
  9
$LUNITS
 70
     2
  9
$LUPREC
 70
     4
  9
$SKETCHINC
 40
0.1
  9
$FILLETRAD
 40
0.5
  9
$AUNITS
 70
     0
  9
$AUPREC
 70
     0
  9
$MENU
  1
.
  9
$ELEVATION
 40
0.0
  9
$PELEVATION
 40
0.0
  9
$THICKNESS
 40
0.0
  9
$LIMCHECK
 70
     0
  9
$BLIPMODE
 70
     0
  9
$CHAMFERA
 40
0.5
  9
$CHAMFERB
 40
0.5
  9
$CHAMFERC
 40
1.0
  9
$CHAMFERD
 40
0.0
  9
$SKPOLY
 70
     0
  9
$TDCREATE
 40
2450772.666465926
  9
$TDUPDATE
 40
2459137.770127303
  9
$TDINDWG
 40
0.0011565046
  9
$TDUSRTIMER
 40
0.0011565046
  9
$USRTIMER
 70
     1
  9
$ANGBASE
 50
0.0
  9
$ANGDIR
 70
     0
  9
$PDMODE
 70
     0
  9
$PDSIZE
 40
0.0
  9
$PLINEWID
 40
0.0
  9
$COORDS
 70
     1
  9
$SPLFRAME
 70
     0
  9
$SPLINETYPE
 70
     6
  9
$SPLINESEGS
 70
     8
  9
$ATTDIA
 70
     0
  9
$ATTREQ
 70
     1
  9
$HANDLING
 70
     1
  9
$HANDSEED
  5
C7
  9
$SURFTAB1
 70
     6
  9
$SURFTAB2
 70
     6
  9
$SURFTYPE
 70
     6
  9
$SURFU
 70
     6
  9
$SURFV
 70
     6
  9
$UCSNAME
  2

  9
$UCSORG
 10
0.0
 20
0.0
 30
0.0
  9
$UCSXDIR
 10
1.0
 20
0.0
 30
0.0
  9
$UCSYDIR
 10
0.0
 20
1.0
 30
0.0
  9
$PUCSNAME
  2

  9
$PUCSORG
 10
0.0
 20
0.0
 30
0.0
  9
$PUCSXDIR
 10
1.0
 20
0.0
 30
0.0
  9
$PUCSYDIR
 10
0.0
 20
1.0
 30
0.0
  9
$USERI1
 70
     0
  9
$USERI2
 70
     0
  9
$USERI3
 70
     0
  9
$USERI4
 70
     0
  9
$USERI5
 70
     0
  9
$USERR1
 40
0.0
  9
$USERR2
 40
0.0
  9
$USERR3
 40
0.0
  9
$USERR4
 40
0.0
  9
$USERR5
 40
0.0
  9
$WORLDVIEW
 70
     1
  9
$SHADEDGE
 70
     3
  9
$SHADEDIF
 70
    70
  9
$TILEMODE
 70
     1
  9
$MAXACTVP
 70
    48
  9
$PINSBASE
 10
0.0
 20
0.0
 30
0.0
  9
$PLIMCHECK
 70
     0
  9
$PEXTMIN
 10
0.0
 20
0.0
 30
0.0
  9
$PEXTMAX
 10
0.0
 20
0.0
 30
0.0
  9
$PLIMMIN
 10
0.0
 20
0.0
  9
$PLIMMAX
 10
12.0
 20
9.0
  9
$UNITMODE
 70
     0
  9
$VISRETAIN
 70
     1
  9
$PLINEGEN
 70
     0
  9
$PSLTSCALE
 70
     1
  9
$TREEDEPTH
 70
  3020
  9
$PICKSTYLE
 70
     1
  9
$CMLSTYLE
  2
STANDARD
  9
$CMLJUST
 70
     0
  9
$CMLSCALE
 40
1.0
  9
$PROXYGRAPHICS
 70
     1
  9
$MEASUREMENT
 70
     0
  0
ENDSEC
  0
SECTION
  2
CLASSES
  0
CLASS
  1
LWPOLYLINE
  2
AcDbPolyline
  3
AutoCAD 2000
 90
       20
280
     0
281
     1
  0
CLASS
  1
IMAGE
  2
AcDbRasterImage
  3
ISM
 90
       21
280
     0
281
     1
  0
CLASS
  1
OLE2FRAME
  2
AcDbOle2Frame
  3
AutoCAD 2000
 90
       21
280
     0
281
     1
  0
CLASS
  1
HATCH
  2
AcDbHatch
  3
AutoCAD 2000
 90
       20
280
     0
281
     1
  0
CLASS
  1
DICTIONARYVAR
  2
AcDbDictionaryVar
  3
ObjectDBX Classes
 90
       20
280
     0
281
     0
  0
CLASS
  1
RASTERVARIABLES
  2
AcDbRasterVariables
  3
ISM
 90
       21
280
     0
281
     0
  0
CLASS
  1
IMAGEDEF
  2
AcDbRasterImageDef
  3
ISM
 90
       21
280
     0
281
     0
  0
CLASS
  1
IMAGEDEF_REACTOR
  2
AcDbRasterImageDefReactor
  3
ISM
 90
       21
280
     0
281
     0
  0
CLASS
  1
IDBUFFER
  2
AcDbIdBuffer
  3
ObjectDBX Classes
 90
       20
280
     0
281
     0
  0
CLASS
  1
SPATIAL_FILTER
  2
AcDbSpatialFilter
  3
ObjectDBX Classes
 90
       20
280
     0
281
     0
  0
CLASS
  1
XRECORD
  2
AcDbXrecord
  3
AutoCAD 2000
 90
       21
280
     0
281
     0
  0
CLASS
  1
SORTENTSTABLE
  2
AcDbSortentsTable
  3
"AutoCAD"
 90
        0
280
     0
281
     0
  0
CLASS
  1
LAYER_INDEX
  2
AcDbLayerIndex
  3
"Acad"
 90
        0
280
     0
281
     0
  0
CLASS
  1
SPATIAL_INDEX
  2
AcDbSpatialIndex
  3
"Acad"
 90
        0
280
     0
281
     0
  0
CLASS
  1
OBJECT_PTR
  2
CAseDLPNTableRecord
  3
"ASE-LPNTableRecord"
 90
        1
280
     0
281
     0
  0
CLASS
  1
LAYOUT
  2
AcDbLayout
  3
"AutoCAD 2000"
 90
        1
280
     0
281
     0
  0
CLASS
  1
PLOTSETTINGS
  2
AcDbPlotsettings
  3
"AutoCAD 2000"
 90
        1
280
     0
281
     0
  0
CLASS
  1
ACDBDICTIONARYWDFLT
  2
AcDbDictionaryWithDefault
  3
"AutoCAD 2000"
 90
        1
280
     0
281
     0
  0
CLASS
  1
ACDBPLACEHOLDER
  2
AcDbPlaceholder
  3
"AutoCAD 2000"
 90
        1
280
     0
281
     0
  0
CLASS
  1
VBA_PROJECT
  2
AcDbVbaProject
  3
"AutoCAD 2000"
 90
        1
280
     0
281
     0
  0
CLASS
  1
WIPEOUT
  2
AcDbWipeout
  3
"AutoCAD 2000"
 90
        1
280
     0
281
     1
  0
CLASS
  1
WIPEOUTVARIABLES
  2
AcDbWipeoutVariables
  3
"AutoCAD 2000"
 90
        1
280
     0
281
     0
  0
CLASS
  1
RTEXT
  2
RText
  3
RText|AutoCAD Express Tool|expresstools@autodesk.com
 90
        1
280
     0
281
     1
  0
CLASS
  1
ARCALIGNEDTEXT
  2
AcDbArcAlignedText
  3
RText|AutoCAD Express Tool|expresstools@autodesk.com
 90
        1
280
     0
281
     1
  0
ENDSEC
  0
SECTION
  2
TABLES
  0
TABLE
  2
VPORT
  5
8
100
AcDbSymbolTable
 70
     1
  0
VPORT
  5
25
100
AcDbSymbolTableRecord
100
AcDbViewportTableRecord
  2
*ACTIVE
 70
     0
 10
0.0
 20
0.0
 11
1.0
 21
1.0
 12
210.0
 22
297.0
 13
0.0
 23
0.0
 14
0.5
 24
0.5
 15
0.5
 25
0.5
 16
0.0
 26
0.0
 36
1.0
 17
0.0
 27
0.0
 37
0.0
 40
594.0
 41
0.707071
 42
50.0
 43
0.0
 44
0.0
 50
0.0
 51
0.0
 71
     0
 72
   100
 73
     1
 74
     1
 75
     0
 76
     0
 77
     0
 78
     0
  0
ENDTAB
  0
TABLE
  2
LTYPE
  5
5
100
AcDbSymbolTable
 70
     3
  0
LTYPE
  5
12
100
AcDbSymbolTableRecord
100
AcDbLinetypeTableRecord
  2
BYBLOCK
 70
     0
  3

 72
    65
 73
     0
 40
0.0
  0
LTYPE
  5
13
100
AcDbSymbolTableRecord
100
AcDbLinetypeTableRecord
  2
BYLAYER
 70
     0
  3

 72
    65
 73
     0
 40
0.0
  0
LTYPE
  5
14
100
AcDbSymbolTableRecord
100
AcDbLinetypeTableRecord
  2
CONTINUOUS
 70
     0
  3
Solid line
 72
    65
 73
     0
 40
0.0
  0
ENDTAB
  0
TABLE
  2
LAYER
  5
2
100
AcDbSymbolTable
 70
     1
  0
LAYER
  5
E
100
AcDbSymbolTableRecord
100
AcDbLayerTableRecord
  2
0
 70
     0
 62
     7
  6
CONTINUOUS
  0
ENDTAB
  0
TABLE
  2
STYLE
  5
3
100
AcDbSymbolTable
 70
     1
  0
STYLE
  5
F
100
AcDbSymbolTableRecord
100
AcDbTextStyleTableRecord
  2
STANDARD
 70
     0
 40
0.0
 41
1.0
 50
0.0
 71
     0
 42
0.2
  3
txt.shx
  4

  0
ENDTAB
  0
TABLE
  2
VIEW
  5
6
100
AcDbSymbolTable
 70
     0
  0
ENDTAB
  0
TABLE
  2
UCS
  5
7
100
AcDbSymbolTable
 70
     0
  0
ENDTAB
  0
TABLE
  2
APPID
  5
9
100
AcDbSymbolTable
 70
     1
  0
APPID
  5
10
100
AcDbSymbolTableRecord
100
AcDbRegAppTableRecord
  2
ACAD
 70
     0
  0
ENDTAB
  0
TABLE
  2
DIMSTYLE
  5
A
100
AcDbSymbolTable
 70
     1
  0
DIMSTYLE
105
1D
100
AcDbSymbolTableRecord
100
AcDbDimStyleTableRecord
  2
STANDARD
 70
     0
  3

  4

  5

  6

  7

 40
1.0
 41
0.18
 42
0.0625
 43
0.38
 44
0.18
 45
0.0
 46
0.0
 47
0.0
 48
0.0
 71
     0
 72
     0
 73
     1
 74
     1
 75
     0
 76
     0
 77
     0
 78
     0
140
0.18
141
0.09
142
0.0
143
25.4
144
1.0
145
0.0
146
1.0
147
0.09
170
     0
171
     2
172
     0
173
     0
174
     0
175
     0
176
     0
177
     0
178
     0
270
     2
271
     4
272
     4
273
     2
274
     2
275
     0
280
     0
281
     0
282
     0
283
     1
284
     0
285
     0
286
     0
287
     3
288
     0
340
F
  0
ENDTAB
  0
TABLE
  2
BLOCK_RECORD
  5
1
100
AcDbSymbolTable
 70
     6
  0
BLOCK_RECORD
  5
18
100
AcDbSymbolTableRecord
100
AcDbBlockTableRecord
  2
*MODEL_SPACE
  0
BLOCK_RECORD
  5
15
100
AcDbSymbolTableRecord
100
AcDbBlockTableRecord
  2
*PAPER_SPACE
  0
BLOCK_RECORD
  5
95
100
AcDbSymbolTableRecord
100
AcDbBlockTableRecord
  2
HORIZONTALES_MA\U+00DF
  0
BLOCK_RECORD
  5
A5
100
AcDbSymbolTableRecord
100
AcDbBlockTableRecord
  2
MA\U+00DFTOOL
  0
BLOCK_RECORD
  5
B4
100
AcDbSymbolTableRecord
100
AcDbBlockTableRecord
  2
RECHTECK
  0
BLOCK_RECORD
  5
B8
100
AcDbSymbolTableRecord
100
AcDbBlockTableRecord
  2
ABGERUNDETES_RECHTECK
  0
BLOCK_RECORD
  5
BF
100
AcDbSymbolTableRecord
100
AcDbBlockTableRecord
  2
KREIS__DURCHM_
  0
BLOCK_RECORD
  5
C3
100
AcDbSymbolTableRecord
100
AcDbBlockTableRecord
  2
RECHTECK__DIAGONALE
  0
ENDTAB
  0
ENDSEC
  0
SECTION
  2
BLOCKS
  0
BLOCK
  5
19
100
AcDbEntity
  8
0
100
AcDbBlockBegin
  2
*MODEL_SPACE
 70
     0
 10
0.0
 20
0.0
 30
0.0
  3
*MODEL_SPACE
  1

  0
ENDBLK
  5
1A
100
AcDbEntity
  8
0
100
AcDbBlockEnd
  0
BLOCK
  5
16
100
AcDbEntity
 67
     1
  8
0
100
AcDbBlockBegin
  2
*PAPER_SPACE
 70
     0
 10
0.0
 20
0.0
 30
0.0
  3
*PAPER_SPACE
  1

  0
ENDBLK
  5
17
100
AcDbEntity
 67
     1
  8
0
100
AcDbBlockEnd
  0
BLOCK
  5
96
100
AcDbEntity
  8
0
100
AcDbBlockBegin
  2
HORIZONTALES_MA\U+00DF
 70
     0
 10
0.0
 20
0.0
 30
0.0
  3
HORIZONTALES_MA\U+00DF
  1

  0
LWPOLYLINE
  5
97
102
{ACAD_REACTORS
330
98
102
}
100
AcDbEntity
  8
0
  6
CONTINUOUS
 62
     7
100
AcDbPolyline
 90
        6
 70
     1
 10
0.0
 20
15.0
 10
0.0
 20
21.322825
 42
-0.414223
 10
1.580706
 20
22.903531
 10
12.630862
 20
22.903531
 42
-0.414223
 10
15.792274
 20
19.742119
 10
15.792274
 20
15.0
  0
HATCH
  5
98
100
AcDbEntity
  8
0
 62
   254
100
AcDbHatch
 10
0.0
 20
0.0
 30
0.0
210
0.0
220
0.0
230
1.0
  2
SOLID
 70
     1
 71
     1
 91
        1
 92
        3
 72
     1
 73
     1
 93
        6
 10
0.0
 20
14.9999999999999982
 42
0.0
 10
0.0
 20
21.3228247836371523
 42
-0.4142231524190838
 10
1.5807061959093098
 20
22.903530979546435
 42
0.0
 10
12.6308618992606743
 20
22.9035309795464386
 42
-0.4142231524190795
 10
15.7922742910792522
 20
19.7421185877278589
 42
0.0
 10
15.7922742910792522
 20
14.9999999999999982
 42
0.0
 97
        1
330
97
 75
     0
 76
     1
 98
        0
  0
LINE
  5
99
100
AcDbEntity
  8
0
  6
CONTINUOUS
 62
     7
100
AcDbLine
 10
15.792274
 20
15.790353
 30
0.0
 11
30.0
 21
15.790353
 31
0.0
  0
LINE
  5
9A
100
AcDbEntity
  8
0
  6
CONTINUOUS
 62
     7
100
AcDbLine
 10
30.0
 20
16.580706
 30
0.0
 11
30.0
 21
15.790353
 31
0.0
  0
LINE
  5
9B
100
AcDbEntity
  8
0
  6
CONTINUOUS
 62
     7
100
AcDbLine
 10
30.0
 20
15.790353
 30
0.0
 11
30.0
 21
0.0
 31
0.0
  0
LINE
  5
9C
100
AcDbEntity
  8
0
  6
CONTINUOUS
 62
     7
100
AcDbLine
 10
27.632046
 20
15.790353
 30
0.0
 11
27.632046
 21
16.18553
 31
0.0
  0
LINE
  5
9D
100
AcDbEntity
  8
0
  6
CONTINUOUS
 62
     7
100
AcDbLine
 10
25.264091
 20
15.790353
 30
0.0
 11
25.264091
 21
16.580706
 31
0.0
  0
LINE
  5
9E
100
AcDbEntity
  8
0
  6
CONTINUOUS
 62
     7
100
AcDbLine
 10
22.896137
 20
15.790353
 30
0.0
 11
22.896137
 21
16.18553
 31
0.0
  0
LINE
  5
9F
100
AcDbEntity
  8
0
  6
CONTINUOUS
 62
     7
100
AcDbLine
 10
20.528183
 20
15.790353
 30
0.0
 11
20.528183
 21
16.580706
 31
0.0
  0
LINE
  5
A0
100
AcDbEntity
  8
0
  6
CONTINUOUS
 62
     7
100
AcDbLine
 10
18.160229
 20
15.790353
 30
0.0
 11
18.160229
 21
16.18553
 31
0.0
  0
MTEXT
  5
A1
100
AcDbEntity
  8
0
100
AcDbMText
 10
7.896137
 20
18.951765
 30
0.0
 40
3.175024
 41
15.792274
 71
     5
 72
     5
  1
\C7;\fCalibri|b0|i0|;\H3.1750242233276;30 \Pmm.
  0
LWPOLYLINE
  5
A2
102
{ACAD_REACTORS
330
A3
102
}
100
AcDbEntity
  8
0
  6
CONTINUOUS
 62
     7
100
AcDbPolyline
 90
        4
 70
     1
 10
15.792274
 20
15.790353
 10
30.0
 20
15.790353
 10
30.0
 20
16.580706
 10
15.792274
 20
16.580706
  0
HATCH
  5
A3
100
AcDbEntity
  8
0
 62
     2
100
AcDbHatch
 10
0.0
 20
0.0
 30
0.0
210
0.0
220
0.0
230
1.0
  2
SOLID
 70
     1
 71
     1
 91
        1
 92
        3
 72
     0
 73
     1
 93
        4
 10
15.7922742910792522
 20
15.7903530979546431
 10
29.9999999999999893
 20
15.7903530979546431
 10
29.9999999999999893
 20
16.5807061959092863
 10
15.7922742910792522
 20
16.5807061959092863
 97
        1
330
A2
 75
     0
 76
     1
 98
        0
  0
ENDBLK
  5
A4
100
AcDbEntity
  8
0
100
AcDbBlockEnd
  0
BLOCK
  5
A6
100
AcDbEntity
  8
0
100
AcDbBlockBegin
  2
MA\U+00DFTOOL
 70
     0
 10
0.0
 20
0.0
 30
0.0
  3
MA\U+00DFTOOL
  1

  0
LWPOLYLINE
  5
A7
102
{ACAD_REACTORS
330
A8
102
}
100
AcDbEntity
  8
0
  6
CONTINUOUS
 62
     7
100
AcDbPolyline
 90
        6
 70
     1
 10
0.0
 20
0.0
 10
0.0
 20
6.322825
 42
-0.414223
 10
1.580706
 20
7.903531
 10
12.630862
 20
7.903531
 42
-0.414223
 10
15.792274
 20
4.742119
 10
15.792274
 20
0.0
  0
HATCH
  5
A8
100
AcDbEntity
  8
0
 62
   254
100
AcDbHatch
 10
0.0
 20
0.0
 30
0.0
210
0.0
220
0.0
230
1.0
  2
SOLID
 70
     1
 71
     1
 91
        1
 92
        3
 72
     1
 73
     1
 93
        6
 10
0.0
 20
0.0
 42
0.0
 10
0.0
 20
6.3228247836371523
 42
-0.4142231524190838
 10
1.5807061959093098
 20
7.9035309795464368
 42
0.0
 10
12.6308618992606743
 20
7.9035309795464386
 42
-0.4142231524190795
 10
15.7922742910792522
 20
4.7421185877278633
 42
0.0
 10
15.7922742910792522
 20
0.0
 42
0.0
 97
        1
330
A7
 75
     0
 76
     1
 98
        0
  0
LINE
  5
A9
100
AcDbEntity
  8
0
  6
CONTINUOUS
 62
     7
100
AcDbLine
 10
15.792274
 20
0.790353
 30
0.0
 11
30.0
 21
0.790353
 31
0.0
  0
LINE
  5
AA
100
AcDbEntity
  8
0
  6
CONTINUOUS
 62
     7
100
AcDbLine
 10
30.0
 20
1.580706
 30
0.0
 11
30.0
 21
0.0
 31
0.0
  0
LINE
  5
AB
100
AcDbEntity
  8
0
  6
CONTINUOUS
 62
     7
100
AcDbLine
 10
27.632046
 20
0.790353
 30
0.0
 11
27.632046
 21
1.18553
 31
0.0
  0
LINE
  5
AC
100
AcDbEntity
  8
0
  6
CONTINUOUS
 62
     7
100
AcDbLine
 10
25.264091
 20
0.790353
 30
0.0
 11
25.264091
 21
1.580706
 31
0.0
  0
LINE
  5
AD
100
AcDbEntity
  8
0
  6
CONTINUOUS
 62
     7
100
AcDbLine
 10
22.896137
 20
0.790353
 30
0.0
 11
22.896137
 21
1.18553
 31
0.0
  0
LINE
  5
AE
100
AcDbEntity
  8
0
  6
CONTINUOUS
 62
     7
100
AcDbLine
 10
20.528183
 20
0.790353
 30
0.0
 11
20.528183
 21
1.580706
 31
0.0
  0
LINE
  5
AF
100
AcDbEntity
  8
0
  6
CONTINUOUS
 62
     7
100
AcDbLine
 10
18.160229
 20
0.790353
 30
0.0
 11
18.160229
 21
1.18553
 31
0.0
  0
MTEXT
  5
B0
100
AcDbEntity
  8
0
100
AcDbMText
 10
7.896137
 20
3.951765
 30
0.0
 40
3.175024
 41
15.792274
 71
     5
 72
     5
  1
\C7;\fCalibri|b0|i0|;\H3.1750242233276;30 \Pmm.
  0
LWPOLYLINE
  5
B1
102
{ACAD_REACTORS
330
B2
102
}
100
AcDbEntity
  8
0
  6
CONTINUOUS
 62
     7
100
AcDbPolyline
 90
        4
 70
     1
 10
15.792274
 20
0.790353
 10
30.0
 20
0.790353
 10
30.0
 20
1.580706
 10
15.792274
 20
1.580706
  0
HATCH
  5
B2
100
AcDbEntity
  8
0
 62
     2
100
AcDbHatch
 10
0.0
 20
0.0
 30
0.0
210
0.0
220
0.0
230
1.0
  2
SOLID
 70
     1
 71
     1
 91
        1
 92
        3
 72
     0
 73
     1
 93
        4
 10
15.7922742910792522
 20
0.7903530979546441
 10
29.9999999999999893
 20
0.7903530979546441
 10
29.9999999999999893
 20
1.5807061959092883
 10
15.7922742910792522
 20
1.5807061959092883
 97
        1
330
B1
 75
     0
 76
     1
 98
        0
  0
ENDBLK
  5
B3
100
AcDbEntity
  8
0
100
AcDbBlockEnd
  0
BLOCK
  5
B5
100
AcDbEntity
  8
0
100
AcDbBlockBegin
  2
RECHTECK
 70
     0
 10
0.0
 20
0.0
 30
0.0
  3
RECHTECK
  1

  0
LWPOLYLINE
  5
B6
100
AcDbEntity
  8
0
  6
CONTINUOUS
 62
     7
100
AcDbPolyline
 90
        4
 70
     1
 10
40.0
 20
37.5
 10
60.0
 20
37.5
 10
60.0
 20
62.5
 10
40.0
 20
62.5
  0
ENDBLK
  5
B7
100
AcDbEntity
  8
0
100
AcDbBlockEnd
  0
BLOCK
  5
B9
100
AcDbEntity
  8
0
100
AcDbBlockBegin
  2
ABGERUNDETES_RECHTECK
 70
     0
 10
0.0
 20
0.0
 30
0.0
  3
ABGERUNDETES_RECHTECK
  1

  0
LINE
  5
BA
100
AcDbEntity
  8
0
  6
CONTINUOUS
 62
     7
100
AcDbLine
 10
40.0
 20
42.5
 30
0.0
 11
40.0
 21
57.5
 31
0.0
  0
ELLIPSE
  5
BB
100
AcDbEntity
  8
0
  6
CONTINUOUS
 62
     7
100
AcDbEllipse
 10
50.0
 20
57.5
 30
0.0
 11
9.9999999999999982
 21
0.0
 31
0.0
210
0.0
220
0.0
230
1.0
 40
0.5
 41
0.0
 42
3.1415926535897931
  0
LINE
  5
BC
100
AcDbEntity
  8
0
  6
CONTINUOUS
 62
     7
100
AcDbLine
 10
60.0
 20
57.5
 30
0.0
 11
60.0
 21
42.5
 31
0.0
  0
ELLIPSE
  5
BD
100
AcDbEntity
  8
0
  6
CONTINUOUS
 62
     7
100
AcDbEllipse
 10
50.0
 20
42.5
 30
0.0
 11
9.9999999999999964
 21
0.0
 31
0.0
210
0.0
220
0.0
230
1.0
 40
0.5
 41
-3.1415926535897927
 42
-0.0000000000000006
  0
ENDBLK
  5
BE
100
AcDbEntity
  8
0
100
AcDbBlockEnd
  0
BLOCK
  5
C0
100
AcDbEntity
  8
0
100
AcDbBlockBegin
  2
KREIS__DURCHM_
 70
     0
 10
0.0
 20
0.0
 30
0.0
  3
KREIS__DURCHM_
  1

  0
LWPOLYLINE
  5
C1
100
AcDbEntity
  8
0
  6
CONTINUOUS
 62
     7
100
AcDbPolyline
 90
        2
 70
     1
 10
37.5
 20
50.0
 42
-1.0
 10
62.5
 20
50.0
 42
-1.0
  0
ENDBLK
  5
C2
100
AcDbEntity
  8
0
100
AcDbBlockEnd
  0
BLOCK
  5
C4
100
AcDbEntity
  8
0
100
AcDbBlockBegin
  2
RECHTECK__DIAGONALE
 70
     0
 10
0.0
 20
0.0
 30
0.0
  3
RECHTECK__DIAGONALE
  1

  0
LWPOLYLINE
  5
C5
100
AcDbEntity
  8
0
  6
CONTINUOUS
 62
     7
100
AcDbPolyline
 90
        4
 70
     1
 10
40.0
 20
37.5
 10
60.0
 20
37.5
 10
60.0
 20
62.5
 10
40.0
 20
62.5
  0
ENDBLK
  5
C6
100
AcDbEntity
  8
0
100
AcDbBlockEnd
  0
ENDSEC
  0
SECTION
  2
ENTITIES
  0
LWPOLYLINE
  5
31
102
{ACAD_REACTORS
330
32
102
}
100
AcDbEntity
  8
0
  6
CONTINUOUS
 62
     7
100
AcDbPolyline
 90
       36
 70
     1
 10
295.665228
 20
339.123363
 10
295.665228
 20
329.123363
 10
299.665228
 20
329.123363
 10
299.665228
 20
319.123363
 10
295.665228
 20
319.123363
 10
295.665228
 20
309.123363
 10
265.665228
 20
309.123363
 10
265.665228
 20
305.123363
 10
230.665228
 20
305.123363
 10
230.665228
 20
309.123363
 10
200.665228
 20
309.123363
 10
200.665228
 20
305.123363
 10
165.665228
 20
305.123363
 10
165.665228
 20
309.123363
 10
135.665228
 20
309.123363
 10
135.665228
 20
305.123363
 10
100.665228
 20
305.123363
 10
100.665228
 20
309.123363
 10
70.665228
 20
309.123363
 10
70.665228
 20
319.123363
 10
66.736657
 20
319.123363
 10
66.736657
 20
329.123363
 10
70.665228
 20
329.123363
 10
70.665228
 20
339.123363
 10
100.665228
 20
339.123363
 10
100.665228
 20
343.14122
 10
135.665228
 20
343.14122
 10
135.665228
 20
339.123363
 10
165.665228
 20
339.123363
 10
165.665228
 20
343.123363
 10
200.665228
 20
343.123363
 10
200.665228
 20
339.123363
 10
230.665228
 20
339.123363
 10
230.665228
 20
343.123363
 10
265.665228
 20
343.123363
 10
265.665228
 20
339.123363
  0
HATCH
  5
32
100
AcDbEntity
  8
0
 62
   254
100
AcDbHatch
 10
0.0
 20
0.0
 30
0.0
210
0.0
220
0.0
230
1.0
  2
SOLID
 70
     1
 71
     1
 91
        1
 92
        3
 72
     0
 73
     1
 93
       36
 10
295.6652281746032145
 20
339.1233630952381191
 10
295.6652281746032145
 20
329.1233630952381191
 10
299.6652281746032713
 20
329.1233630952381191
 10
299.6652281746032713
 20
319.1233630952381191
 10
295.6652281746032145
 20
319.1233630952381191
 10
295.6652281746032145
 20
309.1233630952380622
 10
265.6652281746033282
 20
309.1233630952380622
 10
265.6652281746033282
 20
305.1233630952381191
 10
230.6652281746033282
 20
305.1233630952381191
 10
230.6652281746033282
 20
309.1233630952380622
 10
200.6652281746032997
 20
309.1233630952380622
 10
200.6652281746032997
 20
305.1233630952381191
 10
165.6652281746032997
 20
305.1233630952381191
 10
165.6652281746032997
 20
309.1233630952380622
 10
135.6652281746032429
 20
309.1233630952380622
 10
135.6652281746032429
 20
305.1233630952381191
 10
100.6652281746032997
 20
305.1233630952381191
 10
100.6652281746032997
 20
309.1233630952381759
 10
70.6652281746033282
 20
309.1233630952381759
 10
70.6652281746033282
 20
319.1233630952381759
 10
66.7366567460318691
 20
319.1233630952381759
 10
66.7366567460318691
 20
329.1233630952382327
 10
70.6652281746033282
 20
329.1233630952382327
 10
70.6652281746033282
 20
339.1233630952382327
 10
100.6652281746032997
 20
339.1233630952382327
 10
100.6652281746032997
 20
343.1412202380952294
 10
135.6652281746033282
 20
343.1412202380952294
 10
135.6652281746033282
 20
339.1233630952381191
 10
165.6652281746032997
 20
339.1233630952381191
 10
165.6652281746032997
 20
343.1233630952381191
 10
200.6652281746032997
 20
343.1233630952381191
 10
200.6652281746032997
 20
339.1233630952381191
 10
230.6652281746032429
 20
339.1233630952381191
 10
230.6652281746033282
 20
343.1233630952381191
 10
265.6652281746033282
 20
343.1233630952381191
 10
265.665228174603385
 20
339.1233630952381191
 97
        1
330
31
 75
     0
 76
     1
 98
        0
  0
LWPOLYLINE
  5
33
102
{ACAD_REACTORS
330
34
102
}
100
AcDbEntity
  8
0
  6
CONTINUOUS
 62
     7
100
AcDbPolyline
 90
       36
 70
     1
 10
295.709871
 20
75.114435
 10
295.709871
 20
65.114435
 10
299.709871
 20
65.114435
 10
299.709871
 20
55.114435
 10
295.709871
 20
55.114435
 10
295.709871
 20
45.114435
 10
265.709871
 20
45.114435
 10
265.709871
 20
41.114435
 10
230.709871
 20
41.114435
 10
230.709871
 20
45.114435
 10
200.709871
 20
45.114435
 10
200.709871
 20
41.114435
 10
165.709871
 20
41.114435
 10
165.709871
 20
45.114435
 10
135.709871
 20
45.114435
 10
135.709871
 20
41.114435
 10
100.709871
 20
41.114435
 10
100.709871
 20
45.114435
 10
70.709871
 20
45.114435
 10
70.709871
 20
55.114435
 10
66.7813
 20
55.114435
 10
66.7813
 20
65.114435
 10
70.709871
 20
65.114435
 10
70.709871
 20
75.114435
 10
100.709871
 20
75.114435
 10
100.709871
 20
79.132292
 10
135.709871
 20
79.132292
 10
135.709871
 20
75.114435
 10
165.709871
 20
75.114435
 10
165.709871
 20
79.114435
 10
200.709871
 20
79.114435
 10
200.709871
 20
75.114435
 10
230.709871
 20
75.114435
 10
230.709871
 20
79.114435
 10
265.709871
 20
79.114435
 10
265.709871
 20
75.114435
  0
HATCH
  5
34
100
AcDbEntity
  8
0
 62
   254
100
AcDbHatch
 10
0.0
 20
0.0
 30
0.0
210
0.0
220
0.0
230
1.0
  2
SOLID
 70
     1
 71
     1
 91
        1
 92
        3
 72
     0
 73
     1
 93
       36
 10
295.7098710317459336
 20
75.114434523809436
 10
295.7098710317459336
 20
65.1144345238094076
 10
299.7098710317460473
 20
65.1144345238094076
 10
299.7098710317460473
 20
55.1144345238094431
 10
295.7098710317459336
 20
55.1144345238094431
 10
295.7098710317459336
 20
45.1144345238094076
 10
265.7098710317460473
 20
45.1144345238094076
 10
265.7098710317460473
 20
41.1144345238094715
 10
230.7098710317460757
 20
41.1144345238094715
 10
230.7098710317460757
 20
45.1144345238094076
 10
200.7098710317460757
 20
45.1144345238094076
 10
200.7098710317460757
 20
41.1144345238094715
 10
165.7098710317460757
 20
41.1144345238094715
 10
165.7098710317460757
 20
45.1144345238094076
 10
135.7098710317460188
 20
45.1144345238094076
 10
135.7098710317460188
 20
41.1144345238094715
 10
100.7098710317460615
 20
41.1144345238094715
 10
100.7098710317460615
 20
45.1144345238094928
 10
70.7098710317460757
 20
45.1144345238094928
 10
70.7098710317460757
 20
55.1144345238094857
 10
66.7812996031746167
 20
55.1144345238094857
 10
66.7812996031746167
 20
65.1144345238095639
 10
70.7098710317460757
 20
65.1144345238095639
 10
70.7098710317460757
 20
75.1144345238095354
 10
100.7098710317460615
 20
75.1144345238095354
 10
100.7098710317460615
 20
79.132291666666589
 10
135.7098710317460757
 20
79.132291666666589
 10
135.7098710317460757
 20
75.1144345238094644
 10
165.7098710317460757
 20
75.1144345238094644
 10
165.7098710317460757
 20
79.1144345238094502
 10
200.7098710317460757
 20
79.1144345238094502
 10
200.7098710317460757
 20
75.1144345238094644
 10
230.7098710317459904
 20
75.1144345238094644
 10
230.7098710317460757
 20
79.1144345238094502
 10
265.7098710317460473
 20
79.1144345238094502
 10
265.709871031746161
 20
75.1144345238094644
 97
        1
330
33
 75
     0
 76
     1
 98
        0
  0
LWPOLYLINE
  5
36
102
{ACAD_REACTORS
330
37
102
}
100
AcDbEntity
  8
0
  6
CONTINUOUS
 62
     7
100
AcDbPolyline
 90
       60
 70
     1
 10
66.736657
 20
294.069792
 10
100.736657
 20
294.069792
 10
100.736657
 20
290.069792
 10
135.736657
 20
290.069792
 10
135.736657
 20
294.176935
 10
165.736657
 20
294.176935
 10
165.736657
 20
290.069792
 10
200.736657
 20
290.069792
 10
200.736657
 20
294.176935
 10
230.736657
 20
294.176935
 10
230.736657
 20
290.069792
 10
265.736657
 20
290.069792
 10
265.736657
 20
294.176935
 10
299.754514
 20
294.176935
 10
299.754514
 20
270.069792
 10
295.736657
 20
270.069792
 10
295.736657
 20
245.069792
 10
299.575942
 20
245.069792
 10
299.575942
 20
225.069792
 10
295.736657
 20
225.069792
 10
295.736657
 20
200.069792
 10
299.575942
 20
200.069792
 10
299.575942
 20
180.069792
 10
295.736657
 20
180.069792
 10
295.736657
 20
155.069792
 10
299.665228
 20
155.069792
 10
299.665228
 20
135.069792
 10
295.736657
 20
135.069792
 10
295.736657
 20
110.069792
 10
299.754514
 20
110.069792
 10
299.736657
 20
86.069792
 10
265.736657
 20
86.069792
 10
265.736657
 20
90.069792
 10
230.736657
 20
90.069792
 10
230.736657
 20
86.069792
 10
200.736657
 20
86.069792
 10
200.736657
 20
90.069792
 10
165.736657
 20
90.069792
 10
165.736657
 20
86.069792
 10
135.736657
 20
86.069792
 10
135.736657
 20
90.069792
 10
100.736657
 20
90.069792
 10
100.736657
 20
86.069792
 10
66.736657
 20
86.069792
 10
66.736657
 20
110.069792
 10
70.736657
 20
110.069792
 10
70.736657
 20
135.069792
 10
66.736657
 20
135.069792
 10
66.736657
 20
155.069792
 10
70.736657
 20
155.069792
 10
70.736657
 20
180.069792
 10
66.736657
 20
180.069792
 10
66.736657
 20
200.069792
 10
70.736657
 20
200.069792
 10
70.736657
 20
225.069792
 10
66.736657
 20
225.069792
 10
66.736657
 20
245.069792
 10
70.736657
 20
245.069792
 10
70.736657
 20
270.069792
 10
66.736657
 20
270.069792
  0
HATCH
  5
37
102
{ACAD_REACTORS
330
35
102
}
100
AcDbEntity
  8
0
 62
   254
100
AcDbHatch
 10
0.0
 20
0.0
 30
0.0
210
0.0
220
0.0
230
1.0
  2
SOLID
 70
     1
 71
     1
 91
        1
 92
        3
 72
     0
 73
     1
 93
       60
 10
66.7366567460317697
 20
294.0697916666666742
 10
100.7366567460318123
 20
294.0697916666666742
 10
100.7366567460318123
 20
290.0697916666667311
 10
135.7366567460317697
 20
290.0697916666667311
 10
135.7366567460317697
 20
294.176934523809507
 10
165.7366567460317697
 20
294.176934523809507
 10
165.7366567460317697
 20
290.0697916666667311
 10
200.7366567460317981
 20
290.0697916666667311
 10
200.7366567460317981
 20
294.176934523809507
 10
230.7366567460318834
 20
294.176934523809507
 10
230.7366567460318834
 20
290.0697916666667311
 10
265.7366567460318265
 20
290.0697916666667311
 10
265.7366567460318265
 20
294.176934523809507
 10
299.75451388888888
 20
294.176934523809507
 10
299.75451388888888
 20
270.0697916666666742
 10
295.7366567460318265
 20
270.0697916666666742
 10
295.7366567460318265
 20
245.0697916666667027
 10
299.5759424603174352
 20
245.0697916666667027
 10
299.5759424603174352
 20
225.0697916666667311
 10
295.7366567460318265
 20
225.0697916666667311
 10
295.7366567460318265
 20
200.0697916666667311
 10
299.5759424603174352
 20
200.0697916666667311
 10
299.5759424603174352
 20
180.0697916666667311
 10
295.7366567460318265
 20
180.0697916666667311
 10
295.7366567460318265
 20
155.0697916666667311
 10
299.6652281746032145
 20
155.0697916666667311
 10
299.6652281746032145
 20
135.0697916666667311
 10
295.7366567460318265
 20
135.0697916666667311
 10
295.7366567460318265
 20
110.0697916666667453
 10
299.75451388888888
 20
110.0697916666667453
 10
299.7366567460317697
 20
86.0697916666666742
 10
265.7366567460317697
 20
86.0697916666666742
 10
265.7366567460318265
 20
90.0697916666667311
 10
230.7366567460317981
 20
90.0697916666667311
 10
230.7366567460317981
 20
86.0697916666666742
 10
200.7366567460317128
 20
86.0697916666666742
 10
200.7366567460317128
 20
90.0697916666667169
 10
165.7366567460317412
 20
90.0697916666667169
 10
165.7366567460317412
 20
86.0697916666666742
 10
135.7366567460317697
 20
86.0697916666666742
 10
135.7366567460317697
 20
90.0697916666667169
 10
100.7366567460317555
 20
90.0697916666667169
 10
100.7366567460317555
 20
86.0697916666666742
 10
66.7366567460317697
 20
86.0697916666666742
 10
66.7366567460317697
 20
110.0697916666666742
 10
70.7366567460317697
 20
110.0697916666666742
 10
70.7366567460317697
 20
135.0697916666666742
 10
66.7366567460317697
 20
135.0697916666666742
 10
66.7366567460317697
 20
155.0697916666666742
 10
70.7366567460317697
 20
155.0697916666666742
 10
70.7366567460317697
 20
180.0697916666666458
 10
66.7366567460317697
 20
180.0697916666666458
 10
66.7366567460317697
 20
200.0697916666667027
 10
70.7366567460317697
 20
200.0697916666667027
 10
70.7366567460317697
 20
225.0697916666667027
 10
66.7366567460317697
 20
225.0697916666667027
 10
66.7366567460317697
 20
245.0697916666666458
 10
70.7366567460317697
 20
245.0697916666666458
 10
70.7366567460317697
 20
270.0697916666666174
 10
66.7366567460317697
 20
270.0697916666666174
 97
        1
330
36
 75
     0
 76
     1
 98
        0
  0
LWPOLYLINE
  5
38
102
{ACAD_REACTORS
330
35
102
}
100
AcDbEntity
  8
0
  6
CONTINUOUS
 62
     7
100
AcDbPolyline
 90
        4
 70
     1
 10
90.736657
 20
270.069792
 10
110.736657
 20
270.069792
 10
110.736657
 20
274.069792
 10
90.736657
 20
274.069792
  0
LWPOLYLINE
  5
39
102
{ACAD_REACTORS
330
35
102
}
100
AcDbEntity
  8
0
  6
CONTINUOUS
 62
     7
100
AcDbPolyline
 90
        4
 70
     1
 10
90.736657
 20
246.069792
 10
110.736657
 20
246.069792
 10
110.736657
 20
250.069792
 10
90.736657
 20
250.069792
  0
LINE
  5
3B
102
{ACAD_REACTORS
330
48
102
}
100
AcDbEntity
  8
0
  6
CONTINUOUS
 62
     7
100
AcDbLine
 10
360.757635
 20
368.132292
 30
0.0
 11
360.754514
 21
354.132292
 31
0.0
  0
LINE
  5
3C
102
{ACAD_REACTORS
330
48
102
}
100
AcDbEntity
  8
0
  6
CONTINUOUS
 62
     7
100
AcDbLine
 10
360.754514
 20
354.132292
 30
0.0
 11
350.754514
 21
354.132292
 31
0.0
  0
LINE
  5
3D
102
{ACAD_REACTORS
330
48
102
}
100
AcDbEntity
  8
0
  6
CONTINUOUS
 62
     7
100
AcDbLine
 10
350.754514
 20
354.132292
 30
0.0
 11
350.754514
 21
350.132292
 31
0.0
  0
LINE
  5
3E
102
{ACAD_REACTORS
330
48
102
}
100
AcDbEntity
  8
0
  6
CONTINUOUS
 62
     7
100
AcDbLine
 10
350.754514
 20
350.132292
 30
0.0
 11
330.754514
 21
350.132292
 31
0.0
  0
LINE
  5
3F
102
{ACAD_REACTORS
330
48
102
}
100
AcDbEntity
  8
0
  6
CONTINUOUS
 62
     7
100
AcDbLine
 10
330.754514
 20
350.132292
 30
0.0
 11
330.754514
 21
354.132292
 31
0.0
  0
LINE
  5
40
102
{ACAD_REACTORS
330
48
102
}
100
AcDbEntity
  8
0
  6
CONTINUOUS
 62
     7
100
AcDbLine
 10
330.754514
 20
354.132292
 30
0.0
 11
310.754514
 21
354.132292
 31
0.0
  0
LINE
  5
41
102
{ACAD_REACTORS
330
48
102
}
100
AcDbEntity
  8
0
  6
CONTINUOUS
 62
     7
100
AcDbLine
 10
310.754514
 20
354.132292
 30
0.0
 11
310.754514
 21
384.132292
 31
0.0
  0
LINE
  5
42
102
{ACAD_REACTORS
330
48
102
}
100
AcDbEntity
  8
0
  6
CONTINUOUS
 62
     7
100
AcDbLine
 10
310.754514
 20
384.132292
 30
0.0
 11
330.754514
 21
384.132292
 31
0.0
  0
LINE
  5
43
102
{ACAD_REACTORS
330
48
102
}
100
AcDbEntity
  8
0
  6
CONTINUOUS
 62
     7
100
AcDbLine
 10
330.754514
 20
384.132292
 30
0.0
 11
336.757635
 21
384.132292
 31
0.0
  0
LINE
  5
44
102
{ACAD_REACTORS
330
48
102
}
100
AcDbEntity
  8
0
  6
CONTINUOUS
 62
     7
100
AcDbLine
 10
336.757635
 20
384.132292
 30
0.0
 11
337.257635
 21
384.132292
 31
0.0
  0
LINE
  5
45
102
{ACAD_REACTORS
330
48
102
}
100
AcDbEntity
  8
0
  6
CONTINUOUS
 62
     7
100
AcDbLine
 10
337.257635
 20
384.132292
 30
0.0
 11
337.757635
 21
384.132292
 31
0.0
  0
LINE
  5
46
102
{ACAD_REACTORS
330
48
102
}
100
AcDbEntity
  8
0
  6
CONTINUOUS
 62
     7
100
AcDbLine
 10
337.757635
 20
384.132292
 30
0.0
 11
340.757635
 21
384.132292
 31
0.0
  0
ELLIPSE
  5
47
102
{ACAD_REACTORS
330
48
102
}
100
AcDbEntity
  8
0
  6
CONTINUOUS
 62
     7
100
AcDbEllipse
 10
341.424428
 20
367.901953
 30
0.0
 11
-19.3214110892923969
 21
-0.8039422089852046
 31
0.0
210
0.0
220
0.0
230
1.0
 40
0.84
 41
3.1062739648225977
 42
4.7119480689895106
  0
HATCH
  5
48
102
{ACAD_REACTORS
330
3A
102
}
100
AcDbEntity
  8
0
 62
   254
100
AcDbHatch
 10
0.0
 20
0.0
 30
0.0
210
0.0
220
0.0
230
1.0
  2
SOLID
 70
     1
 71
     1
 91
        1
 92
        1
 93
       13
 72
     1
 10
360.7576354121917461
 20
368.1322916666666174
 11
360.7545138888887664
 21
354.1322916666667311
 72
     1
 10
360.7545138888887664
 20
354.1322916666667311
 11
350.7545138888887095
 21
354.1322916666667311
 72
     1
 10
350.7545138888887095
 20
354.1322916666667311
 11
350.7545138888887095
 21
350.1322916666667311
 72
     1
 10
350.7545138888887095
 20
350.1322916666667311
 11
330.7545138888887664
 21
350.1322916666667311
 72
     1
 10
330.7545138888887664
 20
350.1322916666667311
 11
330.7545138888887664
 21
354.1322916666667311
 72
     1
 10
330.7545138888887664
 20
354.1322916666667311
 11
310.7545138888887095
 21
354.1322916666667311
 72
     1
 10
310.7545138888887095
 20
354.1322916666667311
 11
310.7545138888887095
 21
384.1322916666667311
 72
     1
 10
310.7545138888887095
 20
384.1322916666667311
 11
330.7545138888887664
 21
384.1322916666667311
 72
     1
 10
330.7545138888887664
 20
384.1322916666667311
 11
336.757635412191803
 21
384.1322916666666742
 72
     1
 10
336.757635412191803
 20
384.1322916666666742
 11
337.2576354121917461
 21
384.1322916666666742
 72
     1
 10
337.2576354121917461
 20
384.1322916666666742
 11
337.7576354121917461
 21
384.1322916666666742
 72
     1
 10
337.7576354121917461
 20
384.1322916666666742
 11
340.7576354121917461
 21
384.1322916666666742
 72
     3
 10
341.4244277720536047
 20
367.9019534619691285
 11
-19.3214110892923969
 21
-0.8039422089852046
 40
0.84
 50
90.025262
 51
182.023612
 73
     0
 97
       15
330
38
330
39
330
3B
330
3C
330
3D
330
3E
330
3F
330
40
330
41
330
42
330
43
330
44
330
45
330
46
330
47
 75
     0
 76
     1
 98
        0
  0
LWPOLYLINE
  5
49
102
{ACAD_REACTORS
330
3A
102
}
100
AcDbEntity
  8
0
  6
CONTINUOUS
 62
     7
100
AcDbPolyline
 90
        2
 70
     1
 10
320.754514
 20
369.060863
 42
-1.0
 10
330.754514
 20
369.060863
 42
-1.0
  0
LWPOLYLINE
  5
4A
102
{ACAD_REACTORS
330
3A
102
}
100
AcDbEntity
  8
0
  6
CONTINUOUS
 62
     7
100
AcDbPolyline
 90
        2
 70
     1
 10
333.757635
 20
369.132292
 42
-1.0
 10
337.757635
 20
369.132292
 42
-1.0
  0
LINE
  5
4C
102
{ACAD_REACTORS
330
59
102
}
100
AcDbEntity
  8
0
  6
CONTINUOUS
 62
     7
100
AcDbLine
 10
360.757635
 20
325.122519
 30
0.0
 11
360.754514
 21
311.122519
 31
0.0
  0
LINE
  5
4D
102
{ACAD_REACTORS
330
59
102
}
100
AcDbEntity
  8
0
  6
CONTINUOUS
 62
     7
100
AcDbLine
 10
360.754514
 20
311.122519
 30
0.0
 11
350.754514
 21
311.122519
 31
0.0
  0
LINE
  5
4E
102
{ACAD_REACTORS
330
59
102
}
100
AcDbEntity
  8
0
  6
CONTINUOUS
 62
     7
100
AcDbLine
 10
350.754514
 20
311.122519
 30
0.0
 11
350.754514
 21
307.122519
 31
0.0
  0
LINE
  5
4F
102
{ACAD_REACTORS
330
59
102
}
100
AcDbEntity
  8
0
  6
CONTINUOUS
 62
     7
100
AcDbLine
 10
350.754514
 20
307.122519
 30
0.0
 11
330.754514
 21
307.122519
 31
0.0
  0
LINE
  5
50
102
{ACAD_REACTORS
330
59
102
}
100
AcDbEntity
  8
0
  6
CONTINUOUS
 62
     7
100
AcDbLine
 10
330.754514
 20
307.122519
 30
0.0
 11
330.754514
 21
311.122519
 31
0.0
  0
LINE
  5
51
102
{ACAD_REACTORS
330
59
102
}
100
AcDbEntity
  8
0
  6
CONTINUOUS
 62
     7
100
AcDbLine
 10
330.754514
 20
311.122519
 30
0.0
 11
310.754514
 21
311.122519
 31
0.0
  0
LINE
  5
52
102
{ACAD_REACTORS
330
59
102
}
100
AcDbEntity
  8
0
  6
CONTINUOUS
 62
     7
100
AcDbLine
 10
310.754514
 20
311.122519
 30
0.0
 11
310.754514
 21
341.122519
 31
0.0
  0
LINE
  5
53
102
{ACAD_REACTORS
330
59
102
}
100
AcDbEntity
  8
0
  6
CONTINUOUS
 62
     7
100
AcDbLine
 10
310.754514
 20
341.122519
 30
0.0
 11
330.754514
 21
341.122519
 31
0.0
  0
LINE
  5
54
102
{ACAD_REACTORS
330
59
102
}
100
AcDbEntity
  8
0
  6
CONTINUOUS
 62
     7
100
AcDbLine
 10
330.754514
 20
341.122519
 30
0.0
 11
336.757635
 21
341.122519
 31
0.0
  0
LINE
  5
55
102
{ACAD_REACTORS
330
59
102
}
100
AcDbEntity
  8
0
  6
CONTINUOUS
 62
     7
100
AcDbLine
 10
336.757635
 20
341.122519
 30
0.0
 11
337.257635
 21
341.122519
 31
0.0
  0
LINE
  5
56
102
{ACAD_REACTORS
330
59
102
}
100
AcDbEntity
  8
0
  6
CONTINUOUS
 62
     7
100
AcDbLine
 10
337.257635
 20
341.122519
 30
0.0
 11
337.757635
 21
341.122519
 31
0.0
  0
LINE
  5
57
102
{ACAD_REACTORS
330
59
102
}
100
AcDbEntity
  8
0
  6
CONTINUOUS
 62
     7
100
AcDbLine
 10
337.757635
 20
341.122519
 30
0.0
 11
340.757635
 21
341.122519
 31
0.0
  0
ELLIPSE
  5
58
102
{ACAD_REACTORS
330
59
102
}
100
AcDbEntity
  8
0
  6
CONTINUOUS
 62
     7
100
AcDbEllipse
 10
341.424428
 20
324.89218
 30
0.0
 11
-19.3214110892923969
 21
-0.8039422089852046
 31
0.0
210
0.0
220
0.0
230
1.0
 40
0.84
 41
3.1062739648225977
 42
4.7119480689895106
  0
HATCH
  5
59
102
{ACAD_REACTORS
330
4B
102
}
100
AcDbEntity
  8
0
 62
   254
100
AcDbHatch
 10
0.0
 20
0.0
 30
0.0
210
0.0
220
0.0
230
1.0
  2
SOLID
 70
     1
 71
     1
 91
        1
 92
        1
 93
       13
 72
     1
 10
360.7576354121917461
 20
325.1225185169021188
 11
360.7545138888887664
 21
311.1225185169022325
 72
     1
 10
360.7545138888887664
 20
311.1225185169022325
 11
350.7545138888887095
 21
311.1225185169022325
 72
     1
 10
350.7545138888887095
 20
311.1225185169022325
 11
350.7545138888887095
 21
307.1225185169022325
 72
     1
 10
350.7545138888887095
 20
307.1225185169022325
 11
330.7545138888887664
 21
307.1225185169022325
 72
     1
 10
330.7545138888887664
 20
307.1225185169022325
 11
330.7545138888887664
 21
311.1225185169022325
 72
     1
 10
330.7545138888887664
 20
311.1225185169022325
 11
310.7545138888887095
 21
311.1225185169022325
 72
     1
 10
310.7545138888887095
 20
311.1225185169022325
 11
310.7545138888887095
 21
341.1225185169022325
 72
     1
 10
310.7545138888887095
 20
341.1225185169022325
 11
330.7545138888887664
 21
341.1225185169022325
 72
     1
 10
330.7545138888887664
 20
341.1225185169022325
 11
336.757635412191803
 21
341.1225185169021756
 72
     1
 10
336.757635412191803
 20
341.1225185169021756
 11
337.2576354121917461
 21
341.1225185169021756
 72
     1
 10
337.2576354121917461
 20
341.1225185169021756
 11
337.7576354121917461
 21
341.1225185169021756
 72
     1
 10
337.7576354121917461
 20
341.1225185169021756
 11
340.7576354121917461
 21
341.1225185169021756
 72
     3
 10
341.4244277720536047
 20
324.8921803122046299
 11
-19.3214110892923969
 21
-0.8039422089852046
 40
0.84
 50
90.025262
 51
182.023612
 73
     0
 97
       15
330
49
330
4A
330
4C
330
4D
330
4E
330
4F
330
50
330
51
330
52
330
53
330
54
330
55
330
56
330
57
330
58
 75
     0
 76
     1
 98
        0
  0
LWPOLYLINE
  5
5A
102
{ACAD_REACTORS
330
4B
102
}
100
AcDbEntity
  8
0
  6
CONTINUOUS
 62
     7
100
AcDbPolyline
 90
        2
 70
     1
 10
320.754514
 20
326.05109
 42
-1.0
 10
330.754514
 20
326.05109
 42
-1.0
  0
LWPOLYLINE
  5
5B
102
{ACAD_REACTORS
330
4B
102
}
100
AcDbEntity
  8
0
  6
CONTINUOUS
 62
     7
100
AcDbPolyline
 90
        2
 70
     1
 10
333.757635
 20
326.122519
 42
-1.0
 10
337.757635
 20
326.122519
 42
-1.0
  0
LWPOLYLINE
  5
5D
102
{ACAD_REACTORS
330
5E
102
}
100
AcDbEntity
  8
0
  6
CONTINUOUS
 62
     7
100
AcDbPolyline
 90
       60
 70
     1
 10
65.954514
 20
558.132292
 10
99.754514
 20
558.132292
 10
99.754514
 20
554.310863
 10
134.754514
 20
554.310863
 10
134.754514
 20
558.239435
 10
164.754514
 20
558.239435
 10
164.754514
 20
554.132292
 10
199.754514
 20
554.132292
 10
199.754514
 20
558.239435
 10
229.754514
 20
558.239435
 10
229.754514
 20
554.132292
 10
264.754514
 20
554.132292
 10
264.754514
 20
558.132292
 10
298.754514
 20
558.132292
 10
298.754514
 20
534.132292
 10
294.754514
 20
534.132292
 10
294.754514
 20
509.132292
 10
298.754514
 20
509.132292
 10
298.754514
 20
489.132292
 10
294.754514
 20
489.132292
 10
294.754514
 20
464.132292
 10
298.754514
 20
464.132292
 10
298.754514
 20
444.132292
 10
294.754514
 20
444.132292
 10
294.754514
 20
419.132292
 10
298.754514
 20
419.132292
 10
298.754514
 20
399.132292
 10
294.754514
 20
399.132292
 10
294.754514
 20
374.132292
 10
298.754514
 20
374.132292
 10
298.754514
 20
350.132292
 10
264.754514
 20
350.132292
 10
264.754514
 20
354.132292
 10
229.754514
 20
354.132292
 10
229.754514
 20
350.132292
 10
199.754514
 20
350.132292
 10
199.754514
 20
354.132292
 10
164.754514
 20
354.132292
 10
164.754514
 20
350.132292
 10
134.754514
 20
350.132292
 10
134.754514
 20
354.132292
 10
99.754514
 20
354.132292
 10
99.754514
 20
350.132292
 10
65.754514
 20
350.132292
 10
65.754514
 20
374.132292
 10
87.254514
 20
374.132292
 10
87.254514
 20
394.132292
 10
65.754514
 20
394.132292
 10
65.754514
 20
414.132292
 10
69.754514
 20
414.132292
 10
69.754514
 20
434.132292
 10
65.754514
 20
434.132292
 10
65.754514
 20
454.132292
 10
69.754514
 20
454.132292
 10
69.754514
 20
484.132292
 10
65.754514
 20
484.132292
 10
65.754514
 20
504.132292
 10
69.754514
 20
504.132292
 10
69.754514
 20
534.132292
 10
65.754514
 20
534.132292
  0
HATCH
  5
5E
102
{ACAD_REACTORS
330
5C
102
}
100
AcDbEntity
  8
0
 62
   254
100
AcDbHatch
 10
0.0
 20
0.0
 30
0.0
210
0.0
220
0.0
230
1.0
  2
SOLID
 70
     1
 71
     1
 91
        1
 92
        3
 72
     0
 73
     1
 93
       60
 10
65.9545138888889113
 20
558.1322916666665606
 10
99.75451388888888
 20
558.1322916666665606
 10
99.7545138888889085
 20
554.3108630952378917
 10
134.75451388888888
 20
554.3108630952378917
 10
134.75451388888888
 20
558.2394345238092228
 10
164.75451388888888
 20
558.2394345238092228
 10
164.75451388888888
 20
554.1322916666665606
 10
199.75451388888888
 20
554.1322916666665606
 10
199.75451388888888
 20
558.2394345238092228
 10
229.75451388888888
 20
558.2394345238092228
 10
229.75451388888888
 20
554.1322916666665606
 10
264.7545138888888232
 20
554.1322916666665606
 10
264.7545138888888232
 20
558.1322916666663332
 10
298.7545138888888232
 20
558.1322916666663332
 10
298.7545138888888232
 20
534.1322916666663332
 10
294.7545138888888232
 20
534.1322916666663332
 10
294.7545138888888232
 20
509.1322916666664469
 10
298.7545138888888232
 20
509.1322916666664469
 10
298.7545138888888232
 20
489.1322916666663332
 10
294.7545138888888232
 20
489.1322916666663332
 10
294.7545138888888232
 20
464.13229166666639
 10
298.7545138888888232
 20
464.13229166666639
 10
298.7545138888888232
 20
444.1322916666664469
 10
294.7545138888888232
 20
444.1322916666664469
 10
294.7545138888888232
 20
419.13229166666639
 10
298.7545138888888232
 20
419.13229166666639
 10
298.7545138888888232
 20
399.1322916666663332
 10
294.7545138888888232
 20
399.1322916666663332
 10
294.7545138888888232
 20
374.1322916666665037
 10
298.7545138888888232
 20
374.1322916666665037
 10
298.7545138888888232
 20
350.1322916666665037
 10
264.7545138888888232
 20
350.1322916666665037
 10
264.7545138888888232
 20
354.1322916666664469
 10
229.7545138888888516
 20
354.1322916666664469
 10
229.7545138888888516
 20
350.1322916666665037
 10
199.7545138888888516
 20
350.1322916666665037
 10
199.7545138888888516
 20
354.1322916666664469
 10
164.7545138888888516
 20
354.1322916666664469
 10
164.7545138888888516
 20
350.1322916666665037
 10
134.7545138888888232
 20
350.1322916666665037
 10
134.7545138888888232
 20
354.1322916666664469
 10
99.7545138888888516
 20
354.1322916666664469
 10
99.7545138888888516
 20
350.1322916666665037
 10
65.7545138888888658
 20
350.1322916666665037
 10
65.7545138888888658
 20
374.1322916666664469
 10
87.25451388888888
 20
374.1322916666665606
 10
87.25451388888888
 20
394.1322916666665606
 10
65.7545138888888658
 20
394.1322916666664469
 10
65.7545138888888658
 20
414.1322916666664469
 10
69.7545138888888658
 20
414.1322916666664469
 10
69.7545138888888658
 20
434.1322916666664469
 10
65.7545138888888658
 20
434.1322916666664469
 10
65.7545138888888658
 20
454.1322916666664469
 10
69.7545138888888658
 20
454.1322916666664469
 10
69.7545138888888658
 20
484.1322916666664469
 10
65.7545138888888658
 20
484.1322916666664469
 10
65.7545138888888658
 20
504.1322916666664469
 10
69.7545138888888658
 20
504.1322916666664469
 10
69.7545138888888658
 20
534.1322916666663332
 10
65.7545138888888658
 20
534.1322916666663332
 97
        3
330
5A
330
5B
330
5D
 75
     0
 76
     1
 98
        0
  0
LWPOLYLINE
  5
5F
102
{ACAD_REACTORS
330
5C
102
}
100
AcDbEntity
  8
0
  6
CONTINUOUS
 62
     7
100
AcDbPolyline
 90
        2
 70
     1
 10
159.754514
 20
484.132292
 42
-1.0
 10
279.754514
 20
484.132292
 42
-1.0
  0
LINE
  5
60
100
AcDbEntity
  8
0
  6
CONTINUOUS
 62
     7
100
AcDbLine
 10
69.754514
 20
419.132292
 30
0.0
 11
294.754514
 21
419.132292
 31
0.0
  0
LWPOLYLINE
  5
61
102
{ACAD_REACTORS
330
7B
102
}
100
AcDbEntity
  8
0
  6
CONTINUOUS
 62
     7
100
AcDbPolyline
 90
        4
 70
     1
 10
262.954514
 20
221.067776
 10
285.754514
 20
221.067776
 10
285.754514
 20
225.067776
 10
262.954514
 20
225.067776
  0
LWPOLYLINE
  5
62
102
{ACAD_REACTORS
330
7B
102
}
100
AcDbEntity
  8
0
  6
CONTINUOUS
 62
     7
100
AcDbPolyline
 90
        4
 70
     1
 10
76.554514
 20
221.067776
 10
81.554514
 20
221.067776
 10
81.554514
 20
225.067776
 10
76.554514
 20
225.067776
  0
ELLIPSE
  5
63
102
{ACAD_REACTORS
330
7B
102
}
100
AcDbEntity
  8
0
  6
CONTINUOUS
 62
     7
100
AcDbEllipse
 10
243.254514
 20
24.932292
 30
0.0
 11
-3.2999999999999039
 21
0.0
 31
0.0
210
0.0
220
0.0
230
1.0
 40
0.954545
 41
1.5707963267948795
 42
3.1415926535897905
  0
LINE
  5
64
102
{ACAD_REACTORS
330
7B
102
}
100
AcDbEntity
  8
0
  6
CONTINUOUS
 62
     7
100
AcDbLine
 10
243.254514
 20
21.782292
 30
0.0
 11
84.754514
 21
21.782292
 31
0.0
  0
ELLIPSE
  5
65
102
{ACAD_REACTORS
330
7B
102
}
100
AcDbEntity
  8
0
  6
CONTINUOUS
 62
     7
100
AcDbEllipse
 10
84.754514
 20
24.871422
 30
0.0
 11
-3.2173913043462559
 21
0.0
 31
0.0
210
0.0
220
0.0
230
1.0
 40
0.960135
 41
-0.0000000000005097
 42
1.5707963267949667
  0
LINE
  5
66
102
{ACAD_REACTORS
330
7B
102
}
100
AcDbEntity
  8
0
  6
CONTINUOUS
 62
     7
100
AcDbLine
 10
81.537123
 20
24.871422
 30
0.0
 11
81.537123
 21
34.132292
 31
0.0
  0
LINE
  5
67
102
{ACAD_REACTORS
330
7B
102
}
100
AcDbEntity
  8
0
  6
CONTINUOUS
 62
     7
100
AcDbLine
 10
81.537123
 20
34.132292
 30
0.0
 11
76.537123
 21
34.132292
 31
0.0
  0
LINE
  5
68
102
{ACAD_REACTORS
330
7B
102
}
100
AcDbEntity
  8
0
  6
CONTINUOUS
 62
     7
100
AcDbLine
 10
76.537123
 20
34.132292
 30
0.0
 11
76.537123
 21
30.132292
 31
0.0
  0
LINE
  5
69
102
{ACAD_REACTORS
330
7B
102
}
100
AcDbEntity
  8
0
  6
CONTINUOUS
 62
     7
100
AcDbLine
 10
76.537123
 20
30.132292
 30
0.0
 11
70.754514
 21
30.132292
 31
0.0
  0
LINE
  5
6A
102
{ACAD_REACTORS
330
7B
102
}
100
AcDbEntity
  8
0
  6
CONTINUOUS
 62
     7
100
AcDbLine
 10
70.754514
 20
30.132292
 30
0.0
 11
70.754514
 21
20.132292
 31
0.0
  0
LINE
  5
6B
102
{ACAD_REACTORS
330
7B
102
}
100
AcDbEntity
  8
0
  6
CONTINUOUS
 62
     7
100
AcDbLine
 10
70.754514
 20
20.132292
 30
0.0
 11
66.754514
 21
20.132292
 31
0.0
  0
LINE
  5
6C
102
{ACAD_REACTORS
330
7B
102
}
100
AcDbEntity
  8
0
  6
CONTINUOUS
 62
     7
100
AcDbLine
 10
66.754514
 20
20.132292
 30
0.0
 11
66.754514
 21
10.132292
 31
0.0
  0
LINE
  5
6D
102
{ACAD_REACTORS
330
7B
102
}
100
AcDbEntity
  8
0
  6
CONTINUOUS
 62
     7
100
AcDbLine
 10
66.754514
 20
10.132292
 30
0.0
 11
70.754514
 21
10.132292
 31
0.0
  0
LINE
  5
6E
102
{ACAD_REACTORS
330
7B
102
}
100
AcDbEntity
  8
0
  6
CONTINUOUS
 62
     7
100
AcDbLine
 10
70.754514
 20
10.132292
 30
0.0
 11
70.754514
 21
0.132292
 31
0.0
  0
LINE
  5
6F
102
{ACAD_REACTORS
330
7B
102
}
100
AcDbEntity
  8
0
  6
CONTINUOUS
 62
     7
100
AcDbLine
 10
70.754514
 20
0.132292
 30
0.0
 11
295.754514
 21
0.132292
 31
0.0
  0
LINE
  5
70
102
{ACAD_REACTORS
330
7B
102
}
100
AcDbEntity
  8
0
  6
CONTINUOUS
 62
     7
100
AcDbLine
 10
295.754514
 20
0.132292
 30
0.0
 11
295.754514
 21
10.132292
 31
0.0
  0
LINE
  5
71
102
{ACAD_REACTORS
330
7B
102
}
100
AcDbEntity
  8
0
  6
CONTINUOUS
 62
     7
100
AcDbLine
 10
295.754514
 20
10.132292
 30
0.0
 11
299.754514
 21
10.132292
 31
0.0
  0
LINE
  5
72
102
{ACAD_REACTORS
330
7B
102
}
100
AcDbEntity
  8
0
  6
CONTINUOUS
 62
     7
100
AcDbLine
 10
299.754514
 20
10.132292
 30
0.0
 11
299.754514
 21
20.132292
 31
0.0
  0
LINE
  5
73
102
{ACAD_REACTORS
330
7B
102
}
100
AcDbEntity
  8
0
  6
CONTINUOUS
 62
     7
100
AcDbLine
 10
299.754514
 20
20.132292
 30
0.0
 11
295.754514
 21
20.132292
 31
0.0
  0
LINE
  5
74
102
{ACAD_REACTORS
330
7B
102
}
100
AcDbEntity
  8
0
  6
CONTINUOUS
 62
     7
100
AcDbLine
 10
295.754514
 20
20.132292
 30
0.0
 11
295.754514
 21
30.132292
 31
0.0
  0
LINE
  5
75
102
{ACAD_REACTORS
330
7B
102
}
100
AcDbEntity
  8
0
  6
CONTINUOUS
 62
     7
100
AcDbLine
 10
295.754514
 20
30.132292
 30
0.0
 11
285.754514
 21
30.132292
 31
0.0
  0
LINE
  5
76
102
{ACAD_REACTORS
330
7B
102
}
100
AcDbEntity
  8
0
  6
CONTINUOUS
 62
     7
100
AcDbLine
 10
285.754514
 20
30.132292
 30
0.0
 11
285.754514
 21
34.132292
 31
0.0
  0
LINE
  5
77
102
{ACAD_REACTORS
330
7B
102
}
100
AcDbEntity
  8
0
  6
CONTINUOUS
 62
     7
100
AcDbLine
 10
285.754514
 20
34.132292
 30
0.0
 11
262.954514
 21
34.132292
 31
0.0
  0
LINE
  5
78
102
{ACAD_REACTORS
330
7B
102
}
100
AcDbEntity
  8
0
  6
CONTINUOUS
 62
     7
100
AcDbLine
 10
262.954514
 20
34.132292
 30
0.0
 11
262.954514
 21
30.132292
 31
0.0
  0
LINE
  5
79
102
{ACAD_REACTORS
330
7B
102
}
100
AcDbEntity
  8
0
  6
CONTINUOUS
 62
     7
100
AcDbLine
 10
262.954514
 20
30.132292
 30
0.0
 11
246.554514
 21
30.132292
 31
0.0
  0
LINE
  5
7A
102
{ACAD_REACTORS
330
7B
102
}
100
AcDbEntity
  8
0
  6
CONTINUOUS
 62
     7
100
AcDbLine
 10
246.554514
 20
30.132292
 30
0.0
 11
246.554514
 21
24.932292
 31
0.0
  0
HATCH
  5
7B
100
AcDbEntity
  8
0
 62
   254
100
AcDbHatch
 10
0.0
 20
0.0
 30
0.0
210
0.0
220
0.0
230
1.0
  2
SOLID
 70
     1
 71
     1
 91
        1
 92
        1
 93
       24
 72
     3
 10
243.2545138888889653
 20
24.93229166666654
 11
-3.2999999999999039
 21
0.0
 40
0.954545
 50
180.0
 51
270.0
 73
     0
 72
     1
 10
243.2545138888889369
 20
21.7822916666664881
 11
84.7545138888889227
 21
21.7822916666665307
 72
     3
 10
84.7545138888886953
 20
24.8714221014476529
 11
-3.2173913043462559
 21
0.0
 40
0.960135
 50
270.0
 51
0.0
 73
     0
 72
     1
 10
81.5371225845424306
 20
24.8714221014492267
 11
81.5371225845411232
 21
34.1322916666665606
 72
     1
 10
81.5371225845411232
 20
34.1322916666665606
 11
76.5371225845411374
 21
34.1322916666665606
 72
     1
 10
76.5371225845411374
 20
34.1322916666665606
 11
76.5371225845411374
 21
30.132291666666525
 72
     1
 10
76.5371225845411374
 20
30.132291666666525
 11
70.7545138888889085
 21
30.1322916666666138
 72
     1
 10
70.7545138888889085
 20
30.1322916666666138
 11
70.7545138888889085
 21
20.1322916666666352
 72
     1
 10
70.7545138888889085
 20
20.1322916666666352
 11
66.7545138888888658
 21
20.1322916666666352
 72
     1
 10
66.7545138888888658
 20
20.1322916666666352
 11
66.7545138888888658
 21
10.1322916666664753
 72
     1
 10
66.7545138888888658
 20
10.1322916666664753
 11
70.7545138888887664
 21
10.1322916666665588
 72
     1
 10
70.7545138888887664
 20
10.1322916666665588
 11
70.7545138888887664
 21
0.132291666666676
 72
     1
 10
70.7545138888887664
 20
0.132291666666676
 11
295.75451388888888
 21
0.132291666666676
 72
     1
 10
295.75451388888888
 20
0.132291666666676
 11
295.75451388888888
 21
10.1322916666665588
 72
     1
 10
295.75451388888888
 20
10.1322916666665588
 11
299.7545138888888232
 21
10.1322916666665588
 72
     1
 10
299.7545138888888232
 20
10.1322916666665588
 11
299.7545138888888232
 21
20.1322916666666352
 72
     1
 10
299.7545138888888232
 20
20.1322916666666352
 11
295.75451388888888
 21
20.1322916666666352
 72
     1
 10
295.75451388888888
 20
20.1322916666666352
 11
295.75451388888888
 21
30.1322916666667062
 72
     1
 10
295.75451388888888
 20
30.1322916666667062
 11
285.75451388888888
 21
30.1322916666667062
 72
     1
 10
285.75451388888888
 20
30.1322916666667062
 11
285.75451388888888
 21
34.1322916666665606
 72
     1
 10
285.75451388888888
 20
34.1322916666665606
 11
262.9545138888888687
 21
34.1322916666665606
 72
     1
 10
262.9545138888888687
 20
34.1322916666665606
 11
262.9545138888888687
 21
30.1322916666666138
 72
     1
 10
262.9545138888888687
 20
30.1322916666666138
 11
246.554513888888863
 21
30.132291666666525
 72
     1
 10
246.554513888888863
 20
30.132291666666525
 11
246.554513888888863
 21
24.9322916666665364
 97
       27
330
5F
330
61
330
62
330
63
330
64
330
65
330
66
330
67
330
68
330
69
330
6A
330
6B
330
6C
330
6D
330
6E
330
6F
330
70
330
71
330
72
330
73
330
74
330
75
330
76
330
77
330
78
330
79
330
7A
 75
     0
 76
     1
 98
        0
  0
LWPOLYLINE
  5
7D
102
{ACAD_REACTORS
330
7E
102
}
100
AcDbEntity
  8
0
  6
CONTINUOUS
 62
     7
100
AcDbPolyline
 90
       48
 70
     1
 10
29.754514
 20
294.132292
 10
19.754514
 20
294.132292
 10
19.754514
 20
270.132292
 10
15.754514
 20
270.132292
 10
15.754514
 20
245.132292
 10
19.754514
 20
245.132292
 10
19.754514
 20
225.132292
 10
15.754514
 20
225.132292
 10
15.754514
 20
200.132292
 10
19.754514
 20
200.132292
 10
19.754514
 20
180.132292
 10
15.754514
 20
180.132292
 10
15.754514
 20
155.132292
 10
19.754514
 20
155.132292
 10
19.754514
 20
135.132292
 10
15.754514
 20
135.132292
 10
15.754514
 20
110.132292
 10
19.754514
 20
110.132292
 10
19.754514
 20
86.132292
 10
29.754514
 20
86.132292
 10
29.754514
 20
90.132292
 10
39.754514
 20
90.132292
 10
39.754514
 20
86.132292
 10
49.754514
 20
86.132292
 10
49.754514
 20
110.132292
 10
53.754514
 20
110.132292
 10
53.754514
 20
140.132292
 10
49.754514
 20
140.132292
 10
49.754514
 20
160.132292
 10
53.754514
 20
160.132292
 10
53.754514
 20
190.132292
 10
49.754514
 20
190.132292
 10
49.754514
 20
210.132292
 10
53.754514
 20
210.132292
 10
53.754514
 20
230.132292
 10
49.754514
 20
230.132292
 10
49.754514
 20
250.132292
 10
53.754514
 20
250.132292
 10
53.754514
 20
254.132292
 10
29.754514
 20
254.132292
 10
29.754514
 20
266.132292
 10
53.754514
 20
266.132292
 10
53.754514
 20
270.132292
 10
49.754514
 20
270.132292
 10
49.754514
 20
294.132292
 10
39.754514
 20
294.132292
 10
39.754514
 20
290.132292
 10
29.754514
 20
290.132292
  0
HATCH
  5
7E
102
{ACAD_REACTORS
330
7C
102
}
100
AcDbEntity
  8
0
 62
   254
100
AcDbHatch
 10
0.0
 20
0.0
 30
0.0
210
0.0
220
0.0
230
1.0
  2
SOLID
 70
     1
 71
     1
 91
        1
 92
        3
 72
     0
 73
     1
 93
       48
 10
29.7545138888888445
 20
294.1322916666664469
 10
19.7545138888888623
 20
294.1322916666664469
 10
19.7545138888888623
 20
270.1322916666665037
 10
15.7545138888888623
 20
270.1322916666665037
 10
15.7545138888888623
 20
245.132291666666589
 10
19.7545138888888623
 20
245.132291666666589
 10
19.7545138888888623
 20
225.1322916666665321
 10
15.7545138888888623
 20
225.1322916666665321
 10
15.7545138888888623
 20
200.1322916666665321
 10
19.7545138888888623
 20
200.1322916666665321
 10
19.7545138888888623
 20
180.1322916666665606
 10
15.7545138888888623
 20
180.1322916666665606
 10
15.7545138888888623
 20
155.1322916666665606
 10
19.7545138888888623
 20
155.1322916666665606
 10
19.7545138888888623
 20
135.1322916666665037
 10
15.7545138888888623
 20
135.1322916666665037
 10
15.7545138888888623
 20
110.13229166666639
 10
19.7545138888889547
 20
110.13229166666639
 10
19.7545138888889547
 20
86.1322916666664611
 10
29.7545138888888445
 20
86.1322916666661911
 10
29.7545138888888445
 20
90.1322916666664469
 10
39.75451388888888
 20
90.1322916666664469
 10
39.75451388888888
 20
86.1322916666664611
 10
49.7545138888888303
 20
86.1322916666664611
 10
49.7545138888887735
 20
110.13229166666639
 10
53.7545138888888587
 20
110.13229166666639
 10
53.7545138888888587
 20
140.1322916666665321
 10
49.7545138888888516
 20
140.1322916666665321
 10
49.7545138888888516
 20
160.1322916666665037
 10
53.7545138888888587
 20
160.1322916666665037
 10
53.7545138888888587
 20
190.1322916666666174
 10
49.7545138888888516
 20
190.1322916666666174
 10
49.7545138888888516
 20
210.1322916666666174
 10
53.7545138888888587
 20
210.1322916666666174
 10
53.7545138888888587
 20
230.132291666666589
 10
49.7545138888888516
 20
230.132291666666589
 10
49.7545138888888516
 20
250.1322916666666174
 10
53.7545138888888587
 20
250.1322916666666174
 10
53.7545138888888587
 20
254.1322916666666174
 10
29.7545138888888552
 20
254.1322916666666174
 10
29.7545138888888552
 20
266.1322916666666174
 10
53.7545138888888587
 20
266.1322916666666174
 10
53.7545138888888587
 20
270.1322916666666174
 10
49.7545138888888516
 20
270.1322916666666174
 10
49.7545138888888516
 20
294.1322916666664469
 10
39.75451388888888
 20
294.1322916666664469
 10
39.75451388888888
 20
290.1322916666664469
 10
29.7545138888888658
 20
290.1322916666664469
 97
        1
330
7D
 75
     0
 76
     1
 98
        0
  0
LWPOLYLINE
  5
7F
102
{ACAD_REACTORS
330
7C
102
}
100
AcDbEntity
  8
0
  6
CONTINUOUS
 62
     7
100
AcDbPolyline
 90
        4
 70
     1
 10
29.754514
 20
225.085633
 10
29.754514
 20
221.067776
 10
39.754514
 20
221.067776
 10
39.754514
 20
225.085633
  0
LWPOLYLINE
  5
81
102
{ACAD_REACTORS
330
82
102
}
100
AcDbEntity
  8
0
  6
CONTINUOUS
 62
     7
100
AcDbPolyline
 90
       44
 70
     1
 10
324.754514
 20
294.132292
 10
314.754514
 20
294.132292
 10
314.754514
 20
270.132292
 10
310.754514
 20
270.132292
 10
310.754514
 20
245.132292
 10
314.754514
 20
245.132292
 10
314.754514
 20
225.132292
 10
310.754514
 20
225.132292
 10
310.754514
 20
200.132292
 10
314.754514
 20
200.132292
 10
314.754514
 20
180.132292
 10
310.754514
 20
180.132292
 10
310.754514
 20
155.132292
 10
314.754514
 20
155.132292
 10
314.754514
 20
135.132292
 10
310.754514
 20
135.132292
 10
310.754514
 20
110.132292
 10
314.754514
 20
110.132292
 10
314.754514
 20
86.132292
 10
324.754514
 20
86.132292
 10
324.754514
 20
90.132292
 10
334.754514
 20
90.132292
 10
334.754514
 20
86.132292
 10
344.754514
 20
86.132292
 10
344.754514
 20
110.132292
 10
348.754514
 20
110.132292
 10
348.754514
 20
135.132292
 10
344.754514
 20
135.132292
 10
344.754514
 20
155.132292
 10
348.754514
 20
155.132292
 10
348.754514
 20
180.132292
 10
344.754514
 20
180.132292
 10
344.754514
 20
200.132292
 10
348.754514
 20
200.132292
 10
348.754514
 20
225.132292
 10
344.754514
 20
225.132292
 10
344.754514
 20
245.132292
 10
348.754514
 20
245.132292
 10
348.754514
 20
270.132292
 10
344.754514
 20
270.132292
 10
344.754514
 20
294.132292
 10
334.754514
 20
294.132292
 10
334.754514
 20
290.132292
 10
324.754514
 20
290.132292
  0
HATCH
  5
82
102
{ACAD_REACTORS
330
80
102
}
100
AcDbEntity
  8
0
 62
   254
100
AcDbHatch
 10
0.0
 20
0.0
 30
0.0
210
0.0
220
0.0
230
1.0
  2
SOLID
 70
     1
 71
     1
 91
        1
 92
        3
 72
     0
 73
     1
 93
       44
 10
324.7545138888888232
 20
294.1322916666664469
 10
314.75451388888888
 20
294.1322916666664469
 10
314.75451388888888
 20
270.1322916666665037
 10
310.7545138888888232
 20
270.1322916666665037
 10
310.7545138888888232
 20
245.132291666666589
 10
314.75451388888888
 20
245.132291666666589
 10
314.75451388888888
 20
225.1322916666665321
 10
310.7545138888888232
 20
225.1322916666665321
 10
310.7545138888888232
 20
200.1322916666665321
 10
314.75451388888888
 20
200.1322916666665321
 10
314.75451388888888
 20
180.1322916666665606
 10
310.7545138888888232
 20
180.1322916666665606
 10
310.7545138888888232
 20
155.1322916666665606
 10
314.75451388888888
 20
155.1322916666665606
 10
314.75451388888888
 20
135.1322916666665037
 10
310.7545138888888232
 20
135.1322916666665037
 10
310.7545138888888232
 20
110.13229166666639
 10
314.7545138888889369
 20
110.13229166666639
 10
314.7545138888889369
 20
86.1322916666664611
 10
324.7545138888888232
 20
86.1322916666661911
 10
324.7545138888888232
 20
90.1322916666664469
 10
334.75451388888888
 20
90.1322916666664469
 10
334.75451388888888
 20
86.1322916666664611
 10
344.7545138888888232
 20
86.1322916666664611
 10
344.7545138888887664
 20
110.13229166666639
 10
348.7545138888888232
 20
110.13229166666639
 10
348.75451388888888
 20
135.1322916666665037
 10
344.7545138888888232
 20
135.1322916666665037
 10
344.7545138888888232
 20
155.1322916666665606
 10
348.75451388888888
 20
155.1322916666665606
 10
348.75451388888888
 20
180.1322916666665606
 10
344.7545138888888232
 20
180.1322916666665606
 10
344.7545138888888232
 20
200.1322916666665321
 10
348.75451388888888
 20
200.1322916666665321
 10
348.75451388888888
 20
225.1322916666665321
 10
344.7545138888888232
 20
225.1322916666665321
 10
344.7545138888888232
 20
245.132291666666589
 10
348.75451388888888
 20
245.132291666666589
 10
348.75451388888888
 20
270.1322916666665037
 10
344.7545138888888232
 20
270.1322916666665037
 10
344.7545138888888232
 20
294.1322916666664469
 10
334.7545138888888232
 20
294.1322916666664469
 10
334.7545138888888232
 20
290.1322916666664469
 10
324.7545138888888232
 20
290.1322916666664469
 97
        2
330
7F
330
81
 75
     0
 76
     1
 98
        0
  0
LWPOLYLINE
  5
83
102
{ACAD_REACTORS
330
80
102
}
100
AcDbEntity
  8
0
  6
CONTINUOUS
 62
     7
100
AcDbPolyline
 90
        4
 70
     1
 10
324.754514
 20
225.085633
 10
324.754514
 20
221.067776
 10
334.754514
 20
221.067776
 10
334.754514
 20
225.085633
  0
ELLIPSE
  5
84
102
{ACAD_REACTORS
330
8E
102
}
100
AcDbEntity
  8
0
  6
CONTINUOUS
 62
     7
100
AcDbEllipse
 10
219.61779
 20
483.395568
 30
0.0
 11
0.0
 21
-54.3999999999998565
 31
0.0
210
0.0
220
0.0
230
1.0
 40
0.981618
 41
-1.5707963267948983
 42
0.0000000000000023
  0
ELLIPSE
  5
85
102
{ACAD_REACTORS
330
8E
102
}
100
AcDbEntity
  8
0
  6
CONTINUOUS
 62
     7
100
AcDbEllipse
 10
219.61779
 20
483.395568
 30
0.0
 11
-55.0000000000000355
 21
0.0
 31
0.0
210
0.0
220
0.0
230
1.0
 40
0.989091
 41
1.5707963267948977
 42
3.1415926535897944
  0
LINE
  5
86
102
{ACAD_REACTORS
330
8E
102
}
100
AcDbEntity
  8
0
  6
CONTINUOUS
 62
     7
100
AcDbLine
 10
274.61779
 20
483.395568
 30
0.0
 11
274.61779
 21
503.395568
 31
0.0
  0
LINE
  5
87
102
{ACAD_REACTORS
330
8E
102
}
100
AcDbEntity
  8
0
  6
CONTINUOUS
 62
     7
100
AcDbLine
 10
274.61779
 20
503.395568
 30
0.0
 11
267.11779
 21
503.395568
 31
0.0
  0
LINE
  5
88
102
{ACAD_REACTORS
330
8E
102
}
100
AcDbEntity
  8
0
  6
CONTINUOUS
 62
     7
100
AcDbLine
 10
267.11779
 20
503.395568
 30
0.0
 11
267.11779
 21
483.395568
 31
0.0
  0
ELLIPSE
  5
89
102
{ACAD_REACTORS
330
8E
102
}
100
AcDbEntity
  8
0
  6
CONTINUOUS
 62
     7
100
AcDbEllipse
 10
219.61779
 20
483.395568
 30
0.0
 11
-47.4999999999999289
 21
0.0
 31
0.0
210
0.0
220
0.0
230
1.0
 40
0.976842
 41
1.5707963267948961
 42
3.1415926535897931
  0
ELLIPSE
  5
8A
102
{ACAD_REACTORS
330
8E
102
}
100
AcDbEntity
  8
0
  6
CONTINUOUS
 62
     7
100
AcDbEllipse
 10
219.61779
 20
483.395568
 30
0.0
 11
0.0
 21
-46.399999999999828
 31
0.0
210
0.0
220
0.0
230
1.0
 40
0.982759
 41
-1.5707963267948992
 42
0.0000000000000034
  0
LINE
  5
8B
102
{ACAD_REACTORS
330
8E
102
}
100
AcDbEntity
  8
0
  6
CONTINUOUS
 62
     7
100
AcDbLine
 10
174.01779
 20
483.395568
 30
0.0
 11
174.01779
 21
503.395568
 31
0.0
  0
LINE
  5
8C
102
{ACAD_REACTORS
330
8E
102
}
100
AcDbEntity
  8
0
  6
CONTINUOUS
 62
     7
100
AcDbLine
 10
174.01779
 20
503.395568
 30
0.0
 11
166.284456
 21
503.395568
 31
0.0
  0
LINE
  5
8D
102
{ACAD_REACTORS
330
8E
102
}
100
AcDbEntity
  8
0
  6
CONTINUOUS
 62
     7
100
AcDbLine
 10
166.284456
 20
503.395568
 30
0.0
 11
166.21779
 21
483.395568
 31
0.0
  0
HATCH
  5
8E
100
AcDbEntity
  8
0
 62
   254
100
AcDbHatch
 10
0.0
 20
0.0
 30
0.0
210
0.0
220
0.0
230
1.0
  2
SOLID
 70
     1
 71
     1
 91
        1
 92
        1
 93
       10
 72
     3
 10
219.6177897344250027
 20
483.3955675122031721
 11
0.0
 21
-54.3999999999998565
 40
0.981618
 50
270.0
 51
0.0
 73
     1
 72
     3
 10
219.6177897344250312
 20
483.3955675122032858
 11
0.0
 21
-54.399999999999892
 40
1.011029
 50
0.0
 51
90.0
 73
     1
 72
     1
 10
274.6177897344250596
 20
483.3955675122032858
 11
274.6177897344250596
 21
503.3955675122033426
 72
     1
 10
274.6177897344250596
 20
503.3955675122033426
 11
267.1177897344250027
 21
503.3955675122033426
 72
     1
 10
267.1177897344250027
 20
503.3955675122033426
 11
267.1177897344250027
 21
483.3955675122032858
 72
     3
 10
219.6177897344250312
 20
483.3955675122032858
 11
0.0
 21
-46.3999999999999488
 40
1.023707
 50
270.0
 51
0.0
 73
     0
 72
     3
 10
219.6177897344248606
 20
483.3955675122031721
 11
0.0
 21
-46.399999999999828
 40
0.982759
 50
360.0
 51
450.0
 73
     0
 72
     1
 10
174.0177897344249232
 20
483.3955675122032858
 11
174.0177897344249232
 21
503.3955675122033426
 72
     1
 10
174.0177897344249232
 20
503.3955675122033426
 11
166.2844564010917168
 21
503.3955675122033426
 72
     1
 10
166.2844564010917168
 20
503.3955675122033426
 11
166.2177897344249118
 21
483.3955675122032858
 97
       11
330
83
330
84
330
85
330
86
330
87
330
88
330
89
330
8A
330
8B
330
8C
330
8D
 75
     0
 76
     1
 98
        0
  0
LWPOLYLINE
  5
8F
102
{ACAD_REACTORS
330
90
102
}
100
AcDbEntity
  8
0
  6
CONTINUOUS
 62
     7
100
AcDbPolyline
 90
       24
 70
     1
 10
342.55709
 20
510.995568
 10
330.122307
 20
510.995568
 10
330.122307
 20
495.995568
 10
334.209264
 20
495.995568
 10
334.209264
 20
480.995568
 10
330.122307
 20
480.995568
 10
330.122307
 20
465.995568
 10
334.339699
 20
465.995568
 10
334.339699
 20
435.995568
 10
330.209264
 20
435.995568
 10
330.209264
 20
420.995568
 10
334.252742
 20
420.995568
 10
334.252742
 20
405.995568
 10
330.078829
 20
405.995568
 10
330.078829
 20
390.995568
 10
342.55709
 20
390.995568
 10
342.55709
 20
410.995568
 10
338.55709
 20
410.995568
 10
338.55709
 20
440.995568
 10
342.55709
 20
440.995568
 10
342.55709
 20
460.995568
 10
338.55709
 20
460.995568
 10
338.55709
 20
490.995568
 10
342.55709
 20
490.995568
  0
HATCH
  5
90
100
AcDbEntity
  8
0
 62
   254
100
AcDbHatch
 10
0.0
 20
0.0
 30
0.0
210
0.0
220
0.0
230
1.0
  2
SOLID
 70
     1
 71
     1
 91
        1
 92
        3
 72
     0
 73
     1
 93
       24
 10
342.5570900267607612
 20
510.995567512203138
 10
330.1223074180650201
 20
510.995567512203138
 10
330.1223074180650201
 20
495.995567512203138
 10
334.2092639398041456
 20
495.995567512203138
 10
334.2092639398040887
 20
480.995567512203138
 10
330.1223074180650201
 20
480.995567512203138
 10
330.1223074180650201
 20
465.9955675122030812
 10
334.3396987224128907
 20
465.9955675122030812
 10
334.339698722412777
 20
435.995567512203138
 10
330.2092639398042024
 20
435.995567512203138
 10
330.2092639398041456
 20
420.995567512203138
 10
334.2527422006737083
 20
420.995567512203138
 10
334.2527422006737083
 20
405.995567512203138
 10
330.0788291571954574
 20
405.995567512203138
 10
330.0788291571954574
 20
390.995567512203138
 10
342.5570900267608181
 20
390.9955675122031948
 10
342.5570900267608181
 20
410.995567512203138
 10
338.5570900267608181
 20
410.995567512203138
 10
338.5570900267608181
 20
440.9955675122030812
 10
342.5570900267608181
 20
440.9955675122030812
 10
342.5570900267608181
 20
460.995567512203138
 10
338.5570900267608181
 20
460.995567512203138
 10
338.5570900267608181
 20
490.9955675122031948
 10
342.5570900267608181
 20
490.9955675122031948
 97
        1
330
8F
 75
     0
 76
     1
 98
        0
  0
LWPOLYLINE
  5
91
102
{ACAD_REACTORS
330
92
102
}
100
AcDbEntity
  8
0
  6
CONTINUOUS
 62
     7
100
AcDbPolyline
 90
       24
 70
     1
 10
311.61779
 20
510.995568
 10
324.11779
 20
510.995568
 10
324.11779
 20
495.995568
 10
328.269964
 20
495.995568
 10
328.269964
 20
480.995568
 10
324.139529
 20
480.995568
 10
324.139529
 20
465.995568
 10
328.313442
 20
465.995568
 10
328.313442
 20
435.995568
 10
324.269964
 20
435.995568
 10
324.269964
 20
420.995568
 10
328.313442
 20
420.995568
 10
328.313442
 20
405.995568
 10
324.009094
 20
405.995568
 10
324.009094
 20
390.995568
 10
311.61779
 20
390.995568
 10
311.61779
 20
410.995568
 10
319.183007
 20
410.995568
 10
319.183007
 20
440.995568
 10
311.61779
 20
440.995568
 10
311.61779
 20
460.995568
 10
319.183007
 20
460.995568
 10
319.183007
 20
490.995568
 10
311.61779
 20
490.995568
  0
HATCH
  5
92
100
AcDbEntity
  8
0
 62
   254
100
AcDbHatch
 10
0.0
 20
0.0
 30
0.0
210
0.0
220
0.0
230
1.0
  2
SOLID
 70
     1
 71
     1
 91
        1
 92
        3
 72
     0
 73
     1
 93
       24
 10
311.6177897344255712
 20
510.995567512203138
 10
324.1177897344255712
 20
510.995567512203138
 10
324.1177897344255143
 20
495.995567512203138
 10
328.2699636474688418
 20
495.995567512203138
 10
328.2699636474688418
 20
480.9955675122031948
 10
324.1395288648602104
 20
480.9955675122031948
 10
324.1395288648602104
 20
465.9955675122031948
 10
328.3134419083384046
 20
465.9955675122031948
 10
328.3134419083384614
 20
435.995567512203138
 10
324.2699636474689555
 20
435.995567512203138
 10
324.2699636474689555
 20
420.995567512203138
 10
328.3134419083384614
 20
420.995567512203138
 10
328.3134419083384614
 20
405.995567512203138
 10
324.0090940822515222
 20
405.995567512203138
 10
324.0090940822515222
 20
390.9955675122031948
 10
311.6177897344255712
 20
390.9955675122031948
 10
311.6177897344255712
 20
410.9955675122032517
 10
319.18300712572983
 20
410.9955675122032517
 10
319.18300712572983
 20
440.9955675122031948
 10
311.6177897344255712
 20
440.9955675122031948
 10
311.6177897344255712
 20
460.995567512203138
 10
319.18300712572983
 20
460.995567512203138
 10
319.18300712572983
 20
490.9955675122031948
 10
311.6177897344255712
 20
490.9955675122031948
 97
        1
330
91
 75
     0
 76
     1
 98
        0
  0
MTEXT
  5
93
100
AcDbEntity
  8
0
100
AcDbMText
 10
26.943403
 20
422.46779
 30
0.0
 40
3.175024
 41
53.622222
 71
     5
 72
     5
  1
\C7;\fCalibri|b0|i0|;\H3.1750242233276;Wird durchgeschnitten,\PEine Seite ist Kameradeckel
  0
LINE
  5
94
100
AcDbEntity
  8
0
  6
CONTINUOUS
 62
     7
100
AcDbLine
 10
51.61779
 20
422.495568
 30
0.0
 11
68.61779
 21
419.095568
 31
0.0
  0
ENDSEC
  0
SECTION
  2
OBJECTS
  0
DICTIONARY
  5
C
100
AcDbDictionary
  3
ACAD_GROUP
350
D
  3
ACAD_MLINESTYLE
350
1B
  0
DICTIONARY
  5
D
102
{ACAD_REACTORS
330
C
102
}
100
AcDbDictionary
  3
VISIOGROUP_0
350
35
  3
VISIOGROUP_1
350
3A
  3
VISIOGROUP_2
350
4B
  3
VISIOGROUP_3
350
5C
  3
VISIOGROUP_4
350
7C
  3
VISIOGROUP_5
350
80
  0
DICTIONARY
  5
1B
102
{ACAD_REACTORS
330
C
102
}
100
AcDbDictionary
  3
STANDARD
350
1C
  0
MLINESTYLE
  5
1C
102
{ACAD_REACTORS
330
1B
102
}
100
AcDbMlineStyle
  2
STANDARD
 70
     0
  3

 62
   256
 51
90.0
 52
90.0
 71
     2
 49
0.5
 62
   256
  6
BYLAYER
 49
-0.5
 62
   256
  6
BYLAYER
  0
DICTIONARY
  5
29
102
{ACAD_REACTORS
330
C
102
}
100
AcDbDictionary
  3
MODEL
350
2A
  3
LAYOUT1
350
2B
  0
DICTIONARY
  5
2C
102
{ACAD_REACTORS
330
C
102
}
100
AcDbDictionary
  0
GROUP
  5
35
102
{ACAD_REACTORS
330
D
102
}
100
AcDbGroup
300
Group created by Visio.
 70
     0
 71
     1
340
36
340
37
340
38
340
39
  0
GROUP
  5
3A
102
{ACAD_REACTORS
330
D
102
}
100
AcDbGroup
300
Group created by Visio.
 70
     0
 71
     1
340
3B
340
3C
340
3D
340
3E
340
3F
340
40
340
41
340
42
340
43
340
44
340
45
340
46
340
47
340
48
340
49
340
4A
  0
GROUP
  5
4B
102
{ACAD_REACTORS
330
D
102
}
100
AcDbGroup
300
Group created by Visio.
 70
     0
 71
     1
340
4C
340
4D
340
4E
340
4F
340
50
340
51
340
52
340
53
340
54
340
55
340
56
340
57
340
58
340
59
340
5A
340
5B
  0
GROUP
  5
5C
102
{ACAD_REACTORS
330
D
102
}
100
AcDbGroup
300
Group created by Visio.
 70
     0
 71
     1
340
5D
340
5E
340
5F
  0
GROUP
  5
7C
102
{ACAD_REACTORS
330
D
102
}
100
AcDbGroup
300
Group created by Visio.
 70
     0
 71
     1
340
7D
340
7E
340
7F
  0
GROUP
  5
80
102
{ACAD_REACTORS
330
D
102
}
100
AcDbGroup
300
Group created by Visio.
 70
     0
 71
     1
340
81
340
82
340
83
  0
ENDSEC
  0
EOF
