999
"DXF R12 Output" (www.mydxf.blogspot.com)
 0 
SECTION
 2 
HEADER
 9 
$ACADVER
 1 
AC1009
 9 
$EXTMIN
 10 
 0 
 20 
 0 
 9 
$EXTMAX
 10 
 8.5 
 20 
 11 
 0 
ENDSEC
 0 
SECTION
 2 
ENTITIES
0
LINE
8
Layer 1
10
31.983900
20
59.871500
11
30.339480
21
62.510840
0
LINE
8
Layer 1
10
30.339480
20
62.510840
11
32.259400
21
62.510900
0
LINE
8
Layer 1
10
32.259400
20
62.510900
11
33.392800
21
60.810750
0
LINE
8
Layer 1
10
33.392800
20
60.810750
11
34.488670
21
62.510900
0
LINE
8
Layer 1
10
34.488670
20
62.510900
11
36.401600
21
62.510900
0
LINE
8
Layer 1
10
36.401600
20
62.510900
11
34.775480
21
59.871560
0
LINE
8
Layer 1
10
34.775480
20
59.871560
11
36.401600
21
57.289790
0
LINE
8
Layer 1
10
36.401600
20
57.289790
11
34.488700
21
57.289800
0
LINE
8
Layer 1
10
34.488700
20
57.289800
11
33.392830
21
58.999540
0
LINE
8
Layer 1
10
33.392830
20
58.999540
11
32.259430
21
57.289800
0
LINE
8
Layer 1
10
32.259430
20
57.289800
11
30.339500
21
57.289800
0
LINE
8
Layer 1
10
30.339500
20
57.289800
11
31.983900
21
59.871500
0
LINE
8
Layer 1
10
37.095300
20
59.812300
11
39.145080
21
59.816209
0
LINE
8
Layer 1
10
39.145080
20
59.816209
11
39.368139
21
60.184855
0
LINE
8
Layer 1
10
39.368139
20
60.184855
11
39.396022
21
60.599078
0
LINE
8
Layer 1
10
39.396022
20
60.599078
11
39.145080
21
61.125159
0
LINE
8
Layer 1
10
39.145080
20
61.125159
11
37.095300
21
61.125189
0
LINE
8
Layer 1
10
37.095300
20
61.125189
11
37.095300
21
59.812300
0
LINE
8
Layer 1
10
31.375700
20
59.871500
11
29.597260
21
62.510840
0
LINE
8
Layer 1
10
29.597260
20
62.510840
11
29.597200
21
59.735000
0
LINE
8
Layer 1
10
29.597200
20
59.735000
11
27.031240
21
62.510890
0
LINE
8
Layer 1
10
27.031240
20
62.510890
11
25.408200
21
62.510900
0
LINE
8
Layer 1
10
25.408200
20
62.510900
11
25.402121
21
57.289790
0
LINE
8
Layer 1
10
25.402121
20
57.289790
11
27.031300
21
57.289800
0
LINE
8
Layer 1
10
27.031300
20
57.289800
11
27.031300
21
60.177500
0
LINE
8
Layer 1
10
27.031300
20
60.177500
11
29.597260
21
57.289800
0
LINE
8
Layer 1
10
29.597260
20
57.289800
11
31.375700
21
59.871500
0
LINE
8
Layer 1
10
35.383700
20
59.871500
11
37.067070
21
57.289730
0
LINE
8
Layer 1
10
37.067070
20
57.289730
11
37.067100
21
58.417700
0
LINE
8
Layer 1
10
37.067100
20
58.417700
11
39.950320
21
58.440066
0
LINE
8
Layer 1
10
39.950320
20
58.440066
11
40.545828
21
58.673408
0
LINE
8
Layer 1
10
40.545828
20
58.673408
11
40.978809
21
59.073699
0
LINE
8
Layer 1
10
40.978809
20
59.073699
11
41.225140
21
59.759616
0
LINE
8
Layer 1
10
41.225140
20
59.759616
11
41.214500
21
61.255486
0
LINE
8
Layer 1
10
41.214500
20
61.255486
11
40.836272
21
61.960503
0
LINE
8
Layer 1
10
40.836272
20
61.960503
11
40.357167
21
62.335514
0
LINE
8
Layer 1
10
40.357167
20
62.335514
11
39.771370
21
62.510906
0
LINE
8
Layer 1
10
39.771370
20
62.510906
11
37.067100
21
62.510900
0
LINE
8
Layer 1
10
37.067100
20
62.510900
11
35.383700
21
59.871500
 0 
ENDSEC
 0 
EOF