solid OpenSCAD_Model
  facet normal 0 0 -1
    outer loop
      vertex 3.35746 -10.7647 0
      vertex 6.32286 -9.33666 0
      vertex 6.16942 -10.3903 0
    endloop
  endfacet
  facet normal -0 0 -1
    outer loop
      vertex 6.32286 -9.33666 0
      vertex 3.35746 -10.7647 0
      vertex 6.31956 -8.34578 0
    endloop
  endfacet
  facet normal 0 0 -1
    outer loop
      vertex 4.27686 -11.3017 0
      vertex 6.16942 -10.3903 0
      vertex 5.85597 -11.4848 0
    endloop
  endfacet
  facet normal 0 0 -1
    outer loop
      vertex 3.35746 -10.7647 0
      vertex 6.16942 -10.3903 0
      vertex 4.27686 -11.3017 0
    endloop
  endfacet
  facet normal 0 0 -1
    outer loop
      vertex 4.27686 -11.3017 0
      vertex 5.85597 -11.4848 0
      vertex 5.328 -11.739 0
    endloop
  endfacet
  facet normal 0 0 -1
    outer loop
      vertex 2.58481 -10.1443 0
      vertex 6.31956 -8.34578 0
      vertex 3.35746 -10.7647 0
    endloop
  endfacet
  facet normal -0 0 -1
    outer loop
      vertex 6.31956 -8.34578 0
      vertex 2.58481 -10.1443 0
      vertex 6.15868 -7.44321 0
    endloop
  endfacet
  facet normal -0 0 -1
    outer loop
      vertex 5.61056 -4.45143 0
      vertex 5.59817 -4.46439 0
      vertex 5.60812 -4.44933 0
    endloop
  endfacet
  facet normal 0 0 -1
    outer loop
      vertex 12.4999 -3.15355 0
      vertex 11.97 -1.65477 0
      vertex 12.6303 -2.58224 0
    endloop
  endfacet
  facet normal 0 0 -1
    outer loop
      vertex 11.5026 -3.70269 0
      vertex 11.97 -1.65477 0
      vertex 12.4999 -3.15355 0
    endloop
  endfacet
  facet normal 0 0 -1
    outer loop
      vertex 11.5026 -3.70269 0
      vertex 11.2419 -0.8779 0
      vertex 11.97 -1.65477 0
    endloop
  endfacet
  facet normal 0 0 -1
    outer loop
      vertex 10.5095 -4.08673 0
      vertex 11.2419 -0.8779 0
      vertex 11.5026 -3.70269 0
    endloop
  endfacet
  facet normal 0 0 -1
    outer loop
      vertex 10.5095 -4.08673 0
      vertex 10.4652 -0.262675 0
      vertex 11.2419 -0.8779 0
    endloop
  endfacet
  facet normal 0 0 -1
    outer loop
      vertex 9.54277 -4.30401 0
      vertex 10.4652 -0.262675 0
      vertex 10.5095 -4.08673 0
    endloop
  endfacet
  facet normal -0 0 -1
    outer loop
      vertex 10.4652 -0.262675 0
      vertex 9.54277 -4.30401 0
      vertex 9.65921 0.174283 0
    endloop
  endfacet
  facet normal 0 0 -1
    outer loop
      vertex 8.62703 -4.348 0
      vertex 9.65921 0.174283 0
      vertex 9.54277 -4.30401 0
    endloop
  endfacet
  facet normal -0 0 -1
    outer loop
      vertex 9.65921 0.174283 0
      vertex 8.62703 -4.348 0
      vertex 8.8449 0.38071 0
    endloop
  endfacet
  facet normal 0 0 -1
    outer loop
      vertex 7.80379 -4.18067 0
      vertex 8.8449 0.38071 0
      vertex 8.62703 -4.348 0
    endloop
  endfacet
  facet normal 0 0 -1
    outer loop
      vertex 7.80379 -4.18067 0
      vertex 7.15534 0.30798 0
      vertex 8.8449 0.38071 0
    endloop
  endfacet
  facet normal 0 0 -1
    outer loop
      vertex 3.5 0 0
      vertex 6.98324 1.57544 0
      vertex 7.15534 0.30798 0
    endloop
  endfacet
  facet normal 0 0 -1
    outer loop
      vertex 6.98081 1.59332 0
      vertex 6.97524 1.61049 0
      vertex 6.97839 1.61109 0
    endloop
  endfacet
  facet normal 0 0 -1
    outer loop
      vertex 3.3287 1.08156 0
      vertex 6.98324 1.57544 0
      vertex 3.5 0 0
    endloop
  endfacet
  facet normal 0 -0 -1
    outer loop
      vertex 6.97524 1.61049 0
      vertex 6.98324 1.57544 0
      vertex 3.3287 1.08156 0
    endloop
  endfacet
  facet normal 0 0 -1
    outer loop
      vertex 6.31311 -3.38207 0
      vertex 7.15534 0.30798 0
      vertex 7.80379 -4.18067 0
    endloop
  endfacet
  facet normal 0 0 -1
    outer loop
      vertex 3.3287 -1.08156 0
      vertex 7.15534 0.30798 0
      vertex 6.31311 -3.38207 0
    endloop
  endfacet
  facet normal -0 0 -1
    outer loop
      vertex 6.98634 1.57627 0
      vertex 6.98324 1.57544 0
      vertex 6.98081 1.59332 0
    endloop
  endfacet
  facet normal 0 0 -1
    outer loop
      vertex 10.0666 6.68449 0
      vertex 9.89373 8.26475 0
      vertex 10.2591 7.80659 0
    endloop
  endfacet
  facet normal 0 0 -1
    outer loop
      vertex 8.75693 8.32679 0
      vertex 10.0666 6.68449 0
      vertex 9.74772 5.66865 0
    endloop
  endfacet
  facet normal 0 0 -1
    outer loop
      vertex 7.6956 8.24193 0
      vertex 9.74772 5.66865 0
      vertex 9.31483 4.77733 0
    endloop
  endfacet
  facet normal 0 0 -1
    outer loop
      vertex 6.7303 8.01823 0
      vertex 9.31483 4.77733 0
      vertex 8.77826 4.03395 0
    endloop
  endfacet
  facet normal 0 0 -1
    outer loop
      vertex 10.0666 6.68449 0
      vertex 8.75693 8.32679 0
      vertex 9.89373 8.26475 0
    endloop
  endfacet
  facet normal 0 0 -1
    outer loop
      vertex 5.88616 7.66054 0
      vertex 8.77826 4.03395 0
      vertex 8.13416 3.49465 0
    endloop
  endfacet
  facet normal 0 0 -1
    outer loop
      vertex 9.74772 5.66865 0
      vertex 7.6956 8.24193 0
      vertex 8.75693 8.32679 0
    endloop
  endfacet
  facet normal 0 0 -1
    outer loop
      vertex 9.31483 4.77733 0
      vertex 6.7303 8.01823 0
      vertex 7.6956 8.24193 0
    endloop
  endfacet
  facet normal 0 0 -1
    outer loop
      vertex 5.21705 7.15259 0
      vertex 8.13416 3.49465 0
      vertex 6.58037 2.82711 0
    endloop
  endfacet
  facet normal 0 0 -1
    outer loop
      vertex 6.98324 1.57544 0
      vertex 6.97524 1.61049 0
      vertex 6.98081 1.59332 0
    endloop
  endfacet
  facet normal 0 0 -1
    outer loop
      vertex 2.83156 2.05725 0
      vertex 6.58037 2.82711 0
      vertex 3.3287 1.08156 0
    endloop
  endfacet
  facet normal 0 0 -1
    outer loop
      vertex 2.83156 -2.05725 0
      vertex 6.31311 -3.38207 0
      vertex 5.60812 -4.44933 0
    endloop
  endfacet
  facet normal 0 0 -1
    outer loop
      vertex 5.58571 -4.47744 0
      vertex 5.60812 -4.44933 0
      vertex 5.59817 -4.46439 0
    endloop
  endfacet
  facet normal 0 0 -1
    outer loop
      vertex 5.58571 -4.47744 0
      vertex 5.59817 -4.46439 0
      vertex 5.58829 -4.47935 0
    endloop
  endfacet
  facet normal -0 0 -1
    outer loop
      vertex 5.60812 -4.44933 0
      vertex 5.58571 -4.47744 0
      vertex 2.83156 -2.05725 0
    endloop
  endfacet
  facet normal -0 0 -1
    outer loop
      vertex 6.97524 1.61049 0
      vertex 3.3287 1.08156 0
      vertex 6.58037 2.82711 0
    endloop
  endfacet
  facet normal 0 0 -1
    outer loop
      vertex 2.83156 -2.05725 0
      vertex 5.58571 -4.47744 0
      vertex 4.70207 -5.40225 0
    endloop
  endfacet
  facet normal 0 0 -1
    outer loop
      vertex 1.97946 -9.45581 0
      vertex 6.15868 -7.44321 0
      vertex 2.58481 -10.1443 0
    endloop
  endfacet
  facet normal 0 -0 -1
    outer loop
      vertex 5.21705 7.15259 0
      vertex 6.58037 2.82711 0
      vertex 4.22049 5.78629 0
    endloop
  endfacet
  facet normal 0 0 -1
    outer loop
      vertex 8.13416 3.49465 0
      vertex 5.21705 7.15259 0
      vertex 5.88616 7.66054 0
    endloop
  endfacet
  facet normal -0 0 -1
    outer loop
      vertex 6.15868 -7.44321 0
      vertex 1.97946 -9.45581 0
      vertex 5.81235 -6.67785 0
    endloop
  endfacet
  facet normal 0 0 -1
    outer loop
      vertex 7.15534 0.30798 0
      vertex 3.3287 -1.08156 0
      vertex 3.5 0 0
    endloop
  endfacet
  facet normal 0 0 -1
    outer loop
      vertex 6.31311 -3.38207 0
      vertex 2.83156 -2.05725 0
      vertex 3.3287 -1.08156 0
    endloop
  endfacet
  facet normal 0 0 -1
    outer loop
      vertex 1.59701 -8.70785 0
      vertex 5.81235 -6.67785 0
      vertex 1.97946 -9.45581 0
    endloop
  endfacet
  facet normal 0 0 -1
    outer loop
      vertex 1.08156 -3.3287 0
      vertex 4.70207 -5.40225 0
      vertex 1.29195 -7.04447 0
    endloop
  endfacet
  facet normal -0 0 -1
    outer loop
      vertex 5.81235 -6.67785 0
      vertex 1.59701 -8.70785 0
      vertex 4.70207 -5.40225 0
    endloop
  endfacet
  facet normal 0 0 -1
    outer loop
      vertex 4.70207 -5.40225 0
      vertex 1.59701 -8.70785 0
      vertex 1.29195 -7.04447 0
    endloop
  endfacet
  facet normal 0 0 -1
    outer loop
      vertex 4.70207 -5.40225 0
      vertex 2.05725 -2.83156 0
      vertex 2.83156 -2.05725 0
    endloop
  endfacet
  facet normal 0 0 -1
    outer loop
      vertex 4.70207 -5.40225 0
      vertex 1.08156 -3.3287 0
      vertex 2.05725 -2.83156 0
    endloop
  endfacet
  facet normal 0 0 -1
    outer loop
      vertex 0 -3.5 0
      vertex 1.29195 -7.04447 0
      vertex 0.0179745 -7.15872 0
    endloop
  endfacet
  facet normal 0 0 -1
    outer loop
      vertex 0 -7.16033 0
      vertex 0.0179745 -7.15872 0
      vertex 0.0178566 -7.16193 0
    endloop
  endfacet
  facet normal 0 0 -1
    outer loop
      vertex -0.0179745 -7.15872 0
      vertex 0.0179745 -7.15872 0
      vertex 0 -7.16033 0
    endloop
  endfacet
  facet normal 0 0 -1
    outer loop
      vertex 1.29195 -7.04447 0
      vertex 0 -3.5 0
      vertex 1.08156 -3.3287 0
    endloop
  endfacet
  facet normal 0 0 -1
    outer loop
      vertex -0.0179745 -7.15872 0
      vertex 0 -7.16033 0
      vertex -0.0178566 -7.16193 0
    endloop
  endfacet
  facet normal 0 0 -1
    outer loop
      vertex 0.0179745 -7.15872 0
      vertex -0.0179745 -7.15872 0
      vertex 0 -3.5 0
    endloop
  endfacet
  facet normal 0 0 -1
    outer loop
      vertex -1.29195 -7.04447 0
      vertex 0 -3.5 0
      vertex -0.0179745 -7.15872 0
    endloop
  endfacet
  facet normal -0 0 -1
    outer loop
      vertex 0 -3.5 0
      vertex -1.29195 -7.04447 0
      vertex -1.08156 -3.3287 0
    endloop
  endfacet
  facet normal 0 0 -1
    outer loop
      vertex -4.70207 -5.40225 0
      vertex -1.29195 -7.04447 0
      vertex -1.59701 -8.70785 0
    endloop
  endfacet
  facet normal 0 0 -1
    outer loop
      vertex -5.81235 -6.67785 0
      vertex -1.59701 -8.70785 0
      vertex -1.97946 -9.45581 0
    endloop
  endfacet
  facet normal 0 0 -1
    outer loop
      vertex -1.29195 -7.04447 0
      vertex -4.70207 -5.40225 0
      vertex -1.08156 -3.3287 0
    endloop
  endfacet
  facet normal 0 0 -1
    outer loop
      vertex -6.15868 -7.44321 0
      vertex -1.97946 -9.45581 0
      vertex -2.58481 -10.1443 0
    endloop
  endfacet
  facet normal -0 0 -1
    outer loop
      vertex -1.08156 -3.3287 0
      vertex -4.70207 -5.40225 0
      vertex -2.05725 -2.83156 0
    endloop
  endfacet
  facet normal -0 0 -1
    outer loop
      vertex -2.05725 -2.83156 0
      vertex -4.70207 -5.40225 0
      vertex -2.83156 -2.05725 0
    endloop
  endfacet
  facet normal 0 0 -1
    outer loop
      vertex -6.31956 -8.34578 0
      vertex -2.58481 -10.1443 0
      vertex -3.35746 -10.7647 0
    endloop
  endfacet
  facet normal 0 0 -1
    outer loop
      vertex -5.58571 -4.47744 0
      vertex -2.83156 -2.05725 0
      vertex -4.70207 -5.40225 0
    endloop
  endfacet
  facet normal 0 0 -1
    outer loop
      vertex -5.60812 -4.44933 0
      vertex -2.83156 -2.05725 0
      vertex -5.58571 -4.47744 0
    endloop
  endfacet
  facet normal 0 0 -1
    outer loop
      vertex -6.32286 -9.33666 0
      vertex -3.35746 -10.7647 0
      vertex -4.27686 -11.3017 0
    endloop
  endfacet
  facet normal 0 0 -1
    outer loop
      vertex -6.31311 -3.38207 0
      vertex -2.83156 -2.05725 0
      vertex -5.60812 -4.44933 0
    endloop
  endfacet
  facet normal 0 0 -1
    outer loop
      vertex -3.5 0 0
      vertex -6.58037 2.82711 0
      vertex -4.22049 5.78629 0
    endloop
  endfacet
  facet normal -0 0 -1
    outer loop
      vertex -2.83156 -2.05725 0
      vertex -6.31311 -3.38207 0
      vertex -3.3287 -1.08156 0
    endloop
  endfacet
  facet normal 0 0 -1
    outer loop
      vertex -5.59817 -4.46439 0
      vertex -5.58571 -4.47744 0
      vertex -5.58829 -4.47935 0
    endloop
  endfacet
  facet normal 0 0 -1
    outer loop
      vertex -5.60812 -4.44933 0
      vertex -5.58571 -4.47744 0
      vertex -5.59817 -4.46439 0
    endloop
  endfacet
  facet normal 0 0 -1
    outer loop
      vertex -7.15534 0.30798 0
      vertex -3.3287 -1.08156 0
      vertex -6.31311 -3.38207 0
    endloop
  endfacet
  facet normal -0 0 -1
    outer loop
      vertex -4.22049 5.78629 0
      vertex -6.58037 2.82711 0
      vertex -5.21705 7.15259 0
    endloop
  endfacet
  facet normal 0 0 -1
    outer loop
      vertex -3.3287 -1.08156 0
      vertex -7.15534 0.30798 0
      vertex -3.5 0 0
    endloop
  endfacet
  facet normal 0 0 -1
    outer loop
      vertex -8.13416 3.49465 0
      vertex -5.21705 7.15259 0
      vertex -6.58037 2.82711 0
    endloop
  endfacet
  facet normal -0 0 -1
    outer loop
      vertex -5.21705 7.15259 0
      vertex -8.13416 3.49465 0
      vertex -5.88616 7.66054 0
    endloop
  endfacet
  facet normal 0 0 -1
    outer loop
      vertex -8.77826 4.03395 0
      vertex -5.88616 7.66054 0
      vertex -8.13416 3.49465 0
    endloop
  endfacet
  facet normal -0 0 -1
    outer loop
      vertex -5.88616 7.66054 0
      vertex -8.77826 4.03395 0
      vertex -6.7303 8.01823 0
    endloop
  endfacet
  facet normal 0 0 -1
    outer loop
      vertex -9.31483 4.77733 0
      vertex -6.7303 8.01823 0
      vertex -8.77826 4.03395 0
    endloop
  endfacet
  facet normal -0 0 -1
    outer loop
      vertex -6.7303 8.01823 0
      vertex -9.31483 4.77733 0
      vertex -7.6956 8.24193 0
    endloop
  endfacet
  facet normal 0 0 -1
    outer loop
      vertex -9.74772 5.66865 0
      vertex -7.6956 8.24193 0
      vertex -9.31483 4.77733 0
    endloop
  endfacet
  facet normal -0 0 -1
    outer loop
      vertex -7.6956 8.24193 0
      vertex -9.74772 5.66865 0
      vertex -8.75693 8.32679 0
    endloop
  endfacet
  facet normal 0 0 -1
    outer loop
      vertex -10.0666 6.68449 0
      vertex -8.75693 8.32679 0
      vertex -9.74772 5.66865 0
    endloop
  endfacet
  facet normal 0 0 -1
    outer loop
      vertex -8.75693 8.32679 0
      vertex -10.0666 6.68449 0
      vertex -9.89373 8.26475 0
    endloop
  endfacet
  facet normal 0 0 -1
    outer loop
      vertex -9.89373 8.26475 0
      vertex -10.0666 6.68449 0
      vertex -10.2591 7.80659 0
    endloop
  endfacet
  facet normal 0 0 -1
    outer loop
      vertex -3.5 0 0
      vertex -6.97524 1.61049 0
      vertex -6.58037 2.82711 0
    endloop
  endfacet
  facet normal 0 0 -1
    outer loop
      vertex -3.5 0 0
      vertex -6.98324 1.57544 0
      vertex -6.97524 1.61049 0
    endloop
  endfacet
  facet normal -0 0 -1
    outer loop
      vertex -6.97524 1.61049 0
      vertex -6.98081 1.59332 0
      vertex -6.97839 1.61109 0
    endloop
  endfacet
  facet normal 0 0 -1
    outer loop
      vertex -6.97524 1.61049 0
      vertex -6.98324 1.57544 0
      vertex -6.98081 1.59332 0
    endloop
  endfacet
  facet normal 0 0 -1
    outer loop
      vertex -3.5 0 0
      vertex -7.15534 0.30798 0
      vertex -6.98324 1.57544 0
    endloop
  endfacet
  facet normal 0 0 -1
    outer loop
      vertex -7.80379 -4.18067 0
      vertex -7.15534 0.30798 0
      vertex -6.31311 -3.38207 0
    endloop
  endfacet
  facet normal 0 0 -1
    outer loop
      vertex -8.8449 0.38071 0
      vertex -7.80379 -4.18067 0
      vertex -8.62703 -4.348 0
    endloop
  endfacet
  facet normal 0 0 -1
    outer loop
      vertex -7.80379 -4.18067 0
      vertex -8.8449 0.38071 0
      vertex -7.15534 0.30798 0
    endloop
  endfacet
  facet normal 0 0 -1
    outer loop
      vertex -9.65921 0.174283 0
      vertex -8.62703 -4.348 0
      vertex -9.54277 -4.30401 0
    endloop
  endfacet
  facet normal 0 0 -1
    outer loop
      vertex -8.62703 -4.348 0
      vertex -9.65921 0.174283 0
      vertex -8.8449 0.38071 0
    endloop
  endfacet
  facet normal 0 0 -1
    outer loop
      vertex -9.54277 -4.30401 0
      vertex -10.4652 -0.262675 0
      vertex -9.65921 0.174283 0
    endloop
  endfacet
  facet normal 0 0 -1
    outer loop
      vertex -10.5095 -4.08673 0
      vertex -10.4652 -0.262675 0
      vertex -9.54277 -4.30401 0
    endloop
  endfacet
  facet normal 0 0 -1
    outer loop
      vertex -10.5095 -4.08673 0
      vertex -11.2419 -0.8779 0
      vertex -10.4652 -0.262675 0
    endloop
  endfacet
  facet normal 0 0 -1
    outer loop
      vertex -11.5026 -3.70269 0
      vertex -11.2419 -0.8779 0
      vertex -10.5095 -4.08673 0
    endloop
  endfacet
  facet normal 0 0 -1
    outer loop
      vertex -11.5026 -3.70269 0
      vertex -11.97 -1.65477 0
      vertex -11.2419 -0.8779 0
    endloop
  endfacet
  facet normal 0 0 -1
    outer loop
      vertex -12.4999 -3.15355 0
      vertex -11.97 -1.65477 0
      vertex -11.5026 -3.70269 0
    endloop
  endfacet
  facet normal 0 0 -1
    outer loop
      vertex -11.97 -1.65477 0
      vertex -12.4999 -3.15355 0
      vertex -12.6303 -2.58224 0
    endloop
  endfacet
  facet normal 0 0 -1
    outer loop
      vertex -5.59817 -4.46439 0
      vertex -5.61056 -4.45143 0
      vertex -5.60812 -4.44933 0
    endloop
  endfacet
  facet normal 0 0 -1
    outer loop
      vertex -6.16942 -10.3903 0
      vertex -4.27686 -11.3017 0
      vertex -5.328 -11.739 0
    endloop
  endfacet
  facet normal 0 0 -1
    outer loop
      vertex -3.35746 -10.7647 0
      vertex -6.32286 -9.33666 0
      vertex -6.31956 -8.34578 0
    endloop
  endfacet
  facet normal 0 0 -1
    outer loop
      vertex -6.16942 -10.3903 0
      vertex -5.328 -11.739 0
      vertex -5.85597 -11.4848 0
    endloop
  endfacet
  facet normal 0 0 -1
    outer loop
      vertex -4.27686 -11.3017 0
      vertex -6.16942 -10.3903 0
      vertex -6.32286 -9.33666 0
    endloop
  endfacet
  facet normal 0 0 -1
    outer loop
      vertex -2.58481 -10.1443 0
      vertex -6.31956 -8.34578 0
      vertex -6.15868 -7.44321 0
    endloop
  endfacet
  facet normal 0 0 -1
    outer loop
      vertex -1.59701 -8.70785 0
      vertex -5.81235 -6.67785 0
      vertex -4.70207 -5.40225 0
    endloop
  endfacet
  facet normal 0 0 -1
    outer loop
      vertex -1.97946 -9.45581 0
      vertex -6.15868 -7.44321 0
      vertex -5.81235 -6.67785 0
    endloop
  endfacet
  facet normal 0 0 -1
    outer loop
      vertex 8.77826 4.03395 0
      vertex 5.88616 7.66054 0
      vertex 6.7303 8.01823 0
    endloop
  endfacet
  facet normal -0 0 -1
    outer loop
      vertex 6.58037 2.82711 0
      vertex 2.83156 2.05725 0
      vertex 4.22049 5.78629 0
    endloop
  endfacet
  facet normal 0 0 -1
    outer loop
      vertex 2.05725 2.83156 0
      vertex 4.22049 5.78629 0
      vertex 2.83156 2.05725 0
    endloop
  endfacet
  facet normal -0 0 -1
    outer loop
      vertex 4.22049 5.78629 0
      vertex 2.05725 2.83156 0
      vertex 3.12225 6.44198 0
    endloop
  endfacet
  facet normal 0 0 -1
    outer loop
      vertex 3.10675 6.45124 0
      vertex 3.08986 6.45758 0
      vertex 3.09136 6.46043 0
    endloop
  endfacet
  facet normal 0 0 -1
    outer loop
      vertex 1.08156 3.3287 0
      vertex 3.12225 6.44198 0
      vertex 2.05725 2.83156 0
    endloop
  endfacet
  facet normal 0 0 -1
    outer loop
      vertex 3.12225 6.44198 0
      vertex 3.08986 6.45758 0
      vertex 3.10675 6.45124 0
    endloop
  endfacet
  facet normal -0 0 -1
    outer loop
      vertex 3.12225 6.44198 0
      vertex 1.08156 3.3287 0
      vertex 3.08986 6.45758 0
    endloop
  endfacet
  facet normal -0 0 -1
    outer loop
      vertex 3.08986 6.45758 0
      vertex 1.08156 3.3287 0
      vertex 1.89247 6.90741 0
    endloop
  endfacet
  facet normal 0 0 -1
    outer loop
      vertex 0 3.5 0
      vertex 1.89247 6.90741 0
      vertex 1.08156 3.3287 0
    endloop
  endfacet
  facet normal 0 0 -1
    outer loop
      vertex -2.33934 8.53842 0
      vertex 1.89247 6.90741 0
      vertex -1.89247 6.90741 0
    endloop
  endfacet
  facet normal 0 -0 -1
    outer loop
      vertex -2.31929 9.37825 0
      vertex 1.89247 6.90741 0
      vertex -2.33934 8.53842 0
    endloop
  endfacet
  facet normal -0 0 -1
    outer loop
      vertex 1.89247 6.90741 0
      vertex 0 3.5 0
      vertex -1.89247 6.90741 0
    endloop
  endfacet
  facet normal 0 0 -1
    outer loop
      vertex 1.89247 6.90741 0
      vertex -2.31929 9.37825 0
      vertex 1.64568 11.1554 0
    endloop
  endfacet
  facet normal 0 -0 -1
    outer loop
      vertex -1.05029 12.0381 0
      vertex 1.05029 12.0381 0
      vertex -1.64568 11.1554 0
    endloop
  endfacet
  facet normal 0 0 -1
    outer loop
      vertex -1.89247 6.90741 0
      vertex 0 3.5 0
      vertex -1.08156 3.3287 0
    endloop
  endfacet
  facet normal -0 0 -1
    outer loop
      vertex 0.292999 12.8882 0
      vertex -1.05029 12.0381 0
      vertex -0.292999 12.8882 0
    endloop
  endfacet
  facet normal 0 0 -1
    outer loop
      vertex 1.05029 12.0381 0
      vertex -1.05029 12.0381 0
      vertex 0.292999 12.8882 0
    endloop
  endfacet
  facet normal 0 0 -1
    outer loop
      vertex -3.12225 6.44198 0
      vertex -1.08156 3.3287 0
      vertex -2.05725 2.83156 0
    endloop
  endfacet
  facet normal 0 0 -1
    outer loop
      vertex -4.22049 5.78629 0
      vertex -2.05725 2.83156 0
      vertex -2.83156 2.05725 0
    endloop
  endfacet
  facet normal 0 0 -1
    outer loop
      vertex -1.08156 3.3287 0
      vertex -3.08986 6.45758 0
      vertex -1.89247 6.90741 0
    endloop
  endfacet
  facet normal 0 0 -1
    outer loop
      vertex -1.08156 3.3287 0
      vertex -3.12225 6.44198 0
      vertex -3.08986 6.45758 0
    endloop
  endfacet
  facet normal -0 0 -1
    outer loop
      vertex -3.08986 6.45758 0
      vertex -3.10675 6.45124 0
      vertex -3.09136 6.46043 0
    endloop
  endfacet
  facet normal 0 0 -1
    outer loop
      vertex -3.08986 6.45758 0
      vertex -3.12225 6.44198 0
      vertex -3.10675 6.45124 0
    endloop
  endfacet
  facet normal 0 0 -1
    outer loop
      vertex -4.22049 5.78629 0
      vertex -2.83156 2.05725 0
      vertex -3.3287 1.08156 0
    endloop
  endfacet
  facet normal 0 0 -1
    outer loop
      vertex -4.22049 5.78629 0
      vertex -3.3287 1.08156 0
      vertex -3.5 0 0
    endloop
  endfacet
  facet normal 0 0 -1
    outer loop
      vertex -2.05725 2.83156 0
      vertex -4.22049 5.78629 0
      vertex -3.12225 6.44198 0
    endloop
  endfacet
  facet normal -0 0 -1
    outer loop
      vertex 3.12354 6.44493 0
      vertex 3.12225 6.44198 0
      vertex 3.10675 6.45124 0
    endloop
  endfacet
  facet normal 0 0 -1
    outer loop
      vertex 2.33934 8.53842 0
      vertex 2.07263 10.2612 0
      vertex 2.31929 9.37825 0
    endloop
  endfacet
  facet normal 0 0 -1
    outer loop
      vertex 1.89247 6.90741 0
      vertex 2.07263 10.2612 0
      vertex 2.33934 8.53842 0
    endloop
  endfacet
  facet normal -0 0 -1
    outer loop
      vertex 2.07263 10.2612 0
      vertex 1.89247 6.90741 0
      vertex 1.64568 11.1554 0
    endloop
  endfacet
  facet normal 0 0 -1
    outer loop
      vertex 1.64568 11.1554 0
      vertex -1.64568 11.1554 0
      vertex 1.05029 12.0381 0
    endloop
  endfacet
  facet normal 0 -0 -1
    outer loop
      vertex -2.07263 10.2612 0
      vertex 1.64568 11.1554 0
      vertex -2.31929 9.37825 0
    endloop
  endfacet
  facet normal 0 -0 -1
    outer loop
      vertex -1.64568 11.1554 0
      vertex 1.64568 11.1554 0
      vertex -2.07263 10.2612 0
    endloop
  endfacet
  facet normal 0 0 -1
    outer loop
      vertex -3.10675 6.45124 0
      vertex -3.12225 6.44198 0
      vertex -3.12354 6.44493 0
    endloop
  endfacet
  facet normal 0 0 -1
    outer loop
      vertex -6.98081 1.59332 0
      vertex -6.98324 1.57544 0
      vertex -6.98634 1.57627 0
    endloop
  endfacet
  facet normal 0 0 1
    outer loop
      vertex -2.31929 9.37825 5
      vertex 2.31929 9.37825 5
      vertex 2.07263 10.2612 5
    endloop
  endfacet
  facet normal 0 0 1
    outer loop
      vertex 2.31929 9.37825 5
      vertex -2.31929 9.37825 5
      vertex 2.33934 8.53842 5
    endloop
  endfacet
  facet normal 0 0 1
    outer loop
      vertex -2.07263 10.2612 5
      vertex 2.07263 10.2612 5
      vertex 1.64568 11.1554 5
    endloop
  endfacet
  facet normal 0 0 1
    outer loop
      vertex 3.12354 6.44493 5
      vertex 3.10675 6.45124 5
      vertex 3.12225 6.44198 5
    endloop
  endfacet
  facet normal 0 0 1
    outer loop
      vertex 6.98634 1.57627 5
      vertex 6.98081 1.59332 5
      vertex 6.98324 1.57544 5
    endloop
  endfacet
  facet normal 0 0 1
    outer loop
      vertex 11.97 -1.65477 5
      vertex 12.4999 -3.15355 5
      vertex 12.6303 -2.58224 5
    endloop
  endfacet
  facet normal 0 0 1
    outer loop
      vertex 11.97 -1.65477 5
      vertex 11.5026 -3.70269 5
      vertex 12.4999 -3.15355 5
    endloop
  endfacet
  facet normal 0 0 1
    outer loop
      vertex 11.2419 -0.8779 5
      vertex 11.5026 -3.70269 5
      vertex 11.97 -1.65477 5
    endloop
  endfacet
  facet normal 0 0 1
    outer loop
      vertex 11.2419 -0.8779 5
      vertex 10.5095 -4.08673 5
      vertex 11.5026 -3.70269 5
    endloop
  endfacet
  facet normal 0 0 1
    outer loop
      vertex 10.4652 -0.262675 5
      vertex 10.5095 -4.08673 5
      vertex 11.2419 -0.8779 5
    endloop
  endfacet
  facet normal 0 0 1
    outer loop
      vertex 9.54277 -4.30401 5
      vertex 10.4652 -0.262675 5
      vertex 9.65921 0.174283 5
    endloop
  endfacet
  facet normal 0 0 1
    outer loop
      vertex 10.4652 -0.262675 5
      vertex 9.54277 -4.30401 5
      vertex 10.5095 -4.08673 5
    endloop
  endfacet
  facet normal 0 0 1
    outer loop
      vertex 8.62703 -4.348 5
      vertex 9.65921 0.174283 5
      vertex 8.8449 0.38071 5
    endloop
  endfacet
  facet normal 0 0 1
    outer loop
      vertex 9.65921 0.174283 5
      vertex 8.62703 -4.348 5
      vertex 9.54277 -4.30401 5
    endloop
  endfacet
  facet normal 0 0 1
    outer loop
      vertex 8.8449 0.38071 5
      vertex 7.80379 -4.18067 5
      vertex 8.62703 -4.348 5
    endloop
  endfacet
  facet normal -0 0 1
    outer loop
      vertex 7.15534 0.30798 5
      vertex 7.80379 -4.18067 5
      vertex 8.8449 0.38071 5
    endloop
  endfacet
  facet normal 0 0 1
    outer loop
      vertex 6.97524 1.61049 5
      vertex 6.98324 1.57544 5
      vertex 6.98081 1.59332 5
    endloop
  endfacet
  facet normal -0 0 1
    outer loop
      vertex 6.97524 1.61049 5
      vertex 6.98081 1.59332 5
      vertex 6.97839 1.61109 5
    endloop
  endfacet
  facet normal 0 0 1
    outer loop
      vertex 6.98324 1.57544 5
      vertex 6.97524 1.61049 5
      vertex 3.3287 1.08156 5
    endloop
  endfacet
  facet normal 0 0 1
    outer loop
      vertex 3.3287 1.08156 5
      vertex 6.97524 1.61049 5
      vertex 6.58037 2.82711 5
    endloop
  endfacet
  facet normal 0 0 1
    outer loop
      vertex 6.98324 1.57544 5
      vertex 3.3287 1.08156 5
      vertex 3.5 0 5
    endloop
  endfacet
  facet normal 0 0 1
    outer loop
      vertex 7.15534 0.30798 5
      vertex 6.31311 -3.38207 5
      vertex 7.80379 -4.18067 5
    endloop
  endfacet
  facet normal 0 0 1
    outer loop
      vertex 6.98324 1.57544 5
      vertex 3.5 0 5
      vertex 7.15534 0.30798 5
    endloop
  endfacet
  facet normal 0 0 1
    outer loop
      vertex 2.05725 2.83156 5
      vertex 4.22049 5.78629 5
      vertex 3.12225 6.44198 5
    endloop
  endfacet
  facet normal 0 0 1
    outer loop
      vertex 3.08986 6.45758 5
      vertex 3.12225 6.44198 5
      vertex 3.10675 6.45124 5
    endloop
  endfacet
  facet normal -0 0 1
    outer loop
      vertex 3.08986 6.45758 5
      vertex 3.10675 6.45124 5
      vertex 3.09136 6.46043 5
    endloop
  endfacet
  facet normal 0 0 1
    outer loop
      vertex 1.08156 3.3287 5
      vertex 3.12225 6.44198 5
      vertex 3.08986 6.45758 5
    endloop
  endfacet
  facet normal 0 0 1
    outer loop
      vertex 6.58037 2.82711 5
      vertex 2.83156 2.05725 5
      vertex 3.3287 1.08156 5
    endloop
  endfacet
  facet normal 0 0 1
    outer loop
      vertex 4.22049 5.78629 5
      vertex 2.05725 2.83156 5
      vertex 2.83156 2.05725 5
    endloop
  endfacet
  facet normal 0 0 1
    outer loop
      vertex 1.08156 3.3287 5
      vertex 3.08986 6.45758 5
      vertex 1.89247 6.90741 5
    endloop
  endfacet
  facet normal 0 0 1
    outer loop
      vertex 2.33934 8.53842 5
      vertex -2.31929 9.37825 5
      vertex -2.33934 8.53842 5
    endloop
  endfacet
  facet normal 0 0 1
    outer loop
      vertex 3.12225 6.44198 5
      vertex 1.08156 3.3287 5
      vertex 2.05725 2.83156 5
    endloop
  endfacet
  facet normal 0 0 1
    outer loop
      vertex -1.64568 11.1554 5
      vertex 1.64568 11.1554 5
      vertex 1.05029 12.0381 5
    endloop
  endfacet
  facet normal 0 0 1
    outer loop
      vertex -1.05029 12.0381 5
      vertex 1.05029 12.0381 5
      vertex 0.292999 12.8882 5
    endloop
  endfacet
  facet normal 0 -0 1
    outer loop
      vertex 0 3.5 5
      vertex 1.89247 6.90741 5
      vertex -1.89247 6.90741 5
    endloop
  endfacet
  facet normal 0 0 1
    outer loop
      vertex -1.05029 12.0381 5
      vertex 0.292999 12.8882 5
      vertex -0.292999 12.8882 5
    endloop
  endfacet
  facet normal 0 0 1
    outer loop
      vertex 1.05029 12.0381 5
      vertex -1.05029 12.0381 5
      vertex -1.64568 11.1554 5
    endloop
  endfacet
  facet normal 0 0 1
    outer loop
      vertex 1.89247 6.90741 5
      vertex 0 3.5 5
      vertex 1.08156 3.3287 5
    endloop
  endfacet
  facet normal 0 0 1
    outer loop
      vertex 1.64568 11.1554 5
      vertex -1.64568 11.1554 5
      vertex -2.07263 10.2612 5
    endloop
  endfacet
  facet normal 0 0 1
    outer loop
      vertex 0 3.5 5
      vertex -1.89247 6.90741 5
      vertex -1.08156 3.3287 5
    endloop
  endfacet
  facet normal -0 0 1
    outer loop
      vertex -3.08986 6.45758 5
      vertex -1.08156 3.3287 5
      vertex -1.89247 6.90741 5
    endloop
  endfacet
  facet normal -0 0 1
    outer loop
      vertex -3.12225 6.44198 5
      vertex -1.08156 3.3287 5
      vertex -3.08986 6.45758 5
    endloop
  endfacet
  facet normal 0 0 1
    outer loop
      vertex -1.08156 3.3287 5
      vertex -3.12225 6.44198 5
      vertex -2.05725 2.83156 5
    endloop
  endfacet
  facet normal 0 0 1
    outer loop
      vertex -3.10675 6.45124 5
      vertex -3.08986 6.45758 5
      vertex -3.09136 6.46043 5
    endloop
  endfacet
  facet normal 0 0 1
    outer loop
      vertex -3.12225 6.44198 5
      vertex -3.08986 6.45758 5
      vertex -3.10675 6.45124 5
    endloop
  endfacet
  facet normal -0 0 1
    outer loop
      vertex -4.22049 5.78629 5
      vertex -2.05725 2.83156 5
      vertex -3.12225 6.44198 5
    endloop
  endfacet
  facet normal 0 0 1
    outer loop
      vertex -2.05725 2.83156 5
      vertex -4.22049 5.78629 5
      vertex -2.83156 2.05725 5
    endloop
  endfacet
  facet normal -0 0 1
    outer loop
      vertex -6.58037 2.82711 5
      vertex -2.83156 2.05725 5
      vertex -4.22049 5.78629 5
    endloop
  endfacet
  facet normal 0 0 1
    outer loop
      vertex -2.83156 2.05725 5
      vertex -6.58037 2.82711 5
      vertex -3.3287 1.08156 5
    endloop
  endfacet
  facet normal 0 0 1
    outer loop
      vertex 9.89373 8.26475 5
      vertex 10.0666 6.68449 5
      vertex 10.2591 7.80659 5
    endloop
  endfacet
  facet normal 0 0 1
    outer loop
      vertex 8.75693 8.32679 5
      vertex 10.0666 6.68449 5
      vertex 9.89373 8.26475 5
    endloop
  endfacet
  facet normal 0 0 1
    outer loop
      vertex 10.0666 6.68449 5
      vertex 8.75693 8.32679 5
      vertex 9.74772 5.66865 5
    endloop
  endfacet
  facet normal -0 0 1
    outer loop
      vertex 7.6956 8.24193 5
      vertex 9.74772 5.66865 5
      vertex 8.75693 8.32679 5
    endloop
  endfacet
  facet normal 0 0 1
    outer loop
      vertex 9.74772 5.66865 5
      vertex 7.6956 8.24193 5
      vertex 9.31483 4.77733 5
    endloop
  endfacet
  facet normal -0 0 1
    outer loop
      vertex 6.7303 8.01823 5
      vertex 9.31483 4.77733 5
      vertex 7.6956 8.24193 5
    endloop
  endfacet
  facet normal 0 0 1
    outer loop
      vertex 9.31483 4.77733 5
      vertex 6.7303 8.01823 5
      vertex 8.77826 4.03395 5
    endloop
  endfacet
  facet normal -0 0 1
    outer loop
      vertex 5.88616 7.66054 5
      vertex 8.77826 4.03395 5
      vertex 6.7303 8.01823 5
    endloop
  endfacet
  facet normal 0 0 1
    outer loop
      vertex 8.77826 4.03395 5
      vertex 5.88616 7.66054 5
      vertex 8.13416 3.49465 5
    endloop
  endfacet
  facet normal -0 0 1
    outer loop
      vertex 5.21705 7.15259 5
      vertex 8.13416 3.49465 5
      vertex 5.88616 7.66054 5
    endloop
  endfacet
  facet normal 0 0 1
    outer loop
      vertex 8.13416 3.49465 5
      vertex 5.21705 7.15259 5
      vertex 6.58037 2.82711 5
    endloop
  endfacet
  facet normal 0 0 1
    outer loop
      vertex 2.83156 2.05725 5
      vertex 6.58037 2.82711 5
      vertex 4.22049 5.78629 5
    endloop
  endfacet
  facet normal 0 0 1
    outer loop
      vertex 7.15534 0.30798 5
      vertex 3.3287 -1.08156 5
      vertex 6.31311 -3.38207 5
    endloop
  endfacet
  facet normal -0 0 1
    outer loop
      vertex 2.83156 -2.05725 5
      vertex 6.31311 -3.38207 5
      vertex 3.3287 -1.08156 5
    endloop
  endfacet
  facet normal 0 0 1
    outer loop
      vertex 6.31311 -3.38207 5
      vertex 2.83156 -2.05725 5
      vertex 5.60812 -4.44933 5
    endloop
  endfacet
  facet normal 0 0 1
    outer loop
      vertex 6.58037 2.82711 5
      vertex 5.21705 7.15259 5
      vertex 4.22049 5.78629 5
    endloop
  endfacet
  facet normal 0 0 1
    outer loop
      vertex 5.59817 -4.46439 5
      vertex 5.58571 -4.47744 5
      vertex 5.58829 -4.47935 5
    endloop
  endfacet
  facet normal 0 -0 1
    outer loop
      vertex 5.58571 -4.47744 5
      vertex 5.60812 -4.44933 5
      vertex 2.83156 -2.05725 5
    endloop
  endfacet
  facet normal 0 0 1
    outer loop
      vertex 3.3287 -1.08156 5
      vertex 7.15534 0.30798 5
      vertex 3.5 0 5
    endloop
  endfacet
  facet normal 0 0 1
    outer loop
      vertex 5.60812 -4.44933 5
      vertex 5.58571 -4.47744 5
      vertex 5.59817 -4.46439 5
    endloop
  endfacet
  facet normal 0 0 1
    outer loop
      vertex 5.58571 -4.47744 5
      vertex 2.83156 -2.05725 5
      vertex 4.70207 -5.40225 5
    endloop
  endfacet
  facet normal -0 0 1
    outer loop
      vertex 2.05725 -2.83156 5
      vertex 4.70207 -5.40225 5
      vertex 2.83156 -2.05725 5
    endloop
  endfacet
  facet normal 0 -0 1
    outer loop
      vertex 1.59701 -8.70785 5
      vertex 4.70207 -5.40225 5
      vertex 1.29195 -7.04447 5
    endloop
  endfacet
  facet normal 0 0 1
    outer loop
      vertex 4.70207 -5.40225 5
      vertex 3.35746 -10.7647 5
      vertex 4.27686 -11.3017 5
    endloop
  endfacet
  facet normal -0 0 1
    outer loop
      vertex 1.08156 -3.3287 5
      vertex 4.70207 -5.40225 5
      vertex 2.05725 -2.83156 5
    endloop
  endfacet
  facet normal 0 0 1
    outer loop
      vertex 4.70207 -5.40225 5
      vertex 2.58481 -10.1443 5
      vertex 3.35746 -10.7647 5
    endloop
  endfacet
  facet normal 0 -0 1
    outer loop
      vertex 1.97946 -9.45581 5
      vertex 4.70207 -5.40225 5
      vertex 1.59701 -8.70785 5
    endloop
  endfacet
  facet normal 0 0 1
    outer loop
      vertex 4.70207 -5.40225 5
      vertex 1.97946 -9.45581 5
      vertex 2.58481 -10.1443 5
    endloop
  endfacet
  facet normal 0 0 1
    outer loop
      vertex 4.70207 -5.40225 5
      vertex 1.08156 -3.3287 5
      vertex 1.29195 -7.04447 5
    endloop
  endfacet
  facet normal -0 0 1
    outer loop
      vertex 0 -3.5 5
      vertex 1.29195 -7.04447 5
      vertex 1.08156 -3.3287 5
    endloop
  endfacet
  facet normal 0 0 1
    outer loop
      vertex 1.29195 -7.04447 5
      vertex 0 -3.5 5
      vertex 0.0179745 -7.15872 5
    endloop
  endfacet
  facet normal 0 0 1
    outer loop
      vertex -0.0179745 -7.15872 5
      vertex 0.0179745 -7.15872 5
      vertex 0 -3.5 5
    endloop
  endfacet
  facet normal 0 0 1
    outer loop
      vertex 0.0179745 -7.15872 5
      vertex 0 -7.16033 5
      vertex 0.0178566 -7.16193 5
    endloop
  endfacet
  facet normal 0 0 1
    outer loop
      vertex 0.0179745 -7.15872 5
      vertex -0.0179745 -7.15872 5
      vertex 0 -7.16033 5
    endloop
  endfacet
  facet normal 0 0 1
    outer loop
      vertex 0 -7.16033 5
      vertex -0.0179745 -7.15872 5
      vertex -0.0178566 -7.16193 5
    endloop
  endfacet
  facet normal 0 0 1
    outer loop
      vertex -1.29195 -7.04447 5
      vertex 0 -3.5 5
      vertex -1.08156 -3.3287 5
    endloop
  endfacet
  facet normal 0 0 1
    outer loop
      vertex 0 -3.5 5
      vertex -1.29195 -7.04447 5
      vertex -0.0179745 -7.15872 5
    endloop
  endfacet
  facet normal -0 0 1
    outer loop
      vertex -4.70207 -5.40225 5
      vertex -1.29195 -7.04447 5
      vertex -1.08156 -3.3287 5
    endloop
  endfacet
  facet normal 0 0 1
    outer loop
      vertex -1.29195 -7.04447 5
      vertex -4.70207 -5.40225 5
      vertex -1.59701 -8.70785 5
    endloop
  endfacet
  facet normal 0 0 1
    outer loop
      vertex -4.70207 -5.40225 5
      vertex -1.08156 -3.3287 5
      vertex -2.05725 -2.83156 5
    endloop
  endfacet
  facet normal -0 0 1
    outer loop
      vertex -5.81235 -6.67785 5
      vertex -1.59701 -8.70785 5
      vertex -4.70207 -5.40225 5
    endloop
  endfacet
  facet normal 0 0 1
    outer loop
      vertex -4.70207 -5.40225 5
      vertex -2.05725 -2.83156 5
      vertex -2.83156 -2.05725 5
    endloop
  endfacet
  facet normal 0 0 1
    outer loop
      vertex -6.31311 -3.38207 5
      vertex -2.83156 -2.05725 5
      vertex -3.3287 -1.08156 5
    endloop
  endfacet
  facet normal 0 0 1
    outer loop
      vertex -1.59701 -8.70785 5
      vertex -5.81235 -6.67785 5
      vertex -1.97946 -9.45581 5
    endloop
  endfacet
  facet normal 0 0 1
    outer loop
      vertex -7.15534 0.30798 5
      vertex -3.3287 -1.08156 5
      vertex -3.5 0 5
    endloop
  endfacet
  facet normal -0 0 1
    outer loop
      vertex -6.97524 1.61049 5
      vertex -3.3287 1.08156 5
      vertex -6.58037 2.82711 5
    endloop
  endfacet
  facet normal -0 0 1
    outer loop
      vertex -6.15868 -7.44321 5
      vertex -1.97946 -9.45581 5
      vertex -5.81235 -6.67785 5
    endloop
  endfacet
  facet normal 0 0 1
    outer loop
      vertex -1.97946 -9.45581 5
      vertex -6.15868 -7.44321 5
      vertex -2.58481 -10.1443 5
    endloop
  endfacet
  facet normal 0 0 1
    outer loop
      vertex -6.58037 2.82711 5
      vertex -4.22049 5.78629 5
      vertex -5.21705 7.15259 5
    endloop
  endfacet
  facet normal -0 0 1
    outer loop
      vertex -6.98324 1.57544 5
      vertex -3.3287 1.08156 5
      vertex -6.97524 1.61049 5
    endloop
  endfacet
  facet normal 0 0 1
    outer loop
      vertex -2.83156 -2.05725 5
      vertex -5.58571 -4.47744 5
      vertex -4.70207 -5.40225 5
    endloop
  endfacet
  facet normal 0 0 1
    outer loop
      vertex -2.83156 -2.05725 5
      vertex -5.60812 -4.44933 5
      vertex -5.58571 -4.47744 5
    endloop
  endfacet
  facet normal 0 0 1
    outer loop
      vertex -5.58571 -4.47744 5
      vertex -5.59817 -4.46439 5
      vertex -5.58829 -4.47935 5
    endloop
  endfacet
  facet normal 0 0 1
    outer loop
      vertex -8.13416 3.49465 5
      vertex -5.21705 7.15259 5
      vertex -5.88616 7.66054 5
    endloop
  endfacet
  facet normal 0 0 1
    outer loop
      vertex -5.58571 -4.47744 5
      vertex -5.60812 -4.44933 5
      vertex -5.59817 -4.46439 5
    endloop
  endfacet
  facet normal 0 0 1
    outer loop
      vertex -2.83156 -2.05725 5
      vertex -6.31311 -3.38207 5
      vertex -5.60812 -4.44933 5
    endloop
  endfacet
  facet normal 0 0 1
    outer loop
      vertex -8.77826 4.03395 5
      vertex -5.88616 7.66054 5
      vertex -6.7303 8.01823 5
    endloop
  endfacet
  facet normal 0 0 1
    outer loop
      vertex -9.31483 4.77733 5
      vertex -6.7303 8.01823 5
      vertex -7.6956 8.24193 5
    endloop
  endfacet
  facet normal 0 0 1
    outer loop
      vertex -5.21705 7.15259 5
      vertex -8.13416 3.49465 5
      vertex -6.58037 2.82711 5
    endloop
  endfacet
  facet normal 0 0 1
    outer loop
      vertex -9.74772 5.66865 5
      vertex -7.6956 8.24193 5
      vertex -8.75693 8.32679 5
    endloop
  endfacet
  facet normal 0 0 1
    outer loop
      vertex -5.88616 7.66054 5
      vertex -8.77826 4.03395 5
      vertex -8.13416 3.49465 5
    endloop
  endfacet
  facet normal 0 0 1
    outer loop
      vertex -6.7303 8.01823 5
      vertex -9.31483 4.77733 5
      vertex -8.77826 4.03395 5
    endloop
  endfacet
  facet normal 0 0 1
    outer loop
      vertex -7.6956 8.24193 5
      vertex -9.74772 5.66865 5
      vertex -9.31483 4.77733 5
    endloop
  endfacet
  facet normal 0 0 1
    outer loop
      vertex -10.0666 6.68449 5
      vertex -8.75693 8.32679 5
      vertex -9.89373 8.26475 5
    endloop
  endfacet
  facet normal 0 0 1
    outer loop
      vertex -8.75693 8.32679 5
      vertex -10.0666 6.68449 5
      vertex -9.74772 5.66865 5
    endloop
  endfacet
  facet normal 0 -0 1
    outer loop
      vertex -10.0666 6.68449 5
      vertex -9.89373 8.26475 5
      vertex -10.2591 7.80659 5
    endloop
  endfacet
  facet normal 0 0 1
    outer loop
      vertex 5.61056 -4.45143 5
      vertex 5.60812 -4.44933 5
      vertex 5.59817 -4.46439 5
    endloop
  endfacet
  facet normal 0 0 1
    outer loop
      vertex 4.27686 -11.3017 5
      vertex 6.32286 -9.33666 5
      vertex 6.31956 -8.34578 5
    endloop
  endfacet
  facet normal 0 0 1
    outer loop
      vertex 4.27686 -11.3017 5
      vertex 6.31956 -8.34578 5
      vertex 6.15868 -7.44321 5
    endloop
  endfacet
  facet normal 0 0 1
    outer loop
      vertex 6.32286 -9.33666 5
      vertex 4.27686 -11.3017 5
      vertex 6.16942 -10.3903 5
    endloop
  endfacet
  facet normal 0 0 1
    outer loop
      vertex 4.27686 -11.3017 5
      vertex 6.15868 -7.44321 5
      vertex 5.81235 -6.67785 5
    endloop
  endfacet
  facet normal 0 0 1
    outer loop
      vertex 6.16942 -10.3903 5
      vertex 4.27686 -11.3017 5
      vertex 5.85597 -11.4848 5
    endloop
  endfacet
  facet normal 0 0 1
    outer loop
      vertex 4.27686 -11.3017 5
      vertex 5.81235 -6.67785 5
      vertex 4.70207 -5.40225 5
    endloop
  endfacet
  facet normal 0 0 1
    outer loop
      vertex 5.85597 -11.4848 5
      vertex 4.27686 -11.3017 5
      vertex 5.328 -11.739 5
    endloop
  endfacet
  facet normal 0 0 1
    outer loop
      vertex -6.98081 1.59332 5
      vertex -6.98634 1.57627 5
      vertex -6.98324 1.57544 5
    endloop
  endfacet
  facet normal -0 0 1
    outer loop
      vertex -6.31956 -8.34578 5
      vertex -2.58481 -10.1443 5
      vertex -6.15868 -7.44321 5
    endloop
  endfacet
  facet normal 0 0 1
    outer loop
      vertex -2.58481 -10.1443 5
      vertex -6.31956 -8.34578 5
      vertex -3.35746 -10.7647 5
    endloop
  endfacet
  facet normal -0 -0 1
    outer loop
      vertex -6.16942 -10.3903 5
      vertex -4.27686 -11.3017 5
      vertex -6.32286 -9.33666 5
    endloop
  endfacet
  facet normal -0 0 1
    outer loop
      vertex -6.32286 -9.33666 5
      vertex -3.35746 -10.7647 5
      vertex -6.31956 -8.34578 5
    endloop
  endfacet
  facet normal 0 0 1
    outer loop
      vertex -5.328 -11.739 5
      vertex -6.16942 -10.3903 5
      vertex -5.85597 -11.4848 5
    endloop
  endfacet
  facet normal 0 0 1
    outer loop
      vertex -3.35746 -10.7647 5
      vertex -6.32286 -9.33666 5
      vertex -4.27686 -11.3017 5
    endloop
  endfacet
  facet normal 0 0 1
    outer loop
      vertex -4.27686 -11.3017 5
      vertex -6.16942 -10.3903 5
      vertex -5.328 -11.739 5
    endloop
  endfacet
  facet normal 0 0 1
    outer loop
      vertex -5.59817 -4.46439 5
      vertex -5.60812 -4.44933 5
      vertex -5.61056 -4.45143 5
    endloop
  endfacet
  facet normal 0 0 1
    outer loop
      vertex -3.3287 1.08156 5
      vertex -6.98324 1.57544 5
      vertex -3.5 0 5
    endloop
  endfacet
  facet normal 0 0 1
    outer loop
      vertex -6.98081 1.59332 5
      vertex -6.97524 1.61049 5
      vertex -6.97839 1.61109 5
    endloop
  endfacet
  facet normal 0 0 1
    outer loop
      vertex -6.98324 1.57544 5
      vertex -6.97524 1.61049 5
      vertex -6.98081 1.59332 5
    endloop
  endfacet
  facet normal -0 0 1
    outer loop
      vertex -7.15534 0.30798 5
      vertex -3.5 0 5
      vertex -6.98324 1.57544 5
    endloop
  endfacet
  facet normal 0 0 1
    outer loop
      vertex -3.3287 -1.08156 5
      vertex -7.15534 0.30798 5
      vertex -6.31311 -3.38207 5
    endloop
  endfacet
  facet normal 0 0 1
    outer loop
      vertex -7.15534 0.30798 5
      vertex -7.80379 -4.18067 5
      vertex -6.31311 -3.38207 5
    endloop
  endfacet
  facet normal 0 0 1
    outer loop
      vertex -8.8449 0.38071 5
      vertex -7.80379 -4.18067 5
      vertex -7.15534 0.30798 5
    endloop
  endfacet
  facet normal 0 0 1
    outer loop
      vertex -7.80379 -4.18067 5
      vertex -8.8449 0.38071 5
      vertex -8.62703 -4.348 5
    endloop
  endfacet
  facet normal -0 0 1
    outer loop
      vertex -9.65921 0.174283 5
      vertex -8.62703 -4.348 5
      vertex -8.8449 0.38071 5
    endloop
  endfacet
  facet normal 0 0 1
    outer loop
      vertex -8.62703 -4.348 5
      vertex -9.65921 0.174283 5
      vertex -9.54277 -4.30401 5
    endloop
  endfacet
  facet normal -0 0 1
    outer loop
      vertex -10.4652 -0.262675 5
      vertex -9.54277 -4.30401 5
      vertex -9.65921 0.174283 5
    endloop
  endfacet
  facet normal 0 0 1
    outer loop
      vertex -10.4652 -0.262675 5
      vertex -10.5095 -4.08673 5
      vertex -9.54277 -4.30401 5
    endloop
  endfacet
  facet normal -0 0 1
    outer loop
      vertex -11.2419 -0.8779 5
      vertex -10.5095 -4.08673 5
      vertex -10.4652 -0.262675 5
    endloop
  endfacet
  facet normal 0 0 1
    outer loop
      vertex -11.2419 -0.8779 5
      vertex -11.5026 -3.70269 5
      vertex -10.5095 -4.08673 5
    endloop
  endfacet
  facet normal -0 0 1
    outer loop
      vertex -11.97 -1.65477 5
      vertex -11.5026 -3.70269 5
      vertex -11.2419 -0.8779 5
    endloop
  endfacet
  facet normal 0 0 1
    outer loop
      vertex -11.97 -1.65477 5
      vertex -12.4999 -3.15355 5
      vertex -11.5026 -3.70269 5
    endloop
  endfacet
  facet normal 0 -0 1
    outer loop
      vertex -12.4999 -3.15355 5
      vertex -11.97 -1.65477 5
      vertex -12.6303 -2.58224 5
    endloop
  endfacet
  facet normal 0 0 1
    outer loop
      vertex -3.10675 6.45124 5
      vertex -3.12354 6.44493 5
      vertex -3.12225 6.44198 5
    endloop
  endfacet
  facet normal 0 0 1
    outer loop
      vertex 2.07263 10.2612 5
      vertex -2.07263 10.2612 5
      vertex -2.31929 9.37825 5
    endloop
  endfacet
  facet normal 0 0 1
    outer loop
      vertex 2.33934 8.53842 5
      vertex -2.33934 8.53842 5
      vertex 1.89247 6.90741 5
    endloop
  endfacet
  facet normal 0 0 1
    outer loop
      vertex 1.89247 6.90741 5
      vertex -2.33934 8.53842 5
      vertex -1.89247 6.90741 5
    endloop
  endfacet
  facet normal 0.351795 0.936077 -0
    outer loop
      vertex 3.12354 6.44493 0
      vertex 3.10675 6.45124 5
      vertex 3.12354 6.44493 5
    endloop
  endfacet
  facet normal 0.351795 0.936077 0
    outer loop
      vertex 3.10675 6.45124 5
      vertex 3.12354 6.44493 0
      vertex 3.10675 6.45124 0
    endloop
  endfacet
  facet normal 0.351678 0.936121 -0
    outer loop
      vertex 3.08986 6.45758 0
      vertex 1.89247 6.90741 5
      vertex 3.08986 6.45758 5
    endloop
  endfacet
  facet normal 0.351678 0.936121 0
    outer loop
      vertex 1.89247 6.90741 5
      vertex 3.08986 6.45758 0
      vertex 1.89247 6.90741 0
    endloop
  endfacet
  facet normal 0.964456 -0.264245 0
    outer loop
      vertex 1.89247 6.90741 5
      vertex 2.33934 8.53842 0
      vertex 2.33934 8.53842 5
    endloop
  endfacet
  facet normal 0.964456 -0.264245 0
    outer loop
      vertex 2.33934 8.53842 0
      vertex 1.89247 6.90741 5
      vertex 1.89247 6.90741 0
    endloop
  endfacet
  facet normal 0.999715 0.0238671 0
    outer loop
      vertex 2.33934 8.53842 5
      vertex 2.31929 9.37825 0
      vertex 2.31929 9.37825 5
    endloop
  endfacet
  facet normal 0.999715 0.0238671 0
    outer loop
      vertex 2.31929 9.37825 0
      vertex 2.33934 8.53842 5
      vertex 2.33934 8.53842 0
    endloop
  endfacet
  facet normal 0.963124 0.269057 0
    outer loop
      vertex 2.31929 9.37825 5
      vertex 2.07263 10.2612 0
      vertex 2.07263 10.2612 5
    endloop
  endfacet
  facet normal 0.963124 0.269057 0
    outer loop
      vertex 2.07263 10.2612 0
      vertex 2.31929 9.37825 5
      vertex 2.31929 9.37825 0
    endloop
  endfacet
  facet normal 0.902413 0.430872 0
    outer loop
      vertex 2.07263 10.2612 5
      vertex 1.64568 11.1554 0
      vertex 1.64568 11.1554 5
    endloop
  endfacet
  facet normal 0.902413 0.430872 0
    outer loop
      vertex 1.64568 11.1554 0
      vertex 2.07263 10.2612 5
      vertex 2.07263 10.2612 0
    endloop
  endfacet
  facet normal 0.829037 0.559194 0
    outer loop
      vertex 1.64568 11.1554 5
      vertex 1.05029 12.0381 0
      vertex 1.05029 12.0381 5
    endloop
  endfacet
  facet normal 0.829037 0.559194 0
    outer loop
      vertex 1.05029 12.0381 0
      vertex 1.64568 11.1554 5
      vertex 1.64568 11.1554 0
    endloop
  endfacet
  facet normal 0.746691 0.665171 0
    outer loop
      vertex 1.05029 12.0381 5
      vertex 0.292999 12.8882 0
      vertex 0.292999 12.8882 5
    endloop
  endfacet
  facet normal 0.746691 0.665171 0
    outer loop
      vertex 0.292999 12.8882 0
      vertex 1.05029 12.0381 5
      vertex 1.05029 12.0381 0
    endloop
  endfacet
  facet normal 0 1 -0
    outer loop
      vertex 0.292999 12.8882 0
      vertex -0.292999 12.8882 5
      vertex 0.292999 12.8882 5
    endloop
  endfacet
  facet normal 0 1 0
    outer loop
      vertex -0.292999 12.8882 5
      vertex 0.292999 12.8882 0
      vertex -0.292999 12.8882 0
    endloop
  endfacet
  facet normal -0.746691 0.665171 0
    outer loop
      vertex -1.05029 12.0381 0
      vertex -0.292999 12.8882 5
      vertex -0.292999 12.8882 0
    endloop
  endfacet
  facet normal -0.746691 0.665171 0
    outer loop
      vertex -0.292999 12.8882 5
      vertex -1.05029 12.0381 0
      vertex -1.05029 12.0381 5
    endloop
  endfacet
  facet normal -0.829037 0.559194 0
    outer loop
      vertex -1.64568 11.1554 0
      vertex -1.05029 12.0381 5
      vertex -1.05029 12.0381 0
    endloop
  endfacet
  facet normal -0.829037 0.559194 0
    outer loop
      vertex -1.05029 12.0381 5
      vertex -1.64568 11.1554 0
      vertex -1.64568 11.1554 5
    endloop
  endfacet
  facet normal -0.902413 0.430872 0
    outer loop
      vertex -2.07263 10.2612 0
      vertex -1.64568 11.1554 5
      vertex -1.64568 11.1554 0
    endloop
  endfacet
  facet normal -0.902413 0.430872 0
    outer loop
      vertex -1.64568 11.1554 5
      vertex -2.07263 10.2612 0
      vertex -2.07263 10.2612 5
    endloop
  endfacet
  facet normal -0.963124 0.269057 0
    outer loop
      vertex -2.31929 9.37825 0
      vertex -2.07263 10.2612 5
      vertex -2.07263 10.2612 0
    endloop
  endfacet
  facet normal -0.963124 0.269057 0
    outer loop
      vertex -2.07263 10.2612 5
      vertex -2.31929 9.37825 0
      vertex -2.31929 9.37825 5
    endloop
  endfacet
  facet normal -0.999715 0.0238671 0
    outer loop
      vertex -2.33934 8.53842 0
      vertex -2.31929 9.37825 5
      vertex -2.31929 9.37825 0
    endloop
  endfacet
  facet normal -0.999715 0.0238671 0
    outer loop
      vertex -2.31929 9.37825 5
      vertex -2.33934 8.53842 0
      vertex -2.33934 8.53842 5
    endloop
  endfacet
  facet normal -0.964456 -0.264245 0
    outer loop
      vertex -1.89247 6.90741 0
      vertex -2.33934 8.53842 5
      vertex -2.33934 8.53842 0
    endloop
  endfacet
  facet normal -0.964456 -0.264245 0
    outer loop
      vertex -2.33934 8.53842 5
      vertex -1.89247 6.90741 0
      vertex -1.89247 6.90741 5
    endloop
  endfacet
  facet normal -0.351678 0.936121 0
    outer loop
      vertex -1.89247 6.90741 0
      vertex -3.08986 6.45758 5
      vertex -1.89247 6.90741 5
    endloop
  endfacet
  facet normal -0.351678 0.936121 0
    outer loop
      vertex -3.08986 6.45758 5
      vertex -1.89247 6.90741 0
      vertex -3.08986 6.45758 0
    endloop
  endfacet
  facet normal -0.351795 0.936077 0
    outer loop
      vertex -3.10675 6.45124 0
      vertex -3.12354 6.44493 5
      vertex -3.10675 6.45124 5
    endloop
  endfacet
  facet normal -0.351795 0.936077 0
    outer loop
      vertex -3.12354 6.44493 5
      vertex -3.10675 6.45124 0
      vertex -3.12354 6.44493 0
    endloop
  endfacet
  facet normal -0.916229 -0.400656 0
    outer loop
      vertex -3.12225 6.44198 0
      vertex -3.12354 6.44493 5
      vertex -3.12354 6.44493 0
    endloop
  endfacet
  facet normal -0.916229 -0.400656 0
    outer loop
      vertex -3.12354 6.44493 5
      vertex -3.12225 6.44198 0
      vertex -3.12225 6.44198 5
    endloop
  endfacet
  facet normal 0.916229 -0.400656 0
    outer loop
      vertex 3.12225 6.44198 5
      vertex 3.12354 6.44493 0
      vertex 3.12354 6.44493 5
    endloop
  endfacet
  facet normal 0.916229 -0.400656 0
    outer loop
      vertex 3.12354 6.44493 0
      vertex 3.12225 6.44198 5
      vertex 3.12225 6.44198 0
    endloop
  endfacet
  facet normal -0.51269 0.858574 0
    outer loop
      vertex -3.09136 6.46043 0
      vertex -3.10675 6.45124 5
      vertex -3.09136 6.46043 5
    endloop
  endfacet
  facet normal -0.51269 0.858574 0
    outer loop
      vertex -3.10675 6.45124 5
      vertex -3.09136 6.46043 0
      vertex -3.10675 6.45124 0
    endloop
  endfacet
  facet normal -0.512624 0.858613 0
    outer loop
      vertex -3.12225 6.44198 0
      vertex -4.22049 5.78629 5
      vertex -3.12225 6.44198 5
    endloop
  endfacet
  facet normal -0.512624 0.858613 0
    outer loop
      vertex -4.22049 5.78629 5
      vertex -3.12225 6.44198 0
      vertex -4.22049 5.78629 0
    endloop
  endfacet
  facet normal 0.807923 0.589288 0
    outer loop
      vertex -4.22049 5.78629 5
      vertex -5.21705 7.15259 0
      vertex -5.21705 7.15259 5
    endloop
  endfacet
  facet normal 0.807923 0.589288 0
    outer loop
      vertex -5.21705 7.15259 0
      vertex -4.22049 5.78629 5
      vertex -4.22049 5.78629 0
    endloop
  endfacet
  facet normal 0.60465 0.796491 -0
    outer loop
      vertex -5.21705 7.15259 0
      vertex -5.88616 7.66054 5
      vertex -5.21705 7.15259 5
    endloop
  endfacet
  facet normal 0.60465 0.796491 0
    outer loop
      vertex -5.88616 7.66054 5
      vertex -5.21705 7.15259 0
      vertex -5.88616 7.66054 0
    endloop
  endfacet
  facet normal 0.390152 0.92075 -0
    outer loop
      vertex -5.88616 7.66054 0
      vertex -6.7303 8.01823 5
      vertex -5.88616 7.66054 5
    endloop
  endfacet
  facet normal 0.390152 0.92075 0
    outer loop
      vertex -6.7303 8.01823 5
      vertex -5.88616 7.66054 0
      vertex -6.7303 8.01823 0
    endloop
  endfacet
  facet normal 0.225759 0.974183 -0
    outer loop
      vertex -6.7303 8.01823 0
      vertex -7.6956 8.24193 5
      vertex -6.7303 8.01823 5
    endloop
  endfacet
  facet normal 0.225759 0.974183 0
    outer loop
      vertex -7.6956 8.24193 5
      vertex -6.7303 8.01823 0
      vertex -7.6956 8.24193 0
    endloop
  endfacet
  facet normal 0.0797019 0.996819 -0
    outer loop
      vertex -7.6956 8.24193 0
      vertex -8.75693 8.32679 5
      vertex -7.6956 8.24193 5
    endloop
  endfacet
  facet normal 0.0797019 0.996819 0
    outer loop
      vertex -8.75693 8.32679 5
      vertex -7.6956 8.24193 0
      vertex -8.75693 8.32679 0
    endloop
  endfacet
  facet normal -0.0544932 0.998514 0
    outer loop
      vertex -8.75693 8.32679 0
      vertex -9.89373 8.26475 5
      vertex -8.75693 8.32679 5
    endloop
  endfacet
  facet normal -0.0544932 0.998514 0
    outer loop
      vertex -9.89373 8.26475 5
      vertex -8.75693 8.32679 0
      vertex -9.89373 8.26475 0
    endloop
  endfacet
  facet normal -0.781832 0.623489 0
    outer loop
      vertex -10.2591 7.80659 0
      vertex -9.89373 8.26475 5
      vertex -9.89373 8.26475 0
    endloop
  endfacet
  facet normal -0.781832 0.623489 0
    outer loop
      vertex -9.89373 8.26475 5
      vertex -10.2591 7.80659 0
      vertex -10.2591 7.80659 5
    endloop
  endfacet
  facet normal -0.985602 -0.169083 0
    outer loop
      vertex -10.0666 6.68449 0
      vertex -10.2591 7.80659 5
      vertex -10.2591 7.80659 0
    endloop
  endfacet
  facet normal -0.985602 -0.169083 0
    outer loop
      vertex -10.2591 7.80659 5
      vertex -10.0666 6.68449 0
      vertex -10.0666 6.68449 5
    endloop
  endfacet
  facet normal -0.954097 -0.299498 0
    outer loop
      vertex -9.74772 5.66865 0
      vertex -10.0666 6.68449 5
      vertex -10.0666 6.68449 0
    endloop
  endfacet
  facet normal -0.954097 -0.299498 0
    outer loop
      vertex -10.0666 6.68449 5
      vertex -9.74772 5.66865 0
      vertex -9.74772 5.66865 5
    endloop
  endfacet
  facet normal -0.899523 -0.436874 0
    outer loop
      vertex -9.31483 4.77733 0
      vertex -9.74772 5.66865 5
      vertex -9.74772 5.66865 0
    endloop
  endfacet
  facet normal -0.899523 -0.436874 0
    outer loop
      vertex -9.74772 5.66865 5
      vertex -9.31483 4.77733 0
      vertex -9.31483 4.77733 5
    endloop
  endfacet
  facet normal -0.810843 -0.585264 0
    outer loop
      vertex -8.77826 4.03395 0
      vertex -9.31483 4.77733 5
      vertex -9.31483 4.77733 0
    endloop
  endfacet
  facet normal -0.810843 -0.585264 0
    outer loop
      vertex -9.31483 4.77733 5
      vertex -8.77826 4.03395 0
      vertex -8.77826 4.03395 5
    endloop
  endfacet
  facet normal -0.641974 -0.766726 0
    outer loop
      vertex -8.77826 4.03395 0
      vertex -8.13416 3.49465 5
      vertex -8.77826 4.03395 5
    endloop
  endfacet
  facet normal -0.641974 -0.766726 -0
    outer loop
      vertex -8.13416 3.49465 5
      vertex -8.77826 4.03395 0
      vertex -8.13416 3.49465 0
    endloop
  endfacet
  facet normal -0.394733 -0.918796 0
    outer loop
      vertex -8.13416 3.49465 0
      vertex -6.58037 2.82711 5
      vertex -8.13416 3.49465 5
    endloop
  endfacet
  facet normal -0.394733 -0.918796 -0
    outer loop
      vertex -6.58037 2.82711 5
      vertex -8.13416 3.49465 0
      vertex -6.58037 2.82711 0
    endloop
  endfacet
  facet normal -0.951156 0.30871 0
    outer loop
      vertex -6.97524 1.61049 0
      vertex -6.58037 2.82711 5
      vertex -6.58037 2.82711 0
    endloop
  endfacet
  facet normal -0.951156 0.30871 0
    outer loop
      vertex -6.58037 2.82711 5
      vertex -6.97524 1.61049 0
      vertex -6.97524 1.61049 5
    endloop
  endfacet
  facet normal -0.951218 0.308518 0
    outer loop
      vertex -6.98634 1.57627 0
      vertex -6.98081 1.59332 5
      vertex -6.98081 1.59332 0
    endloop
  endfacet
  facet normal -0.951218 0.308518 0
    outer loop
      vertex -6.98081 1.59332 5
      vertex -6.98634 1.57627 0
      vertex -6.98634 1.57627 5
    endloop
  endfacet
  facet normal -0.258632 -0.965976 0
    outer loop
      vertex -6.98634 1.57627 0
      vertex -6.98324 1.57544 5
      vertex -6.98634 1.57627 5
    endloop
  endfacet
  facet normal -0.258632 -0.965976 -0
    outer loop
      vertex -6.98324 1.57544 5
      vertex -6.98634 1.57627 0
      vertex -6.98324 1.57544 0
    endloop
  endfacet
  facet normal 0.884918 0.465746 0
    outer loop
      vertex -3.08986 6.45758 5
      vertex -3.09136 6.46043 0
      vertex -3.09136 6.46043 5
    endloop
  endfacet
  facet normal 0.884918 0.465746 0
    outer loop
      vertex -3.09136 6.46043 0
      vertex -3.08986 6.45758 5
      vertex -3.08986 6.45758 0
    endloop
  endfacet
  facet normal -0.990854 0.134939 0
    outer loop
      vertex -6.98081 1.59332 0
      vertex -6.97839 1.61109 5
      vertex -6.97839 1.61109 0
    endloop
  endfacet
  facet normal -0.990854 0.134939 0
    outer loop
      vertex -6.97839 1.61109 5
      vertex -6.98081 1.59332 0
      vertex -6.98081 1.59332 5
    endloop
  endfacet
  facet normal -0.990907 0.134549 0
    outer loop
      vertex -7.15534 0.30798 0
      vertex -6.98324 1.57544 5
      vertex -6.98324 1.57544 0
    endloop
  endfacet
  facet normal -0.990907 0.134549 0
    outer loop
      vertex -6.98324 1.57544 5
      vertex -7.15534 0.30798 0
      vertex -7.15534 0.30798 5
    endloop
  endfacet
  facet normal 0.0430069 0.999075 -0
    outer loop
      vertex -7.15534 0.30798 0
      vertex -8.8449 0.38071 5
      vertex -7.15534 0.30798 5
    endloop
  endfacet
  facet normal 0.0430069 0.999075 0
    outer loop
      vertex -8.8449 0.38071 5
      vertex -7.15534 0.30798 0
      vertex -8.8449 0.38071 0
    endloop
  endfacet
  facet normal -0.245727 0.969339 0
    outer loop
      vertex -8.8449 0.38071 0
      vertex -9.65921 0.174283 5
      vertex -8.8449 0.38071 5
    endloop
  endfacet
  facet normal -0.245727 0.969339 0
    outer loop
      vertex -9.65921 0.174283 5
      vertex -8.8449 0.38071 0
      vertex -9.65921 0.174283 0
    endloop
  endfacet
  facet normal -0.476604 0.879118 0
    outer loop
      vertex -9.65921 0.174283 0
      vertex -10.4652 -0.262675 5
      vertex -9.65921 0.174283 5
    endloop
  endfacet
  facet normal -0.476604 0.879118 0
    outer loop
      vertex -10.4652 -0.262675 5
      vertex -9.65921 0.174283 0
      vertex -10.4652 -0.262675 0
    endloop
  endfacet
  facet normal -0.620912 0.78388 0
    outer loop
      vertex -10.4652 -0.262675 0
      vertex -11.2419 -0.8779 5
      vertex -10.4652 -0.262675 5
    endloop
  endfacet
  facet normal -0.620912 0.78388 0
    outer loop
      vertex -11.2419 -0.8779 5
      vertex -10.4652 -0.262675 0
      vertex -11.2419 -0.8779 0
    endloop
  endfacet
  facet normal -0.729638 0.683833 0
    outer loop
      vertex -11.97 -1.65477 0
      vertex -11.2419 -0.8779 5
      vertex -11.2419 -0.8779 0
    endloop
  endfacet
  facet normal -0.729638 0.683833 0
    outer loop
      vertex -11.2419 -0.8779 5
      vertex -11.97 -1.65477 0
      vertex -11.97 -1.65477 5
    endloop
  endfacet
  facet normal -0.814638 0.57997 0
    outer loop
      vertex -12.6303 -2.58224 0
      vertex -11.97 -1.65477 5
      vertex -11.97 -1.65477 0
    endloop
  endfacet
  facet normal -0.814638 0.57997 0
    outer loop
      vertex -11.97 -1.65477 5
      vertex -12.6303 -2.58224 0
      vertex -12.6303 -2.58224 5
    endloop
  endfacet
  facet normal -0.974927 -0.222525 0
    outer loop
      vertex -12.4999 -3.15355 0
      vertex -12.6303 -2.58224 5
      vertex -12.6303 -2.58224 0
    endloop
  endfacet
  facet normal -0.974927 -0.222525 0
    outer loop
      vertex -12.6303 -2.58224 5
      vertex -12.4999 -3.15355 0
      vertex -12.4999 -3.15355 5
    endloop
  endfacet
  facet normal -0.48234 -0.875984 0
    outer loop
      vertex -12.4999 -3.15355 0
      vertex -11.5026 -3.70269 5
      vertex -12.4999 -3.15355 5
    endloop
  endfacet
  facet normal -0.48234 -0.875984 -0
    outer loop
      vertex -11.5026 -3.70269 5
      vertex -12.4999 -3.15355 0
      vertex -11.5026 -3.70269 0
    endloop
  endfacet
  facet normal -0.360679 -0.93269 0
    outer loop
      vertex -11.5026 -3.70269 0
      vertex -10.5095 -4.08673 5
      vertex -11.5026 -3.70269 5
    endloop
  endfacet
  facet normal -0.360679 -0.93269 -0
    outer loop
      vertex -10.5095 -4.08673 5
      vertex -11.5026 -3.70269 0
      vertex -10.5095 -4.08673 0
    endloop
  endfacet
  facet normal -0.219287 -0.97566 0
    outer loop
      vertex -10.5095 -4.08673 0
      vertex -9.54277 -4.30401 5
      vertex -10.5095 -4.08673 5
    endloop
  endfacet
  facet normal -0.219287 -0.97566 -0
    outer loop
      vertex -9.54277 -4.30401 5
      vertex -10.5095 -4.08673 0
      vertex -9.54277 -4.30401 0
    endloop
  endfacet
  facet normal -0.0479823 -0.998848 0
    outer loop
      vertex -9.54277 -4.30401 0
      vertex -8.62703 -4.348 5
      vertex -9.54277 -4.30401 5
    endloop
  endfacet
  facet normal -0.0479823 -0.998848 -0
    outer loop
      vertex -8.62703 -4.348 5
      vertex -9.54277 -4.30401 0
      vertex -8.62703 -4.348 0
    endloop
  endfacet
  facet normal 0.199185 -0.979962 0
    outer loop
      vertex -8.62703 -4.348 0
      vertex -7.80379 -4.18067 5
      vertex -8.62703 -4.348 5
    endloop
  endfacet
  facet normal 0.199185 -0.979962 0
    outer loop
      vertex -7.80379 -4.18067 5
      vertex -8.62703 -4.348 0
      vertex -7.80379 -4.18067 0
    endloop
  endfacet
  facet normal 0.472231 -0.881475 0
    outer loop
      vertex -7.80379 -4.18067 0
      vertex -6.31311 -3.38207 5
      vertex -7.80379 -4.18067 5
    endloop
  endfacet
  facet normal 0.472231 -0.881475 0
    outer loop
      vertex -6.31311 -3.38207 5
      vertex -7.80379 -4.18067 0
      vertex -6.31311 -3.38207 0
    endloop
  endfacet
  facet normal -0.834394 -0.551168 0
    outer loop
      vertex -5.60812 -4.44933 0
      vertex -6.31311 -3.38207 5
      vertex -6.31311 -3.38207 0
    endloop
  endfacet
  facet normal -0.834394 -0.551168 0
    outer loop
      vertex -6.31311 -3.38207 5
      vertex -5.60812 -4.44933 0
      vertex -5.60812 -4.44933 5
    endloop
  endfacet
  facet normal -0.834445 -0.551091 0
    outer loop
      vertex -5.58829 -4.47935 0
      vertex -5.59817 -4.46439 5
      vertex -5.59817 -4.46439 0
    endloop
  endfacet
  facet normal -0.834445 -0.551091 0
    outer loop
      vertex -5.59817 -4.46439 5
      vertex -5.58829 -4.47935 0
      vertex -5.58829 -4.47935 5
    endloop
  endfacet
  facet normal 0.595004 -0.803723 0
    outer loop
      vertex -5.58829 -4.47935 0
      vertex -5.58571 -4.47744 5
      vertex -5.58829 -4.47935 5
    endloop
  endfacet
  facet normal 0.595004 -0.803723 0
    outer loop
      vertex -5.58571 -4.47744 5
      vertex -5.58829 -4.47935 0
      vertex -5.58571 -4.47744 0
    endloop
  endfacet
  facet normal 0.187112 0.982339 -0
    outer loop
      vertex -6.97524 1.61049 0
      vertex -6.97839 1.61109 5
      vertex -6.97524 1.61049 5
    endloop
  endfacet
  facet normal 0.187112 0.982339 0
    outer loop
      vertex -6.97839 1.61109 5
      vertex -6.97524 1.61049 0
      vertex -6.97839 1.61109 0
    endloop
  endfacet
  facet normal -0.722824 -0.691033 0
    outer loop
      vertex -5.59817 -4.46439 0
      vertex -5.61056 -4.45143 5
      vertex -5.61056 -4.45143 0
    endloop
  endfacet
  facet normal -0.722824 -0.691033 0
    outer loop
      vertex -5.61056 -4.45143 5
      vertex -5.59817 -4.46439 0
      vertex -5.59817 -4.46439 5
    endloop
  endfacet
  facet normal -0.723017 -0.69083 0
    outer loop
      vertex -4.70207 -5.40225 0
      vertex -5.58571 -4.47744 5
      vertex -5.58571 -4.47744 0
    endloop
  endfacet
  facet normal -0.723017 -0.69083 0
    outer loop
      vertex -5.58571 -4.47744 5
      vertex -4.70207 -5.40225 0
      vertex -4.70207 -5.40225 5
    endloop
  endfacet
  facet normal -0.754294 0.656536 0
    outer loop
      vertex -5.81235 -6.67785 0
      vertex -4.70207 -5.40225 5
      vertex -4.70207 -5.40225 0
    endloop
  endfacet
  facet normal -0.754294 0.656536 0
    outer loop
      vertex -4.70207 -5.40225 5
      vertex -5.81235 -6.67785 0
      vertex -5.81235 -6.67785 5
    endloop
  endfacet
  facet normal -0.911065 0.412262 0
    outer loop
      vertex -6.15868 -7.44321 0
      vertex -5.81235 -6.67785 5
      vertex -5.81235 -6.67785 0
    endloop
  endfacet
  facet normal -0.911065 0.412262 0
    outer loop
      vertex -5.81235 -6.67785 5
      vertex -6.15868 -7.44321 0
      vertex -6.15868 -7.44321 5
    endloop
  endfacet
  facet normal -0.984483 0.175481 0
    outer loop
      vertex -6.31956 -8.34578 0
      vertex -6.15868 -7.44321 5
      vertex -6.15868 -7.44321 0
    endloop
  endfacet
  facet normal -0.984483 0.175481 0
    outer loop
      vertex -6.15868 -7.44321 5
      vertex -6.31956 -8.34578 0
      vertex -6.31956 -8.34578 5
    endloop
  endfacet
  facet normal -0.999994 0.00333035 0
    outer loop
      vertex -6.32286 -9.33666 0
      vertex -6.31956 -8.34578 5
      vertex -6.31956 -8.34578 0
    endloop
  endfacet
  facet normal -0.999994 0.00333035 0
    outer loop
      vertex -6.31956 -8.34578 5
      vertex -6.32286 -9.33666 0
      vertex -6.32286 -9.33666 5
    endloop
  endfacet
  facet normal -0.989562 -0.144108 0
    outer loop
      vertex -6.16942 -10.3903 0
      vertex -6.32286 -9.33666 5
      vertex -6.32286 -9.33666 0
    endloop
  endfacet
  facet normal -0.989562 -0.144108 0
    outer loop
      vertex -6.32286 -9.33666 5
      vertex -6.16942 -10.3903 0
      vertex -6.16942 -10.3903 5
    endloop
  endfacet
  facet normal -0.961353 -0.275319 0
    outer loop
      vertex -5.85597 -11.4848 0
      vertex -6.16942 -10.3903 5
      vertex -6.16942 -10.3903 0
    endloop
  endfacet
  facet normal -0.961353 -0.275319 0
    outer loop
      vertex -6.16942 -10.3903 5
      vertex -5.85597 -11.4848 0
      vertex -5.85597 -11.4848 5
    endloop
  endfacet
  facet normal -0.433805 -0.901007 0
    outer loop
      vertex -5.85597 -11.4848 0
      vertex -5.328 -11.739 5
      vertex -5.85597 -11.4848 5
    endloop
  endfacet
  facet normal -0.433805 -0.901007 -0
    outer loop
      vertex -5.328 -11.739 5
      vertex -5.85597 -11.4848 0
      vertex -5.328 -11.739 0
    endloop
  endfacet
  facet normal 0.38411 -0.923287 0
    outer loop
      vertex -5.328 -11.739 0
      vertex -4.27686 -11.3017 5
      vertex -5.328 -11.739 5
    endloop
  endfacet
  facet normal 0.38411 -0.923287 0
    outer loop
      vertex -4.27686 -11.3017 5
      vertex -5.328 -11.739 0
      vertex -4.27686 -11.3017 0
    endloop
  endfacet
  facet normal 0.50435 -0.863499 0
    outer loop
      vertex -4.27686 -11.3017 0
      vertex -3.35746 -10.7647 5
      vertex -4.27686 -11.3017 5
    endloop
  endfacet
  facet normal 0.50435 -0.863499 0
    outer loop
      vertex -3.35746 -10.7647 5
      vertex -4.27686 -11.3017 0
      vertex -3.35746 -10.7647 0
    endloop
  endfacet
  facet normal 0.626097 -0.779745 0
    outer loop
      vertex -3.35746 -10.7647 0
      vertex -2.58481 -10.1443 5
      vertex -3.35746 -10.7647 5
    endloop
  endfacet
  facet normal 0.626097 -0.779745 0
    outer loop
      vertex -2.58481 -10.1443 5
      vertex -3.35746 -10.7647 0
      vertex -2.58481 -10.1443 0
    endloop
  endfacet
  facet normal 0.750995 -0.660307 0
    outer loop
      vertex -2.58481 -10.1443 5
      vertex -1.97946 -9.45581 0
      vertex -1.97946 -9.45581 5
    endloop
  endfacet
  facet normal 0.750995 -0.660307 0
    outer loop
      vertex -1.97946 -9.45581 0
      vertex -2.58481 -10.1443 5
      vertex -2.58481 -10.1443 0
    endloop
  endfacet
  facet normal 0.890358 -0.455261 0
    outer loop
      vertex -1.97946 -9.45581 5
      vertex -1.59701 -8.70785 0
      vertex -1.59701 -8.70785 5
    endloop
  endfacet
  facet normal 0.890358 -0.455261 0
    outer loop
      vertex -1.59701 -8.70785 0
      vertex -1.97946 -9.45581 5
      vertex -1.97946 -9.45581 0
    endloop
  endfacet
  facet normal 0.983595 -0.180389 0
    outer loop
      vertex -1.59701 -8.70785 5
      vertex -1.29195 -7.04447 0
      vertex -1.29195 -7.04447 5
    endloop
  endfacet
  facet normal 0.983595 -0.180389 0
    outer loop
      vertex -1.29195 -7.04447 0
      vertex -1.59701 -8.70785 5
      vertex -1.59701 -8.70785 0
    endloop
  endfacet
  facet normal -0.0893214 -0.996003 0
    outer loop
      vertex -1.29195 -7.04447 0
      vertex -0.0179745 -7.15872 5
      vertex -1.29195 -7.04447 5
    endloop
  endfacet
  facet normal -0.0893214 -0.996003 -0
    outer loop
      vertex -0.0179745 -7.15872 5
      vertex -1.29195 -7.04447 0
      vertex -0.0179745 -7.15872 0
    endloop
  endfacet
  facet normal -0.0892452 -0.99601 0
    outer loop
      vertex 0 -7.16033 0
      vertex 0.0178566 -7.16193 5
      vertex 0 -7.16033 5
    endloop
  endfacet
  facet normal -0.0892452 -0.99601 -0
    outer loop
      vertex 0.0178566 -7.16193 5
      vertex 0 -7.16033 0
      vertex 0.0178566 -7.16193 0
    endloop
  endfacet
  facet normal 0.999326 -0.0367042 0
    outer loop
      vertex 0.0178566 -7.16193 5
      vertex 0.0179745 -7.15872 0
      vertex 0.0179745 -7.15872 5
    endloop
  endfacet
  facet normal 0.999326 -0.0367042 0
    outer loop
      vertex 0.0179745 -7.15872 0
      vertex 0.0178566 -7.16193 5
      vertex 0.0178566 -7.16193 0
    endloop
  endfacet
  facet normal -0.652325 0.757939 0
    outer loop
      vertex -5.60812 -4.44933 0
      vertex -5.61056 -4.45143 5
      vertex -5.60812 -4.44933 5
    endloop
  endfacet
  facet normal -0.652325 0.757939 0
    outer loop
      vertex -5.61056 -4.45143 5
      vertex -5.60812 -4.44933 0
      vertex -5.61056 -4.45143 0
    endloop
  endfacet
  facet normal 0.0892452 -0.99601 0
    outer loop
      vertex -0.0178566 -7.16193 0
      vertex 0 -7.16033 5
      vertex -0.0178566 -7.16193 5
    endloop
  endfacet
  facet normal 0.0892452 -0.99601 0
    outer loop
      vertex 0 -7.16033 5
      vertex -0.0178566 -7.16193 0
      vertex 0 -7.16033 0
    endloop
  endfacet
  facet normal 0.0893214 -0.996003 0
    outer loop
      vertex 0.0179745 -7.15872 0
      vertex 1.29195 -7.04447 5
      vertex 0.0179745 -7.15872 5
    endloop
  endfacet
  facet normal 0.0893214 -0.996003 0
    outer loop
      vertex 1.29195 -7.04447 5
      vertex 0.0179745 -7.15872 0
      vertex 1.29195 -7.04447 0
    endloop
  endfacet
  facet normal -0.983595 -0.180389 0
    outer loop
      vertex 1.59701 -8.70785 0
      vertex 1.29195 -7.04447 5
      vertex 1.29195 -7.04447 0
    endloop
  endfacet
  facet normal -0.983595 -0.180389 0
    outer loop
      vertex 1.29195 -7.04447 5
      vertex 1.59701 -8.70785 0
      vertex 1.59701 -8.70785 5
    endloop
  endfacet
  facet normal -0.890358 -0.455261 0
    outer loop
      vertex 1.97946 -9.45581 0
      vertex 1.59701 -8.70785 5
      vertex 1.59701 -8.70785 0
    endloop
  endfacet
  facet normal -0.890358 -0.455261 0
    outer loop
      vertex 1.59701 -8.70785 5
      vertex 1.97946 -9.45581 0
      vertex 1.97946 -9.45581 5
    endloop
  endfacet
  facet normal -0.750995 -0.660307 0
    outer loop
      vertex 2.58481 -10.1443 0
      vertex 1.97946 -9.45581 5
      vertex 1.97946 -9.45581 0
    endloop
  endfacet
  facet normal -0.750995 -0.660307 0
    outer loop
      vertex 1.97946 -9.45581 5
      vertex 2.58481 -10.1443 0
      vertex 2.58481 -10.1443 5
    endloop
  endfacet
  facet normal -0.626097 -0.779745 0
    outer loop
      vertex 2.58481 -10.1443 0
      vertex 3.35746 -10.7647 5
      vertex 2.58481 -10.1443 5
    endloop
  endfacet
  facet normal -0.626097 -0.779745 -0
    outer loop
      vertex 3.35746 -10.7647 5
      vertex 2.58481 -10.1443 0
      vertex 3.35746 -10.7647 0
    endloop
  endfacet
  facet normal -0.50435 -0.863499 0
    outer loop
      vertex 3.35746 -10.7647 0
      vertex 4.27686 -11.3017 5
      vertex 3.35746 -10.7647 5
    endloop
  endfacet
  facet normal -0.50435 -0.863499 -0
    outer loop
      vertex 4.27686 -11.3017 5
      vertex 3.35746 -10.7647 0
      vertex 4.27686 -11.3017 0
    endloop
  endfacet
  facet normal -0.38411 -0.923287 0
    outer loop
      vertex 4.27686 -11.3017 0
      vertex 5.328 -11.739 5
      vertex 4.27686 -11.3017 5
    endloop
  endfacet
  facet normal -0.38411 -0.923287 -0
    outer loop
      vertex 5.328 -11.739 5
      vertex 4.27686 -11.3017 0
      vertex 5.328 -11.739 0
    endloop
  endfacet
  facet normal 0.433805 -0.901007 0
    outer loop
      vertex 5.328 -11.739 0
      vertex 5.85597 -11.4848 5
      vertex 5.328 -11.739 5
    endloop
  endfacet
  facet normal 0.433805 -0.901007 0
    outer loop
      vertex 5.85597 -11.4848 5
      vertex 5.328 -11.739 0
      vertex 5.85597 -11.4848 0
    endloop
  endfacet
  facet normal 0.961353 -0.275319 0
    outer loop
      vertex 5.85597 -11.4848 5
      vertex 6.16942 -10.3903 0
      vertex 6.16942 -10.3903 5
    endloop
  endfacet
  facet normal 0.961353 -0.275319 0
    outer loop
      vertex 6.16942 -10.3903 0
      vertex 5.85597 -11.4848 5
      vertex 5.85597 -11.4848 0
    endloop
  endfacet
  facet normal 0.989562 -0.144108 0
    outer loop
      vertex 6.16942 -10.3903 5
      vertex 6.32286 -9.33666 0
      vertex 6.32286 -9.33666 5
    endloop
  endfacet
  facet normal 0.989562 -0.144108 0
    outer loop
      vertex 6.32286 -9.33666 0
      vertex 6.16942 -10.3903 5
      vertex 6.16942 -10.3903 0
    endloop
  endfacet
  facet normal 0.999994 0.00333035 0
    outer loop
      vertex 6.32286 -9.33666 5
      vertex 6.31956 -8.34578 0
      vertex 6.31956 -8.34578 5
    endloop
  endfacet
  facet normal 0.999994 0.00333035 0
    outer loop
      vertex 6.31956 -8.34578 0
      vertex 6.32286 -9.33666 5
      vertex 6.32286 -9.33666 0
    endloop
  endfacet
  facet normal 0.984483 0.175481 0
    outer loop
      vertex 6.31956 -8.34578 5
      vertex 6.15868 -7.44321 0
      vertex 6.15868 -7.44321 5
    endloop
  endfacet
  facet normal 0.984483 0.175481 0
    outer loop
      vertex 6.15868 -7.44321 0
      vertex 6.31956 -8.34578 5
      vertex 6.31956 -8.34578 0
    endloop
  endfacet
  facet normal 0.911065 0.412262 0
    outer loop
      vertex 6.15868 -7.44321 5
      vertex 5.81235 -6.67785 0
      vertex 5.81235 -6.67785 5
    endloop
  endfacet
  facet normal 0.911065 0.412262 0
    outer loop
      vertex 5.81235 -6.67785 0
      vertex 6.15868 -7.44321 5
      vertex 6.15868 -7.44321 0
    endloop
  endfacet
  facet normal 0.754294 0.656536 0
    outer loop
      vertex 5.81235 -6.67785 5
      vertex 4.70207 -5.40225 0
      vertex 4.70207 -5.40225 5
    endloop
  endfacet
  facet normal 0.754294 0.656536 0
    outer loop
      vertex 4.70207 -5.40225 0
      vertex 5.81235 -6.67785 5
      vertex 5.81235 -6.67785 0
    endloop
  endfacet
  facet normal 0.723017 -0.69083 0
    outer loop
      vertex 4.70207 -5.40225 5
      vertex 5.58571 -4.47744 0
      vertex 5.58571 -4.47744 5
    endloop
  endfacet
  facet normal 0.723017 -0.69083 0
    outer loop
      vertex 5.58571 -4.47744 0
      vertex 4.70207 -5.40225 5
      vertex 4.70207 -5.40225 0
    endloop
  endfacet
  facet normal 0.722824 -0.691033 0
    outer loop
      vertex 5.59817 -4.46439 5
      vertex 5.61056 -4.45143 0
      vertex 5.61056 -4.45143 5
    endloop
  endfacet
  facet normal 0.722824 -0.691033 0
    outer loop
      vertex 5.61056 -4.45143 0
      vertex 5.59817 -4.46439 5
      vertex 5.59817 -4.46439 0
    endloop
  endfacet
  facet normal 0.652325 0.757939 -0
    outer loop
      vertex 5.61056 -4.45143 0
      vertex 5.60812 -4.44933 5
      vertex 5.61056 -4.45143 5
    endloop
  endfacet
  facet normal 0.652325 0.757939 0
    outer loop
      vertex 5.60812 -4.44933 5
      vertex 5.61056 -4.45143 0
      vertex 5.60812 -4.44933 0
    endloop
  endfacet
  facet normal -0.999326 -0.0367042 0
    outer loop
      vertex -0.0178566 -7.16193 0
      vertex -0.0179745 -7.15872 5
      vertex -0.0179745 -7.15872 0
    endloop
  endfacet
  facet normal -0.999326 -0.0367042 0
    outer loop
      vertex -0.0179745 -7.15872 5
      vertex -0.0178566 -7.16193 0
      vertex -0.0178566 -7.16193 5
    endloop
  endfacet
  facet normal 0.834445 -0.551091 0
    outer loop
      vertex 5.58829 -4.47935 5
      vertex 5.59817 -4.46439 0
      vertex 5.59817 -4.46439 5
    endloop
  endfacet
  facet normal 0.834445 -0.551091 0
    outer loop
      vertex 5.59817 -4.46439 0
      vertex 5.58829 -4.47935 5
      vertex 5.58829 -4.47935 0
    endloop
  endfacet
  facet normal 0.834394 -0.551168 0
    outer loop
      vertex 5.60812 -4.44933 5
      vertex 6.31311 -3.38207 0
      vertex 6.31311 -3.38207 5
    endloop
  endfacet
  facet normal 0.834394 -0.551168 0
    outer loop
      vertex 6.31311 -3.38207 0
      vertex 5.60812 -4.44933 5
      vertex 5.60812 -4.44933 0
    endloop
  endfacet
  facet normal -0.472231 -0.881475 0
    outer loop
      vertex 6.31311 -3.38207 0
      vertex 7.80379 -4.18067 5
      vertex 6.31311 -3.38207 5
    endloop
  endfacet
  facet normal -0.472231 -0.881475 -0
    outer loop
      vertex 7.80379 -4.18067 5
      vertex 6.31311 -3.38207 0
      vertex 7.80379 -4.18067 0
    endloop
  endfacet
  facet normal -0.199185 -0.979962 0
    outer loop
      vertex 7.80379 -4.18067 0
      vertex 8.62703 -4.348 5
      vertex 7.80379 -4.18067 5
    endloop
  endfacet
  facet normal -0.199185 -0.979962 -0
    outer loop
      vertex 8.62703 -4.348 5
      vertex 7.80379 -4.18067 0
      vertex 8.62703 -4.348 0
    endloop
  endfacet
  facet normal 0.0479823 -0.998848 0
    outer loop
      vertex 8.62703 -4.348 0
      vertex 9.54277 -4.30401 5
      vertex 8.62703 -4.348 5
    endloop
  endfacet
  facet normal 0.0479823 -0.998848 0
    outer loop
      vertex 9.54277 -4.30401 5
      vertex 8.62703 -4.348 0
      vertex 9.54277 -4.30401 0
    endloop
  endfacet
  facet normal 0.219287 -0.97566 0
    outer loop
      vertex 9.54277 -4.30401 0
      vertex 10.5095 -4.08673 5
      vertex 9.54277 -4.30401 5
    endloop
  endfacet
  facet normal 0.219287 -0.97566 0
    outer loop
      vertex 10.5095 -4.08673 5
      vertex 9.54277 -4.30401 0
      vertex 10.5095 -4.08673 0
    endloop
  endfacet
  facet normal 0.360679 -0.93269 0
    outer loop
      vertex 10.5095 -4.08673 0
      vertex 11.5026 -3.70269 5
      vertex 10.5095 -4.08673 5
    endloop
  endfacet
  facet normal 0.360679 -0.93269 0
    outer loop
      vertex 11.5026 -3.70269 5
      vertex 10.5095 -4.08673 0
      vertex 11.5026 -3.70269 0
    endloop
  endfacet
  facet normal 0.48234 -0.875984 0
    outer loop
      vertex 11.5026 -3.70269 0
      vertex 12.4999 -3.15355 5
      vertex 11.5026 -3.70269 5
    endloop
  endfacet
  facet normal 0.48234 -0.875984 0
    outer loop
      vertex 12.4999 -3.15355 5
      vertex 11.5026 -3.70269 0
      vertex 12.4999 -3.15355 0
    endloop
  endfacet
  facet normal 0.974927 -0.222525 0
    outer loop
      vertex 12.4999 -3.15355 5
      vertex 12.6303 -2.58224 0
      vertex 12.6303 -2.58224 5
    endloop
  endfacet
  facet normal 0.974927 -0.222525 0
    outer loop
      vertex 12.6303 -2.58224 0
      vertex 12.4999 -3.15355 5
      vertex 12.4999 -3.15355 0
    endloop
  endfacet
  facet normal 0.814638 0.57997 0
    outer loop
      vertex 12.6303 -2.58224 5
      vertex 11.97 -1.65477 0
      vertex 11.97 -1.65477 5
    endloop
  endfacet
  facet normal 0.814638 0.57997 0
    outer loop
      vertex 11.97 -1.65477 0
      vertex 12.6303 -2.58224 5
      vertex 12.6303 -2.58224 0
    endloop
  endfacet
  facet normal 0.729638 0.683833 0
    outer loop
      vertex 11.97 -1.65477 5
      vertex 11.2419 -0.8779 0
      vertex 11.2419 -0.8779 5
    endloop
  endfacet
  facet normal 0.729638 0.683833 0
    outer loop
      vertex 11.2419 -0.8779 0
      vertex 11.97 -1.65477 5
      vertex 11.97 -1.65477 0
    endloop
  endfacet
  facet normal 0.620912 0.78388 -0
    outer loop
      vertex 11.2419 -0.8779 0
      vertex 10.4652 -0.262675 5
      vertex 11.2419 -0.8779 5
    endloop
  endfacet
  facet normal 0.620912 0.78388 0
    outer loop
      vertex 10.4652 -0.262675 5
      vertex 11.2419 -0.8779 0
      vertex 10.4652 -0.262675 0
    endloop
  endfacet
  facet normal 0.476604 0.879118 -0
    outer loop
      vertex 10.4652 -0.262675 0
      vertex 9.65921 0.174283 5
      vertex 10.4652 -0.262675 5
    endloop
  endfacet
  facet normal 0.476604 0.879118 0
    outer loop
      vertex 9.65921 0.174283 5
      vertex 10.4652 -0.262675 0
      vertex 9.65921 0.174283 0
    endloop
  endfacet
  facet normal 0.245727 0.969339 -0
    outer loop
      vertex 9.65921 0.174283 0
      vertex 8.8449 0.38071 5
      vertex 9.65921 0.174283 5
    endloop
  endfacet
  facet normal 0.245727 0.969339 0
    outer loop
      vertex 8.8449 0.38071 5
      vertex 9.65921 0.174283 0
      vertex 8.8449 0.38071 0
    endloop
  endfacet
  facet normal -0.0430069 0.999075 0
    outer loop
      vertex 8.8449 0.38071 0
      vertex 7.15534 0.30798 5
      vertex 8.8449 0.38071 5
    endloop
  endfacet
  facet normal -0.0430069 0.999075 0
    outer loop
      vertex 7.15534 0.30798 5
      vertex 8.8449 0.38071 0
      vertex 7.15534 0.30798 0
    endloop
  endfacet
  facet normal 0.990907 0.134549 0
    outer loop
      vertex 7.15534 0.30798 5
      vertex 6.98324 1.57544 0
      vertex 6.98324 1.57544 5
    endloop
  endfacet
  facet normal 0.990907 0.134549 0
    outer loop
      vertex 6.98324 1.57544 0
      vertex 7.15534 0.30798 5
      vertex 7.15534 0.30798 0
    endloop
  endfacet
  facet normal 0.990854 0.134939 0
    outer loop
      vertex 6.98081 1.59332 5
      vertex 6.97839 1.61109 0
      vertex 6.97839 1.61109 5
    endloop
  endfacet
  facet normal 0.990854 0.134939 0
    outer loop
      vertex 6.97839 1.61109 0
      vertex 6.98081 1.59332 5
      vertex 6.98081 1.59332 0
    endloop
  endfacet
  facet normal -0.187112 0.982339 0
    outer loop
      vertex 6.97839 1.61109 0
      vertex 6.97524 1.61049 5
      vertex 6.97839 1.61109 5
    endloop
  endfacet
  facet normal -0.187112 0.982339 0
    outer loop
      vertex 6.97524 1.61049 5
      vertex 6.97839 1.61109 0
      vertex 6.97524 1.61049 0
    endloop
  endfacet
  facet normal -0.595004 -0.803723 0
    outer loop
      vertex 5.58571 -4.47744 0
      vertex 5.58829 -4.47935 5
      vertex 5.58571 -4.47744 5
    endloop
  endfacet
  facet normal -0.595004 -0.803723 -0
    outer loop
      vertex 5.58829 -4.47935 5
      vertex 5.58571 -4.47744 0
      vertex 5.58829 -4.47935 0
    endloop
  endfacet
  facet normal 0.951218 0.308518 0
    outer loop
      vertex 6.98634 1.57627 5
      vertex 6.98081 1.59332 0
      vertex 6.98081 1.59332 5
    endloop
  endfacet
  facet normal 0.951218 0.308518 0
    outer loop
      vertex 6.98081 1.59332 0
      vertex 6.98634 1.57627 5
      vertex 6.98634 1.57627 0
    endloop
  endfacet
  facet normal 0.951156 0.30871 0
    outer loop
      vertex 6.97524 1.61049 5
      vertex 6.58037 2.82711 0
      vertex 6.58037 2.82711 5
    endloop
  endfacet
  facet normal 0.951156 0.30871 0
    outer loop
      vertex 6.58037 2.82711 0
      vertex 6.97524 1.61049 5
      vertex 6.97524 1.61049 0
    endloop
  endfacet
  facet normal 0.394733 -0.918796 0
    outer loop
      vertex 6.58037 2.82711 0
      vertex 8.13416 3.49465 5
      vertex 6.58037 2.82711 5
    endloop
  endfacet
  facet normal 0.394733 -0.918796 0
    outer loop
      vertex 8.13416 3.49465 5
      vertex 6.58037 2.82711 0
      vertex 8.13416 3.49465 0
    endloop
  endfacet
  facet normal 0.641974 -0.766726 0
    outer loop
      vertex 8.13416 3.49465 0
      vertex 8.77826 4.03395 5
      vertex 8.13416 3.49465 5
    endloop
  endfacet
  facet normal 0.641974 -0.766726 0
    outer loop
      vertex 8.77826 4.03395 5
      vertex 8.13416 3.49465 0
      vertex 8.77826 4.03395 0
    endloop
  endfacet
  facet normal 0.810843 -0.585264 0
    outer loop
      vertex 8.77826 4.03395 5
      vertex 9.31483 4.77733 0
      vertex 9.31483 4.77733 5
    endloop
  endfacet
  facet normal 0.810843 -0.585264 0
    outer loop
      vertex 9.31483 4.77733 0
      vertex 8.77826 4.03395 5
      vertex 8.77826 4.03395 0
    endloop
  endfacet
  facet normal 0.899523 -0.436874 0
    outer loop
      vertex 9.31483 4.77733 5
      vertex 9.74772 5.66865 0
      vertex 9.74772 5.66865 5
    endloop
  endfacet
  facet normal 0.899523 -0.436874 0
    outer loop
      vertex 9.74772 5.66865 0
      vertex 9.31483 4.77733 5
      vertex 9.31483 4.77733 0
    endloop
  endfacet
  facet normal 0.954097 -0.299498 0
    outer loop
      vertex 9.74772 5.66865 5
      vertex 10.0666 6.68449 0
      vertex 10.0666 6.68449 5
    endloop
  endfacet
  facet normal 0.954097 -0.299498 0
    outer loop
      vertex 10.0666 6.68449 0
      vertex 9.74772 5.66865 5
      vertex 9.74772 5.66865 0
    endloop
  endfacet
  facet normal 0.985602 -0.169083 0
    outer loop
      vertex 10.0666 6.68449 5
      vertex 10.2591 7.80659 0
      vertex 10.2591 7.80659 5
    endloop
  endfacet
  facet normal 0.985602 -0.169083 0
    outer loop
      vertex 10.2591 7.80659 0
      vertex 10.0666 6.68449 5
      vertex 10.0666 6.68449 0
    endloop
  endfacet
  facet normal 0.781832 0.623489 0
    outer loop
      vertex 10.2591 7.80659 5
      vertex 9.89373 8.26475 0
      vertex 9.89373 8.26475 5
    endloop
  endfacet
  facet normal 0.781832 0.623489 0
    outer loop
      vertex 9.89373 8.26475 0
      vertex 10.2591 7.80659 5
      vertex 10.2591 7.80659 0
    endloop
  endfacet
  facet normal 0.0544932 0.998514 -0
    outer loop
      vertex 9.89373 8.26475 0
      vertex 8.75693 8.32679 5
      vertex 9.89373 8.26475 5
    endloop
  endfacet
  facet normal 0.0544932 0.998514 0
    outer loop
      vertex 8.75693 8.32679 5
      vertex 9.89373 8.26475 0
      vertex 8.75693 8.32679 0
    endloop
  endfacet
  facet normal -0.0797019 0.996819 0
    outer loop
      vertex 8.75693 8.32679 0
      vertex 7.6956 8.24193 5
      vertex 8.75693 8.32679 5
    endloop
  endfacet
  facet normal -0.0797019 0.996819 0
    outer loop
      vertex 7.6956 8.24193 5
      vertex 8.75693 8.32679 0
      vertex 7.6956 8.24193 0
    endloop
  endfacet
  facet normal -0.225759 0.974183 0
    outer loop
      vertex 7.6956 8.24193 0
      vertex 6.7303 8.01823 5
      vertex 7.6956 8.24193 5
    endloop
  endfacet
  facet normal -0.225759 0.974183 0
    outer loop
      vertex 6.7303 8.01823 5
      vertex 7.6956 8.24193 0
      vertex 6.7303 8.01823 0
    endloop
  endfacet
  facet normal -0.390152 0.92075 0
    outer loop
      vertex 6.7303 8.01823 0
      vertex 5.88616 7.66054 5
      vertex 6.7303 8.01823 5
    endloop
  endfacet
  facet normal -0.390152 0.92075 0
    outer loop
      vertex 5.88616 7.66054 5
      vertex 6.7303 8.01823 0
      vertex 5.88616 7.66054 0
    endloop
  endfacet
  facet normal -0.60465 0.796491 0
    outer loop
      vertex 5.88616 7.66054 0
      vertex 5.21705 7.15259 5
      vertex 5.88616 7.66054 5
    endloop
  endfacet
  facet normal -0.60465 0.796491 0
    outer loop
      vertex 5.21705 7.15259 5
      vertex 5.88616 7.66054 0
      vertex 5.21705 7.15259 0
    endloop
  endfacet
  facet normal -0.807923 0.589288 0
    outer loop
      vertex 4.22049 5.78629 0
      vertex 5.21705 7.15259 5
      vertex 5.21705 7.15259 0
    endloop
  endfacet
  facet normal -0.807923 0.589288 0
    outer loop
      vertex 5.21705 7.15259 5
      vertex 4.22049 5.78629 0
      vertex 4.22049 5.78629 5
    endloop
  endfacet
  facet normal 0.512624 0.858613 -0
    outer loop
      vertex 4.22049 5.78629 0
      vertex 3.12225 6.44198 5
      vertex 4.22049 5.78629 5
    endloop
  endfacet
  facet normal 0.512624 0.858613 0
    outer loop
      vertex 3.12225 6.44198 5
      vertex 4.22049 5.78629 0
      vertex 3.12225 6.44198 0
    endloop
  endfacet
  facet normal 0.51269 0.858574 -0
    outer loop
      vertex 3.10675 6.45124 0
      vertex 3.09136 6.46043 5
      vertex 3.10675 6.45124 5
    endloop
  endfacet
  facet normal 0.51269 0.858574 0
    outer loop
      vertex 3.09136 6.46043 5
      vertex 3.10675 6.45124 0
      vertex 3.09136 6.46043 0
    endloop
  endfacet
  facet normal -0.884918 0.465746 0
    outer loop
      vertex 3.08986 6.45758 0
      vertex 3.09136 6.46043 5
      vertex 3.09136 6.46043 0
    endloop
  endfacet
  facet normal -0.884918 0.465746 0
    outer loop
      vertex 3.09136 6.46043 5
      vertex 3.08986 6.45758 0
      vertex 3.08986 6.45758 5
    endloop
  endfacet
  facet normal 0.258632 -0.965976 0
    outer loop
      vertex 6.98324 1.57544 0
      vertex 6.98634 1.57627 5
      vertex 6.98324 1.57544 5
    endloop
  endfacet
  facet normal 0.258632 -0.965976 0
    outer loop
      vertex 6.98634 1.57627 5
      vertex 6.98324 1.57544 0
      vertex 6.98634 1.57627 0
    endloop
  endfacet
  facet normal -0.987689 -0.156432 0
    outer loop
      vertex 3.5 0 0
      vertex 3.3287 1.08156 5
      vertex 3.3287 1.08156 0
    endloop
  endfacet
  facet normal -0.987689 -0.156432 0
    outer loop
      vertex 3.3287 1.08156 5
      vertex 3.5 0 0
      vertex 3.5 0 5
    endloop
  endfacet
  facet normal 0.987689 -0.156432 0
    outer loop
      vertex -3.5 0 5
      vertex -3.3287 1.08156 0
      vertex -3.3287 1.08156 5
    endloop
  endfacet
  facet normal 0.987689 -0.156432 0
    outer loop
      vertex -3.3287 1.08156 0
      vertex -3.5 0 5
      vertex -3.5 0 0
    endloop
  endfacet
  facet normal -0.156432 -0.987689 0
    outer loop
      vertex 0 3.5 0
      vertex 1.08156 3.3287 5
      vertex 0 3.5 5
    endloop
  endfacet
  facet normal -0.156432 -0.987689 -0
    outer loop
      vertex 1.08156 3.3287 5
      vertex 0 3.5 0
      vertex 1.08156 3.3287 0
    endloop
  endfacet
  facet normal 0.156432 0.987689 -0
    outer loop
      vertex 0 -3.5 0
      vertex -1.08156 -3.3287 5
      vertex 0 -3.5 5
    endloop
  endfacet
  facet normal 0.156432 0.987689 0
    outer loop
      vertex -1.08156 -3.3287 5
      vertex 0 -3.5 0
      vertex -1.08156 -3.3287 0
    endloop
  endfacet
  facet normal -0.707107 -0.707107 0
    outer loop
      vertex 2.83156 2.05725 0
      vertex 2.05725 2.83156 5
      vertex 2.05725 2.83156 0
    endloop
  endfacet
  facet normal -0.707107 -0.707107 0
    outer loop
      vertex 2.05725 2.83156 5
      vertex 2.83156 2.05725 0
      vertex 2.83156 2.05725 5
    endloop
  endfacet
  facet normal -0.891006 -0.453991 0
    outer loop
      vertex 3.3287 1.08156 0
      vertex 2.83156 2.05725 5
      vertex 2.83156 2.05725 0
    endloop
  endfacet
  facet normal -0.891006 -0.453991 0
    outer loop
      vertex 2.83156 2.05725 5
      vertex 3.3287 1.08156 0
      vertex 3.3287 1.08156 5
    endloop
  endfacet
  facet normal -0.453991 -0.891006 0
    outer loop
      vertex 1.08156 3.3287 0
      vertex 2.05725 2.83156 5
      vertex 1.08156 3.3287 5
    endloop
  endfacet
  facet normal -0.453991 -0.891006 -0
    outer loop
      vertex 2.05725 2.83156 5
      vertex 1.08156 3.3287 0
      vertex 2.05725 2.83156 0
    endloop
  endfacet
  facet normal 0.453991 -0.891006 0
    outer loop
      vertex -2.05725 2.83156 0
      vertex -1.08156 3.3287 5
      vertex -2.05725 2.83156 5
    endloop
  endfacet
  facet normal 0.453991 -0.891006 0
    outer loop
      vertex -1.08156 3.3287 5
      vertex -2.05725 2.83156 0
      vertex -1.08156 3.3287 0
    endloop
  endfacet
  facet normal 0.707107 -0.707107 0
    outer loop
      vertex -2.83156 2.05725 5
      vertex -2.05725 2.83156 0
      vertex -2.05725 2.83156 5
    endloop
  endfacet
  facet normal 0.707107 -0.707107 0
    outer loop
      vertex -2.05725 2.83156 0
      vertex -2.83156 2.05725 5
      vertex -2.83156 2.05725 0
    endloop
  endfacet
  facet normal 0.156432 -0.987689 0
    outer loop
      vertex -1.08156 3.3287 0
      vertex 0 3.5 5
      vertex -1.08156 3.3287 5
    endloop
  endfacet
  facet normal 0.156432 -0.987689 0
    outer loop
      vertex 0 3.5 5
      vertex -1.08156 3.3287 0
      vertex 0 3.5 0
    endloop
  endfacet
  facet normal -0.891006 0.453991 0
    outer loop
      vertex 2.83156 -2.05725 0
      vertex 3.3287 -1.08156 5
      vertex 3.3287 -1.08156 0
    endloop
  endfacet
  facet normal -0.891006 0.453991 0
    outer loop
      vertex 3.3287 -1.08156 5
      vertex 2.83156 -2.05725 0
      vertex 2.83156 -2.05725 5
    endloop
  endfacet
  facet normal 0.707107 0.707107 0
    outer loop
      vertex -2.05725 -2.83156 5
      vertex -2.83156 -2.05725 0
      vertex -2.83156 -2.05725 5
    endloop
  endfacet
  facet normal 0.707107 0.707107 0
    outer loop
      vertex -2.83156 -2.05725 0
      vertex -2.05725 -2.83156 5
      vertex -2.05725 -2.83156 0
    endloop
  endfacet
  facet normal 0.987689 0.156432 0
    outer loop
      vertex -3.3287 -1.08156 5
      vertex -3.5 0 0
      vertex -3.5 0 5
    endloop
  endfacet
  facet normal 0.987689 0.156432 0
    outer loop
      vertex -3.5 0 0
      vertex -3.3287 -1.08156 5
      vertex -3.3287 -1.08156 0
    endloop
  endfacet
  facet normal 0.891006 -0.453991 0
    outer loop
      vertex -3.3287 1.08156 5
      vertex -2.83156 2.05725 0
      vertex -2.83156 2.05725 5
    endloop
  endfacet
  facet normal 0.891006 -0.453991 0
    outer loop
      vertex -2.83156 2.05725 0
      vertex -3.3287 1.08156 5
      vertex -3.3287 1.08156 0
    endloop
  endfacet
  facet normal -0.987689 0.156432 0
    outer loop
      vertex 3.3287 -1.08156 0
      vertex 3.5 0 5
      vertex 3.5 0 0
    endloop
  endfacet
  facet normal -0.987689 0.156432 0
    outer loop
      vertex 3.5 0 5
      vertex 3.3287 -1.08156 0
      vertex 3.3287 -1.08156 5
    endloop
  endfacet
  facet normal -0.156432 0.987689 0
    outer loop
      vertex 1.08156 -3.3287 0
      vertex 0 -3.5 5
      vertex 1.08156 -3.3287 5
    endloop
  endfacet
  facet normal -0.156432 0.987689 0
    outer loop
      vertex 0 -3.5 5
      vertex 1.08156 -3.3287 0
      vertex 0 -3.5 0
    endloop
  endfacet
  facet normal -0.707107 0.707107 0
    outer loop
      vertex 2.05725 -2.83156 0
      vertex 2.83156 -2.05725 5
      vertex 2.83156 -2.05725 0
    endloop
  endfacet
  facet normal -0.707107 0.707107 0
    outer loop
      vertex 2.83156 -2.05725 5
      vertex 2.05725 -2.83156 0
      vertex 2.05725 -2.83156 5
    endloop
  endfacet
  facet normal 0.453991 0.891006 -0
    outer loop
      vertex -1.08156 -3.3287 0
      vertex -2.05725 -2.83156 5
      vertex -1.08156 -3.3287 5
    endloop
  endfacet
  facet normal 0.453991 0.891006 0
    outer loop
      vertex -2.05725 -2.83156 5
      vertex -1.08156 -3.3287 0
      vertex -2.05725 -2.83156 0
    endloop
  endfacet
  facet normal 0.891006 0.453991 0
    outer loop
      vertex -2.83156 -2.05725 5
      vertex -3.3287 -1.08156 0
      vertex -3.3287 -1.08156 5
    endloop
  endfacet
  facet normal 0.891006 0.453991 0
    outer loop
      vertex -3.3287 -1.08156 0
      vertex -2.83156 -2.05725 5
      vertex -2.83156 -2.05725 0
    endloop
  endfacet
  facet normal -0.453991 0.891006 0
    outer loop
      vertex 2.05725 -2.83156 0
      vertex 1.08156 -3.3287 5
      vertex 2.05725 -2.83156 5
    endloop
  endfacet
  facet normal -0.453991 0.891006 0
    outer loop
      vertex 1.08156 -3.3287 5
      vertex 2.05725 -2.83156 0
      vertex 1.08156 -3.3287 0
    endloop
  endfacet
endsolid OpenSCAD_Model
