solid OpenSCAD_Model
  facet normal 0 0 -1
    outer loop
      vertex -2.27414 -8.04736 0
      vertex 2.27414 -8.04736 0
      vertex 2.03789 -8.90651 0
    endloop
  endfacet
  facet normal 0 0 -1
    outer loop
      vertex 2.27414 -8.04736 0
      vertex -2.27414 -8.04736 0
      vertex 2.2774 -7.23856 0
    endloop
  endfacet
  facet normal 0 0 -1
    outer loop
      vertex -2.03789 -8.90651 0
      vertex 2.03789 -8.90651 0
      vertex 1.61253 -9.77878 0
    endloop
  endfacet
  facet normal -0 0 -1
    outer loop
      vertex 2.8792 -4.9536 0
      vertex 2.86386 -4.96037 0
      vertex 2.87755 -4.95036 0
    endloop
  endfacet
  facet normal 0 0 -1
    outer loop
      vertex 9.80552 -5.92991 0
      vertex 9.7165 -4.44506 0
      vertex 10.0382 -5.52687 0
    endloop
  endfacet
  facet normal 0 0 -1
    outer loop
      vertex 8.70779 -6.1922 0
      vertex 9.7165 -4.44506 0
      vertex 9.80552 -5.92991 0
    endloop
  endfacet
  facet normal -0 0 -1
    outer loop
      vertex 9.7165 -4.44506 0
      vertex 8.70779 -6.1922 0
      vertex 9.27494 -3.49289 0
    endloop
  endfacet
  facet normal 0 0 -1
    outer loop
      vertex 7.6624 -6.28588 0
      vertex 9.27494 -3.49289 0
      vertex 8.70779 -6.1922 0
    endloop
  endfacet
  facet normal -0 0 -1
    outer loop
      vertex 9.27494 -3.49289 0
      vertex 7.6624 -6.28588 0
      vertex 8.73221 -2.68839 0
    endloop
  endfacet
  facet normal 0 0 -1
    outer loop
      vertex 6.69432 -6.21812 0
      vertex 8.73221 -2.68839 0
      vertex 7.6624 -6.28588 0
    endloop
  endfacet
  facet normal -0 0 -1
    outer loop
      vertex 8.73221 -2.68839 0
      vertex 6.69432 -6.21812 0
      vertex 8.10629 -2.05422 0
    endloop
  endfacet
  facet normal 0 0 -1
    outer loop
      vertex 5.83215 -5.99314 0
      vertex 8.10629 -2.05422 0
      vertex 6.69432 -6.21812 0
    endloop
  endfacet
  facet normal -0 0 -1
    outer loop
      vertex 8.10629 -2.05422 0
      vertex 5.83215 -5.99314 0
      vertex 7.40748 -1.64699 0
    endloop
  endfacet
  facet normal 0 0 -1
    outer loop
      vertex 5.13007 -5.59157 0
      vertex 7.40748 -1.64699 0
      vertex 5.83215 -5.99314 0
    endloop
  endfacet
  facet normal 0 0 -1
    outer loop
      vertex 3.87345 -4.2219 0
      vertex 5.59299 -1.24356 0
      vertex 5.13007 -5.59157 0
    endloop
  endfacet
  facet normal -0 0 -1
    outer loop
      vertex 7.40748 -1.64699 0
      vertex 5.13007 -5.59157 0
      vertex 5.59299 -1.24356 0
    endloop
  endfacet
  facet normal -0 0 -1
    outer loop
      vertex 5.72954 -0.0166578 0
      vertex 5.72591 -0.0168488 0
      vertex 5.72773 0 0
    endloop
  endfacet
  facet normal 0 0 -1
    outer loop
      vertex 5.72591 0.0168488 0
      vertex 5.72773 0 0
      vertex 5.72591 -0.0168488 0
    endloop
  endfacet
  facet normal 0 0 -1
    outer loop
      vertex 5.72773 0 0
      vertex 5.72591 0.0168488 0
      vertex 5.72954 0.0166578 0
    endloop
  endfacet
  facet normal 0 0 -1
    outer loop
      vertex 5.59299 -1.24356 0
      vertex 5.72591 0.0168488 0
      vertex 5.72591 -0.0168488 0
    endloop
  endfacet
  facet normal -0 0 -1
    outer loop
      vertex 5.72591 0.0168488 0
      vertex 5.59299 -1.24356 0
      vertex 5.59299 1.24356 0
    endloop
  endfacet
  facet normal 0 0 -1
    outer loop
      vertex 9.7165 4.44506 0
      vertex 9.80552 5.92991 0
      vertex 10.0382 5.52687 0
    endloop
  endfacet
  facet normal 0 0 -1
    outer loop
      vertex 8.70779 6.1922 0
      vertex 9.7165 4.44506 0
      vertex 9.27494 3.49289 0
    endloop
  endfacet
  facet normal 0 0 -1
    outer loop
      vertex 7.6624 6.28588 0
      vertex 9.27494 3.49289 0
      vertex 8.73221 2.68839 0
    endloop
  endfacet
  facet normal 0 0 -1
    outer loop
      vertex 9.7165 4.44506 0
      vertex 8.70779 6.1922 0
      vertex 9.80552 5.92991 0
    endloop
  endfacet
  facet normal 0 0 -1
    outer loop
      vertex 6.69432 6.21812 0
      vertex 8.73221 2.68839 0
      vertex 8.10629 2.05422 0
    endloop
  endfacet
  facet normal 0 0 -1
    outer loop
      vertex 9.27494 3.49289 0
      vertex 7.6624 6.28588 0
      vertex 8.70779 6.1922 0
    endloop
  endfacet
  facet normal 0 0 -1
    outer loop
      vertex 5.83215 5.99314 0
      vertex 8.10629 2.05422 0
      vertex 7.40748 1.64699 0
    endloop
  endfacet
  facet normal 0 0 -1
    outer loop
      vertex 8.73221 2.68839 0
      vertex 6.69432 6.21812 0
      vertex 7.6624 6.28588 0
    endloop
  endfacet
  facet normal 0 0 -1
    outer loop
      vertex 8.10629 2.05422 0
      vertex 5.83215 5.99314 0
      vertex 6.69432 6.21812 0
    endloop
  endfacet
  facet normal 0 0 -1
    outer loop
      vertex 5.13007 5.59157 0
      vertex 7.40748 1.64699 0
      vertex 5.59299 1.24356 0
    endloop
  endfacet
  facet normal 0 0 -1
    outer loop
      vertex 2.83156 -2.05725 0
      vertex 5.59299 -1.24356 0
      vertex 3.87345 -4.2219 0
    endloop
  endfacet
  facet normal 0 0 -1
    outer loop
      vertex 3.3287 1.08156 0
      vertex 5.59299 1.24356 0
      vertex 3.5 0 0
    endloop
  endfacet
  facet normal 0 -0 -1
    outer loop
      vertex 3.5 0 0
      vertex 5.59299 -1.24356 0
      vertex 3.3287 -1.08156 0
    endloop
  endfacet
  facet normal 0 0 -1
    outer loop
      vertex 2.83156 2.05725 0
      vertex 5.59299 1.24356 0
      vertex 3.3287 1.08156 0
    endloop
  endfacet
  facet normal 0 0 -1
    outer loop
      vertex 7.40748 1.64699 0
      vertex 5.13007 5.59157 0
      vertex 5.83215 5.99314 0
    endloop
  endfacet
  facet normal 0 0 -1
    outer loop
      vertex 5.59299 -1.24356 0
      vertex 3.5 0 0
      vertex 5.59299 1.24356 0
    endloop
  endfacet
  facet normal 0 0 -1
    outer loop
      vertex 2.05725 -2.83156 0
      vertex 3.87345 -4.2219 0
      vertex 2.87755 -4.95036 0
    endloop
  endfacet
  facet normal 0 0 -1
    outer loop
      vertex 2.84836 -4.96721 0
      vertex 2.87755 -4.95036 0
      vertex 2.86386 -4.96037 0
    endloop
  endfacet
  facet normal 0 0 -1
    outer loop
      vertex 2.84836 -4.96721 0
      vertex 2.86386 -4.96037 0
      vertex 2.85034 -4.97026 0
    endloop
  endfacet
  facet normal -0 0 -1
    outer loop
      vertex 2.87755 -4.95036 0
      vertex 2.84836 -4.96721 0
      vertex 2.05725 -2.83156 0
    endloop
  endfacet
  facet normal -0 0 -1
    outer loop
      vertex 5.59299 -1.24356 0
      vertex 2.83156 -2.05725 0
      vertex 3.3287 -1.08156 0
    endloop
  endfacet
  facet normal 0 0 -1
    outer loop
      vertex 3.87345 -4.2219 0
      vertex 2.05725 -2.83156 0
      vertex 2.83156 -2.05725 0
    endloop
  endfacet
  facet normal 0 0 -1
    outer loop
      vertex 1.08156 -3.3287 0
      vertex 2.84836 -4.96721 0
      vertex 1.71954 -5.46545 0
    endloop
  endfacet
  facet normal 0 0 -1
    outer loop
      vertex 2.84836 -4.96721 0
      vertex 1.08156 -3.3287 0
      vertex 2.05725 -2.83156 0
    endloop
  endfacet
  facet normal 0 0 -1
    outer loop
      vertex 2.2774 -7.23856 0
      vertex -2.2774 -7.23856 0
      vertex 1.71954 -5.46545 0
    endloop
  endfacet
  facet normal 0 0 -1
    outer loop
      vertex -1.61253 -9.77878 0
      vertex 1.61253 -9.77878 0
      vertex 1.00871 -10.6373 0
    endloop
  endfacet
  facet normal 0 0 -1
    outer loop
      vertex -1.00871 -10.6373 0
      vertex 1.00871 -10.6373 0
      vertex 0.232697 -11.4568 0
    endloop
  endfacet
  facet normal 0 -0 -1
    outer loop
      vertex 0 -3.5 0
      vertex 1.71954 -5.46545 0
      vertex -1.71954 -5.46545 0
    endloop
  endfacet
  facet normal 0 0 -1
    outer loop
      vertex -1.00871 -10.6373 0
      vertex 0.232697 -11.4568 0
      vertex -0.232697 -11.4568 0
    endloop
  endfacet
  facet normal 0 0 -1
    outer loop
      vertex 1.00871 -10.6373 0
      vertex -1.00871 -10.6373 0
      vertex -1.61253 -9.77878 0
    endloop
  endfacet
  facet normal 0 0 -1
    outer loop
      vertex 1.71954 -5.46545 0
      vertex 0 -3.5 0
      vertex 1.08156 -3.3287 0
    endloop
  endfacet
  facet normal 0 0 -1
    outer loop
      vertex 1.61253 -9.77878 0
      vertex -1.61253 -9.77878 0
      vertex -2.03789 -8.90651 0
    endloop
  endfacet
  facet normal -0 0 -1
    outer loop
      vertex 0 -3.5 0
      vertex -1.71954 -5.46545 0
      vertex -1.08156 -3.3287 0
    endloop
  endfacet
  facet normal 0 0 -1
    outer loop
      vertex -2.84836 -4.96721 0
      vertex -1.08156 -3.3287 0
      vertex -1.71954 -5.46545 0
    endloop
  endfacet
  facet normal -0 0 -1
    outer loop
      vertex -1.08156 -3.3287 0
      vertex -2.84836 -4.96721 0
      vertex -2.05725 -2.83156 0
    endloop
  endfacet
  facet normal 0 0 -1
    outer loop
      vertex -2.87755 -4.95036 0
      vertex -2.05725 -2.83156 0
      vertex -2.84836 -4.96721 0
    endloop
  endfacet
  facet normal 0 0 -1
    outer loop
      vertex -2.86386 -4.96037 0
      vertex -2.84836 -4.96721 0
      vertex -2.85034 -4.97026 0
    endloop
  endfacet
  facet normal 0 0 -1
    outer loop
      vertex -2.87755 -4.95036 0
      vertex -2.84836 -4.96721 0
      vertex -2.86386 -4.96037 0
    endloop
  endfacet
  facet normal 0 0 -1
    outer loop
      vertex -3.87345 -4.2219 0
      vertex -2.05725 -2.83156 0
      vertex -2.87755 -4.95036 0
    endloop
  endfacet
  facet normal -0 0 -1
    outer loop
      vertex -2.05725 -2.83156 0
      vertex -3.87345 -4.2219 0
      vertex -2.83156 -2.05725 0
    endloop
  endfacet
  facet normal 0 0 -1
    outer loop
      vertex -5.59299 -1.24356 0
      vertex -2.83156 -2.05725 0
      vertex -3.87345 -4.2219 0
    endloop
  endfacet
  facet normal 0 0 -1
    outer loop
      vertex -2.83156 -2.05725 0
      vertex -5.59299 -1.24356 0
      vertex -3.3287 -1.08156 0
    endloop
  endfacet
  facet normal 0 0 -1
    outer loop
      vertex 5.59299 1.24356 0
      vertex 3.87345 4.2219 0
      vertex 5.13007 5.59157 0
    endloop
  endfacet
  facet normal 0 0 -1
    outer loop
      vertex 5.59299 1.24356 0
      vertex 2.83156 2.05725 0
      vertex 3.87345 4.2219 0
    endloop
  endfacet
  facet normal 0 0 -1
    outer loop
      vertex 2.05725 2.83156 0
      vertex 3.87345 4.2219 0
      vertex 2.83156 2.05725 0
    endloop
  endfacet
  facet normal -0 0 -1
    outer loop
      vertex 3.87345 4.2219 0
      vertex 2.05725 2.83156 0
      vertex 2.87755 4.95036 0
    endloop
  endfacet
  facet normal 0 -0 -1
    outer loop
      vertex 2.84836 4.96721 0
      vertex 2.87755 4.95036 0
      vertex 2.05725 2.83156 0
    endloop
  endfacet
  facet normal 0 0 -1
    outer loop
      vertex 2.86386 4.96037 0
      vertex 2.84836 4.96721 0
      vertex 2.85034 4.97026 0
    endloop
  endfacet
  facet normal 0 0 -1
    outer loop
      vertex 2.87755 4.95036 0
      vertex 2.84836 4.96721 0
      vertex 2.86386 4.96037 0
    endloop
  endfacet
  facet normal 0 0 -1
    outer loop
      vertex 1.08156 3.3287 0
      vertex 2.84836 4.96721 0
      vertex 2.05725 2.83156 0
    endloop
  endfacet
  facet normal -0 0 -1
    outer loop
      vertex 2.84836 4.96721 0
      vertex 1.08156 3.3287 0
      vertex 1.71954 5.46545 0
    endloop
  endfacet
  facet normal 0 0 -1
    outer loop
      vertex 0 3.5 0
      vertex 1.71954 5.46545 0
      vertex 1.08156 3.3287 0
    endloop
  endfacet
  facet normal 0 0 -1
    outer loop
      vertex -2.2774 7.23856 0
      vertex 1.71954 5.46545 0
      vertex -1.71954 5.46545 0
    endloop
  endfacet
  facet normal 0 0 -1
    outer loop
      vertex 1.71954 5.46545 0
      vertex -2.2774 7.23856 0
      vertex 1.61253 9.77878 0
    endloop
  endfacet
  facet normal -0 0 -1
    outer loop
      vertex 1.71954 5.46545 0
      vertex 0 3.5 0
      vertex -1.71954 5.46545 0
    endloop
  endfacet
  facet normal 0 -0 -1
    outer loop
      vertex -2.27414 8.04736 0
      vertex 1.61253 9.77878 0
      vertex -2.2774 7.23856 0
    endloop
  endfacet
  facet normal -0 0 -1
    outer loop
      vertex 0.232697 11.4568 0
      vertex -1.00871 10.6373 0
      vertex -0.232697 11.4568 0
    endloop
  endfacet
  facet normal 0 0 -1
    outer loop
      vertex -1.71954 5.46545 0
      vertex 0 3.5 0
      vertex -1.08156 3.3287 0
    endloop
  endfacet
  facet normal 0 -0 -1
    outer loop
      vertex -1.00871 10.6373 0
      vertex 1.00871 10.6373 0
      vertex -1.61253 9.77878 0
    endloop
  endfacet
  facet normal 0 0 -1
    outer loop
      vertex 1.00871 10.6373 0
      vertex -1.00871 10.6373 0
      vertex 0.232697 11.4568 0
    endloop
  endfacet
  facet normal 0 0 -1
    outer loop
      vertex -2.84836 4.96721 0
      vertex -1.08156 3.3287 0
      vertex -2.05725 2.83156 0
    endloop
  endfacet
  facet normal 0 0 -1
    outer loop
      vertex -3.87345 4.2219 0
      vertex -2.05725 2.83156 0
      vertex -2.83156 2.05725 0
    endloop
  endfacet
  facet normal 0 0 -1
    outer loop
      vertex -1.08156 3.3287 0
      vertex -2.84836 4.96721 0
      vertex -1.71954 5.46545 0
    endloop
  endfacet
  facet normal 0 0 -1
    outer loop
      vertex -2.05725 2.83156 0
      vertex -2.87755 4.95036 0
      vertex -2.84836 4.96721 0
    endloop
  endfacet
  facet normal -0 0 -1
    outer loop
      vertex -2.84836 4.96721 0
      vertex -2.86386 4.96037 0
      vertex -2.85034 4.97026 0
    endloop
  endfacet
  facet normal 0 0 -1
    outer loop
      vertex -2.84836 4.96721 0
      vertex -2.87755 4.95036 0
      vertex -2.86386 4.96037 0
    endloop
  endfacet
  facet normal 0 0 -1
    outer loop
      vertex -5.59299 1.24356 0
      vertex -2.83156 2.05725 0
      vertex -3.3287 1.08156 0
    endloop
  endfacet
  facet normal 0 0 -1
    outer loop
      vertex -5.59299 1.24356 0
      vertex -3.3287 1.08156 0
      vertex -3.5 0 0
    endloop
  endfacet
  facet normal 0 0 -1
    outer loop
      vertex -2.05725 2.83156 0
      vertex -3.87345 4.2219 0
      vertex -2.87755 4.95036 0
    endloop
  endfacet
  facet normal -0 0 -1
    outer loop
      vertex -3.3287 -1.08156 0
      vertex -5.59299 -1.24356 0
      vertex -3.5 0 0
    endloop
  endfacet
  facet normal 0 0 -1
    outer loop
      vertex -5.59299 -1.24356 0
      vertex -3.87345 -4.2219 0
      vertex -5.13007 -5.59157 0
    endloop
  endfacet
  facet normal 0 0 -1
    outer loop
      vertex -5.72591 -0.0168488 0
      vertex -3.5 0 0
      vertex -5.59299 -1.24356 0
    endloop
  endfacet
  facet normal -0 0 -1
    outer loop
      vertex -2.83156 2.05725 0
      vertex -5.59299 1.24356 0
      vertex -3.87345 4.2219 0
    endloop
  endfacet
  facet normal 0 0 -1
    outer loop
      vertex -7.40748 -1.64699 0
      vertex -5.13007 -5.59157 0
      vertex -5.83215 -5.99314 0
    endloop
  endfacet
  facet normal 0 0 -1
    outer loop
      vertex -8.10629 -2.05422 0
      vertex -5.83215 -5.99314 0
      vertex -6.69432 -6.21812 0
    endloop
  endfacet
  facet normal 0 0 -1
    outer loop
      vertex -5.13007 -5.59157 0
      vertex -7.40748 -1.64699 0
      vertex -5.59299 -1.24356 0
    endloop
  endfacet
  facet normal 0 0 -1
    outer loop
      vertex -8.73221 -2.68839 0
      vertex -6.69432 -6.21812 0
      vertex -7.6624 -6.28588 0
    endloop
  endfacet
  facet normal 0 0 -1
    outer loop
      vertex -5.83215 -5.99314 0
      vertex -8.10629 -2.05422 0
      vertex -7.40748 -1.64699 0
    endloop
  endfacet
  facet normal 0 0 -1
    outer loop
      vertex -9.27494 -3.49289 0
      vertex -7.6624 -6.28588 0
      vertex -8.70779 -6.1922 0
    endloop
  endfacet
  facet normal 0 0 -1
    outer loop
      vertex -6.69432 -6.21812 0
      vertex -8.73221 -2.68839 0
      vertex -8.10629 -2.05422 0
    endloop
  endfacet
  facet normal 0 0 -1
    outer loop
      vertex -7.6624 -6.28588 0
      vertex -9.27494 -3.49289 0
      vertex -8.73221 -2.68839 0
    endloop
  endfacet
  facet normal 0 0 -1
    outer loop
      vertex -8.70779 -6.1922 0
      vertex -9.7165 -4.44506 0
      vertex -9.27494 -3.49289 0
    endloop
  endfacet
  facet normal 0 0 -1
    outer loop
      vertex -9.80552 -5.92991 0
      vertex -9.7165 -4.44506 0
      vertex -8.70779 -6.1922 0
    endloop
  endfacet
  facet normal 0 0 -1
    outer loop
      vertex -9.7165 -4.44506 0
      vertex -9.80552 -5.92991 0
      vertex -10.0382 -5.52687 0
    endloop
  endfacet
  facet normal -0 0 -1
    outer loop
      vertex 2.8792 4.9536 0
      vertex 2.87755 4.95036 0
      vertex 2.86386 4.96037 0
    endloop
  endfacet
  facet normal 0 0 -1
    outer loop
      vertex -5.72591 0.0168488 0
      vertex -3.5 0 0
      vertex -5.72591 -0.0168488 0
    endloop
  endfacet
  facet normal 0 0 -1
    outer loop
      vertex -3.5 0 0
      vertex -5.72591 0.0168488 0
      vertex -5.59299 1.24356 0
    endloop
  endfacet
  facet normal 0 0 -1
    outer loop
      vertex -5.72591 -0.0168488 0
      vertex -5.72773 0 0
      vertex -5.72591 0.0168488 0
    endloop
  endfacet
  facet normal 0 -0 -1
    outer loop
      vertex -5.72773 0 0
      vertex -5.72591 -0.0168488 0
      vertex -5.72954 -0.0166578 0
    endloop
  endfacet
  facet normal -0 0 -1
    outer loop
      vertex -3.87345 4.2219 0
      vertex -5.59299 1.24356 0
      vertex -5.13007 5.59157 0
    endloop
  endfacet
  facet normal 0 0 -1
    outer loop
      vertex -7.40748 1.64699 0
      vertex -5.13007 5.59157 0
      vertex -5.59299 1.24356 0
    endloop
  endfacet
  facet normal -0 0 -1
    outer loop
      vertex -5.13007 5.59157 0
      vertex -7.40748 1.64699 0
      vertex -5.83215 5.99314 0
    endloop
  endfacet
  facet normal 0 0 -1
    outer loop
      vertex -8.10629 2.05422 0
      vertex -5.83215 5.99314 0
      vertex -7.40748 1.64699 0
    endloop
  endfacet
  facet normal -0 0 -1
    outer loop
      vertex -5.83215 5.99314 0
      vertex -8.10629 2.05422 0
      vertex -6.69432 6.21812 0
    endloop
  endfacet
  facet normal 0 0 -1
    outer loop
      vertex -8.73221 2.68839 0
      vertex -6.69432 6.21812 0
      vertex -8.10629 2.05422 0
    endloop
  endfacet
  facet normal -0 0 -1
    outer loop
      vertex -6.69432 6.21812 0
      vertex -8.73221 2.68839 0
      vertex -7.6624 6.28588 0
    endloop
  endfacet
  facet normal 0 0 -1
    outer loop
      vertex -9.27494 3.49289 0
      vertex -7.6624 6.28588 0
      vertex -8.73221 2.68839 0
    endloop
  endfacet
  facet normal 0 0 -1
    outer loop
      vertex -7.6624 6.28588 0
      vertex -9.27494 3.49289 0
      vertex -8.70779 6.1922 0
    endloop
  endfacet
  facet normal 0 0 -1
    outer loop
      vertex -9.7165 4.44506 0
      vertex -8.70779 6.1922 0
      vertex -9.27494 3.49289 0
    endloop
  endfacet
  facet normal 0 0 -1
    outer loop
      vertex -9.7165 4.44506 0
      vertex -9.80552 5.92991 0
      vertex -8.70779 6.1922 0
    endloop
  endfacet
  facet normal 0 -0 -1
    outer loop
      vertex -9.80552 5.92991 0
      vertex -9.7165 4.44506 0
      vertex -10.0382 5.52687 0
    endloop
  endfacet
  facet normal 0 0 -1
    outer loop
      vertex -5.72591 0.0168488 0
      vertex -5.72773 0 0
      vertex -5.72954 0.0166578 0
    endloop
  endfacet
  facet normal 0 0 -1
    outer loop
      vertex -2.86386 -4.96037 0
      vertex -2.8792 -4.9536 0
      vertex -2.87755 -4.95036 0
    endloop
  endfacet
  facet normal 0 0 -1
    outer loop
      vertex 2.03789 -8.90651 0
      vertex -2.03789 -8.90651 0
      vertex -2.27414 -8.04736 0
    endloop
  endfacet
  facet normal -0 0 -1
    outer loop
      vertex 2.2774 -7.23856 0
      vertex -2.27414 -8.04736 0
      vertex -2.2774 -7.23856 0
    endloop
  endfacet
  facet normal -0 0 -1
    outer loop
      vertex 1.71954 -5.46545 0
      vertex -2.2774 -7.23856 0
      vertex -1.71954 -5.46545 0
    endloop
  endfacet
  facet normal 0 0 -1
    outer loop
      vertex 2.2774 7.23856 0
      vertex 2.03789 8.90651 0
      vertex 2.27414 8.04736 0
    endloop
  endfacet
  facet normal 0 0 -1
    outer loop
      vertex 1.71954 5.46545 0
      vertex 2.03789 8.90651 0
      vertex 2.2774 7.23856 0
    endloop
  endfacet
  facet normal -0 0 -1
    outer loop
      vertex 2.03789 8.90651 0
      vertex 1.71954 5.46545 0
      vertex 1.61253 9.77878 0
    endloop
  endfacet
  facet normal 0 0 -1
    outer loop
      vertex 1.61253 9.77878 0
      vertex -1.61253 9.77878 0
      vertex 1.00871 10.6373 0
    endloop
  endfacet
  facet normal 0 -0 -1
    outer loop
      vertex -2.03789 8.90651 0
      vertex 1.61253 9.77878 0
      vertex -2.27414 8.04736 0
    endloop
  endfacet
  facet normal 0 -0 -1
    outer loop
      vertex -1.61253 9.77878 0
      vertex 1.61253 9.77878 0
      vertex -2.03789 8.90651 0
    endloop
  endfacet
  facet normal 0 0 -1
    outer loop
      vertex -2.86386 4.96037 0
      vertex -2.87755 4.95036 0
      vertex -2.8792 4.9536 0
    endloop
  endfacet
  facet normal 0 0 1
    outer loop
      vertex -2.27414 8.04736 5
      vertex 2.27414 8.04736 5
      vertex 2.03789 8.90651 5
    endloop
  endfacet
  facet normal 0 0 1
    outer loop
      vertex 2.27414 8.04736 5
      vertex -2.27414 8.04736 5
      vertex 2.2774 7.23856 5
    endloop
  endfacet
  facet normal 0 0 1
    outer loop
      vertex -2.03789 8.90651 5
      vertex 2.03789 8.90651 5
      vertex 1.61253 9.77878 5
    endloop
  endfacet
  facet normal 0 0 1
    outer loop
      vertex 2.8792 4.9536 5
      vertex 2.86386 4.96037 5
      vertex 2.87755 4.95036 5
    endloop
  endfacet
  facet normal 0 0 1
    outer loop
      vertex 9.80552 5.92991 5
      vertex 9.7165 4.44506 5
      vertex 10.0382 5.52687 5
    endloop
  endfacet
  facet normal 0 0 1
    outer loop
      vertex 8.70779 6.1922 5
      vertex 9.7165 4.44506 5
      vertex 9.80552 5.92991 5
    endloop
  endfacet
  facet normal 0 0 1
    outer loop
      vertex 9.7165 4.44506 5
      vertex 8.70779 6.1922 5
      vertex 9.27494 3.49289 5
    endloop
  endfacet
  facet normal 0 0 1
    outer loop
      vertex 7.6624 6.28588 5
      vertex 9.27494 3.49289 5
      vertex 8.70779 6.1922 5
    endloop
  endfacet
  facet normal 0 0 1
    outer loop
      vertex 9.27494 3.49289 5
      vertex 7.6624 6.28588 5
      vertex 8.73221 2.68839 5
    endloop
  endfacet
  facet normal -0 0 1
    outer loop
      vertex 6.69432 6.21812 5
      vertex 8.73221 2.68839 5
      vertex 7.6624 6.28588 5
    endloop
  endfacet
  facet normal 0 0 1
    outer loop
      vertex 8.73221 2.68839 5
      vertex 6.69432 6.21812 5
      vertex 8.10629 2.05422 5
    endloop
  endfacet
  facet normal -0 0 1
    outer loop
      vertex 5.83215 5.99314 5
      vertex 8.10629 2.05422 5
      vertex 6.69432 6.21812 5
    endloop
  endfacet
  facet normal 0 0 1
    outer loop
      vertex 8.10629 2.05422 5
      vertex 5.83215 5.99314 5
      vertex 7.40748 1.64699 5
    endloop
  endfacet
  facet normal -0 0 1
    outer loop
      vertex 5.13007 5.59157 5
      vertex 7.40748 1.64699 5
      vertex 5.83215 5.99314 5
    endloop
  endfacet
  facet normal -0 0 1
    outer loop
      vertex 3.87345 4.2219 5
      vertex 5.59299 1.24356 5
      vertex 5.13007 5.59157 5
    endloop
  endfacet
  facet normal 0 0 1
    outer loop
      vertex 7.40748 1.64699 5
      vertex 5.13007 5.59157 5
      vertex 5.59299 1.24356 5
    endloop
  endfacet
  facet normal 0 0 1
    outer loop
      vertex 5.72954 0.0166578 5
      vertex 5.72591 0.0168488 5
      vertex 5.72773 0 5
    endloop
  endfacet
  facet normal 0 0 1
    outer loop
      vertex 5.72591 -0.0168488 5
      vertex 5.72773 0 5
      vertex 5.72591 0.0168488 5
    endloop
  endfacet
  facet normal 0 0 1
    outer loop
      vertex 5.72773 0 5
      vertex 5.72591 -0.0168488 5
      vertex 5.72954 -0.0166578 5
    endloop
  endfacet
  facet normal 0 0 1
    outer loop
      vertex 5.59299 1.24356 5
      vertex 5.72591 -0.0168488 5
      vertex 5.72591 0.0168488 5
    endloop
  endfacet
  facet normal 0 0 1
    outer loop
      vertex 5.72591 -0.0168488 5
      vertex 5.59299 1.24356 5
      vertex 5.59299 -1.24356 5
    endloop
  endfacet
  facet normal 0 0 1
    outer loop
      vertex 9.7165 -4.44506 5
      vertex 9.80552 -5.92991 5
      vertex 10.0382 -5.52687 5
    endloop
  endfacet
  facet normal 0 0 1
    outer loop
      vertex 8.70779 -6.1922 5
      vertex 9.7165 -4.44506 5
      vertex 9.27494 -3.49289 5
    endloop
  endfacet
  facet normal 0 0 1
    outer loop
      vertex 7.6624 -6.28588 5
      vertex 9.27494 -3.49289 5
      vertex 8.73221 -2.68839 5
    endloop
  endfacet
  facet normal 0 0 1
    outer loop
      vertex 9.7165 -4.44506 5
      vertex 8.70779 -6.1922 5
      vertex 9.80552 -5.92991 5
    endloop
  endfacet
  facet normal 0 0 1
    outer loop
      vertex 6.69432 -6.21812 5
      vertex 8.73221 -2.68839 5
      vertex 8.10629 -2.05422 5
    endloop
  endfacet
  facet normal 0 0 1
    outer loop
      vertex 9.27494 -3.49289 5
      vertex 7.6624 -6.28588 5
      vertex 8.70779 -6.1922 5
    endloop
  endfacet
  facet normal 0 0 1
    outer loop
      vertex 5.83215 -5.99314 5
      vertex 8.10629 -2.05422 5
      vertex 7.40748 -1.64699 5
    endloop
  endfacet
  facet normal 0 0 1
    outer loop
      vertex 8.73221 -2.68839 5
      vertex 6.69432 -6.21812 5
      vertex 7.6624 -6.28588 5
    endloop
  endfacet
  facet normal 0 0 1
    outer loop
      vertex 8.10629 -2.05422 5
      vertex 5.83215 -5.99314 5
      vertex 6.69432 -6.21812 5
    endloop
  endfacet
  facet normal 0 0 1
    outer loop
      vertex 5.13007 -5.59157 5
      vertex 7.40748 -1.64699 5
      vertex 5.59299 -1.24356 5
    endloop
  endfacet
  facet normal -0 0 1
    outer loop
      vertex 2.83156 2.05725 5
      vertex 5.59299 1.24356 5
      vertex 3.87345 4.2219 5
    endloop
  endfacet
  facet normal -0 0 1
    outer loop
      vertex 3.3287 -1.08156 5
      vertex 5.59299 -1.24356 5
      vertex 3.5 0 5
    endloop
  endfacet
  facet normal 0 -0 1
    outer loop
      vertex 3.5 0 5
      vertex 5.59299 1.24356 5
      vertex 3.3287 1.08156 5
    endloop
  endfacet
  facet normal 0 0 1
    outer loop
      vertex 2.83156 -2.05725 5
      vertex 5.59299 -1.24356 5
      vertex 3.3287 -1.08156 5
    endloop
  endfacet
  facet normal 0 0 1
    outer loop
      vertex 7.40748 -1.64699 5
      vertex 5.13007 -5.59157 5
      vertex 5.83215 -5.99314 5
    endloop
  endfacet
  facet normal 0 0 1
    outer loop
      vertex 5.59299 1.24356 5
      vertex 3.5 0 5
      vertex 5.59299 -1.24356 5
    endloop
  endfacet
  facet normal 0 0 1
    outer loop
      vertex 2.05725 2.83156 5
      vertex 3.87345 4.2219 5
      vertex 2.87755 4.95036 5
    endloop
  endfacet
  facet normal 0 0 1
    outer loop
      vertex 2.84836 4.96721 5
      vertex 2.87755 4.95036 5
      vertex 2.86386 4.96037 5
    endloop
  endfacet
  facet normal -0 0 1
    outer loop
      vertex 2.84836 4.96721 5
      vertex 2.86386 4.96037 5
      vertex 2.85034 4.97026 5
    endloop
  endfacet
  facet normal 0 0 1
    outer loop
      vertex 2.87755 4.95036 5
      vertex 2.84836 4.96721 5
      vertex 2.05725 2.83156 5
    endloop
  endfacet
  facet normal 0 0 1
    outer loop
      vertex 5.59299 1.24356 5
      vertex 2.83156 2.05725 5
      vertex 3.3287 1.08156 5
    endloop
  endfacet
  facet normal 0 0 1
    outer loop
      vertex 3.87345 4.2219 5
      vertex 2.05725 2.83156 5
      vertex 2.83156 2.05725 5
    endloop
  endfacet
  facet normal 0 0 1
    outer loop
      vertex 1.08156 3.3287 5
      vertex 2.84836 4.96721 5
      vertex 1.71954 5.46545 5
    endloop
  endfacet
  facet normal 0 0 1
    outer loop
      vertex 2.84836 4.96721 5
      vertex 1.08156 3.3287 5
      vertex 2.05725 2.83156 5
    endloop
  endfacet
  facet normal 0 0 1
    outer loop
      vertex 2.2774 7.23856 5
      vertex -2.2774 7.23856 5
      vertex 1.71954 5.46545 5
    endloop
  endfacet
  facet normal 0 0 1
    outer loop
      vertex -1.61253 9.77878 5
      vertex 1.61253 9.77878 5
      vertex 1.00871 10.6373 5
    endloop
  endfacet
  facet normal 0 0 1
    outer loop
      vertex -1.00871 10.6373 5
      vertex 1.00871 10.6373 5
      vertex 0.232697 11.4568 5
    endloop
  endfacet
  facet normal 0 -0 1
    outer loop
      vertex 0 3.5 5
      vertex 1.71954 5.46545 5
      vertex -1.71954 5.46545 5
    endloop
  endfacet
  facet normal 0 0 1
    outer loop
      vertex -1.00871 10.6373 5
      vertex 0.232697 11.4568 5
      vertex -0.232697 11.4568 5
    endloop
  endfacet
  facet normal 0 0 1
    outer loop
      vertex 1.00871 10.6373 5
      vertex -1.00871 10.6373 5
      vertex -1.61253 9.77878 5
    endloop
  endfacet
  facet normal 0 0 1
    outer loop
      vertex 1.71954 5.46545 5
      vertex 0 3.5 5
      vertex 1.08156 3.3287 5
    endloop
  endfacet
  facet normal 0 0 1
    outer loop
      vertex 1.61253 9.77878 5
      vertex -1.61253 9.77878 5
      vertex -2.03789 8.90651 5
    endloop
  endfacet
  facet normal 0 0 1
    outer loop
      vertex 0 3.5 5
      vertex -1.71954 5.46545 5
      vertex -1.08156 3.3287 5
    endloop
  endfacet
  facet normal -0 0 1
    outer loop
      vertex -2.84836 4.96721 5
      vertex -1.08156 3.3287 5
      vertex -1.71954 5.46545 5
    endloop
  endfacet
  facet normal 0 0 1
    outer loop
      vertex -1.08156 3.3287 5
      vertex -2.84836 4.96721 5
      vertex -2.05725 2.83156 5
    endloop
  endfacet
  facet normal -0 0 1
    outer loop
      vertex -2.87755 4.95036 5
      vertex -2.05725 2.83156 5
      vertex -2.84836 4.96721 5
    endloop
  endfacet
  facet normal 0 0 1
    outer loop
      vertex -2.86386 4.96037 5
      vertex -2.84836 4.96721 5
      vertex -2.85034 4.97026 5
    endloop
  endfacet
  facet normal 0 0 1
    outer loop
      vertex -2.87755 4.95036 5
      vertex -2.84836 4.96721 5
      vertex -2.86386 4.96037 5
    endloop
  endfacet
  facet normal -0 0 1
    outer loop
      vertex -3.87345 4.2219 5
      vertex -2.05725 2.83156 5
      vertex -2.87755 4.95036 5
    endloop
  endfacet
  facet normal 0 0 1
    outer loop
      vertex -2.05725 2.83156 5
      vertex -3.87345 4.2219 5
      vertex -2.83156 2.05725 5
    endloop
  endfacet
  facet normal 0 0 1
    outer loop
      vertex -5.59299 1.24356 5
      vertex -2.83156 2.05725 5
      vertex -3.87345 4.2219 5
    endloop
  endfacet
  facet normal 0 0 1
    outer loop
      vertex -2.83156 2.05725 5
      vertex -5.59299 1.24356 5
      vertex -3.3287 1.08156 5
    endloop
  endfacet
  facet normal 0 0 1
    outer loop
      vertex 5.59299 -1.24356 5
      vertex 3.87345 -4.2219 5
      vertex 5.13007 -5.59157 5
    endloop
  endfacet
  facet normal 0 0 1
    outer loop
      vertex 5.59299 -1.24356 5
      vertex 2.83156 -2.05725 5
      vertex 3.87345 -4.2219 5
    endloop
  endfacet
  facet normal -0 0 1
    outer loop
      vertex 2.05725 -2.83156 5
      vertex 3.87345 -4.2219 5
      vertex 2.83156 -2.05725 5
    endloop
  endfacet
  facet normal 0 0 1
    outer loop
      vertex 3.87345 -4.2219 5
      vertex 2.05725 -2.83156 5
      vertex 2.87755 -4.95036 5
    endloop
  endfacet
  facet normal 0 -0 1
    outer loop
      vertex 2.84836 -4.96721 5
      vertex 2.87755 -4.95036 5
      vertex 2.05725 -2.83156 5
    endloop
  endfacet
  facet normal 0 0 1
    outer loop
      vertex 2.86386 -4.96037 5
      vertex 2.84836 -4.96721 5
      vertex 2.85034 -4.97026 5
    endloop
  endfacet
  facet normal 0 0 1
    outer loop
      vertex 2.87755 -4.95036 5
      vertex 2.84836 -4.96721 5
      vertex 2.86386 -4.96037 5
    endloop
  endfacet
  facet normal -0 0 1
    outer loop
      vertex 1.08156 -3.3287 5
      vertex 2.84836 -4.96721 5
      vertex 2.05725 -2.83156 5
    endloop
  endfacet
  facet normal 0 0 1
    outer loop
      vertex 2.84836 -4.96721 5
      vertex 1.08156 -3.3287 5
      vertex 1.71954 -5.46545 5
    endloop
  endfacet
  facet normal -0 0 1
    outer loop
      vertex 0 -3.5 5
      vertex 1.71954 -5.46545 5
      vertex 1.08156 -3.3287 5
    endloop
  endfacet
  facet normal 0 0 1
    outer loop
      vertex -2.2774 -7.23856 5
      vertex 1.71954 -5.46545 5
      vertex -1.71954 -5.46545 5
    endloop
  endfacet
  facet normal 0 0 1
    outer loop
      vertex 1.71954 -5.46545 5
      vertex -2.2774 -7.23856 5
      vertex 1.61253 -9.77878 5
    endloop
  endfacet
  facet normal 0 0 1
    outer loop
      vertex 1.71954 -5.46545 5
      vertex 0 -3.5 5
      vertex -1.71954 -5.46545 5
    endloop
  endfacet
  facet normal -0 -0 1
    outer loop
      vertex -2.27414 -8.04736 5
      vertex 1.61253 -9.77878 5
      vertex -2.2774 -7.23856 5
    endloop
  endfacet
  facet normal 0 0 1
    outer loop
      vertex 0.232697 -11.4568 5
      vertex -1.00871 -10.6373 5
      vertex -0.232697 -11.4568 5
    endloop
  endfacet
  facet normal 0 0 1
    outer loop
      vertex -1.71954 -5.46545 5
      vertex 0 -3.5 5
      vertex -1.08156 -3.3287 5
    endloop
  endfacet
  facet normal 0 -0 1
    outer loop
      vertex -1.00871 -10.6373 5
      vertex 1.00871 -10.6373 5
      vertex -1.61253 -9.77878 5
    endloop
  endfacet
  facet normal 0 0 1
    outer loop
      vertex 1.00871 -10.6373 5
      vertex -1.00871 -10.6373 5
      vertex 0.232697 -11.4568 5
    endloop
  endfacet
  facet normal 0 0 1
    outer loop
      vertex -2.84836 -4.96721 5
      vertex -1.08156 -3.3287 5
      vertex -2.05725 -2.83156 5
    endloop
  endfacet
  facet normal 0 0 1
    outer loop
      vertex -3.87345 -4.2219 5
      vertex -2.05725 -2.83156 5
      vertex -2.83156 -2.05725 5
    endloop
  endfacet
  facet normal 0 0 1
    outer loop
      vertex -1.08156 -3.3287 5
      vertex -2.84836 -4.96721 5
      vertex -1.71954 -5.46545 5
    endloop
  endfacet
  facet normal 0 0 1
    outer loop
      vertex -2.05725 -2.83156 5
      vertex -2.87755 -4.95036 5
      vertex -2.84836 -4.96721 5
    endloop
  endfacet
  facet normal 0 0 1
    outer loop
      vertex -2.84836 -4.96721 5
      vertex -2.86386 -4.96037 5
      vertex -2.85034 -4.97026 5
    endloop
  endfacet
  facet normal 0 0 1
    outer loop
      vertex -2.84836 -4.96721 5
      vertex -2.87755 -4.95036 5
      vertex -2.86386 -4.96037 5
    endloop
  endfacet
  facet normal -0 0 1
    outer loop
      vertex -5.59299 -1.24356 5
      vertex -2.83156 -2.05725 5
      vertex -3.3287 -1.08156 5
    endloop
  endfacet
  facet normal 0 0 1
    outer loop
      vertex -5.59299 -1.24356 5
      vertex -3.3287 -1.08156 5
      vertex -3.5 0 5
    endloop
  endfacet
  facet normal 0 0 1
    outer loop
      vertex -2.05725 -2.83156 5
      vertex -3.87345 -4.2219 5
      vertex -2.87755 -4.95036 5
    endloop
  endfacet
  facet normal 0 0 1
    outer loop
      vertex -3.3287 1.08156 5
      vertex -5.59299 1.24356 5
      vertex -3.5 0 5
    endloop
  endfacet
  facet normal 0 0 1
    outer loop
      vertex -5.59299 1.24356 5
      vertex -3.87345 4.2219 5
      vertex -5.13007 5.59157 5
    endloop
  endfacet
  facet normal -0 0 1
    outer loop
      vertex -5.72591 0.0168488 5
      vertex -3.5 0 5
      vertex -5.59299 1.24356 5
    endloop
  endfacet
  facet normal 0 0 1
    outer loop
      vertex -2.83156 -2.05725 5
      vertex -5.59299 -1.24356 5
      vertex -3.87345 -4.2219 5
    endloop
  endfacet
  facet normal 0 0 1
    outer loop
      vertex -7.40748 1.64699 5
      vertex -5.13007 5.59157 5
      vertex -5.83215 5.99314 5
    endloop
  endfacet
  facet normal 0 0 1
    outer loop
      vertex -8.10629 2.05422 5
      vertex -5.83215 5.99314 5
      vertex -6.69432 6.21812 5
    endloop
  endfacet
  facet normal 0 0 1
    outer loop
      vertex -5.13007 5.59157 5
      vertex -7.40748 1.64699 5
      vertex -5.59299 1.24356 5
    endloop
  endfacet
  facet normal 0 0 1
    outer loop
      vertex -8.73221 2.68839 5
      vertex -6.69432 6.21812 5
      vertex -7.6624 6.28588 5
    endloop
  endfacet
  facet normal 0 0 1
    outer loop
      vertex -5.83215 5.99314 5
      vertex -8.10629 2.05422 5
      vertex -7.40748 1.64699 5
    endloop
  endfacet
  facet normal 0 0 1
    outer loop
      vertex -9.27494 3.49289 5
      vertex -7.6624 6.28588 5
      vertex -8.70779 6.1922 5
    endloop
  endfacet
  facet normal 0 0 1
    outer loop
      vertex -6.69432 6.21812 5
      vertex -8.73221 2.68839 5
      vertex -8.10629 2.05422 5
    endloop
  endfacet
  facet normal 0 0 1
    outer loop
      vertex -7.6624 6.28588 5
      vertex -9.27494 3.49289 5
      vertex -8.73221 2.68839 5
    endloop
  endfacet
  facet normal 0 0 1
    outer loop
      vertex -8.70779 6.1922 5
      vertex -9.7165 4.44506 5
      vertex -9.27494 3.49289 5
    endloop
  endfacet
  facet normal -0 0 1
    outer loop
      vertex -9.80552 5.92991 5
      vertex -9.7165 4.44506 5
      vertex -8.70779 6.1922 5
    endloop
  endfacet
  facet normal 0 0 1
    outer loop
      vertex -9.7165 4.44506 5
      vertex -9.80552 5.92991 5
      vertex -10.0382 5.52687 5
    endloop
  endfacet
  facet normal 0 0 1
    outer loop
      vertex 2.8792 -4.9536 5
      vertex 2.87755 -4.95036 5
      vertex 2.86386 -4.96037 5
    endloop
  endfacet
  facet normal 0 0 1
    outer loop
      vertex -5.72591 -0.0168488 5
      vertex -3.5 0 5
      vertex -5.72591 0.0168488 5
    endloop
  endfacet
  facet normal 0 0 1
    outer loop
      vertex -3.5 0 5
      vertex -5.72591 -0.0168488 5
      vertex -5.59299 -1.24356 5
    endloop
  endfacet
  facet normal 0 0 1
    outer loop
      vertex -5.72591 0.0168488 5
      vertex -5.72773 0 5
      vertex -5.72591 -0.0168488 5
    endloop
  endfacet
  facet normal 0 -0 1
    outer loop
      vertex -5.72773 0 5
      vertex -5.72591 0.0168488 5
      vertex -5.72954 0.0166578 5
    endloop
  endfacet
  facet normal 0 0 1
    outer loop
      vertex -3.87345 -4.2219 5
      vertex -5.59299 -1.24356 5
      vertex -5.13007 -5.59157 5
    endloop
  endfacet
  facet normal -0 0 1
    outer loop
      vertex -7.40748 -1.64699 5
      vertex -5.13007 -5.59157 5
      vertex -5.59299 -1.24356 5
    endloop
  endfacet
  facet normal 0 0 1
    outer loop
      vertex -5.13007 -5.59157 5
      vertex -7.40748 -1.64699 5
      vertex -5.83215 -5.99314 5
    endloop
  endfacet
  facet normal -0 0 1
    outer loop
      vertex -8.10629 -2.05422 5
      vertex -5.83215 -5.99314 5
      vertex -7.40748 -1.64699 5
    endloop
  endfacet
  facet normal 0 0 1
    outer loop
      vertex -5.83215 -5.99314 5
      vertex -8.10629 -2.05422 5
      vertex -6.69432 -6.21812 5
    endloop
  endfacet
  facet normal -0 0 1
    outer loop
      vertex -8.73221 -2.68839 5
      vertex -6.69432 -6.21812 5
      vertex -8.10629 -2.05422 5
    endloop
  endfacet
  facet normal 0 0 1
    outer loop
      vertex -6.69432 -6.21812 5
      vertex -8.73221 -2.68839 5
      vertex -7.6624 -6.28588 5
    endloop
  endfacet
  facet normal -0 0 1
    outer loop
      vertex -9.27494 -3.49289 5
      vertex -7.6624 -6.28588 5
      vertex -8.73221 -2.68839 5
    endloop
  endfacet
  facet normal 0 0 1
    outer loop
      vertex -7.6624 -6.28588 5
      vertex -9.27494 -3.49289 5
      vertex -8.70779 -6.1922 5
    endloop
  endfacet
  facet normal -0 0 1
    outer loop
      vertex -9.7165 -4.44506 5
      vertex -8.70779 -6.1922 5
      vertex -9.27494 -3.49289 5
    endloop
  endfacet
  facet normal 0 0 1
    outer loop
      vertex -9.7165 -4.44506 5
      vertex -9.80552 -5.92991 5
      vertex -8.70779 -6.1922 5
    endloop
  endfacet
  facet normal 0 -0 1
    outer loop
      vertex -9.80552 -5.92991 5
      vertex -9.7165 -4.44506 5
      vertex -10.0382 -5.52687 5
    endloop
  endfacet
  facet normal 0 0 1
    outer loop
      vertex -5.72591 -0.0168488 5
      vertex -5.72773 0 5
      vertex -5.72954 -0.0166578 5
    endloop
  endfacet
  facet normal 0 0 1
    outer loop
      vertex -2.86386 4.96037 5
      vertex -2.8792 4.9536 5
      vertex -2.87755 4.95036 5
    endloop
  endfacet
  facet normal 0 0 1
    outer loop
      vertex 2.03789 8.90651 5
      vertex -2.03789 8.90651 5
      vertex -2.27414 8.04736 5
    endloop
  endfacet
  facet normal 0 0 1
    outer loop
      vertex 2.2774 7.23856 5
      vertex -2.27414 8.04736 5
      vertex -2.2774 7.23856 5
    endloop
  endfacet
  facet normal 0 0 1
    outer loop
      vertex 1.71954 5.46545 5
      vertex -2.2774 7.23856 5
      vertex -1.71954 5.46545 5
    endloop
  endfacet
  facet normal 0 0 1
    outer loop
      vertex 2.2774 -7.23856 5
      vertex 2.03789 -8.90651 5
      vertex 2.27414 -8.04736 5
    endloop
  endfacet
  facet normal 0 0 1
    outer loop
      vertex 1.71954 -5.46545 5
      vertex 2.03789 -8.90651 5
      vertex 2.2774 -7.23856 5
    endloop
  endfacet
  facet normal 0 0 1
    outer loop
      vertex 2.03789 -8.90651 5
      vertex 1.71954 -5.46545 5
      vertex 1.61253 -9.77878 5
    endloop
  endfacet
  facet normal 0 0 1
    outer loop
      vertex 1.61253 -9.77878 5
      vertex -1.61253 -9.77878 5
      vertex 1.00871 -10.6373 5
    endloop
  endfacet
  facet normal -0 -0 1
    outer loop
      vertex -2.03789 -8.90651 5
      vertex 1.61253 -9.77878 5
      vertex -2.27414 -8.04736 5
    endloop
  endfacet
  facet normal 0 -0 1
    outer loop
      vertex -1.61253 -9.77878 5
      vertex 1.61253 -9.77878 5
      vertex -2.03789 -8.90651 5
    endloop
  endfacet
  facet normal 0 0 1
    outer loop
      vertex -2.86386 -4.96037 5
      vertex -2.87755 -4.95036 5
      vertex -2.8792 -4.9536 5
    endloop
  endfacet
  facet normal 0.403758 0.914866 -0
    outer loop
      vertex 2.8792 4.9536 0
      vertex 2.86386 4.96037 5
      vertex 2.8792 4.9536 5
    endloop
  endfacet
  facet normal 0.403758 0.914866 0
    outer loop
      vertex 2.86386 4.96037 5
      vertex 2.8792 4.9536 0
      vertex 2.86386 4.96037 0
    endloop
  endfacet
  facet normal 0.403797 0.914849 -0
    outer loop
      vertex 2.84836 4.96721 0
      vertex 1.71954 5.46545 5
      vertex 2.84836 4.96721 5
    endloop
  endfacet
  facet normal 0.403797 0.914849 0
    outer loop
      vertex 1.71954 5.46545 5
      vertex 2.84836 4.96721 0
      vertex 1.71954 5.46545 0
    endloop
  endfacet
  facet normal 0.953902 -0.300119 0
    outer loop
      vertex 1.71954 5.46545 5
      vertex 2.2774 7.23856 0
      vertex 2.2774 7.23856 5
    endloop
  endfacet
  facet normal 0.953902 -0.300119 0
    outer loop
      vertex 2.2774 7.23856 0
      vertex 1.71954 5.46545 5
      vertex 1.71954 5.46545 0
    endloop
  endfacet
  facet normal 0.999992 0.00403063 0
    outer loop
      vertex 2.2774 7.23856 5
      vertex 2.27414 8.04736 0
      vertex 2.27414 8.04736 5
    endloop
  endfacet
  facet normal 0.999992 0.00403063 0
    outer loop
      vertex 2.27414 8.04736 0
      vertex 2.2774 7.23856 5
      vertex 2.2774 7.23856 0
    endloop
  endfacet
  facet normal 0.96421 0.26514 0
    outer loop
      vertex 2.27414 8.04736 5
      vertex 2.03789 8.90651 0
      vertex 2.03789 8.90651 5
    endloop
  endfacet
  facet normal 0.96421 0.26514 0
    outer loop
      vertex 2.03789 8.90651 0
      vertex 2.27414 8.04736 5
      vertex 2.27414 8.04736 0
    endloop
  endfacet
  facet normal 0.898824 0.438309 0
    outer loop
      vertex 2.03789 8.90651 5
      vertex 1.61253 9.77878 0
      vertex 1.61253 9.77878 5
    endloop
  endfacet
  facet normal 0.898824 0.438309 0
    outer loop
      vertex 1.61253 9.77878 0
      vertex 2.03789 8.90651 5
      vertex 2.03789 8.90651 0
    endloop
  endfacet
  facet normal 0.817952 0.575287 0
    outer loop
      vertex 1.61253 9.77878 5
      vertex 1.00871 10.6373 0
      vertex 1.00871 10.6373 5
    endloop
  endfacet
  facet normal 0.817952 0.575287 0
    outer loop
      vertex 1.00871 10.6373 0
      vertex 1.61253 9.77878 5
      vertex 1.61253 9.77878 0
    endloop
  endfacet
  facet normal 0.72611 0.687579 0
    outer loop
      vertex 1.00871 10.6373 5
      vertex 0.232697 11.4568 0
      vertex 0.232697 11.4568 5
    endloop
  endfacet
  facet normal 0.72611 0.687579 0
    outer loop
      vertex 0.232697 11.4568 0
      vertex 1.00871 10.6373 5
      vertex 1.00871 10.6373 0
    endloop
  endfacet
  facet normal 0 1 -0
    outer loop
      vertex 0.232697 11.4568 0
      vertex -0.232697 11.4568 5
      vertex 0.232697 11.4568 5
    endloop
  endfacet
  facet normal 0 1 0
    outer loop
      vertex -0.232697 11.4568 5
      vertex 0.232697 11.4568 0
      vertex -0.232697 11.4568 0
    endloop
  endfacet
  facet normal -0.72611 0.687579 0
    outer loop
      vertex -1.00871 10.6373 0
      vertex -0.232697 11.4568 5
      vertex -0.232697 11.4568 0
    endloop
  endfacet
  facet normal -0.72611 0.687579 0
    outer loop
      vertex -0.232697 11.4568 5
      vertex -1.00871 10.6373 0
      vertex -1.00871 10.6373 5
    endloop
  endfacet
  facet normal -0.817952 0.575287 0
    outer loop
      vertex -1.61253 9.77878 0
      vertex -1.00871 10.6373 5
      vertex -1.00871 10.6373 0
    endloop
  endfacet
  facet normal -0.817952 0.575287 0
    outer loop
      vertex -1.00871 10.6373 5
      vertex -1.61253 9.77878 0
      vertex -1.61253 9.77878 5
    endloop
  endfacet
  facet normal -0.898824 0.438309 0
    outer loop
      vertex -2.03789 8.90651 0
      vertex -1.61253 9.77878 5
      vertex -1.61253 9.77878 0
    endloop
  endfacet
  facet normal -0.898824 0.438309 0
    outer loop
      vertex -1.61253 9.77878 5
      vertex -2.03789 8.90651 0
      vertex -2.03789 8.90651 5
    endloop
  endfacet
  facet normal -0.96421 0.26514 0
    outer loop
      vertex -2.27414 8.04736 0
      vertex -2.03789 8.90651 5
      vertex -2.03789 8.90651 0
    endloop
  endfacet
  facet normal -0.96421 0.26514 0
    outer loop
      vertex -2.03789 8.90651 5
      vertex -2.27414 8.04736 0
      vertex -2.27414 8.04736 5
    endloop
  endfacet
  facet normal -0.999992 0.00403063 0
    outer loop
      vertex -2.2774 7.23856 0
      vertex -2.27414 8.04736 5
      vertex -2.27414 8.04736 0
    endloop
  endfacet
  facet normal -0.999992 0.00403063 0
    outer loop
      vertex -2.27414 8.04736 5
      vertex -2.2774 7.23856 0
      vertex -2.2774 7.23856 5
    endloop
  endfacet
  facet normal -0.953902 -0.300119 0
    outer loop
      vertex -1.71954 5.46545 0
      vertex -2.2774 7.23856 5
      vertex -2.2774 7.23856 0
    endloop
  endfacet
  facet normal -0.953902 -0.300119 0
    outer loop
      vertex -2.2774 7.23856 5
      vertex -1.71954 5.46545 0
      vertex -1.71954 5.46545 5
    endloop
  endfacet
  facet normal -0.403797 0.914849 0
    outer loop
      vertex -1.71954 5.46545 0
      vertex -2.84836 4.96721 5
      vertex -1.71954 5.46545 5
    endloop
  endfacet
  facet normal -0.403797 0.914849 0
    outer loop
      vertex -2.84836 4.96721 5
      vertex -1.71954 5.46545 0
      vertex -2.84836 4.96721 0
    endloop
  endfacet
  facet normal -0.403758 0.914866 0
    outer loop
      vertex -2.86386 4.96037 0
      vertex -2.8792 4.9536 5
      vertex -2.86386 4.96037 5
    endloop
  endfacet
  facet normal -0.403758 0.914866 0
    outer loop
      vertex -2.8792 4.9536 5
      vertex -2.86386 4.96037 0
      vertex -2.8792 4.9536 0
    endloop
  endfacet
  facet normal -0.891102 -0.453802 0
    outer loop
      vertex -2.87755 4.95036 0
      vertex -2.8792 4.9536 5
      vertex -2.8792 4.9536 0
    endloop
  endfacet
  facet normal -0.891102 -0.453802 0
    outer loop
      vertex -2.8792 4.9536 5
      vertex -2.87755 4.95036 0
      vertex -2.87755 4.95036 5
    endloop
  endfacet
  facet normal 0.891102 -0.453802 0
    outer loop
      vertex 2.87755 4.95036 5
      vertex 2.8792 4.9536 0
      vertex 2.8792 4.9536 5
    endloop
  endfacet
  facet normal 0.891102 -0.453802 0
    outer loop
      vertex 2.8792 4.9536 0
      vertex 2.87755 4.95036 5
      vertex 2.87755 4.95036 0
    endloop
  endfacet
  facet normal -0.590406 0.807107 0
    outer loop
      vertex -2.85034 4.97026 0
      vertex -2.86386 4.96037 5
      vertex -2.85034 4.97026 5
    endloop
  endfacet
  facet normal -0.590406 0.807107 0
    outer loop
      vertex -2.86386 4.96037 5
      vertex -2.85034 4.97026 0
      vertex -2.86386 4.96037 0
    endloop
  endfacet
  facet normal -0.590379 0.807126 0
    outer loop
      vertex -2.87755 4.95036 0
      vertex -3.87345 4.2219 5
      vertex -2.87755 4.95036 5
    endloop
  endfacet
  facet normal -0.590379 0.807126 0
    outer loop
      vertex -3.87345 4.2219 5
      vertex -2.87755 4.95036 0
      vertex -3.87345 4.2219 0
    endloop
  endfacet
  facet normal 0.736862 0.676043 0
    outer loop
      vertex -3.87345 4.2219 5
      vertex -5.13007 5.59157 0
      vertex -5.13007 5.59157 5
    endloop
  endfacet
  facet normal 0.736862 0.676043 0
    outer loop
      vertex -5.13007 5.59157 0
      vertex -3.87345 4.2219 5
      vertex -3.87345 4.2219 0
    endloop
  endfacet
  facet normal 0.496494 0.86804 -0
    outer loop
      vertex -5.13007 5.59157 0
      vertex -5.83215 5.99314 5
      vertex -5.13007 5.59157 5
    endloop
  endfacet
  facet normal 0.496494 0.86804 0
    outer loop
      vertex -5.83215 5.99314 5
      vertex -5.13007 5.59157 0
      vertex -5.83215 5.99314 0
    endloop
  endfacet
  facet normal 0.252491 0.967599 -0
    outer loop
      vertex -5.83215 5.99314 0
      vertex -6.69432 6.21812 5
      vertex -5.83215 5.99314 5
    endloop
  endfacet
  facet normal 0.252491 0.967599 0
    outer loop
      vertex -6.69432 6.21812 5
      vertex -5.83215 5.99314 0
      vertex -6.69432 6.21812 0
    endloop
  endfacet
  facet normal 0.0698234 0.997559 -0
    outer loop
      vertex -6.69432 6.21812 0
      vertex -7.6624 6.28588 5
      vertex -6.69432 6.21812 5
    endloop
  endfacet
  facet normal 0.0698234 0.997559 0
    outer loop
      vertex -7.6624 6.28588 5
      vertex -6.69432 6.21812 0
      vertex -7.6624 6.28588 0
    endloop
  endfacet
  facet normal -0.0892548 0.996009 0
    outer loop
      vertex -7.6624 6.28588 0
      vertex -8.70779 6.1922 5
      vertex -7.6624 6.28588 5
    endloop
  endfacet
  facet normal -0.0892548 0.996009 0
    outer loop
      vertex -8.70779 6.1922 5
      vertex -7.6624 6.28588 0
      vertex -8.70779 6.1922 0
    endloop
  endfacet
  facet normal -0.232397 0.972621 0
    outer loop
      vertex -8.70779 6.1922 0
      vertex -9.80552 5.92991 5
      vertex -8.70779 6.1922 5
    endloop
  endfacet
  facet normal -0.232397 0.972621 0
    outer loop
      vertex -9.80552 5.92991 5
      vertex -8.70779 6.1922 0
      vertex -9.80552 5.92991 0
    endloop
  endfacet
  facet normal -0.86604 0.499975 0
    outer loop
      vertex -10.0382 5.52687 0
      vertex -9.80552 5.92991 5
      vertex -9.80552 5.92991 0
    endloop
  endfacet
  facet normal -0.86604 0.499975 0
    outer loop
      vertex -9.80552 5.92991 5
      vertex -10.0382 5.52687 0
      vertex -10.0382 5.52687 5
    endloop
  endfacet
  facet normal -0.958517 -0.285036 0
    outer loop
      vertex -9.7165 4.44506 0
      vertex -10.0382 5.52687 5
      vertex -10.0382 5.52687 0
    endloop
  endfacet
  facet normal -0.958517 -0.285036 0
    outer loop
      vertex -10.0382 5.52687 5
      vertex -9.7165 4.44506 0
      vertex -9.7165 4.44506 5
    endloop
  endfacet
  facet normal -0.907198 -0.420705 0
    outer loop
      vertex -9.27494 3.49289 0
      vertex -9.7165 4.44506 5
      vertex -9.7165 4.44506 0
    endloop
  endfacet
  facet normal -0.907198 -0.420705 0
    outer loop
      vertex -9.7165 4.44506 5
      vertex -9.27494 3.49289 0
      vertex -9.27494 3.49289 5
    endloop
  endfacet
  facet normal -0.828996 -0.559255 0
    outer loop
      vertex -8.73221 2.68839 0
      vertex -9.27494 3.49289 5
      vertex -9.27494 3.49289 0
    endloop
  endfacet
  facet normal -0.828996 -0.559255 0
    outer loop
      vertex -9.27494 3.49289 5
      vertex -8.73221 2.68839 0
      vertex -8.73221 2.68839 5
    endloop
  endfacet
  facet normal -0.711721 -0.702462 0
    outer loop
      vertex -8.10629 2.05422 0
      vertex -8.73221 2.68839 5
      vertex -8.73221 2.68839 0
    endloop
  endfacet
  facet normal -0.711721 -0.702462 0
    outer loop
      vertex -8.73221 2.68839 5
      vertex -8.10629 2.05422 0
      vertex -8.10629 2.05422 5
    endloop
  endfacet
  facet normal -0.503494 -0.863999 0
    outer loop
      vertex -8.10629 2.05422 0
      vertex -7.40748 1.64699 5
      vertex -8.10629 2.05422 5
    endloop
  endfacet
  facet normal -0.503494 -0.863999 -0
    outer loop
      vertex -7.40748 1.64699 5
      vertex -8.10629 2.05422 0
      vertex -7.40748 1.64699 0
    endloop
  endfacet
  facet normal -0.217038 -0.976163 0
    outer loop
      vertex -7.40748 1.64699 0
      vertex -5.59299 1.24356 5
      vertex -7.40748 1.64699 5
    endloop
  endfacet
  facet normal -0.217038 -0.976163 -0
    outer loop
      vertex -5.59299 1.24356 5
      vertex -7.40748 1.64699 0
      vertex -5.59299 1.24356 0
    endloop
  endfacet
  facet normal -0.994181 0.107724 0
    outer loop
      vertex -5.72591 0.0168488 0
      vertex -5.59299 1.24356 5
      vertex -5.59299 1.24356 0
    endloop
  endfacet
  facet normal -0.994181 0.107724 0
    outer loop
      vertex -5.59299 1.24356 5
      vertex -5.72591 0.0168488 0
      vertex -5.72591 0.0168488 5
    endloop
  endfacet
  facet normal -0.994149 0.108022 0
    outer loop
      vertex -5.72954 -0.0166578 0
      vertex -5.72773 0 5
      vertex -5.72773 0 0
    endloop
  endfacet
  facet normal -0.994149 0.108022 0
    outer loop
      vertex -5.72773 0 5
      vertex -5.72954 -0.0166578 0
      vertex -5.72954 -0.0166578 5
    endloop
  endfacet
  facet normal -0.0525444 -0.998619 0
    outer loop
      vertex -5.72954 -0.0166578 0
      vertex -5.72591 -0.0168488 5
      vertex -5.72954 -0.0166578 5
    endloop
  endfacet
  facet normal -0.0525444 -0.998619 -0
    outer loop
      vertex -5.72591 -0.0168488 5
      vertex -5.72954 -0.0166578 0
      vertex -5.72591 -0.0168488 0
    endloop
  endfacet
  facet normal 0.838758 0.544505 0
    outer loop
      vertex -2.84836 4.96721 5
      vertex -2.85034 4.97026 0
      vertex -2.85034 4.97026 5
    endloop
  endfacet
  facet normal 0.838758 0.544505 0
    outer loop
      vertex -2.85034 4.97026 0
      vertex -2.84836 4.96721 5
      vertex -2.84836 4.96721 0
    endloop
  endfacet
  facet normal -0.994149 -0.108022 0
    outer loop
      vertex -5.72773 0 0
      vertex -5.72954 0.0166578 5
      vertex -5.72954 0.0166578 0
    endloop
  endfacet
  facet normal -0.994149 -0.108022 0
    outer loop
      vertex -5.72954 0.0166578 5
      vertex -5.72773 0 0
      vertex -5.72773 0 5
    endloop
  endfacet
  facet normal -0.994181 -0.107724 0
    outer loop
      vertex -5.59299 -1.24356 0
      vertex -5.72591 -0.0168488 5
      vertex -5.72591 -0.0168488 0
    endloop
  endfacet
  facet normal -0.994181 -0.107724 0
    outer loop
      vertex -5.72591 -0.0168488 5
      vertex -5.59299 -1.24356 0
      vertex -5.59299 -1.24356 5
    endloop
  endfacet
  facet normal -0.217038 0.976163 0
    outer loop
      vertex -5.59299 -1.24356 0
      vertex -7.40748 -1.64699 5
      vertex -5.59299 -1.24356 5
    endloop
  endfacet
  facet normal -0.217038 0.976163 0
    outer loop
      vertex -7.40748 -1.64699 5
      vertex -5.59299 -1.24356 0
      vertex -7.40748 -1.64699 0
    endloop
  endfacet
  facet normal -0.503494 0.863999 0
    outer loop
      vertex -7.40748 -1.64699 0
      vertex -8.10629 -2.05422 5
      vertex -7.40748 -1.64699 5
    endloop
  endfacet
  facet normal -0.503494 0.863999 0
    outer loop
      vertex -8.10629 -2.05422 5
      vertex -7.40748 -1.64699 0
      vertex -8.10629 -2.05422 0
    endloop
  endfacet
  facet normal -0.711721 0.702462 0
    outer loop
      vertex -8.73221 -2.68839 0
      vertex -8.10629 -2.05422 5
      vertex -8.10629 -2.05422 0
    endloop
  endfacet
  facet normal -0.711721 0.702462 0
    outer loop
      vertex -8.10629 -2.05422 5
      vertex -8.73221 -2.68839 0
      vertex -8.73221 -2.68839 5
    endloop
  endfacet
  facet normal -0.828996 0.559255 0
    outer loop
      vertex -9.27494 -3.49289 0
      vertex -8.73221 -2.68839 5
      vertex -8.73221 -2.68839 0
    endloop
  endfacet
  facet normal -0.828996 0.559255 0
    outer loop
      vertex -8.73221 -2.68839 5
      vertex -9.27494 -3.49289 0
      vertex -9.27494 -3.49289 5
    endloop
  endfacet
  facet normal -0.907198 0.420705 0
    outer loop
      vertex -9.7165 -4.44506 0
      vertex -9.27494 -3.49289 5
      vertex -9.27494 -3.49289 0
    endloop
  endfacet
  facet normal -0.907198 0.420705 0
    outer loop
      vertex -9.27494 -3.49289 5
      vertex -9.7165 -4.44506 0
      vertex -9.7165 -4.44506 5
    endloop
  endfacet
  facet normal -0.958517 0.285036 0
    outer loop
      vertex -10.0382 -5.52687 0
      vertex -9.7165 -4.44506 5
      vertex -9.7165 -4.44506 0
    endloop
  endfacet
  facet normal -0.958517 0.285036 0
    outer loop
      vertex -9.7165 -4.44506 5
      vertex -10.0382 -5.52687 0
      vertex -10.0382 -5.52687 5
    endloop
  endfacet
  facet normal -0.86604 -0.499975 0
    outer loop
      vertex -9.80552 -5.92991 0
      vertex -10.0382 -5.52687 5
      vertex -10.0382 -5.52687 0
    endloop
  endfacet
  facet normal -0.86604 -0.499975 0
    outer loop
      vertex -10.0382 -5.52687 5
      vertex -9.80552 -5.92991 0
      vertex -9.80552 -5.92991 5
    endloop
  endfacet
  facet normal -0.232397 -0.972621 0
    outer loop
      vertex -9.80552 -5.92991 0
      vertex -8.70779 -6.1922 5
      vertex -9.80552 -5.92991 5
    endloop
  endfacet
  facet normal -0.232397 -0.972621 -0
    outer loop
      vertex -8.70779 -6.1922 5
      vertex -9.80552 -5.92991 0
      vertex -8.70779 -6.1922 0
    endloop
  endfacet
  facet normal -0.0892548 -0.996009 0
    outer loop
      vertex -8.70779 -6.1922 0
      vertex -7.6624 -6.28588 5
      vertex -8.70779 -6.1922 5
    endloop
  endfacet
  facet normal -0.0892548 -0.996009 -0
    outer loop
      vertex -7.6624 -6.28588 5
      vertex -8.70779 -6.1922 0
      vertex -7.6624 -6.28588 0
    endloop
  endfacet
  facet normal 0.0698234 -0.997559 0
    outer loop
      vertex -7.6624 -6.28588 0
      vertex -6.69432 -6.21812 5
      vertex -7.6624 -6.28588 5
    endloop
  endfacet
  facet normal 0.0698234 -0.997559 0
    outer loop
      vertex -6.69432 -6.21812 5
      vertex -7.6624 -6.28588 0
      vertex -6.69432 -6.21812 0
    endloop
  endfacet
  facet normal 0.252491 -0.967599 0
    outer loop
      vertex -6.69432 -6.21812 0
      vertex -5.83215 -5.99314 5
      vertex -6.69432 -6.21812 5
    endloop
  endfacet
  facet normal 0.252491 -0.967599 0
    outer loop
      vertex -5.83215 -5.99314 5
      vertex -6.69432 -6.21812 0
      vertex -5.83215 -5.99314 0
    endloop
  endfacet
  facet normal 0.496494 -0.86804 0
    outer loop
      vertex -5.83215 -5.99314 0
      vertex -5.13007 -5.59157 5
      vertex -5.83215 -5.99314 5
    endloop
  endfacet
  facet normal 0.496494 -0.86804 0
    outer loop
      vertex -5.13007 -5.59157 5
      vertex -5.83215 -5.99314 0
      vertex -5.13007 -5.59157 0
    endloop
  endfacet
  facet normal 0.736862 -0.676043 0
    outer loop
      vertex -5.13007 -5.59157 5
      vertex -3.87345 -4.2219 0
      vertex -3.87345 -4.2219 5
    endloop
  endfacet
  facet normal 0.736862 -0.676043 0
    outer loop
      vertex -3.87345 -4.2219 0
      vertex -5.13007 -5.59157 5
      vertex -5.13007 -5.59157 0
    endloop
  endfacet
  facet normal -0.590379 -0.807126 0
    outer loop
      vertex -3.87345 -4.2219 0
      vertex -2.87755 -4.95036 5
      vertex -3.87345 -4.2219 5
    endloop
  endfacet
  facet normal -0.590379 -0.807126 -0
    outer loop
      vertex -2.87755 -4.95036 5
      vertex -3.87345 -4.2219 0
      vertex -2.87755 -4.95036 0
    endloop
  endfacet
  facet normal -0.590406 -0.807107 0
    outer loop
      vertex -2.86386 -4.96037 0
      vertex -2.85034 -4.97026 5
      vertex -2.86386 -4.96037 5
    endloop
  endfacet
  facet normal -0.590406 -0.807107 -0
    outer loop
      vertex -2.85034 -4.97026 5
      vertex -2.86386 -4.96037 0
      vertex -2.85034 -4.97026 0
    endloop
  endfacet
  facet normal 0.838758 -0.544505 0
    outer loop
      vertex -2.85034 -4.97026 5
      vertex -2.84836 -4.96721 0
      vertex -2.84836 -4.96721 5
    endloop
  endfacet
  facet normal 0.838758 -0.544505 0
    outer loop
      vertex -2.84836 -4.96721 0
      vertex -2.85034 -4.97026 5
      vertex -2.85034 -4.97026 0
    endloop
  endfacet
  facet normal -0.0525444 0.998619 0
    outer loop
      vertex -5.72591 0.0168488 0
      vertex -5.72954 0.0166578 5
      vertex -5.72591 0.0168488 5
    endloop
  endfacet
  facet normal -0.0525444 0.998619 0
    outer loop
      vertex -5.72954 0.0166578 5
      vertex -5.72591 0.0168488 0
      vertex -5.72954 0.0166578 0
    endloop
  endfacet
  facet normal -0.403758 -0.914866 0
    outer loop
      vertex -2.8792 -4.9536 0
      vertex -2.86386 -4.96037 5
      vertex -2.8792 -4.9536 5
    endloop
  endfacet
  facet normal -0.403758 -0.914866 -0
    outer loop
      vertex -2.86386 -4.96037 5
      vertex -2.8792 -4.9536 0
      vertex -2.86386 -4.96037 0
    endloop
  endfacet
  facet normal -0.403797 -0.914849 0
    outer loop
      vertex -2.84836 -4.96721 0
      vertex -1.71954 -5.46545 5
      vertex -2.84836 -4.96721 5
    endloop
  endfacet
  facet normal -0.403797 -0.914849 -0
    outer loop
      vertex -1.71954 -5.46545 5
      vertex -2.84836 -4.96721 0
      vertex -1.71954 -5.46545 0
    endloop
  endfacet
  facet normal -0.953902 0.300119 0
    outer loop
      vertex -2.2774 -7.23856 0
      vertex -1.71954 -5.46545 5
      vertex -1.71954 -5.46545 0
    endloop
  endfacet
  facet normal -0.953902 0.300119 0
    outer loop
      vertex -1.71954 -5.46545 5
      vertex -2.2774 -7.23856 0
      vertex -2.2774 -7.23856 5
    endloop
  endfacet
  facet normal -0.999992 -0.00403063 0
    outer loop
      vertex -2.27414 -8.04736 0
      vertex -2.2774 -7.23856 5
      vertex -2.2774 -7.23856 0
    endloop
  endfacet
  facet normal -0.999992 -0.00403063 0
    outer loop
      vertex -2.2774 -7.23856 5
      vertex -2.27414 -8.04736 0
      vertex -2.27414 -8.04736 5
    endloop
  endfacet
  facet normal -0.96421 -0.26514 0
    outer loop
      vertex -2.03789 -8.90651 0
      vertex -2.27414 -8.04736 5
      vertex -2.27414 -8.04736 0
    endloop
  endfacet
  facet normal -0.96421 -0.26514 0
    outer loop
      vertex -2.27414 -8.04736 5
      vertex -2.03789 -8.90651 0
      vertex -2.03789 -8.90651 5
    endloop
  endfacet
  facet normal -0.898824 -0.438309 0
    outer loop
      vertex -1.61253 -9.77878 0
      vertex -2.03789 -8.90651 5
      vertex -2.03789 -8.90651 0
    endloop
  endfacet
  facet normal -0.898824 -0.438309 0
    outer loop
      vertex -2.03789 -8.90651 5
      vertex -1.61253 -9.77878 0
      vertex -1.61253 -9.77878 5
    endloop
  endfacet
  facet normal -0.817952 -0.575287 0
    outer loop
      vertex -1.00871 -10.6373 0
      vertex -1.61253 -9.77878 5
      vertex -1.61253 -9.77878 0
    endloop
  endfacet
  facet normal -0.817952 -0.575287 0
    outer loop
      vertex -1.61253 -9.77878 5
      vertex -1.00871 -10.6373 0
      vertex -1.00871 -10.6373 5
    endloop
  endfacet
  facet normal -0.72611 -0.687579 0
    outer loop
      vertex -0.232697 -11.4568 0
      vertex -1.00871 -10.6373 5
      vertex -1.00871 -10.6373 0
    endloop
  endfacet
  facet normal -0.72611 -0.687579 0
    outer loop
      vertex -1.00871 -10.6373 5
      vertex -0.232697 -11.4568 0
      vertex -0.232697 -11.4568 5
    endloop
  endfacet
  facet normal 0 -1 0
    outer loop
      vertex -0.232697 -11.4568 0
      vertex 0.232697 -11.4568 5
      vertex -0.232697 -11.4568 5
    endloop
  endfacet
  facet normal 0 -1 -0
    outer loop
      vertex 0.232697 -11.4568 5
      vertex -0.232697 -11.4568 0
      vertex 0.232697 -11.4568 0
    endloop
  endfacet
  facet normal 0.72611 -0.687579 0
    outer loop
      vertex 0.232697 -11.4568 5
      vertex 1.00871 -10.6373 0
      vertex 1.00871 -10.6373 5
    endloop
  endfacet
  facet normal 0.72611 -0.687579 0
    outer loop
      vertex 1.00871 -10.6373 0
      vertex 0.232697 -11.4568 5
      vertex 0.232697 -11.4568 0
    endloop
  endfacet
  facet normal 0.817952 -0.575287 0
    outer loop
      vertex 1.00871 -10.6373 5
      vertex 1.61253 -9.77878 0
      vertex 1.61253 -9.77878 5
    endloop
  endfacet
  facet normal 0.817952 -0.575287 0
    outer loop
      vertex 1.61253 -9.77878 0
      vertex 1.00871 -10.6373 5
      vertex 1.00871 -10.6373 0
    endloop
  endfacet
  facet normal 0.898824 -0.438309 0
    outer loop
      vertex 1.61253 -9.77878 5
      vertex 2.03789 -8.90651 0
      vertex 2.03789 -8.90651 5
    endloop
  endfacet
  facet normal 0.898824 -0.438309 0
    outer loop
      vertex 2.03789 -8.90651 0
      vertex 1.61253 -9.77878 5
      vertex 1.61253 -9.77878 0
    endloop
  endfacet
  facet normal 0.96421 -0.26514 0
    outer loop
      vertex 2.03789 -8.90651 5
      vertex 2.27414 -8.04736 0
      vertex 2.27414 -8.04736 5
    endloop
  endfacet
  facet normal 0.96421 -0.26514 0
    outer loop
      vertex 2.27414 -8.04736 0
      vertex 2.03789 -8.90651 5
      vertex 2.03789 -8.90651 0
    endloop
  endfacet
  facet normal 0.999992 -0.00403063 0
    outer loop
      vertex 2.27414 -8.04736 5
      vertex 2.2774 -7.23856 0
      vertex 2.2774 -7.23856 5
    endloop
  endfacet
  facet normal 0.999992 -0.00403063 0
    outer loop
      vertex 2.2774 -7.23856 0
      vertex 2.27414 -8.04736 5
      vertex 2.27414 -8.04736 0
    endloop
  endfacet
  facet normal 0.953902 0.300119 0
    outer loop
      vertex 2.2774 -7.23856 5
      vertex 1.71954 -5.46545 0
      vertex 1.71954 -5.46545 5
    endloop
  endfacet
  facet normal 0.953902 0.300119 0
    outer loop
      vertex 1.71954 -5.46545 0
      vertex 2.2774 -7.23856 5
      vertex 2.2774 -7.23856 0
    endloop
  endfacet
  facet normal 0.403797 -0.914849 0
    outer loop
      vertex 1.71954 -5.46545 0
      vertex 2.84836 -4.96721 5
      vertex 1.71954 -5.46545 5
    endloop
  endfacet
  facet normal 0.403797 -0.914849 0
    outer loop
      vertex 2.84836 -4.96721 5
      vertex 1.71954 -5.46545 0
      vertex 2.84836 -4.96721 0
    endloop
  endfacet
  facet normal 0.403758 -0.914866 0
    outer loop
      vertex 2.86386 -4.96037 0
      vertex 2.8792 -4.9536 5
      vertex 2.86386 -4.96037 5
    endloop
  endfacet
  facet normal 0.403758 -0.914866 0
    outer loop
      vertex 2.8792 -4.9536 5
      vertex 2.86386 -4.96037 0
      vertex 2.8792 -4.9536 0
    endloop
  endfacet
  facet normal 0.891102 0.453802 0
    outer loop
      vertex 2.8792 -4.9536 5
      vertex 2.87755 -4.95036 0
      vertex 2.87755 -4.95036 5
    endloop
  endfacet
  facet normal 0.891102 0.453802 0
    outer loop
      vertex 2.87755 -4.95036 0
      vertex 2.8792 -4.9536 5
      vertex 2.8792 -4.9536 0
    endloop
  endfacet
  facet normal -0.891102 0.453802 0
    outer loop
      vertex -2.8792 -4.9536 0
      vertex -2.87755 -4.95036 5
      vertex -2.87755 -4.95036 0
    endloop
  endfacet
  facet normal -0.891102 0.453802 0
    outer loop
      vertex -2.87755 -4.95036 5
      vertex -2.8792 -4.9536 0
      vertex -2.8792 -4.9536 5
    endloop
  endfacet
  facet normal 0.590406 -0.807107 0
    outer loop
      vertex 2.85034 -4.97026 0
      vertex 2.86386 -4.96037 5
      vertex 2.85034 -4.97026 5
    endloop
  endfacet
  facet normal 0.590406 -0.807107 0
    outer loop
      vertex 2.86386 -4.96037 5
      vertex 2.85034 -4.97026 0
      vertex 2.86386 -4.96037 0
    endloop
  endfacet
  facet normal 0.590379 -0.807126 0
    outer loop
      vertex 2.87755 -4.95036 0
      vertex 3.87345 -4.2219 5
      vertex 2.87755 -4.95036 5
    endloop
  endfacet
  facet normal 0.590379 -0.807126 0
    outer loop
      vertex 3.87345 -4.2219 5
      vertex 2.87755 -4.95036 0
      vertex 3.87345 -4.2219 0
    endloop
  endfacet
  facet normal -0.736862 -0.676043 0
    outer loop
      vertex 5.13007 -5.59157 0
      vertex 3.87345 -4.2219 5
      vertex 3.87345 -4.2219 0
    endloop
  endfacet
  facet normal -0.736862 -0.676043 0
    outer loop
      vertex 3.87345 -4.2219 5
      vertex 5.13007 -5.59157 0
      vertex 5.13007 -5.59157 5
    endloop
  endfacet
  facet normal -0.496494 -0.86804 0
    outer loop
      vertex 5.13007 -5.59157 0
      vertex 5.83215 -5.99314 5
      vertex 5.13007 -5.59157 5
    endloop
  endfacet
  facet normal -0.496494 -0.86804 -0
    outer loop
      vertex 5.83215 -5.99314 5
      vertex 5.13007 -5.59157 0
      vertex 5.83215 -5.99314 0
    endloop
  endfacet
  facet normal -0.252491 -0.967599 0
    outer loop
      vertex 5.83215 -5.99314 0
      vertex 6.69432 -6.21812 5
      vertex 5.83215 -5.99314 5
    endloop
  endfacet
  facet normal -0.252491 -0.967599 -0
    outer loop
      vertex 6.69432 -6.21812 5
      vertex 5.83215 -5.99314 0
      vertex 6.69432 -6.21812 0
    endloop
  endfacet
  facet normal -0.0698234 -0.997559 0
    outer loop
      vertex 6.69432 -6.21812 0
      vertex 7.6624 -6.28588 5
      vertex 6.69432 -6.21812 5
    endloop
  endfacet
  facet normal -0.0698234 -0.997559 -0
    outer loop
      vertex 7.6624 -6.28588 5
      vertex 6.69432 -6.21812 0
      vertex 7.6624 -6.28588 0
    endloop
  endfacet
  facet normal 0.0892548 -0.996009 0
    outer loop
      vertex 7.6624 -6.28588 0
      vertex 8.70779 -6.1922 5
      vertex 7.6624 -6.28588 5
    endloop
  endfacet
  facet normal 0.0892548 -0.996009 0
    outer loop
      vertex 8.70779 -6.1922 5
      vertex 7.6624 -6.28588 0
      vertex 8.70779 -6.1922 0
    endloop
  endfacet
  facet normal 0.232397 -0.972621 0
    outer loop
      vertex 8.70779 -6.1922 0
      vertex 9.80552 -5.92991 5
      vertex 8.70779 -6.1922 5
    endloop
  endfacet
  facet normal 0.232397 -0.972621 0
    outer loop
      vertex 9.80552 -5.92991 5
      vertex 8.70779 -6.1922 0
      vertex 9.80552 -5.92991 0
    endloop
  endfacet
  facet normal 0.86604 -0.499975 0
    outer loop
      vertex 9.80552 -5.92991 5
      vertex 10.0382 -5.52687 0
      vertex 10.0382 -5.52687 5
    endloop
  endfacet
  facet normal 0.86604 -0.499975 0
    outer loop
      vertex 10.0382 -5.52687 0
      vertex 9.80552 -5.92991 5
      vertex 9.80552 -5.92991 0
    endloop
  endfacet
  facet normal 0.958517 0.285036 0
    outer loop
      vertex 10.0382 -5.52687 5
      vertex 9.7165 -4.44506 0
      vertex 9.7165 -4.44506 5
    endloop
  endfacet
  facet normal 0.958517 0.285036 0
    outer loop
      vertex 9.7165 -4.44506 0
      vertex 10.0382 -5.52687 5
      vertex 10.0382 -5.52687 0
    endloop
  endfacet
  facet normal 0.907198 0.420705 0
    outer loop
      vertex 9.7165 -4.44506 5
      vertex 9.27494 -3.49289 0
      vertex 9.27494 -3.49289 5
    endloop
  endfacet
  facet normal 0.907198 0.420705 0
    outer loop
      vertex 9.27494 -3.49289 0
      vertex 9.7165 -4.44506 5
      vertex 9.7165 -4.44506 0
    endloop
  endfacet
  facet normal 0.828996 0.559255 0
    outer loop
      vertex 9.27494 -3.49289 5
      vertex 8.73221 -2.68839 0
      vertex 8.73221 -2.68839 5
    endloop
  endfacet
  facet normal 0.828996 0.559255 0
    outer loop
      vertex 8.73221 -2.68839 0
      vertex 9.27494 -3.49289 5
      vertex 9.27494 -3.49289 0
    endloop
  endfacet
  facet normal 0.711721 0.702462 0
    outer loop
      vertex 8.73221 -2.68839 5
      vertex 8.10629 -2.05422 0
      vertex 8.10629 -2.05422 5
    endloop
  endfacet
  facet normal 0.711721 0.702462 0
    outer loop
      vertex 8.10629 -2.05422 0
      vertex 8.73221 -2.68839 5
      vertex 8.73221 -2.68839 0
    endloop
  endfacet
  facet normal 0.503494 0.863999 -0
    outer loop
      vertex 8.10629 -2.05422 0
      vertex 7.40748 -1.64699 5
      vertex 8.10629 -2.05422 5
    endloop
  endfacet
  facet normal 0.503494 0.863999 0
    outer loop
      vertex 7.40748 -1.64699 5
      vertex 8.10629 -2.05422 0
      vertex 7.40748 -1.64699 0
    endloop
  endfacet
  facet normal 0.217038 0.976163 -0
    outer loop
      vertex 7.40748 -1.64699 0
      vertex 5.59299 -1.24356 5
      vertex 7.40748 -1.64699 5
    endloop
  endfacet
  facet normal 0.217038 0.976163 0
    outer loop
      vertex 5.59299 -1.24356 5
      vertex 7.40748 -1.64699 0
      vertex 5.59299 -1.24356 0
    endloop
  endfacet
  facet normal 0.994181 -0.107724 0
    outer loop
      vertex 5.59299 -1.24356 5
      vertex 5.72591 -0.0168488 0
      vertex 5.72591 -0.0168488 5
    endloop
  endfacet
  facet normal 0.994181 -0.107724 0
    outer loop
      vertex 5.72591 -0.0168488 0
      vertex 5.59299 -1.24356 5
      vertex 5.59299 -1.24356 0
    endloop
  endfacet
  facet normal 0.994149 -0.108022 0
    outer loop
      vertex 5.72773 0 5
      vertex 5.72954 0.0166578 0
      vertex 5.72954 0.0166578 5
    endloop
  endfacet
  facet normal 0.994149 -0.108022 0
    outer loop
      vertex 5.72954 0.0166578 0
      vertex 5.72773 0 5
      vertex 5.72773 0 0
    endloop
  endfacet
  facet normal 0.0525444 0.998619 -0
    outer loop
      vertex 5.72954 0.0166578 0
      vertex 5.72591 0.0168488 5
      vertex 5.72954 0.0166578 5
    endloop
  endfacet
  facet normal 0.0525444 0.998619 0
    outer loop
      vertex 5.72591 0.0168488 5
      vertex 5.72954 0.0166578 0
      vertex 5.72591 0.0168488 0
    endloop
  endfacet
  facet normal -0.838758 -0.544505 0
    outer loop
      vertex 2.85034 -4.97026 0
      vertex 2.84836 -4.96721 5
      vertex 2.84836 -4.96721 0
    endloop
  endfacet
  facet normal -0.838758 -0.544505 0
    outer loop
      vertex 2.84836 -4.96721 5
      vertex 2.85034 -4.97026 0
      vertex 2.85034 -4.97026 5
    endloop
  endfacet
  facet normal 0.994149 0.108022 0
    outer loop
      vertex 5.72954 -0.0166578 5
      vertex 5.72773 0 0
      vertex 5.72773 0 5
    endloop
  endfacet
  facet normal 0.994149 0.108022 0
    outer loop
      vertex 5.72773 0 0
      vertex 5.72954 -0.0166578 5
      vertex 5.72954 -0.0166578 0
    endloop
  endfacet
  facet normal 0.994181 0.107724 0
    outer loop
      vertex 5.72591 0.0168488 5
      vertex 5.59299 1.24356 0
      vertex 5.59299 1.24356 5
    endloop
  endfacet
  facet normal 0.994181 0.107724 0
    outer loop
      vertex 5.59299 1.24356 0
      vertex 5.72591 0.0168488 5
      vertex 5.72591 0.0168488 0
    endloop
  endfacet
  facet normal 0.217038 -0.976163 0
    outer loop
      vertex 5.59299 1.24356 0
      vertex 7.40748 1.64699 5
      vertex 5.59299 1.24356 5
    endloop
  endfacet
  facet normal 0.217038 -0.976163 0
    outer loop
      vertex 7.40748 1.64699 5
      vertex 5.59299 1.24356 0
      vertex 7.40748 1.64699 0
    endloop
  endfacet
  facet normal 0.503494 -0.863999 0
    outer loop
      vertex 7.40748 1.64699 0
      vertex 8.10629 2.05422 5
      vertex 7.40748 1.64699 5
    endloop
  endfacet
  facet normal 0.503494 -0.863999 0
    outer loop
      vertex 8.10629 2.05422 5
      vertex 7.40748 1.64699 0
      vertex 8.10629 2.05422 0
    endloop
  endfacet
  facet normal 0.711721 -0.702462 0
    outer loop
      vertex 8.10629 2.05422 5
      vertex 8.73221 2.68839 0
      vertex 8.73221 2.68839 5
    endloop
  endfacet
  facet normal 0.711721 -0.702462 0
    outer loop
      vertex 8.73221 2.68839 0
      vertex 8.10629 2.05422 5
      vertex 8.10629 2.05422 0
    endloop
  endfacet
  facet normal 0.828996 -0.559255 0
    outer loop
      vertex 8.73221 2.68839 5
      vertex 9.27494 3.49289 0
      vertex 9.27494 3.49289 5
    endloop
  endfacet
  facet normal 0.828996 -0.559255 0
    outer loop
      vertex 9.27494 3.49289 0
      vertex 8.73221 2.68839 5
      vertex 8.73221 2.68839 0
    endloop
  endfacet
  facet normal 0.907198 -0.420705 0
    outer loop
      vertex 9.27494 3.49289 5
      vertex 9.7165 4.44506 0
      vertex 9.7165 4.44506 5
    endloop
  endfacet
  facet normal 0.907198 -0.420705 0
    outer loop
      vertex 9.7165 4.44506 0
      vertex 9.27494 3.49289 5
      vertex 9.27494 3.49289 0
    endloop
  endfacet
  facet normal 0.958517 -0.285036 0
    outer loop
      vertex 9.7165 4.44506 5
      vertex 10.0382 5.52687 0
      vertex 10.0382 5.52687 5
    endloop
  endfacet
  facet normal 0.958517 -0.285036 0
    outer loop
      vertex 10.0382 5.52687 0
      vertex 9.7165 4.44506 5
      vertex 9.7165 4.44506 0
    endloop
  endfacet
  facet normal 0.86604 0.499975 0
    outer loop
      vertex 10.0382 5.52687 5
      vertex 9.80552 5.92991 0
      vertex 9.80552 5.92991 5
    endloop
  endfacet
  facet normal 0.86604 0.499975 0
    outer loop
      vertex 9.80552 5.92991 0
      vertex 10.0382 5.52687 5
      vertex 10.0382 5.52687 0
    endloop
  endfacet
  facet normal 0.232397 0.972621 -0
    outer loop
      vertex 9.80552 5.92991 0
      vertex 8.70779 6.1922 5
      vertex 9.80552 5.92991 5
    endloop
  endfacet
  facet normal 0.232397 0.972621 0
    outer loop
      vertex 8.70779 6.1922 5
      vertex 9.80552 5.92991 0
      vertex 8.70779 6.1922 0
    endloop
  endfacet
  facet normal 0.0892548 0.996009 -0
    outer loop
      vertex 8.70779 6.1922 0
      vertex 7.6624 6.28588 5
      vertex 8.70779 6.1922 5
    endloop
  endfacet
  facet normal 0.0892548 0.996009 0
    outer loop
      vertex 7.6624 6.28588 5
      vertex 8.70779 6.1922 0
      vertex 7.6624 6.28588 0
    endloop
  endfacet
  facet normal -0.0698234 0.997559 0
    outer loop
      vertex 7.6624 6.28588 0
      vertex 6.69432 6.21812 5
      vertex 7.6624 6.28588 5
    endloop
  endfacet
  facet normal -0.0698234 0.997559 0
    outer loop
      vertex 6.69432 6.21812 5
      vertex 7.6624 6.28588 0
      vertex 6.69432 6.21812 0
    endloop
  endfacet
  facet normal -0.252491 0.967599 0
    outer loop
      vertex 6.69432 6.21812 0
      vertex 5.83215 5.99314 5
      vertex 6.69432 6.21812 5
    endloop
  endfacet
  facet normal -0.252491 0.967599 0
    outer loop
      vertex 5.83215 5.99314 5
      vertex 6.69432 6.21812 0
      vertex 5.83215 5.99314 0
    endloop
  endfacet
  facet normal -0.496494 0.86804 0
    outer loop
      vertex 5.83215 5.99314 0
      vertex 5.13007 5.59157 5
      vertex 5.83215 5.99314 5
    endloop
  endfacet
  facet normal -0.496494 0.86804 0
    outer loop
      vertex 5.13007 5.59157 5
      vertex 5.83215 5.99314 0
      vertex 5.13007 5.59157 0
    endloop
  endfacet
  facet normal -0.736862 0.676043 0
    outer loop
      vertex 3.87345 4.2219 0
      vertex 5.13007 5.59157 5
      vertex 5.13007 5.59157 0
    endloop
  endfacet
  facet normal -0.736862 0.676043 0
    outer loop
      vertex 5.13007 5.59157 5
      vertex 3.87345 4.2219 0
      vertex 3.87345 4.2219 5
    endloop
  endfacet
  facet normal 0.590379 0.807126 -0
    outer loop
      vertex 3.87345 4.2219 0
      vertex 2.87755 4.95036 5
      vertex 3.87345 4.2219 5
    endloop
  endfacet
  facet normal 0.590379 0.807126 0
    outer loop
      vertex 2.87755 4.95036 5
      vertex 3.87345 4.2219 0
      vertex 2.87755 4.95036 0
    endloop
  endfacet
  facet normal 0.590406 0.807107 -0
    outer loop
      vertex 2.86386 4.96037 0
      vertex 2.85034 4.97026 5
      vertex 2.86386 4.96037 5
    endloop
  endfacet
  facet normal 0.590406 0.807107 0
    outer loop
      vertex 2.85034 4.97026 5
      vertex 2.86386 4.96037 0
      vertex 2.85034 4.97026 0
    endloop
  endfacet
  facet normal -0.838758 0.544505 0
    outer loop
      vertex 2.84836 4.96721 0
      vertex 2.85034 4.97026 5
      vertex 2.85034 4.97026 0
    endloop
  endfacet
  facet normal -0.838758 0.544505 0
    outer loop
      vertex 2.85034 4.97026 5
      vertex 2.84836 4.96721 0
      vertex 2.84836 4.96721 5
    endloop
  endfacet
  facet normal 0.0525444 -0.998619 0
    outer loop
      vertex 5.72591 -0.0168488 0
      vertex 5.72954 -0.0166578 5
      vertex 5.72591 -0.0168488 5
    endloop
  endfacet
  facet normal 0.0525444 -0.998619 0
    outer loop
      vertex 5.72954 -0.0166578 5
      vertex 5.72591 -0.0168488 0
      vertex 5.72954 -0.0166578 0
    endloop
  endfacet
  facet normal -0.987689 -0.156432 0
    outer loop
      vertex 3.5 0 0
      vertex 3.3287 1.08156 5
      vertex 3.3287 1.08156 0
    endloop
  endfacet
  facet normal -0.987689 -0.156432 0
    outer loop
      vertex 3.3287 1.08156 5
      vertex 3.5 0 0
      vertex 3.5 0 5
    endloop
  endfacet
  facet normal -0.453991 -0.891006 0
    outer loop
      vertex 1.08156 3.3287 0
      vertex 2.05725 2.83156 5
      vertex 1.08156 3.3287 5
    endloop
  endfacet
  facet normal -0.453991 -0.891006 -0
    outer loop
      vertex 2.05725 2.83156 5
      vertex 1.08156 3.3287 0
      vertex 2.05725 2.83156 0
    endloop
  endfacet
  facet normal 0.891006 -0.453991 0
    outer loop
      vertex -3.3287 1.08156 5
      vertex -2.83156 2.05725 0
      vertex -2.83156 2.05725 5
    endloop
  endfacet
  facet normal 0.891006 -0.453991 0
    outer loop
      vertex -2.83156 2.05725 0
      vertex -3.3287 1.08156 5
      vertex -3.3287 1.08156 0
    endloop
  endfacet
  facet normal 0.453991 0.891006 -0
    outer loop
      vertex -1.08156 -3.3287 0
      vertex -2.05725 -2.83156 5
      vertex -1.08156 -3.3287 5
    endloop
  endfacet
  facet normal 0.453991 0.891006 0
    outer loop
      vertex -2.05725 -2.83156 5
      vertex -1.08156 -3.3287 0
      vertex -2.05725 -2.83156 0
    endloop
  endfacet
  facet normal -0.707107 -0.707107 0
    outer loop
      vertex 2.83156 2.05725 0
      vertex 2.05725 2.83156 5
      vertex 2.05725 2.83156 0
    endloop
  endfacet
  facet normal -0.707107 -0.707107 0
    outer loop
      vertex 2.05725 2.83156 5
      vertex 2.83156 2.05725 0
      vertex 2.83156 2.05725 5
    endloop
  endfacet
  facet normal -0.891006 -0.453991 0
    outer loop
      vertex 3.3287 1.08156 0
      vertex 2.83156 2.05725 5
      vertex 2.83156 2.05725 0
    endloop
  endfacet
  facet normal -0.891006 -0.453991 0
    outer loop
      vertex 2.83156 2.05725 5
      vertex 3.3287 1.08156 0
      vertex 3.3287 1.08156 5
    endloop
  endfacet
  facet normal -0.156432 -0.987689 0
    outer loop
      vertex 0 3.5 0
      vertex 1.08156 3.3287 5
      vertex 0 3.5 5
    endloop
  endfacet
  facet normal -0.156432 -0.987689 -0
    outer loop
      vertex 1.08156 3.3287 5
      vertex 0 3.5 0
      vertex 1.08156 3.3287 0
    endloop
  endfacet
  facet normal 0.156432 -0.987689 0
    outer loop
      vertex -1.08156 3.3287 0
      vertex 0 3.5 5
      vertex -1.08156 3.3287 5
    endloop
  endfacet
  facet normal 0.156432 -0.987689 0
    outer loop
      vertex 0 3.5 5
      vertex -1.08156 3.3287 0
      vertex 0 3.5 0
    endloop
  endfacet
  facet normal 0.453991 -0.891006 0
    outer loop
      vertex -2.05725 2.83156 0
      vertex -1.08156 3.3287 5
      vertex -2.05725 2.83156 5
    endloop
  endfacet
  facet normal 0.453991 -0.891006 0
    outer loop
      vertex -1.08156 3.3287 5
      vertex -2.05725 2.83156 0
      vertex -1.08156 3.3287 0
    endloop
  endfacet
  facet normal -0.707107 0.707107 0
    outer loop
      vertex 2.05725 -2.83156 0
      vertex 2.83156 -2.05725 5
      vertex 2.83156 -2.05725 0
    endloop
  endfacet
  facet normal -0.707107 0.707107 0
    outer loop
      vertex 2.83156 -2.05725 5
      vertex 2.05725 -2.83156 0
      vertex 2.05725 -2.83156 5
    endloop
  endfacet
  facet normal 0.987689 0.156432 0
    outer loop
      vertex -3.3287 -1.08156 5
      vertex -3.5 0 0
      vertex -3.5 0 5
    endloop
  endfacet
  facet normal 0.987689 0.156432 0
    outer loop
      vertex -3.5 0 0
      vertex -3.3287 -1.08156 5
      vertex -3.3287 -1.08156 0
    endloop
  endfacet
  facet normal 0.707107 0.707107 0
    outer loop
      vertex -2.05725 -2.83156 5
      vertex -2.83156 -2.05725 0
      vertex -2.83156 -2.05725 5
    endloop
  endfacet
  facet normal 0.707107 0.707107 0
    outer loop
      vertex -2.83156 -2.05725 0
      vertex -2.05725 -2.83156 5
      vertex -2.05725 -2.83156 0
    endloop
  endfacet
  facet normal 0.891006 0.453991 0
    outer loop
      vertex -2.83156 -2.05725 5
      vertex -3.3287 -1.08156 0
      vertex -3.3287 -1.08156 5
    endloop
  endfacet
  facet normal 0.891006 0.453991 0
    outer loop
      vertex -3.3287 -1.08156 0
      vertex -2.83156 -2.05725 5
      vertex -2.83156 -2.05725 0
    endloop
  endfacet
  facet normal 0.987689 -0.156432 0
    outer loop
      vertex -3.5 0 5
      vertex -3.3287 1.08156 0
      vertex -3.3287 1.08156 5
    endloop
  endfacet
  facet normal 0.987689 -0.156432 0
    outer loop
      vertex -3.3287 1.08156 0
      vertex -3.5 0 5
      vertex -3.5 0 0
    endloop
  endfacet
  facet normal 0.707107 -0.707107 0
    outer loop
      vertex -2.83156 2.05725 5
      vertex -2.05725 2.83156 0
      vertex -2.05725 2.83156 5
    endloop
  endfacet
  facet normal 0.707107 -0.707107 0
    outer loop
      vertex -2.05725 2.83156 0
      vertex -2.83156 2.05725 5
      vertex -2.83156 2.05725 0
    endloop
  endfacet
  facet normal -0.891006 0.453991 0
    outer loop
      vertex 2.83156 -2.05725 0
      vertex 3.3287 -1.08156 5
      vertex 3.3287 -1.08156 0
    endloop
  endfacet
  facet normal -0.891006 0.453991 0
    outer loop
      vertex 3.3287 -1.08156 5
      vertex 2.83156 -2.05725 0
      vertex 2.83156 -2.05725 5
    endloop
  endfacet
  facet normal -0.156432 0.987689 0
    outer loop
      vertex 1.08156 -3.3287 0
      vertex 0 -3.5 5
      vertex 1.08156 -3.3287 5
    endloop
  endfacet
  facet normal -0.156432 0.987689 0
    outer loop
      vertex 0 -3.5 5
      vertex 1.08156 -3.3287 0
      vertex 0 -3.5 0
    endloop
  endfacet
  facet normal -0.453991 0.891006 0
    outer loop
      vertex 2.05725 -2.83156 0
      vertex 1.08156 -3.3287 5
      vertex 2.05725 -2.83156 5
    endloop
  endfacet
  facet normal -0.453991 0.891006 0
    outer loop
      vertex 1.08156 -3.3287 5
      vertex 2.05725 -2.83156 0
      vertex 1.08156 -3.3287 0
    endloop
  endfacet
  facet normal 0.156432 0.987689 -0
    outer loop
      vertex 0 -3.5 0
      vertex -1.08156 -3.3287 5
      vertex 0 -3.5 5
    endloop
  endfacet
  facet normal 0.156432 0.987689 0
    outer loop
      vertex -1.08156 -3.3287 5
      vertex 0 -3.5 0
      vertex -1.08156 -3.3287 0
    endloop
  endfacet
  facet normal -0.987689 0.156432 0
    outer loop
      vertex 3.3287 -1.08156 0
      vertex 3.5 0 5
      vertex 3.5 0 0
    endloop
  endfacet
  facet normal -0.987689 0.156432 0
    outer loop
      vertex 3.5 0 5
      vertex 3.3287 -1.08156 0
      vertex 3.3287 -1.08156 5
    endloop
  endfacet
endsolid OpenSCAD_Model
